  0
SECTION
  2
BLOCKS
  0
ENDSEC
  0
SECTION
  2
ENTITIES
  0
LINE
  8
0
 10
1462.24
 20
-44.8429
 11
1463.41
 21
-44.3815
  0
LINE
  8
0
 10
1463.41
 20
-44.3815
 11
1464.42
 21
-43.6448
  0
LINE
  8
0
 10
1464.42
 20
-43.6448
 11
1465.22
 21
-42.6791
  0
LINE
  8
0
 10
1465.22
 20
-42.6791
 11
1465.76
 21
-41.5451
  0
LINE
  8
0
 10
1465.76
 20
-41.5451
 11
1466
 21
-40
  0
LINE
  8
0
 10
1466
 20
-40
 11
1466
 21
40
  0
LINE
  8
0
 10
1466
 20
40
 11
1465.84
 21
41.2435
  0
LINE
  8
0
 10
1465.84
 20
41.2435
 11
1465.38
 21
42.4088
  0
LINE
  8
0
 10
1465.38
 20
42.4088
 11
1464.64
 21
43.4227
  0
LINE
  8
0
 10
1464.64
 20
43.4227
 11
1463.68
 21
44.2216
  0
LINE
  8
0
 10
1463.68
 20
44.2216
 11
1462.55
 21
44.7553
  0
LINE
  8
0
 10
1462.55
 20
44.7553
 11
1461
 21
45
  0
LINE
  8
0
 10
1461
 20
45
 11
1351
 21
45
  0
LINE
  8
0
 10
1351
 20
45
 11
1349.76
 21
44.8429
  0
LINE
  8
0
 10
1349.76
 20
44.8429
 11
1348.59
 21
44.3815
  0
LINE
  8
0
 10
1348.59
 20
44.3815
 11
1347.58
 21
43.6448
  0
LINE
  8
0
 10
1347.58
 20
43.6448
 11
1346.78
 21
42.6791
  0
LINE
  8
0
 10
1346.78
 20
42.6791
 11
1346.24
 21
41.5451
  0
LINE
  8
0
 10
1346.24
 20
41.5451
 11
1346
 21
40
  0
LINE
  8
0
 10
1346
 20
40
 11
1346
 21
21.5
  0
LINE
  8
0
 10
1346
 20
21.5
 11
1431.5
 21
21.5
  0
LINE
  8
0
 10
1431.5
 20
21.5
 11
1431.5
 21
21.3726
  0
LINE
  8
0
 10
1431.5
 20
21.3726
 11
1432.85
 21
21.4576
  0
LINE
  8
0
 10
1432.85
 20
21.4576
 11
1438.14
 21
20.4477
  0
LINE
  8
0
 10
1438.14
 20
20.4477
 11
1443.02
 21
18.153
  0
LINE
  8
0
 10
1443.02
 20
18.153
 11
1447.17
 21
14.7178
  0
LINE
  8
0
 10
1447.17
 20
14.7178
 11
1450.34
 21
10.3577
  0
LINE
  8
0
 10
1450.34
 20
10.3577
 11
1452.32
 21
5.34683
  0
LINE
  8
0
 10
1452.32
 20
5.34683
 11
1453
 21
0
  0
LINE
  8
0
 10
1453
 20
0
 11
1452.32
 21
-5.34683
  0
LINE
  8
0
 10
1452.32
 20
-5.34683
 11
1450.34
 21
-10.3577
  0
LINE
  8
0
 10
1450.34
 20
-10.3577
 11
1447.17
 21
-14.7178
  0
LINE
  8
0
 10
1447.17
 20
-14.7178
 11
1443.02
 21
-18.153
  0
LINE
  8
0
 10
1443.02
 20
-18.153
 11
1438.14
 21
-20.4477
  0
LINE
  8
0
 10
1438.14
 20
-20.4477
 11
1432.85
 21
-21.4576
  0
LINE
  8
0
 10
1432.85
 20
-21.4576
 11
1431.5
 21
-21.3726
  0
LINE
  8
0
 10
1431.5
 20
-21.3726
 11
1431.5
 21
-21.5
  0
LINE
  8
0
 10
1431.5
 20
-21.5
 11
1346
 21
-21.5
  0
LINE
  8
0
 10
1346
 20
-21.5
 11
1346
 21
-40
  0
LINE
  8
0
 10
1346
 20
-40
 11
1346.16
 21
-41.2435
  0
LINE
  8
0
 10
1346.16
 20
-41.2435
 11
1346.62
 21
-42.4088
  0
LINE
  8
0
 10
1346.62
 20
-42.4088
 11
1347.36
 21
-43.4227
  0
LINE
  8
0
 10
1347.36
 20
-43.4227
 11
1348.32
 21
-44.2216
  0
LINE
  8
0
 10
1348.32
 20
-44.2216
 11
1349.45
 21
-44.7553
  0
LINE
  8
0
 10
1349.45
 20
-44.7553
 11
1351
 21
-45
  0
LINE
  8
0
 10
1351
 20
-45
 11
1461
 21
-45
  0
LINE
  8
0
 10
1461
 20
-45
 11
1462.24
 21
-44.8429
  0
LINE
  8
0
 10
1351.44
 20
36.0531
 11
1350.72
 21
36.2855
  0
LINE
  8
0
 10
1350.72
 20
36.2855
 11
1350.09
 21
36.6885
  0
LINE
  8
0
 10
1350.09
 20
36.6885
 11
1349.57
 21
37.2366
  0
LINE
  8
0
 10
1349.57
 20
37.2366
 11
1349.21
 21
37.8956
  0
LINE
  8
0
 10
1349.21
 20
37.8956
 11
1349.02
 21
38.624
  0
LINE
  8
0
 10
1349.02
 20
38.624
 11
1349.02
 21
39.376
  0
LINE
  8
0
 10
1349.02
 20
39.376
 11
1349.21
 21
40.1044
  0
LINE
  8
0
 10
1349.21
 20
40.1044
 11
1349.57
 21
40.7634
  0
LINE
  8
0
 10
1349.57
 20
40.7634
 11
1350.09
 21
41.3115
  0
LINE
  8
0
 10
1350.09
 20
41.3115
 11
1350.72
 21
41.7145
  0
LINE
  8
0
 10
1350.72
 20
41.7145
 11
1351.44
 21
41.9469
  0
LINE
  8
0
 10
1351.44
 20
41.9469
 11
1352.19
 21
41.9941
  0
LINE
  8
0
 10
1352.19
 20
41.9941
 11
1352.93
 21
41.8532
  0
LINE
  8
0
 10
1352.93
 20
41.8532
 11
1353.61
 21
41.533
  0
LINE
  8
0
 10
1353.61
 20
41.533
 11
1354.19
 21
41.0536
  0
LINE
  8
0
 10
1354.19
 20
41.0536
 11
1354.63
 21
40.4453
  0
LINE
  8
0
 10
1354.63
 20
40.4453
 11
1354.91
 21
39.7461
  0
LINE
  8
0
 10
1354.91
 20
39.7461
 11
1355
 21
39
  0
LINE
  8
0
 10
1355
 20
39
 11
1354.91
 21
38.2539
  0
LINE
  8
0
 10
1354.91
 20
38.2539
 11
1354.63
 21
37.5547
  0
LINE
  8
0
 10
1354.63
 20
37.5547
 11
1354.19
 21
36.9464
  0
LINE
  8
0
 10
1354.19
 20
36.9464
 11
1353.61
 21
36.467
  0
LINE
  8
0
 10
1353.61
 20
36.467
 11
1352.93
 21
36.1468
  0
LINE
  8
0
 10
1352.93
 20
36.1468
 11
1352.19
 21
36.0059
  0
LINE
  8
0
 10
1352.19
 20
36.0059
 11
1351.44
 21
36.0531
  0
LINE
  8
0
 10
1459.44
 20
36.0531
 11
1458.72
 21
36.2855
  0
LINE
  8
0
 10
1458.72
 20
36.2855
 11
1458.09
 21
36.6885
  0
LINE
  8
0
 10
1458.09
 20
36.6885
 11
1457.57
 21
37.2366
  0
LINE
  8
0
 10
1457.57
 20
37.2366
 11
1457.21
 21
37.8956
  0
LINE
  8
0
 10
1457.21
 20
37.8956
 11
1457.02
 21
38.624
  0
LINE
  8
0
 10
1457.02
 20
38.624
 11
1457.02
 21
39.376
  0
LINE
  8
0
 10
1457.02
 20
39.376
 11
1457.21
 21
40.1044
  0
LINE
  8
0
 10
1457.21
 20
40.1044
 11
1457.57
 21
40.7634
  0
LINE
  8
0
 10
1457.57
 20
40.7634
 11
1458.09
 21
41.3115
  0
LINE
  8
0
 10
1458.09
 20
41.3115
 11
1458.72
 21
41.7145
  0
LINE
  8
0
 10
1458.72
 20
41.7145
 11
1459.44
 21
41.9469
  0
LINE
  8
0
 10
1459.44
 20
41.9469
 11
1460.19
 21
41.9941
  0
LINE
  8
0
 10
1460.19
 20
41.9941
 11
1460.93
 21
41.8532
  0
LINE
  8
0
 10
1460.93
 20
41.8532
 11
1461.61
 21
41.533
  0
LINE
  8
0
 10
1461.61
 20
41.533
 11
1462.19
 21
41.0536
  0
LINE
  8
0
 10
1462.19
 20
41.0536
 11
1462.63
 21
40.4453
  0
LINE
  8
0
 10
1462.63
 20
40.4453
 11
1462.91
 21
39.7461
  0
LINE
  8
0
 10
1462.91
 20
39.7461
 11
1463
 21
39
  0
LINE
  8
0
 10
1463
 20
39
 11
1462.91
 21
38.2539
  0
LINE
  8
0
 10
1462.91
 20
38.2539
 11
1462.63
 21
37.5547
  0
LINE
  8
0
 10
1462.63
 20
37.5547
 11
1462.19
 21
36.9464
  0
LINE
  8
0
 10
1462.19
 20
36.9464
 11
1461.61
 21
36.467
  0
LINE
  8
0
 10
1461.61
 20
36.467
 11
1460.93
 21
36.1468
  0
LINE
  8
0
 10
1460.93
 20
36.1468
 11
1460.19
 21
36.0059
  0
LINE
  8
0
 10
1460.19
 20
36.0059
 11
1459.44
 21
36.0531
  0
LINE
  8
0
 10
1459.44
 20
-41.9469
 11
1458.72
 21
-41.7145
  0
LINE
  8
0
 10
1458.72
 20
-41.7145
 11
1458.09
 21
-41.3115
  0
LINE
  8
0
 10
1458.09
 20
-41.3115
 11
1457.57
 21
-40.7634
  0
LINE
  8
0
 10
1457.57
 20
-40.7634
 11
1457.21
 21
-40.1044
  0
LINE
  8
0
 10
1457.21
 20
-40.1044
 11
1457.02
 21
-39.376
  0
LINE
  8
0
 10
1457.02
 20
-39.376
 11
1457.02
 21
-38.624
  0
LINE
  8
0
 10
1457.02
 20
-38.624
 11
1457.21
 21
-37.8956
  0
LINE
  8
0
 10
1457.21
 20
-37.8956
 11
1457.57
 21
-37.2366
  0
LINE
  8
0
 10
1457.57
 20
-37.2366
 11
1458.09
 21
-36.6885
  0
LINE
  8
0
 10
1458.09
 20
-36.6885
 11
1458.72
 21
-36.2855
  0
LINE
  8
0
 10
1458.72
 20
-36.2855
 11
1459.44
 21
-36.0531
  0
LINE
  8
0
 10
1459.44
 20
-36.0531
 11
1460.19
 21
-36.0059
  0
LINE
  8
0
 10
1460.19
 20
-36.0059
 11
1460.93
 21
-36.1468
  0
LINE
  8
0
 10
1460.93
 20
-36.1468
 11
1461.61
 21
-36.467
  0
LINE
  8
0
 10
1461.61
 20
-36.467
 11
1462.19
 21
-36.9464
  0
LINE
  8
0
 10
1462.19
 20
-36.9464
 11
1462.63
 21
-37.5547
  0
LINE
  8
0
 10
1462.63
 20
-37.5547
 11
1462.91
 21
-38.2539
  0
LINE
  8
0
 10
1462.91
 20
-38.2539
 11
1463
 21
-39
  0
LINE
  8
0
 10
1463
 20
-39
 11
1462.91
 21
-39.7461
  0
LINE
  8
0
 10
1462.91
 20
-39.7461
 11
1462.63
 21
-40.4453
  0
LINE
  8
0
 10
1462.63
 20
-40.4453
 11
1462.19
 21
-41.0536
  0
LINE
  8
0
 10
1462.19
 20
-41.0536
 11
1461.61
 21
-41.533
  0
LINE
  8
0
 10
1461.61
 20
-41.533
 11
1460.93
 21
-41.8532
  0
LINE
  8
0
 10
1460.93
 20
-41.8532
 11
1460.19
 21
-41.9941
  0
LINE
  8
0
 10
1460.19
 20
-41.9941
 11
1459.44
 21
-41.9469
  0
LINE
  8
0
 10
1351.44
 20
-41.9469
 11
1350.72
 21
-41.7145
  0
LINE
  8
0
 10
1350.72
 20
-41.7145
 11
1350.09
 21
-41.3115
  0
LINE
  8
0
 10
1350.09
 20
-41.3115
 11
1349.57
 21
-40.7634
  0
LINE
  8
0
 10
1349.57
 20
-40.7634
 11
1349.21
 21
-40.1044
  0
LINE
  8
0
 10
1349.21
 20
-40.1044
 11
1349.02
 21
-39.376
  0
LINE
  8
0
 10
1349.02
 20
-39.376
 11
1349.02
 21
-38.624
  0
LINE
  8
0
 10
1349.02
 20
-38.624
 11
1349.21
 21
-37.8956
  0
LINE
  8
0
 10
1349.21
 20
-37.8956
 11
1349.57
 21
-37.2366
  0
LINE
  8
0
 10
1349.57
 20
-37.2366
 11
1350.09
 21
-36.6885
  0
LINE
  8
0
 10
1350.09
 20
-36.6885
 11
1350.72
 21
-36.2855
  0
LINE
  8
0
 10
1350.72
 20
-36.2855
 11
1351.44
 21
-36.0531
  0
LINE
  8
0
 10
1351.44
 20
-36.0531
 11
1352.19
 21
-36.0059
  0
LINE
  8
0
 10
1352.19
 20
-36.0059
 11
1352.93
 21
-36.1468
  0
LINE
  8
0
 10
1352.93
 20
-36.1468
 11
1353.61
 21
-36.467
  0
LINE
  8
0
 10
1353.61
 20
-36.467
 11
1354.19
 21
-36.9464
  0
LINE
  8
0
 10
1354.19
 20
-36.9464
 11
1354.63
 21
-37.5547
  0
LINE
  8
0
 10
1354.63
 20
-37.5547
 11
1354.91
 21
-38.2539
  0
LINE
  8
0
 10
1354.91
 20
-38.2539
 11
1355
 21
-39
  0
LINE
  8
0
 10
1355
 20
-39
 11
1354.91
 21
-39.7461
  0
LINE
  8
0
 10
1354.91
 20
-39.7461
 11
1354.63
 21
-40.4453
  0
LINE
  8
0
 10
1354.63
 20
-40.4453
 11
1354.19
 21
-41.0536
  0
LINE
  8
0
 10
1354.19
 20
-41.0536
 11
1353.61
 21
-41.533
  0
LINE
  8
0
 10
1353.61
 20
-41.533
 11
1352.93
 21
-41.8532
  0
LINE
  8
0
 10
1352.93
 20
-41.8532
 11
1352.19
 21
-41.9941
  0
LINE
  8
0
 10
1352.19
 20
-41.9941
 11
1351.44
 21
-41.9469
  0
LINE
  8
0
 10
1339.24
 20
-44.8429
 11
1340.41
 21
-44.3815
  0
LINE
  8
0
 10
1340.41
 20
-44.3815
 11
1341.42
 21
-43.6448
  0
LINE
  8
0
 10
1341.42
 20
-43.6448
 11
1342.22
 21
-42.6791
  0
LINE
  8
0
 10
1342.22
 20
-42.6791
 11
1342.76
 21
-41.5451
  0
LINE
  8
0
 10
1342.76
 20
-41.5451
 11
1343
 21
-40
  0
LINE
  8
0
 10
1343
 20
-40
 11
1343
 21
40
  0
LINE
  8
0
 10
1343
 20
40
 11
1342.84
 21
41.2435
  0
LINE
  8
0
 10
1342.84
 20
41.2435
 11
1342.38
 21
42.4088
  0
LINE
  8
0
 10
1342.38
 20
42.4088
 11
1341.64
 21
43.4227
  0
LINE
  8
0
 10
1341.64
 20
43.4227
 11
1340.68
 21
44.2216
  0
LINE
  8
0
 10
1340.68
 20
44.2216
 11
1339.55
 21
44.7553
  0
LINE
  8
0
 10
1339.55
 20
44.7553
 11
1338
 21
45
  0
LINE
  8
0
 10
1338
 20
45
 11
1228
 21
45
  0
LINE
  8
0
 10
1228
 20
45
 11
1226.76
 21
44.8429
  0
LINE
  8
0
 10
1226.76
 20
44.8429
 11
1225.59
 21
44.3815
  0
LINE
  8
0
 10
1225.59
 20
44.3815
 11
1224.58
 21
43.6448
  0
LINE
  8
0
 10
1224.58
 20
43.6448
 11
1223.78
 21
42.6791
  0
LINE
  8
0
 10
1223.78
 20
42.6791
 11
1223.24
 21
41.5451
  0
LINE
  8
0
 10
1223.24
 20
41.5451
 11
1223
 21
40
  0
LINE
  8
0
 10
1223
 20
40
 11
1223
 21
21.5
  0
LINE
  8
0
 10
1223
 20
21.5
 11
1308.5
 21
21.5
  0
LINE
  8
0
 10
1308.5
 20
21.5
 11
1308.5
 21
21.3726
  0
LINE
  8
0
 10
1308.5
 20
21.3726
 11
1309.85
 21
21.4576
  0
LINE
  8
0
 10
1309.85
 20
21.4576
 11
1315.14
 21
20.4477
  0
LINE
  8
0
 10
1315.14
 20
20.4477
 11
1320.02
 21
18.153
  0
LINE
  8
0
 10
1320.02
 20
18.153
 11
1324.17
 21
14.7178
  0
LINE
  8
0
 10
1324.17
 20
14.7178
 11
1327.34
 21
10.3577
  0
LINE
  8
0
 10
1327.34
 20
10.3577
 11
1329.32
 21
5.34683
  0
LINE
  8
0
 10
1329.32
 20
5.34683
 11
1330
 21
0
  0
LINE
  8
0
 10
1330
 20
0
 11
1329.32
 21
-5.34683
  0
LINE
  8
0
 10
1329.32
 20
-5.34683
 11
1327.34
 21
-10.3577
  0
LINE
  8
0
 10
1327.34
 20
-10.3577
 11
1324.17
 21
-14.7178
  0
LINE
  8
0
 10
1324.17
 20
-14.7178
 11
1320.02
 21
-18.153
  0
LINE
  8
0
 10
1320.02
 20
-18.153
 11
1315.14
 21
-20.4477
  0
LINE
  8
0
 10
1315.14
 20
-20.4477
 11
1309.85
 21
-21.4576
  0
LINE
  8
0
 10
1309.85
 20
-21.4576
 11
1308.5
 21
-21.3726
  0
LINE
  8
0
 10
1308.5
 20
-21.3726
 11
1308.5
 21
-21.5
  0
LINE
  8
0
 10
1308.5
 20
-21.5
 11
1223
 21
-21.5
  0
LINE
  8
0
 10
1223
 20
-21.5
 11
1223
 21
-40
  0
LINE
  8
0
 10
1223
 20
-40
 11
1223.16
 21
-41.2435
  0
LINE
  8
0
 10
1223.16
 20
-41.2435
 11
1223.62
 21
-42.4088
  0
LINE
  8
0
 10
1223.62
 20
-42.4088
 11
1224.36
 21
-43.4227
  0
LINE
  8
0
 10
1224.36
 20
-43.4227
 11
1225.32
 21
-44.2216
  0
LINE
  8
0
 10
1225.32
 20
-44.2216
 11
1226.45
 21
-44.7553
  0
LINE
  8
0
 10
1226.45
 20
-44.7553
 11
1228
 21
-45
  0
LINE
  8
0
 10
1228
 20
-45
 11
1338
 21
-45
  0
LINE
  8
0
 10
1338
 20
-45
 11
1339.24
 21
-44.8429
  0
LINE
  8
0
 10
1228.44
 20
36.0531
 11
1227.72
 21
36.2855
  0
LINE
  8
0
 10
1227.72
 20
36.2855
 11
1227.09
 21
36.6885
  0
LINE
  8
0
 10
1227.09
 20
36.6885
 11
1226.57
 21
37.2366
  0
LINE
  8
0
 10
1226.57
 20
37.2366
 11
1226.21
 21
37.8956
  0
LINE
  8
0
 10
1226.21
 20
37.8956
 11
1226.02
 21
38.624
  0
LINE
  8
0
 10
1226.02
 20
38.624
 11
1226.02
 21
39.376
  0
LINE
  8
0
 10
1226.02
 20
39.376
 11
1226.21
 21
40.1044
  0
LINE
  8
0
 10
1226.21
 20
40.1044
 11
1226.57
 21
40.7634
  0
LINE
  8
0
 10
1226.57
 20
40.7634
 11
1227.09
 21
41.3115
  0
LINE
  8
0
 10
1227.09
 20
41.3115
 11
1227.72
 21
41.7145
  0
LINE
  8
0
 10
1227.72
 20
41.7145
 11
1228.44
 21
41.9469
  0
LINE
  8
0
 10
1228.44
 20
41.9469
 11
1229.19
 21
41.9941
  0
LINE
  8
0
 10
1229.19
 20
41.9941
 11
1229.93
 21
41.8532
  0
LINE
  8
0
 10
1229.93
 20
41.8532
 11
1230.61
 21
41.533
  0
LINE
  8
0
 10
1230.61
 20
41.533
 11
1231.19
 21
41.0536
  0
LINE
  8
0
 10
1231.19
 20
41.0536
 11
1231.63
 21
40.4453
  0
LINE
  8
0
 10
1231.63
 20
40.4453
 11
1231.91
 21
39.7461
  0
LINE
  8
0
 10
1231.91
 20
39.7461
 11
1232
 21
39
  0
LINE
  8
0
 10
1232
 20
39
 11
1231.91
 21
38.2539
  0
LINE
  8
0
 10
1231.91
 20
38.2539
 11
1231.63
 21
37.5547
  0
LINE
  8
0
 10
1231.63
 20
37.5547
 11
1231.19
 21
36.9464
  0
LINE
  8
0
 10
1231.19
 20
36.9464
 11
1230.61
 21
36.467
  0
LINE
  8
0
 10
1230.61
 20
36.467
 11
1229.93
 21
36.1468
  0
LINE
  8
0
 10
1229.93
 20
36.1468
 11
1229.19
 21
36.0059
  0
LINE
  8
0
 10
1229.19
 20
36.0059
 11
1228.44
 21
36.0531
  0
LINE
  8
0
 10
1336.44
 20
36.0531
 11
1335.72
 21
36.2855
  0
LINE
  8
0
 10
1335.72
 20
36.2855
 11
1335.09
 21
36.6885
  0
LINE
  8
0
 10
1335.09
 20
36.6885
 11
1334.57
 21
37.2366
  0
LINE
  8
0
 10
1334.57
 20
37.2366
 11
1334.21
 21
37.8956
  0
LINE
  8
0
 10
1334.21
 20
37.8956
 11
1334.02
 21
38.624
  0
LINE
  8
0
 10
1334.02
 20
38.624
 11
1334.02
 21
39.376
  0
LINE
  8
0
 10
1334.02
 20
39.376
 11
1334.21
 21
40.1044
  0
LINE
  8
0
 10
1334.21
 20
40.1044
 11
1334.57
 21
40.7634
  0
LINE
  8
0
 10
1334.57
 20
40.7634
 11
1335.09
 21
41.3115
  0
LINE
  8
0
 10
1335.09
 20
41.3115
 11
1335.72
 21
41.7145
  0
LINE
  8
0
 10
1335.72
 20
41.7145
 11
1336.44
 21
41.9469
  0
LINE
  8
0
 10
1336.44
 20
41.9469
 11
1337.19
 21
41.9941
  0
LINE
  8
0
 10
1337.19
 20
41.9941
 11
1337.93
 21
41.8532
  0
LINE
  8
0
 10
1337.93
 20
41.8532
 11
1338.61
 21
41.533
  0
LINE
  8
0
 10
1338.61
 20
41.533
 11
1339.19
 21
41.0536
  0
LINE
  8
0
 10
1339.19
 20
41.0536
 11
1339.63
 21
40.4453
  0
LINE
  8
0
 10
1339.63
 20
40.4453
 11
1339.91
 21
39.7461
  0
LINE
  8
0
 10
1339.91
 20
39.7461
 11
1340
 21
39
  0
LINE
  8
0
 10
1340
 20
39
 11
1339.91
 21
38.2539
  0
LINE
  8
0
 10
1339.91
 20
38.2539
 11
1339.63
 21
37.5547
  0
LINE
  8
0
 10
1339.63
 20
37.5547
 11
1339.19
 21
36.9464
  0
LINE
  8
0
 10
1339.19
 20
36.9464
 11
1338.61
 21
36.467
  0
LINE
  8
0
 10
1338.61
 20
36.467
 11
1337.93
 21
36.1468
  0
LINE
  8
0
 10
1337.93
 20
36.1468
 11
1337.19
 21
36.0059
  0
LINE
  8
0
 10
1337.19
 20
36.0059
 11
1336.44
 21
36.0531
  0
LINE
  8
0
 10
1336.44
 20
-41.9469
 11
1335.72
 21
-41.7145
  0
LINE
  8
0
 10
1335.72
 20
-41.7145
 11
1335.09
 21
-41.3115
  0
LINE
  8
0
 10
1335.09
 20
-41.3115
 11
1334.57
 21
-40.7634
  0
LINE
  8
0
 10
1334.57
 20
-40.7634
 11
1334.21
 21
-40.1044
  0
LINE
  8
0
 10
1334.21
 20
-40.1044
 11
1334.02
 21
-39.376
  0
LINE
  8
0
 10
1334.02
 20
-39.376
 11
1334.02
 21
-38.624
  0
LINE
  8
0
 10
1334.02
 20
-38.624
 11
1334.21
 21
-37.8956
  0
LINE
  8
0
 10
1334.21
 20
-37.8956
 11
1334.57
 21
-37.2366
  0
LINE
  8
0
 10
1334.57
 20
-37.2366
 11
1335.09
 21
-36.6885
  0
LINE
  8
0
 10
1335.09
 20
-36.6885
 11
1335.72
 21
-36.2855
  0
LINE
  8
0
 10
1335.72
 20
-36.2855
 11
1336.44
 21
-36.0531
  0
LINE
  8
0
 10
1336.44
 20
-36.0531
 11
1337.19
 21
-36.0059
  0
LINE
  8
0
 10
1337.19
 20
-36.0059
 11
1337.93
 21
-36.1468
  0
LINE
  8
0
 10
1337.93
 20
-36.1468
 11
1338.61
 21
-36.467
  0
LINE
  8
0
 10
1338.61
 20
-36.467
 11
1339.19
 21
-36.9464
  0
LINE
  8
0
 10
1339.19
 20
-36.9464
 11
1339.63
 21
-37.5547
  0
LINE
  8
0
 10
1339.63
 20
-37.5547
 11
1339.91
 21
-38.2539
  0
LINE
  8
0
 10
1339.91
 20
-38.2539
 11
1340
 21
-39
  0
LINE
  8
0
 10
1340
 20
-39
 11
1339.91
 21
-39.7461
  0
LINE
  8
0
 10
1339.91
 20
-39.7461
 11
1339.63
 21
-40.4453
  0
LINE
  8
0
 10
1339.63
 20
-40.4453
 11
1339.19
 21
-41.0536
  0
LINE
  8
0
 10
1339.19
 20
-41.0536
 11
1338.61
 21
-41.533
  0
LINE
  8
0
 10
1338.61
 20
-41.533
 11
1337.93
 21
-41.8532
  0
LINE
  8
0
 10
1337.93
 20
-41.8532
 11
1337.19
 21
-41.9941
  0
LINE
  8
0
 10
1337.19
 20
-41.9941
 11
1336.44
 21
-41.9469
  0
LINE
  8
0
 10
1228.44
 20
-41.9469
 11
1227.72
 21
-41.7145
  0
LINE
  8
0
 10
1227.72
 20
-41.7145
 11
1227.09
 21
-41.3115
  0
LINE
  8
0
 10
1227.09
 20
-41.3115
 11
1226.57
 21
-40.7634
  0
LINE
  8
0
 10
1226.57
 20
-40.7634
 11
1226.21
 21
-40.1044
  0
LINE
  8
0
 10
1226.21
 20
-40.1044
 11
1226.02
 21
-39.376
  0
LINE
  8
0
 10
1226.02
 20
-39.376
 11
1226.02
 21
-38.624
  0
LINE
  8
0
 10
1226.02
 20
-38.624
 11
1226.21
 21
-37.8956
  0
LINE
  8
0
 10
1226.21
 20
-37.8956
 11
1226.57
 21
-37.2366
  0
LINE
  8
0
 10
1226.57
 20
-37.2366
 11
1227.09
 21
-36.6885
  0
LINE
  8
0
 10
1227.09
 20
-36.6885
 11
1227.72
 21
-36.2855
  0
LINE
  8
0
 10
1227.72
 20
-36.2855
 11
1228.44
 21
-36.0531
  0
LINE
  8
0
 10
1228.44
 20
-36.0531
 11
1229.19
 21
-36.0059
  0
LINE
  8
0
 10
1229.19
 20
-36.0059
 11
1229.93
 21
-36.1468
  0
LINE
  8
0
 10
1229.93
 20
-36.1468
 11
1230.61
 21
-36.467
  0
LINE
  8
0
 10
1230.61
 20
-36.467
 11
1231.19
 21
-36.9464
  0
LINE
  8
0
 10
1231.19
 20
-36.9464
 11
1231.63
 21
-37.5547
  0
LINE
  8
0
 10
1231.63
 20
-37.5547
 11
1231.91
 21
-38.2539
  0
LINE
  8
0
 10
1231.91
 20
-38.2539
 11
1232
 21
-39
  0
LINE
  8
0
 10
1232
 20
-39
 11
1231.91
 21
-39.7461
  0
LINE
  8
0
 10
1231.91
 20
-39.7461
 11
1231.63
 21
-40.4453
  0
LINE
  8
0
 10
1231.63
 20
-40.4453
 11
1231.19
 21
-41.0536
  0
LINE
  8
0
 10
1231.19
 20
-41.0536
 11
1230.61
 21
-41.533
  0
LINE
  8
0
 10
1230.61
 20
-41.533
 11
1229.93
 21
-41.8532
  0
LINE
  8
0
 10
1229.93
 20
-41.8532
 11
1229.19
 21
-41.9941
  0
LINE
  8
0
 10
1229.19
 20
-41.9941
 11
1228.44
 21
-41.9469
  0
LINE
  8
0
 10
615.243
 20
-44.8429
 11
616.409
 21
-44.3815
  0
LINE
  8
0
 10
616.409
 20
-44.3815
 11
617.423
 21
-43.6448
  0
LINE
  8
0
 10
617.423
 20
-43.6448
 11
618.222
 21
-42.6791
  0
LINE
  8
0
 10
618.222
 20
-42.6791
 11
618.755
 21
-41.5451
  0
LINE
  8
0
 10
618.755
 20
-41.5451
 11
619
 21
-40
  0
LINE
  8
0
 10
619
 20
-40
 11
619
 21
40
  0
LINE
  8
0
 10
619
 20
40
 11
618.843
 21
41.2435
  0
LINE
  8
0
 10
618.843
 20
41.2435
 11
618.382
 21
42.4088
  0
LINE
  8
0
 10
618.382
 20
42.4088
 11
617.645
 21
43.4227
  0
LINE
  8
0
 10
617.645
 20
43.4227
 11
616.679
 21
44.2216
  0
LINE
  8
0
 10
616.679
 20
44.2216
 11
615.545
 21
44.7553
  0
LINE
  8
0
 10
615.545
 20
44.7553
 11
614
 21
45
  0
LINE
  8
0
 10
614
 20
45
 11
504
 21
45
  0
LINE
  8
0
 10
504
 20
45
 11
502.757
 21
44.8429
  0
LINE
  8
0
 10
502.757
 20
44.8429
 11
501.591
 21
44.3815
  0
LINE
  8
0
 10
501.591
 20
44.3815
 11
500.577
 21
43.6448
  0
LINE
  8
0
 10
500.577
 20
43.6448
 11
499.778
 21
42.6791
  0
LINE
  8
0
 10
499.778
 20
42.6791
 11
499.245
 21
41.5451
  0
LINE
  8
0
 10
499.245
 20
41.5451
 11
499
 21
40
  0
LINE
  8
0
 10
499
 20
40
 11
499
 21
-40
  0
LINE
  8
0
 10
499
 20
-40
 11
499.157
 21
-41.2435
  0
LINE
  8
0
 10
499.157
 20
-41.2435
 11
499.618
 21
-42.4088
  0
LINE
  8
0
 10
499.618
 20
-42.4088
 11
500.355
 21
-43.4227
  0
LINE
  8
0
 10
500.355
 20
-43.4227
 11
501.321
 21
-44.2216
  0
LINE
  8
0
 10
501.321
 20
-44.2216
 11
502.455
 21
-44.7553
  0
LINE
  8
0
 10
502.455
 20
-44.7553
 11
504
 21
-45
  0
LINE
  8
0
 10
504
 20
-45
 11
614
 21
-45
  0
LINE
  8
0
 10
614
 20
-45
 11
615.243
 21
-44.8429
  0
LINE
  8
0
 10
612.438
 20
36.0531
 11
611.723
 21
36.2855
  0
LINE
  8
0
 10
611.723
 20
36.2855
 11
611.088
 21
36.6885
  0
LINE
  8
0
 10
611.088
 20
36.6885
 11
610.573
 21
37.2366
  0
LINE
  8
0
 10
610.573
 20
37.2366
 11
610.211
 21
37.8956
  0
LINE
  8
0
 10
610.211
 20
37.8956
 11
610.024
 21
38.624
  0
LINE
  8
0
 10
610.024
 20
38.624
 11
610.024
 21
39.376
  0
LINE
  8
0
 10
610.024
 20
39.376
 11
610.211
 21
40.1044
  0
LINE
  8
0
 10
610.211
 20
40.1044
 11
610.573
 21
40.7634
  0
LINE
  8
0
 10
610.573
 20
40.7634
 11
611.088
 21
41.3115
  0
LINE
  8
0
 10
611.088
 20
41.3115
 11
611.723
 21
41.7145
  0
LINE
  8
0
 10
611.723
 20
41.7145
 11
612.438
 21
41.9469
  0
LINE
  8
0
 10
612.438
 20
41.9469
 11
613.188
 21
41.9941
  0
LINE
  8
0
 10
613.188
 20
41.9941
 11
613.927
 21
41.8532
  0
LINE
  8
0
 10
613.927
 20
41.8532
 11
614.607
 21
41.533
  0
LINE
  8
0
 10
614.607
 20
41.533
 11
615.187
 21
41.0536
  0
LINE
  8
0
 10
615.187
 20
41.0536
 11
615.629
 21
40.4453
  0
LINE
  8
0
 10
615.629
 20
40.4453
 11
615.906
 21
39.7461
  0
LINE
  8
0
 10
615.906
 20
39.7461
 11
616
 21
39
  0
LINE
  8
0
 10
616
 20
39
 11
615.906
 21
38.2539
  0
LINE
  8
0
 10
615.906
 20
38.2539
 11
615.629
 21
37.5547
  0
LINE
  8
0
 10
615.629
 20
37.5547
 11
615.187
 21
36.9464
  0
LINE
  8
0
 10
615.187
 20
36.9464
 11
614.607
 21
36.467
  0
LINE
  8
0
 10
614.607
 20
36.467
 11
613.927
 21
36.1468
  0
LINE
  8
0
 10
613.927
 20
36.1468
 11
613.188
 21
36.0059
  0
LINE
  8
0
 10
613.188
 20
36.0059
 11
612.438
 21
36.0531
  0
LINE
  8
0
 10
504.438
 20
36.0531
 11
503.723
 21
36.2855
  0
LINE
  8
0
 10
503.723
 20
36.2855
 11
503.088
 21
36.6885
  0
LINE
  8
0
 10
503.088
 20
36.6885
 11
502.573
 21
37.2366
  0
LINE
  8
0
 10
502.573
 20
37.2366
 11
502.211
 21
37.8956
  0
LINE
  8
0
 10
502.211
 20
37.8956
 11
502.024
 21
38.624
  0
LINE
  8
0
 10
502.024
 20
38.624
 11
502.024
 21
39.376
  0
LINE
  8
0
 10
502.024
 20
39.376
 11
502.211
 21
40.1044
  0
LINE
  8
0
 10
502.211
 20
40.1044
 11
502.573
 21
40.7634
  0
LINE
  8
0
 10
502.573
 20
40.7634
 11
503.088
 21
41.3115
  0
LINE
  8
0
 10
503.088
 20
41.3115
 11
503.723
 21
41.7145
  0
LINE
  8
0
 10
503.723
 20
41.7145
 11
504.438
 21
41.9469
  0
LINE
  8
0
 10
504.438
 20
41.9469
 11
505.188
 21
41.9941
  0
LINE
  8
0
 10
505.188
 20
41.9941
 11
505.927
 21
41.8532
  0
LINE
  8
0
 10
505.927
 20
41.8532
 11
506.607
 21
41.533
  0
LINE
  8
0
 10
506.607
 20
41.533
 11
507.187
 21
41.0536
  0
LINE
  8
0
 10
507.187
 20
41.0536
 11
507.629
 21
40.4453
  0
LINE
  8
0
 10
507.629
 20
40.4453
 11
507.906
 21
39.7461
  0
LINE
  8
0
 10
507.906
 20
39.7461
 11
508
 21
39
  0
LINE
  8
0
 10
508
 20
39
 11
507.906
 21
38.2539
  0
LINE
  8
0
 10
507.906
 20
38.2539
 11
507.629
 21
37.5547
  0
LINE
  8
0
 10
507.629
 20
37.5547
 11
507.187
 21
36.9464
  0
LINE
  8
0
 10
507.187
 20
36.9464
 11
506.607
 21
36.467
  0
LINE
  8
0
 10
506.607
 20
36.467
 11
505.927
 21
36.1468
  0
LINE
  8
0
 10
505.927
 20
36.1468
 11
505.188
 21
36.0059
  0
LINE
  8
0
 10
505.188
 20
36.0059
 11
504.438
 21
36.0531
  0
LINE
  8
0
 10
506
 20
-12.5
 11
506
 21
12.5
  0
LINE
  8
0
 10
506
 20
12.5
 11
531
 21
12.5
  0
LINE
  8
0
 10
531
 20
12.5
 11
531
 21
-12.5
  0
LINE
  8
0
 10
531
 20
-12.5
 11
506
 21
-12.5
  0
LINE
  8
0
 10
589.719
 20
-1.47342
 11
589.361
 21
-1.35724
  0
LINE
  8
0
 10
589.361
 20
-1.35724
 11
589.044
 21
-1.15576
  0
LINE
  8
0
 10
589.044
 20
-1.15576
 11
588.786
 21
-0.881668
  0
LINE
  8
0
 10
588.786
 20
-0.881668
 11
588.605
 21
-0.552185
  0
LINE
  8
0
 10
588.605
 20
-0.552185
 11
588.512
 21
-0.187988
  0
LINE
  8
0
 10
588.512
 20
-0.187988
 11
588.512
 21
0.187988
  0
LINE
  8
0
 10
588.512
 20
0.187988
 11
588.605
 21
0.552185
  0
LINE
  8
0
 10
588.605
 20
0.552185
 11
588.786
 21
0.881668
  0
LINE
  8
0
 10
588.786
 20
0.881668
 11
589.044
 21
1.15576
  0
LINE
  8
0
 10
589.044
 20
1.15576
 11
589.361
 21
1.35724
  0
LINE
  8
0
 10
589.361
 20
1.35724
 11
589.719
 21
1.47342
  0
LINE
  8
0
 10
589.719
 20
1.47342
 11
590.094
 21
1.49704
  0
LINE
  8
0
 10
590.094
 20
1.49704
 11
590.464
 21
1.42657
  0
LINE
  8
0
 10
590.464
 20
1.42657
 11
590.804
 21
1.26648
  0
LINE
  8
0
 10
590.804
 20
1.26648
 11
591.093
 21
1.02681
  0
LINE
  8
0
 10
591.093
 20
1.02681
 11
591.314
 21
0.722626
  0
LINE
  8
0
 10
591.314
 20
0.722626
 11
591.453
 21
0.373032
  0
LINE
  8
0
 10
591.453
 20
0.373032
 11
591.5
 21
0
  0
LINE
  8
0
 10
591.5
 20
0
 11
591.453
 21
-0.373032
  0
LINE
  8
0
 10
591.453
 20
-0.373032
 11
591.314
 21
-0.722626
  0
LINE
  8
0
 10
591.314
 20
-0.722626
 11
591.093
 21
-1.02681
  0
LINE
  8
0
 10
591.093
 20
-1.02681
 11
590.804
 21
-1.26648
  0
LINE
  8
0
 10
590.804
 20
-1.26648
 11
590.464
 21
-1.42657
  0
LINE
  8
0
 10
590.464
 20
-1.42657
 11
590.094
 21
-1.49704
  0
LINE
  8
0
 10
590.094
 20
-1.49704
 11
589.719
 21
-1.47342
  0
LINE
  8
0
 10
583.719
 20
-1.47342
 11
583.361
 21
-1.35724
  0
LINE
  8
0
 10
583.361
 20
-1.35724
 11
583.044
 21
-1.15576
  0
LINE
  8
0
 10
583.044
 20
-1.15576
 11
582.786
 21
-0.881668
  0
LINE
  8
0
 10
582.786
 20
-0.881668
 11
582.605
 21
-0.552185
  0
LINE
  8
0
 10
582.605
 20
-0.552185
 11
582.512
 21
-0.187988
  0
LINE
  8
0
 10
582.512
 20
-0.187988
 11
582.512
 21
0.187988
  0
LINE
  8
0
 10
582.512
 20
0.187988
 11
582.605
 21
0.552185
  0
LINE
  8
0
 10
582.605
 20
0.552185
 11
582.786
 21
0.881668
  0
LINE
  8
0
 10
582.786
 20
0.881668
 11
583.044
 21
1.15576
  0
LINE
  8
0
 10
583.044
 20
1.15576
 11
583.361
 21
1.35724
  0
LINE
  8
0
 10
583.361
 20
1.35724
 11
583.719
 21
1.47342
  0
LINE
  8
0
 10
583.719
 20
1.47342
 11
584.094
 21
1.49704
  0
LINE
  8
0
 10
584.094
 20
1.49704
 11
584.464
 21
1.42657
  0
LINE
  8
0
 10
584.464
 20
1.42657
 11
584.804
 21
1.26648
  0
LINE
  8
0
 10
584.804
 20
1.26648
 11
585.093
 21
1.02681
  0
LINE
  8
0
 10
585.093
 20
1.02681
 11
585.314
 21
0.722626
  0
LINE
  8
0
 10
585.314
 20
0.722626
 11
585.453
 21
0.373032
  0
LINE
  8
0
 10
585.453
 20
0.373032
 11
585.5
 21
0
  0
LINE
  8
0
 10
585.5
 20
0
 11
585.453
 21
-0.373032
  0
LINE
  8
0
 10
585.453
 20
-0.373032
 11
585.314
 21
-0.722626
  0
LINE
  8
0
 10
585.314
 20
-0.722626
 11
585.093
 21
-1.02681
  0
LINE
  8
0
 10
585.093
 20
-1.02681
 11
584.804
 21
-1.26648
  0
LINE
  8
0
 10
584.804
 20
-1.26648
 11
584.464
 21
-1.42657
  0
LINE
  8
0
 10
584.464
 20
-1.42657
 11
584.094
 21
-1.49704
  0
LINE
  8
0
 10
584.094
 20
-1.49704
 11
583.719
 21
-1.47342
  0
LINE
  8
0
 10
559.719
 20
-1.47342
 11
559.361
 21
-1.35724
  0
LINE
  8
0
 10
559.361
 20
-1.35724
 11
559.044
 21
-1.15576
  0
LINE
  8
0
 10
559.044
 20
-1.15576
 11
558.786
 21
-0.881668
  0
LINE
  8
0
 10
558.786
 20
-0.881668
 11
558.605
 21
-0.552185
  0
LINE
  8
0
 10
558.605
 20
-0.552185
 11
558.512
 21
-0.187988
  0
LINE
  8
0
 10
558.512
 20
-0.187988
 11
558.512
 21
0.187988
  0
LINE
  8
0
 10
558.512
 20
0.187988
 11
558.605
 21
0.552185
  0
LINE
  8
0
 10
558.605
 20
0.552185
 11
558.786
 21
0.881668
  0
LINE
  8
0
 10
558.786
 20
0.881668
 11
559.044
 21
1.15576
  0
LINE
  8
0
 10
559.044
 20
1.15576
 11
559.361
 21
1.35724
  0
LINE
  8
0
 10
559.361
 20
1.35724
 11
559.719
 21
1.47342
  0
LINE
  8
0
 10
559.719
 20
1.47342
 11
560.094
 21
1.49704
  0
LINE
  8
0
 10
560.094
 20
1.49704
 11
560.464
 21
1.42657
  0
LINE
  8
0
 10
560.464
 20
1.42657
 11
560.804
 21
1.26648
  0
LINE
  8
0
 10
560.804
 20
1.26648
 11
561.093
 21
1.02681
  0
LINE
  8
0
 10
561.093
 20
1.02681
 11
561.314
 21
0.722626
  0
LINE
  8
0
 10
561.314
 20
0.722626
 11
561.453
 21
0.373032
  0
LINE
  8
0
 10
561.453
 20
0.373032
 11
561.5
 21
0
  0
LINE
  8
0
 10
561.5
 20
0
 11
561.453
 21
-0.373032
  0
LINE
  8
0
 10
561.453
 20
-0.373032
 11
561.314
 21
-0.722626
  0
LINE
  8
0
 10
561.314
 20
-0.722626
 11
561.093
 21
-1.02681
  0
LINE
  8
0
 10
561.093
 20
-1.02681
 11
560.804
 21
-1.26648
  0
LINE
  8
0
 10
560.804
 20
-1.26648
 11
560.464
 21
-1.42657
  0
LINE
  8
0
 10
560.464
 20
-1.42657
 11
560.094
 21
-1.49704
  0
LINE
  8
0
 10
560.094
 20
-1.49704
 11
559.719
 21
-1.47342
  0
LINE
  8
0
 10
504.438
 20
-41.9469
 11
503.723
 21
-41.7145
  0
LINE
  8
0
 10
503.723
 20
-41.7145
 11
503.088
 21
-41.3115
  0
LINE
  8
0
 10
503.088
 20
-41.3115
 11
502.573
 21
-40.7634
  0
LINE
  8
0
 10
502.573
 20
-40.7634
 11
502.211
 21
-40.1044
  0
LINE
  8
0
 10
502.211
 20
-40.1044
 11
502.024
 21
-39.376
  0
LINE
  8
0
 10
502.024
 20
-39.376
 11
502.024
 21
-38.624
  0
LINE
  8
0
 10
502.024
 20
-38.624
 11
502.211
 21
-37.8956
  0
LINE
  8
0
 10
502.211
 20
-37.8956
 11
502.573
 21
-37.2366
  0
LINE
  8
0
 10
502.573
 20
-37.2366
 11
503.088
 21
-36.6885
  0
LINE
  8
0
 10
503.088
 20
-36.6885
 11
503.723
 21
-36.2855
  0
LINE
  8
0
 10
503.723
 20
-36.2855
 11
504.438
 21
-36.0531
  0
LINE
  8
0
 10
504.438
 20
-36.0531
 11
505.188
 21
-36.0059
  0
LINE
  8
0
 10
505.188
 20
-36.0059
 11
505.927
 21
-36.1468
  0
LINE
  8
0
 10
505.927
 20
-36.1468
 11
506.607
 21
-36.467
  0
LINE
  8
0
 10
506.607
 20
-36.467
 11
507.187
 21
-36.9464
  0
LINE
  8
0
 10
507.187
 20
-36.9464
 11
507.629
 21
-37.5547
  0
LINE
  8
0
 10
507.629
 20
-37.5547
 11
507.906
 21
-38.2539
  0
LINE
  8
0
 10
507.906
 20
-38.2539
 11
508
 21
-39
  0
LINE
  8
0
 10
508
 20
-39
 11
507.906
 21
-39.7461
  0
LINE
  8
0
 10
507.906
 20
-39.7461
 11
507.629
 21
-40.4453
  0
LINE
  8
0
 10
507.629
 20
-40.4453
 11
507.187
 21
-41.0536
  0
LINE
  8
0
 10
507.187
 20
-41.0536
 11
506.607
 21
-41.533
  0
LINE
  8
0
 10
506.607
 20
-41.533
 11
505.927
 21
-41.8532
  0
LINE
  8
0
 10
505.927
 20
-41.8532
 11
505.188
 21
-41.9941
  0
LINE
  8
0
 10
505.188
 20
-41.9941
 11
504.438
 21
-41.9469
  0
LINE
  8
0
 10
612.438
 20
-41.9469
 11
611.723
 21
-41.7145
  0
LINE
  8
0
 10
611.723
 20
-41.7145
 11
611.088
 21
-41.3115
  0
LINE
  8
0
 10
611.088
 20
-41.3115
 11
610.573
 21
-40.7634
  0
LINE
  8
0
 10
610.573
 20
-40.7634
 11
610.211
 21
-40.1044
  0
LINE
  8
0
 10
610.211
 20
-40.1044
 11
610.024
 21
-39.376
  0
LINE
  8
0
 10
610.024
 20
-39.376
 11
610.024
 21
-38.624
  0
LINE
  8
0
 10
610.024
 20
-38.624
 11
610.211
 21
-37.8956
  0
LINE
  8
0
 10
610.211
 20
-37.8956
 11
610.573
 21
-37.2366
  0
LINE
  8
0
 10
610.573
 20
-37.2366
 11
611.088
 21
-36.6885
  0
LINE
  8
0
 10
611.088
 20
-36.6885
 11
611.723
 21
-36.2855
  0
LINE
  8
0
 10
611.723
 20
-36.2855
 11
612.438
 21
-36.0531
  0
LINE
  8
0
 10
612.438
 20
-36.0531
 11
613.188
 21
-36.0059
  0
LINE
  8
0
 10
613.188
 20
-36.0059
 11
613.927
 21
-36.1468
  0
LINE
  8
0
 10
613.927
 20
-36.1468
 11
614.607
 21
-36.467
  0
LINE
  8
0
 10
614.607
 20
-36.467
 11
615.187
 21
-36.9464
  0
LINE
  8
0
 10
615.187
 20
-36.9464
 11
615.629
 21
-37.5547
  0
LINE
  8
0
 10
615.629
 20
-37.5547
 11
615.906
 21
-38.2539
  0
LINE
  8
0
 10
615.906
 20
-38.2539
 11
616
 21
-39
  0
LINE
  8
0
 10
616
 20
-39
 11
615.906
 21
-39.7461
  0
LINE
  8
0
 10
615.906
 20
-39.7461
 11
615.629
 21
-40.4453
  0
LINE
  8
0
 10
615.629
 20
-40.4453
 11
615.187
 21
-41.0536
  0
LINE
  8
0
 10
615.187
 20
-41.0536
 11
614.607
 21
-41.533
  0
LINE
  8
0
 10
614.607
 20
-41.533
 11
613.927
 21
-41.8532
  0
LINE
  8
0
 10
613.927
 20
-41.8532
 11
613.188
 21
-41.9941
  0
LINE
  8
0
 10
613.188
 20
-41.9941
 11
612.438
 21
-41.9469
  0
LINE
  8
0
 10
1993
 20
29.5
 11
2081
 21
29.5
  0
LINE
  8
0
 10
2081
 20
29.5
 11
2081
 21
40
  0
LINE
  8
0
 10
2081
 20
40
 11
2080.84
 21
41.2435
  0
LINE
  8
0
 10
2080.84
 20
41.2435
 11
2080.38
 21
42.4088
  0
LINE
  8
0
 10
2080.38
 20
42.4088
 11
2079.64
 21
43.4227
  0
LINE
  8
0
 10
2079.64
 20
43.4227
 11
2078.68
 21
44.2216
  0
LINE
  8
0
 10
2078.68
 20
44.2216
 11
2077.55
 21
44.7553
  0
LINE
  8
0
 10
2077.55
 20
44.7553
 11
2076
 21
45
  0
LINE
  8
0
 10
2076
 20
45
 11
1966
 21
45
  0
LINE
  8
0
 10
1966
 20
45
 11
1964.76
 21
44.8429
  0
LINE
  8
0
 10
1964.76
 20
44.8429
 11
1963.59
 21
44.3815
  0
LINE
  8
0
 10
1963.59
 20
44.3815
 11
1962.58
 21
43.6448
  0
LINE
  8
0
 10
1962.58
 20
43.6448
 11
1961.78
 21
42.6791
  0
LINE
  8
0
 10
1961.78
 20
42.6791
 11
1961.24
 21
41.5451
  0
LINE
  8
0
 10
1961.24
 20
41.5451
 11
1961
 21
40
  0
LINE
  8
0
 10
1961
 20
40
 11
1961
 21
22.5
  0
LINE
  8
0
 10
1961
 20
22.5
 11
1976
 21
22.5
  0
LINE
  8
0
 10
1976
 20
22.5
 11
1976
 21
12.5
  0
LINE
  8
0
 10
1976
 20
12.5
 11
1993
 21
12.5
  0
LINE
  8
0
 10
1993
 20
12.5
 11
1993
 21
29.5
  0
LINE
  8
0
 10
1966.44
 20
36.0531
 11
1965.72
 21
36.2855
  0
LINE
  8
0
 10
1965.72
 20
36.2855
 11
1965.09
 21
36.6885
  0
LINE
  8
0
 10
1965.09
 20
36.6885
 11
1964.57
 21
37.2366
  0
LINE
  8
0
 10
1964.57
 20
37.2366
 11
1964.21
 21
37.8956
  0
LINE
  8
0
 10
1964.21
 20
37.8956
 11
1964.02
 21
38.624
  0
LINE
  8
0
 10
1964.02
 20
38.624
 11
1964.02
 21
39.376
  0
LINE
  8
0
 10
1964.02
 20
39.376
 11
1964.21
 21
40.1044
  0
LINE
  8
0
 10
1964.21
 20
40.1044
 11
1964.57
 21
40.7634
  0
LINE
  8
0
 10
1964.57
 20
40.7634
 11
1965.09
 21
41.3115
  0
LINE
  8
0
 10
1965.09
 20
41.3115
 11
1965.72
 21
41.7145
  0
LINE
  8
0
 10
1965.72
 20
41.7145
 11
1966.44
 21
41.9469
  0
LINE
  8
0
 10
1966.44
 20
41.9469
 11
1967.19
 21
41.9941
  0
LINE
  8
0
 10
1967.19
 20
41.9941
 11
1967.93
 21
41.8532
  0
LINE
  8
0
 10
1967.93
 20
41.8532
 11
1968.61
 21
41.533
  0
LINE
  8
0
 10
1968.61
 20
41.533
 11
1969.19
 21
41.0536
  0
LINE
  8
0
 10
1969.19
 20
41.0536
 11
1969.63
 21
40.4453
  0
LINE
  8
0
 10
1969.63
 20
40.4453
 11
1969.91
 21
39.7461
  0
LINE
  8
0
 10
1969.91
 20
39.7461
 11
1970
 21
39
  0
LINE
  8
0
 10
1970
 20
39
 11
1969.91
 21
38.2539
  0
LINE
  8
0
 10
1969.91
 20
38.2539
 11
1969.63
 21
37.5547
  0
LINE
  8
0
 10
1969.63
 20
37.5547
 11
1969.19
 21
36.9464
  0
LINE
  8
0
 10
1969.19
 20
36.9464
 11
1968.61
 21
36.467
  0
LINE
  8
0
 10
1968.61
 20
36.467
 11
1967.93
 21
36.1468
  0
LINE
  8
0
 10
1967.93
 20
36.1468
 11
1967.19
 21
36.0059
  0
LINE
  8
0
 10
1967.19
 20
36.0059
 11
1966.44
 21
36.0531
  0
LINE
  8
0
 10
2074.44
 20
36.0531
 11
2073.72
 21
36.2855
  0
LINE
  8
0
 10
2073.72
 20
36.2855
 11
2073.09
 21
36.6885
  0
LINE
  8
0
 10
2073.09
 20
36.6885
 11
2072.57
 21
37.2366
  0
LINE
  8
0
 10
2072.57
 20
37.2366
 11
2072.21
 21
37.8956
  0
LINE
  8
0
 10
2072.21
 20
37.8956
 11
2072.02
 21
38.624
  0
LINE
  8
0
 10
2072.02
 20
38.624
 11
2072.02
 21
39.376
  0
LINE
  8
0
 10
2072.02
 20
39.376
 11
2072.21
 21
40.1044
  0
LINE
  8
0
 10
2072.21
 20
40.1044
 11
2072.57
 21
40.7634
  0
LINE
  8
0
 10
2072.57
 20
40.7634
 11
2073.09
 21
41.3115
  0
LINE
  8
0
 10
2073.09
 20
41.3115
 11
2073.72
 21
41.7145
  0
LINE
  8
0
 10
2073.72
 20
41.7145
 11
2074.44
 21
41.9469
  0
LINE
  8
0
 10
2074.44
 20
41.9469
 11
2075.19
 21
41.9941
  0
LINE
  8
0
 10
2075.19
 20
41.9941
 11
2075.93
 21
41.8532
  0
LINE
  8
0
 10
2075.93
 20
41.8532
 11
2076.61
 21
41.533
  0
LINE
  8
0
 10
2076.61
 20
41.533
 11
2077.19
 21
41.0536
  0
LINE
  8
0
 10
2077.19
 20
41.0536
 11
2077.63
 21
40.4453
  0
LINE
  8
0
 10
2077.63
 20
40.4453
 11
2077.91
 21
39.7461
  0
LINE
  8
0
 10
2077.91
 20
39.7461
 11
2078
 21
39
  0
LINE
  8
0
 10
2078
 20
39
 11
2077.91
 21
38.2539
  0
LINE
  8
0
 10
2077.91
 20
38.2539
 11
2077.63
 21
37.5547
  0
LINE
  8
0
 10
2077.63
 20
37.5547
 11
2077.19
 21
36.9464
  0
LINE
  8
0
 10
2077.19
 20
36.9464
 11
2076.61
 21
36.467
  0
LINE
  8
0
 10
2076.61
 20
36.467
 11
2075.93
 21
36.1468
  0
LINE
  8
0
 10
2075.93
 20
36.1468
 11
2075.19
 21
36.0059
  0
LINE
  8
0
 10
2075.19
 20
36.0059
 11
2074.44
 21
36.0531
  0
LINE
  8
0
 10
1215.24
 20
-44.8429
 11
1216.41
 21
-44.3815
  0
LINE
  8
0
 10
1216.41
 20
-44.3815
 11
1217.42
 21
-43.6448
  0
LINE
  8
0
 10
1217.42
 20
-43.6448
 11
1218.22
 21
-42.6791
  0
LINE
  8
0
 10
1218.22
 20
-42.6791
 11
1218.76
 21
-41.5451
  0
LINE
  8
0
 10
1218.76
 20
-41.5451
 11
1219
 21
-40
  0
LINE
  8
0
 10
1219
 20
-40
 11
1219
 21
40
  0
LINE
  8
0
 10
1219
 20
40
 11
1218.84
 21
41.2435
  0
LINE
  8
0
 10
1218.84
 20
41.2435
 11
1218.38
 21
42.4088
  0
LINE
  8
0
 10
1218.38
 20
42.4088
 11
1217.64
 21
43.4227
  0
LINE
  8
0
 10
1217.64
 20
43.4227
 11
1216.68
 21
44.2216
  0
LINE
  8
0
 10
1216.68
 20
44.2216
 11
1215.55
 21
44.7553
  0
LINE
  8
0
 10
1215.55
 20
44.7553
 11
1214
 21
45
  0
LINE
  8
0
 10
1214
 20
45
 11
1104
 21
45
  0
LINE
  8
0
 10
1104
 20
45
 11
1102.76
 21
44.8429
  0
LINE
  8
0
 10
1102.76
 20
44.8429
 11
1101.59
 21
44.3815
  0
LINE
  8
0
 10
1101.59
 20
44.3815
 11
1100.58
 21
43.6448
  0
LINE
  8
0
 10
1100.58
 20
43.6448
 11
1099.78
 21
42.6791
  0
LINE
  8
0
 10
1099.78
 20
42.6791
 11
1099.24
 21
41.5451
  0
LINE
  8
0
 10
1099.24
 20
41.5451
 11
1099
 21
40
  0
LINE
  8
0
 10
1099
 20
40
 11
1099
 21
-40
  0
LINE
  8
0
 10
1099
 20
-40
 11
1099.16
 21
-41.2435
  0
LINE
  8
0
 10
1099.16
 20
-41.2435
 11
1099.62
 21
-42.4088
  0
LINE
  8
0
 10
1099.62
 20
-42.4088
 11
1100.36
 21
-43.4227
  0
LINE
  8
0
 10
1100.36
 20
-43.4227
 11
1101.32
 21
-44.2216
  0
LINE
  8
0
 10
1101.32
 20
-44.2216
 11
1102.45
 21
-44.7553
  0
LINE
  8
0
 10
1102.45
 20
-44.7553
 11
1104
 21
-45
  0
LINE
  8
0
 10
1104
 20
-45
 11
1214
 21
-45
  0
LINE
  8
0
 10
1214
 20
-45
 11
1215.24
 21
-44.8429
  0
LINE
  8
0
 10
1104.44
 20
36.0531
 11
1103.72
 21
36.2855
  0
LINE
  8
0
 10
1103.72
 20
36.2855
 11
1103.09
 21
36.6885
  0
LINE
  8
0
 10
1103.09
 20
36.6885
 11
1102.57
 21
37.2366
  0
LINE
  8
0
 10
1102.57
 20
37.2366
 11
1102.21
 21
37.8956
  0
LINE
  8
0
 10
1102.21
 20
37.8956
 11
1102.02
 21
38.624
  0
LINE
  8
0
 10
1102.02
 20
38.624
 11
1102.02
 21
39.376
  0
LINE
  8
0
 10
1102.02
 20
39.376
 11
1102.21
 21
40.1044
  0
LINE
  8
0
 10
1102.21
 20
40.1044
 11
1102.57
 21
40.7634
  0
LINE
  8
0
 10
1102.57
 20
40.7634
 11
1103.09
 21
41.3115
  0
LINE
  8
0
 10
1103.09
 20
41.3115
 11
1103.72
 21
41.7145
  0
LINE
  8
0
 10
1103.72
 20
41.7145
 11
1104.44
 21
41.9469
  0
LINE
  8
0
 10
1104.44
 20
41.9469
 11
1105.19
 21
41.9941
  0
LINE
  8
0
 10
1105.19
 20
41.9941
 11
1105.93
 21
41.8532
  0
LINE
  8
0
 10
1105.93
 20
41.8532
 11
1106.61
 21
41.533
  0
LINE
  8
0
 10
1106.61
 20
41.533
 11
1107.19
 21
41.0536
  0
LINE
  8
0
 10
1107.19
 20
41.0536
 11
1107.63
 21
40.4453
  0
LINE
  8
0
 10
1107.63
 20
40.4453
 11
1107.91
 21
39.7461
  0
LINE
  8
0
 10
1107.91
 20
39.7461
 11
1108
 21
39
  0
LINE
  8
0
 10
1108
 20
39
 11
1107.91
 21
38.2539
  0
LINE
  8
0
 10
1107.91
 20
38.2539
 11
1107.63
 21
37.5547
  0
LINE
  8
0
 10
1107.63
 20
37.5547
 11
1107.19
 21
36.9464
  0
LINE
  8
0
 10
1107.19
 20
36.9464
 11
1106.61
 21
36.467
  0
LINE
  8
0
 10
1106.61
 20
36.467
 11
1105.93
 21
36.1468
  0
LINE
  8
0
 10
1105.93
 20
36.1468
 11
1105.19
 21
36.0059
  0
LINE
  8
0
 10
1105.19
 20
36.0059
 11
1104.44
 21
36.0531
  0
LINE
  8
0
 10
1212.44
 20
36.0531
 11
1211.72
 21
36.2855
  0
LINE
  8
0
 10
1211.72
 20
36.2855
 11
1211.09
 21
36.6885
  0
LINE
  8
0
 10
1211.09
 20
36.6885
 11
1210.57
 21
37.2366
  0
LINE
  8
0
 10
1210.57
 20
37.2366
 11
1210.21
 21
37.8956
  0
LINE
  8
0
 10
1210.21
 20
37.8956
 11
1210.02
 21
38.624
  0
LINE
  8
0
 10
1210.02
 20
38.624
 11
1210.02
 21
39.376
  0
LINE
  8
0
 10
1210.02
 20
39.376
 11
1210.21
 21
40.1044
  0
LINE
  8
0
 10
1210.21
 20
40.1044
 11
1210.57
 21
40.7634
  0
LINE
  8
0
 10
1210.57
 20
40.7634
 11
1211.09
 21
41.3115
  0
LINE
  8
0
 10
1211.09
 20
41.3115
 11
1211.72
 21
41.7145
  0
LINE
  8
0
 10
1211.72
 20
41.7145
 11
1212.44
 21
41.9469
  0
LINE
  8
0
 10
1212.44
 20
41.9469
 11
1213.19
 21
41.9941
  0
LINE
  8
0
 10
1213.19
 20
41.9941
 11
1213.93
 21
41.8532
  0
LINE
  8
0
 10
1213.93
 20
41.8532
 11
1214.61
 21
41.533
  0
LINE
  8
0
 10
1214.61
 20
41.533
 11
1215.19
 21
41.0536
  0
LINE
  8
0
 10
1215.19
 20
41.0536
 11
1215.63
 21
40.4453
  0
LINE
  8
0
 10
1215.63
 20
40.4453
 11
1215.91
 21
39.7461
  0
LINE
  8
0
 10
1215.91
 20
39.7461
 11
1216
 21
39
  0
LINE
  8
0
 10
1216
 20
39
 11
1215.91
 21
38.2539
  0
LINE
  8
0
 10
1215.91
 20
38.2539
 11
1215.63
 21
37.5547
  0
LINE
  8
0
 10
1215.63
 20
37.5547
 11
1215.19
 21
36.9464
  0
LINE
  8
0
 10
1215.19
 20
36.9464
 11
1214.61
 21
36.467
  0
LINE
  8
0
 10
1214.61
 20
36.467
 11
1213.93
 21
36.1468
  0
LINE
  8
0
 10
1213.93
 20
36.1468
 11
1213.19
 21
36.0059
  0
LINE
  8
0
 10
1213.19
 20
36.0059
 11
1212.44
 21
36.0531
  0
LINE
  8
0
 10
1106
 20
-12.5
 11
1106
 21
12.5
  0
LINE
  8
0
 10
1106
 20
12.5
 11
1131
 21
12.5
  0
LINE
  8
0
 10
1131
 20
12.5
 11
1131
 21
-12.5
  0
LINE
  8
0
 10
1131
 20
-12.5
 11
1106
 21
-12.5
  0
LINE
  8
0
 10
1159.72
 20
-1.47342
 11
1159.36
 21
-1.35724
  0
LINE
  8
0
 10
1159.36
 20
-1.35724
 11
1159.04
 21
-1.15576
  0
LINE
  8
0
 10
1159.04
 20
-1.15576
 11
1158.79
 21
-0.881668
  0
LINE
  8
0
 10
1158.79
 20
-0.881668
 11
1158.61
 21
-0.552185
  0
LINE
  8
0
 10
1158.61
 20
-0.552185
 11
1158.51
 21
-0.187988
  0
LINE
  8
0
 10
1158.51
 20
-0.187988
 11
1158.51
 21
0.187988
  0
LINE
  8
0
 10
1158.51
 20
0.187988
 11
1158.61
 21
0.552185
  0
LINE
  8
0
 10
1158.61
 20
0.552185
 11
1158.79
 21
0.881668
  0
LINE
  8
0
 10
1158.79
 20
0.881668
 11
1159.04
 21
1.15576
  0
LINE
  8
0
 10
1159.04
 20
1.15576
 11
1159.36
 21
1.35724
  0
LINE
  8
0
 10
1159.36
 20
1.35724
 11
1159.72
 21
1.47342
  0
LINE
  8
0
 10
1159.72
 20
1.47342
 11
1160.09
 21
1.49704
  0
LINE
  8
0
 10
1160.09
 20
1.49704
 11
1160.46
 21
1.42657
  0
LINE
  8
0
 10
1160.46
 20
1.42657
 11
1160.8
 21
1.26648
  0
LINE
  8
0
 10
1160.8
 20
1.26648
 11
1161.09
 21
1.02681
  0
LINE
  8
0
 10
1161.09
 20
1.02681
 11
1161.31
 21
0.722626
  0
LINE
  8
0
 10
1161.31
 20
0.722626
 11
1161.45
 21
0.373032
  0
LINE
  8
0
 10
1161.45
 20
0.373032
 11
1161.5
 21
0
  0
LINE
  8
0
 10
1161.5
 20
0
 11
1161.45
 21
-0.373032
  0
LINE
  8
0
 10
1161.45
 20
-0.373032
 11
1161.31
 21
-0.722626
  0
LINE
  8
0
 10
1161.31
 20
-0.722626
 11
1161.09
 21
-1.02681
  0
LINE
  8
0
 10
1161.09
 20
-1.02681
 11
1160.8
 21
-1.26648
  0
LINE
  8
0
 10
1160.8
 20
-1.26648
 11
1160.46
 21
-1.42657
  0
LINE
  8
0
 10
1160.46
 20
-1.42657
 11
1160.09
 21
-1.49704
  0
LINE
  8
0
 10
1160.09
 20
-1.49704
 11
1159.72
 21
-1.47342
  0
LINE
  8
0
 10
1189.72
 20
-1.47342
 11
1189.36
 21
-1.35724
  0
LINE
  8
0
 10
1189.36
 20
-1.35724
 11
1189.04
 21
-1.15576
  0
LINE
  8
0
 10
1189.04
 20
-1.15576
 11
1188.79
 21
-0.881668
  0
LINE
  8
0
 10
1188.79
 20
-0.881668
 11
1188.61
 21
-0.552185
  0
LINE
  8
0
 10
1188.61
 20
-0.552185
 11
1188.51
 21
-0.187988
  0
LINE
  8
0
 10
1188.51
 20
-0.187988
 11
1188.51
 21
0.187988
  0
LINE
  8
0
 10
1188.51
 20
0.187988
 11
1188.61
 21
0.552185
  0
LINE
  8
0
 10
1188.61
 20
0.552185
 11
1188.79
 21
0.881668
  0
LINE
  8
0
 10
1188.79
 20
0.881668
 11
1189.04
 21
1.15576
  0
LINE
  8
0
 10
1189.04
 20
1.15576
 11
1189.36
 21
1.35724
  0
LINE
  8
0
 10
1189.36
 20
1.35724
 11
1189.72
 21
1.47342
  0
LINE
  8
0
 10
1189.72
 20
1.47342
 11
1190.09
 21
1.49704
  0
LINE
  8
0
 10
1190.09
 20
1.49704
 11
1190.46
 21
1.42657
  0
LINE
  8
0
 10
1190.46
 20
1.42657
 11
1190.8
 21
1.26648
  0
LINE
  8
0
 10
1190.8
 20
1.26648
 11
1191.09
 21
1.02681
  0
LINE
  8
0
 10
1191.09
 20
1.02681
 11
1191.31
 21
0.722626
  0
LINE
  8
0
 10
1191.31
 20
0.722626
 11
1191.45
 21
0.373032
  0
LINE
  8
0
 10
1191.45
 20
0.373032
 11
1191.5
 21
0
  0
LINE
  8
0
 10
1191.5
 20
0
 11
1191.45
 21
-0.373032
  0
LINE
  8
0
 10
1191.45
 20
-0.373032
 11
1191.31
 21
-0.722626
  0
LINE
  8
0
 10
1191.31
 20
-0.722626
 11
1191.09
 21
-1.02681
  0
LINE
  8
0
 10
1191.09
 20
-1.02681
 11
1190.8
 21
-1.26648
  0
LINE
  8
0
 10
1190.8
 20
-1.26648
 11
1190.46
 21
-1.42657
  0
LINE
  8
0
 10
1190.46
 20
-1.42657
 11
1190.09
 21
-1.49704
  0
LINE
  8
0
 10
1190.09
 20
-1.49704
 11
1189.72
 21
-1.47342
  0
LINE
  8
0
 10
1183.72
 20
-1.47342
 11
1183.36
 21
-1.35724
  0
LINE
  8
0
 10
1183.36
 20
-1.35724
 11
1183.04
 21
-1.15576
  0
LINE
  8
0
 10
1183.04
 20
-1.15576
 11
1182.79
 21
-0.881668
  0
LINE
  8
0
 10
1182.79
 20
-0.881668
 11
1182.61
 21
-0.552185
  0
LINE
  8
0
 10
1182.61
 20
-0.552185
 11
1182.51
 21
-0.187988
  0
LINE
  8
0
 10
1182.51
 20
-0.187988
 11
1182.51
 21
0.187988
  0
LINE
  8
0
 10
1182.51
 20
0.187988
 11
1182.61
 21
0.552185
  0
LINE
  8
0
 10
1182.61
 20
0.552185
 11
1182.79
 21
0.881668
  0
LINE
  8
0
 10
1182.79
 20
0.881668
 11
1183.04
 21
1.15576
  0
LINE
  8
0
 10
1183.04
 20
1.15576
 11
1183.36
 21
1.35724
  0
LINE
  8
0
 10
1183.36
 20
1.35724
 11
1183.72
 21
1.47342
  0
LINE
  8
0
 10
1183.72
 20
1.47342
 11
1184.09
 21
1.49704
  0
LINE
  8
0
 10
1184.09
 20
1.49704
 11
1184.46
 21
1.42657
  0
LINE
  8
0
 10
1184.46
 20
1.42657
 11
1184.8
 21
1.26648
  0
LINE
  8
0
 10
1184.8
 20
1.26648
 11
1185.09
 21
1.02681
  0
LINE
  8
0
 10
1185.09
 20
1.02681
 11
1185.31
 21
0.722626
  0
LINE
  8
0
 10
1185.31
 20
0.722626
 11
1185.45
 21
0.373032
  0
LINE
  8
0
 10
1185.45
 20
0.373032
 11
1185.5
 21
0
  0
LINE
  8
0
 10
1185.5
 20
0
 11
1185.45
 21
-0.373032
  0
LINE
  8
0
 10
1185.45
 20
-0.373032
 11
1185.31
 21
-0.722626
  0
LINE
  8
0
 10
1185.31
 20
-0.722626
 11
1185.09
 21
-1.02681
  0
LINE
  8
0
 10
1185.09
 20
-1.02681
 11
1184.8
 21
-1.26648
  0
LINE
  8
0
 10
1184.8
 20
-1.26648
 11
1184.46
 21
-1.42657
  0
LINE
  8
0
 10
1184.46
 20
-1.42657
 11
1184.09
 21
-1.49704
  0
LINE
  8
0
 10
1184.09
 20
-1.49704
 11
1183.72
 21
-1.47342
  0
LINE
  8
0
 10
1212.44
 20
-41.9469
 11
1211.72
 21
-41.7145
  0
LINE
  8
0
 10
1211.72
 20
-41.7145
 11
1211.09
 21
-41.3115
  0
LINE
  8
0
 10
1211.09
 20
-41.3115
 11
1210.57
 21
-40.7634
  0
LINE
  8
0
 10
1210.57
 20
-40.7634
 11
1210.21
 21
-40.1044
  0
LINE
  8
0
 10
1210.21
 20
-40.1044
 11
1210.02
 21
-39.376
  0
LINE
  8
0
 10
1210.02
 20
-39.376
 11
1210.02
 21
-38.624
  0
LINE
  8
0
 10
1210.02
 20
-38.624
 11
1210.21
 21
-37.8956
  0
LINE
  8
0
 10
1210.21
 20
-37.8956
 11
1210.57
 21
-37.2366
  0
LINE
  8
0
 10
1210.57
 20
-37.2366
 11
1211.09
 21
-36.6885
  0
LINE
  8
0
 10
1211.09
 20
-36.6885
 11
1211.72
 21
-36.2855
  0
LINE
  8
0
 10
1211.72
 20
-36.2855
 11
1212.44
 21
-36.0531
  0
LINE
  8
0
 10
1212.44
 20
-36.0531
 11
1213.19
 21
-36.0059
  0
LINE
  8
0
 10
1213.19
 20
-36.0059
 11
1213.93
 21
-36.1468
  0
LINE
  8
0
 10
1213.93
 20
-36.1468
 11
1214.61
 21
-36.467
  0
LINE
  8
0
 10
1214.61
 20
-36.467
 11
1215.19
 21
-36.9464
  0
LINE
  8
0
 10
1215.19
 20
-36.9464
 11
1215.63
 21
-37.5547
  0
LINE
  8
0
 10
1215.63
 20
-37.5547
 11
1215.91
 21
-38.2539
  0
LINE
  8
0
 10
1215.91
 20
-38.2539
 11
1216
 21
-39
  0
LINE
  8
0
 10
1216
 20
-39
 11
1215.91
 21
-39.7461
  0
LINE
  8
0
 10
1215.91
 20
-39.7461
 11
1215.63
 21
-40.4453
  0
LINE
  8
0
 10
1215.63
 20
-40.4453
 11
1215.19
 21
-41.0536
  0
LINE
  8
0
 10
1215.19
 20
-41.0536
 11
1214.61
 21
-41.533
  0
LINE
  8
0
 10
1214.61
 20
-41.533
 11
1213.93
 21
-41.8532
  0
LINE
  8
0
 10
1213.93
 20
-41.8532
 11
1213.19
 21
-41.9941
  0
LINE
  8
0
 10
1213.19
 20
-41.9941
 11
1212.44
 21
-41.9469
  0
LINE
  8
0
 10
1104.44
 20
-41.9469
 11
1103.72
 21
-41.7145
  0
LINE
  8
0
 10
1103.72
 20
-41.7145
 11
1103.09
 21
-41.3115
  0
LINE
  8
0
 10
1103.09
 20
-41.3115
 11
1102.57
 21
-40.7634
  0
LINE
  8
0
 10
1102.57
 20
-40.7634
 11
1102.21
 21
-40.1044
  0
LINE
  8
0
 10
1102.21
 20
-40.1044
 11
1102.02
 21
-39.376
  0
LINE
  8
0
 10
1102.02
 20
-39.376
 11
1102.02
 21
-38.624
  0
LINE
  8
0
 10
1102.02
 20
-38.624
 11
1102.21
 21
-37.8956
  0
LINE
  8
0
 10
1102.21
 20
-37.8956
 11
1102.57
 21
-37.2366
  0
LINE
  8
0
 10
1102.57
 20
-37.2366
 11
1103.09
 21
-36.6885
  0
LINE
  8
0
 10
1103.09
 20
-36.6885
 11
1103.72
 21
-36.2855
  0
LINE
  8
0
 10
1103.72
 20
-36.2855
 11
1104.44
 21
-36.0531
  0
LINE
  8
0
 10
1104.44
 20
-36.0531
 11
1105.19
 21
-36.0059
  0
LINE
  8
0
 10
1105.19
 20
-36.0059
 11
1105.93
 21
-36.1468
  0
LINE
  8
0
 10
1105.93
 20
-36.1468
 11
1106.61
 21
-36.467
  0
LINE
  8
0
 10
1106.61
 20
-36.467
 11
1107.19
 21
-36.9464
  0
LINE
  8
0
 10
1107.19
 20
-36.9464
 11
1107.63
 21
-37.5547
  0
LINE
  8
0
 10
1107.63
 20
-37.5547
 11
1107.91
 21
-38.2539
  0
LINE
  8
0
 10
1107.91
 20
-38.2539
 11
1108
 21
-39
  0
LINE
  8
0
 10
1108
 20
-39
 11
1107.91
 21
-39.7461
  0
LINE
  8
0
 10
1107.91
 20
-39.7461
 11
1107.63
 21
-40.4453
  0
LINE
  8
0
 10
1107.63
 20
-40.4453
 11
1107.19
 21
-41.0536
  0
LINE
  8
0
 10
1107.19
 20
-41.0536
 11
1106.61
 21
-41.533
  0
LINE
  8
0
 10
1106.61
 20
-41.533
 11
1105.93
 21
-41.8532
  0
LINE
  8
0
 10
1105.93
 20
-41.8532
 11
1105.19
 21
-41.9941
  0
LINE
  8
0
 10
1105.19
 20
-41.9941
 11
1104.44
 21
-41.9469
  0
LINE
  8
0
 10
2323.24
 20
-44.8429
 11
2324.41
 21
-44.3815
  0
LINE
  8
0
 10
2324.41
 20
-44.3815
 11
2325.42
 21
-43.6448
  0
LINE
  8
0
 10
2325.42
 20
-43.6448
 11
2326.22
 21
-42.6791
  0
LINE
  8
0
 10
2326.22
 20
-42.6791
 11
2326.76
 21
-41.5451
  0
LINE
  8
0
 10
2326.76
 20
-41.5451
 11
2327
 21
-40
  0
LINE
  8
0
 10
2327
 20
-40
 11
2327
 21
-29.5
  0
LINE
  8
0
 10
2327
 20
-29.5
 11
2239
 21
-29.5
  0
LINE
  8
0
 10
2239
 20
-29.5
 11
2239
 21
-12.5
  0
LINE
  8
0
 10
2239
 20
-12.5
 11
2214
 21
-12.5
  0
LINE
  8
0
 10
2214
 20
-12.5
 11
2214
 21
12.5
  0
LINE
  8
0
 10
2214
 20
12.5
 11
2239
 21
12.5
  0
LINE
  8
0
 10
2239
 20
12.5
 11
2239
 21
29.5
  0
LINE
  8
0
 10
2239
 20
29.5
 11
2327
 21
29.5
  0
LINE
  8
0
 10
2327
 20
29.5
 11
2327
 21
40
  0
LINE
  8
0
 10
2327
 20
40
 11
2326.84
 21
41.2435
  0
LINE
  8
0
 10
2326.84
 20
41.2435
 11
2326.38
 21
42.4088
  0
LINE
  8
0
 10
2326.38
 20
42.4088
 11
2325.64
 21
43.4227
  0
LINE
  8
0
 10
2325.64
 20
43.4227
 11
2324.68
 21
44.2216
  0
LINE
  8
0
 10
2324.68
 20
44.2216
 11
2323.55
 21
44.7553
  0
LINE
  8
0
 10
2323.55
 20
44.7553
 11
2322
 21
45
  0
LINE
  8
0
 10
2322
 20
45
 11
2212
 21
45
  0
LINE
  8
0
 10
2212
 20
45
 11
2210.76
 21
44.8429
  0
LINE
  8
0
 10
2210.76
 20
44.8429
 11
2209.59
 21
44.3815
  0
LINE
  8
0
 10
2209.59
 20
44.3815
 11
2208.58
 21
43.6448
  0
LINE
  8
0
 10
2208.58
 20
43.6448
 11
2207.78
 21
42.6791
  0
LINE
  8
0
 10
2207.78
 20
42.6791
 11
2207.24
 21
41.5451
  0
LINE
  8
0
 10
2207.24
 20
41.5451
 11
2207
 21
40
  0
LINE
  8
0
 10
2207
 20
40
 11
2207
 21
-40
  0
LINE
  8
0
 10
2207
 20
-40
 11
2207.16
 21
-41.2435
  0
LINE
  8
0
 10
2207.16
 20
-41.2435
 11
2207.62
 21
-42.4088
  0
LINE
  8
0
 10
2207.62
 20
-42.4088
 11
2208.36
 21
-43.4227
  0
LINE
  8
0
 10
2208.36
 20
-43.4227
 11
2209.32
 21
-44.2216
  0
LINE
  8
0
 10
2209.32
 20
-44.2216
 11
2210.45
 21
-44.7553
  0
LINE
  8
0
 10
2210.45
 20
-44.7553
 11
2212
 21
-45
  0
LINE
  8
0
 10
2212
 20
-45
 11
2322
 21
-45
  0
LINE
  8
0
 10
2322
 20
-45
 11
2323.24
 21
-44.8429
  0
LINE
  8
0
 10
2320.44
 20
36.0531
 11
2319.72
 21
36.2855
  0
LINE
  8
0
 10
2319.72
 20
36.2855
 11
2319.09
 21
36.6885
  0
LINE
  8
0
 10
2319.09
 20
36.6885
 11
2318.57
 21
37.2366
  0
LINE
  8
0
 10
2318.57
 20
37.2366
 11
2318.21
 21
37.8956
  0
LINE
  8
0
 10
2318.21
 20
37.8956
 11
2318.02
 21
38.624
  0
LINE
  8
0
 10
2318.02
 20
38.624
 11
2318.02
 21
39.376
  0
LINE
  8
0
 10
2318.02
 20
39.376
 11
2318.21
 21
40.1044
  0
LINE
  8
0
 10
2318.21
 20
40.1044
 11
2318.57
 21
40.7634
  0
LINE
  8
0
 10
2318.57
 20
40.7634
 11
2319.09
 21
41.3115
  0
LINE
  8
0
 10
2319.09
 20
41.3115
 11
2319.72
 21
41.7145
  0
LINE
  8
0
 10
2319.72
 20
41.7145
 11
2320.44
 21
41.9469
  0
LINE
  8
0
 10
2320.44
 20
41.9469
 11
2321.19
 21
41.9941
  0
LINE
  8
0
 10
2321.19
 20
41.9941
 11
2321.93
 21
41.8532
  0
LINE
  8
0
 10
2321.93
 20
41.8532
 11
2322.61
 21
41.533
  0
LINE
  8
0
 10
2322.61
 20
41.533
 11
2323.19
 21
41.0536
  0
LINE
  8
0
 10
2323.19
 20
41.0536
 11
2323.63
 21
40.4453
  0
LINE
  8
0
 10
2323.63
 20
40.4453
 11
2323.91
 21
39.7461
  0
LINE
  8
0
 10
2323.91
 20
39.7461
 11
2324
 21
39
  0
LINE
  8
0
 10
2324
 20
39
 11
2323.91
 21
38.2539
  0
LINE
  8
0
 10
2323.91
 20
38.2539
 11
2323.63
 21
37.5547
  0
LINE
  8
0
 10
2323.63
 20
37.5547
 11
2323.19
 21
36.9464
  0
LINE
  8
0
 10
2323.19
 20
36.9464
 11
2322.61
 21
36.467
  0
LINE
  8
0
 10
2322.61
 20
36.467
 11
2321.93
 21
36.1468
  0
LINE
  8
0
 10
2321.93
 20
36.1468
 11
2321.19
 21
36.0059
  0
LINE
  8
0
 10
2321.19
 20
36.0059
 11
2320.44
 21
36.0531
  0
LINE
  8
0
 10
2212.44
 20
36.0531
 11
2211.72
 21
36.2855
  0
LINE
  8
0
 10
2211.72
 20
36.2855
 11
2211.09
 21
36.6885
  0
LINE
  8
0
 10
2211.09
 20
36.6885
 11
2210.57
 21
37.2366
  0
LINE
  8
0
 10
2210.57
 20
37.2366
 11
2210.21
 21
37.8956
  0
LINE
  8
0
 10
2210.21
 20
37.8956
 11
2210.02
 21
38.624
  0
LINE
  8
0
 10
2210.02
 20
38.624
 11
2210.02
 21
39.376
  0
LINE
  8
0
 10
2210.02
 20
39.376
 11
2210.21
 21
40.1044
  0
LINE
  8
0
 10
2210.21
 20
40.1044
 11
2210.57
 21
40.7634
  0
LINE
  8
0
 10
2210.57
 20
40.7634
 11
2211.09
 21
41.3115
  0
LINE
  8
0
 10
2211.09
 20
41.3115
 11
2211.72
 21
41.7145
  0
LINE
  8
0
 10
2211.72
 20
41.7145
 11
2212.44
 21
41.9469
  0
LINE
  8
0
 10
2212.44
 20
41.9469
 11
2213.19
 21
41.9941
  0
LINE
  8
0
 10
2213.19
 20
41.9941
 11
2213.93
 21
41.8532
  0
LINE
  8
0
 10
2213.93
 20
41.8532
 11
2214.61
 21
41.533
  0
LINE
  8
0
 10
2214.61
 20
41.533
 11
2215.19
 21
41.0536
  0
LINE
  8
0
 10
2215.19
 20
41.0536
 11
2215.63
 21
40.4453
  0
LINE
  8
0
 10
2215.63
 20
40.4453
 11
2215.91
 21
39.7461
  0
LINE
  8
0
 10
2215.91
 20
39.7461
 11
2216
 21
39
  0
LINE
  8
0
 10
2216
 20
39
 11
2215.91
 21
38.2539
  0
LINE
  8
0
 10
2215.91
 20
38.2539
 11
2215.63
 21
37.5547
  0
LINE
  8
0
 10
2215.63
 20
37.5547
 11
2215.19
 21
36.9464
  0
LINE
  8
0
 10
2215.19
 20
36.9464
 11
2214.61
 21
36.467
  0
LINE
  8
0
 10
2214.61
 20
36.467
 11
2213.93
 21
36.1468
  0
LINE
  8
0
 10
2213.93
 20
36.1468
 11
2213.19
 21
36.0059
  0
LINE
  8
0
 10
2213.19
 20
36.0059
 11
2212.44
 21
36.0531
  0
LINE
  8
0
 10
2320.44
 20
-41.9469
 11
2319.72
 21
-41.7145
  0
LINE
  8
0
 10
2319.72
 20
-41.7145
 11
2319.09
 21
-41.3115
  0
LINE
  8
0
 10
2319.09
 20
-41.3115
 11
2318.57
 21
-40.7634
  0
LINE
  8
0
 10
2318.57
 20
-40.7634
 11
2318.21
 21
-40.1044
  0
LINE
  8
0
 10
2318.21
 20
-40.1044
 11
2318.02
 21
-39.376
  0
LINE
  8
0
 10
2318.02
 20
-39.376
 11
2318.02
 21
-38.624
  0
LINE
  8
0
 10
2318.02
 20
-38.624
 11
2318.21
 21
-37.8956
  0
LINE
  8
0
 10
2318.21
 20
-37.8956
 11
2318.57
 21
-37.2366
  0
LINE
  8
0
 10
2318.57
 20
-37.2366
 11
2319.09
 21
-36.6885
  0
LINE
  8
0
 10
2319.09
 20
-36.6885
 11
2319.72
 21
-36.2855
  0
LINE
  8
0
 10
2319.72
 20
-36.2855
 11
2320.44
 21
-36.0531
  0
LINE
  8
0
 10
2320.44
 20
-36.0531
 11
2321.19
 21
-36.0059
  0
LINE
  8
0
 10
2321.19
 20
-36.0059
 11
2321.93
 21
-36.1468
  0
LINE
  8
0
 10
2321.93
 20
-36.1468
 11
2322.61
 21
-36.467
  0
LINE
  8
0
 10
2322.61
 20
-36.467
 11
2323.19
 21
-36.9464
  0
LINE
  8
0
 10
2323.19
 20
-36.9464
 11
2323.63
 21
-37.5547
  0
LINE
  8
0
 10
2323.63
 20
-37.5547
 11
2323.91
 21
-38.2539
  0
LINE
  8
0
 10
2323.91
 20
-38.2539
 11
2324
 21
-39
  0
LINE
  8
0
 10
2324
 20
-39
 11
2323.91
 21
-39.7461
  0
LINE
  8
0
 10
2323.91
 20
-39.7461
 11
2323.63
 21
-40.4453
  0
LINE
  8
0
 10
2323.63
 20
-40.4453
 11
2323.19
 21
-41.0536
  0
LINE
  8
0
 10
2323.19
 20
-41.0536
 11
2322.61
 21
-41.533
  0
LINE
  8
0
 10
2322.61
 20
-41.533
 11
2321.93
 21
-41.8532
  0
LINE
  8
0
 10
2321.93
 20
-41.8532
 11
2321.19
 21
-41.9941
  0
LINE
  8
0
 10
2321.19
 20
-41.9941
 11
2320.44
 21
-41.9469
  0
LINE
  8
0
 10
2212.44
 20
-41.9469
 11
2211.72
 21
-41.7145
  0
LINE
  8
0
 10
2211.72
 20
-41.7145
 11
2211.09
 21
-41.3115
  0
LINE
  8
0
 10
2211.09
 20
-41.3115
 11
2210.57
 21
-40.7634
  0
LINE
  8
0
 10
2210.57
 20
-40.7634
 11
2210.21
 21
-40.1044
  0
LINE
  8
0
 10
2210.21
 20
-40.1044
 11
2210.02
 21
-39.376
  0
LINE
  8
0
 10
2210.02
 20
-39.376
 11
2210.02
 21
-38.624
  0
LINE
  8
0
 10
2210.02
 20
-38.624
 11
2210.21
 21
-37.8956
  0
LINE
  8
0
 10
2210.21
 20
-37.8956
 11
2210.57
 21
-37.2366
  0
LINE
  8
0
 10
2210.57
 20
-37.2366
 11
2211.09
 21
-36.6885
  0
LINE
  8
0
 10
2211.09
 20
-36.6885
 11
2211.72
 21
-36.2855
  0
LINE
  8
0
 10
2211.72
 20
-36.2855
 11
2212.44
 21
-36.0531
  0
LINE
  8
0
 10
2212.44
 20
-36.0531
 11
2213.19
 21
-36.0059
  0
LINE
  8
0
 10
2213.19
 20
-36.0059
 11
2213.93
 21
-36.1468
  0
LINE
  8
0
 10
2213.93
 20
-36.1468
 11
2214.61
 21
-36.467
  0
LINE
  8
0
 10
2214.61
 20
-36.467
 11
2215.19
 21
-36.9464
  0
LINE
  8
0
 10
2215.19
 20
-36.9464
 11
2215.63
 21
-37.5547
  0
LINE
  8
0
 10
2215.63
 20
-37.5547
 11
2215.91
 21
-38.2539
  0
LINE
  8
0
 10
2215.91
 20
-38.2539
 11
2216
 21
-39
  0
LINE
  8
0
 10
2216
 20
-39
 11
2215.91
 21
-39.7461
  0
LINE
  8
0
 10
2215.91
 20
-39.7461
 11
2215.63
 21
-40.4453
  0
LINE
  8
0
 10
2215.63
 20
-40.4453
 11
2215.19
 21
-41.0536
  0
LINE
  8
0
 10
2215.19
 20
-41.0536
 11
2214.61
 21
-41.533
  0
LINE
  8
0
 10
2214.61
 20
-41.533
 11
2213.93
 21
-41.8532
  0
LINE
  8
0
 10
2213.93
 20
-41.8532
 11
2213.19
 21
-41.9941
  0
LINE
  8
0
 10
2213.19
 20
-41.9941
 11
2212.44
 21
-41.9469
  0
LINE
  8
0
 10
2116
 20
29.5
 11
2204
 21
29.5
  0
LINE
  8
0
 10
2204
 20
29.5
 11
2204
 21
40
  0
LINE
  8
0
 10
2204
 20
40
 11
2203.84
 21
41.2435
  0
LINE
  8
0
 10
2203.84
 20
41.2435
 11
2203.38
 21
42.4088
  0
LINE
  8
0
 10
2203.38
 20
42.4088
 11
2202.64
 21
43.4227
  0
LINE
  8
0
 10
2202.64
 20
43.4227
 11
2201.68
 21
44.2216
  0
LINE
  8
0
 10
2201.68
 20
44.2216
 11
2200.55
 21
44.7553
  0
LINE
  8
0
 10
2200.55
 20
44.7553
 11
2199
 21
45
  0
LINE
  8
0
 10
2199
 20
45
 11
2089
 21
45
  0
LINE
  8
0
 10
2089
 20
45
 11
2087.76
 21
44.8429
  0
LINE
  8
0
 10
2087.76
 20
44.8429
 11
2086.59
 21
44.3815
  0
LINE
  8
0
 10
2086.59
 20
44.3815
 11
2085.58
 21
43.6448
  0
LINE
  8
0
 10
2085.58
 20
43.6448
 11
2084.78
 21
42.6791
  0
LINE
  8
0
 10
2084.78
 20
42.6791
 11
2084.24
 21
41.5451
  0
LINE
  8
0
 10
2084.24
 20
41.5451
 11
2084
 21
40
  0
LINE
  8
0
 10
2084
 20
40
 11
2084
 21
22.5
  0
LINE
  8
0
 10
2084
 20
22.5
 11
2099
 21
22.5
  0
LINE
  8
0
 10
2099
 20
22.5
 11
2099
 21
12.5
  0
LINE
  8
0
 10
2099
 20
12.5
 11
2116
 21
12.5
  0
LINE
  8
0
 10
2116
 20
12.5
 11
2116
 21
29.5
  0
LINE
  8
0
 10
2089.44
 20
36.0531
 11
2088.72
 21
36.2855
  0
LINE
  8
0
 10
2088.72
 20
36.2855
 11
2088.09
 21
36.6885
  0
LINE
  8
0
 10
2088.09
 20
36.6885
 11
2087.57
 21
37.2366
  0
LINE
  8
0
 10
2087.57
 20
37.2366
 11
2087.21
 21
37.8956
  0
LINE
  8
0
 10
2087.21
 20
37.8956
 11
2087.02
 21
38.624
  0
LINE
  8
0
 10
2087.02
 20
38.624
 11
2087.02
 21
39.376
  0
LINE
  8
0
 10
2087.02
 20
39.376
 11
2087.21
 21
40.1044
  0
LINE
  8
0
 10
2087.21
 20
40.1044
 11
2087.57
 21
40.7634
  0
LINE
  8
0
 10
2087.57
 20
40.7634
 11
2088.09
 21
41.3115
  0
LINE
  8
0
 10
2088.09
 20
41.3115
 11
2088.72
 21
41.7145
  0
LINE
  8
0
 10
2088.72
 20
41.7145
 11
2089.44
 21
41.9469
  0
LINE
  8
0
 10
2089.44
 20
41.9469
 11
2090.19
 21
41.9941
  0
LINE
  8
0
 10
2090.19
 20
41.9941
 11
2090.93
 21
41.8532
  0
LINE
  8
0
 10
2090.93
 20
41.8532
 11
2091.61
 21
41.533
  0
LINE
  8
0
 10
2091.61
 20
41.533
 11
2092.19
 21
41.0536
  0
LINE
  8
0
 10
2092.19
 20
41.0536
 11
2092.63
 21
40.4453
  0
LINE
  8
0
 10
2092.63
 20
40.4453
 11
2092.91
 21
39.7461
  0
LINE
  8
0
 10
2092.91
 20
39.7461
 11
2093
 21
39
  0
LINE
  8
0
 10
2093
 20
39
 11
2092.91
 21
38.2539
  0
LINE
  8
0
 10
2092.91
 20
38.2539
 11
2092.63
 21
37.5547
  0
LINE
  8
0
 10
2092.63
 20
37.5547
 11
2092.19
 21
36.9464
  0
LINE
  8
0
 10
2092.19
 20
36.9464
 11
2091.61
 21
36.467
  0
LINE
  8
0
 10
2091.61
 20
36.467
 11
2090.93
 21
36.1468
  0
LINE
  8
0
 10
2090.93
 20
36.1468
 11
2090.19
 21
36.0059
  0
LINE
  8
0
 10
2090.19
 20
36.0059
 11
2089.44
 21
36.0531
  0
LINE
  8
0
 10
2197.44
 20
36.0531
 11
2196.72
 21
36.2855
  0
LINE
  8
0
 10
2196.72
 20
36.2855
 11
2196.09
 21
36.6885
  0
LINE
  8
0
 10
2196.09
 20
36.6885
 11
2195.57
 21
37.2366
  0
LINE
  8
0
 10
2195.57
 20
37.2366
 11
2195.21
 21
37.8956
  0
LINE
  8
0
 10
2195.21
 20
37.8956
 11
2195.02
 21
38.624
  0
LINE
  8
0
 10
2195.02
 20
38.624
 11
2195.02
 21
39.376
  0
LINE
  8
0
 10
2195.02
 20
39.376
 11
2195.21
 21
40.1044
  0
LINE
  8
0
 10
2195.21
 20
40.1044
 11
2195.57
 21
40.7634
  0
LINE
  8
0
 10
2195.57
 20
40.7634
 11
2196.09
 21
41.3115
  0
LINE
  8
0
 10
2196.09
 20
41.3115
 11
2196.72
 21
41.7145
  0
LINE
  8
0
 10
2196.72
 20
41.7145
 11
2197.44
 21
41.9469
  0
LINE
  8
0
 10
2197.44
 20
41.9469
 11
2198.19
 21
41.9941
  0
LINE
  8
0
 10
2198.19
 20
41.9941
 11
2198.93
 21
41.8532
  0
LINE
  8
0
 10
2198.93
 20
41.8532
 11
2199.61
 21
41.533
  0
LINE
  8
0
 10
2199.61
 20
41.533
 11
2200.19
 21
41.0536
  0
LINE
  8
0
 10
2200.19
 20
41.0536
 11
2200.63
 21
40.4453
  0
LINE
  8
0
 10
2200.63
 20
40.4453
 11
2200.91
 21
39.7461
  0
LINE
  8
0
 10
2200.91
 20
39.7461
 11
2201
 21
39
  0
LINE
  8
0
 10
2201
 20
39
 11
2200.91
 21
38.2539
  0
LINE
  8
0
 10
2200.91
 20
38.2539
 11
2200.63
 21
37.5547
  0
LINE
  8
0
 10
2200.63
 20
37.5547
 11
2200.19
 21
36.9464
  0
LINE
  8
0
 10
2200.19
 20
36.9464
 11
2199.61
 21
36.467
  0
LINE
  8
0
 10
2199.61
 20
36.467
 11
2198.93
 21
36.1468
  0
LINE
  8
0
 10
2198.93
 20
36.1468
 11
2198.19
 21
36.0059
  0
LINE
  8
0
 10
2198.19
 20
36.0059
 11
2197.44
 21
36.0531
  0
LINE
  8
0
 10
415.243
 20
-44.8429
 11
416.409
 21
-44.3815
  0
LINE
  8
0
 10
416.409
 20
-44.3815
 11
417.423
 21
-43.6448
  0
LINE
  8
0
 10
417.423
 20
-43.6448
 11
418.222
 21
-42.6791
  0
LINE
  8
0
 10
418.222
 20
-42.6791
 11
418.755
 21
-41.5451
  0
LINE
  8
0
 10
418.755
 20
-41.5451
 11
419
 21
-40
  0
LINE
  8
0
 10
419
 20
-40
 11
419
 21
40
  0
LINE
  8
0
 10
419
 20
40
 11
418.843
 21
41.2435
  0
LINE
  8
0
 10
418.843
 20
41.2435
 11
418.382
 21
42.4088
  0
LINE
  8
0
 10
418.382
 20
42.4088
 11
417.645
 21
43.4227
  0
LINE
  8
0
 10
417.645
 20
43.4227
 11
416.679
 21
44.2216
  0
LINE
  8
0
 10
416.679
 20
44.2216
 11
415.545
 21
44.7553
  0
LINE
  8
0
 10
415.545
 20
44.7553
 11
414
 21
45
  0
LINE
  8
0
 10
414
 20
45
 11
304
 21
45
  0
LINE
  8
0
 10
304
 20
45
 11
302.757
 21
44.8429
  0
LINE
  8
0
 10
302.757
 20
44.8429
 11
301.591
 21
44.3815
  0
LINE
  8
0
 10
301.591
 20
44.3815
 11
300.577
 21
43.6448
  0
LINE
  8
0
 10
300.577
 20
43.6448
 11
299.778
 21
42.6791
  0
LINE
  8
0
 10
299.778
 20
42.6791
 11
299.245
 21
41.5451
  0
LINE
  8
0
 10
299.245
 20
41.5451
 11
299
 21
40
  0
LINE
  8
0
 10
299
 20
40
 11
299
 21
21.5
  0
LINE
  8
0
 10
299
 20
21.5
 11
384.5
 21
21.5
  0
LINE
  8
0
 10
384.5
 20
21.5
 11
384.5
 21
21.3726
  0
LINE
  8
0
 10
384.5
 20
21.3726
 11
385.85
 21
21.4576
  0
LINE
  8
0
 10
385.85
 20
21.4576
 11
391.144
 21
20.4477
  0
LINE
  8
0
 10
391.144
 20
20.4477
 11
396.02
 21
18.153
  0
LINE
  8
0
 10
396.02
 20
18.153
 11
400.173
 21
14.7178
  0
LINE
  8
0
 10
400.173
 20
14.7178
 11
403.341
 21
10.3577
  0
LINE
  8
0
 10
403.341
 20
10.3577
 11
405.325
 21
5.34683
  0
LINE
  8
0
 10
405.325
 20
5.34683
 11
406
 21
0
  0
LINE
  8
0
 10
406
 20
0
 11
405.325
 21
-5.34683
  0
LINE
  8
0
 10
405.325
 20
-5.34683
 11
403.341
 21
-10.3577
  0
LINE
  8
0
 10
403.341
 20
-10.3577
 11
400.173
 21
-14.7178
  0
LINE
  8
0
 10
400.173
 20
-14.7178
 11
396.02
 21
-18.153
  0
LINE
  8
0
 10
396.02
 20
-18.153
 11
391.144
 21
-20.4477
  0
LINE
  8
0
 10
391.144
 20
-20.4477
 11
385.85
 21
-21.4576
  0
LINE
  8
0
 10
385.85
 20
-21.4576
 11
384.5
 21
-21.3726
  0
LINE
  8
0
 10
384.5
 20
-21.3726
 11
384.5
 21
-21.5
  0
LINE
  8
0
 10
384.5
 20
-21.5
 11
299
 21
-21.5
  0
LINE
  8
0
 10
299
 20
-21.5
 11
299
 21
-40
  0
LINE
  8
0
 10
299
 20
-40
 11
299.157
 21
-41.2435
  0
LINE
  8
0
 10
299.157
 20
-41.2435
 11
299.618
 21
-42.4088
  0
LINE
  8
0
 10
299.618
 20
-42.4088
 11
300.355
 21
-43.4227
  0
LINE
  8
0
 10
300.355
 20
-43.4227
 11
301.321
 21
-44.2216
  0
LINE
  8
0
 10
301.321
 20
-44.2216
 11
302.455
 21
-44.7553
  0
LINE
  8
0
 10
302.455
 20
-44.7553
 11
304
 21
-45
  0
LINE
  8
0
 10
304
 20
-45
 11
414
 21
-45
  0
LINE
  8
0
 10
414
 20
-45
 11
415.243
 21
-44.8429
  0
LINE
  8
0
 10
412.438
 20
36.0531
 11
411.723
 21
36.2855
  0
LINE
  8
0
 10
411.723
 20
36.2855
 11
411.088
 21
36.6885
  0
LINE
  8
0
 10
411.088
 20
36.6885
 11
410.573
 21
37.2366
  0
LINE
  8
0
 10
410.573
 20
37.2366
 11
410.211
 21
37.8956
  0
LINE
  8
0
 10
410.211
 20
37.8956
 11
410.024
 21
38.624
  0
LINE
  8
0
 10
410.024
 20
38.624
 11
410.024
 21
39.376
  0
LINE
  8
0
 10
410.024
 20
39.376
 11
410.211
 21
40.1044
  0
LINE
  8
0
 10
410.211
 20
40.1044
 11
410.573
 21
40.7634
  0
LINE
  8
0
 10
410.573
 20
40.7634
 11
411.088
 21
41.3115
  0
LINE
  8
0
 10
411.088
 20
41.3115
 11
411.723
 21
41.7145
  0
LINE
  8
0
 10
411.723
 20
41.7145
 11
412.438
 21
41.9469
  0
LINE
  8
0
 10
412.438
 20
41.9469
 11
413.188
 21
41.9941
  0
LINE
  8
0
 10
413.188
 20
41.9941
 11
413.927
 21
41.8532
  0
LINE
  8
0
 10
413.927
 20
41.8532
 11
414.607
 21
41.533
  0
LINE
  8
0
 10
414.607
 20
41.533
 11
415.187
 21
41.0536
  0
LINE
  8
0
 10
415.187
 20
41.0536
 11
415.629
 21
40.4453
  0
LINE
  8
0
 10
415.629
 20
40.4453
 11
415.906
 21
39.7461
  0
LINE
  8
0
 10
415.906
 20
39.7461
 11
416
 21
39
  0
LINE
  8
0
 10
416
 20
39
 11
415.906
 21
38.2539
  0
LINE
  8
0
 10
415.906
 20
38.2539
 11
415.629
 21
37.5547
  0
LINE
  8
0
 10
415.629
 20
37.5547
 11
415.187
 21
36.9464
  0
LINE
  8
0
 10
415.187
 20
36.9464
 11
414.607
 21
36.467
  0
LINE
  8
0
 10
414.607
 20
36.467
 11
413.927
 21
36.1468
  0
LINE
  8
0
 10
413.927
 20
36.1468
 11
413.188
 21
36.0059
  0
LINE
  8
0
 10
413.188
 20
36.0059
 11
412.438
 21
36.0531
  0
LINE
  8
0
 10
304.438
 20
36.0531
 11
303.723
 21
36.2855
  0
LINE
  8
0
 10
303.723
 20
36.2855
 11
303.088
 21
36.6885
  0
LINE
  8
0
 10
303.088
 20
36.6885
 11
302.573
 21
37.2366
  0
LINE
  8
0
 10
302.573
 20
37.2366
 11
302.211
 21
37.8956
  0
LINE
  8
0
 10
302.211
 20
37.8956
 11
302.024
 21
38.624
  0
LINE
  8
0
 10
302.024
 20
38.624
 11
302.024
 21
39.376
  0
LINE
  8
0
 10
302.024
 20
39.376
 11
302.211
 21
40.1044
  0
LINE
  8
0
 10
302.211
 20
40.1044
 11
302.573
 21
40.7634
  0
LINE
  8
0
 10
302.573
 20
40.7634
 11
303.088
 21
41.3115
  0
LINE
  8
0
 10
303.088
 20
41.3115
 11
303.723
 21
41.7145
  0
LINE
  8
0
 10
303.723
 20
41.7145
 11
304.438
 21
41.9469
  0
LINE
  8
0
 10
304.438
 20
41.9469
 11
305.188
 21
41.9941
  0
LINE
  8
0
 10
305.188
 20
41.9941
 11
305.927
 21
41.8532
  0
LINE
  8
0
 10
305.927
 20
41.8532
 11
306.607
 21
41.533
  0
LINE
  8
0
 10
306.607
 20
41.533
 11
307.187
 21
41.0536
  0
LINE
  8
0
 10
307.187
 20
41.0536
 11
307.629
 21
40.4453
  0
LINE
  8
0
 10
307.629
 20
40.4453
 11
307.906
 21
39.7461
  0
LINE
  8
0
 10
307.906
 20
39.7461
 11
308
 21
39
  0
LINE
  8
0
 10
308
 20
39
 11
307.906
 21
38.2539
  0
LINE
  8
0
 10
307.906
 20
38.2539
 11
307.629
 21
37.5547
  0
LINE
  8
0
 10
307.629
 20
37.5547
 11
307.187
 21
36.9464
  0
LINE
  8
0
 10
307.187
 20
36.9464
 11
306.607
 21
36.467
  0
LINE
  8
0
 10
306.607
 20
36.467
 11
305.927
 21
36.1468
  0
LINE
  8
0
 10
305.927
 20
36.1468
 11
305.188
 21
36.0059
  0
LINE
  8
0
 10
305.188
 20
36.0059
 11
304.438
 21
36.0531
  0
LINE
  8
0
 10
304.438
 20
-41.9469
 11
303.723
 21
-41.7145
  0
LINE
  8
0
 10
303.723
 20
-41.7145
 11
303.088
 21
-41.3115
  0
LINE
  8
0
 10
303.088
 20
-41.3115
 11
302.573
 21
-40.7634
  0
LINE
  8
0
 10
302.573
 20
-40.7634
 11
302.211
 21
-40.1044
  0
LINE
  8
0
 10
302.211
 20
-40.1044
 11
302.024
 21
-39.376
  0
LINE
  8
0
 10
302.024
 20
-39.376
 11
302.024
 21
-38.624
  0
LINE
  8
0
 10
302.024
 20
-38.624
 11
302.211
 21
-37.8956
  0
LINE
  8
0
 10
302.211
 20
-37.8956
 11
302.573
 21
-37.2366
  0
LINE
  8
0
 10
302.573
 20
-37.2366
 11
303.088
 21
-36.6885
  0
LINE
  8
0
 10
303.088
 20
-36.6885
 11
303.723
 21
-36.2855
  0
LINE
  8
0
 10
303.723
 20
-36.2855
 11
304.438
 21
-36.0531
  0
LINE
  8
0
 10
304.438
 20
-36.0531
 11
305.188
 21
-36.0059
  0
LINE
  8
0
 10
305.188
 20
-36.0059
 11
305.927
 21
-36.1468
  0
LINE
  8
0
 10
305.927
 20
-36.1468
 11
306.607
 21
-36.467
  0
LINE
  8
0
 10
306.607
 20
-36.467
 11
307.187
 21
-36.9464
  0
LINE
  8
0
 10
307.187
 20
-36.9464
 11
307.629
 21
-37.5547
  0
LINE
  8
0
 10
307.629
 20
-37.5547
 11
307.906
 21
-38.2539
  0
LINE
  8
0
 10
307.906
 20
-38.2539
 11
308
 21
-39
  0
LINE
  8
0
 10
308
 20
-39
 11
307.906
 21
-39.7461
  0
LINE
  8
0
 10
307.906
 20
-39.7461
 11
307.629
 21
-40.4453
  0
LINE
  8
0
 10
307.629
 20
-40.4453
 11
307.187
 21
-41.0536
  0
LINE
  8
0
 10
307.187
 20
-41.0536
 11
306.607
 21
-41.533
  0
LINE
  8
0
 10
306.607
 20
-41.533
 11
305.927
 21
-41.8532
  0
LINE
  8
0
 10
305.927
 20
-41.8532
 11
305.188
 21
-41.9941
  0
LINE
  8
0
 10
305.188
 20
-41.9941
 11
304.438
 21
-41.9469
  0
LINE
  8
0
 10
412.438
 20
-41.9469
 11
411.723
 21
-41.7145
  0
LINE
  8
0
 10
411.723
 20
-41.7145
 11
411.088
 21
-41.3115
  0
LINE
  8
0
 10
411.088
 20
-41.3115
 11
410.573
 21
-40.7634
  0
LINE
  8
0
 10
410.573
 20
-40.7634
 11
410.211
 21
-40.1044
  0
LINE
  8
0
 10
410.211
 20
-40.1044
 11
410.024
 21
-39.376
  0
LINE
  8
0
 10
410.024
 20
-39.376
 11
410.024
 21
-38.624
  0
LINE
  8
0
 10
410.024
 20
-38.624
 11
410.211
 21
-37.8956
  0
LINE
  8
0
 10
410.211
 20
-37.8956
 11
410.573
 21
-37.2366
  0
LINE
  8
0
 10
410.573
 20
-37.2366
 11
411.088
 21
-36.6885
  0
LINE
  8
0
 10
411.088
 20
-36.6885
 11
411.723
 21
-36.2855
  0
LINE
  8
0
 10
411.723
 20
-36.2855
 11
412.438
 21
-36.0531
  0
LINE
  8
0
 10
412.438
 20
-36.0531
 11
413.188
 21
-36.0059
  0
LINE
  8
0
 10
413.188
 20
-36.0059
 11
413.927
 21
-36.1468
  0
LINE
  8
0
 10
413.927
 20
-36.1468
 11
414.607
 21
-36.467
  0
LINE
  8
0
 10
414.607
 20
-36.467
 11
415.187
 21
-36.9464
  0
LINE
  8
0
 10
415.187
 20
-36.9464
 11
415.629
 21
-37.5547
  0
LINE
  8
0
 10
415.629
 20
-37.5547
 11
415.906
 21
-38.2539
  0
LINE
  8
0
 10
415.906
 20
-38.2539
 11
416
 21
-39
  0
LINE
  8
0
 10
416
 20
-39
 11
415.906
 21
-39.7461
  0
LINE
  8
0
 10
415.906
 20
-39.7461
 11
415.629
 21
-40.4453
  0
LINE
  8
0
 10
415.629
 20
-40.4453
 11
415.187
 21
-41.0536
  0
LINE
  8
0
 10
415.187
 20
-41.0536
 11
414.607
 21
-41.533
  0
LINE
  8
0
 10
414.607
 20
-41.533
 11
413.927
 21
-41.8532
  0
LINE
  8
0
 10
413.927
 20
-41.8532
 11
413.188
 21
-41.9941
  0
LINE
  8
0
 10
413.188
 20
-41.9941
 11
412.438
 21
-41.9469
  0
LINE
  8
0
 10
1831.24
 20
-44.8429
 11
1832.41
 21
-44.3815
  0
LINE
  8
0
 10
1832.41
 20
-44.3815
 11
1833.42
 21
-43.6448
  0
LINE
  8
0
 10
1833.42
 20
-43.6448
 11
1834.22
 21
-42.6791
  0
LINE
  8
0
 10
1834.22
 20
-42.6791
 11
1834.76
 21
-41.5451
  0
LINE
  8
0
 10
1834.76
 20
-41.5451
 11
1835
 21
-40
  0
LINE
  8
0
 10
1835
 20
-40
 11
1835
 21
40
  0
LINE
  8
0
 10
1835
 20
40
 11
1834.84
 21
41.2435
  0
LINE
  8
0
 10
1834.84
 20
41.2435
 11
1834.38
 21
42.4088
  0
LINE
  8
0
 10
1834.38
 20
42.4088
 11
1833.64
 21
43.4227
  0
LINE
  8
0
 10
1833.64
 20
43.4227
 11
1832.68
 21
44.2216
  0
LINE
  8
0
 10
1832.68
 20
44.2216
 11
1831.55
 21
44.7553
  0
LINE
  8
0
 10
1831.55
 20
44.7553
 11
1830
 21
45
  0
LINE
  8
0
 10
1830
 20
45
 11
1720
 21
45
  0
LINE
  8
0
 10
1720
 20
45
 11
1718.76
 21
44.8429
  0
LINE
  8
0
 10
1718.76
 20
44.8429
 11
1717.59
 21
44.3815
  0
LINE
  8
0
 10
1717.59
 20
44.3815
 11
1716.58
 21
43.6448
  0
LINE
  8
0
 10
1716.58
 20
43.6448
 11
1715.78
 21
42.6791
  0
LINE
  8
0
 10
1715.78
 20
42.6791
 11
1715.24
 21
41.5451
  0
LINE
  8
0
 10
1715.24
 20
41.5451
 11
1715
 21
40
  0
LINE
  8
0
 10
1715
 20
40
 11
1715
 21
22.5
  0
LINE
  8
0
 10
1715
 20
22.5
 11
1730
 21
22.5
  0
LINE
  8
0
 10
1730
 20
22.5
 11
1730
 21
12.5
  0
LINE
  8
0
 10
1730
 20
12.5
 11
1730.99
 21
12.5
  0
LINE
  8
0
 10
1730.99
 20
12.5
 11
1730.99
 21
13.005
  0
LINE
  8
0
 10
1730.99
 20
13.005
 11
1731.09
 21
13.623
  0
LINE
  8
0
 10
1731.09
 20
13.623
 11
1731.31
 21
14.0766
  0
LINE
  8
0
 10
1731.31
 20
14.0766
 11
1731.63
 21
14.4629
  0
LINE
  8
0
 10
1731.63
 20
14.4629
 11
1732.03
 21
14.7576
  0
LINE
  8
0
 10
1732.03
 20
14.7576
 11
1732.5
 21
14.9422
  0
LINE
  8
0
 10
1732.5
 20
14.9422
 11
1732.99
 21
15.005
  0
LINE
  8
0
 10
1732.99
 20
15.005
 11
1816.01
 21
15.005
  0
LINE
  8
0
 10
1816.01
 20
15.005
 11
1816.62
 21
14.9071
  0
LINE
  8
0
 10
1816.62
 20
14.9071
 11
1817.08
 21
14.6936
  0
LINE
  8
0
 10
1817.08
 20
14.6936
 11
1817.46
 21
14.3741
  0
LINE
  8
0
 10
1817.46
 20
14.3741
 11
1817.76
 21
13.9685
  0
LINE
  8
0
 10
1817.76
 20
13.9685
 11
1817.94
 21
13.5024
  0
LINE
  8
0
 10
1817.94
 20
13.5024
 11
1818.01
 21
13.005
  0
LINE
  8
0
 10
1818.01
 20
13.005
 11
1818.01
 21
-13.005
  0
LINE
  8
0
 10
1818.01
 20
-13.005
 11
1817.91
 21
-13.623
  0
LINE
  8
0
 10
1817.91
 20
-13.623
 11
1817.69
 21
-14.0766
  0
LINE
  8
0
 10
1817.69
 20
-14.0766
 11
1817.37
 21
-14.4629
  0
LINE
  8
0
 10
1817.37
 20
-14.4629
 11
1816.97
 21
-14.7576
  0
LINE
  8
0
 10
1816.97
 20
-14.7576
 11
1816.5
 21
-14.9422
  0
LINE
  8
0
 10
1816.5
 20
-14.9422
 11
1816.01
 21
-15.005
  0
LINE
  8
0
 10
1816.01
 20
-15.005
 11
1801.99
 21
-15.005
  0
LINE
  8
0
 10
1801.99
 20
-15.005
 11
1801.38
 21
-14.9071
  0
LINE
  8
0
 10
1801.38
 20
-14.9071
 11
1800.92
 21
-14.6936
  0
LINE
  8
0
 10
1800.92
 20
-14.6936
 11
1800.54
 21
-14.3741
  0
LINE
  8
0
 10
1800.54
 20
-14.3741
 11
1800.24
 21
-13.9685
  0
LINE
  8
0
 10
1800.24
 20
-13.9685
 11
1800.06
 21
-13.5024
  0
LINE
  8
0
 10
1800.06
 20
-13.5024
 11
1799.99
 21
-13.005
  0
LINE
  8
0
 10
1799.99
 20
-13.005
 11
1799.99
 21
-5.99501
  0
LINE
  8
0
 10
1799.99
 20
-5.99501
 11
1800.09
 21
-5.37698
  0
LINE
  8
0
 10
1800.09
 20
-5.37698
 11
1800.31
 21
-4.92336
  0
LINE
  8
0
 10
1800.31
 20
-4.92336
 11
1800.63
 21
-4.53708
  0
LINE
  8
0
 10
1800.63
 20
-4.53708
 11
1801.03
 21
-4.2424
  0
LINE
  8
0
 10
1801.03
 20
-4.2424
 11
1801.5
 21
-4.05785
  0
LINE
  8
0
 10
1801.5
 20
-4.05785
 11
1801.99
 21
-3.99501
  0
LINE
  8
0
 10
1801.99
 20
-3.99501
 11
1808.99
 21
-3.99501
  0
LINE
  8
0
 10
1808.99
 20
-3.99501
 11
1808.99
 21
3.99501
  0
LINE
  8
0
 10
1808.99
 20
3.99501
 11
1747
 21
3.99501
  0
LINE
  8
0
 10
1747
 20
3.99501
 11
1747
 21
-3.99501
  0
LINE
  8
0
 10
1747
 20
-3.99501
 11
1769.01
 21
-3.99501
  0
LINE
  8
0
 10
1769.01
 20
-3.99501
 11
1769.62
 21
-4.0929
  0
LINE
  8
0
 10
1769.62
 20
-4.0929
 11
1770.08
 21
-4.30635
  0
LINE
  8
0
 10
1770.08
 20
-4.30635
 11
1770.46
 21
-4.62592
  0
LINE
  8
0
 10
1770.46
 20
-4.62592
 11
1770.76
 21
-5.03151
  0
LINE
  8
0
 10
1770.76
 20
-5.03151
 11
1770.94
 21
-5.49763
  0
LINE
  8
0
 10
1770.94
 20
-5.49763
 11
1771.01
 21
-5.99501
  0
LINE
  8
0
 10
1771.01
 20
-5.99501
 11
1771.01
 21
-13.005
  0
LINE
  8
0
 10
1771.01
 20
-13.005
 11
1770.91
 21
-13.623
  0
LINE
  8
0
 10
1770.91
 20
-13.623
 11
1770.69
 21
-14.0766
  0
LINE
  8
0
 10
1770.69
 20
-14.0766
 11
1770.37
 21
-14.4629
  0
LINE
  8
0
 10
1770.37
 20
-14.4629
 11
1769.97
 21
-14.7576
  0
LINE
  8
0
 10
1769.97
 20
-14.7576
 11
1769.5
 21
-14.9422
  0
LINE
  8
0
 10
1769.5
 20
-14.9422
 11
1769.01
 21
-15.005
  0
LINE
  8
0
 10
1769.01
 20
-15.005
 11
1732.99
 21
-15.005
  0
LINE
  8
0
 10
1732.99
 20
-15.005
 11
1732.38
 21
-14.9071
  0
LINE
  8
0
 10
1732.38
 20
-14.9071
 11
1731.92
 21
-14.6936
  0
LINE
  8
0
 10
1731.92
 20
-14.6936
 11
1731.54
 21
-14.3741
  0
LINE
  8
0
 10
1731.54
 20
-14.3741
 11
1731.24
 21
-13.9685
  0
LINE
  8
0
 10
1731.24
 20
-13.9685
 11
1731.06
 21
-13.5024
  0
LINE
  8
0
 10
1731.06
 20
-13.5024
 11
1730.99
 21
-13.005
  0
LINE
  8
0
 10
1730.99
 20
-13.005
 11
1730.99
 21
-12.5
  0
LINE
  8
0
 10
1730.99
 20
-12.5
 11
1730
 21
-12.5
  0
LINE
  8
0
 10
1730
 20
-12.5
 11
1730
 21
-22.5
  0
LINE
  8
0
 10
1730
 20
-22.5
 11
1715
 21
-22.5
  0
LINE
  8
0
 10
1715
 20
-22.5
 11
1715
 21
-40
  0
LINE
  8
0
 10
1715
 20
-40
 11
1715.16
 21
-41.2435
  0
LINE
  8
0
 10
1715.16
 20
-41.2435
 11
1715.62
 21
-42.4088
  0
LINE
  8
0
 10
1715.62
 20
-42.4088
 11
1716.36
 21
-43.4227
  0
LINE
  8
0
 10
1716.36
 20
-43.4227
 11
1717.32
 21
-44.2216
  0
LINE
  8
0
 10
1717.32
 20
-44.2216
 11
1718.45
 21
-44.7553
  0
LINE
  8
0
 10
1718.45
 20
-44.7553
 11
1720
 21
-45
  0
LINE
  8
0
 10
1720
 20
-45
 11
1830
 21
-45
  0
LINE
  8
0
 10
1830
 20
-45
 11
1831.24
 21
-44.8429
  0
LINE
  8
0
 10
1828.44
 20
36.0531
 11
1827.72
 21
36.2855
  0
LINE
  8
0
 10
1827.72
 20
36.2855
 11
1827.09
 21
36.6885
  0
LINE
  8
0
 10
1827.09
 20
36.6885
 11
1826.57
 21
37.2366
  0
LINE
  8
0
 10
1826.57
 20
37.2366
 11
1826.21
 21
37.8956
  0
LINE
  8
0
 10
1826.21
 20
37.8956
 11
1826.02
 21
38.624
  0
LINE
  8
0
 10
1826.02
 20
38.624
 11
1826.02
 21
39.376
  0
LINE
  8
0
 10
1826.02
 20
39.376
 11
1826.21
 21
40.1044
  0
LINE
  8
0
 10
1826.21
 20
40.1044
 11
1826.57
 21
40.7634
  0
LINE
  8
0
 10
1826.57
 20
40.7634
 11
1827.09
 21
41.3115
  0
LINE
  8
0
 10
1827.09
 20
41.3115
 11
1827.72
 21
41.7145
  0
LINE
  8
0
 10
1827.72
 20
41.7145
 11
1828.44
 21
41.9469
  0
LINE
  8
0
 10
1828.44
 20
41.9469
 11
1829.19
 21
41.9941
  0
LINE
  8
0
 10
1829.19
 20
41.9941
 11
1829.93
 21
41.8532
  0
LINE
  8
0
 10
1829.93
 20
41.8532
 11
1830.61
 21
41.533
  0
LINE
  8
0
 10
1830.61
 20
41.533
 11
1831.19
 21
41.0536
  0
LINE
  8
0
 10
1831.19
 20
41.0536
 11
1831.63
 21
40.4453
  0
LINE
  8
0
 10
1831.63
 20
40.4453
 11
1831.91
 21
39.7461
  0
LINE
  8
0
 10
1831.91
 20
39.7461
 11
1832
 21
39
  0
LINE
  8
0
 10
1832
 20
39
 11
1831.91
 21
38.2539
  0
LINE
  8
0
 10
1831.91
 20
38.2539
 11
1831.63
 21
37.5547
  0
LINE
  8
0
 10
1831.63
 20
37.5547
 11
1831.19
 21
36.9464
  0
LINE
  8
0
 10
1831.19
 20
36.9464
 11
1830.61
 21
36.467
  0
LINE
  8
0
 10
1830.61
 20
36.467
 11
1829.93
 21
36.1468
  0
LINE
  8
0
 10
1829.93
 20
36.1468
 11
1829.19
 21
36.0059
  0
LINE
  8
0
 10
1829.19
 20
36.0059
 11
1828.44
 21
36.0531
  0
LINE
  8
0
 10
1720.44
 20
36.0531
 11
1719.72
 21
36.2855
  0
LINE
  8
0
 10
1719.72
 20
36.2855
 11
1719.09
 21
36.6885
  0
LINE
  8
0
 10
1719.09
 20
36.6885
 11
1718.57
 21
37.2366
  0
LINE
  8
0
 10
1718.57
 20
37.2366
 11
1718.21
 21
37.8956
  0
LINE
  8
0
 10
1718.21
 20
37.8956
 11
1718.02
 21
38.624
  0
LINE
  8
0
 10
1718.02
 20
38.624
 11
1718.02
 21
39.376
  0
LINE
  8
0
 10
1718.02
 20
39.376
 11
1718.21
 21
40.1044
  0
LINE
  8
0
 10
1718.21
 20
40.1044
 11
1718.57
 21
40.7634
  0
LINE
  8
0
 10
1718.57
 20
40.7634
 11
1719.09
 21
41.3115
  0
LINE
  8
0
 10
1719.09
 20
41.3115
 11
1719.72
 21
41.7145
  0
LINE
  8
0
 10
1719.72
 20
41.7145
 11
1720.44
 21
41.9469
  0
LINE
  8
0
 10
1720.44
 20
41.9469
 11
1721.19
 21
41.9941
  0
LINE
  8
0
 10
1721.19
 20
41.9941
 11
1721.93
 21
41.8532
  0
LINE
  8
0
 10
1721.93
 20
41.8532
 11
1722.61
 21
41.533
  0
LINE
  8
0
 10
1722.61
 20
41.533
 11
1723.19
 21
41.0536
  0
LINE
  8
0
 10
1723.19
 20
41.0536
 11
1723.63
 21
40.4453
  0
LINE
  8
0
 10
1723.63
 20
40.4453
 11
1723.91
 21
39.7461
  0
LINE
  8
0
 10
1723.91
 20
39.7461
 11
1724
 21
39
  0
LINE
  8
0
 10
1724
 20
39
 11
1723.91
 21
38.2539
  0
LINE
  8
0
 10
1723.91
 20
38.2539
 11
1723.63
 21
37.5547
  0
LINE
  8
0
 10
1723.63
 20
37.5547
 11
1723.19
 21
36.9464
  0
LINE
  8
0
 10
1723.19
 20
36.9464
 11
1722.61
 21
36.467
  0
LINE
  8
0
 10
1722.61
 20
36.467
 11
1721.93
 21
36.1468
  0
LINE
  8
0
 10
1721.93
 20
36.1468
 11
1721.19
 21
36.0059
  0
LINE
  8
0
 10
1721.19
 20
36.0059
 11
1720.44
 21
36.0531
  0
LINE
  8
0
 10
1798.41
 20
-2.75006
 11
1796.82
 21
0
  0
LINE
  8
0
 10
1796.82
 20
0
 11
1798.41
 21
2.75006
  0
LINE
  8
0
 10
1798.41
 20
2.75006
 11
1801.59
 21
2.75006
  0
LINE
  8
0
 10
1801.59
 20
2.75006
 11
1803.18
 21
0
  0
LINE
  8
0
 10
1803.18
 20
0
 11
1801.59
 21
-2.75006
  0
LINE
  8
0
 10
1801.59
 20
-2.75006
 11
1798.41
 21
-2.75006
  0
LINE
  8
0
 10
1805.72
 20
-1.47342
 11
1805.36
 21
-1.35724
  0
LINE
  8
0
 10
1805.36
 20
-1.35724
 11
1805.04
 21
-1.15576
  0
LINE
  8
0
 10
1805.04
 20
-1.15576
 11
1804.79
 21
-0.881668
  0
LINE
  8
0
 10
1804.79
 20
-0.881668
 11
1804.61
 21
-0.552185
  0
LINE
  8
0
 10
1804.61
 20
-0.552185
 11
1804.51
 21
-0.187988
  0
LINE
  8
0
 10
1804.51
 20
-0.187988
 11
1804.51
 21
0.187988
  0
LINE
  8
0
 10
1804.51
 20
0.187988
 11
1804.61
 21
0.552185
  0
LINE
  8
0
 10
1804.61
 20
0.552185
 11
1804.79
 21
0.881668
  0
LINE
  8
0
 10
1804.79
 20
0.881668
 11
1805.04
 21
1.15576
  0
LINE
  8
0
 10
1805.04
 20
1.15576
 11
1805.36
 21
1.35724
  0
LINE
  8
0
 10
1805.36
 20
1.35724
 11
1805.72
 21
1.47342
  0
LINE
  8
0
 10
1805.72
 20
1.47342
 11
1806.09
 21
1.49704
  0
LINE
  8
0
 10
1806.09
 20
1.49704
 11
1806.46
 21
1.42657
  0
LINE
  8
0
 10
1806.46
 20
1.42657
 11
1806.8
 21
1.26648
  0
LINE
  8
0
 10
1806.8
 20
1.26648
 11
1807.09
 21
1.02681
  0
LINE
  8
0
 10
1807.09
 20
1.02681
 11
1807.31
 21
0.722626
  0
LINE
  8
0
 10
1807.31
 20
0.722626
 11
1807.45
 21
0.373032
  0
LINE
  8
0
 10
1807.45
 20
0.373032
 11
1807.5
 21
0
  0
LINE
  8
0
 10
1807.5
 20
0
 11
1807.45
 21
-0.373032
  0
LINE
  8
0
 10
1807.45
 20
-0.373032
 11
1807.31
 21
-0.722626
  0
LINE
  8
0
 10
1807.31
 20
-0.722626
 11
1807.09
 21
-1.02681
  0
LINE
  8
0
 10
1807.09
 20
-1.02681
 11
1806.8
 21
-1.26648
  0
LINE
  8
0
 10
1806.8
 20
-1.26648
 11
1806.46
 21
-1.42657
  0
LINE
  8
0
 10
1806.46
 20
-1.42657
 11
1806.09
 21
-1.49704
  0
LINE
  8
0
 10
1806.09
 20
-1.49704
 11
1805.72
 21
-1.47342
  0
LINE
  8
0
 10
1775.72
 20
-1.47342
 11
1775.36
 21
-1.35724
  0
LINE
  8
0
 10
1775.36
 20
-1.35724
 11
1775.04
 21
-1.15576
  0
LINE
  8
0
 10
1775.04
 20
-1.15576
 11
1774.79
 21
-0.881668
  0
LINE
  8
0
 10
1774.79
 20
-0.881668
 11
1774.61
 21
-0.552185
  0
LINE
  8
0
 10
1774.61
 20
-0.552185
 11
1774.51
 21
-0.187988
  0
LINE
  8
0
 10
1774.51
 20
-0.187988
 11
1774.51
 21
0.187988
  0
LINE
  8
0
 10
1774.51
 20
0.187988
 11
1774.61
 21
0.552185
  0
LINE
  8
0
 10
1774.61
 20
0.552185
 11
1774.79
 21
0.881668
  0
LINE
  8
0
 10
1774.79
 20
0.881668
 11
1775.04
 21
1.15576
  0
LINE
  8
0
 10
1775.04
 20
1.15576
 11
1775.36
 21
1.35724
  0
LINE
  8
0
 10
1775.36
 20
1.35724
 11
1775.72
 21
1.47342
  0
LINE
  8
0
 10
1775.72
 20
1.47342
 11
1776.09
 21
1.49704
  0
LINE
  8
0
 10
1776.09
 20
1.49704
 11
1776.46
 21
1.42657
  0
LINE
  8
0
 10
1776.46
 20
1.42657
 11
1776.8
 21
1.26648
  0
LINE
  8
0
 10
1776.8
 20
1.26648
 11
1777.09
 21
1.02681
  0
LINE
  8
0
 10
1777.09
 20
1.02681
 11
1777.31
 21
0.722626
  0
LINE
  8
0
 10
1777.31
 20
0.722626
 11
1777.45
 21
0.373032
  0
LINE
  8
0
 10
1777.45
 20
0.373032
 11
1777.5
 21
0
  0
LINE
  8
0
 10
1777.5
 20
0
 11
1777.45
 21
-0.373032
  0
LINE
  8
0
 10
1777.45
 20
-0.373032
 11
1777.31
 21
-0.722626
  0
LINE
  8
0
 10
1777.31
 20
-0.722626
 11
1777.09
 21
-1.02681
  0
LINE
  8
0
 10
1777.09
 20
-1.02681
 11
1776.8
 21
-1.26648
  0
LINE
  8
0
 10
1776.8
 20
-1.26648
 11
1776.46
 21
-1.42657
  0
LINE
  8
0
 10
1776.46
 20
-1.42657
 11
1776.09
 21
-1.49704
  0
LINE
  8
0
 10
1776.09
 20
-1.49704
 11
1775.72
 21
-1.47342
  0
LINE
  8
0
 10
1828.44
 20
-41.9469
 11
1827.72
 21
-41.7145
  0
LINE
  8
0
 10
1827.72
 20
-41.7145
 11
1827.09
 21
-41.3115
  0
LINE
  8
0
 10
1827.09
 20
-41.3115
 11
1826.57
 21
-40.7634
  0
LINE
  8
0
 10
1826.57
 20
-40.7634
 11
1826.21
 21
-40.1044
  0
LINE
  8
0
 10
1826.21
 20
-40.1044
 11
1826.02
 21
-39.376
  0
LINE
  8
0
 10
1826.02
 20
-39.376
 11
1826.02
 21
-38.624
  0
LINE
  8
0
 10
1826.02
 20
-38.624
 11
1826.21
 21
-37.8956
  0
LINE
  8
0
 10
1826.21
 20
-37.8956
 11
1826.57
 21
-37.2366
  0
LINE
  8
0
 10
1826.57
 20
-37.2366
 11
1827.09
 21
-36.6885
  0
LINE
  8
0
 10
1827.09
 20
-36.6885
 11
1827.72
 21
-36.2855
  0
LINE
  8
0
 10
1827.72
 20
-36.2855
 11
1828.44
 21
-36.0531
  0
LINE
  8
0
 10
1828.44
 20
-36.0531
 11
1829.19
 21
-36.0059
  0
LINE
  8
0
 10
1829.19
 20
-36.0059
 11
1829.93
 21
-36.1468
  0
LINE
  8
0
 10
1829.93
 20
-36.1468
 11
1830.61
 21
-36.467
  0
LINE
  8
0
 10
1830.61
 20
-36.467
 11
1831.19
 21
-36.9464
  0
LINE
  8
0
 10
1831.19
 20
-36.9464
 11
1831.63
 21
-37.5547
  0
LINE
  8
0
 10
1831.63
 20
-37.5547
 11
1831.91
 21
-38.2539
  0
LINE
  8
0
 10
1831.91
 20
-38.2539
 11
1832
 21
-39
  0
LINE
  8
0
 10
1832
 20
-39
 11
1831.91
 21
-39.7461
  0
LINE
  8
0
 10
1831.91
 20
-39.7461
 11
1831.63
 21
-40.4453
  0
LINE
  8
0
 10
1831.63
 20
-40.4453
 11
1831.19
 21
-41.0536
  0
LINE
  8
0
 10
1831.19
 20
-41.0536
 11
1830.61
 21
-41.533
  0
LINE
  8
0
 10
1830.61
 20
-41.533
 11
1829.93
 21
-41.8532
  0
LINE
  8
0
 10
1829.93
 20
-41.8532
 11
1829.19
 21
-41.9941
  0
LINE
  8
0
 10
1829.19
 20
-41.9941
 11
1828.44
 21
-41.9469
  0
LINE
  8
0
 10
1720.44
 20
-41.9469
 11
1719.72
 21
-41.7145
  0
LINE
  8
0
 10
1719.72
 20
-41.7145
 11
1719.09
 21
-41.3115
  0
LINE
  8
0
 10
1719.09
 20
-41.3115
 11
1718.57
 21
-40.7634
  0
LINE
  8
0
 10
1718.57
 20
-40.7634
 11
1718.21
 21
-40.1044
  0
LINE
  8
0
 10
1718.21
 20
-40.1044
 11
1718.02
 21
-39.376
  0
LINE
  8
0
 10
1718.02
 20
-39.376
 11
1718.02
 21
-38.624
  0
LINE
  8
0
 10
1718.02
 20
-38.624
 11
1718.21
 21
-37.8956
  0
LINE
  8
0
 10
1718.21
 20
-37.8956
 11
1718.57
 21
-37.2366
  0
LINE
  8
0
 10
1718.57
 20
-37.2366
 11
1719.09
 21
-36.6885
  0
LINE
  8
0
 10
1719.09
 20
-36.6885
 11
1719.72
 21
-36.2855
  0
LINE
  8
0
 10
1719.72
 20
-36.2855
 11
1720.44
 21
-36.0531
  0
LINE
  8
0
 10
1720.44
 20
-36.0531
 11
1721.19
 21
-36.0059
  0
LINE
  8
0
 10
1721.19
 20
-36.0059
 11
1721.93
 21
-36.1468
  0
LINE
  8
0
 10
1721.93
 20
-36.1468
 11
1722.61
 21
-36.467
  0
LINE
  8
0
 10
1722.61
 20
-36.467
 11
1723.19
 21
-36.9464
  0
LINE
  8
0
 10
1723.19
 20
-36.9464
 11
1723.63
 21
-37.5547
  0
LINE
  8
0
 10
1723.63
 20
-37.5547
 11
1723.91
 21
-38.2539
  0
LINE
  8
0
 10
1723.91
 20
-38.2539
 11
1724
 21
-39
  0
LINE
  8
0
 10
1724
 20
-39
 11
1723.91
 21
-39.7461
  0
LINE
  8
0
 10
1723.91
 20
-39.7461
 11
1723.63
 21
-40.4453
  0
LINE
  8
0
 10
1723.63
 20
-40.4453
 11
1723.19
 21
-41.0536
  0
LINE
  8
0
 10
1723.19
 20
-41.0536
 11
1722.61
 21
-41.533
  0
LINE
  8
0
 10
1722.61
 20
-41.533
 11
1721.93
 21
-41.8532
  0
LINE
  8
0
 10
1721.93
 20
-41.8532
 11
1721.19
 21
-41.9941
  0
LINE
  8
0
 10
1721.19
 20
-41.9941
 11
1720.44
 21
-41.9469
  0
LINE
  8
0
 10
815.243
 20
-44.8429
 11
816.409
 21
-44.3815
  0
LINE
  8
0
 10
816.409
 20
-44.3815
 11
817.423
 21
-43.6448
  0
LINE
  8
0
 10
817.423
 20
-43.6448
 11
818.222
 21
-42.6791
  0
LINE
  8
0
 10
818.222
 20
-42.6791
 11
818.755
 21
-41.5451
  0
LINE
  8
0
 10
818.755
 20
-41.5451
 11
819
 21
-40
  0
LINE
  8
0
 10
819
 20
-40
 11
819
 21
40
  0
LINE
  8
0
 10
819
 20
40
 11
818.843
 21
41.2435
  0
LINE
  8
0
 10
818.843
 20
41.2435
 11
818.382
 21
42.4088
  0
LINE
  8
0
 10
818.382
 20
42.4088
 11
817.645
 21
43.4227
  0
LINE
  8
0
 10
817.645
 20
43.4227
 11
816.679
 21
44.2216
  0
LINE
  8
0
 10
816.679
 20
44.2216
 11
815.545
 21
44.7553
  0
LINE
  8
0
 10
815.545
 20
44.7553
 11
814
 21
45
  0
LINE
  8
0
 10
814
 20
45
 11
704
 21
45
  0
LINE
  8
0
 10
704
 20
45
 11
702.757
 21
44.8429
  0
LINE
  8
0
 10
702.757
 20
44.8429
 11
701.591
 21
44.3815
  0
LINE
  8
0
 10
701.591
 20
44.3815
 11
700.577
 21
43.6448
  0
LINE
  8
0
 10
700.577
 20
43.6448
 11
699.778
 21
42.6791
  0
LINE
  8
0
 10
699.778
 20
42.6791
 11
699.245
 21
41.5451
  0
LINE
  8
0
 10
699.245
 20
41.5451
 11
699
 21
40
  0
LINE
  8
0
 10
699
 20
40
 11
699
 21
-40
  0
LINE
  8
0
 10
699
 20
-40
 11
699.157
 21
-41.2435
  0
LINE
  8
0
 10
699.157
 20
-41.2435
 11
699.618
 21
-42.4088
  0
LINE
  8
0
 10
699.618
 20
-42.4088
 11
700.355
 21
-43.4227
  0
LINE
  8
0
 10
700.355
 20
-43.4227
 11
701.321
 21
-44.2216
  0
LINE
  8
0
 10
701.321
 20
-44.2216
 11
702.455
 21
-44.7553
  0
LINE
  8
0
 10
702.455
 20
-44.7553
 11
704
 21
-45
  0
LINE
  8
0
 10
704
 20
-45
 11
814
 21
-45
  0
LINE
  8
0
 10
814
 20
-45
 11
815.243
 21
-44.8429
  0
LINE
  8
0
 10
812.438
 20
36.0531
 11
811.723
 21
36.2855
  0
LINE
  8
0
 10
811.723
 20
36.2855
 11
811.088
 21
36.6885
  0
LINE
  8
0
 10
811.088
 20
36.6885
 11
810.573
 21
37.2366
  0
LINE
  8
0
 10
810.573
 20
37.2366
 11
810.211
 21
37.8956
  0
LINE
  8
0
 10
810.211
 20
37.8956
 11
810.024
 21
38.624
  0
LINE
  8
0
 10
810.024
 20
38.624
 11
810.024
 21
39.376
  0
LINE
  8
0
 10
810.024
 20
39.376
 11
810.211
 21
40.1044
  0
LINE
  8
0
 10
810.211
 20
40.1044
 11
810.573
 21
40.7634
  0
LINE
  8
0
 10
810.573
 20
40.7634
 11
811.088
 21
41.3115
  0
LINE
  8
0
 10
811.088
 20
41.3115
 11
811.723
 21
41.7145
  0
LINE
  8
0
 10
811.723
 20
41.7145
 11
812.438
 21
41.9469
  0
LINE
  8
0
 10
812.438
 20
41.9469
 11
813.188
 21
41.9941
  0
LINE
  8
0
 10
813.188
 20
41.9941
 11
813.927
 21
41.8532
  0
LINE
  8
0
 10
813.927
 20
41.8532
 11
814.607
 21
41.533
  0
LINE
  8
0
 10
814.607
 20
41.533
 11
815.187
 21
41.0536
  0
LINE
  8
0
 10
815.187
 20
41.0536
 11
815.629
 21
40.4453
  0
LINE
  8
0
 10
815.629
 20
40.4453
 11
815.906
 21
39.7461
  0
LINE
  8
0
 10
815.906
 20
39.7461
 11
816
 21
39
  0
LINE
  8
0
 10
816
 20
39
 11
815.906
 21
38.2539
  0
LINE
  8
0
 10
815.906
 20
38.2539
 11
815.629
 21
37.5547
  0
LINE
  8
0
 10
815.629
 20
37.5547
 11
815.187
 21
36.9464
  0
LINE
  8
0
 10
815.187
 20
36.9464
 11
814.607
 21
36.467
  0
LINE
  8
0
 10
814.607
 20
36.467
 11
813.927
 21
36.1468
  0
LINE
  8
0
 10
813.927
 20
36.1468
 11
813.188
 21
36.0059
  0
LINE
  8
0
 10
813.188
 20
36.0059
 11
812.438
 21
36.0531
  0
LINE
  8
0
 10
704.438
 20
36.0531
 11
703.723
 21
36.2855
  0
LINE
  8
0
 10
703.723
 20
36.2855
 11
703.088
 21
36.6885
  0
LINE
  8
0
 10
703.088
 20
36.6885
 11
702.573
 21
37.2366
  0
LINE
  8
0
 10
702.573
 20
37.2366
 11
702.211
 21
37.8956
  0
LINE
  8
0
 10
702.211
 20
37.8956
 11
702.024
 21
38.624
  0
LINE
  8
0
 10
702.024
 20
38.624
 11
702.024
 21
39.376
  0
LINE
  8
0
 10
702.024
 20
39.376
 11
702.211
 21
40.1044
  0
LINE
  8
0
 10
702.211
 20
40.1044
 11
702.573
 21
40.7634
  0
LINE
  8
0
 10
702.573
 20
40.7634
 11
703.088
 21
41.3115
  0
LINE
  8
0
 10
703.088
 20
41.3115
 11
703.723
 21
41.7145
  0
LINE
  8
0
 10
703.723
 20
41.7145
 11
704.438
 21
41.9469
  0
LINE
  8
0
 10
704.438
 20
41.9469
 11
705.188
 21
41.9941
  0
LINE
  8
0
 10
705.188
 20
41.9941
 11
705.927
 21
41.8532
  0
LINE
  8
0
 10
705.927
 20
41.8532
 11
706.607
 21
41.533
  0
LINE
  8
0
 10
706.607
 20
41.533
 11
707.187
 21
41.0536
  0
LINE
  8
0
 10
707.187
 20
41.0536
 11
707.629
 21
40.4453
  0
LINE
  8
0
 10
707.629
 20
40.4453
 11
707.906
 21
39.7461
  0
LINE
  8
0
 10
707.906
 20
39.7461
 11
708
 21
39
  0
LINE
  8
0
 10
708
 20
39
 11
707.906
 21
38.2539
  0
LINE
  8
0
 10
707.906
 20
38.2539
 11
707.629
 21
37.5547
  0
LINE
  8
0
 10
707.629
 20
37.5547
 11
707.187
 21
36.9464
  0
LINE
  8
0
 10
707.187
 20
36.9464
 11
706.607
 21
36.467
  0
LINE
  8
0
 10
706.607
 20
36.467
 11
705.927
 21
36.1468
  0
LINE
  8
0
 10
705.927
 20
36.1468
 11
705.188
 21
36.0059
  0
LINE
  8
0
 10
705.188
 20
36.0059
 11
704.438
 21
36.0531
  0
LINE
  8
0
 10
706
 20
-12.5
 11
706
 21
12.5
  0
LINE
  8
0
 10
706
 20
12.5
 11
731
 21
12.5
  0
LINE
  8
0
 10
731
 20
12.5
 11
731
 21
-12.5
  0
LINE
  8
0
 10
731
 20
-12.5
 11
706
 21
-12.5
  0
LINE
  8
0
 10
783.719
 20
-1.47342
 11
783.361
 21
-1.35724
  0
LINE
  8
0
 10
783.361
 20
-1.35724
 11
783.044
 21
-1.15576
  0
LINE
  8
0
 10
783.044
 20
-1.15576
 11
782.786
 21
-0.881668
  0
LINE
  8
0
 10
782.786
 20
-0.881668
 11
782.605
 21
-0.552185
  0
LINE
  8
0
 10
782.605
 20
-0.552185
 11
782.512
 21
-0.187988
  0
LINE
  8
0
 10
782.512
 20
-0.187988
 11
782.512
 21
0.187988
  0
LINE
  8
0
 10
782.512
 20
0.187988
 11
782.605
 21
0.552185
  0
LINE
  8
0
 10
782.605
 20
0.552185
 11
782.786
 21
0.881668
  0
LINE
  8
0
 10
782.786
 20
0.881668
 11
783.044
 21
1.15576
  0
LINE
  8
0
 10
783.044
 20
1.15576
 11
783.361
 21
1.35724
  0
LINE
  8
0
 10
783.361
 20
1.35724
 11
783.719
 21
1.47342
  0
LINE
  8
0
 10
783.719
 20
1.47342
 11
784.094
 21
1.49704
  0
LINE
  8
0
 10
784.094
 20
1.49704
 11
784.464
 21
1.42657
  0
LINE
  8
0
 10
784.464
 20
1.42657
 11
784.804
 21
1.26648
  0
LINE
  8
0
 10
784.804
 20
1.26648
 11
785.093
 21
1.02681
  0
LINE
  8
0
 10
785.093
 20
1.02681
 11
785.314
 21
0.722626
  0
LINE
  8
0
 10
785.314
 20
0.722626
 11
785.453
 21
0.373032
  0
LINE
  8
0
 10
785.453
 20
0.373032
 11
785.5
 21
0
  0
LINE
  8
0
 10
785.5
 20
0
 11
785.453
 21
-0.373032
  0
LINE
  8
0
 10
785.453
 20
-0.373032
 11
785.314
 21
-0.722626
  0
LINE
  8
0
 10
785.314
 20
-0.722626
 11
785.093
 21
-1.02681
  0
LINE
  8
0
 10
785.093
 20
-1.02681
 11
784.804
 21
-1.26648
  0
LINE
  8
0
 10
784.804
 20
-1.26648
 11
784.464
 21
-1.42657
  0
LINE
  8
0
 10
784.464
 20
-1.42657
 11
784.094
 21
-1.49704
  0
LINE
  8
0
 10
784.094
 20
-1.49704
 11
783.719
 21
-1.47342
  0
LINE
  8
0
 10
789.719
 20
-1.47342
 11
789.361
 21
-1.35724
  0
LINE
  8
0
 10
789.361
 20
-1.35724
 11
789.044
 21
-1.15576
  0
LINE
  8
0
 10
789.044
 20
-1.15576
 11
788.786
 21
-0.881668
  0
LINE
  8
0
 10
788.786
 20
-0.881668
 11
788.605
 21
-0.552185
  0
LINE
  8
0
 10
788.605
 20
-0.552185
 11
788.512
 21
-0.187988
  0
LINE
  8
0
 10
788.512
 20
-0.187988
 11
788.512
 21
0.187988
  0
LINE
  8
0
 10
788.512
 20
0.187988
 11
788.605
 21
0.552185
  0
LINE
  8
0
 10
788.605
 20
0.552185
 11
788.786
 21
0.881668
  0
LINE
  8
0
 10
788.786
 20
0.881668
 11
789.044
 21
1.15576
  0
LINE
  8
0
 10
789.044
 20
1.15576
 11
789.361
 21
1.35724
  0
LINE
  8
0
 10
789.361
 20
1.35724
 11
789.719
 21
1.47342
  0
LINE
  8
0
 10
789.719
 20
1.47342
 11
790.094
 21
1.49704
  0
LINE
  8
0
 10
790.094
 20
1.49704
 11
790.464
 21
1.42657
  0
LINE
  8
0
 10
790.464
 20
1.42657
 11
790.804
 21
1.26648
  0
LINE
  8
0
 10
790.804
 20
1.26648
 11
791.093
 21
1.02681
  0
LINE
  8
0
 10
791.093
 20
1.02681
 11
791.314
 21
0.722626
  0
LINE
  8
0
 10
791.314
 20
0.722626
 11
791.453
 21
0.373032
  0
LINE
  8
0
 10
791.453
 20
0.373032
 11
791.5
 21
0
  0
LINE
  8
0
 10
791.5
 20
0
 11
791.453
 21
-0.373032
  0
LINE
  8
0
 10
791.453
 20
-0.373032
 11
791.314
 21
-0.722626
  0
LINE
  8
0
 10
791.314
 20
-0.722626
 11
791.093
 21
-1.02681
  0
LINE
  8
0
 10
791.093
 20
-1.02681
 11
790.804
 21
-1.26648
  0
LINE
  8
0
 10
790.804
 20
-1.26648
 11
790.464
 21
-1.42657
  0
LINE
  8
0
 10
790.464
 20
-1.42657
 11
790.094
 21
-1.49704
  0
LINE
  8
0
 10
790.094
 20
-1.49704
 11
789.719
 21
-1.47342
  0
LINE
  8
0
 10
759.719
 20
-1.47342
 11
759.361
 21
-1.35724
  0
LINE
  8
0
 10
759.361
 20
-1.35724
 11
759.044
 21
-1.15576
  0
LINE
  8
0
 10
759.044
 20
-1.15576
 11
758.786
 21
-0.881668
  0
LINE
  8
0
 10
758.786
 20
-0.881668
 11
758.605
 21
-0.552185
  0
LINE
  8
0
 10
758.605
 20
-0.552185
 11
758.512
 21
-0.187988
  0
LINE
  8
0
 10
758.512
 20
-0.187988
 11
758.512
 21
0.187988
  0
LINE
  8
0
 10
758.512
 20
0.187988
 11
758.605
 21
0.552185
  0
LINE
  8
0
 10
758.605
 20
0.552185
 11
758.786
 21
0.881668
  0
LINE
  8
0
 10
758.786
 20
0.881668
 11
759.044
 21
1.15576
  0
LINE
  8
0
 10
759.044
 20
1.15576
 11
759.361
 21
1.35724
  0
LINE
  8
0
 10
759.361
 20
1.35724
 11
759.719
 21
1.47342
  0
LINE
  8
0
 10
759.719
 20
1.47342
 11
760.094
 21
1.49704
  0
LINE
  8
0
 10
760.094
 20
1.49704
 11
760.464
 21
1.42657
  0
LINE
  8
0
 10
760.464
 20
1.42657
 11
760.804
 21
1.26648
  0
LINE
  8
0
 10
760.804
 20
1.26648
 11
761.093
 21
1.02681
  0
LINE
  8
0
 10
761.093
 20
1.02681
 11
761.314
 21
0.722626
  0
LINE
  8
0
 10
761.314
 20
0.722626
 11
761.453
 21
0.373032
  0
LINE
  8
0
 10
761.453
 20
0.373032
 11
761.5
 21
0
  0
LINE
  8
0
 10
761.5
 20
0
 11
761.453
 21
-0.373032
  0
LINE
  8
0
 10
761.453
 20
-0.373032
 11
761.314
 21
-0.722626
  0
LINE
  8
0
 10
761.314
 20
-0.722626
 11
761.093
 21
-1.02681
  0
LINE
  8
0
 10
761.093
 20
-1.02681
 11
760.804
 21
-1.26648
  0
LINE
  8
0
 10
760.804
 20
-1.26648
 11
760.464
 21
-1.42657
  0
LINE
  8
0
 10
760.464
 20
-1.42657
 11
760.094
 21
-1.49704
  0
LINE
  8
0
 10
760.094
 20
-1.49704
 11
759.719
 21
-1.47342
  0
LINE
  8
0
 10
704.438
 20
-41.9469
 11
703.723
 21
-41.7145
  0
LINE
  8
0
 10
703.723
 20
-41.7145
 11
703.088
 21
-41.3115
  0
LINE
  8
0
 10
703.088
 20
-41.3115
 11
702.573
 21
-40.7634
  0
LINE
  8
0
 10
702.573
 20
-40.7634
 11
702.211
 21
-40.1044
  0
LINE
  8
0
 10
702.211
 20
-40.1044
 11
702.024
 21
-39.376
  0
LINE
  8
0
 10
702.024
 20
-39.376
 11
702.024
 21
-38.624
  0
LINE
  8
0
 10
702.024
 20
-38.624
 11
702.211
 21
-37.8956
  0
LINE
  8
0
 10
702.211
 20
-37.8956
 11
702.573
 21
-37.2366
  0
LINE
  8
0
 10
702.573
 20
-37.2366
 11
703.088
 21
-36.6885
  0
LINE
  8
0
 10
703.088
 20
-36.6885
 11
703.723
 21
-36.2855
  0
LINE
  8
0
 10
703.723
 20
-36.2855
 11
704.438
 21
-36.0531
  0
LINE
  8
0
 10
704.438
 20
-36.0531
 11
705.188
 21
-36.0059
  0
LINE
  8
0
 10
705.188
 20
-36.0059
 11
705.927
 21
-36.1468
  0
LINE
  8
0
 10
705.927
 20
-36.1468
 11
706.607
 21
-36.467
  0
LINE
  8
0
 10
706.607
 20
-36.467
 11
707.187
 21
-36.9464
  0
LINE
  8
0
 10
707.187
 20
-36.9464
 11
707.629
 21
-37.5547
  0
LINE
  8
0
 10
707.629
 20
-37.5547
 11
707.906
 21
-38.2539
  0
LINE
  8
0
 10
707.906
 20
-38.2539
 11
708
 21
-39
  0
LINE
  8
0
 10
708
 20
-39
 11
707.906
 21
-39.7461
  0
LINE
  8
0
 10
707.906
 20
-39.7461
 11
707.629
 21
-40.4453
  0
LINE
  8
0
 10
707.629
 20
-40.4453
 11
707.187
 21
-41.0536
  0
LINE
  8
0
 10
707.187
 20
-41.0536
 11
706.607
 21
-41.533
  0
LINE
  8
0
 10
706.607
 20
-41.533
 11
705.927
 21
-41.8532
  0
LINE
  8
0
 10
705.927
 20
-41.8532
 11
705.188
 21
-41.9941
  0
LINE
  8
0
 10
705.188
 20
-41.9941
 11
704.438
 21
-41.9469
  0
LINE
  8
0
 10
812.438
 20
-41.9469
 11
811.723
 21
-41.7145
  0
LINE
  8
0
 10
811.723
 20
-41.7145
 11
811.088
 21
-41.3115
  0
LINE
  8
0
 10
811.088
 20
-41.3115
 11
810.573
 21
-40.7634
  0
LINE
  8
0
 10
810.573
 20
-40.7634
 11
810.211
 21
-40.1044
  0
LINE
  8
0
 10
810.211
 20
-40.1044
 11
810.024
 21
-39.376
  0
LINE
  8
0
 10
810.024
 20
-39.376
 11
810.024
 21
-38.624
  0
LINE
  8
0
 10
810.024
 20
-38.624
 11
810.211
 21
-37.8956
  0
LINE
  8
0
 10
810.211
 20
-37.8956
 11
810.573
 21
-37.2366
  0
LINE
  8
0
 10
810.573
 20
-37.2366
 11
811.088
 21
-36.6885
  0
LINE
  8
0
 10
811.088
 20
-36.6885
 11
811.723
 21
-36.2855
  0
LINE
  8
0
 10
811.723
 20
-36.2855
 11
812.438
 21
-36.0531
  0
LINE
  8
0
 10
812.438
 20
-36.0531
 11
813.188
 21
-36.0059
  0
LINE
  8
0
 10
813.188
 20
-36.0059
 11
813.927
 21
-36.1468
  0
LINE
  8
0
 10
813.927
 20
-36.1468
 11
814.607
 21
-36.467
  0
LINE
  8
0
 10
814.607
 20
-36.467
 11
815.187
 21
-36.9464
  0
LINE
  8
0
 10
815.187
 20
-36.9464
 11
815.629
 21
-37.5547
  0
LINE
  8
0
 10
815.629
 20
-37.5547
 11
815.906
 21
-38.2539
  0
LINE
  8
0
 10
815.906
 20
-38.2539
 11
816
 21
-39
  0
LINE
  8
0
 10
816
 20
-39
 11
815.906
 21
-39.7461
  0
LINE
  8
0
 10
815.906
 20
-39.7461
 11
815.629
 21
-40.4453
  0
LINE
  8
0
 10
815.629
 20
-40.4453
 11
815.187
 21
-41.0536
  0
LINE
  8
0
 10
815.187
 20
-41.0536
 11
814.607
 21
-41.533
  0
LINE
  8
0
 10
814.607
 20
-41.533
 11
813.927
 21
-41.8532
  0
LINE
  8
0
 10
813.927
 20
-41.8532
 11
813.188
 21
-41.9941
  0
LINE
  8
0
 10
813.188
 20
-41.9941
 11
812.438
 21
-41.9469
  0
LINE
  8
0
 10
1585.24
 20
-44.8429
 11
1586.41
 21
-44.3815
  0
LINE
  8
0
 10
1586.41
 20
-44.3815
 11
1587.42
 21
-43.6448
  0
LINE
  8
0
 10
1587.42
 20
-43.6448
 11
1588.22
 21
-42.6791
  0
LINE
  8
0
 10
1588.22
 20
-42.6791
 11
1588.76
 21
-41.5451
  0
LINE
  8
0
 10
1588.76
 20
-41.5451
 11
1589
 21
-40
  0
LINE
  8
0
 10
1589
 20
-40
 11
1589
 21
40
  0
LINE
  8
0
 10
1589
 20
40
 11
1588.84
 21
41.2435
  0
LINE
  8
0
 10
1588.84
 20
41.2435
 11
1588.38
 21
42.4088
  0
LINE
  8
0
 10
1588.38
 20
42.4088
 11
1587.64
 21
43.4227
  0
LINE
  8
0
 10
1587.64
 20
43.4227
 11
1586.68
 21
44.2216
  0
LINE
  8
0
 10
1586.68
 20
44.2216
 11
1585.55
 21
44.7553
  0
LINE
  8
0
 10
1585.55
 20
44.7553
 11
1584
 21
45
  0
LINE
  8
0
 10
1584
 20
45
 11
1474
 21
45
  0
LINE
  8
0
 10
1474
 20
45
 11
1472.76
 21
44.8429
  0
LINE
  8
0
 10
1472.76
 20
44.8429
 11
1471.59
 21
44.3815
  0
LINE
  8
0
 10
1471.59
 20
44.3815
 11
1470.58
 21
43.6448
  0
LINE
  8
0
 10
1470.58
 20
43.6448
 11
1469.78
 21
42.6791
  0
LINE
  8
0
 10
1469.78
 20
42.6791
 11
1469.24
 21
41.5451
  0
LINE
  8
0
 10
1469.24
 20
41.5451
 11
1469
 21
40
  0
LINE
  8
0
 10
1469
 20
40
 11
1469
 21
34
  0
LINE
  8
0
 10
1469
 20
34
 11
1580
 21
34
  0
LINE
  8
0
 10
1580
 20
34
 11
1580
 21
-34
  0
LINE
  8
0
 10
1580
 20
-34
 11
1469
 21
-34
  0
LINE
  8
0
 10
1469
 20
-34
 11
1469
 21
-40
  0
LINE
  8
0
 10
1469
 20
-40
 11
1469.16
 21
-41.2435
  0
LINE
  8
0
 10
1469.16
 20
-41.2435
 11
1469.62
 21
-42.4088
  0
LINE
  8
0
 10
1469.62
 20
-42.4088
 11
1470.36
 21
-43.4227
  0
LINE
  8
0
 10
1470.36
 20
-43.4227
 11
1471.32
 21
-44.2216
  0
LINE
  8
0
 10
1471.32
 20
-44.2216
 11
1472.45
 21
-44.7553
  0
LINE
  8
0
 10
1472.45
 20
-44.7553
 11
1474
 21
-45
  0
LINE
  8
0
 10
1474
 20
-45
 11
1584
 21
-45
  0
LINE
  8
0
 10
1584
 20
-45
 11
1585.24
 21
-44.8429
  0
LINE
  8
0
 10
1474.44
 20
36.0531
 11
1473.72
 21
36.2855
  0
LINE
  8
0
 10
1473.72
 20
36.2855
 11
1473.09
 21
36.6885
  0
LINE
  8
0
 10
1473.09
 20
36.6885
 11
1472.57
 21
37.2366
  0
LINE
  8
0
 10
1472.57
 20
37.2366
 11
1472.21
 21
37.8956
  0
LINE
  8
0
 10
1472.21
 20
37.8956
 11
1472.02
 21
38.624
  0
LINE
  8
0
 10
1472.02
 20
38.624
 11
1472.02
 21
39.376
  0
LINE
  8
0
 10
1472.02
 20
39.376
 11
1472.21
 21
40.1044
  0
LINE
  8
0
 10
1472.21
 20
40.1044
 11
1472.57
 21
40.7634
  0
LINE
  8
0
 10
1472.57
 20
40.7634
 11
1473.09
 21
41.3115
  0
LINE
  8
0
 10
1473.09
 20
41.3115
 11
1473.72
 21
41.7145
  0
LINE
  8
0
 10
1473.72
 20
41.7145
 11
1474.44
 21
41.9469
  0
LINE
  8
0
 10
1474.44
 20
41.9469
 11
1475.19
 21
41.9941
  0
LINE
  8
0
 10
1475.19
 20
41.9941
 11
1475.93
 21
41.8532
  0
LINE
  8
0
 10
1475.93
 20
41.8532
 11
1476.61
 21
41.533
  0
LINE
  8
0
 10
1476.61
 20
41.533
 11
1477.19
 21
41.0536
  0
LINE
  8
0
 10
1477.19
 20
41.0536
 11
1477.63
 21
40.4453
  0
LINE
  8
0
 10
1477.63
 20
40.4453
 11
1477.91
 21
39.7461
  0
LINE
  8
0
 10
1477.91
 20
39.7461
 11
1478
 21
39
  0
LINE
  8
0
 10
1478
 20
39
 11
1477.91
 21
38.2539
  0
LINE
  8
0
 10
1477.91
 20
38.2539
 11
1477.63
 21
37.5547
  0
LINE
  8
0
 10
1477.63
 20
37.5547
 11
1477.19
 21
36.9464
  0
LINE
  8
0
 10
1477.19
 20
36.9464
 11
1476.61
 21
36.467
  0
LINE
  8
0
 10
1476.61
 20
36.467
 11
1475.93
 21
36.1468
  0
LINE
  8
0
 10
1475.93
 20
36.1468
 11
1475.19
 21
36.0059
  0
LINE
  8
0
 10
1475.19
 20
36.0059
 11
1474.44
 21
36.0531
  0
LINE
  8
0
 10
1582.44
 20
36.0531
 11
1581.72
 21
36.2855
  0
LINE
  8
0
 10
1581.72
 20
36.2855
 11
1581.09
 21
36.6885
  0
LINE
  8
0
 10
1581.09
 20
36.6885
 11
1580.57
 21
37.2366
  0
LINE
  8
0
 10
1580.57
 20
37.2366
 11
1580.21
 21
37.8956
  0
LINE
  8
0
 10
1580.21
 20
37.8956
 11
1580.02
 21
38.624
  0
LINE
  8
0
 10
1580.02
 20
38.624
 11
1580.02
 21
39.376
  0
LINE
  8
0
 10
1580.02
 20
39.376
 11
1580.21
 21
40.1044
  0
LINE
  8
0
 10
1580.21
 20
40.1044
 11
1580.57
 21
40.7634
  0
LINE
  8
0
 10
1580.57
 20
40.7634
 11
1581.09
 21
41.3115
  0
LINE
  8
0
 10
1581.09
 20
41.3115
 11
1581.72
 21
41.7145
  0
LINE
  8
0
 10
1581.72
 20
41.7145
 11
1582.44
 21
41.9469
  0
LINE
  8
0
 10
1582.44
 20
41.9469
 11
1583.19
 21
41.9941
  0
LINE
  8
0
 10
1583.19
 20
41.9941
 11
1583.93
 21
41.8532
  0
LINE
  8
0
 10
1583.93
 20
41.8532
 11
1584.61
 21
41.533
  0
LINE
  8
0
 10
1584.61
 20
41.533
 11
1585.19
 21
41.0536
  0
LINE
  8
0
 10
1585.19
 20
41.0536
 11
1585.63
 21
40.4453
  0
LINE
  8
0
 10
1585.63
 20
40.4453
 11
1585.91
 21
39.7461
  0
LINE
  8
0
 10
1585.91
 20
39.7461
 11
1586
 21
39
  0
LINE
  8
0
 10
1586
 20
39
 11
1585.91
 21
38.2539
  0
LINE
  8
0
 10
1585.91
 20
38.2539
 11
1585.63
 21
37.5547
  0
LINE
  8
0
 10
1585.63
 20
37.5547
 11
1585.19
 21
36.9464
  0
LINE
  8
0
 10
1585.19
 20
36.9464
 11
1584.61
 21
36.467
  0
LINE
  8
0
 10
1584.61
 20
36.467
 11
1583.93
 21
36.1468
  0
LINE
  8
0
 10
1583.93
 20
36.1468
 11
1583.19
 21
36.0059
  0
LINE
  8
0
 10
1583.19
 20
36.0059
 11
1582.44
 21
36.0531
  0
LINE
  8
0
 10
1474.44
 20
-41.9469
 11
1473.72
 21
-41.7145
  0
LINE
  8
0
 10
1473.72
 20
-41.7145
 11
1473.09
 21
-41.3115
  0
LINE
  8
0
 10
1473.09
 20
-41.3115
 11
1472.57
 21
-40.7634
  0
LINE
  8
0
 10
1472.57
 20
-40.7634
 11
1472.21
 21
-40.1044
  0
LINE
  8
0
 10
1472.21
 20
-40.1044
 11
1472.02
 21
-39.376
  0
LINE
  8
0
 10
1472.02
 20
-39.376
 11
1472.02
 21
-38.624
  0
LINE
  8
0
 10
1472.02
 20
-38.624
 11
1472.21
 21
-37.8956
  0
LINE
  8
0
 10
1472.21
 20
-37.8956
 11
1472.57
 21
-37.2366
  0
LINE
  8
0
 10
1472.57
 20
-37.2366
 11
1473.09
 21
-36.6885
  0
LINE
  8
0
 10
1473.09
 20
-36.6885
 11
1473.72
 21
-36.2855
  0
LINE
  8
0
 10
1473.72
 20
-36.2855
 11
1474.44
 21
-36.0531
  0
LINE
  8
0
 10
1474.44
 20
-36.0531
 11
1475.19
 21
-36.0059
  0
LINE
  8
0
 10
1475.19
 20
-36.0059
 11
1475.93
 21
-36.1468
  0
LINE
  8
0
 10
1475.93
 20
-36.1468
 11
1476.61
 21
-36.467
  0
LINE
  8
0
 10
1476.61
 20
-36.467
 11
1477.19
 21
-36.9464
  0
LINE
  8
0
 10
1477.19
 20
-36.9464
 11
1477.63
 21
-37.5547
  0
LINE
  8
0
 10
1477.63
 20
-37.5547
 11
1477.91
 21
-38.2539
  0
LINE
  8
0
 10
1477.91
 20
-38.2539
 11
1478
 21
-39
  0
LINE
  8
0
 10
1478
 20
-39
 11
1477.91
 21
-39.7461
  0
LINE
  8
0
 10
1477.91
 20
-39.7461
 11
1477.63
 21
-40.4453
  0
LINE
  8
0
 10
1477.63
 20
-40.4453
 11
1477.19
 21
-41.0536
  0
LINE
  8
0
 10
1477.19
 20
-41.0536
 11
1476.61
 21
-41.533
  0
LINE
  8
0
 10
1476.61
 20
-41.533
 11
1475.93
 21
-41.8532
  0
LINE
  8
0
 10
1475.93
 20
-41.8532
 11
1475.19
 21
-41.9941
  0
LINE
  8
0
 10
1475.19
 20
-41.9941
 11
1474.44
 21
-41.9469
  0
LINE
  8
0
 10
1582.44
 20
-41.9469
 11
1581.72
 21
-41.7145
  0
LINE
  8
0
 10
1581.72
 20
-41.7145
 11
1581.09
 21
-41.3115
  0
LINE
  8
0
 10
1581.09
 20
-41.3115
 11
1580.57
 21
-40.7634
  0
LINE
  8
0
 10
1580.57
 20
-40.7634
 11
1580.21
 21
-40.1044
  0
LINE
  8
0
 10
1580.21
 20
-40.1044
 11
1580.02
 21
-39.376
  0
LINE
  8
0
 10
1580.02
 20
-39.376
 11
1580.02
 21
-38.624
  0
LINE
  8
0
 10
1580.02
 20
-38.624
 11
1580.21
 21
-37.8956
  0
LINE
  8
0
 10
1580.21
 20
-37.8956
 11
1580.57
 21
-37.2366
  0
LINE
  8
0
 10
1580.57
 20
-37.2366
 11
1581.09
 21
-36.6885
  0
LINE
  8
0
 10
1581.09
 20
-36.6885
 11
1581.72
 21
-36.2855
  0
LINE
  8
0
 10
1581.72
 20
-36.2855
 11
1582.44
 21
-36.0531
  0
LINE
  8
0
 10
1582.44
 20
-36.0531
 11
1583.19
 21
-36.0059
  0
LINE
  8
0
 10
1583.19
 20
-36.0059
 11
1583.93
 21
-36.1468
  0
LINE
  8
0
 10
1583.93
 20
-36.1468
 11
1584.61
 21
-36.467
  0
LINE
  8
0
 10
1584.61
 20
-36.467
 11
1585.19
 21
-36.9464
  0
LINE
  8
0
 10
1585.19
 20
-36.9464
 11
1585.63
 21
-37.5547
  0
LINE
  8
0
 10
1585.63
 20
-37.5547
 11
1585.91
 21
-38.2539
  0
LINE
  8
0
 10
1585.91
 20
-38.2539
 11
1586
 21
-39
  0
LINE
  8
0
 10
1586
 20
-39
 11
1585.91
 21
-39.7461
  0
LINE
  8
0
 10
1585.91
 20
-39.7461
 11
1585.63
 21
-40.4453
  0
LINE
  8
0
 10
1585.63
 20
-40.4453
 11
1585.19
 21
-41.0536
  0
LINE
  8
0
 10
1585.19
 20
-41.0536
 11
1584.61
 21
-41.533
  0
LINE
  8
0
 10
1584.61
 20
-41.533
 11
1583.93
 21
-41.8532
  0
LINE
  8
0
 10
1583.93
 20
-41.8532
 11
1583.19
 21
-41.9941
  0
LINE
  8
0
 10
1583.19
 20
-41.9941
 11
1582.44
 21
-41.9469
  0
LINE
  8
0
 10
1708.24
 20
-44.8429
 11
1709.41
 21
-44.3815
  0
LINE
  8
0
 10
1709.41
 20
-44.3815
 11
1710.42
 21
-43.6448
  0
LINE
  8
0
 10
1710.42
 20
-43.6448
 11
1711.22
 21
-42.6791
  0
LINE
  8
0
 10
1711.22
 20
-42.6791
 11
1711.76
 21
-41.5451
  0
LINE
  8
0
 10
1711.76
 20
-41.5451
 11
1712
 21
-40
  0
LINE
  8
0
 10
1712
 20
-40
 11
1712
 21
40
  0
LINE
  8
0
 10
1712
 20
40
 11
1711.84
 21
41.2435
  0
LINE
  8
0
 10
1711.84
 20
41.2435
 11
1711.38
 21
42.4088
  0
LINE
  8
0
 10
1711.38
 20
42.4088
 11
1710.64
 21
43.4227
  0
LINE
  8
0
 10
1710.64
 20
43.4227
 11
1709.68
 21
44.2216
  0
LINE
  8
0
 10
1709.68
 20
44.2216
 11
1708.55
 21
44.7553
  0
LINE
  8
0
 10
1708.55
 20
44.7553
 11
1707
 21
45
  0
LINE
  8
0
 10
1707
 20
45
 11
1597
 21
45
  0
LINE
  8
0
 10
1597
 20
45
 11
1595.76
 21
44.8429
  0
LINE
  8
0
 10
1595.76
 20
44.8429
 11
1594.59
 21
44.3815
  0
LINE
  8
0
 10
1594.59
 20
44.3815
 11
1593.58
 21
43.6448
  0
LINE
  8
0
 10
1593.58
 20
43.6448
 11
1592.78
 21
42.6791
  0
LINE
  8
0
 10
1592.78
 20
42.6791
 11
1592.24
 21
41.5451
  0
LINE
  8
0
 10
1592.24
 20
41.5451
 11
1592
 21
40
  0
LINE
  8
0
 10
1592
 20
40
 11
1592
 21
29
  0
LINE
  8
0
 10
1592
 20
29
 11
1642
 21
29
  0
LINE
  8
0
 10
1642
 20
29
 11
1642
 21
27
  0
LINE
  8
0
 10
1642
 20
27
 11
1592
 21
27
  0
LINE
  8
0
 10
1592
 20
27
 11
1592
 21
22.5
  0
LINE
  8
0
 10
1592
 20
22.5
 11
1607
 21
22.5
  0
LINE
  8
0
 10
1607
 20
22.5
 11
1607
 21
12.5
  0
LINE
  8
0
 10
1607
 20
12.5
 11
1607.99
 21
12.5
  0
LINE
  8
0
 10
1607.99
 20
12.5
 11
1607.99
 21
13.005
  0
LINE
  8
0
 10
1607.99
 20
13.005
 11
1608.09
 21
13.623
  0
LINE
  8
0
 10
1608.09
 20
13.623
 11
1608.31
 21
14.0766
  0
LINE
  8
0
 10
1608.31
 20
14.0766
 11
1608.63
 21
14.4629
  0
LINE
  8
0
 10
1608.63
 20
14.4629
 11
1609.03
 21
14.7576
  0
LINE
  8
0
 10
1609.03
 20
14.7576
 11
1609.5
 21
14.9422
  0
LINE
  8
0
 10
1609.5
 20
14.9422
 11
1609.99
 21
15.005
  0
LINE
  8
0
 10
1609.99
 20
15.005
 11
1693.01
 21
15.005
  0
LINE
  8
0
 10
1693.01
 20
15.005
 11
1693.62
 21
14.9071
  0
LINE
  8
0
 10
1693.62
 20
14.9071
 11
1694.08
 21
14.6936
  0
LINE
  8
0
 10
1694.08
 20
14.6936
 11
1694.46
 21
14.3741
  0
LINE
  8
0
 10
1694.46
 20
14.3741
 11
1694.76
 21
13.9685
  0
LINE
  8
0
 10
1694.76
 20
13.9685
 11
1694.94
 21
13.5024
  0
LINE
  8
0
 10
1694.94
 20
13.5024
 11
1695.01
 21
13.005
  0
LINE
  8
0
 10
1695.01
 20
13.005
 11
1695.01
 21
-13.005
  0
LINE
  8
0
 10
1695.01
 20
-13.005
 11
1694.91
 21
-13.623
  0
LINE
  8
0
 10
1694.91
 20
-13.623
 11
1694.69
 21
-14.0766
  0
LINE
  8
0
 10
1694.69
 20
-14.0766
 11
1694.37
 21
-14.4629
  0
LINE
  8
0
 10
1694.37
 20
-14.4629
 11
1693.97
 21
-14.7576
  0
LINE
  8
0
 10
1693.97
 20
-14.7576
 11
1693.5
 21
-14.9422
  0
LINE
  8
0
 10
1693.5
 20
-14.9422
 11
1693.01
 21
-15.005
  0
LINE
  8
0
 10
1693.01
 20
-15.005
 11
1678.99
 21
-15.005
  0
LINE
  8
0
 10
1678.99
 20
-15.005
 11
1678.38
 21
-14.9071
  0
LINE
  8
0
 10
1678.38
 20
-14.9071
 11
1677.92
 21
-14.6936
  0
LINE
  8
0
 10
1677.92
 20
-14.6936
 11
1677.54
 21
-14.3741
  0
LINE
  8
0
 10
1677.54
 20
-14.3741
 11
1677.24
 21
-13.9685
  0
LINE
  8
0
 10
1677.24
 20
-13.9685
 11
1677.06
 21
-13.5024
  0
LINE
  8
0
 10
1677.06
 20
-13.5024
 11
1676.99
 21
-13.005
  0
LINE
  8
0
 10
1676.99
 20
-13.005
 11
1676.99
 21
-5.99501
  0
LINE
  8
0
 10
1676.99
 20
-5.99501
 11
1677.09
 21
-5.37698
  0
LINE
  8
0
 10
1677.09
 20
-5.37698
 11
1677.31
 21
-4.92336
  0
LINE
  8
0
 10
1677.31
 20
-4.92336
 11
1677.63
 21
-4.53708
  0
LINE
  8
0
 10
1677.63
 20
-4.53708
 11
1678.03
 21
-4.2424
  0
LINE
  8
0
 10
1678.03
 20
-4.2424
 11
1678.5
 21
-4.05785
  0
LINE
  8
0
 10
1678.5
 20
-4.05785
 11
1678.99
 21
-3.99501
  0
LINE
  8
0
 10
1678.99
 20
-3.99501
 11
1685.99
 21
-3.99501
  0
LINE
  8
0
 10
1685.99
 20
-3.99501
 11
1685.99
 21
3.99501
  0
LINE
  8
0
 10
1685.99
 20
3.99501
 11
1659.51
 21
3.99501
  0
LINE
  8
0
 10
1659.51
 20
3.99501
 11
1659.51
 21
-8.00499
  0
LINE
  8
0
 10
1659.51
 20
-8.00499
 11
1659.41
 21
-8.62302
  0
LINE
  8
0
 10
1659.41
 20
-8.62302
 11
1659.19
 21
-9.07664
  0
LINE
  8
0
 10
1659.19
 20
-9.07664
 11
1658.87
 21
-9.46292
  0
LINE
  8
0
 10
1658.87
 20
-9.46292
 11
1658.47
 21
-9.7576
  0
LINE
  8
0
 10
1658.47
 20
-9.7576
 11
1658
 21
-9.94215
  0
LINE
  8
0
 10
1658
 20
-9.94215
 11
1657.51
 21
-10.005
  0
LINE
  8
0
 10
1657.51
 20
-10.005
 11
1656.49
 21
-10.005
  0
LINE
  8
0
 10
1656.49
 20
-10.005
 11
1655.88
 21
-9.9071
  0
LINE
  8
0
 10
1655.88
 20
-9.9071
 11
1655.42
 21
-9.69365
  0
LINE
  8
0
 10
1655.42
 20
-9.69365
 11
1655.04
 21
-9.37408
  0
LINE
  8
0
 10
1655.04
 20
-9.37408
 11
1654.74
 21
-8.96849
  0
LINE
  8
0
 10
1654.74
 20
-8.96849
 11
1654.56
 21
-8.50237
  0
LINE
  8
0
 10
1654.56
 20
-8.50237
 11
1654.49
 21
-8.00499
  0
LINE
  8
0
 10
1654.49
 20
-8.00499
 11
1654.49
 21
-2.30412
  0
LINE
  8
0
 10
1654.49
 20
-2.30412
 11
1654.47
 21
-2.3219
  0
LINE
  8
0
 10
1654.47
 20
-2.3219
 11
1653.85
 21
-2.6154
  0
LINE
  8
0
 10
1653.85
 20
-2.6154
 11
1653.17
 21
-2.74457
  0
LINE
  8
0
 10
1653.17
 20
-2.74457
 11
1652.48
 21
-2.70128
  0
LINE
  8
0
 10
1652.48
 20
-2.70128
 11
1651.83
 21
-2.48827
  0
LINE
  8
0
 10
1651.83
 20
-2.48827
 11
1651.25
 21
-2.1189
  0
LINE
  8
0
 10
1651.25
 20
-2.1189
 11
1650.78
 21
-1.61641
  0
LINE
  8
0
 10
1650.78
 20
-1.61641
 11
1650.44
 21
-1.01233
  0
LINE
  8
0
 10
1650.44
 20
-1.01233
 11
1650.27
 21
-0.344666
  0
LINE
  8
0
 10
1650.27
 20
-0.344666
 11
1650.27
 21
0.344666
  0
LINE
  8
0
 10
1650.27
 20
0.344666
 11
1650.44
 21
1.01233
  0
LINE
  8
0
 10
1650.44
 20
1.01233
 11
1650.78
 21
1.61641
  0
LINE
  8
0
 10
1650.78
 20
1.61641
 11
1651.25
 21
2.1189
  0
LINE
  8
0
 10
1651.25
 20
2.1189
 11
1651.83
 21
2.48827
  0
LINE
  8
0
 10
1651.83
 20
2.48827
 11
1652.48
 21
2.70128
  0
LINE
  8
0
 10
1652.48
 20
2.70128
 11
1653.17
 21
2.74457
  0
LINE
  8
0
 10
1653.17
 20
2.74457
 11
1653.85
 21
2.6154
  0
LINE
  8
0
 10
1653.85
 20
2.6154
 11
1654.47
 21
2.3219
  0
LINE
  8
0
 10
1654.47
 20
2.3219
 11
1654.49
 21
2.30412
  0
LINE
  8
0
 10
1654.49
 20
2.30412
 11
1654.49
 21
3.99501
  0
LINE
  8
0
 10
1654.49
 20
3.99501
 11
1624
 21
3.99501
  0
LINE
  8
0
 10
1624
 20
3.99501
 11
1624
 21
-3.99501
  0
LINE
  8
0
 10
1624
 20
-3.99501
 11
1646.01
 21
-3.99501
  0
LINE
  8
0
 10
1646.01
 20
-3.99501
 11
1646.62
 21
-4.0929
  0
LINE
  8
0
 10
1646.62
 20
-4.0929
 11
1647.08
 21
-4.30635
  0
LINE
  8
0
 10
1647.08
 20
-4.30635
 11
1647.46
 21
-4.62592
  0
LINE
  8
0
 10
1647.46
 20
-4.62592
 11
1647.76
 21
-5.03151
  0
LINE
  8
0
 10
1647.76
 20
-5.03151
 11
1647.94
 21
-5.49763
  0
LINE
  8
0
 10
1647.94
 20
-5.49763
 11
1648.01
 21
-5.99501
  0
LINE
  8
0
 10
1648.01
 20
-5.99501
 11
1648.01
 21
-13.005
  0
LINE
  8
0
 10
1648.01
 20
-13.005
 11
1647.91
 21
-13.623
  0
LINE
  8
0
 10
1647.91
 20
-13.623
 11
1647.69
 21
-14.0766
  0
LINE
  8
0
 10
1647.69
 20
-14.0766
 11
1647.37
 21
-14.4629
  0
LINE
  8
0
 10
1647.37
 20
-14.4629
 11
1646.97
 21
-14.7576
  0
LINE
  8
0
 10
1646.97
 20
-14.7576
 11
1646.5
 21
-14.9422
  0
LINE
  8
0
 10
1646.5
 20
-14.9422
 11
1646.01
 21
-15.005
  0
LINE
  8
0
 10
1646.01
 20
-15.005
 11
1609.99
 21
-15.005
  0
LINE
  8
0
 10
1609.99
 20
-15.005
 11
1609.38
 21
-14.9071
  0
LINE
  8
0
 10
1609.38
 20
-14.9071
 11
1608.92
 21
-14.6936
  0
LINE
  8
0
 10
1608.92
 20
-14.6936
 11
1608.54
 21
-14.3741
  0
LINE
  8
0
 10
1608.54
 20
-14.3741
 11
1608.24
 21
-13.9685
  0
LINE
  8
0
 10
1608.24
 20
-13.9685
 11
1608.06
 21
-13.5024
  0
LINE
  8
0
 10
1608.06
 20
-13.5024
 11
1607.99
 21
-13.005
  0
LINE
  8
0
 10
1607.99
 20
-13.005
 11
1607.99
 21
-12.5
  0
LINE
  8
0
 10
1607.99
 20
-12.5
 11
1607
 21
-12.5
  0
LINE
  8
0
 10
1607
 20
-12.5
 11
1607
 21
-22.5
  0
LINE
  8
0
 10
1607
 20
-22.5
 11
1592
 21
-22.5
  0
LINE
  8
0
 10
1592
 20
-22.5
 11
1592
 21
-27
  0
LINE
  8
0
 10
1592
 20
-27
 11
1642
 21
-27
  0
LINE
  8
0
 10
1642
 20
-27
 11
1642
 21
-29
  0
LINE
  8
0
 10
1642
 20
-29
 11
1592
 21
-29
  0
LINE
  8
0
 10
1592
 20
-29
 11
1592
 21
-40
  0
LINE
  8
0
 10
1592
 20
-40
 11
1592.16
 21
-41.2435
  0
LINE
  8
0
 10
1592.16
 20
-41.2435
 11
1592.62
 21
-42.4088
  0
LINE
  8
0
 10
1592.62
 20
-42.4088
 11
1593.36
 21
-43.4227
  0
LINE
  8
0
 10
1593.36
 20
-43.4227
 11
1594.32
 21
-44.2216
  0
LINE
  8
0
 10
1594.32
 20
-44.2216
 11
1595.45
 21
-44.7553
  0
LINE
  8
0
 10
1595.45
 20
-44.7553
 11
1597
 21
-45
  0
LINE
  8
0
 10
1597
 20
-45
 11
1707
 21
-45
  0
LINE
  8
0
 10
1707
 20
-45
 11
1708.24
 21
-44.8429
  0
LINE
  8
0
 10
1597.44
 20
36.0531
 11
1596.72
 21
36.2855
  0
LINE
  8
0
 10
1596.72
 20
36.2855
 11
1596.09
 21
36.6885
  0
LINE
  8
0
 10
1596.09
 20
36.6885
 11
1595.57
 21
37.2366
  0
LINE
  8
0
 10
1595.57
 20
37.2366
 11
1595.21
 21
37.8956
  0
LINE
  8
0
 10
1595.21
 20
37.8956
 11
1595.02
 21
38.624
  0
LINE
  8
0
 10
1595.02
 20
38.624
 11
1595.02
 21
39.376
  0
LINE
  8
0
 10
1595.02
 20
39.376
 11
1595.21
 21
40.1044
  0
LINE
  8
0
 10
1595.21
 20
40.1044
 11
1595.57
 21
40.7634
  0
LINE
  8
0
 10
1595.57
 20
40.7634
 11
1596.09
 21
41.3115
  0
LINE
  8
0
 10
1596.09
 20
41.3115
 11
1596.72
 21
41.7145
  0
LINE
  8
0
 10
1596.72
 20
41.7145
 11
1597.44
 21
41.9469
  0
LINE
  8
0
 10
1597.44
 20
41.9469
 11
1598.19
 21
41.9941
  0
LINE
  8
0
 10
1598.19
 20
41.9941
 11
1598.93
 21
41.8532
  0
LINE
  8
0
 10
1598.93
 20
41.8532
 11
1599.61
 21
41.533
  0
LINE
  8
0
 10
1599.61
 20
41.533
 11
1600.19
 21
41.0536
  0
LINE
  8
0
 10
1600.19
 20
41.0536
 11
1600.63
 21
40.4453
  0
LINE
  8
0
 10
1600.63
 20
40.4453
 11
1600.91
 21
39.7461
  0
LINE
  8
0
 10
1600.91
 20
39.7461
 11
1601
 21
39
  0
LINE
  8
0
 10
1601
 20
39
 11
1600.91
 21
38.2539
  0
LINE
  8
0
 10
1600.91
 20
38.2539
 11
1600.63
 21
37.5547
  0
LINE
  8
0
 10
1600.63
 20
37.5547
 11
1600.19
 21
36.9464
  0
LINE
  8
0
 10
1600.19
 20
36.9464
 11
1599.61
 21
36.467
  0
LINE
  8
0
 10
1599.61
 20
36.467
 11
1598.93
 21
36.1468
  0
LINE
  8
0
 10
1598.93
 20
36.1468
 11
1598.19
 21
36.0059
  0
LINE
  8
0
 10
1598.19
 20
36.0059
 11
1597.44
 21
36.0531
  0
LINE
  8
0
 10
1705.44
 20
36.0531
 11
1704.72
 21
36.2855
  0
LINE
  8
0
 10
1704.72
 20
36.2855
 11
1704.09
 21
36.6885
  0
LINE
  8
0
 10
1704.09
 20
36.6885
 11
1703.57
 21
37.2366
  0
LINE
  8
0
 10
1703.57
 20
37.2366
 11
1703.21
 21
37.8956
  0
LINE
  8
0
 10
1703.21
 20
37.8956
 11
1703.02
 21
38.624
  0
LINE
  8
0
 10
1703.02
 20
38.624
 11
1703.02
 21
39.376
  0
LINE
  8
0
 10
1703.02
 20
39.376
 11
1703.21
 21
40.1044
  0
LINE
  8
0
 10
1703.21
 20
40.1044
 11
1703.57
 21
40.7634
  0
LINE
  8
0
 10
1703.57
 20
40.7634
 11
1704.09
 21
41.3115
  0
LINE
  8
0
 10
1704.09
 20
41.3115
 11
1704.72
 21
41.7145
  0
LINE
  8
0
 10
1704.72
 20
41.7145
 11
1705.44
 21
41.9469
  0
LINE
  8
0
 10
1705.44
 20
41.9469
 11
1706.19
 21
41.9941
  0
LINE
  8
0
 10
1706.19
 20
41.9941
 11
1706.93
 21
41.8532
  0
LINE
  8
0
 10
1706.93
 20
41.8532
 11
1707.61
 21
41.533
  0
LINE
  8
0
 10
1707.61
 20
41.533
 11
1708.19
 21
41.0536
  0
LINE
  8
0
 10
1708.19
 20
41.0536
 11
1708.63
 21
40.4453
  0
LINE
  8
0
 10
1708.63
 20
40.4453
 11
1708.91
 21
39.7461
  0
LINE
  8
0
 10
1708.91
 20
39.7461
 11
1709
 21
39
  0
LINE
  8
0
 10
1709
 20
39
 11
1708.91
 21
38.2539
  0
LINE
  8
0
 10
1708.91
 20
38.2539
 11
1708.63
 21
37.5547
  0
LINE
  8
0
 10
1708.63
 20
37.5547
 11
1708.19
 21
36.9464
  0
LINE
  8
0
 10
1708.19
 20
36.9464
 11
1707.61
 21
36.467
  0
LINE
  8
0
 10
1707.61
 20
36.467
 11
1706.93
 21
36.1468
  0
LINE
  8
0
 10
1706.93
 20
36.1468
 11
1706.19
 21
36.0059
  0
LINE
  8
0
 10
1706.19
 20
36.0059
 11
1705.44
 21
36.0531
  0
LINE
  8
0
 10
1682.48
 20
-2.70128
 11
1681.83
 21
-2.48827
  0
LINE
  8
0
 10
1681.83
 20
-2.48827
 11
1681.25
 21
-2.1189
  0
LINE
  8
0
 10
1681.25
 20
-2.1189
 11
1680.78
 21
-1.61641
  0
LINE
  8
0
 10
1680.78
 20
-1.61641
 11
1680.44
 21
-1.01233
  0
LINE
  8
0
 10
1680.44
 20
-1.01233
 11
1680.27
 21
-0.344666
  0
LINE
  8
0
 10
1680.27
 20
-0.344666
 11
1680.27
 21
0.344666
  0
LINE
  8
0
 10
1680.27
 20
0.344666
 11
1680.44
 21
1.01233
  0
LINE
  8
0
 10
1680.44
 20
1.01233
 11
1680.78
 21
1.61641
  0
LINE
  8
0
 10
1680.78
 20
1.61641
 11
1681.25
 21
2.1189
  0
LINE
  8
0
 10
1681.25
 20
2.1189
 11
1681.83
 21
2.48827
  0
LINE
  8
0
 10
1681.83
 20
2.48827
 11
1682.48
 21
2.70128
  0
LINE
  8
0
 10
1682.48
 20
2.70128
 11
1683.17
 21
2.74457
  0
LINE
  8
0
 10
1683.17
 20
2.74457
 11
1683.85
 21
2.6154
  0
LINE
  8
0
 10
1683.85
 20
2.6154
 11
1684.47
 21
2.3219
  0
LINE
  8
0
 10
1684.47
 20
2.3219
 11
1685
 21
1.88249
  0
LINE
  8
0
 10
1685
 20
1.88249
 11
1685.41
 21
1.32481
  0
LINE
  8
0
 10
1685.41
 20
1.32481
 11
1685.66
 21
0.683884
  0
LINE
  8
0
 10
1685.66
 20
0.683884
 11
1685.75
 21
0
  0
LINE
  8
0
 10
1685.75
 20
0
 11
1685.66
 21
-0.683884
  0
LINE
  8
0
 10
1685.66
 20
-0.683884
 11
1685.41
 21
-1.32481
  0
LINE
  8
0
 10
1685.41
 20
-1.32481
 11
1685
 21
-1.88249
  0
LINE
  8
0
 10
1685
 20
-1.88249
 11
1684.47
 21
-2.3219
  0
LINE
  8
0
 10
1684.47
 20
-2.3219
 11
1683.85
 21
-2.6154
  0
LINE
  8
0
 10
1683.85
 20
-2.6154
 11
1683.17
 21
-2.74457
  0
LINE
  8
0
 10
1683.17
 20
-2.74457
 11
1682.48
 21
-2.70128
  0
LINE
  8
0
 10
1676.72
 20
-1.47342
 11
1676.36
 21
-1.35724
  0
LINE
  8
0
 10
1676.36
 20
-1.35724
 11
1676.04
 21
-1.15576
  0
LINE
  8
0
 10
1676.04
 20
-1.15576
 11
1675.79
 21
-0.881668
  0
LINE
  8
0
 10
1675.79
 20
-0.881668
 11
1675.61
 21
-0.552185
  0
LINE
  8
0
 10
1675.61
 20
-0.552185
 11
1675.51
 21
-0.187988
  0
LINE
  8
0
 10
1675.51
 20
-0.187988
 11
1675.51
 21
0.187988
  0
LINE
  8
0
 10
1675.51
 20
0.187988
 11
1675.61
 21
0.552185
  0
LINE
  8
0
 10
1675.61
 20
0.552185
 11
1675.79
 21
0.881668
  0
LINE
  8
0
 10
1675.79
 20
0.881668
 11
1676.04
 21
1.15576
  0
LINE
  8
0
 10
1676.04
 20
1.15576
 11
1676.36
 21
1.35724
  0
LINE
  8
0
 10
1676.36
 20
1.35724
 11
1676.72
 21
1.47342
  0
LINE
  8
0
 10
1676.72
 20
1.47342
 11
1677.09
 21
1.49704
  0
LINE
  8
0
 10
1677.09
 20
1.49704
 11
1677.46
 21
1.42657
  0
LINE
  8
0
 10
1677.46
 20
1.42657
 11
1677.8
 21
1.26648
  0
LINE
  8
0
 10
1677.8
 20
1.26648
 11
1678.09
 21
1.02681
  0
LINE
  8
0
 10
1678.09
 20
1.02681
 11
1678.31
 21
0.722626
  0
LINE
  8
0
 10
1678.31
 20
0.722626
 11
1678.45
 21
0.373032
  0
LINE
  8
0
 10
1678.45
 20
0.373032
 11
1678.5
 21
0
  0
LINE
  8
0
 10
1678.5
 20
0
 11
1678.45
 21
-0.373032
  0
LINE
  8
0
 10
1678.45
 20
-0.373032
 11
1678.31
 21
-0.722626
  0
LINE
  8
0
 10
1678.31
 20
-0.722626
 11
1678.09
 21
-1.02681
  0
LINE
  8
0
 10
1678.09
 20
-1.02681
 11
1677.8
 21
-1.26648
  0
LINE
  8
0
 10
1677.8
 20
-1.26648
 11
1677.46
 21
-1.42657
  0
LINE
  8
0
 10
1677.46
 20
-1.42657
 11
1677.09
 21
-1.49704
  0
LINE
  8
0
 10
1677.09
 20
-1.49704
 11
1676.72
 21
-1.47342
  0
LINE
  8
0
 10
1705.44
 20
-41.9469
 11
1704.72
 21
-41.7145
  0
LINE
  8
0
 10
1704.72
 20
-41.7145
 11
1704.09
 21
-41.3115
  0
LINE
  8
0
 10
1704.09
 20
-41.3115
 11
1703.57
 21
-40.7634
  0
LINE
  8
0
 10
1703.57
 20
-40.7634
 11
1703.21
 21
-40.1044
  0
LINE
  8
0
 10
1703.21
 20
-40.1044
 11
1703.02
 21
-39.376
  0
LINE
  8
0
 10
1703.02
 20
-39.376
 11
1703.02
 21
-38.624
  0
LINE
  8
0
 10
1703.02
 20
-38.624
 11
1703.21
 21
-37.8956
  0
LINE
  8
0
 10
1703.21
 20
-37.8956
 11
1703.57
 21
-37.2366
  0
LINE
  8
0
 10
1703.57
 20
-37.2366
 11
1704.09
 21
-36.6885
  0
LINE
  8
0
 10
1704.09
 20
-36.6885
 11
1704.72
 21
-36.2855
  0
LINE
  8
0
 10
1704.72
 20
-36.2855
 11
1705.44
 21
-36.0531
  0
LINE
  8
0
 10
1705.44
 20
-36.0531
 11
1706.19
 21
-36.0059
  0
LINE
  8
0
 10
1706.19
 20
-36.0059
 11
1706.93
 21
-36.1468
  0
LINE
  8
0
 10
1706.93
 20
-36.1468
 11
1707.61
 21
-36.467
  0
LINE
  8
0
 10
1707.61
 20
-36.467
 11
1708.19
 21
-36.9464
  0
LINE
  8
0
 10
1708.19
 20
-36.9464
 11
1708.63
 21
-37.5547
  0
LINE
  8
0
 10
1708.63
 20
-37.5547
 11
1708.91
 21
-38.2539
  0
LINE
  8
0
 10
1708.91
 20
-38.2539
 11
1709
 21
-39
  0
LINE
  8
0
 10
1709
 20
-39
 11
1708.91
 21
-39.7461
  0
LINE
  8
0
 10
1708.91
 20
-39.7461
 11
1708.63
 21
-40.4453
  0
LINE
  8
0
 10
1708.63
 20
-40.4453
 11
1708.19
 21
-41.0536
  0
LINE
  8
0
 10
1708.19
 20
-41.0536
 11
1707.61
 21
-41.533
  0
LINE
  8
0
 10
1707.61
 20
-41.533
 11
1706.93
 21
-41.8532
  0
LINE
  8
0
 10
1706.93
 20
-41.8532
 11
1706.19
 21
-41.9941
  0
LINE
  8
0
 10
1706.19
 20
-41.9941
 11
1705.44
 21
-41.9469
  0
LINE
  8
0
 10
1597.44
 20
-41.9469
 11
1596.72
 21
-41.7145
  0
LINE
  8
0
 10
1596.72
 20
-41.7145
 11
1596.09
 21
-41.3115
  0
LINE
  8
0
 10
1596.09
 20
-41.3115
 11
1595.57
 21
-40.7634
  0
LINE
  8
0
 10
1595.57
 20
-40.7634
 11
1595.21
 21
-40.1044
  0
LINE
  8
0
 10
1595.21
 20
-40.1044
 11
1595.02
 21
-39.376
  0
LINE
  8
0
 10
1595.02
 20
-39.376
 11
1595.02
 21
-38.624
  0
LINE
  8
0
 10
1595.02
 20
-38.624
 11
1595.21
 21
-37.8956
  0
LINE
  8
0
 10
1595.21
 20
-37.8956
 11
1595.57
 21
-37.2366
  0
LINE
  8
0
 10
1595.57
 20
-37.2366
 11
1596.09
 21
-36.6885
  0
LINE
  8
0
 10
1596.09
 20
-36.6885
 11
1596.72
 21
-36.2855
  0
LINE
  8
0
 10
1596.72
 20
-36.2855
 11
1597.44
 21
-36.0531
  0
LINE
  8
0
 10
1597.44
 20
-36.0531
 11
1598.19
 21
-36.0059
  0
LINE
  8
0
 10
1598.19
 20
-36.0059
 11
1598.93
 21
-36.1468
  0
LINE
  8
0
 10
1598.93
 20
-36.1468
 11
1599.61
 21
-36.467
  0
LINE
  8
0
 10
1599.61
 20
-36.467
 11
1600.19
 21
-36.9464
  0
LINE
  8
0
 10
1600.19
 20
-36.9464
 11
1600.63
 21
-37.5547
  0
LINE
  8
0
 10
1600.63
 20
-37.5547
 11
1600.91
 21
-38.2539
  0
LINE
  8
0
 10
1600.91
 20
-38.2539
 11
1601
 21
-39
  0
LINE
  8
0
 10
1601
 20
-39
 11
1600.91
 21
-39.7461
  0
LINE
  8
0
 10
1600.91
 20
-39.7461
 11
1600.63
 21
-40.4453
  0
LINE
  8
0
 10
1600.63
 20
-40.4453
 11
1600.19
 21
-41.0536
  0
LINE
  8
0
 10
1600.19
 20
-41.0536
 11
1599.61
 21
-41.533
  0
LINE
  8
0
 10
1599.61
 20
-41.533
 11
1598.93
 21
-41.8532
  0
LINE
  8
0
 10
1598.93
 20
-41.8532
 11
1598.19
 21
-41.9941
  0
LINE
  8
0
 10
1598.19
 20
-41.9941
 11
1597.44
 21
-41.9469
  0
LINE
  8
0
 10
1954.24
 20
-44.8429
 11
1955.41
 21
-44.3815
  0
LINE
  8
0
 10
1955.41
 20
-44.3815
 11
1956.42
 21
-43.6448
  0
LINE
  8
0
 10
1956.42
 20
-43.6448
 11
1957.22
 21
-42.6791
  0
LINE
  8
0
 10
1957.22
 20
-42.6791
 11
1957.76
 21
-41.5451
  0
LINE
  8
0
 10
1957.76
 20
-41.5451
 11
1958
 21
-40
  0
LINE
  8
0
 10
1958
 20
-40
 11
1958
 21
40
  0
LINE
  8
0
 10
1958
 20
40
 11
1957.84
 21
41.2435
  0
LINE
  8
0
 10
1957.84
 20
41.2435
 11
1957.38
 21
42.4088
  0
LINE
  8
0
 10
1957.38
 20
42.4088
 11
1956.64
 21
43.4227
  0
LINE
  8
0
 10
1956.64
 20
43.4227
 11
1955.68
 21
44.2216
  0
LINE
  8
0
 10
1955.68
 20
44.2216
 11
1954.55
 21
44.7553
  0
LINE
  8
0
 10
1954.55
 20
44.7553
 11
1953
 21
45
  0
LINE
  8
0
 10
1953
 20
45
 11
1843
 21
45
  0
LINE
  8
0
 10
1843
 20
45
 11
1841.76
 21
44.8429
  0
LINE
  8
0
 10
1841.76
 20
44.8429
 11
1840.59
 21
44.3815
  0
LINE
  8
0
 10
1840.59
 20
44.3815
 11
1839.58
 21
43.6448
  0
LINE
  8
0
 10
1839.58
 20
43.6448
 11
1838.78
 21
42.6791
  0
LINE
  8
0
 10
1838.78
 20
42.6791
 11
1838.24
 21
41.5451
  0
LINE
  8
0
 10
1838.24
 20
41.5451
 11
1838
 21
40
  0
LINE
  8
0
 10
1838
 20
40
 11
1838
 21
22.5
  0
LINE
  8
0
 10
1838
 20
22.5
 11
1853
 21
22.5
  0
LINE
  8
0
 10
1853
 20
22.5
 11
1853
 21
12.5
  0
LINE
  8
0
 10
1853
 20
12.5
 11
1870
 21
12.5
  0
LINE
  8
0
 10
1870
 20
12.5
 11
1870
 21
-12.5
  0
LINE
  8
0
 10
1870
 20
-12.5
 11
1853
 21
-12.5
  0
LINE
  8
0
 10
1853
 20
-12.5
 11
1853
 21
-22.5
  0
LINE
  8
0
 10
1853
 20
-22.5
 11
1838
 21
-22.5
  0
LINE
  8
0
 10
1838
 20
-22.5
 11
1838
 21
-40
  0
LINE
  8
0
 10
1838
 20
-40
 11
1838.16
 21
-41.2435
  0
LINE
  8
0
 10
1838.16
 20
-41.2435
 11
1838.62
 21
-42.4088
  0
LINE
  8
0
 10
1838.62
 20
-42.4088
 11
1839.36
 21
-43.4227
  0
LINE
  8
0
 10
1839.36
 20
-43.4227
 11
1840.32
 21
-44.2216
  0
LINE
  8
0
 10
1840.32
 20
-44.2216
 11
1841.45
 21
-44.7553
  0
LINE
  8
0
 10
1841.45
 20
-44.7553
 11
1843
 21
-45
  0
LINE
  8
0
 10
1843
 20
-45
 11
1953
 21
-45
  0
LINE
  8
0
 10
1953
 20
-45
 11
1954.24
 21
-44.8429
  0
LINE
  8
0
 10
1843.44
 20
36.0531
 11
1842.72
 21
36.2855
  0
LINE
  8
0
 10
1842.72
 20
36.2855
 11
1842.09
 21
36.6885
  0
LINE
  8
0
 10
1842.09
 20
36.6885
 11
1841.57
 21
37.2366
  0
LINE
  8
0
 10
1841.57
 20
37.2366
 11
1841.21
 21
37.8956
  0
LINE
  8
0
 10
1841.21
 20
37.8956
 11
1841.02
 21
38.624
  0
LINE
  8
0
 10
1841.02
 20
38.624
 11
1841.02
 21
39.376
  0
LINE
  8
0
 10
1841.02
 20
39.376
 11
1841.21
 21
40.1044
  0
LINE
  8
0
 10
1841.21
 20
40.1044
 11
1841.57
 21
40.7634
  0
LINE
  8
0
 10
1841.57
 20
40.7634
 11
1842.09
 21
41.3115
  0
LINE
  8
0
 10
1842.09
 20
41.3115
 11
1842.72
 21
41.7145
  0
LINE
  8
0
 10
1842.72
 20
41.7145
 11
1843.44
 21
41.9469
  0
LINE
  8
0
 10
1843.44
 20
41.9469
 11
1844.19
 21
41.9941
  0
LINE
  8
0
 10
1844.19
 20
41.9941
 11
1844.93
 21
41.8532
  0
LINE
  8
0
 10
1844.93
 20
41.8532
 11
1845.61
 21
41.533
  0
LINE
  8
0
 10
1845.61
 20
41.533
 11
1846.19
 21
41.0536
  0
LINE
  8
0
 10
1846.19
 20
41.0536
 11
1846.63
 21
40.4453
  0
LINE
  8
0
 10
1846.63
 20
40.4453
 11
1846.91
 21
39.7461
  0
LINE
  8
0
 10
1846.91
 20
39.7461
 11
1847
 21
39
  0
LINE
  8
0
 10
1847
 20
39
 11
1846.91
 21
38.2539
  0
LINE
  8
0
 10
1846.91
 20
38.2539
 11
1846.63
 21
37.5547
  0
LINE
  8
0
 10
1846.63
 20
37.5547
 11
1846.19
 21
36.9464
  0
LINE
  8
0
 10
1846.19
 20
36.9464
 11
1845.61
 21
36.467
  0
LINE
  8
0
 10
1845.61
 20
36.467
 11
1844.93
 21
36.1468
  0
LINE
  8
0
 10
1844.93
 20
36.1468
 11
1844.19
 21
36.0059
  0
LINE
  8
0
 10
1844.19
 20
36.0059
 11
1843.44
 21
36.0531
  0
LINE
  8
0
 10
1951.44
 20
36.0531
 11
1950.72
 21
36.2855
  0
LINE
  8
0
 10
1950.72
 20
36.2855
 11
1950.09
 21
36.6885
  0
LINE
  8
0
 10
1950.09
 20
36.6885
 11
1949.57
 21
37.2366
  0
LINE
  8
0
 10
1949.57
 20
37.2366
 11
1949.21
 21
37.8956
  0
LINE
  8
0
 10
1949.21
 20
37.8956
 11
1949.02
 21
38.624
  0
LINE
  8
0
 10
1949.02
 20
38.624
 11
1949.02
 21
39.376
  0
LINE
  8
0
 10
1949.02
 20
39.376
 11
1949.21
 21
40.1044
  0
LINE
  8
0
 10
1949.21
 20
40.1044
 11
1949.57
 21
40.7634
  0
LINE
  8
0
 10
1949.57
 20
40.7634
 11
1950.09
 21
41.3115
  0
LINE
  8
0
 10
1950.09
 20
41.3115
 11
1950.72
 21
41.7145
  0
LINE
  8
0
 10
1950.72
 20
41.7145
 11
1951.44
 21
41.9469
  0
LINE
  8
0
 10
1951.44
 20
41.9469
 11
1952.19
 21
41.9941
  0
LINE
  8
0
 10
1952.19
 20
41.9941
 11
1952.93
 21
41.8532
  0
LINE
  8
0
 10
1952.93
 20
41.8532
 11
1953.61
 21
41.533
  0
LINE
  8
0
 10
1953.61
 20
41.533
 11
1954.19
 21
41.0536
  0
LINE
  8
0
 10
1954.19
 20
41.0536
 11
1954.63
 21
40.4453
  0
LINE
  8
0
 10
1954.63
 20
40.4453
 11
1954.91
 21
39.7461
  0
LINE
  8
0
 10
1954.91
 20
39.7461
 11
1955
 21
39
  0
LINE
  8
0
 10
1955
 20
39
 11
1954.91
 21
38.2539
  0
LINE
  8
0
 10
1954.91
 20
38.2539
 11
1954.63
 21
37.5547
  0
LINE
  8
0
 10
1954.63
 20
37.5547
 11
1954.19
 21
36.9464
  0
LINE
  8
0
 10
1954.19
 20
36.9464
 11
1953.61
 21
36.467
  0
LINE
  8
0
 10
1953.61
 20
36.467
 11
1952.93
 21
36.1468
  0
LINE
  8
0
 10
1952.93
 20
36.1468
 11
1952.19
 21
36.0059
  0
LINE
  8
0
 10
1952.19
 20
36.0059
 11
1951.44
 21
36.0531
  0
LINE
  8
0
 10
1898.72
 20
-1.47342
 11
1898.36
 21
-1.35724
  0
LINE
  8
0
 10
1898.36
 20
-1.35724
 11
1898.04
 21
-1.15576
  0
LINE
  8
0
 10
1898.04
 20
-1.15576
 11
1897.79
 21
-0.881668
  0
LINE
  8
0
 10
1897.79
 20
-0.881668
 11
1897.61
 21
-0.552185
  0
LINE
  8
0
 10
1897.61
 20
-0.552185
 11
1897.51
 21
-0.187988
  0
LINE
  8
0
 10
1897.51
 20
-0.187988
 11
1897.51
 21
0.187988
  0
LINE
  8
0
 10
1897.51
 20
0.187988
 11
1897.61
 21
0.552185
  0
LINE
  8
0
 10
1897.61
 20
0.552185
 11
1897.79
 21
0.881668
  0
LINE
  8
0
 10
1897.79
 20
0.881668
 11
1898.04
 21
1.15576
  0
LINE
  8
0
 10
1898.04
 20
1.15576
 11
1898.36
 21
1.35724
  0
LINE
  8
0
 10
1898.36
 20
1.35724
 11
1898.72
 21
1.47342
  0
LINE
  8
0
 10
1898.72
 20
1.47342
 11
1899.09
 21
1.49704
  0
LINE
  8
0
 10
1899.09
 20
1.49704
 11
1899.46
 21
1.42657
  0
LINE
  8
0
 10
1899.46
 20
1.42657
 11
1899.8
 21
1.26648
  0
LINE
  8
0
 10
1899.8
 20
1.26648
 11
1900.09
 21
1.02681
  0
LINE
  8
0
 10
1900.09
 20
1.02681
 11
1900.31
 21
0.722626
  0
LINE
  8
0
 10
1900.31
 20
0.722626
 11
1900.45
 21
0.373032
  0
LINE
  8
0
 10
1900.45
 20
0.373032
 11
1900.5
 21
0
  0
LINE
  8
0
 10
1900.5
 20
0
 11
1900.45
 21
-0.373032
  0
LINE
  8
0
 10
1900.45
 20
-0.373032
 11
1900.31
 21
-0.722626
  0
LINE
  8
0
 10
1900.31
 20
-0.722626
 11
1900.09
 21
-1.02681
  0
LINE
  8
0
 10
1900.09
 20
-1.02681
 11
1899.8
 21
-1.26648
  0
LINE
  8
0
 10
1899.8
 20
-1.26648
 11
1899.46
 21
-1.42657
  0
LINE
  8
0
 10
1899.46
 20
-1.42657
 11
1899.09
 21
-1.49704
  0
LINE
  8
0
 10
1899.09
 20
-1.49704
 11
1898.72
 21
-1.47342
  0
LINE
  8
0
 10
1922.72
 20
-1.47342
 11
1922.36
 21
-1.35724
  0
LINE
  8
0
 10
1922.36
 20
-1.35724
 11
1922.04
 21
-1.15576
  0
LINE
  8
0
 10
1922.04
 20
-1.15576
 11
1921.79
 21
-0.881668
  0
LINE
  8
0
 10
1921.79
 20
-0.881668
 11
1921.61
 21
-0.552185
  0
LINE
  8
0
 10
1921.61
 20
-0.552185
 11
1921.51
 21
-0.187988
  0
LINE
  8
0
 10
1921.51
 20
-0.187988
 11
1921.51
 21
0.187988
  0
LINE
  8
0
 10
1921.51
 20
0.187988
 11
1921.61
 21
0.552185
  0
LINE
  8
0
 10
1921.61
 20
0.552185
 11
1921.79
 21
0.881668
  0
LINE
  8
0
 10
1921.79
 20
0.881668
 11
1922.04
 21
1.15576
  0
LINE
  8
0
 10
1922.04
 20
1.15576
 11
1922.36
 21
1.35724
  0
LINE
  8
0
 10
1922.36
 20
1.35724
 11
1922.72
 21
1.47342
  0
LINE
  8
0
 10
1922.72
 20
1.47342
 11
1923.09
 21
1.49704
  0
LINE
  8
0
 10
1923.09
 20
1.49704
 11
1923.46
 21
1.42657
  0
LINE
  8
0
 10
1923.46
 20
1.42657
 11
1923.8
 21
1.26648
  0
LINE
  8
0
 10
1923.8
 20
1.26648
 11
1924.09
 21
1.02681
  0
LINE
  8
0
 10
1924.09
 20
1.02681
 11
1924.31
 21
0.722626
  0
LINE
  8
0
 10
1924.31
 20
0.722626
 11
1924.45
 21
0.373032
  0
LINE
  8
0
 10
1924.45
 20
0.373032
 11
1924.5
 21
0
  0
LINE
  8
0
 10
1924.5
 20
0
 11
1924.45
 21
-0.373032
  0
LINE
  8
0
 10
1924.45
 20
-0.373032
 11
1924.31
 21
-0.722626
  0
LINE
  8
0
 10
1924.31
 20
-0.722626
 11
1924.09
 21
-1.02681
  0
LINE
  8
0
 10
1924.09
 20
-1.02681
 11
1923.8
 21
-1.26648
  0
LINE
  8
0
 10
1923.8
 20
-1.26648
 11
1923.46
 21
-1.42657
  0
LINE
  8
0
 10
1923.46
 20
-1.42657
 11
1923.09
 21
-1.49704
  0
LINE
  8
0
 10
1923.09
 20
-1.49704
 11
1922.72
 21
-1.47342
  0
LINE
  8
0
 10
1928.72
 20
-1.47342
 11
1928.36
 21
-1.35724
  0
LINE
  8
0
 10
1928.36
 20
-1.35724
 11
1928.04
 21
-1.15576
  0
LINE
  8
0
 10
1928.04
 20
-1.15576
 11
1927.79
 21
-0.881668
  0
LINE
  8
0
 10
1927.79
 20
-0.881668
 11
1927.61
 21
-0.552185
  0
LINE
  8
0
 10
1927.61
 20
-0.552185
 11
1927.51
 21
-0.187988
  0
LINE
  8
0
 10
1927.51
 20
-0.187988
 11
1927.51
 21
0.187988
  0
LINE
  8
0
 10
1927.51
 20
0.187988
 11
1927.61
 21
0.552185
  0
LINE
  8
0
 10
1927.61
 20
0.552185
 11
1927.79
 21
0.881668
  0
LINE
  8
0
 10
1927.79
 20
0.881668
 11
1928.04
 21
1.15576
  0
LINE
  8
0
 10
1928.04
 20
1.15576
 11
1928.36
 21
1.35724
  0
LINE
  8
0
 10
1928.36
 20
1.35724
 11
1928.72
 21
1.47342
  0
LINE
  8
0
 10
1928.72
 20
1.47342
 11
1929.09
 21
1.49704
  0
LINE
  8
0
 10
1929.09
 20
1.49704
 11
1929.46
 21
1.42657
  0
LINE
  8
0
 10
1929.46
 20
1.42657
 11
1929.8
 21
1.26648
  0
LINE
  8
0
 10
1929.8
 20
1.26648
 11
1930.09
 21
1.02681
  0
LINE
  8
0
 10
1930.09
 20
1.02681
 11
1930.31
 21
0.722626
  0
LINE
  8
0
 10
1930.31
 20
0.722626
 11
1930.45
 21
0.373032
  0
LINE
  8
0
 10
1930.45
 20
0.373032
 11
1930.5
 21
0
  0
LINE
  8
0
 10
1930.5
 20
0
 11
1930.45
 21
-0.373032
  0
LINE
  8
0
 10
1930.45
 20
-0.373032
 11
1930.31
 21
-0.722626
  0
LINE
  8
0
 10
1930.31
 20
-0.722626
 11
1930.09
 21
-1.02681
  0
LINE
  8
0
 10
1930.09
 20
-1.02681
 11
1929.8
 21
-1.26648
  0
LINE
  8
0
 10
1929.8
 20
-1.26648
 11
1929.46
 21
-1.42657
  0
LINE
  8
0
 10
1929.46
 20
-1.42657
 11
1929.09
 21
-1.49704
  0
LINE
  8
0
 10
1929.09
 20
-1.49704
 11
1928.72
 21
-1.47342
  0
LINE
  8
0
 10
1951.44
 20
-41.9469
 11
1950.72
 21
-41.7145
  0
LINE
  8
0
 10
1950.72
 20
-41.7145
 11
1950.09
 21
-41.3115
  0
LINE
  8
0
 10
1950.09
 20
-41.3115
 11
1949.57
 21
-40.7634
  0
LINE
  8
0
 10
1949.57
 20
-40.7634
 11
1949.21
 21
-40.1044
  0
LINE
  8
0
 10
1949.21
 20
-40.1044
 11
1949.02
 21
-39.376
  0
LINE
  8
0
 10
1949.02
 20
-39.376
 11
1949.02
 21
-38.624
  0
LINE
  8
0
 10
1949.02
 20
-38.624
 11
1949.21
 21
-37.8956
  0
LINE
  8
0
 10
1949.21
 20
-37.8956
 11
1949.57
 21
-37.2366
  0
LINE
  8
0
 10
1949.57
 20
-37.2366
 11
1950.09
 21
-36.6885
  0
LINE
  8
0
 10
1950.09
 20
-36.6885
 11
1950.72
 21
-36.2855
  0
LINE
  8
0
 10
1950.72
 20
-36.2855
 11
1951.44
 21
-36.0531
  0
LINE
  8
0
 10
1951.44
 20
-36.0531
 11
1952.19
 21
-36.0059
  0
LINE
  8
0
 10
1952.19
 20
-36.0059
 11
1952.93
 21
-36.1468
  0
LINE
  8
0
 10
1952.93
 20
-36.1468
 11
1953.61
 21
-36.467
  0
LINE
  8
0
 10
1953.61
 20
-36.467
 11
1954.19
 21
-36.9464
  0
LINE
  8
0
 10
1954.19
 20
-36.9464
 11
1954.63
 21
-37.5547
  0
LINE
  8
0
 10
1954.63
 20
-37.5547
 11
1954.91
 21
-38.2539
  0
LINE
  8
0
 10
1954.91
 20
-38.2539
 11
1955
 21
-39
  0
LINE
  8
0
 10
1955
 20
-39
 11
1954.91
 21
-39.7461
  0
LINE
  8
0
 10
1954.91
 20
-39.7461
 11
1954.63
 21
-40.4453
  0
LINE
  8
0
 10
1954.63
 20
-40.4453
 11
1954.19
 21
-41.0536
  0
LINE
  8
0
 10
1954.19
 20
-41.0536
 11
1953.61
 21
-41.533
  0
LINE
  8
0
 10
1953.61
 20
-41.533
 11
1952.93
 21
-41.8532
  0
LINE
  8
0
 10
1952.93
 20
-41.8532
 11
1952.19
 21
-41.9941
  0
LINE
  8
0
 10
1952.19
 20
-41.9941
 11
1951.44
 21
-41.9469
  0
LINE
  8
0
 10
1843.44
 20
-41.9469
 11
1842.72
 21
-41.7145
  0
LINE
  8
0
 10
1842.72
 20
-41.7145
 11
1842.09
 21
-41.3115
  0
LINE
  8
0
 10
1842.09
 20
-41.3115
 11
1841.57
 21
-40.7634
  0
LINE
  8
0
 10
1841.57
 20
-40.7634
 11
1841.21
 21
-40.1044
  0
LINE
  8
0
 10
1841.21
 20
-40.1044
 11
1841.02
 21
-39.376
  0
LINE
  8
0
 10
1841.02
 20
-39.376
 11
1841.02
 21
-38.624
  0
LINE
  8
0
 10
1841.02
 20
-38.624
 11
1841.21
 21
-37.8956
  0
LINE
  8
0
 10
1841.21
 20
-37.8956
 11
1841.57
 21
-37.2366
  0
LINE
  8
0
 10
1841.57
 20
-37.2366
 11
1842.09
 21
-36.6885
  0
LINE
  8
0
 10
1842.09
 20
-36.6885
 11
1842.72
 21
-36.2855
  0
LINE
  8
0
 10
1842.72
 20
-36.2855
 11
1843.44
 21
-36.0531
  0
LINE
  8
0
 10
1843.44
 20
-36.0531
 11
1844.19
 21
-36.0059
  0
LINE
  8
0
 10
1844.19
 20
-36.0059
 11
1844.93
 21
-36.1468
  0
LINE
  8
0
 10
1844.93
 20
-36.1468
 11
1845.61
 21
-36.467
  0
LINE
  8
0
 10
1845.61
 20
-36.467
 11
1846.19
 21
-36.9464
  0
LINE
  8
0
 10
1846.19
 20
-36.9464
 11
1846.63
 21
-37.5547
  0
LINE
  8
0
 10
1846.63
 20
-37.5547
 11
1846.91
 21
-38.2539
  0
LINE
  8
0
 10
1846.91
 20
-38.2539
 11
1847
 21
-39
  0
LINE
  8
0
 10
1847
 20
-39
 11
1846.91
 21
-39.7461
  0
LINE
  8
0
 10
1846.91
 20
-39.7461
 11
1846.63
 21
-40.4453
  0
LINE
  8
0
 10
1846.63
 20
-40.4453
 11
1846.19
 21
-41.0536
  0
LINE
  8
0
 10
1846.19
 20
-41.0536
 11
1845.61
 21
-41.533
  0
LINE
  8
0
 10
1845.61
 20
-41.533
 11
1844.93
 21
-41.8532
  0
LINE
  8
0
 10
1844.93
 20
-41.8532
 11
1844.19
 21
-41.9941
  0
LINE
  8
0
 10
1844.19
 20
-41.9941
 11
1843.44
 21
-41.9469
  0
LINE
  8
0
 10
68.2484
 20
-42.8479
 11
69.4138
 21
-42.3865
  0
LINE
  8
0
 10
69.4138
 20
-42.3865
 11
70.4277
 21
-41.6498
  0
LINE
  8
0
 10
70.4277
 20
-41.6498
 11
71.2266
 21
-40.6841
  0
LINE
  8
0
 10
71.2266
 20
-40.6841
 11
71.7603
 21
-39.5501
  0
LINE
  8
0
 10
71.7603
 20
-39.5501
 11
72.005
 21
-38.005
  0
LINE
  8
0
 10
72.005
 20
-38.005
 11
72.005
 21
38.005
  0
LINE
  8
0
 10
72.005
 20
38.005
 11
71.8479
 21
39.2484
  0
LINE
  8
0
 10
71.8479
 20
39.2484
 11
71.3865
 21
40.4138
  0
LINE
  8
0
 10
71.3865
 20
40.4138
 11
70.6498
 21
41.4277
  0
LINE
  8
0
 10
70.6498
 20
41.4277
 11
69.6841
 21
42.2266
  0
LINE
  8
0
 10
69.6841
 20
42.2266
 11
68.5501
 21
42.7603
  0
LINE
  8
0
 10
68.5501
 20
42.7603
 11
67.005
 21
43.005
  0
LINE
  8
0
 10
67.005
 20
43.005
 11
-23.005
 21
43.005
  0
LINE
  8
0
 10
-23.005
 20
43.005
 11
-24.2484
 21
42.8479
  0
LINE
  8
0
 10
-24.2484
 20
42.8479
 11
-25.4138
 21
42.3865
  0
LINE
  8
0
 10
-25.4138
 20
42.3865
 11
-26.4277
 21
41.6498
  0
LINE
  8
0
 10
-26.4277
 20
41.6498
 11
-27.2266
 21
40.6841
  0
LINE
  8
0
 10
-27.2266
 20
40.6841
 11
-27.7603
 21
39.5501
  0
LINE
  8
0
 10
-27.7603
 20
39.5501
 11
-28.005
 21
38.005
  0
LINE
  8
0
 10
-28.005
 20
38.005
 11
-28.005
 21
17.255
  0
LINE
  8
0
 10
-28.005
 20
17.255
 11
-99.2448
 21
17.255
  0
LINE
  8
0
 10
-99.2448
 20
17.255
 11
-97.6808
 21
13.3049
  0
LINE
  8
0
 10
-97.6808
 20
13.3049
 11
-97.5159
 21
12
  0
LINE
  8
0
 10
-97.5159
 20
12
 11
-90
 21
12
  0
LINE
  8
0
 10
-90
 20
12
 11
-90
 21
4
  0
LINE
  8
0
 10
-90
 20
4
 11
-96.5053
 21
4
  0
LINE
  8
0
 10
-96.5053
 20
4
 11
-96.379
 21
3
  0
LINE
  8
0
 10
-96.379
 20
3
 11
-100
 21
3
  0
LINE
  8
0
 10
-100
 20
3
 11
-100
 21
-9
  0
LINE
  8
0
 10
-100
 20
-9
 11
-97.137
 21
-9
  0
LINE
  8
0
 10
-97.137
 20
-9
 11
-97.6808
 21
-13.3049
  0
LINE
  8
0
 10
-97.6808
 20
-13.3049
 11
-99.2448
 21
-17.255
  0
LINE
  8
0
 10
-99.2448
 20
-17.255
 11
-28.005
 21
-17.255
  0
LINE
  8
0
 10
-28.005
 20
-17.255
 11
-28.005
 21
-38.005
  0
LINE
  8
0
 10
-28.005
 20
-38.005
 11
-27.8479
 21
-39.2484
  0
LINE
  8
0
 10
-27.8479
 20
-39.2484
 11
-27.3865
 21
-40.4138
  0
LINE
  8
0
 10
-27.3865
 20
-40.4138
 11
-26.6498
 21
-41.4277
  0
LINE
  8
0
 10
-26.6498
 20
-41.4277
 11
-25.6841
 21
-42.2266
  0
LINE
  8
0
 10
-25.6841
 20
-42.2266
 11
-24.5501
 21
-42.7603
  0
LINE
  8
0
 10
-24.5501
 20
-42.7603
 11
-23.005
 21
-43.005
  0
LINE
  8
0
 10
-23.005
 20
-43.005
 11
67.005
 21
-43.005
  0
LINE
  8
0
 10
67.005
 20
-43.005
 11
68.2484
 21
-42.8479
  0
LINE
  8
0
 10
11.75
 20
-14.5
 11
11.75
 21
14.5
  0
LINE
  8
0
 10
11.75
 20
14.5
 11
32.25
 21
14.5
  0
LINE
  8
0
 10
32.25
 20
14.5
 11
32.25
 21
14.3826
  0
LINE
  8
0
 10
32.25
 20
14.3826
 11
33.6605
 21
14.4714
  0
LINE
  8
0
 10
33.6605
 20
14.4714
 11
37.2307
 21
13.7903
  0
LINE
  8
0
 10
37.2307
 20
13.7903
 11
40.5195
 21
12.2428
  0
LINE
  8
0
 10
40.5195
 20
12.2428
 11
43.32
 21
9.92592
  0
LINE
  8
0
 10
43.32
 20
9.92592
 11
45.4564
 21
6.98543
  0
LINE
  8
0
 10
45.4564
 20
6.98543
 11
46.7944
 21
3.606
  0
LINE
  8
0
 10
46.7944
 20
3.606
 11
47.25
 21
0
  0
LINE
  8
0
 10
47.25
 20
0
 11
46.7944
 21
-3.606
  0
LINE
  8
0
 10
46.7944
 20
-3.606
 11
45.4564
 21
-6.98543
  0
LINE
  8
0
 10
45.4564
 20
-6.98543
 11
43.32
 21
-9.92592
  0
LINE
  8
0
 10
43.32
 20
-9.92592
 11
40.5195
 21
-12.2428
  0
LINE
  8
0
 10
40.5195
 20
-12.2428
 11
37.2307
 21
-13.7903
  0
LINE
  8
0
 10
37.2307
 20
-13.7903
 11
33.6605
 21
-14.4714
  0
LINE
  8
0
 10
33.6605
 20
-14.4714
 11
32.25
 21
-14.3826
  0
LINE
  8
0
 10
32.25
 20
-14.3826
 11
32.25
 21
-14.5
  0
LINE
  8
0
 10
32.25
 20
-14.5
 11
11.75
 21
-14.5
  0
LINE
  8
0
 10
-30.7688
 20
-7
 11
-30.7688
 21
7
  0
LINE
  8
0
 10
-30.7688
 20
7
 11
-28.9428
 21
7
  0
LINE
  8
0
 10
-28.9428
 20
7
 11
-28.9428
 21
5
  0
LINE
  8
0
 10
-28.9428
 20
5
 11
-30
 21
5
  0
LINE
  8
0
 10
-30
 20
5
 11
-30
 21
-5
  0
LINE
  8
0
 10
-30
 20
-5
 11
-28.9428
 21
-5
  0
LINE
  8
0
 10
-28.9428
 20
-5
 11
-28.9428
 21
-7
  0
LINE
  8
0
 10
-28.9428
 20
-7
 11
-30.7688
 21
-7
  0
LINE
  8
0
 10
1010
 20
34
 11
895
 21
34
  0
LINE
  8
0
 10
895
 20
34
 11
895
 21
29
  0
LINE
  8
0
 10
895
 20
29
 11
894
 21
29
  0
LINE
  8
0
 10
894
 20
29
 11
894
 21
27
  0
LINE
  8
0
 10
894
 20
27
 11
895
 21
27
  0
LINE
  8
0
 10
895
 20
27
 11
895
 21
22.5
  0
LINE
  8
0
 10
895
 20
22.5
 11
894
 21
22.5
  0
LINE
  8
0
 10
894
 20
22.5
 11
894
 21
-22.5
  0
LINE
  8
0
 10
894
 20
-22.5
 11
895
 21
-22.5
  0
LINE
  8
0
 10
895
 20
-22.5
 11
895
 21
-27
  0
LINE
  8
0
 10
895
 20
-27
 11
894
 21
-27
  0
LINE
  8
0
 10
894
 20
-27
 11
894
 21
-29
  0
LINE
  8
0
 10
894
 20
-29
 11
895
 21
-29
  0
LINE
  8
0
 10
895
 20
-29
 11
895
 21
-34
  0
LINE
  8
0
 10
895
 20
-34
 11
1010
 21
-34
  0
LINE
  8
0
 10
1010
 20
-34
 11
1010
 21
34
  0
LINE
  8
0
 10
206.748
 20
-73.3479
 11
207.914
 21
-72.8865
  0
LINE
  8
0
 10
207.914
 20
-72.8865
 11
208.928
 21
-72.1498
  0
LINE
  8
0
 10
208.928
 20
-72.1498
 11
209.727
 21
-71.1841
  0
LINE
  8
0
 10
209.727
 20
-71.1841
 11
210.26
 21
-70.0501
  0
LINE
  8
0
 10
210.26
 20
-70.0501
 11
210.505
 21
-68.505
  0
LINE
  8
0
 10
210.505
 20
-68.505
 11
210.505
 21
12.505
  0
LINE
  8
0
 10
210.505
 20
12.505
 11
210.348
 21
13.7484
  0
LINE
  8
0
 10
210.348
 20
13.7484
 11
209.887
 21
14.9138
  0
LINE
  8
0
 10
209.887
 20
14.9138
 11
209.15
 21
15.9277
  0
LINE
  8
0
 10
209.15
 20
15.9277
 11
208.184
 21
16.7266
  0
LINE
  8
0
 10
208.184
 20
16.7266
 11
207.05
 21
17.2603
  0
LINE
  8
0
 10
207.05
 20
17.2603
 11
205.505
 21
17.505
  0
LINE
  8
0
 10
205.505
 20
17.505
 11
100.656
 21
17.505
  0
LINE
  8
0
 10
100.656
 20
17.505
 11
102.319
 21
13.3049
  0
LINE
  8
0
 10
102.319
 20
13.3049
 11
102.484
 21
12
  0
LINE
  8
0
 10
102.484
 20
12
 11
110
 21
12
  0
LINE
  8
0
 10
110
 20
12
 11
110
 21
4
  0
LINE
  8
0
 10
110
 20
4
 11
103.495
 21
4
  0
LINE
  8
0
 10
103.495
 20
4
 11
103.621
 21
3
  0
LINE
  8
0
 10
103.621
 20
3
 11
100
 21
3
  0
LINE
  8
0
 10
100
 20
3
 11
100
 21
-9
  0
LINE
  8
0
 10
100
 20
-9
 11
102.863
 21
-9
  0
LINE
  8
0
 10
102.863
 20
-9
 11
102.319
 21
-13.3049
  0
LINE
  8
0
 10
102.319
 20
-13.3049
 11
97.3824
 21
-25.7738
  0
LINE
  8
0
 10
97.3824
 20
-25.7738
 11
95.495
 21
-28.3716
  0
LINE
  8
0
 10
95.495
 20
-28.3716
 11
95.495
 21
-68.505
  0
LINE
  8
0
 10
95.495
 20
-68.505
 11
95.6521
 21
-69.7484
  0
LINE
  8
0
 10
95.6521
 20
-69.7484
 11
96.1135
 21
-70.9138
  0
LINE
  8
0
 10
96.1135
 20
-70.9138
 11
96.8502
 21
-71.9277
  0
LINE
  8
0
 10
96.8502
 20
-71.9277
 11
97.8159
 21
-72.7266
  0
LINE
  8
0
 10
97.8159
 20
-72.7266
 11
98.9499
 21
-73.2603
  0
LINE
  8
0
 10
98.9499
 20
-73.2603
 11
100.495
 21
-73.505
  0
LINE
  8
0
 10
100.495
 20
-73.505
 11
205.505
 21
-73.505
  0
LINE
  8
0
 10
205.505
 20
-73.505
 11
206.748
 21
-73.3479
  0
LINE
  8
0
 10
167.153
 20
-7
 11
167.153
 21
-3.75
  0
LINE
  8
0
 10
167.153
 20
-3.75
 11
168.308
 21
-3.75
  0
LINE
  8
0
 10
168.308
 20
-3.75
 11
168.308
 21
7
  0
LINE
  8
0
 10
168.308
 20
7
 11
171.057
 21
7
  0
LINE
  8
0
 10
171.057
 20
7
 11
171.057
 21
5
  0
LINE
  8
0
 10
171.057
 20
5
 11
170
 21
5
  0
LINE
  8
0
 10
170
 20
5
 11
170
 21
-5
  0
LINE
  8
0
 10
170
 20
-5
 11
171.057
 21
-5
  0
LINE
  8
0
 10
171.057
 20
-5
 11
171.057
 21
-7
  0
LINE
  8
0
 10
171.057
 20
-7
 11
167.153
 21
-7
  0
LINE
  8
0
 10
146.394
 20
-64.7944
 11
143.015
 21
-63.4564
  0
LINE
  8
0
 10
143.015
 20
-63.4564
 11
140.074
 21
-61.32
  0
LINE
  8
0
 10
140.074
 20
-61.32
 11
137.757
 21
-58.5195
  0
LINE
  8
0
 10
137.757
 20
-58.5195
 11
136.21
 21
-55.2307
  0
LINE
  8
0
 10
136.21
 20
-55.2307
 11
135.529
 21
-51.6605
  0
LINE
  8
0
 10
135.529
 20
-51.6605
 11
135.617
 21
-50.25
  0
LINE
  8
0
 10
135.617
 20
-50.25
 11
135.5
 21
-50.25
  0
LINE
  8
0
 10
135.5
 20
-50.25
 11
135.5
 21
-29.75
  0
LINE
  8
0
 10
135.5
 20
-29.75
 11
164.5
 21
-29.75
  0
LINE
  8
0
 10
164.5
 20
-29.75
 11
164.5
 21
-50.25
  0
LINE
  8
0
 10
164.5
 20
-50.25
 11
164.383
 21
-50.25
  0
LINE
  8
0
 10
164.383
 20
-50.25
 11
164.471
 21
-51.6605
  0
LINE
  8
0
 10
164.471
 20
-51.6605
 11
163.79
 21
-55.2307
  0
LINE
  8
0
 10
163.79
 20
-55.2307
 11
162.243
 21
-58.5195
  0
LINE
  8
0
 10
162.243
 20
-58.5195
 11
159.926
 21
-61.32
  0
LINE
  8
0
 10
159.926
 20
-61.32
 11
156.985
 21
-63.4564
  0
LINE
  8
0
 10
156.985
 20
-63.4564
 11
153.606
 21
-64.7944
  0
LINE
  8
0
 10
153.606
 20
-64.7944
 11
150
 21
-65.25
  0
LINE
  8
0
 10
150
 20
-65.25
 11
146.394
 21
-64.7944
  0
LINE
  8
0
 10
1601.24
 20
-3.80421
 11
1602.14
 21
-3.3773
  0
LINE
  8
0
 10
1602.14
 20
-3.3773
 11
1602.92
 21
-2.73817
  0
LINE
  8
0
 10
1602.92
 20
-2.73817
 11
1603.51
 21
-1.927
  0
LINE
  8
0
 10
1603.51
 20
-1.927
 11
1603.87
 21
-0.994751
  0
LINE
  8
0
 10
1603.87
 20
-0.994751
 11
1604
 21
0
  0
LINE
  8
0
 10
1604
 20
0
 11
1603.87
 21
0.994751
  0
LINE
  8
0
 10
1603.87
 20
0.994751
 11
1603.51
 21
1.927
  0
LINE
  8
0
 10
1603.51
 20
1.927
 11
1602.92
 21
2.73817
  0
LINE
  8
0
 10
1602.92
 20
2.73817
 11
1602.14
 21
3.3773
  0
LINE
  8
0
 10
1602.14
 20
3.3773
 11
1601.24
 21
3.80421
  0
LINE
  8
0
 10
1601.24
 20
3.80421
 11
1600.25
 21
3.9921
  0
LINE
  8
0
 10
1600.25
 20
3.9921
 11
1599.25
 21
3.92914
  0
LINE
  8
0
 10
1599.25
 20
3.92914
 11
1598.3
 21
3.61929
  0
LINE
  8
0
 10
1598.3
 20
3.61929
 11
1597.45
 21
3.08205
  0
LINE
  8
0
 10
1597.45
 20
3.08205
 11
1596.76
 21
2.35114
  0
LINE
  8
0
 10
1596.76
 20
2.35114
 11
1596.28
 21
1.47249
  0
LINE
  8
0
 10
1596.28
 20
1.47249
 11
1596.03
 21
0.501328
  0
LINE
  8
0
 10
1596.03
 20
0.501328
 11
1596.03
 21
-0.501328
  0
LINE
  8
0
 10
1596.03
 20
-0.501328
 11
1596.28
 21
-1.47249
  0
LINE
  8
0
 10
1596.28
 20
-1.47249
 11
1596.76
 21
-2.35114
  0
LINE
  8
0
 10
1596.76
 20
-2.35114
 11
1597.45
 21
-3.08205
  0
LINE
  8
0
 10
1597.45
 20
-3.08205
 11
1598.3
 21
-3.61929
  0
LINE
  8
0
 10
1598.3
 20
-3.61929
 11
1599.25
 21
-3.92914
  0
LINE
  8
0
 10
1599.25
 20
-3.92914
 11
1600.25
 21
-3.9921
  0
LINE
  8
0
 10
1600.25
 20
-3.9921
 11
1601.24
 21
-3.80421
  0
LINE
  8
0
 10
1599.72
 20
-1.47342
 11
1599.36
 21
-1.35724
  0
LINE
  8
0
 10
1599.36
 20
-1.35724
 11
1599.04
 21
-1.15576
  0
LINE
  8
0
 10
1599.04
 20
-1.15576
 11
1598.79
 21
-0.881668
  0
LINE
  8
0
 10
1598.79
 20
-0.881668
 11
1598.61
 21
-0.552185
  0
LINE
  8
0
 10
1598.61
 20
-0.552185
 11
1598.51
 21
-0.187988
  0
LINE
  8
0
 10
1598.51
 20
-0.187988
 11
1598.51
 21
0.187988
  0
LINE
  8
0
 10
1598.51
 20
0.187988
 11
1598.61
 21
0.552185
  0
LINE
  8
0
 10
1598.61
 20
0.552185
 11
1598.79
 21
0.881668
  0
LINE
  8
0
 10
1598.79
 20
0.881668
 11
1599.04
 21
1.15576
  0
LINE
  8
0
 10
1599.04
 20
1.15576
 11
1599.36
 21
1.35724
  0
LINE
  8
0
 10
1599.36
 20
1.35724
 11
1599.72
 21
1.47342
  0
LINE
  8
0
 10
1599.72
 20
1.47342
 11
1600.09
 21
1.49704
  0
LINE
  8
0
 10
1600.09
 20
1.49704
 11
1600.46
 21
1.42657
  0
LINE
  8
0
 10
1600.46
 20
1.42657
 11
1600.8
 21
1.26648
  0
LINE
  8
0
 10
1600.8
 20
1.26648
 11
1601.09
 21
1.02681
  0
LINE
  8
0
 10
1601.09
 20
1.02681
 11
1601.31
 21
0.722626
  0
LINE
  8
0
 10
1601.31
 20
0.722626
 11
1601.45
 21
0.373032
  0
LINE
  8
0
 10
1601.45
 20
0.373032
 11
1601.5
 21
0
  0
LINE
  8
0
 10
1601.5
 20
0
 11
1601.45
 21
-0.373032
  0
LINE
  8
0
 10
1601.45
 20
-0.373032
 11
1601.31
 21
-0.722626
  0
LINE
  8
0
 10
1601.31
 20
-0.722626
 11
1601.09
 21
-1.02681
  0
LINE
  8
0
 10
1601.09
 20
-1.02681
 11
1600.8
 21
-1.26648
  0
LINE
  8
0
 10
1600.8
 20
-1.26648
 11
1600.46
 21
-1.42657
  0
LINE
  8
0
 10
1600.46
 20
-1.42657
 11
1600.09
 21
-1.49704
  0
LINE
  8
0
 10
1600.09
 20
-1.49704
 11
1599.72
 21
-1.47342
  0
LINE
  8
0
 10
2077.24
 20
-44.8429
 11
2078.41
 21
-44.3815
  0
LINE
  8
0
 10
2078.41
 20
-44.3815
 11
2079.42
 21
-43.6448
  0
LINE
  8
0
 10
2079.42
 20
-43.6448
 11
2080.22
 21
-42.6791
  0
LINE
  8
0
 10
2080.22
 20
-42.6791
 11
2080.76
 21
-41.5451
  0
LINE
  8
0
 10
2080.76
 20
-41.5451
 11
2081
 21
-40
  0
LINE
  8
0
 10
2081
 20
-40
 11
2081
 21
-29.5
  0
LINE
  8
0
 10
2081
 20
-29.5
 11
1993
 21
-29.5
  0
LINE
  8
0
 10
1993
 20
-29.5
 11
1993
 21
-12.5
  0
LINE
  8
0
 10
1993
 20
-12.5
 11
1976
 21
-12.5
  0
LINE
  8
0
 10
1976
 20
-12.5
 11
1976
 21
-22.5
  0
LINE
  8
0
 10
1976
 20
-22.5
 11
1961
 21
-22.5
  0
LINE
  8
0
 10
1961
 20
-22.5
 11
1961
 21
-40
  0
LINE
  8
0
 10
1961
 20
-40
 11
1961.16
 21
-41.2435
  0
LINE
  8
0
 10
1961.16
 20
-41.2435
 11
1961.62
 21
-42.4088
  0
LINE
  8
0
 10
1961.62
 20
-42.4088
 11
1962.36
 21
-43.4227
  0
LINE
  8
0
 10
1962.36
 20
-43.4227
 11
1963.32
 21
-44.2216
  0
LINE
  8
0
 10
1963.32
 20
-44.2216
 11
1964.45
 21
-44.7553
  0
LINE
  8
0
 10
1964.45
 20
-44.7553
 11
1966
 21
-45
  0
LINE
  8
0
 10
1966
 20
-45
 11
2076
 21
-45
  0
LINE
  8
0
 10
2076
 20
-45
 11
2077.24
 21
-44.8429
  0
LINE
  8
0
 10
1966.44
 20
-41.9469
 11
1965.72
 21
-41.7145
  0
LINE
  8
0
 10
1965.72
 20
-41.7145
 11
1965.09
 21
-41.3115
  0
LINE
  8
0
 10
1965.09
 20
-41.3115
 11
1964.57
 21
-40.7634
  0
LINE
  8
0
 10
1964.57
 20
-40.7634
 11
1964.21
 21
-40.1044
  0
LINE
  8
0
 10
1964.21
 20
-40.1044
 11
1964.02
 21
-39.376
  0
LINE
  8
0
 10
1964.02
 20
-39.376
 11
1964.02
 21
-38.624
  0
LINE
  8
0
 10
1964.02
 20
-38.624
 11
1964.21
 21
-37.8956
  0
LINE
  8
0
 10
1964.21
 20
-37.8956
 11
1964.57
 21
-37.2366
  0
LINE
  8
0
 10
1964.57
 20
-37.2366
 11
1965.09
 21
-36.6885
  0
LINE
  8
0
 10
1965.09
 20
-36.6885
 11
1965.72
 21
-36.2855
  0
LINE
  8
0
 10
1965.72
 20
-36.2855
 11
1966.44
 21
-36.0531
  0
LINE
  8
0
 10
1966.44
 20
-36.0531
 11
1967.19
 21
-36.0059
  0
LINE
  8
0
 10
1967.19
 20
-36.0059
 11
1967.93
 21
-36.1468
  0
LINE
  8
0
 10
1967.93
 20
-36.1468
 11
1968.61
 21
-36.467
  0
LINE
  8
0
 10
1968.61
 20
-36.467
 11
1969.19
 21
-36.9464
  0
LINE
  8
0
 10
1969.19
 20
-36.9464
 11
1969.63
 21
-37.5547
  0
LINE
  8
0
 10
1969.63
 20
-37.5547
 11
1969.91
 21
-38.2539
  0
LINE
  8
0
 10
1969.91
 20
-38.2539
 11
1970
 21
-39
  0
LINE
  8
0
 10
1970
 20
-39
 11
1969.91
 21
-39.7461
  0
LINE
  8
0
 10
1969.91
 20
-39.7461
 11
1969.63
 21
-40.4453
  0
LINE
  8
0
 10
1969.63
 20
-40.4453
 11
1969.19
 21
-41.0536
  0
LINE
  8
0
 10
1969.19
 20
-41.0536
 11
1968.61
 21
-41.533
  0
LINE
  8
0
 10
1968.61
 20
-41.533
 11
1967.93
 21
-41.8532
  0
LINE
  8
0
 10
1967.93
 20
-41.8532
 11
1967.19
 21
-41.9941
  0
LINE
  8
0
 10
1967.19
 20
-41.9941
 11
1966.44
 21
-41.9469
  0
LINE
  8
0
 10
2074.44
 20
-41.9469
 11
2073.72
 21
-41.7145
  0
LINE
  8
0
 10
2073.72
 20
-41.7145
 11
2073.09
 21
-41.3115
  0
LINE
  8
0
 10
2073.09
 20
-41.3115
 11
2072.57
 21
-40.7634
  0
LINE
  8
0
 10
2072.57
 20
-40.7634
 11
2072.21
 21
-40.1044
  0
LINE
  8
0
 10
2072.21
 20
-40.1044
 11
2072.02
 21
-39.376
  0
LINE
  8
0
 10
2072.02
 20
-39.376
 11
2072.02
 21
-38.624
  0
LINE
  8
0
 10
2072.02
 20
-38.624
 11
2072.21
 21
-37.8956
  0
LINE
  8
0
 10
2072.21
 20
-37.8956
 11
2072.57
 21
-37.2366
  0
LINE
  8
0
 10
2072.57
 20
-37.2366
 11
2073.09
 21
-36.6885
  0
LINE
  8
0
 10
2073.09
 20
-36.6885
 11
2073.72
 21
-36.2855
  0
LINE
  8
0
 10
2073.72
 20
-36.2855
 11
2074.44
 21
-36.0531
  0
LINE
  8
0
 10
2074.44
 20
-36.0531
 11
2075.19
 21
-36.0059
  0
LINE
  8
0
 10
2075.19
 20
-36.0059
 11
2075.93
 21
-36.1468
  0
LINE
  8
0
 10
2075.93
 20
-36.1468
 11
2076.61
 21
-36.467
  0
LINE
  8
0
 10
2076.61
 20
-36.467
 11
2077.19
 21
-36.9464
  0
LINE
  8
0
 10
2077.19
 20
-36.9464
 11
2077.63
 21
-37.5547
  0
LINE
  8
0
 10
2077.63
 20
-37.5547
 11
2077.91
 21
-38.2539
  0
LINE
  8
0
 10
2077.91
 20
-38.2539
 11
2078
 21
-39
  0
LINE
  8
0
 10
2078
 20
-39
 11
2077.91
 21
-39.7461
  0
LINE
  8
0
 10
2077.91
 20
-39.7461
 11
2077.63
 21
-40.4453
  0
LINE
  8
0
 10
2077.63
 20
-40.4453
 11
2077.19
 21
-41.0536
  0
LINE
  8
0
 10
2077.19
 20
-41.0536
 11
2076.61
 21
-41.533
  0
LINE
  8
0
 10
2076.61
 20
-41.533
 11
2075.93
 21
-41.8532
  0
LINE
  8
0
 10
2075.93
 20
-41.8532
 11
2075.19
 21
-41.9941
  0
LINE
  8
0
 10
2075.19
 20
-41.9941
 11
2074.44
 21
-41.9469
  0
LINE
  8
0
 10
2200.24
 20
-44.8429
 11
2201.41
 21
-44.3815
  0
LINE
  8
0
 10
2201.41
 20
-44.3815
 11
2202.42
 21
-43.6448
  0
LINE
  8
0
 10
2202.42
 20
-43.6448
 11
2203.22
 21
-42.6791
  0
LINE
  8
0
 10
2203.22
 20
-42.6791
 11
2203.76
 21
-41.5451
  0
LINE
  8
0
 10
2203.76
 20
-41.5451
 11
2204
 21
-40
  0
LINE
  8
0
 10
2204
 20
-40
 11
2204
 21
-29.5
  0
LINE
  8
0
 10
2204
 20
-29.5
 11
2116
 21
-29.5
  0
LINE
  8
0
 10
2116
 20
-29.5
 11
2116
 21
-12.5
  0
LINE
  8
0
 10
2116
 20
-12.5
 11
2099
 21
-12.5
  0
LINE
  8
0
 10
2099
 20
-12.5
 11
2099
 21
-22.5
  0
LINE
  8
0
 10
2099
 20
-22.5
 11
2084
 21
-22.5
  0
LINE
  8
0
 10
2084
 20
-22.5
 11
2084
 21
-40
  0
LINE
  8
0
 10
2084
 20
-40
 11
2084.16
 21
-41.2435
  0
LINE
  8
0
 10
2084.16
 20
-41.2435
 11
2084.62
 21
-42.4088
  0
LINE
  8
0
 10
2084.62
 20
-42.4088
 11
2085.36
 21
-43.4227
  0
LINE
  8
0
 10
2085.36
 20
-43.4227
 11
2086.32
 21
-44.2216
  0
LINE
  8
0
 10
2086.32
 20
-44.2216
 11
2087.45
 21
-44.7553
  0
LINE
  8
0
 10
2087.45
 20
-44.7553
 11
2089
 21
-45
  0
LINE
  8
0
 10
2089
 20
-45
 11
2199
 21
-45
  0
LINE
  8
0
 10
2199
 20
-45
 11
2200.24
 21
-44.8429
  0
LINE
  8
0
 10
2089.44
 20
-41.9469
 11
2088.72
 21
-41.7145
  0
LINE
  8
0
 10
2088.72
 20
-41.7145
 11
2088.09
 21
-41.3115
  0
LINE
  8
0
 10
2088.09
 20
-41.3115
 11
2087.57
 21
-40.7634
  0
LINE
  8
0
 10
2087.57
 20
-40.7634
 11
2087.21
 21
-40.1044
  0
LINE
  8
0
 10
2087.21
 20
-40.1044
 11
2087.02
 21
-39.376
  0
LINE
  8
0
 10
2087.02
 20
-39.376
 11
2087.02
 21
-38.624
  0
LINE
  8
0
 10
2087.02
 20
-38.624
 11
2087.21
 21
-37.8956
  0
LINE
  8
0
 10
2087.21
 20
-37.8956
 11
2087.57
 21
-37.2366
  0
LINE
  8
0
 10
2087.57
 20
-37.2366
 11
2088.09
 21
-36.6885
  0
LINE
  8
0
 10
2088.09
 20
-36.6885
 11
2088.72
 21
-36.2855
  0
LINE
  8
0
 10
2088.72
 20
-36.2855
 11
2089.44
 21
-36.0531
  0
LINE
  8
0
 10
2089.44
 20
-36.0531
 11
2090.19
 21
-36.0059
  0
LINE
  8
0
 10
2090.19
 20
-36.0059
 11
2090.93
 21
-36.1468
  0
LINE
  8
0
 10
2090.93
 20
-36.1468
 11
2091.61
 21
-36.467
  0
LINE
  8
0
 10
2091.61
 20
-36.467
 11
2092.19
 21
-36.9464
  0
LINE
  8
0
 10
2092.19
 20
-36.9464
 11
2092.63
 21
-37.5547
  0
LINE
  8
0
 10
2092.63
 20
-37.5547
 11
2092.91
 21
-38.2539
  0
LINE
  8
0
 10
2092.91
 20
-38.2539
 11
2093
 21
-39
  0
LINE
  8
0
 10
2093
 20
-39
 11
2092.91
 21
-39.7461
  0
LINE
  8
0
 10
2092.91
 20
-39.7461
 11
2092.63
 21
-40.4453
  0
LINE
  8
0
 10
2092.63
 20
-40.4453
 11
2092.19
 21
-41.0536
  0
LINE
  8
0
 10
2092.19
 20
-41.0536
 11
2091.61
 21
-41.533
  0
LINE
  8
0
 10
2091.61
 20
-41.533
 11
2090.93
 21
-41.8532
  0
LINE
  8
0
 10
2090.93
 20
-41.8532
 11
2090.19
 21
-41.9941
  0
LINE
  8
0
 10
2090.19
 20
-41.9941
 11
2089.44
 21
-41.9469
  0
LINE
  8
0
 10
2197.44
 20
-41.9469
 11
2196.72
 21
-41.7145
  0
LINE
  8
0
 10
2196.72
 20
-41.7145
 11
2196.09
 21
-41.3115
  0
LINE
  8
0
 10
2196.09
 20
-41.3115
 11
2195.57
 21
-40.7634
  0
LINE
  8
0
 10
2195.57
 20
-40.7634
 11
2195.21
 21
-40.1044
  0
LINE
  8
0
 10
2195.21
 20
-40.1044
 11
2195.02
 21
-39.376
  0
LINE
  8
0
 10
2195.02
 20
-39.376
 11
2195.02
 21
-38.624
  0
LINE
  8
0
 10
2195.02
 20
-38.624
 11
2195.21
 21
-37.8956
  0
LINE
  8
0
 10
2195.21
 20
-37.8956
 11
2195.57
 21
-37.2366
  0
LINE
  8
0
 10
2195.57
 20
-37.2366
 11
2196.09
 21
-36.6885
  0
LINE
  8
0
 10
2196.09
 20
-36.6885
 11
2196.72
 21
-36.2855
  0
LINE
  8
0
 10
2196.72
 20
-36.2855
 11
2197.44
 21
-36.0531
  0
LINE
  8
0
 10
2197.44
 20
-36.0531
 11
2198.19
 21
-36.0059
  0
LINE
  8
0
 10
2198.19
 20
-36.0059
 11
2198.93
 21
-36.1468
  0
LINE
  8
0
 10
2198.93
 20
-36.1468
 11
2199.61
 21
-36.467
  0
LINE
  8
0
 10
2199.61
 20
-36.467
 11
2200.19
 21
-36.9464
  0
LINE
  8
0
 10
2200.19
 20
-36.9464
 11
2200.63
 21
-37.5547
  0
LINE
  8
0
 10
2200.63
 20
-37.5547
 11
2200.91
 21
-38.2539
  0
LINE
  8
0
 10
2200.91
 20
-38.2539
 11
2201
 21
-39
  0
LINE
  8
0
 10
2201
 20
-39
 11
2200.91
 21
-39.7461
  0
LINE
  8
0
 10
2200.91
 20
-39.7461
 11
2200.63
 21
-40.4453
  0
LINE
  8
0
 10
2200.63
 20
-40.4453
 11
2200.19
 21
-41.0536
  0
LINE
  8
0
 10
2200.19
 20
-41.0536
 11
2199.61
 21
-41.533
  0
LINE
  8
0
 10
2199.61
 20
-41.533
 11
2198.93
 21
-41.8532
  0
LINE
  8
0
 10
2198.93
 20
-41.8532
 11
2198.19
 21
-41.9941
  0
LINE
  8
0
 10
2198.19
 20
-41.9941
 11
2197.44
 21
-41.9469
  0
ENDSEC
  0
SECTION
  2
OBJECTS
  0
DICTIONARY
  0
ENDSEC
  0
EOF
