<?xml version="1.0" standalone="no"?>
<!DOCTYPE svg PUBLIC "-//W3C//DTD SVG 1.1//EN" "http://www.w3.org/Graphics/SVG/1.1/DTD/svg11.dtd">
<svg width="116mm" height="92mm" viewBox="-105 -18 116 92" xmlns="http://www.w3.org/2000/svg" version="1.1">
<title>OpenSCAD Model</title>
<path d="
M 6.74844,73.3479 L 7.91376,72.8865 L 8.92772,72.1498 L 9.72662,71.1841 L 10.2603,70.0501 L 10.505,68.505
 L 10.505,-12.505 L 10.3479,-13.7484 L 9.88652,-14.9138 L 9.14983,-15.9277 L 8.18413,-16.7266 L 7.05008,-17.2603
 L 5.50499,-17.505 L -99.3437,-17.505 L -97.6808,-13.3049 L -97.5159,-12 L -90,-12 L -90,-4
 L -96.5053,-4 L -96.379,-3 L -100,-3 L -100,9 L -97.137,9 L -97.6808,13.3049
 L -102.618,25.7738 L -104.505,28.3716 L -104.505,68.505 L -104.348,69.7484 L -103.887,70.9138 L -103.15,71.9277
 L -102.184,72.7266 L -101.05,73.2603 L -99.505,73.505 L 5.50499,73.505 z
M -32.8466,7 L -32.8466,4.75 L -31.6922,4.75 L -31.6922,-7 L -28.9428,-7 L -28.9428,-5
 L -30,-5 L -30,5 L -28.9428,5 L -28.9428,7 z
M -53.7303,66.2787 L -57.2263,64.8946 L -60.2682,62.6845 L -62.6649,59.7874 L -64.2658,56.3853 L -64.9704,52.6918
 L -64.8482,50.75 L -65,50.75 L -65,29.25 L -35,29.25 L -35,50.75 L -35.1518,50.75
 L -35.0296,52.6918 L -35.7341,56.3853 L -37.3351,59.7874 L -39.7318,62.6845 L -42.7737,64.8946 L -46.2697,66.2787
 L -50,66.75 z
" stroke="black" fill="lightgray" stroke-width="0.5"/>
</svg>
