  0
SECTION
  2
BLOCKS
  0
ENDSEC
  0
SECTION
  2
ENTITIES
  0
LINE
  8
0
 10
1127
 20
-29.5
 11
1039
 21
-29.5
  0
LINE
  8
0
 10
1039
 20
-29.5
 11
1039
 21
-12.5
  0
LINE
  8
0
 10
1039
 20
-12.5
 11
1014
 21
-12.5
  0
LINE
  8
0
 10
1014
 20
-12.5
 11
1014
 21
12.5
  0
LINE
  8
0
 10
1014
 20
12.5
 11
1039
 21
12.5
  0
LINE
  8
0
 10
1039
 20
12.5
 11
1039
 21
29.5
  0
LINE
  8
0
 10
1039
 20
29.5
 11
1127
 21
29.5
  0
LINE
  8
0
 10
1127
 20
29.5
 11
1127
 21
45
  0
LINE
  8
0
 10
1127
 20
45
 11
1007
 21
45
  0
LINE
  8
0
 10
1007
 20
45
 11
1007
 21
-45
  0
LINE
  8
0
 10
1007
 20
-45
 11
1127
 21
-45
  0
LINE
  8
0
 10
1127
 20
-45
 11
1127
 21
-29.5
  0
LINE
  8
0
 10
1120.44
 20
36.0531
 11
1119.72
 21
36.2855
  0
LINE
  8
0
 10
1119.72
 20
36.2855
 11
1119.09
 21
36.6885
  0
LINE
  8
0
 10
1119.09
 20
36.6885
 11
1118.57
 21
37.2366
  0
LINE
  8
0
 10
1118.57
 20
37.2366
 11
1118.21
 21
37.8956
  0
LINE
  8
0
 10
1118.21
 20
37.8956
 11
1118.02
 21
38.624
  0
LINE
  8
0
 10
1118.02
 20
38.624
 11
1118.02
 21
39.376
  0
LINE
  8
0
 10
1118.02
 20
39.376
 11
1118.21
 21
40.1044
  0
LINE
  8
0
 10
1118.21
 20
40.1044
 11
1118.57
 21
40.7634
  0
LINE
  8
0
 10
1118.57
 20
40.7634
 11
1119.09
 21
41.3115
  0
LINE
  8
0
 10
1119.09
 20
41.3115
 11
1119.72
 21
41.7145
  0
LINE
  8
0
 10
1119.72
 20
41.7145
 11
1120.44
 21
41.9469
  0
LINE
  8
0
 10
1120.44
 20
41.9469
 11
1121.19
 21
41.9941
  0
LINE
  8
0
 10
1121.19
 20
41.9941
 11
1121.93
 21
41.8532
  0
LINE
  8
0
 10
1121.93
 20
41.8532
 11
1122.61
 21
41.533
  0
LINE
  8
0
 10
1122.61
 20
41.533
 11
1123.19
 21
41.0536
  0
LINE
  8
0
 10
1123.19
 20
41.0536
 11
1123.63
 21
40.4453
  0
LINE
  8
0
 10
1123.63
 20
40.4453
 11
1123.91
 21
39.7461
  0
LINE
  8
0
 10
1123.91
 20
39.7461
 11
1124
 21
39
  0
LINE
  8
0
 10
1124
 20
39
 11
1123.91
 21
38.2539
  0
LINE
  8
0
 10
1123.91
 20
38.2539
 11
1123.63
 21
37.5547
  0
LINE
  8
0
 10
1123.63
 20
37.5547
 11
1123.19
 21
36.9464
  0
LINE
  8
0
 10
1123.19
 20
36.9464
 11
1122.61
 21
36.467
  0
LINE
  8
0
 10
1122.61
 20
36.467
 11
1121.93
 21
36.1468
  0
LINE
  8
0
 10
1121.93
 20
36.1468
 11
1121.19
 21
36.0059
  0
LINE
  8
0
 10
1121.19
 20
36.0059
 11
1120.44
 21
36.0531
  0
LINE
  8
0
 10
1012.44
 20
36.0531
 11
1011.72
 21
36.2855
  0
LINE
  8
0
 10
1011.72
 20
36.2855
 11
1011.09
 21
36.6885
  0
LINE
  8
0
 10
1011.09
 20
36.6885
 11
1010.57
 21
37.2366
  0
LINE
  8
0
 10
1010.57
 20
37.2366
 11
1010.21
 21
37.8956
  0
LINE
  8
0
 10
1010.21
 20
37.8956
 11
1010.02
 21
38.624
  0
LINE
  8
0
 10
1010.02
 20
38.624
 11
1010.02
 21
39.376
  0
LINE
  8
0
 10
1010.02
 20
39.376
 11
1010.21
 21
40.1044
  0
LINE
  8
0
 10
1010.21
 20
40.1044
 11
1010.57
 21
40.7634
  0
LINE
  8
0
 10
1010.57
 20
40.7634
 11
1011.09
 21
41.3115
  0
LINE
  8
0
 10
1011.09
 20
41.3115
 11
1011.72
 21
41.7145
  0
LINE
  8
0
 10
1011.72
 20
41.7145
 11
1012.44
 21
41.9469
  0
LINE
  8
0
 10
1012.44
 20
41.9469
 11
1013.19
 21
41.9941
  0
LINE
  8
0
 10
1013.19
 20
41.9941
 11
1013.93
 21
41.8532
  0
LINE
  8
0
 10
1013.93
 20
41.8532
 11
1014.61
 21
41.533
  0
LINE
  8
0
 10
1014.61
 20
41.533
 11
1015.19
 21
41.0536
  0
LINE
  8
0
 10
1015.19
 20
41.0536
 11
1015.63
 21
40.4453
  0
LINE
  8
0
 10
1015.63
 20
40.4453
 11
1015.91
 21
39.7461
  0
LINE
  8
0
 10
1015.91
 20
39.7461
 11
1016
 21
39
  0
LINE
  8
0
 10
1016
 20
39
 11
1015.91
 21
38.2539
  0
LINE
  8
0
 10
1015.91
 20
38.2539
 11
1015.63
 21
37.5547
  0
LINE
  8
0
 10
1015.63
 20
37.5547
 11
1015.19
 21
36.9464
  0
LINE
  8
0
 10
1015.19
 20
36.9464
 11
1014.61
 21
36.467
  0
LINE
  8
0
 10
1014.61
 20
36.467
 11
1013.93
 21
36.1468
  0
LINE
  8
0
 10
1013.93
 20
36.1468
 11
1013.19
 21
36.0059
  0
LINE
  8
0
 10
1013.19
 20
36.0059
 11
1012.44
 21
36.0531
  0
LINE
  8
0
 10
1032.72
 20
25.5266
 11
1032.36
 21
25.6427
  0
LINE
  8
0
 10
1032.36
 20
25.6427
 11
1032.04
 21
25.8442
  0
LINE
  8
0
 10
1032.04
 20
25.8442
 11
1031.79
 21
26.1183
  0
LINE
  8
0
 10
1031.79
 20
26.1183
 11
1031.61
 21
26.4478
  0
LINE
  8
0
 10
1031.61
 20
26.4478
 11
1031.51
 21
26.812
  0
LINE
  8
0
 10
1031.51
 20
26.812
 11
1031.51
 21
27.188
  0
LINE
  8
0
 10
1031.51
 20
27.188
 11
1031.61
 21
27.5522
  0
LINE
  8
0
 10
1031.61
 20
27.5522
 11
1031.79
 21
27.8817
  0
LINE
  8
0
 10
1031.79
 20
27.8817
 11
1032.04
 21
28.1558
  0
LINE
  8
0
 10
1032.04
 20
28.1558
 11
1032.36
 21
28.3572
  0
LINE
  8
0
 10
1032.36
 20
28.3572
 11
1032.72
 21
28.4734
  0
LINE
  8
0
 10
1032.72
 20
28.4734
 11
1033.09
 21
28.497
  0
LINE
  8
0
 10
1033.09
 20
28.497
 11
1033.46
 21
28.4266
  0
LINE
  8
0
 10
1033.46
 20
28.4266
 11
1033.8
 21
28.2665
  0
LINE
  8
0
 10
1033.8
 20
28.2665
 11
1034.09
 21
28.0268
  0
LINE
  8
0
 10
1034.09
 20
28.0268
 11
1034.31
 21
27.7226
  0
LINE
  8
0
 10
1034.31
 20
27.7226
 11
1034.45
 21
27.373
  0
LINE
  8
0
 10
1034.45
 20
27.373
 11
1034.5
 21
27
  0
LINE
  8
0
 10
1034.5
 20
27
 11
1034.45
 21
26.627
  0
LINE
  8
0
 10
1034.45
 20
26.627
 11
1034.31
 21
26.2774
  0
LINE
  8
0
 10
1034.31
 20
26.2774
 11
1034.09
 21
25.9732
  0
LINE
  8
0
 10
1034.09
 20
25.9732
 11
1033.8
 21
25.7335
  0
LINE
  8
0
 10
1033.8
 20
25.7335
 11
1033.46
 21
25.5734
  0
LINE
  8
0
 10
1033.46
 20
25.5734
 11
1033.09
 21
25.503
  0
LINE
  8
0
 10
1033.09
 20
25.503
 11
1032.72
 21
25.5266
  0
LINE
  8
0
 10
1032.72
 20
-28.4734
 11
1032.36
 21
-28.3572
  0
LINE
  8
0
 10
1032.36
 20
-28.3572
 11
1032.04
 21
-28.1558
  0
LINE
  8
0
 10
1032.04
 20
-28.1558
 11
1031.79
 21
-27.8817
  0
LINE
  8
0
 10
1031.79
 20
-27.8817
 11
1031.61
 21
-27.5522
  0
LINE
  8
0
 10
1031.61
 20
-27.5522
 11
1031.51
 21
-27.188
  0
LINE
  8
0
 10
1031.51
 20
-27.188
 11
1031.51
 21
-26.812
  0
LINE
  8
0
 10
1031.51
 20
-26.812
 11
1031.61
 21
-26.4478
  0
LINE
  8
0
 10
1031.61
 20
-26.4478
 11
1031.79
 21
-26.1183
  0
LINE
  8
0
 10
1031.79
 20
-26.1183
 11
1032.04
 21
-25.8442
  0
LINE
  8
0
 10
1032.04
 20
-25.8442
 11
1032.36
 21
-25.6427
  0
LINE
  8
0
 10
1032.36
 20
-25.6427
 11
1032.72
 21
-25.5266
  0
LINE
  8
0
 10
1032.72
 20
-25.5266
 11
1033.09
 21
-25.503
  0
LINE
  8
0
 10
1033.09
 20
-25.503
 11
1033.46
 21
-25.5734
  0
LINE
  8
0
 10
1033.46
 20
-25.5734
 11
1033.8
 21
-25.7335
  0
LINE
  8
0
 10
1033.8
 20
-25.7335
 11
1034.09
 21
-25.9732
  0
LINE
  8
0
 10
1034.09
 20
-25.9732
 11
1034.31
 21
-26.2774
  0
LINE
  8
0
 10
1034.31
 20
-26.2774
 11
1034.45
 21
-26.627
  0
LINE
  8
0
 10
1034.45
 20
-26.627
 11
1034.5
 21
-27
  0
LINE
  8
0
 10
1034.5
 20
-27
 11
1034.45
 21
-27.373
  0
LINE
  8
0
 10
1034.45
 20
-27.373
 11
1034.31
 21
-27.7226
  0
LINE
  8
0
 10
1034.31
 20
-27.7226
 11
1034.09
 21
-28.0268
  0
LINE
  8
0
 10
1034.09
 20
-28.0268
 11
1033.8
 21
-28.2665
  0
LINE
  8
0
 10
1033.8
 20
-28.2665
 11
1033.46
 21
-28.4266
  0
LINE
  8
0
 10
1033.46
 20
-28.4266
 11
1033.09
 21
-28.497
  0
LINE
  8
0
 10
1033.09
 20
-28.497
 11
1032.72
 21
-28.4734
  0
LINE
  8
0
 10
1120.44
 20
-41.9469
 11
1119.72
 21
-41.7145
  0
LINE
  8
0
 10
1119.72
 20
-41.7145
 11
1119.09
 21
-41.3115
  0
LINE
  8
0
 10
1119.09
 20
-41.3115
 11
1118.57
 21
-40.7634
  0
LINE
  8
0
 10
1118.57
 20
-40.7634
 11
1118.21
 21
-40.1044
  0
LINE
  8
0
 10
1118.21
 20
-40.1044
 11
1118.02
 21
-39.376
  0
LINE
  8
0
 10
1118.02
 20
-39.376
 11
1118.02
 21
-38.624
  0
LINE
  8
0
 10
1118.02
 20
-38.624
 11
1118.21
 21
-37.8956
  0
LINE
  8
0
 10
1118.21
 20
-37.8956
 11
1118.57
 21
-37.2366
  0
LINE
  8
0
 10
1118.57
 20
-37.2366
 11
1119.09
 21
-36.6885
  0
LINE
  8
0
 10
1119.09
 20
-36.6885
 11
1119.72
 21
-36.2855
  0
LINE
  8
0
 10
1119.72
 20
-36.2855
 11
1120.44
 21
-36.0531
  0
LINE
  8
0
 10
1120.44
 20
-36.0531
 11
1121.19
 21
-36.0059
  0
LINE
  8
0
 10
1121.19
 20
-36.0059
 11
1121.93
 21
-36.1468
  0
LINE
  8
0
 10
1121.93
 20
-36.1468
 11
1122.61
 21
-36.467
  0
LINE
  8
0
 10
1122.61
 20
-36.467
 11
1123.19
 21
-36.9464
  0
LINE
  8
0
 10
1123.19
 20
-36.9464
 11
1123.63
 21
-37.5547
  0
LINE
  8
0
 10
1123.63
 20
-37.5547
 11
1123.91
 21
-38.2539
  0
LINE
  8
0
 10
1123.91
 20
-38.2539
 11
1124
 21
-39
  0
LINE
  8
0
 10
1124
 20
-39
 11
1123.91
 21
-39.7461
  0
LINE
  8
0
 10
1123.91
 20
-39.7461
 11
1123.63
 21
-40.4453
  0
LINE
  8
0
 10
1123.63
 20
-40.4453
 11
1123.19
 21
-41.0536
  0
LINE
  8
0
 10
1123.19
 20
-41.0536
 11
1122.61
 21
-41.533
  0
LINE
  8
0
 10
1122.61
 20
-41.533
 11
1121.93
 21
-41.8532
  0
LINE
  8
0
 10
1121.93
 20
-41.8532
 11
1121.19
 21
-41.9941
  0
LINE
  8
0
 10
1121.19
 20
-41.9941
 11
1120.44
 21
-41.9469
  0
LINE
  8
0
 10
1012.44
 20
-41.9469
 11
1011.72
 21
-41.7145
  0
LINE
  8
0
 10
1011.72
 20
-41.7145
 11
1011.09
 21
-41.3115
  0
LINE
  8
0
 10
1011.09
 20
-41.3115
 11
1010.57
 21
-40.7634
  0
LINE
  8
0
 10
1010.57
 20
-40.7634
 11
1010.21
 21
-40.1044
  0
LINE
  8
0
 10
1010.21
 20
-40.1044
 11
1010.02
 21
-39.376
  0
LINE
  8
0
 10
1010.02
 20
-39.376
 11
1010.02
 21
-38.624
  0
LINE
  8
0
 10
1010.02
 20
-38.624
 11
1010.21
 21
-37.8956
  0
LINE
  8
0
 10
1010.21
 20
-37.8956
 11
1010.57
 21
-37.2366
  0
LINE
  8
0
 10
1010.57
 20
-37.2366
 11
1011.09
 21
-36.6885
  0
LINE
  8
0
 10
1011.09
 20
-36.6885
 11
1011.72
 21
-36.2855
  0
LINE
  8
0
 10
1011.72
 20
-36.2855
 11
1012.44
 21
-36.0531
  0
LINE
  8
0
 10
1012.44
 20
-36.0531
 11
1013.19
 21
-36.0059
  0
LINE
  8
0
 10
1013.19
 20
-36.0059
 11
1013.93
 21
-36.1468
  0
LINE
  8
0
 10
1013.93
 20
-36.1468
 11
1014.61
 21
-36.467
  0
LINE
  8
0
 10
1014.61
 20
-36.467
 11
1015.19
 21
-36.9464
  0
LINE
  8
0
 10
1015.19
 20
-36.9464
 11
1015.63
 21
-37.5547
  0
LINE
  8
0
 10
1015.63
 20
-37.5547
 11
1015.91
 21
-38.2539
  0
LINE
  8
0
 10
1015.91
 20
-38.2539
 11
1016
 21
-39
  0
LINE
  8
0
 10
1016
 20
-39
 11
1015.91
 21
-39.7461
  0
LINE
  8
0
 10
1015.91
 20
-39.7461
 11
1015.63
 21
-40.4453
  0
LINE
  8
0
 10
1015.63
 20
-40.4453
 11
1015.19
 21
-41.0536
  0
LINE
  8
0
 10
1015.19
 20
-41.0536
 11
1014.61
 21
-41.533
  0
LINE
  8
0
 10
1014.61
 20
-41.533
 11
1013.93
 21
-41.8532
  0
LINE
  8
0
 10
1013.93
 20
-41.8532
 11
1013.19
 21
-41.9941
  0
LINE
  8
0
 10
1013.19
 20
-41.9941
 11
1012.44
 21
-41.9469
  0
LINE
  8
0
 10
758
 20
45
 11
638
 21
45
  0
LINE
  8
0
 10
638
 20
45
 11
638
 21
22.5
  0
LINE
  8
0
 10
638
 20
22.5
 11
656
 21
22.5
  0
LINE
  8
0
 10
656
 20
22.5
 11
656
 21
12.5
  0
LINE
  8
0
 10
656
 20
12.5
 11
670
 21
12.5
  0
LINE
  8
0
 10
670
 20
12.5
 11
670
 21
-12.5
  0
LINE
  8
0
 10
670
 20
-12.5
 11
656
 21
-12.5
  0
LINE
  8
0
 10
656
 20
-12.5
 11
656
 21
-22.5
  0
LINE
  8
0
 10
656
 20
-22.5
 11
638
 21
-22.5
  0
LINE
  8
0
 10
638
 20
-22.5
 11
638
 21
-45
  0
LINE
  8
0
 10
638
 20
-45
 11
758
 21
-45
  0
LINE
  8
0
 10
758
 20
-45
 11
758
 21
45
  0
LINE
  8
0
 10
751.438
 20
36.0531
 11
750.723
 21
36.2855
  0
LINE
  8
0
 10
750.723
 20
36.2855
 11
750.088
 21
36.6885
  0
LINE
  8
0
 10
750.088
 20
36.6885
 11
749.573
 21
37.2366
  0
LINE
  8
0
 10
749.573
 20
37.2366
 11
749.211
 21
37.8956
  0
LINE
  8
0
 10
749.211
 20
37.8956
 11
749.024
 21
38.624
  0
LINE
  8
0
 10
749.024
 20
38.624
 11
749.024
 21
39.376
  0
LINE
  8
0
 10
749.024
 20
39.376
 11
749.211
 21
40.1044
  0
LINE
  8
0
 10
749.211
 20
40.1044
 11
749.573
 21
40.7634
  0
LINE
  8
0
 10
749.573
 20
40.7634
 11
750.088
 21
41.3115
  0
LINE
  8
0
 10
750.088
 20
41.3115
 11
750.723
 21
41.7145
  0
LINE
  8
0
 10
750.723
 20
41.7145
 11
751.438
 21
41.9469
  0
LINE
  8
0
 10
751.438
 20
41.9469
 11
752.188
 21
41.9941
  0
LINE
  8
0
 10
752.188
 20
41.9941
 11
752.927
 21
41.8532
  0
LINE
  8
0
 10
752.927
 20
41.8532
 11
753.607
 21
41.533
  0
LINE
  8
0
 10
753.607
 20
41.533
 11
754.187
 21
41.0536
  0
LINE
  8
0
 10
754.187
 20
41.0536
 11
754.629
 21
40.4453
  0
LINE
  8
0
 10
754.629
 20
40.4453
 11
754.906
 21
39.7461
  0
LINE
  8
0
 10
754.906
 20
39.7461
 11
755
 21
39
  0
LINE
  8
0
 10
755
 20
39
 11
754.906
 21
38.2539
  0
LINE
  8
0
 10
754.906
 20
38.2539
 11
754.629
 21
37.5547
  0
LINE
  8
0
 10
754.629
 20
37.5547
 11
754.187
 21
36.9464
  0
LINE
  8
0
 10
754.187
 20
36.9464
 11
753.607
 21
36.467
  0
LINE
  8
0
 10
753.607
 20
36.467
 11
752.927
 21
36.1468
  0
LINE
  8
0
 10
752.927
 20
36.1468
 11
752.188
 21
36.0059
  0
LINE
  8
0
 10
752.188
 20
36.0059
 11
751.438
 21
36.0531
  0
LINE
  8
0
 10
643.438
 20
36.0531
 11
642.723
 21
36.2855
  0
LINE
  8
0
 10
642.723
 20
36.2855
 11
642.088
 21
36.6885
  0
LINE
  8
0
 10
642.088
 20
36.6885
 11
641.573
 21
37.2366
  0
LINE
  8
0
 10
641.573
 20
37.2366
 11
641.211
 21
37.8956
  0
LINE
  8
0
 10
641.211
 20
37.8956
 11
641.024
 21
38.624
  0
LINE
  8
0
 10
641.024
 20
38.624
 11
641.024
 21
39.376
  0
LINE
  8
0
 10
641.024
 20
39.376
 11
641.211
 21
40.1044
  0
LINE
  8
0
 10
641.211
 20
40.1044
 11
641.573
 21
40.7634
  0
LINE
  8
0
 10
641.573
 20
40.7634
 11
642.088
 21
41.3115
  0
LINE
  8
0
 10
642.088
 20
41.3115
 11
642.723
 21
41.7145
  0
LINE
  8
0
 10
642.723
 20
41.7145
 11
643.438
 21
41.9469
  0
LINE
  8
0
 10
643.438
 20
41.9469
 11
644.188
 21
41.9941
  0
LINE
  8
0
 10
644.188
 20
41.9941
 11
644.927
 21
41.8532
  0
LINE
  8
0
 10
644.927
 20
41.8532
 11
645.607
 21
41.533
  0
LINE
  8
0
 10
645.607
 20
41.533
 11
646.187
 21
41.0536
  0
LINE
  8
0
 10
646.187
 20
41.0536
 11
646.629
 21
40.4453
  0
LINE
  8
0
 10
646.629
 20
40.4453
 11
646.906
 21
39.7461
  0
LINE
  8
0
 10
646.906
 20
39.7461
 11
647
 21
39
  0
LINE
  8
0
 10
647
 20
39
 11
646.906
 21
38.2539
  0
LINE
  8
0
 10
646.906
 20
38.2539
 11
646.629
 21
37.5547
  0
LINE
  8
0
 10
646.629
 20
37.5547
 11
646.187
 21
36.9464
  0
LINE
  8
0
 10
646.187
 20
36.9464
 11
645.607
 21
36.467
  0
LINE
  8
0
 10
645.607
 20
36.467
 11
644.927
 21
36.1468
  0
LINE
  8
0
 10
644.927
 20
36.1468
 11
644.188
 21
36.0059
  0
LINE
  8
0
 10
644.188
 20
36.0059
 11
643.438
 21
36.0531
  0
LINE
  8
0
 10
713.719
 20
25.5266
 11
713.361
 21
25.6427
  0
LINE
  8
0
 10
713.361
 20
25.6427
 11
713.044
 21
25.8442
  0
LINE
  8
0
 10
713.044
 20
25.8442
 11
712.786
 21
26.1183
  0
LINE
  8
0
 10
712.786
 20
26.1183
 11
712.605
 21
26.4478
  0
LINE
  8
0
 10
712.605
 20
26.4478
 11
712.512
 21
26.812
  0
LINE
  8
0
 10
712.512
 20
26.812
 11
712.512
 21
27.188
  0
LINE
  8
0
 10
712.512
 20
27.188
 11
712.605
 21
27.5522
  0
LINE
  8
0
 10
712.605
 20
27.5522
 11
712.786
 21
27.8817
  0
LINE
  8
0
 10
712.786
 20
27.8817
 11
713.044
 21
28.1558
  0
LINE
  8
0
 10
713.044
 20
28.1558
 11
713.361
 21
28.3572
  0
LINE
  8
0
 10
713.361
 20
28.3572
 11
713.719
 21
28.4734
  0
LINE
  8
0
 10
713.719
 20
28.4734
 11
714.094
 21
28.497
  0
LINE
  8
0
 10
714.094
 20
28.497
 11
714.464
 21
28.4266
  0
LINE
  8
0
 10
714.464
 20
28.4266
 11
714.804
 21
28.2665
  0
LINE
  8
0
 10
714.804
 20
28.2665
 11
715.093
 21
28.0268
  0
LINE
  8
0
 10
715.093
 20
28.0268
 11
715.314
 21
27.7226
  0
LINE
  8
0
 10
715.314
 20
27.7226
 11
715.453
 21
27.373
  0
LINE
  8
0
 10
715.453
 20
27.373
 11
715.5
 21
27
  0
LINE
  8
0
 10
715.5
 20
27
 11
715.453
 21
26.627
  0
LINE
  8
0
 10
715.453
 20
26.627
 11
715.314
 21
26.2774
  0
LINE
  8
0
 10
715.314
 20
26.2774
 11
715.093
 21
25.9732
  0
LINE
  8
0
 10
715.093
 20
25.9732
 11
714.804
 21
25.7335
  0
LINE
  8
0
 10
714.804
 20
25.7335
 11
714.464
 21
25.5734
  0
LINE
  8
0
 10
714.464
 20
25.5734
 11
714.094
 21
25.503
  0
LINE
  8
0
 10
714.094
 20
25.503
 11
713.719
 21
25.5266
  0
LINE
  8
0
 10
663.719
 20
25.5266
 11
663.361
 21
25.6427
  0
LINE
  8
0
 10
663.361
 20
25.6427
 11
663.044
 21
25.8442
  0
LINE
  8
0
 10
663.044
 20
25.8442
 11
662.786
 21
26.1183
  0
LINE
  8
0
 10
662.786
 20
26.1183
 11
662.605
 21
26.4478
  0
LINE
  8
0
 10
662.605
 20
26.4478
 11
662.512
 21
26.812
  0
LINE
  8
0
 10
662.512
 20
26.812
 11
662.512
 21
27.188
  0
LINE
  8
0
 10
662.512
 20
27.188
 11
662.605
 21
27.5522
  0
LINE
  8
0
 10
662.605
 20
27.5522
 11
662.786
 21
27.8817
  0
LINE
  8
0
 10
662.786
 20
27.8817
 11
663.044
 21
28.1558
  0
LINE
  8
0
 10
663.044
 20
28.1558
 11
663.361
 21
28.3572
  0
LINE
  8
0
 10
663.361
 20
28.3572
 11
663.719
 21
28.4734
  0
LINE
  8
0
 10
663.719
 20
28.4734
 11
664.094
 21
28.497
  0
LINE
  8
0
 10
664.094
 20
28.497
 11
664.464
 21
28.4266
  0
LINE
  8
0
 10
664.464
 20
28.4266
 11
664.804
 21
28.2665
  0
LINE
  8
0
 10
664.804
 20
28.2665
 11
665.093
 21
28.0268
  0
LINE
  8
0
 10
665.093
 20
28.0268
 11
665.314
 21
27.7226
  0
LINE
  8
0
 10
665.314
 20
27.7226
 11
665.453
 21
27.373
  0
LINE
  8
0
 10
665.453
 20
27.373
 11
665.5
 21
27
  0
LINE
  8
0
 10
665.5
 20
27
 11
665.453
 21
26.627
  0
LINE
  8
0
 10
665.453
 20
26.627
 11
665.314
 21
26.2774
  0
LINE
  8
0
 10
665.314
 20
26.2774
 11
665.093
 21
25.9732
  0
LINE
  8
0
 10
665.093
 20
25.9732
 11
664.804
 21
25.7335
  0
LINE
  8
0
 10
664.804
 20
25.7335
 11
664.464
 21
25.5734
  0
LINE
  8
0
 10
664.464
 20
25.5734
 11
664.094
 21
25.503
  0
LINE
  8
0
 10
664.094
 20
25.503
 11
663.719
 21
25.5266
  0
LINE
  8
0
 10
698.719
 20
-1.47342
 11
698.361
 21
-1.35724
  0
LINE
  8
0
 10
698.361
 20
-1.35724
 11
698.044
 21
-1.15576
  0
LINE
  8
0
 10
698.044
 20
-1.15576
 11
697.786
 21
-0.881668
  0
LINE
  8
0
 10
697.786
 20
-0.881668
 11
697.605
 21
-0.552185
  0
LINE
  8
0
 10
697.605
 20
-0.552185
 11
697.512
 21
-0.187988
  0
LINE
  8
0
 10
697.512
 20
-0.187988
 11
697.512
 21
0.187988
  0
LINE
  8
0
 10
697.512
 20
0.187988
 11
697.605
 21
0.552185
  0
LINE
  8
0
 10
697.605
 20
0.552185
 11
697.786
 21
0.881668
  0
LINE
  8
0
 10
697.786
 20
0.881668
 11
698.044
 21
1.15576
  0
LINE
  8
0
 10
698.044
 20
1.15576
 11
698.361
 21
1.35724
  0
LINE
  8
0
 10
698.361
 20
1.35724
 11
698.719
 21
1.47342
  0
LINE
  8
0
 10
698.719
 20
1.47342
 11
699.094
 21
1.49704
  0
LINE
  8
0
 10
699.094
 20
1.49704
 11
699.464
 21
1.42657
  0
LINE
  8
0
 10
699.464
 20
1.42657
 11
699.804
 21
1.26648
  0
LINE
  8
0
 10
699.804
 20
1.26648
 11
700.093
 21
1.02681
  0
LINE
  8
0
 10
700.093
 20
1.02681
 11
700.314
 21
0.722626
  0
LINE
  8
0
 10
700.314
 20
0.722626
 11
700.453
 21
0.373032
  0
LINE
  8
0
 10
700.453
 20
0.373032
 11
700.5
 21
0
  0
LINE
  8
0
 10
700.5
 20
0
 11
700.453
 21
-0.373032
  0
LINE
  8
0
 10
700.453
 20
-0.373032
 11
700.314
 21
-0.722626
  0
LINE
  8
0
 10
700.314
 20
-0.722626
 11
700.093
 21
-1.02681
  0
LINE
  8
0
 10
700.093
 20
-1.02681
 11
699.804
 21
-1.26648
  0
LINE
  8
0
 10
699.804
 20
-1.26648
 11
699.464
 21
-1.42657
  0
LINE
  8
0
 10
699.464
 20
-1.42657
 11
699.094
 21
-1.49704
  0
LINE
  8
0
 10
699.094
 20
-1.49704
 11
698.719
 21
-1.47342
  0
LINE
  8
0
 10
722.719
 20
-1.47342
 11
722.361
 21
-1.35724
  0
LINE
  8
0
 10
722.361
 20
-1.35724
 11
722.044
 21
-1.15576
  0
LINE
  8
0
 10
722.044
 20
-1.15576
 11
721.786
 21
-0.881668
  0
LINE
  8
0
 10
721.786
 20
-0.881668
 11
721.605
 21
-0.552185
  0
LINE
  8
0
 10
721.605
 20
-0.552185
 11
721.512
 21
-0.187988
  0
LINE
  8
0
 10
721.512
 20
-0.187988
 11
721.512
 21
0.187988
  0
LINE
  8
0
 10
721.512
 20
0.187988
 11
721.605
 21
0.552185
  0
LINE
  8
0
 10
721.605
 20
0.552185
 11
721.786
 21
0.881668
  0
LINE
  8
0
 10
721.786
 20
0.881668
 11
722.044
 21
1.15576
  0
LINE
  8
0
 10
722.044
 20
1.15576
 11
722.361
 21
1.35724
  0
LINE
  8
0
 10
722.361
 20
1.35724
 11
722.719
 21
1.47342
  0
LINE
  8
0
 10
722.719
 20
1.47342
 11
723.094
 21
1.49704
  0
LINE
  8
0
 10
723.094
 20
1.49704
 11
723.464
 21
1.42657
  0
LINE
  8
0
 10
723.464
 20
1.42657
 11
723.804
 21
1.26648
  0
LINE
  8
0
 10
723.804
 20
1.26648
 11
724.093
 21
1.02681
  0
LINE
  8
0
 10
724.093
 20
1.02681
 11
724.314
 21
0.722626
  0
LINE
  8
0
 10
724.314
 20
0.722626
 11
724.453
 21
0.373032
  0
LINE
  8
0
 10
724.453
 20
0.373032
 11
724.5
 21
0
  0
LINE
  8
0
 10
724.5
 20
0
 11
724.453
 21
-0.373032
  0
LINE
  8
0
 10
724.453
 20
-0.373032
 11
724.314
 21
-0.722626
  0
LINE
  8
0
 10
724.314
 20
-0.722626
 11
724.093
 21
-1.02681
  0
LINE
  8
0
 10
724.093
 20
-1.02681
 11
723.804
 21
-1.26648
  0
LINE
  8
0
 10
723.804
 20
-1.26648
 11
723.464
 21
-1.42657
  0
LINE
  8
0
 10
723.464
 20
-1.42657
 11
723.094
 21
-1.49704
  0
LINE
  8
0
 10
723.094
 20
-1.49704
 11
722.719
 21
-1.47342
  0
LINE
  8
0
 10
728.719
 20
-1.47342
 11
728.361
 21
-1.35724
  0
LINE
  8
0
 10
728.361
 20
-1.35724
 11
728.044
 21
-1.15576
  0
LINE
  8
0
 10
728.044
 20
-1.15576
 11
727.786
 21
-0.881668
  0
LINE
  8
0
 10
727.786
 20
-0.881668
 11
727.605
 21
-0.552185
  0
LINE
  8
0
 10
727.605
 20
-0.552185
 11
727.512
 21
-0.187988
  0
LINE
  8
0
 10
727.512
 20
-0.187988
 11
727.512
 21
0.187988
  0
LINE
  8
0
 10
727.512
 20
0.187988
 11
727.605
 21
0.552185
  0
LINE
  8
0
 10
727.605
 20
0.552185
 11
727.786
 21
0.881668
  0
LINE
  8
0
 10
727.786
 20
0.881668
 11
728.044
 21
1.15576
  0
LINE
  8
0
 10
728.044
 20
1.15576
 11
728.361
 21
1.35724
  0
LINE
  8
0
 10
728.361
 20
1.35724
 11
728.719
 21
1.47342
  0
LINE
  8
0
 10
728.719
 20
1.47342
 11
729.094
 21
1.49704
  0
LINE
  8
0
 10
729.094
 20
1.49704
 11
729.464
 21
1.42657
  0
LINE
  8
0
 10
729.464
 20
1.42657
 11
729.804
 21
1.26648
  0
LINE
  8
0
 10
729.804
 20
1.26648
 11
730.093
 21
1.02681
  0
LINE
  8
0
 10
730.093
 20
1.02681
 11
730.314
 21
0.722626
  0
LINE
  8
0
 10
730.314
 20
0.722626
 11
730.453
 21
0.373032
  0
LINE
  8
0
 10
730.453
 20
0.373032
 11
730.5
 21
0
  0
LINE
  8
0
 10
730.5
 20
0
 11
730.453
 21
-0.373032
  0
LINE
  8
0
 10
730.453
 20
-0.373032
 11
730.314
 21
-0.722626
  0
LINE
  8
0
 10
730.314
 20
-0.722626
 11
730.093
 21
-1.02681
  0
LINE
  8
0
 10
730.093
 20
-1.02681
 11
729.804
 21
-1.26648
  0
LINE
  8
0
 10
729.804
 20
-1.26648
 11
729.464
 21
-1.42657
  0
LINE
  8
0
 10
729.464
 20
-1.42657
 11
729.094
 21
-1.49704
  0
LINE
  8
0
 10
729.094
 20
-1.49704
 11
728.719
 21
-1.47342
  0
LINE
  8
0
 10
713.719
 20
-28.4734
 11
713.361
 21
-28.3572
  0
LINE
  8
0
 10
713.361
 20
-28.3572
 11
713.044
 21
-28.1558
  0
LINE
  8
0
 10
713.044
 20
-28.1558
 11
712.786
 21
-27.8817
  0
LINE
  8
0
 10
712.786
 20
-27.8817
 11
712.605
 21
-27.5522
  0
LINE
  8
0
 10
712.605
 20
-27.5522
 11
712.512
 21
-27.188
  0
LINE
  8
0
 10
712.512
 20
-27.188
 11
712.512
 21
-26.812
  0
LINE
  8
0
 10
712.512
 20
-26.812
 11
712.605
 21
-26.4478
  0
LINE
  8
0
 10
712.605
 20
-26.4478
 11
712.786
 21
-26.1183
  0
LINE
  8
0
 10
712.786
 20
-26.1183
 11
713.044
 21
-25.8442
  0
LINE
  8
0
 10
713.044
 20
-25.8442
 11
713.361
 21
-25.6427
  0
LINE
  8
0
 10
713.361
 20
-25.6427
 11
713.719
 21
-25.5266
  0
LINE
  8
0
 10
713.719
 20
-25.5266
 11
714.094
 21
-25.503
  0
LINE
  8
0
 10
714.094
 20
-25.503
 11
714.464
 21
-25.5734
  0
LINE
  8
0
 10
714.464
 20
-25.5734
 11
714.804
 21
-25.7335
  0
LINE
  8
0
 10
714.804
 20
-25.7335
 11
715.093
 21
-25.9732
  0
LINE
  8
0
 10
715.093
 20
-25.9732
 11
715.314
 21
-26.2774
  0
LINE
  8
0
 10
715.314
 20
-26.2774
 11
715.453
 21
-26.627
  0
LINE
  8
0
 10
715.453
 20
-26.627
 11
715.5
 21
-27
  0
LINE
  8
0
 10
715.5
 20
-27
 11
715.453
 21
-27.373
  0
LINE
  8
0
 10
715.453
 20
-27.373
 11
715.314
 21
-27.7226
  0
LINE
  8
0
 10
715.314
 20
-27.7226
 11
715.093
 21
-28.0268
  0
LINE
  8
0
 10
715.093
 20
-28.0268
 11
714.804
 21
-28.2665
  0
LINE
  8
0
 10
714.804
 20
-28.2665
 11
714.464
 21
-28.4266
  0
LINE
  8
0
 10
714.464
 20
-28.4266
 11
714.094
 21
-28.497
  0
LINE
  8
0
 10
714.094
 20
-28.497
 11
713.719
 21
-28.4734
  0
LINE
  8
0
 10
663.719
 20
-28.4734
 11
663.361
 21
-28.3572
  0
LINE
  8
0
 10
663.361
 20
-28.3572
 11
663.044
 21
-28.1558
  0
LINE
  8
0
 10
663.044
 20
-28.1558
 11
662.786
 21
-27.8817
  0
LINE
  8
0
 10
662.786
 20
-27.8817
 11
662.605
 21
-27.5522
  0
LINE
  8
0
 10
662.605
 20
-27.5522
 11
662.512
 21
-27.188
  0
LINE
  8
0
 10
662.512
 20
-27.188
 11
662.512
 21
-26.812
  0
LINE
  8
0
 10
662.512
 20
-26.812
 11
662.605
 21
-26.4478
  0
LINE
  8
0
 10
662.605
 20
-26.4478
 11
662.786
 21
-26.1183
  0
LINE
  8
0
 10
662.786
 20
-26.1183
 11
663.044
 21
-25.8442
  0
LINE
  8
0
 10
663.044
 20
-25.8442
 11
663.361
 21
-25.6427
  0
LINE
  8
0
 10
663.361
 20
-25.6427
 11
663.719
 21
-25.5266
  0
LINE
  8
0
 10
663.719
 20
-25.5266
 11
664.094
 21
-25.503
  0
LINE
  8
0
 10
664.094
 20
-25.503
 11
664.464
 21
-25.5734
  0
LINE
  8
0
 10
664.464
 20
-25.5734
 11
664.804
 21
-25.7335
  0
LINE
  8
0
 10
664.804
 20
-25.7335
 11
665.093
 21
-25.9732
  0
LINE
  8
0
 10
665.093
 20
-25.9732
 11
665.314
 21
-26.2774
  0
LINE
  8
0
 10
665.314
 20
-26.2774
 11
665.453
 21
-26.627
  0
LINE
  8
0
 10
665.453
 20
-26.627
 11
665.5
 21
-27
  0
LINE
  8
0
 10
665.5
 20
-27
 11
665.453
 21
-27.373
  0
LINE
  8
0
 10
665.453
 20
-27.373
 11
665.314
 21
-27.7226
  0
LINE
  8
0
 10
665.314
 20
-27.7226
 11
665.093
 21
-28.0268
  0
LINE
  8
0
 10
665.093
 20
-28.0268
 11
664.804
 21
-28.2665
  0
LINE
  8
0
 10
664.804
 20
-28.2665
 11
664.464
 21
-28.4266
  0
LINE
  8
0
 10
664.464
 20
-28.4266
 11
664.094
 21
-28.497
  0
LINE
  8
0
 10
664.094
 20
-28.497
 11
663.719
 21
-28.4734
  0
LINE
  8
0
 10
751.438
 20
-41.9469
 11
750.723
 21
-41.7145
  0
LINE
  8
0
 10
750.723
 20
-41.7145
 11
750.088
 21
-41.3115
  0
LINE
  8
0
 10
750.088
 20
-41.3115
 11
749.573
 21
-40.7634
  0
LINE
  8
0
 10
749.573
 20
-40.7634
 11
749.211
 21
-40.1044
  0
LINE
  8
0
 10
749.211
 20
-40.1044
 11
749.024
 21
-39.376
  0
LINE
  8
0
 10
749.024
 20
-39.376
 11
749.024
 21
-38.624
  0
LINE
  8
0
 10
749.024
 20
-38.624
 11
749.211
 21
-37.8956
  0
LINE
  8
0
 10
749.211
 20
-37.8956
 11
749.573
 21
-37.2366
  0
LINE
  8
0
 10
749.573
 20
-37.2366
 11
750.088
 21
-36.6885
  0
LINE
  8
0
 10
750.088
 20
-36.6885
 11
750.723
 21
-36.2855
  0
LINE
  8
0
 10
750.723
 20
-36.2855
 11
751.438
 21
-36.0531
  0
LINE
  8
0
 10
751.438
 20
-36.0531
 11
752.188
 21
-36.0059
  0
LINE
  8
0
 10
752.188
 20
-36.0059
 11
752.927
 21
-36.1468
  0
LINE
  8
0
 10
752.927
 20
-36.1468
 11
753.607
 21
-36.467
  0
LINE
  8
0
 10
753.607
 20
-36.467
 11
754.187
 21
-36.9464
  0
LINE
  8
0
 10
754.187
 20
-36.9464
 11
754.629
 21
-37.5547
  0
LINE
  8
0
 10
754.629
 20
-37.5547
 11
754.906
 21
-38.2539
  0
LINE
  8
0
 10
754.906
 20
-38.2539
 11
755
 21
-39
  0
LINE
  8
0
 10
755
 20
-39
 11
754.906
 21
-39.7461
  0
LINE
  8
0
 10
754.906
 20
-39.7461
 11
754.629
 21
-40.4453
  0
LINE
  8
0
 10
754.629
 20
-40.4453
 11
754.187
 21
-41.0536
  0
LINE
  8
0
 10
754.187
 20
-41.0536
 11
753.607
 21
-41.533
  0
LINE
  8
0
 10
753.607
 20
-41.533
 11
752.927
 21
-41.8532
  0
LINE
  8
0
 10
752.927
 20
-41.8532
 11
752.188
 21
-41.9941
  0
LINE
  8
0
 10
752.188
 20
-41.9941
 11
751.438
 21
-41.9469
  0
LINE
  8
0
 10
643.438
 20
-41.9469
 11
642.723
 21
-41.7145
  0
LINE
  8
0
 10
642.723
 20
-41.7145
 11
642.088
 21
-41.3115
  0
LINE
  8
0
 10
642.088
 20
-41.3115
 11
641.573
 21
-40.7634
  0
LINE
  8
0
 10
641.573
 20
-40.7634
 11
641.211
 21
-40.1044
  0
LINE
  8
0
 10
641.211
 20
-40.1044
 11
641.024
 21
-39.376
  0
LINE
  8
0
 10
641.024
 20
-39.376
 11
641.024
 21
-38.624
  0
LINE
  8
0
 10
641.024
 20
-38.624
 11
641.211
 21
-37.8956
  0
LINE
  8
0
 10
641.211
 20
-37.8956
 11
641.573
 21
-37.2366
  0
LINE
  8
0
 10
641.573
 20
-37.2366
 11
642.088
 21
-36.6885
  0
LINE
  8
0
 10
642.088
 20
-36.6885
 11
642.723
 21
-36.2855
  0
LINE
  8
0
 10
642.723
 20
-36.2855
 11
643.438
 21
-36.0531
  0
LINE
  8
0
 10
643.438
 20
-36.0531
 11
644.188
 21
-36.0059
  0
LINE
  8
0
 10
644.188
 20
-36.0059
 11
644.927
 21
-36.1468
  0
LINE
  8
0
 10
644.927
 20
-36.1468
 11
645.607
 21
-36.467
  0
LINE
  8
0
 10
645.607
 20
-36.467
 11
646.187
 21
-36.9464
  0
LINE
  8
0
 10
646.187
 20
-36.9464
 11
646.629
 21
-37.5547
  0
LINE
  8
0
 10
646.629
 20
-37.5547
 11
646.906
 21
-38.2539
  0
LINE
  8
0
 10
646.906
 20
-38.2539
 11
647
 21
-39
  0
LINE
  8
0
 10
647
 20
-39
 11
646.906
 21
-39.7461
  0
LINE
  8
0
 10
646.906
 20
-39.7461
 11
646.629
 21
-40.4453
  0
LINE
  8
0
 10
646.629
 20
-40.4453
 11
646.187
 21
-41.0536
  0
LINE
  8
0
 10
646.187
 20
-41.0536
 11
645.607
 21
-41.533
  0
LINE
  8
0
 10
645.607
 20
-41.533
 11
644.927
 21
-41.8532
  0
LINE
  8
0
 10
644.927
 20
-41.8532
 11
644.188
 21
-41.9941
  0
LINE
  8
0
 10
644.188
 20
-41.9941
 11
643.438
 21
-41.9469
  0
LINE
  8
0
 10
635
 20
45
 11
515
 21
45
  0
LINE
  8
0
 10
515
 20
45
 11
515
 21
22.5
  0
LINE
  8
0
 10
515
 20
22.5
 11
533
 21
22.5
  0
LINE
  8
0
 10
533
 20
22.5
 11
533
 21
15.005
  0
LINE
  8
0
 10
533
 20
15.005
 11
616.005
 21
15.005
  0
LINE
  8
0
 10
616.005
 20
15.005
 11
616.623
 21
14.9071
  0
LINE
  8
0
 10
616.623
 20
14.9071
 11
617.077
 21
14.6936
  0
LINE
  8
0
 10
617.077
 20
14.6936
 11
617.463
 21
14.3741
  0
LINE
  8
0
 10
617.463
 20
14.3741
 11
617.758
 21
13.9685
  0
LINE
  8
0
 10
617.758
 20
13.9685
 11
617.942
 21
13.5024
  0
LINE
  8
0
 10
617.942
 20
13.5024
 11
618.005
 21
13.005
  0
LINE
  8
0
 10
618.005
 20
13.005
 11
618.005
 21
-13.005
  0
LINE
  8
0
 10
618.005
 20
-13.005
 11
617.907
 21
-13.623
  0
LINE
  8
0
 10
617.907
 20
-13.623
 11
617.694
 21
-14.0766
  0
LINE
  8
0
 10
617.694
 20
-14.0766
 11
617.374
 21
-14.4629
  0
LINE
  8
0
 10
617.374
 20
-14.4629
 11
616.969
 21
-14.7576
  0
LINE
  8
0
 10
616.969
 20
-14.7576
 11
616.502
 21
-14.9422
  0
LINE
  8
0
 10
616.502
 20
-14.9422
 11
616.005
 21
-15.005
  0
LINE
  8
0
 10
616.005
 20
-15.005
 11
601.995
 21
-15.005
  0
LINE
  8
0
 10
601.995
 20
-15.005
 11
601.377
 21
-14.9071
  0
LINE
  8
0
 10
601.377
 20
-14.9071
 11
600.923
 21
-14.6936
  0
LINE
  8
0
 10
600.923
 20
-14.6936
 11
600.537
 21
-14.3741
  0
LINE
  8
0
 10
600.537
 20
-14.3741
 11
600.242
 21
-13.9685
  0
LINE
  8
0
 10
600.242
 20
-13.9685
 11
600.058
 21
-13.5024
  0
LINE
  8
0
 10
600.058
 20
-13.5024
 11
599.995
 21
-13.005
  0
LINE
  8
0
 10
599.995
 20
-13.005
 11
599.995
 21
-5.99501
  0
LINE
  8
0
 10
599.995
 20
-5.99501
 11
600.093
 21
-5.37698
  0
LINE
  8
0
 10
600.093
 20
-5.37698
 11
600.306
 21
-4.92336
  0
LINE
  8
0
 10
600.306
 20
-4.92336
 11
600.626
 21
-4.53708
  0
LINE
  8
0
 10
600.626
 20
-4.53708
 11
601.031
 21
-4.2424
  0
LINE
  8
0
 10
601.031
 20
-4.2424
 11
601.498
 21
-4.05785
  0
LINE
  8
0
 10
601.498
 20
-4.05785
 11
601.995
 21
-3.99501
  0
LINE
  8
0
 10
601.995
 20
-3.99501
 11
608.995
 21
-3.99501
  0
LINE
  8
0
 10
608.995
 20
-3.99501
 11
608.995
 21
3.99501
  0
LINE
  8
0
 10
608.995
 20
3.99501
 11
547
 21
3.99501
  0
LINE
  8
0
 10
547
 20
3.99501
 11
547
 21
-3.99501
  0
LINE
  8
0
 10
547
 20
-3.99501
 11
569.005
 21
-3.99501
  0
LINE
  8
0
 10
569.005
 20
-3.99501
 11
569.623
 21
-4.0929
  0
LINE
  8
0
 10
569.623
 20
-4.0929
 11
570.077
 21
-4.30635
  0
LINE
  8
0
 10
570.077
 20
-4.30635
 11
570.463
 21
-4.62592
  0
LINE
  8
0
 10
570.463
 20
-4.62592
 11
570.758
 21
-5.03151
  0
LINE
  8
0
 10
570.758
 20
-5.03151
 11
570.942
 21
-5.49763
  0
LINE
  8
0
 10
570.942
 20
-5.49763
 11
571.005
 21
-5.99501
  0
LINE
  8
0
 10
571.005
 20
-5.99501
 11
571.005
 21
-13.005
  0
LINE
  8
0
 10
571.005
 20
-13.005
 11
570.907
 21
-13.623
  0
LINE
  8
0
 10
570.907
 20
-13.623
 11
570.694
 21
-14.0766
  0
LINE
  8
0
 10
570.694
 20
-14.0766
 11
570.374
 21
-14.4629
  0
LINE
  8
0
 10
570.374
 20
-14.4629
 11
569.969
 21
-14.7576
  0
LINE
  8
0
 10
569.969
 20
-14.7576
 11
569.502
 21
-14.9422
  0
LINE
  8
0
 10
569.502
 20
-14.9422
 11
569.005
 21
-15.005
  0
LINE
  8
0
 10
569.005
 20
-15.005
 11
533
 21
-15.005
  0
LINE
  8
0
 10
533
 20
-15.005
 11
533
 21
-22.5
  0
LINE
  8
0
 10
533
 20
-22.5
 11
515
 21
-22.5
  0
LINE
  8
0
 10
515
 20
-22.5
 11
515
 21
-45
  0
LINE
  8
0
 10
515
 20
-45
 11
635
 21
-45
  0
LINE
  8
0
 10
635
 20
-45
 11
635
 21
45
  0
LINE
  8
0
 10
628.438
 20
36.0531
 11
627.723
 21
36.2855
  0
LINE
  8
0
 10
627.723
 20
36.2855
 11
627.088
 21
36.6885
  0
LINE
  8
0
 10
627.088
 20
36.6885
 11
626.573
 21
37.2366
  0
LINE
  8
0
 10
626.573
 20
37.2366
 11
626.211
 21
37.8956
  0
LINE
  8
0
 10
626.211
 20
37.8956
 11
626.024
 21
38.624
  0
LINE
  8
0
 10
626.024
 20
38.624
 11
626.024
 21
39.376
  0
LINE
  8
0
 10
626.024
 20
39.376
 11
626.211
 21
40.1044
  0
LINE
  8
0
 10
626.211
 20
40.1044
 11
626.573
 21
40.7634
  0
LINE
  8
0
 10
626.573
 20
40.7634
 11
627.088
 21
41.3115
  0
LINE
  8
0
 10
627.088
 20
41.3115
 11
627.723
 21
41.7145
  0
LINE
  8
0
 10
627.723
 20
41.7145
 11
628.438
 21
41.9469
  0
LINE
  8
0
 10
628.438
 20
41.9469
 11
629.188
 21
41.9941
  0
LINE
  8
0
 10
629.188
 20
41.9941
 11
629.927
 21
41.8532
  0
LINE
  8
0
 10
629.927
 20
41.8532
 11
630.607
 21
41.533
  0
LINE
  8
0
 10
630.607
 20
41.533
 11
631.187
 21
41.0536
  0
LINE
  8
0
 10
631.187
 20
41.0536
 11
631.629
 21
40.4453
  0
LINE
  8
0
 10
631.629
 20
40.4453
 11
631.906
 21
39.7461
  0
LINE
  8
0
 10
631.906
 20
39.7461
 11
632
 21
39
  0
LINE
  8
0
 10
632
 20
39
 11
631.906
 21
38.2539
  0
LINE
  8
0
 10
631.906
 20
38.2539
 11
631.629
 21
37.5547
  0
LINE
  8
0
 10
631.629
 20
37.5547
 11
631.187
 21
36.9464
  0
LINE
  8
0
 10
631.187
 20
36.9464
 11
630.607
 21
36.467
  0
LINE
  8
0
 10
630.607
 20
36.467
 11
629.927
 21
36.1468
  0
LINE
  8
0
 10
629.927
 20
36.1468
 11
629.188
 21
36.0059
  0
LINE
  8
0
 10
629.188
 20
36.0059
 11
628.438
 21
36.0531
  0
LINE
  8
0
 10
520.438
 20
36.0531
 11
519.723
 21
36.2855
  0
LINE
  8
0
 10
519.723
 20
36.2855
 11
519.088
 21
36.6885
  0
LINE
  8
0
 10
519.088
 20
36.6885
 11
518.573
 21
37.2366
  0
LINE
  8
0
 10
518.573
 20
37.2366
 11
518.211
 21
37.8956
  0
LINE
  8
0
 10
518.211
 20
37.8956
 11
518.024
 21
38.624
  0
LINE
  8
0
 10
518.024
 20
38.624
 11
518.024
 21
39.376
  0
LINE
  8
0
 10
518.024
 20
39.376
 11
518.211
 21
40.1044
  0
LINE
  8
0
 10
518.211
 20
40.1044
 11
518.573
 21
40.7634
  0
LINE
  8
0
 10
518.573
 20
40.7634
 11
519.088
 21
41.3115
  0
LINE
  8
0
 10
519.088
 20
41.3115
 11
519.723
 21
41.7145
  0
LINE
  8
0
 10
519.723
 20
41.7145
 11
520.438
 21
41.9469
  0
LINE
  8
0
 10
520.438
 20
41.9469
 11
521.188
 21
41.9941
  0
LINE
  8
0
 10
521.188
 20
41.9941
 11
521.927
 21
41.8532
  0
LINE
  8
0
 10
521.927
 20
41.8532
 11
522.607
 21
41.533
  0
LINE
  8
0
 10
522.607
 20
41.533
 11
523.187
 21
41.0536
  0
LINE
  8
0
 10
523.187
 20
41.0536
 11
523.629
 21
40.4453
  0
LINE
  8
0
 10
523.629
 20
40.4453
 11
523.906
 21
39.7461
  0
LINE
  8
0
 10
523.906
 20
39.7461
 11
524
 21
39
  0
LINE
  8
0
 10
524
 20
39
 11
523.906
 21
38.2539
  0
LINE
  8
0
 10
523.906
 20
38.2539
 11
523.629
 21
37.5547
  0
LINE
  8
0
 10
523.629
 20
37.5547
 11
523.187
 21
36.9464
  0
LINE
  8
0
 10
523.187
 20
36.9464
 11
522.607
 21
36.467
  0
LINE
  8
0
 10
522.607
 20
36.467
 11
521.927
 21
36.1468
  0
LINE
  8
0
 10
521.927
 20
36.1468
 11
521.188
 21
36.0059
  0
LINE
  8
0
 10
521.188
 20
36.0059
 11
520.438
 21
36.0531
  0
LINE
  8
0
 10
539.412
 20
24.2499
 11
537.825
 21
27
  0
LINE
  8
0
 10
537.825
 20
27
 11
539.412
 21
29.7501
  0
LINE
  8
0
 10
539.412
 20
29.7501
 11
542.588
 21
29.7501
  0
LINE
  8
0
 10
542.588
 20
29.7501
 11
544.175
 21
27
  0
LINE
  8
0
 10
544.175
 20
27
 11
542.588
 21
24.2499
  0
LINE
  8
0
 10
542.588
 20
24.2499
 11
539.412
 21
24.2499
  0
LINE
  8
0
 10
589.412
 20
24.2499
 11
587.825
 21
27
  0
LINE
  8
0
 10
587.825
 20
27
 11
589.412
 21
29.7501
  0
LINE
  8
0
 10
589.412
 20
29.7501
 11
592.588
 21
29.7501
  0
LINE
  8
0
 10
592.588
 20
29.7501
 11
594.175
 21
27
  0
LINE
  8
0
 10
594.175
 20
27
 11
592.588
 21
24.2499
  0
LINE
  8
0
 10
592.588
 20
24.2499
 11
589.412
 21
24.2499
  0
LINE
  8
0
 10
598.412
 20
-2.75006
 11
596.825
 21
0
  0
LINE
  8
0
 10
596.825
 20
0
 11
598.412
 21
2.75006
  0
LINE
  8
0
 10
598.412
 20
2.75006
 11
601.588
 21
2.75006
  0
LINE
  8
0
 10
601.588
 20
2.75006
 11
603.175
 21
0
  0
LINE
  8
0
 10
603.175
 20
0
 11
601.588
 21
-2.75006
  0
LINE
  8
0
 10
601.588
 20
-2.75006
 11
598.412
 21
-2.75006
  0
LINE
  8
0
 10
605.719
 20
-1.47342
 11
605.361
 21
-1.35724
  0
LINE
  8
0
 10
605.361
 20
-1.35724
 11
605.044
 21
-1.15576
  0
LINE
  8
0
 10
605.044
 20
-1.15576
 11
604.786
 21
-0.881668
  0
LINE
  8
0
 10
604.786
 20
-0.881668
 11
604.605
 21
-0.552185
  0
LINE
  8
0
 10
604.605
 20
-0.552185
 11
604.512
 21
-0.187988
  0
LINE
  8
0
 10
604.512
 20
-0.187988
 11
604.512
 21
0.187988
  0
LINE
  8
0
 10
604.512
 20
0.187988
 11
604.605
 21
0.552185
  0
LINE
  8
0
 10
604.605
 20
0.552185
 11
604.786
 21
0.881668
  0
LINE
  8
0
 10
604.786
 20
0.881668
 11
605.044
 21
1.15576
  0
LINE
  8
0
 10
605.044
 20
1.15576
 11
605.361
 21
1.35724
  0
LINE
  8
0
 10
605.361
 20
1.35724
 11
605.719
 21
1.47342
  0
LINE
  8
0
 10
605.719
 20
1.47342
 11
606.094
 21
1.49704
  0
LINE
  8
0
 10
606.094
 20
1.49704
 11
606.464
 21
1.42657
  0
LINE
  8
0
 10
606.464
 20
1.42657
 11
606.804
 21
1.26648
  0
LINE
  8
0
 10
606.804
 20
1.26648
 11
607.093
 21
1.02681
  0
LINE
  8
0
 10
607.093
 20
1.02681
 11
607.314
 21
0.722626
  0
LINE
  8
0
 10
607.314
 20
0.722626
 11
607.453
 21
0.373032
  0
LINE
  8
0
 10
607.453
 20
0.373032
 11
607.5
 21
0
  0
LINE
  8
0
 10
607.5
 20
0
 11
607.453
 21
-0.373032
  0
LINE
  8
0
 10
607.453
 20
-0.373032
 11
607.314
 21
-0.722626
  0
LINE
  8
0
 10
607.314
 20
-0.722626
 11
607.093
 21
-1.02681
  0
LINE
  8
0
 10
607.093
 20
-1.02681
 11
606.804
 21
-1.26648
  0
LINE
  8
0
 10
606.804
 20
-1.26648
 11
606.464
 21
-1.42657
  0
LINE
  8
0
 10
606.464
 20
-1.42657
 11
606.094
 21
-1.49704
  0
LINE
  8
0
 10
606.094
 20
-1.49704
 11
605.719
 21
-1.47342
  0
LINE
  8
0
 10
575.719
 20
-1.47342
 11
575.361
 21
-1.35724
  0
LINE
  8
0
 10
575.361
 20
-1.35724
 11
575.044
 21
-1.15576
  0
LINE
  8
0
 10
575.044
 20
-1.15576
 11
574.786
 21
-0.881668
  0
LINE
  8
0
 10
574.786
 20
-0.881668
 11
574.605
 21
-0.552185
  0
LINE
  8
0
 10
574.605
 20
-0.552185
 11
574.512
 21
-0.187988
  0
LINE
  8
0
 10
574.512
 20
-0.187988
 11
574.512
 21
0.187988
  0
LINE
  8
0
 10
574.512
 20
0.187988
 11
574.605
 21
0.552185
  0
LINE
  8
0
 10
574.605
 20
0.552185
 11
574.786
 21
0.881668
  0
LINE
  8
0
 10
574.786
 20
0.881668
 11
575.044
 21
1.15576
  0
LINE
  8
0
 10
575.044
 20
1.15576
 11
575.361
 21
1.35724
  0
LINE
  8
0
 10
575.361
 20
1.35724
 11
575.719
 21
1.47342
  0
LINE
  8
0
 10
575.719
 20
1.47342
 11
576.094
 21
1.49704
  0
LINE
  8
0
 10
576.094
 20
1.49704
 11
576.464
 21
1.42657
  0
LINE
  8
0
 10
576.464
 20
1.42657
 11
576.804
 21
1.26648
  0
LINE
  8
0
 10
576.804
 20
1.26648
 11
577.093
 21
1.02681
  0
LINE
  8
0
 10
577.093
 20
1.02681
 11
577.314
 21
0.722626
  0
LINE
  8
0
 10
577.314
 20
0.722626
 11
577.453
 21
0.373032
  0
LINE
  8
0
 10
577.453
 20
0.373032
 11
577.5
 21
0
  0
LINE
  8
0
 10
577.5
 20
0
 11
577.453
 21
-0.373032
  0
LINE
  8
0
 10
577.453
 20
-0.373032
 11
577.314
 21
-0.722626
  0
LINE
  8
0
 10
577.314
 20
-0.722626
 11
577.093
 21
-1.02681
  0
LINE
  8
0
 10
577.093
 20
-1.02681
 11
576.804
 21
-1.26648
  0
LINE
  8
0
 10
576.804
 20
-1.26648
 11
576.464
 21
-1.42657
  0
LINE
  8
0
 10
576.464
 20
-1.42657
 11
576.094
 21
-1.49704
  0
LINE
  8
0
 10
576.094
 20
-1.49704
 11
575.719
 21
-1.47342
  0
LINE
  8
0
 10
539.412
 20
-29.7501
 11
537.825
 21
-27
  0
LINE
  8
0
 10
537.825
 20
-27
 11
539.412
 21
-24.2499
  0
LINE
  8
0
 10
539.412
 20
-24.2499
 11
542.588
 21
-24.2499
  0
LINE
  8
0
 10
542.588
 20
-24.2499
 11
544.175
 21
-27
  0
LINE
  8
0
 10
544.175
 20
-27
 11
542.588
 21
-29.7501
  0
LINE
  8
0
 10
542.588
 20
-29.7501
 11
539.412
 21
-29.7501
  0
LINE
  8
0
 10
589.412
 20
-29.7501
 11
587.825
 21
-27
  0
LINE
  8
0
 10
587.825
 20
-27
 11
589.412
 21
-24.2499
  0
LINE
  8
0
 10
589.412
 20
-24.2499
 11
592.588
 21
-24.2499
  0
LINE
  8
0
 10
592.588
 20
-24.2499
 11
594.175
 21
-27
  0
LINE
  8
0
 10
594.175
 20
-27
 11
592.588
 21
-29.7501
  0
LINE
  8
0
 10
592.588
 20
-29.7501
 11
589.412
 21
-29.7501
  0
LINE
  8
0
 10
628.438
 20
-41.9469
 11
627.723
 21
-41.7145
  0
LINE
  8
0
 10
627.723
 20
-41.7145
 11
627.088
 21
-41.3115
  0
LINE
  8
0
 10
627.088
 20
-41.3115
 11
626.573
 21
-40.7634
  0
LINE
  8
0
 10
626.573
 20
-40.7634
 11
626.211
 21
-40.1044
  0
LINE
  8
0
 10
626.211
 20
-40.1044
 11
626.024
 21
-39.376
  0
LINE
  8
0
 10
626.024
 20
-39.376
 11
626.024
 21
-38.624
  0
LINE
  8
0
 10
626.024
 20
-38.624
 11
626.211
 21
-37.8956
  0
LINE
  8
0
 10
626.211
 20
-37.8956
 11
626.573
 21
-37.2366
  0
LINE
  8
0
 10
626.573
 20
-37.2366
 11
627.088
 21
-36.6885
  0
LINE
  8
0
 10
627.088
 20
-36.6885
 11
627.723
 21
-36.2855
  0
LINE
  8
0
 10
627.723
 20
-36.2855
 11
628.438
 21
-36.0531
  0
LINE
  8
0
 10
628.438
 20
-36.0531
 11
629.188
 21
-36.0059
  0
LINE
  8
0
 10
629.188
 20
-36.0059
 11
629.927
 21
-36.1468
  0
LINE
  8
0
 10
629.927
 20
-36.1468
 11
630.607
 21
-36.467
  0
LINE
  8
0
 10
630.607
 20
-36.467
 11
631.187
 21
-36.9464
  0
LINE
  8
0
 10
631.187
 20
-36.9464
 11
631.629
 21
-37.5547
  0
LINE
  8
0
 10
631.629
 20
-37.5547
 11
631.906
 21
-38.2539
  0
LINE
  8
0
 10
631.906
 20
-38.2539
 11
632
 21
-39
  0
LINE
  8
0
 10
632
 20
-39
 11
631.906
 21
-39.7461
  0
LINE
  8
0
 10
631.906
 20
-39.7461
 11
631.629
 21
-40.4453
  0
LINE
  8
0
 10
631.629
 20
-40.4453
 11
631.187
 21
-41.0536
  0
LINE
  8
0
 10
631.187
 20
-41.0536
 11
630.607
 21
-41.533
  0
LINE
  8
0
 10
630.607
 20
-41.533
 11
629.927
 21
-41.8532
  0
LINE
  8
0
 10
629.927
 20
-41.8532
 11
629.188
 21
-41.9941
  0
LINE
  8
0
 10
629.188
 20
-41.9941
 11
628.438
 21
-41.9469
  0
LINE
  8
0
 10
520.438
 20
-41.9469
 11
519.723
 21
-41.7145
  0
LINE
  8
0
 10
519.723
 20
-41.7145
 11
519.088
 21
-41.3115
  0
LINE
  8
0
 10
519.088
 20
-41.3115
 11
518.573
 21
-40.7634
  0
LINE
  8
0
 10
518.573
 20
-40.7634
 11
518.211
 21
-40.1044
  0
LINE
  8
0
 10
518.211
 20
-40.1044
 11
518.024
 21
-39.376
  0
LINE
  8
0
 10
518.024
 20
-39.376
 11
518.024
 21
-38.624
  0
LINE
  8
0
 10
518.024
 20
-38.624
 11
518.211
 21
-37.8956
  0
LINE
  8
0
 10
518.211
 20
-37.8956
 11
518.573
 21
-37.2366
  0
LINE
  8
0
 10
518.573
 20
-37.2366
 11
519.088
 21
-36.6885
  0
LINE
  8
0
 10
519.088
 20
-36.6885
 11
519.723
 21
-36.2855
  0
LINE
  8
0
 10
519.723
 20
-36.2855
 11
520.438
 21
-36.0531
  0
LINE
  8
0
 10
520.438
 20
-36.0531
 11
521.188
 21
-36.0059
  0
LINE
  8
0
 10
521.188
 20
-36.0059
 11
521.927
 21
-36.1468
  0
LINE
  8
0
 10
521.927
 20
-36.1468
 11
522.607
 21
-36.467
  0
LINE
  8
0
 10
522.607
 20
-36.467
 11
523.187
 21
-36.9464
  0
LINE
  8
0
 10
523.187
 20
-36.9464
 11
523.629
 21
-37.5547
  0
LINE
  8
0
 10
523.629
 20
-37.5547
 11
523.906
 21
-38.2539
  0
LINE
  8
0
 10
523.906
 20
-38.2539
 11
524
 21
-39
  0
LINE
  8
0
 10
524
 20
-39
 11
523.906
 21
-39.7461
  0
LINE
  8
0
 10
523.906
 20
-39.7461
 11
523.629
 21
-40.4453
  0
LINE
  8
0
 10
523.629
 20
-40.4453
 11
523.187
 21
-41.0536
  0
LINE
  8
0
 10
523.187
 20
-41.0536
 11
522.607
 21
-41.533
  0
LINE
  8
0
 10
522.607
 20
-41.533
 11
521.927
 21
-41.8532
  0
LINE
  8
0
 10
521.927
 20
-41.8532
 11
521.188
 21
-41.9941
  0
LINE
  8
0
 10
521.188
 20
-41.9941
 11
520.438
 21
-41.9469
  0
LINE
  8
0
 10
512
 20
45
 11
392
 21
45
  0
LINE
  8
0
 10
392
 20
45
 11
392
 21
29
  0
LINE
  8
0
 10
392
 20
29
 11
442
 21
29
  0
LINE
  8
0
 10
442
 20
29
 11
442
 21
27
  0
LINE
  8
0
 10
442
 20
27
 11
419.5
 21
27
  0
LINE
  8
0
 10
419.5
 20
27
 11
419.453
 21
26.627
  0
LINE
  8
0
 10
419.453
 20
26.627
 11
419.314
 21
26.2774
  0
LINE
  8
0
 10
419.314
 20
26.2774
 11
419.093
 21
25.9732
  0
LINE
  8
0
 10
419.093
 20
25.9732
 11
418.804
 21
25.7335
  0
LINE
  8
0
 10
418.804
 20
25.7335
 11
418.464
 21
25.5734
  0
LINE
  8
0
 10
418.464
 20
25.5734
 11
418.094
 21
25.503
  0
LINE
  8
0
 10
418.094
 20
25.503
 11
417.719
 21
25.5266
  0
LINE
  8
0
 10
417.719
 20
25.5266
 11
417.361
 21
25.6427
  0
LINE
  8
0
 10
417.361
 20
25.6427
 11
417.044
 21
25.8442
  0
LINE
  8
0
 10
417.044
 20
25.8442
 11
416.786
 21
26.1183
  0
LINE
  8
0
 10
416.786
 20
26.1183
 11
416.605
 21
26.4478
  0
LINE
  8
0
 10
416.605
 20
26.4478
 11
416.512
 21
26.812
  0
LINE
  8
0
 10
416.512
 20
26.812
 11
416.512
 21
27
  0
LINE
  8
0
 10
416.512
 20
27
 11
392
 21
27
  0
LINE
  8
0
 10
392
 20
27
 11
392
 21
22.5
  0
LINE
  8
0
 10
392
 20
22.5
 11
410
 21
22.5
  0
LINE
  8
0
 10
410
 20
22.5
 11
410
 21
15.005
  0
LINE
  8
0
 10
410
 20
15.005
 11
493.005
 21
15.005
  0
LINE
  8
0
 10
493.005
 20
15.005
 11
493.623
 21
14.9071
  0
LINE
  8
0
 10
493.623
 20
14.9071
 11
494.077
 21
14.6936
  0
LINE
  8
0
 10
494.077
 20
14.6936
 11
494.463
 21
14.3741
  0
LINE
  8
0
 10
494.463
 20
14.3741
 11
494.758
 21
13.9685
  0
LINE
  8
0
 10
494.758
 20
13.9685
 11
494.942
 21
13.5024
  0
LINE
  8
0
 10
494.942
 20
13.5024
 11
495.005
 21
13.005
  0
LINE
  8
0
 10
495.005
 20
13.005
 11
495.005
 21
-13.005
  0
LINE
  8
0
 10
495.005
 20
-13.005
 11
494.907
 21
-13.623
  0
LINE
  8
0
 10
494.907
 20
-13.623
 11
494.694
 21
-14.0766
  0
LINE
  8
0
 10
494.694
 20
-14.0766
 11
494.374
 21
-14.4629
  0
LINE
  8
0
 10
494.374
 20
-14.4629
 11
493.969
 21
-14.7576
  0
LINE
  8
0
 10
493.969
 20
-14.7576
 11
493.502
 21
-14.9422
  0
LINE
  8
0
 10
493.502
 20
-14.9422
 11
493.005
 21
-15.005
  0
LINE
  8
0
 10
493.005
 20
-15.005
 11
478.995
 21
-15.005
  0
LINE
  8
0
 10
478.995
 20
-15.005
 11
478.377
 21
-14.9071
  0
LINE
  8
0
 10
478.377
 20
-14.9071
 11
477.923
 21
-14.6936
  0
LINE
  8
0
 10
477.923
 20
-14.6936
 11
477.537
 21
-14.3741
  0
LINE
  8
0
 10
477.537
 20
-14.3741
 11
477.242
 21
-13.9685
  0
LINE
  8
0
 10
477.242
 20
-13.9685
 11
477.058
 21
-13.5024
  0
LINE
  8
0
 10
477.058
 20
-13.5024
 11
476.995
 21
-13.005
  0
LINE
  8
0
 10
476.995
 20
-13.005
 11
476.995
 21
-5.99501
  0
LINE
  8
0
 10
476.995
 20
-5.99501
 11
477.093
 21
-5.37698
  0
LINE
  8
0
 10
477.093
 20
-5.37698
 11
477.306
 21
-4.92336
  0
LINE
  8
0
 10
477.306
 20
-4.92336
 11
477.626
 21
-4.53708
  0
LINE
  8
0
 10
477.626
 20
-4.53708
 11
478.031
 21
-4.2424
  0
LINE
  8
0
 10
478.031
 20
-4.2424
 11
478.498
 21
-4.05785
  0
LINE
  8
0
 10
478.498
 20
-4.05785
 11
478.995
 21
-3.99501
  0
LINE
  8
0
 10
478.995
 20
-3.99501
 11
485.995
 21
-3.99501
  0
LINE
  8
0
 10
485.995
 20
-3.99501
 11
485.995
 21
3.99501
  0
LINE
  8
0
 10
485.995
 20
3.99501
 11
474.505
 21
3.99501
  0
LINE
  8
0
 10
474.505
 20
3.99501
 11
474.505
 21
-5.50499
  0
LINE
  8
0
 10
474.505
 20
-5.50499
 11
474.407
 21
-6.12302
  0
LINE
  8
0
 10
474.407
 20
-6.12302
 11
474.194
 21
-6.57664
  0
LINE
  8
0
 10
474.194
 20
-6.57664
 11
473.874
 21
-6.96292
  0
LINE
  8
0
 10
473.874
 20
-6.96292
 11
473.469
 21
-7.2576
  0
LINE
  8
0
 10
473.469
 20
-7.2576
 11
473.002
 21
-7.44215
  0
LINE
  8
0
 10
473.002
 20
-7.44215
 11
472.505
 21
-7.50499
  0
LINE
  8
0
 10
472.505
 20
-7.50499
 11
471.495
 21
-7.50499
  0
LINE
  8
0
 10
471.495
 20
-7.50499
 11
470.877
 21
-7.4071
  0
LINE
  8
0
 10
470.877
 20
-7.4071
 11
470.423
 21
-7.19365
  0
LINE
  8
0
 10
470.423
 20
-7.19365
 11
470.037
 21
-6.87408
  0
LINE
  8
0
 10
470.037
 20
-6.87408
 11
469.742
 21
-6.46849
  0
LINE
  8
0
 10
469.742
 20
-6.46849
 11
469.558
 21
-6.00237
  0
LINE
  8
0
 10
469.558
 20
-6.00237
 11
469.495
 21
-5.50499
  0
LINE
  8
0
 10
469.495
 20
-5.50499
 11
469.495
 21
3.99501
  0
LINE
  8
0
 10
469.495
 20
3.99501
 11
459.505
 21
3.99501
  0
LINE
  8
0
 10
459.505
 20
3.99501
 11
459.505
 21
-8.00499
  0
LINE
  8
0
 10
459.505
 20
-8.00499
 11
459.407
 21
-8.62302
  0
LINE
  8
0
 10
459.407
 20
-8.62302
 11
459.194
 21
-9.07664
  0
LINE
  8
0
 10
459.194
 20
-9.07664
 11
458.874
 21
-9.46292
  0
LINE
  8
0
 10
458.874
 20
-9.46292
 11
458.469
 21
-9.7576
  0
LINE
  8
0
 10
458.469
 20
-9.7576
 11
458.002
 21
-9.94215
  0
LINE
  8
0
 10
458.002
 20
-9.94215
 11
457.505
 21
-10.005
  0
LINE
  8
0
 10
457.505
 20
-10.005
 11
456.495
 21
-10.005
  0
LINE
  8
0
 10
456.495
 20
-10.005
 11
455.877
 21
-9.9071
  0
LINE
  8
0
 10
455.877
 20
-9.9071
 11
455.423
 21
-9.69365
  0
LINE
  8
0
 10
455.423
 20
-9.69365
 11
455.037
 21
-9.37408
  0
LINE
  8
0
 10
455.037
 20
-9.37408
 11
454.742
 21
-8.96849
  0
LINE
  8
0
 10
454.742
 20
-8.96849
 11
454.558
 21
-8.50237
  0
LINE
  8
0
 10
454.558
 20
-8.50237
 11
454.495
 21
-8.00499
  0
LINE
  8
0
 10
454.495
 20
-8.00499
 11
454.495
 21
-2.30412
  0
LINE
  8
0
 10
454.495
 20
-2.30412
 11
454.474
 21
-2.3219
  0
LINE
  8
0
 10
454.474
 20
-2.3219
 11
453.85
 21
-2.6154
  0
LINE
  8
0
 10
453.85
 20
-2.6154
 11
453.173
 21
-2.74457
  0
LINE
  8
0
 10
453.173
 20
-2.74457
 11
452.485
 21
-2.70128
  0
LINE
  8
0
 10
452.485
 20
-2.70128
 11
451.829
 21
-2.48827
  0
LINE
  8
0
 10
451.829
 20
-2.48827
 11
451.247
 21
-2.1189
  0
LINE
  8
0
 10
451.247
 20
-2.1189
 11
450.775
 21
-1.61641
  0
LINE
  8
0
 10
450.775
 20
-1.61641
 11
450.443
 21
-1.01233
  0
LINE
  8
0
 10
450.443
 20
-1.01233
 11
450.272
 21
-0.344666
  0
LINE
  8
0
 10
450.272
 20
-0.344666
 11
450.272
 21
0.344666
  0
LINE
  8
0
 10
450.272
 20
0.344666
 11
450.443
 21
1.01233
  0
LINE
  8
0
 10
450.443
 20
1.01233
 11
450.775
 21
1.61641
  0
LINE
  8
0
 10
450.775
 20
1.61641
 11
451.247
 21
2.1189
  0
LINE
  8
0
 10
451.247
 20
2.1189
 11
451.829
 21
2.48827
  0
LINE
  8
0
 10
451.829
 20
2.48827
 11
452.485
 21
2.70128
  0
LINE
  8
0
 10
452.485
 20
2.70128
 11
453.173
 21
2.74457
  0
LINE
  8
0
 10
453.173
 20
2.74457
 11
453.85
 21
2.6154
  0
LINE
  8
0
 10
453.85
 20
2.6154
 11
454.474
 21
2.3219
  0
LINE
  8
0
 10
454.474
 20
2.3219
 11
454.495
 21
2.30412
  0
LINE
  8
0
 10
454.495
 20
2.30412
 11
454.495
 21
3.99501
  0
LINE
  8
0
 10
454.495
 20
3.99501
 11
424
 21
3.99501
  0
LINE
  8
0
 10
424
 20
3.99501
 11
424
 21
-3.99501
  0
LINE
  8
0
 10
424
 20
-3.99501
 11
446.005
 21
-3.99501
  0
LINE
  8
0
 10
446.005
 20
-3.99501
 11
446.623
 21
-4.0929
  0
LINE
  8
0
 10
446.623
 20
-4.0929
 11
447.077
 21
-4.30635
  0
LINE
  8
0
 10
447.077
 20
-4.30635
 11
447.463
 21
-4.62592
  0
LINE
  8
0
 10
447.463
 20
-4.62592
 11
447.758
 21
-5.03151
  0
LINE
  8
0
 10
447.758
 20
-5.03151
 11
447.942
 21
-5.49763
  0
LINE
  8
0
 10
447.942
 20
-5.49763
 11
448.005
 21
-5.99501
  0
LINE
  8
0
 10
448.005
 20
-5.99501
 11
448.005
 21
-13.005
  0
LINE
  8
0
 10
448.005
 20
-13.005
 11
447.907
 21
-13.623
  0
LINE
  8
0
 10
447.907
 20
-13.623
 11
447.694
 21
-14.0766
  0
LINE
  8
0
 10
447.694
 20
-14.0766
 11
447.374
 21
-14.4629
  0
LINE
  8
0
 10
447.374
 20
-14.4629
 11
446.969
 21
-14.7576
  0
LINE
  8
0
 10
446.969
 20
-14.7576
 11
446.502
 21
-14.9422
  0
LINE
  8
0
 10
446.502
 20
-14.9422
 11
446.005
 21
-15.005
  0
LINE
  8
0
 10
446.005
 20
-15.005
 11
410
 21
-15.005
  0
LINE
  8
0
 10
410
 20
-15.005
 11
410
 21
-22.5
  0
LINE
  8
0
 10
410
 20
-22.5
 11
392
 21
-22.5
  0
LINE
  8
0
 10
392
 20
-22.5
 11
392
 21
-27
  0
LINE
  8
0
 10
392
 20
-27
 11
416.512
 21
-27
  0
LINE
  8
0
 10
416.512
 20
-27
 11
416.512
 21
-26.812
  0
LINE
  8
0
 10
416.512
 20
-26.812
 11
416.605
 21
-26.4478
  0
LINE
  8
0
 10
416.605
 20
-26.4478
 11
416.786
 21
-26.1183
  0
LINE
  8
0
 10
416.786
 20
-26.1183
 11
417.044
 21
-25.8442
  0
LINE
  8
0
 10
417.044
 20
-25.8442
 11
417.361
 21
-25.6427
  0
LINE
  8
0
 10
417.361
 20
-25.6427
 11
417.719
 21
-25.5266
  0
LINE
  8
0
 10
417.719
 20
-25.5266
 11
418.094
 21
-25.503
  0
LINE
  8
0
 10
418.094
 20
-25.503
 11
418.464
 21
-25.5734
  0
LINE
  8
0
 10
418.464
 20
-25.5734
 11
418.804
 21
-25.7335
  0
LINE
  8
0
 10
418.804
 20
-25.7335
 11
419.093
 21
-25.9732
  0
LINE
  8
0
 10
419.093
 20
-25.9732
 11
419.314
 21
-26.2774
  0
LINE
  8
0
 10
419.314
 20
-26.2774
 11
419.453
 21
-26.627
  0
LINE
  8
0
 10
419.453
 20
-26.627
 11
419.5
 21
-27
  0
LINE
  8
0
 10
419.5
 20
-27
 11
442
 21
-27
  0
LINE
  8
0
 10
442
 20
-27
 11
442
 21
-29
  0
LINE
  8
0
 10
442
 20
-29
 11
392
 21
-29
  0
LINE
  8
0
 10
392
 20
-29
 11
392
 21
-45
  0
LINE
  8
0
 10
392
 20
-45
 11
512
 21
-45
  0
LINE
  8
0
 10
512
 20
-45
 11
512
 21
45
  0
LINE
  8
0
 10
505.438
 20
36.0531
 11
504.723
 21
36.2855
  0
LINE
  8
0
 10
504.723
 20
36.2855
 11
504.088
 21
36.6885
  0
LINE
  8
0
 10
504.088
 20
36.6885
 11
503.573
 21
37.2366
  0
LINE
  8
0
 10
503.573
 20
37.2366
 11
503.211
 21
37.8956
  0
LINE
  8
0
 10
503.211
 20
37.8956
 11
503.024
 21
38.624
  0
LINE
  8
0
 10
503.024
 20
38.624
 11
503.024
 21
39.376
  0
LINE
  8
0
 10
503.024
 20
39.376
 11
503.211
 21
40.1044
  0
LINE
  8
0
 10
503.211
 20
40.1044
 11
503.573
 21
40.7634
  0
LINE
  8
0
 10
503.573
 20
40.7634
 11
504.088
 21
41.3115
  0
LINE
  8
0
 10
504.088
 20
41.3115
 11
504.723
 21
41.7145
  0
LINE
  8
0
 10
504.723
 20
41.7145
 11
505.438
 21
41.9469
  0
LINE
  8
0
 10
505.438
 20
41.9469
 11
506.188
 21
41.9941
  0
LINE
  8
0
 10
506.188
 20
41.9941
 11
506.927
 21
41.8532
  0
LINE
  8
0
 10
506.927
 20
41.8532
 11
507.607
 21
41.533
  0
LINE
  8
0
 10
507.607
 20
41.533
 11
508.187
 21
41.0536
  0
LINE
  8
0
 10
508.187
 20
41.0536
 11
508.629
 21
40.4453
  0
LINE
  8
0
 10
508.629
 20
40.4453
 11
508.906
 21
39.7461
  0
LINE
  8
0
 10
508.906
 20
39.7461
 11
509
 21
39
  0
LINE
  8
0
 10
509
 20
39
 11
508.906
 21
38.2539
  0
LINE
  8
0
 10
508.906
 20
38.2539
 11
508.629
 21
37.5547
  0
LINE
  8
0
 10
508.629
 20
37.5547
 11
508.187
 21
36.9464
  0
LINE
  8
0
 10
508.187
 20
36.9464
 11
507.607
 21
36.467
  0
LINE
  8
0
 10
507.607
 20
36.467
 11
506.927
 21
36.1468
  0
LINE
  8
0
 10
506.927
 20
36.1468
 11
506.188
 21
36.0059
  0
LINE
  8
0
 10
506.188
 20
36.0059
 11
505.438
 21
36.0531
  0
LINE
  8
0
 10
397.438
 20
36.0531
 11
396.723
 21
36.2855
  0
LINE
  8
0
 10
396.723
 20
36.2855
 11
396.088
 21
36.6885
  0
LINE
  8
0
 10
396.088
 20
36.6885
 11
395.573
 21
37.2366
  0
LINE
  8
0
 10
395.573
 20
37.2366
 11
395.211
 21
37.8956
  0
LINE
  8
0
 10
395.211
 20
37.8956
 11
395.024
 21
38.624
  0
LINE
  8
0
 10
395.024
 20
38.624
 11
395.024
 21
39.376
  0
LINE
  8
0
 10
395.024
 20
39.376
 11
395.211
 21
40.1044
  0
LINE
  8
0
 10
395.211
 20
40.1044
 11
395.573
 21
40.7634
  0
LINE
  8
0
 10
395.573
 20
40.7634
 11
396.088
 21
41.3115
  0
LINE
  8
0
 10
396.088
 20
41.3115
 11
396.723
 21
41.7145
  0
LINE
  8
0
 10
396.723
 20
41.7145
 11
397.438
 21
41.9469
  0
LINE
  8
0
 10
397.438
 20
41.9469
 11
398.188
 21
41.9941
  0
LINE
  8
0
 10
398.188
 20
41.9941
 11
398.927
 21
41.8532
  0
LINE
  8
0
 10
398.927
 20
41.8532
 11
399.607
 21
41.533
  0
LINE
  8
0
 10
399.607
 20
41.533
 11
400.187
 21
41.0536
  0
LINE
  8
0
 10
400.187
 20
41.0536
 11
400.629
 21
40.4453
  0
LINE
  8
0
 10
400.629
 20
40.4453
 11
400.906
 21
39.7461
  0
LINE
  8
0
 10
400.906
 20
39.7461
 11
401
 21
39
  0
LINE
  8
0
 10
401
 20
39
 11
400.906
 21
38.2539
  0
LINE
  8
0
 10
400.906
 20
38.2539
 11
400.629
 21
37.5547
  0
LINE
  8
0
 10
400.629
 20
37.5547
 11
400.187
 21
36.9464
  0
LINE
  8
0
 10
400.187
 20
36.9464
 11
399.607
 21
36.467
  0
LINE
  8
0
 10
399.607
 20
36.467
 11
398.927
 21
36.1468
  0
LINE
  8
0
 10
398.927
 20
36.1468
 11
398.188
 21
36.0059
  0
LINE
  8
0
 10
398.188
 20
36.0059
 11
397.438
 21
36.0531
  0
LINE
  8
0
 10
467.719
 20
25.5266
 11
467.361
 21
25.6427
  0
LINE
  8
0
 10
467.361
 20
25.6427
 11
467.044
 21
25.8442
  0
LINE
  8
0
 10
467.044
 20
25.8442
 11
466.786
 21
26.1183
  0
LINE
  8
0
 10
466.786
 20
26.1183
 11
466.605
 21
26.4478
  0
LINE
  8
0
 10
466.605
 20
26.4478
 11
466.512
 21
26.812
  0
LINE
  8
0
 10
466.512
 20
26.812
 11
466.512
 21
27.188
  0
LINE
  8
0
 10
466.512
 20
27.188
 11
466.605
 21
27.5522
  0
LINE
  8
0
 10
466.605
 20
27.5522
 11
466.786
 21
27.8817
  0
LINE
  8
0
 10
466.786
 20
27.8817
 11
467.044
 21
28.1558
  0
LINE
  8
0
 10
467.044
 20
28.1558
 11
467.361
 21
28.3572
  0
LINE
  8
0
 10
467.361
 20
28.3572
 11
467.719
 21
28.4734
  0
LINE
  8
0
 10
467.719
 20
28.4734
 11
468.094
 21
28.497
  0
LINE
  8
0
 10
468.094
 20
28.497
 11
468.464
 21
28.4266
  0
LINE
  8
0
 10
468.464
 20
28.4266
 11
468.804
 21
28.2665
  0
LINE
  8
0
 10
468.804
 20
28.2665
 11
469.093
 21
28.0268
  0
LINE
  8
0
 10
469.093
 20
28.0268
 11
469.314
 21
27.7226
  0
LINE
  8
0
 10
469.314
 20
27.7226
 11
469.453
 21
27.373
  0
LINE
  8
0
 10
469.453
 20
27.373
 11
469.5
 21
27
  0
LINE
  8
0
 10
469.5
 20
27
 11
469.453
 21
26.627
  0
LINE
  8
0
 10
469.453
 20
26.627
 11
469.314
 21
26.2774
  0
LINE
  8
0
 10
469.314
 20
26.2774
 11
469.093
 21
25.9732
  0
LINE
  8
0
 10
469.093
 20
25.9732
 11
468.804
 21
25.7335
  0
LINE
  8
0
 10
468.804
 20
25.7335
 11
468.464
 21
25.5734
  0
LINE
  8
0
 10
468.464
 20
25.5734
 11
468.094
 21
25.503
  0
LINE
  8
0
 10
468.094
 20
25.503
 11
467.719
 21
25.5266
  0
LINE
  8
0
 10
482.485
 20
-2.70128
 11
481.829
 21
-2.48827
  0
LINE
  8
0
 10
481.829
 20
-2.48827
 11
481.247
 21
-2.1189
  0
LINE
  8
0
 10
481.247
 20
-2.1189
 11
480.775
 21
-1.61641
  0
LINE
  8
0
 10
480.775
 20
-1.61641
 11
480.443
 21
-1.01233
  0
LINE
  8
0
 10
480.443
 20
-1.01233
 11
480.272
 21
-0.344666
  0
LINE
  8
0
 10
480.272
 20
-0.344666
 11
480.272
 21
0.344666
  0
LINE
  8
0
 10
480.272
 20
0.344666
 11
480.443
 21
1.01233
  0
LINE
  8
0
 10
480.443
 20
1.01233
 11
480.775
 21
1.61641
  0
LINE
  8
0
 10
480.775
 20
1.61641
 11
481.247
 21
2.1189
  0
LINE
  8
0
 10
481.247
 20
2.1189
 11
481.829
 21
2.48827
  0
LINE
  8
0
 10
481.829
 20
2.48827
 11
482.485
 21
2.70128
  0
LINE
  8
0
 10
482.485
 20
2.70128
 11
483.173
 21
2.74457
  0
LINE
  8
0
 10
483.173
 20
2.74457
 11
483.85
 21
2.6154
  0
LINE
  8
0
 10
483.85
 20
2.6154
 11
484.474
 21
2.3219
  0
LINE
  8
0
 10
484.474
 20
2.3219
 11
485.005
 21
1.88249
  0
LINE
  8
0
 10
485.005
 20
1.88249
 11
485.41
 21
1.32481
  0
LINE
  8
0
 10
485.41
 20
1.32481
 11
485.664
 21
0.683884
  0
LINE
  8
0
 10
485.664
 20
0.683884
 11
485.75
 21
0
  0
LINE
  8
0
 10
485.75
 20
0
 11
485.664
 21
-0.683884
  0
LINE
  8
0
 10
485.664
 20
-0.683884
 11
485.41
 21
-1.32481
  0
LINE
  8
0
 10
485.41
 20
-1.32481
 11
485.005
 21
-1.88249
  0
LINE
  8
0
 10
485.005
 20
-1.88249
 11
484.474
 21
-2.3219
  0
LINE
  8
0
 10
484.474
 20
-2.3219
 11
483.85
 21
-2.6154
  0
LINE
  8
0
 10
483.85
 20
-2.6154
 11
483.173
 21
-2.74457
  0
LINE
  8
0
 10
483.173
 20
-2.74457
 11
482.485
 21
-2.70128
  0
LINE
  8
0
 10
476.719
 20
-1.47342
 11
476.361
 21
-1.35724
  0
LINE
  8
0
 10
476.361
 20
-1.35724
 11
476.044
 21
-1.15576
  0
LINE
  8
0
 10
476.044
 20
-1.15576
 11
475.786
 21
-0.881668
  0
LINE
  8
0
 10
475.786
 20
-0.881668
 11
475.605
 21
-0.552185
  0
LINE
  8
0
 10
475.605
 20
-0.552185
 11
475.512
 21
-0.187988
  0
LINE
  8
0
 10
475.512
 20
-0.187988
 11
475.512
 21
0.187988
  0
LINE
  8
0
 10
475.512
 20
0.187988
 11
475.605
 21
0.552185
  0
LINE
  8
0
 10
475.605
 20
0.552185
 11
475.786
 21
0.881668
  0
LINE
  8
0
 10
475.786
 20
0.881668
 11
476.044
 21
1.15576
  0
LINE
  8
0
 10
476.044
 20
1.15576
 11
476.361
 21
1.35724
  0
LINE
  8
0
 10
476.361
 20
1.35724
 11
476.719
 21
1.47342
  0
LINE
  8
0
 10
476.719
 20
1.47342
 11
477.094
 21
1.49704
  0
LINE
  8
0
 10
477.094
 20
1.49704
 11
477.464
 21
1.42657
  0
LINE
  8
0
 10
477.464
 20
1.42657
 11
477.804
 21
1.26648
  0
LINE
  8
0
 10
477.804
 20
1.26648
 11
478.093
 21
1.02681
  0
LINE
  8
0
 10
478.093
 20
1.02681
 11
478.314
 21
0.722626
  0
LINE
  8
0
 10
478.314
 20
0.722626
 11
478.453
 21
0.373032
  0
LINE
  8
0
 10
478.453
 20
0.373032
 11
478.5
 21
0
  0
LINE
  8
0
 10
478.5
 20
0
 11
478.453
 21
-0.373032
  0
LINE
  8
0
 10
478.453
 20
-0.373032
 11
478.314
 21
-0.722626
  0
LINE
  8
0
 10
478.314
 20
-0.722626
 11
478.093
 21
-1.02681
  0
LINE
  8
0
 10
478.093
 20
-1.02681
 11
477.804
 21
-1.26648
  0
LINE
  8
0
 10
477.804
 20
-1.26648
 11
477.464
 21
-1.42657
  0
LINE
  8
0
 10
477.464
 20
-1.42657
 11
477.094
 21
-1.49704
  0
LINE
  8
0
 10
477.094
 20
-1.49704
 11
476.719
 21
-1.47342
  0
LINE
  8
0
 10
467.719
 20
-28.4734
 11
467.361
 21
-28.3572
  0
LINE
  8
0
 10
467.361
 20
-28.3572
 11
467.044
 21
-28.1558
  0
LINE
  8
0
 10
467.044
 20
-28.1558
 11
466.786
 21
-27.8817
  0
LINE
  8
0
 10
466.786
 20
-27.8817
 11
466.605
 21
-27.5522
  0
LINE
  8
0
 10
466.605
 20
-27.5522
 11
466.512
 21
-27.188
  0
LINE
  8
0
 10
466.512
 20
-27.188
 11
466.512
 21
-26.812
  0
LINE
  8
0
 10
466.512
 20
-26.812
 11
466.605
 21
-26.4478
  0
LINE
  8
0
 10
466.605
 20
-26.4478
 11
466.786
 21
-26.1183
  0
LINE
  8
0
 10
466.786
 20
-26.1183
 11
467.044
 21
-25.8442
  0
LINE
  8
0
 10
467.044
 20
-25.8442
 11
467.361
 21
-25.6427
  0
LINE
  8
0
 10
467.361
 20
-25.6427
 11
467.719
 21
-25.5266
  0
LINE
  8
0
 10
467.719
 20
-25.5266
 11
468.094
 21
-25.503
  0
LINE
  8
0
 10
468.094
 20
-25.503
 11
468.464
 21
-25.5734
  0
LINE
  8
0
 10
468.464
 20
-25.5734
 11
468.804
 21
-25.7335
  0
LINE
  8
0
 10
468.804
 20
-25.7335
 11
469.093
 21
-25.9732
  0
LINE
  8
0
 10
469.093
 20
-25.9732
 11
469.314
 21
-26.2774
  0
LINE
  8
0
 10
469.314
 20
-26.2774
 11
469.453
 21
-26.627
  0
LINE
  8
0
 10
469.453
 20
-26.627
 11
469.5
 21
-27
  0
LINE
  8
0
 10
469.5
 20
-27
 11
469.453
 21
-27.373
  0
LINE
  8
0
 10
469.453
 20
-27.373
 11
469.314
 21
-27.7226
  0
LINE
  8
0
 10
469.314
 20
-27.7226
 11
469.093
 21
-28.0268
  0
LINE
  8
0
 10
469.093
 20
-28.0268
 11
468.804
 21
-28.2665
  0
LINE
  8
0
 10
468.804
 20
-28.2665
 11
468.464
 21
-28.4266
  0
LINE
  8
0
 10
468.464
 20
-28.4266
 11
468.094
 21
-28.497
  0
LINE
  8
0
 10
468.094
 20
-28.497
 11
467.719
 21
-28.4734
  0
LINE
  8
0
 10
505.438
 20
-41.9469
 11
504.723
 21
-41.7145
  0
LINE
  8
0
 10
504.723
 20
-41.7145
 11
504.088
 21
-41.3115
  0
LINE
  8
0
 10
504.088
 20
-41.3115
 11
503.573
 21
-40.7634
  0
LINE
  8
0
 10
503.573
 20
-40.7634
 11
503.211
 21
-40.1044
  0
LINE
  8
0
 10
503.211
 20
-40.1044
 11
503.024
 21
-39.376
  0
LINE
  8
0
 10
503.024
 20
-39.376
 11
503.024
 21
-38.624
  0
LINE
  8
0
 10
503.024
 20
-38.624
 11
503.211
 21
-37.8956
  0
LINE
  8
0
 10
503.211
 20
-37.8956
 11
503.573
 21
-37.2366
  0
LINE
  8
0
 10
503.573
 20
-37.2366
 11
504.088
 21
-36.6885
  0
LINE
  8
0
 10
504.088
 20
-36.6885
 11
504.723
 21
-36.2855
  0
LINE
  8
0
 10
504.723
 20
-36.2855
 11
505.438
 21
-36.0531
  0
LINE
  8
0
 10
505.438
 20
-36.0531
 11
506.188
 21
-36.0059
  0
LINE
  8
0
 10
506.188
 20
-36.0059
 11
506.927
 21
-36.1468
  0
LINE
  8
0
 10
506.927
 20
-36.1468
 11
507.607
 21
-36.467
  0
LINE
  8
0
 10
507.607
 20
-36.467
 11
508.187
 21
-36.9464
  0
LINE
  8
0
 10
508.187
 20
-36.9464
 11
508.629
 21
-37.5547
  0
LINE
  8
0
 10
508.629
 20
-37.5547
 11
508.906
 21
-38.2539
  0
LINE
  8
0
 10
508.906
 20
-38.2539
 11
509
 21
-39
  0
LINE
  8
0
 10
509
 20
-39
 11
508.906
 21
-39.7461
  0
LINE
  8
0
 10
508.906
 20
-39.7461
 11
508.629
 21
-40.4453
  0
LINE
  8
0
 10
508.629
 20
-40.4453
 11
508.187
 21
-41.0536
  0
LINE
  8
0
 10
508.187
 20
-41.0536
 11
507.607
 21
-41.533
  0
LINE
  8
0
 10
507.607
 20
-41.533
 11
506.927
 21
-41.8532
  0
LINE
  8
0
 10
506.927
 20
-41.8532
 11
506.188
 21
-41.9941
  0
LINE
  8
0
 10
506.188
 20
-41.9941
 11
505.438
 21
-41.9469
  0
LINE
  8
0
 10
397.438
 20
-41.9469
 11
396.723
 21
-41.7145
  0
LINE
  8
0
 10
396.723
 20
-41.7145
 11
396.088
 21
-41.3115
  0
LINE
  8
0
 10
396.088
 20
-41.3115
 11
395.573
 21
-40.7634
  0
LINE
  8
0
 10
395.573
 20
-40.7634
 11
395.211
 21
-40.1044
  0
LINE
  8
0
 10
395.211
 20
-40.1044
 11
395.024
 21
-39.376
  0
LINE
  8
0
 10
395.024
 20
-39.376
 11
395.024
 21
-38.624
  0
LINE
  8
0
 10
395.024
 20
-38.624
 11
395.211
 21
-37.8956
  0
LINE
  8
0
 10
395.211
 20
-37.8956
 11
395.573
 21
-37.2366
  0
LINE
  8
0
 10
395.573
 20
-37.2366
 11
396.088
 21
-36.6885
  0
LINE
  8
0
 10
396.088
 20
-36.6885
 11
396.723
 21
-36.2855
  0
LINE
  8
0
 10
396.723
 20
-36.2855
 11
397.438
 21
-36.0531
  0
LINE
  8
0
 10
397.438
 20
-36.0531
 11
398.188
 21
-36.0059
  0
LINE
  8
0
 10
398.188
 20
-36.0059
 11
398.927
 21
-36.1468
  0
LINE
  8
0
 10
398.927
 20
-36.1468
 11
399.607
 21
-36.467
  0
LINE
  8
0
 10
399.607
 20
-36.467
 11
400.187
 21
-36.9464
  0
LINE
  8
0
 10
400.187
 20
-36.9464
 11
400.629
 21
-37.5547
  0
LINE
  8
0
 10
400.629
 20
-37.5547
 11
400.906
 21
-38.2539
  0
LINE
  8
0
 10
400.906
 20
-38.2539
 11
401
 21
-39
  0
LINE
  8
0
 10
401
 20
-39
 11
400.906
 21
-39.7461
  0
LINE
  8
0
 10
400.906
 20
-39.7461
 11
400.629
 21
-40.4453
  0
LINE
  8
0
 10
400.629
 20
-40.4453
 11
400.187
 21
-41.0536
  0
LINE
  8
0
 10
400.187
 20
-41.0536
 11
399.607
 21
-41.533
  0
LINE
  8
0
 10
399.607
 20
-41.533
 11
398.927
 21
-41.8532
  0
LINE
  8
0
 10
398.927
 20
-41.8532
 11
398.188
 21
-41.9941
  0
LINE
  8
0
 10
398.188
 20
-41.9941
 11
397.438
 21
-41.9469
  0
LINE
  8
0
 10
389
 20
45
 11
269
 21
45
  0
LINE
  8
0
 10
269
 20
45
 11
269
 21
34
  0
LINE
  8
0
 10
269
 20
34
 11
380
 21
34
  0
LINE
  8
0
 10
380
 20
34
 11
380
 21
-34
  0
LINE
  8
0
 10
380
 20
-34
 11
269
 21
-34
  0
LINE
  8
0
 10
269
 20
-34
 11
269
 21
-45
  0
LINE
  8
0
 10
269
 20
-45
 11
389
 21
-45
  0
LINE
  8
0
 10
389
 20
-45
 11
389
 21
45
  0
LINE
  8
0
 10
382.438
 20
36.0531
 11
381.723
 21
36.2855
  0
LINE
  8
0
 10
381.723
 20
36.2855
 11
381.088
 21
36.6885
  0
LINE
  8
0
 10
381.088
 20
36.6885
 11
380.573
 21
37.2366
  0
LINE
  8
0
 10
380.573
 20
37.2366
 11
380.211
 21
37.8956
  0
LINE
  8
0
 10
380.211
 20
37.8956
 11
380.024
 21
38.624
  0
LINE
  8
0
 10
380.024
 20
38.624
 11
380.024
 21
39.376
  0
LINE
  8
0
 10
380.024
 20
39.376
 11
380.211
 21
40.1044
  0
LINE
  8
0
 10
380.211
 20
40.1044
 11
380.573
 21
40.7634
  0
LINE
  8
0
 10
380.573
 20
40.7634
 11
381.088
 21
41.3115
  0
LINE
  8
0
 10
381.088
 20
41.3115
 11
381.723
 21
41.7145
  0
LINE
  8
0
 10
381.723
 20
41.7145
 11
382.438
 21
41.9469
  0
LINE
  8
0
 10
382.438
 20
41.9469
 11
383.188
 21
41.9941
  0
LINE
  8
0
 10
383.188
 20
41.9941
 11
383.927
 21
41.8532
  0
LINE
  8
0
 10
383.927
 20
41.8532
 11
384.607
 21
41.533
  0
LINE
  8
0
 10
384.607
 20
41.533
 11
385.187
 21
41.0536
  0
LINE
  8
0
 10
385.187
 20
41.0536
 11
385.629
 21
40.4453
  0
LINE
  8
0
 10
385.629
 20
40.4453
 11
385.906
 21
39.7461
  0
LINE
  8
0
 10
385.906
 20
39.7461
 11
386
 21
39
  0
LINE
  8
0
 10
386
 20
39
 11
385.906
 21
38.2539
  0
LINE
  8
0
 10
385.906
 20
38.2539
 11
385.629
 21
37.5547
  0
LINE
  8
0
 10
385.629
 20
37.5547
 11
385.187
 21
36.9464
  0
LINE
  8
0
 10
385.187
 20
36.9464
 11
384.607
 21
36.467
  0
LINE
  8
0
 10
384.607
 20
36.467
 11
383.927
 21
36.1468
  0
LINE
  8
0
 10
383.927
 20
36.1468
 11
383.188
 21
36.0059
  0
LINE
  8
0
 10
383.188
 20
36.0059
 11
382.438
 21
36.0531
  0
LINE
  8
0
 10
274.438
 20
36.0531
 11
273.723
 21
36.2855
  0
LINE
  8
0
 10
273.723
 20
36.2855
 11
273.088
 21
36.6885
  0
LINE
  8
0
 10
273.088
 20
36.6885
 11
272.573
 21
37.2366
  0
LINE
  8
0
 10
272.573
 20
37.2366
 11
272.211
 21
37.8956
  0
LINE
  8
0
 10
272.211
 20
37.8956
 11
272.024
 21
38.624
  0
LINE
  8
0
 10
272.024
 20
38.624
 11
272.024
 21
39.376
  0
LINE
  8
0
 10
272.024
 20
39.376
 11
272.211
 21
40.1044
  0
LINE
  8
0
 10
272.211
 20
40.1044
 11
272.573
 21
40.7634
  0
LINE
  8
0
 10
272.573
 20
40.7634
 11
273.088
 21
41.3115
  0
LINE
  8
0
 10
273.088
 20
41.3115
 11
273.723
 21
41.7145
  0
LINE
  8
0
 10
273.723
 20
41.7145
 11
274.438
 21
41.9469
  0
LINE
  8
0
 10
274.438
 20
41.9469
 11
275.188
 21
41.9941
  0
LINE
  8
0
 10
275.188
 20
41.9941
 11
275.927
 21
41.8532
  0
LINE
  8
0
 10
275.927
 20
41.8532
 11
276.607
 21
41.533
  0
LINE
  8
0
 10
276.607
 20
41.533
 11
277.187
 21
41.0536
  0
LINE
  8
0
 10
277.187
 20
41.0536
 11
277.629
 21
40.4453
  0
LINE
  8
0
 10
277.629
 20
40.4453
 11
277.906
 21
39.7461
  0
LINE
  8
0
 10
277.906
 20
39.7461
 11
278
 21
39
  0
LINE
  8
0
 10
278
 20
39
 11
277.906
 21
38.2539
  0
LINE
  8
0
 10
277.906
 20
38.2539
 11
277.629
 21
37.5547
  0
LINE
  8
0
 10
277.629
 20
37.5547
 11
277.187
 21
36.9464
  0
LINE
  8
0
 10
277.187
 20
36.9464
 11
276.607
 21
36.467
  0
LINE
  8
0
 10
276.607
 20
36.467
 11
275.927
 21
36.1468
  0
LINE
  8
0
 10
275.927
 20
36.1468
 11
275.188
 21
36.0059
  0
LINE
  8
0
 10
275.188
 20
36.0059
 11
274.438
 21
36.0531
  0
LINE
  8
0
 10
382.438
 20
-41.9469
 11
381.723
 21
-41.7145
  0
LINE
  8
0
 10
381.723
 20
-41.7145
 11
381.088
 21
-41.3115
  0
LINE
  8
0
 10
381.088
 20
-41.3115
 11
380.573
 21
-40.7634
  0
LINE
  8
0
 10
380.573
 20
-40.7634
 11
380.211
 21
-40.1044
  0
LINE
  8
0
 10
380.211
 20
-40.1044
 11
380.024
 21
-39.376
  0
LINE
  8
0
 10
380.024
 20
-39.376
 11
380.024
 21
-38.624
  0
LINE
  8
0
 10
380.024
 20
-38.624
 11
380.211
 21
-37.8956
  0
LINE
  8
0
 10
380.211
 20
-37.8956
 11
380.573
 21
-37.2366
  0
LINE
  8
0
 10
380.573
 20
-37.2366
 11
381.088
 21
-36.6885
  0
LINE
  8
0
 10
381.088
 20
-36.6885
 11
381.723
 21
-36.2855
  0
LINE
  8
0
 10
381.723
 20
-36.2855
 11
382.438
 21
-36.0531
  0
LINE
  8
0
 10
382.438
 20
-36.0531
 11
383.188
 21
-36.0059
  0
LINE
  8
0
 10
383.188
 20
-36.0059
 11
383.927
 21
-36.1468
  0
LINE
  8
0
 10
383.927
 20
-36.1468
 11
384.607
 21
-36.467
  0
LINE
  8
0
 10
384.607
 20
-36.467
 11
385.187
 21
-36.9464
  0
LINE
  8
0
 10
385.187
 20
-36.9464
 11
385.629
 21
-37.5547
  0
LINE
  8
0
 10
385.629
 20
-37.5547
 11
385.906
 21
-38.2539
  0
LINE
  8
0
 10
385.906
 20
-38.2539
 11
386
 21
-39
  0
LINE
  8
0
 10
386
 20
-39
 11
385.906
 21
-39.7461
  0
LINE
  8
0
 10
385.906
 20
-39.7461
 11
385.629
 21
-40.4453
  0
LINE
  8
0
 10
385.629
 20
-40.4453
 11
385.187
 21
-41.0536
  0
LINE
  8
0
 10
385.187
 20
-41.0536
 11
384.607
 21
-41.533
  0
LINE
  8
0
 10
384.607
 20
-41.533
 11
383.927
 21
-41.8532
  0
LINE
  8
0
 10
383.927
 20
-41.8532
 11
383.188
 21
-41.9941
  0
LINE
  8
0
 10
383.188
 20
-41.9941
 11
382.438
 21
-41.9469
  0
LINE
  8
0
 10
274.438
 20
-41.9469
 11
273.723
 21
-41.7145
  0
LINE
  8
0
 10
273.723
 20
-41.7145
 11
273.088
 21
-41.3115
  0
LINE
  8
0
 10
273.088
 20
-41.3115
 11
272.573
 21
-40.7634
  0
LINE
  8
0
 10
272.573
 20
-40.7634
 11
272.211
 21
-40.1044
  0
LINE
  8
0
 10
272.211
 20
-40.1044
 11
272.024
 21
-39.376
  0
LINE
  8
0
 10
272.024
 20
-39.376
 11
272.024
 21
-38.624
  0
LINE
  8
0
 10
272.024
 20
-38.624
 11
272.211
 21
-37.8956
  0
LINE
  8
0
 10
272.211
 20
-37.8956
 11
272.573
 21
-37.2366
  0
LINE
  8
0
 10
272.573
 20
-37.2366
 11
273.088
 21
-36.6885
  0
LINE
  8
0
 10
273.088
 20
-36.6885
 11
273.723
 21
-36.2855
  0
LINE
  8
0
 10
273.723
 20
-36.2855
 11
274.438
 21
-36.0531
  0
LINE
  8
0
 10
274.438
 20
-36.0531
 11
275.188
 21
-36.0059
  0
LINE
  8
0
 10
275.188
 20
-36.0059
 11
275.927
 21
-36.1468
  0
LINE
  8
0
 10
275.927
 20
-36.1468
 11
276.607
 21
-36.467
  0
LINE
  8
0
 10
276.607
 20
-36.467
 11
277.187
 21
-36.9464
  0
LINE
  8
0
 10
277.187
 20
-36.9464
 11
277.629
 21
-37.5547
  0
LINE
  8
0
 10
277.629
 20
-37.5547
 11
277.906
 21
-38.2539
  0
LINE
  8
0
 10
277.906
 20
-38.2539
 11
278
 21
-39
  0
LINE
  8
0
 10
278
 20
-39
 11
277.906
 21
-39.7461
  0
LINE
  8
0
 10
277.906
 20
-39.7461
 11
277.629
 21
-40.4453
  0
LINE
  8
0
 10
277.629
 20
-40.4453
 11
277.187
 21
-41.0536
  0
LINE
  8
0
 10
277.187
 20
-41.0536
 11
276.607
 21
-41.533
  0
LINE
  8
0
 10
276.607
 20
-41.533
 11
275.927
 21
-41.8532
  0
LINE
  8
0
 10
275.927
 20
-41.8532
 11
275.188
 21
-41.9941
  0
LINE
  8
0
 10
275.188
 20
-41.9941
 11
274.438
 21
-41.9469
  0
LINE
  8
0
 10
266
 20
45
 11
146
 21
45
  0
LINE
  8
0
 10
146
 20
45
 11
146
 21
21.5
  0
LINE
  8
0
 10
146
 20
21.5
 11
231.5
 21
21.5
  0
LINE
  8
0
 10
231.5
 20
21.5
 11
231.5
 21
21.3726
  0
LINE
  8
0
 10
231.5
 20
21.3726
 11
232.85
 21
21.4576
  0
LINE
  8
0
 10
232.85
 20
21.4576
 11
238.144
 21
20.4477
  0
LINE
  8
0
 10
238.144
 20
20.4477
 11
243.02
 21
18.153
  0
LINE
  8
0
 10
243.02
 20
18.153
 11
247.173
 21
14.7178
  0
LINE
  8
0
 10
247.173
 20
14.7178
 11
250.341
 21
10.3577
  0
LINE
  8
0
 10
250.341
 20
10.3577
 11
252.325
 21
5.34683
  0
LINE
  8
0
 10
252.325
 20
5.34683
 11
253
 21
0
  0
LINE
  8
0
 10
253
 20
0
 11
252.325
 21
-5.34683
  0
LINE
  8
0
 10
252.325
 20
-5.34683
 11
250.341
 21
-10.3577
  0
LINE
  8
0
 10
250.341
 20
-10.3577
 11
247.173
 21
-14.7178
  0
LINE
  8
0
 10
247.173
 20
-14.7178
 11
243.02
 21
-18.153
  0
LINE
  8
0
 10
243.02
 20
-18.153
 11
238.144
 21
-20.4477
  0
LINE
  8
0
 10
238.144
 20
-20.4477
 11
232.85
 21
-21.4576
  0
LINE
  8
0
 10
232.85
 20
-21.4576
 11
231.5
 21
-21.3726
  0
LINE
  8
0
 10
231.5
 20
-21.3726
 11
231.5
 21
-21.5
  0
LINE
  8
0
 10
231.5
 20
-21.5
 11
146
 21
-21.5
  0
LINE
  8
0
 10
146
 20
-21.5
 11
146
 21
-45
  0
LINE
  8
0
 10
146
 20
-45
 11
266
 21
-45
  0
LINE
  8
0
 10
266
 20
-45
 11
266
 21
45
  0
LINE
  8
0
 10
259.438
 20
36.0531
 11
258.723
 21
36.2855
  0
LINE
  8
0
 10
258.723
 20
36.2855
 11
258.088
 21
36.6885
  0
LINE
  8
0
 10
258.088
 20
36.6885
 11
257.573
 21
37.2366
  0
LINE
  8
0
 10
257.573
 20
37.2366
 11
257.211
 21
37.8956
  0
LINE
  8
0
 10
257.211
 20
37.8956
 11
257.024
 21
38.624
  0
LINE
  8
0
 10
257.024
 20
38.624
 11
257.024
 21
39.376
  0
LINE
  8
0
 10
257.024
 20
39.376
 11
257.211
 21
40.1044
  0
LINE
  8
0
 10
257.211
 20
40.1044
 11
257.573
 21
40.7634
  0
LINE
  8
0
 10
257.573
 20
40.7634
 11
258.088
 21
41.3115
  0
LINE
  8
0
 10
258.088
 20
41.3115
 11
258.723
 21
41.7145
  0
LINE
  8
0
 10
258.723
 20
41.7145
 11
259.438
 21
41.9469
  0
LINE
  8
0
 10
259.438
 20
41.9469
 11
260.188
 21
41.9941
  0
LINE
  8
0
 10
260.188
 20
41.9941
 11
260.927
 21
41.8532
  0
LINE
  8
0
 10
260.927
 20
41.8532
 11
261.607
 21
41.533
  0
LINE
  8
0
 10
261.607
 20
41.533
 11
262.187
 21
41.0536
  0
LINE
  8
0
 10
262.187
 20
41.0536
 11
262.629
 21
40.4453
  0
LINE
  8
0
 10
262.629
 20
40.4453
 11
262.906
 21
39.7461
  0
LINE
  8
0
 10
262.906
 20
39.7461
 11
263
 21
39
  0
LINE
  8
0
 10
263
 20
39
 11
262.906
 21
38.2539
  0
LINE
  8
0
 10
262.906
 20
38.2539
 11
262.629
 21
37.5547
  0
LINE
  8
0
 10
262.629
 20
37.5547
 11
262.187
 21
36.9464
  0
LINE
  8
0
 10
262.187
 20
36.9464
 11
261.607
 21
36.467
  0
LINE
  8
0
 10
261.607
 20
36.467
 11
260.927
 21
36.1468
  0
LINE
  8
0
 10
260.927
 20
36.1468
 11
260.188
 21
36.0059
  0
LINE
  8
0
 10
260.188
 20
36.0059
 11
259.438
 21
36.0531
  0
LINE
  8
0
 10
151.438
 20
36.0531
 11
150.723
 21
36.2855
  0
LINE
  8
0
 10
150.723
 20
36.2855
 11
150.088
 21
36.6885
  0
LINE
  8
0
 10
150.088
 20
36.6885
 11
149.573
 21
37.2366
  0
LINE
  8
0
 10
149.573
 20
37.2366
 11
149.211
 21
37.8956
  0
LINE
  8
0
 10
149.211
 20
37.8956
 11
149.024
 21
38.624
  0
LINE
  8
0
 10
149.024
 20
38.624
 11
149.024
 21
39.376
  0
LINE
  8
0
 10
149.024
 20
39.376
 11
149.211
 21
40.1044
  0
LINE
  8
0
 10
149.211
 20
40.1044
 11
149.573
 21
40.7634
  0
LINE
  8
0
 10
149.573
 20
40.7634
 11
150.088
 21
41.3115
  0
LINE
  8
0
 10
150.088
 20
41.3115
 11
150.723
 21
41.7145
  0
LINE
  8
0
 10
150.723
 20
41.7145
 11
151.438
 21
41.9469
  0
LINE
  8
0
 10
151.438
 20
41.9469
 11
152.188
 21
41.9941
  0
LINE
  8
0
 10
152.188
 20
41.9941
 11
152.927
 21
41.8532
  0
LINE
  8
0
 10
152.927
 20
41.8532
 11
153.607
 21
41.533
  0
LINE
  8
0
 10
153.607
 20
41.533
 11
154.187
 21
41.0536
  0
LINE
  8
0
 10
154.187
 20
41.0536
 11
154.629
 21
40.4453
  0
LINE
  8
0
 10
154.629
 20
40.4453
 11
154.906
 21
39.7461
  0
LINE
  8
0
 10
154.906
 20
39.7461
 11
155
 21
39
  0
LINE
  8
0
 10
155
 20
39
 11
154.906
 21
38.2539
  0
LINE
  8
0
 10
154.906
 20
38.2539
 11
154.629
 21
37.5547
  0
LINE
  8
0
 10
154.629
 20
37.5547
 11
154.187
 21
36.9464
  0
LINE
  8
0
 10
154.187
 20
36.9464
 11
153.607
 21
36.467
  0
LINE
  8
0
 10
153.607
 20
36.467
 11
152.927
 21
36.1468
  0
LINE
  8
0
 10
152.927
 20
36.1468
 11
152.188
 21
36.0059
  0
LINE
  8
0
 10
152.188
 20
36.0059
 11
151.438
 21
36.0531
  0
LINE
  8
0
 10
221.719
 20
25.5266
 11
221.361
 21
25.6427
  0
LINE
  8
0
 10
221.361
 20
25.6427
 11
221.044
 21
25.8442
  0
LINE
  8
0
 10
221.044
 20
25.8442
 11
220.786
 21
26.1183
  0
LINE
  8
0
 10
220.786
 20
26.1183
 11
220.605
 21
26.4478
  0
LINE
  8
0
 10
220.605
 20
26.4478
 11
220.512
 21
26.812
  0
LINE
  8
0
 10
220.512
 20
26.812
 11
220.512
 21
27.188
  0
LINE
  8
0
 10
220.512
 20
27.188
 11
220.605
 21
27.5522
  0
LINE
  8
0
 10
220.605
 20
27.5522
 11
220.786
 21
27.8817
  0
LINE
  8
0
 10
220.786
 20
27.8817
 11
221.044
 21
28.1558
  0
LINE
  8
0
 10
221.044
 20
28.1558
 11
221.361
 21
28.3572
  0
LINE
  8
0
 10
221.361
 20
28.3572
 11
221.719
 21
28.4734
  0
LINE
  8
0
 10
221.719
 20
28.4734
 11
222.094
 21
28.497
  0
LINE
  8
0
 10
222.094
 20
28.497
 11
222.464
 21
28.4266
  0
LINE
  8
0
 10
222.464
 20
28.4266
 11
222.804
 21
28.2665
  0
LINE
  8
0
 10
222.804
 20
28.2665
 11
223.093
 21
28.0268
  0
LINE
  8
0
 10
223.093
 20
28.0268
 11
223.314
 21
27.7226
  0
LINE
  8
0
 10
223.314
 20
27.7226
 11
223.453
 21
27.373
  0
LINE
  8
0
 10
223.453
 20
27.373
 11
223.5
 21
27
  0
LINE
  8
0
 10
223.5
 20
27
 11
223.453
 21
26.627
  0
LINE
  8
0
 10
223.453
 20
26.627
 11
223.314
 21
26.2774
  0
LINE
  8
0
 10
223.314
 20
26.2774
 11
223.093
 21
25.9732
  0
LINE
  8
0
 10
223.093
 20
25.9732
 11
222.804
 21
25.7335
  0
LINE
  8
0
 10
222.804
 20
25.7335
 11
222.464
 21
25.5734
  0
LINE
  8
0
 10
222.464
 20
25.5734
 11
222.094
 21
25.503
  0
LINE
  8
0
 10
222.094
 20
25.503
 11
221.719
 21
25.5266
  0
LINE
  8
0
 10
171.719
 20
25.5266
 11
171.361
 21
25.6427
  0
LINE
  8
0
 10
171.361
 20
25.6427
 11
171.044
 21
25.8442
  0
LINE
  8
0
 10
171.044
 20
25.8442
 11
170.786
 21
26.1183
  0
LINE
  8
0
 10
170.786
 20
26.1183
 11
170.605
 21
26.4478
  0
LINE
  8
0
 10
170.605
 20
26.4478
 11
170.512
 21
26.812
  0
LINE
  8
0
 10
170.512
 20
26.812
 11
170.512
 21
27.188
  0
LINE
  8
0
 10
170.512
 20
27.188
 11
170.605
 21
27.5522
  0
LINE
  8
0
 10
170.605
 20
27.5522
 11
170.786
 21
27.8817
  0
LINE
  8
0
 10
170.786
 20
27.8817
 11
171.044
 21
28.1558
  0
LINE
  8
0
 10
171.044
 20
28.1558
 11
171.361
 21
28.3572
  0
LINE
  8
0
 10
171.361
 20
28.3572
 11
171.719
 21
28.4734
  0
LINE
  8
0
 10
171.719
 20
28.4734
 11
172.094
 21
28.497
  0
LINE
  8
0
 10
172.094
 20
28.497
 11
172.464
 21
28.4266
  0
LINE
  8
0
 10
172.464
 20
28.4266
 11
172.804
 21
28.2665
  0
LINE
  8
0
 10
172.804
 20
28.2665
 11
173.093
 21
28.0268
  0
LINE
  8
0
 10
173.093
 20
28.0268
 11
173.314
 21
27.7226
  0
LINE
  8
0
 10
173.314
 20
27.7226
 11
173.453
 21
27.373
  0
LINE
  8
0
 10
173.453
 20
27.373
 11
173.5
 21
27
  0
LINE
  8
0
 10
173.5
 20
27
 11
173.453
 21
26.627
  0
LINE
  8
0
 10
173.453
 20
26.627
 11
173.314
 21
26.2774
  0
LINE
  8
0
 10
173.314
 20
26.2774
 11
173.093
 21
25.9732
  0
LINE
  8
0
 10
173.093
 20
25.9732
 11
172.804
 21
25.7335
  0
LINE
  8
0
 10
172.804
 20
25.7335
 11
172.464
 21
25.5734
  0
LINE
  8
0
 10
172.464
 20
25.5734
 11
172.094
 21
25.503
  0
LINE
  8
0
 10
172.094
 20
25.503
 11
171.719
 21
25.5266
  0
LINE
  8
0
 10
171.719
 20
-28.4734
 11
171.361
 21
-28.3572
  0
LINE
  8
0
 10
171.361
 20
-28.3572
 11
171.044
 21
-28.1558
  0
LINE
  8
0
 10
171.044
 20
-28.1558
 11
170.786
 21
-27.8817
  0
LINE
  8
0
 10
170.786
 20
-27.8817
 11
170.605
 21
-27.5522
  0
LINE
  8
0
 10
170.605
 20
-27.5522
 11
170.512
 21
-27.188
  0
LINE
  8
0
 10
170.512
 20
-27.188
 11
170.512
 21
-26.812
  0
LINE
  8
0
 10
170.512
 20
-26.812
 11
170.605
 21
-26.4478
  0
LINE
  8
0
 10
170.605
 20
-26.4478
 11
170.786
 21
-26.1183
  0
LINE
  8
0
 10
170.786
 20
-26.1183
 11
171.044
 21
-25.8442
  0
LINE
  8
0
 10
171.044
 20
-25.8442
 11
171.361
 21
-25.6427
  0
LINE
  8
0
 10
171.361
 20
-25.6427
 11
171.719
 21
-25.5266
  0
LINE
  8
0
 10
171.719
 20
-25.5266
 11
172.094
 21
-25.503
  0
LINE
  8
0
 10
172.094
 20
-25.503
 11
172.464
 21
-25.5734
  0
LINE
  8
0
 10
172.464
 20
-25.5734
 11
172.804
 21
-25.7335
  0
LINE
  8
0
 10
172.804
 20
-25.7335
 11
173.093
 21
-25.9732
  0
LINE
  8
0
 10
173.093
 20
-25.9732
 11
173.314
 21
-26.2774
  0
LINE
  8
0
 10
173.314
 20
-26.2774
 11
173.453
 21
-26.627
  0
LINE
  8
0
 10
173.453
 20
-26.627
 11
173.5
 21
-27
  0
LINE
  8
0
 10
173.5
 20
-27
 11
173.453
 21
-27.373
  0
LINE
  8
0
 10
173.453
 20
-27.373
 11
173.314
 21
-27.7226
  0
LINE
  8
0
 10
173.314
 20
-27.7226
 11
173.093
 21
-28.0268
  0
LINE
  8
0
 10
173.093
 20
-28.0268
 11
172.804
 21
-28.2665
  0
LINE
  8
0
 10
172.804
 20
-28.2665
 11
172.464
 21
-28.4266
  0
LINE
  8
0
 10
172.464
 20
-28.4266
 11
172.094
 21
-28.497
  0
LINE
  8
0
 10
172.094
 20
-28.497
 11
171.719
 21
-28.4734
  0
LINE
  8
0
 10
221.719
 20
-28.4734
 11
221.361
 21
-28.3572
  0
LINE
  8
0
 10
221.361
 20
-28.3572
 11
221.044
 21
-28.1558
  0
LINE
  8
0
 10
221.044
 20
-28.1558
 11
220.786
 21
-27.8817
  0
LINE
  8
0
 10
220.786
 20
-27.8817
 11
220.605
 21
-27.5522
  0
LINE
  8
0
 10
220.605
 20
-27.5522
 11
220.512
 21
-27.188
  0
LINE
  8
0
 10
220.512
 20
-27.188
 11
220.512
 21
-26.812
  0
LINE
  8
0
 10
220.512
 20
-26.812
 11
220.605
 21
-26.4478
  0
LINE
  8
0
 10
220.605
 20
-26.4478
 11
220.786
 21
-26.1183
  0
LINE
  8
0
 10
220.786
 20
-26.1183
 11
221.044
 21
-25.8442
  0
LINE
  8
0
 10
221.044
 20
-25.8442
 11
221.361
 21
-25.6427
  0
LINE
  8
0
 10
221.361
 20
-25.6427
 11
221.719
 21
-25.5266
  0
LINE
  8
0
 10
221.719
 20
-25.5266
 11
222.094
 21
-25.503
  0
LINE
  8
0
 10
222.094
 20
-25.503
 11
222.464
 21
-25.5734
  0
LINE
  8
0
 10
222.464
 20
-25.5734
 11
222.804
 21
-25.7335
  0
LINE
  8
0
 10
222.804
 20
-25.7335
 11
223.093
 21
-25.9732
  0
LINE
  8
0
 10
223.093
 20
-25.9732
 11
223.314
 21
-26.2774
  0
LINE
  8
0
 10
223.314
 20
-26.2774
 11
223.453
 21
-26.627
  0
LINE
  8
0
 10
223.453
 20
-26.627
 11
223.5
 21
-27
  0
LINE
  8
0
 10
223.5
 20
-27
 11
223.453
 21
-27.373
  0
LINE
  8
0
 10
223.453
 20
-27.373
 11
223.314
 21
-27.7226
  0
LINE
  8
0
 10
223.314
 20
-27.7226
 11
223.093
 21
-28.0268
  0
LINE
  8
0
 10
223.093
 20
-28.0268
 11
222.804
 21
-28.2665
  0
LINE
  8
0
 10
222.804
 20
-28.2665
 11
222.464
 21
-28.4266
  0
LINE
  8
0
 10
222.464
 20
-28.4266
 11
222.094
 21
-28.497
  0
LINE
  8
0
 10
222.094
 20
-28.497
 11
221.719
 21
-28.4734
  0
LINE
  8
0
 10
259.438
 20
-41.9469
 11
258.723
 21
-41.7145
  0
LINE
  8
0
 10
258.723
 20
-41.7145
 11
258.088
 21
-41.3115
  0
LINE
  8
0
 10
258.088
 20
-41.3115
 11
257.573
 21
-40.7634
  0
LINE
  8
0
 10
257.573
 20
-40.7634
 11
257.211
 21
-40.1044
  0
LINE
  8
0
 10
257.211
 20
-40.1044
 11
257.024
 21
-39.376
  0
LINE
  8
0
 10
257.024
 20
-39.376
 11
257.024
 21
-38.624
  0
LINE
  8
0
 10
257.024
 20
-38.624
 11
257.211
 21
-37.8956
  0
LINE
  8
0
 10
257.211
 20
-37.8956
 11
257.573
 21
-37.2366
  0
LINE
  8
0
 10
257.573
 20
-37.2366
 11
258.088
 21
-36.6885
  0
LINE
  8
0
 10
258.088
 20
-36.6885
 11
258.723
 21
-36.2855
  0
LINE
  8
0
 10
258.723
 20
-36.2855
 11
259.438
 21
-36.0531
  0
LINE
  8
0
 10
259.438
 20
-36.0531
 11
260.188
 21
-36.0059
  0
LINE
  8
0
 10
260.188
 20
-36.0059
 11
260.927
 21
-36.1468
  0
LINE
  8
0
 10
260.927
 20
-36.1468
 11
261.607
 21
-36.467
  0
LINE
  8
0
 10
261.607
 20
-36.467
 11
262.187
 21
-36.9464
  0
LINE
  8
0
 10
262.187
 20
-36.9464
 11
262.629
 21
-37.5547
  0
LINE
  8
0
 10
262.629
 20
-37.5547
 11
262.906
 21
-38.2539
  0
LINE
  8
0
 10
262.906
 20
-38.2539
 11
263
 21
-39
  0
LINE
  8
0
 10
263
 20
-39
 11
262.906
 21
-39.7461
  0
LINE
  8
0
 10
262.906
 20
-39.7461
 11
262.629
 21
-40.4453
  0
LINE
  8
0
 10
262.629
 20
-40.4453
 11
262.187
 21
-41.0536
  0
LINE
  8
0
 10
262.187
 20
-41.0536
 11
261.607
 21
-41.533
  0
LINE
  8
0
 10
261.607
 20
-41.533
 11
260.927
 21
-41.8532
  0
LINE
  8
0
 10
260.927
 20
-41.8532
 11
260.188
 21
-41.9941
  0
LINE
  8
0
 10
260.188
 20
-41.9941
 11
259.438
 21
-41.9469
  0
LINE
  8
0
 10
151.438
 20
-41.9469
 11
150.723
 21
-41.7145
  0
LINE
  8
0
 10
150.723
 20
-41.7145
 11
150.088
 21
-41.3115
  0
LINE
  8
0
 10
150.088
 20
-41.3115
 11
149.573
 21
-40.7634
  0
LINE
  8
0
 10
149.573
 20
-40.7634
 11
149.211
 21
-40.1044
  0
LINE
  8
0
 10
149.211
 20
-40.1044
 11
149.024
 21
-39.376
  0
LINE
  8
0
 10
149.024
 20
-39.376
 11
149.024
 21
-38.624
  0
LINE
  8
0
 10
149.024
 20
-38.624
 11
149.211
 21
-37.8956
  0
LINE
  8
0
 10
149.211
 20
-37.8956
 11
149.573
 21
-37.2366
  0
LINE
  8
0
 10
149.573
 20
-37.2366
 11
150.088
 21
-36.6885
  0
LINE
  8
0
 10
150.088
 20
-36.6885
 11
150.723
 21
-36.2855
  0
LINE
  8
0
 10
150.723
 20
-36.2855
 11
151.438
 21
-36.0531
  0
LINE
  8
0
 10
151.438
 20
-36.0531
 11
152.188
 21
-36.0059
  0
LINE
  8
0
 10
152.188
 20
-36.0059
 11
152.927
 21
-36.1468
  0
LINE
  8
0
 10
152.927
 20
-36.1468
 11
153.607
 21
-36.467
  0
LINE
  8
0
 10
153.607
 20
-36.467
 11
154.187
 21
-36.9464
  0
LINE
  8
0
 10
154.187
 20
-36.9464
 11
154.629
 21
-37.5547
  0
LINE
  8
0
 10
154.629
 20
-37.5547
 11
154.906
 21
-38.2539
  0
LINE
  8
0
 10
154.906
 20
-38.2539
 11
155
 21
-39
  0
LINE
  8
0
 10
155
 20
-39
 11
154.906
 21
-39.7461
  0
LINE
  8
0
 10
154.906
 20
-39.7461
 11
154.629
 21
-40.4453
  0
LINE
  8
0
 10
154.629
 20
-40.4453
 11
154.187
 21
-41.0536
  0
LINE
  8
0
 10
154.187
 20
-41.0536
 11
153.607
 21
-41.533
  0
LINE
  8
0
 10
153.607
 20
-41.533
 11
152.927
 21
-41.8532
  0
LINE
  8
0
 10
152.927
 20
-41.8532
 11
152.188
 21
-41.9941
  0
LINE
  8
0
 10
152.188
 20
-41.9941
 11
151.438
 21
-41.9469
  0
LINE
  8
0
 10
143
 20
45
 11
23
 21
45
  0
LINE
  8
0
 10
23
 20
45
 11
23
 21
21.5
  0
LINE
  8
0
 10
23
 20
21.5
 11
108.5
 21
21.5
  0
LINE
  8
0
 10
108.5
 20
21.5
 11
108.5
 21
21.3726
  0
LINE
  8
0
 10
108.5
 20
21.3726
 11
109.85
 21
21.4576
  0
LINE
  8
0
 10
109.85
 20
21.4576
 11
115.144
 21
20.4477
  0
LINE
  8
0
 10
115.144
 20
20.4477
 11
120.02
 21
18.153
  0
LINE
  8
0
 10
120.02
 20
18.153
 11
124.173
 21
14.7178
  0
LINE
  8
0
 10
124.173
 20
14.7178
 11
127.341
 21
10.3577
  0
LINE
  8
0
 10
127.341
 20
10.3577
 11
129.325
 21
5.34683
  0
LINE
  8
0
 10
129.325
 20
5.34683
 11
130
 21
0
  0
LINE
  8
0
 10
130
 20
0
 11
129.325
 21
-5.34683
  0
LINE
  8
0
 10
129.325
 20
-5.34683
 11
127.341
 21
-10.3577
  0
LINE
  8
0
 10
127.341
 20
-10.3577
 11
124.173
 21
-14.7178
  0
LINE
  8
0
 10
124.173
 20
-14.7178
 11
120.02
 21
-18.153
  0
LINE
  8
0
 10
120.02
 20
-18.153
 11
115.144
 21
-20.4477
  0
LINE
  8
0
 10
115.144
 20
-20.4477
 11
109.85
 21
-21.4576
  0
LINE
  8
0
 10
109.85
 20
-21.4576
 11
108.5
 21
-21.3726
  0
LINE
  8
0
 10
108.5
 20
-21.3726
 11
108.5
 21
-21.5
  0
LINE
  8
0
 10
108.5
 20
-21.5
 11
23
 21
-21.5
  0
LINE
  8
0
 10
23
 20
-21.5
 11
23
 21
-45
  0
LINE
  8
0
 10
23
 20
-45
 11
143
 21
-45
  0
LINE
  8
0
 10
143
 20
-45
 11
143
 21
45
  0
LINE
  8
0
 10
136.438
 20
36.0531
 11
135.723
 21
36.2855
  0
LINE
  8
0
 10
135.723
 20
36.2855
 11
135.088
 21
36.6885
  0
LINE
  8
0
 10
135.088
 20
36.6885
 11
134.573
 21
37.2366
  0
LINE
  8
0
 10
134.573
 20
37.2366
 11
134.211
 21
37.8956
  0
LINE
  8
0
 10
134.211
 20
37.8956
 11
134.024
 21
38.624
  0
LINE
  8
0
 10
134.024
 20
38.624
 11
134.024
 21
39.376
  0
LINE
  8
0
 10
134.024
 20
39.376
 11
134.211
 21
40.1044
  0
LINE
  8
0
 10
134.211
 20
40.1044
 11
134.573
 21
40.7634
  0
LINE
  8
0
 10
134.573
 20
40.7634
 11
135.088
 21
41.3115
  0
LINE
  8
0
 10
135.088
 20
41.3115
 11
135.723
 21
41.7145
  0
LINE
  8
0
 10
135.723
 20
41.7145
 11
136.438
 21
41.9469
  0
LINE
  8
0
 10
136.438
 20
41.9469
 11
137.188
 21
41.9941
  0
LINE
  8
0
 10
137.188
 20
41.9941
 11
137.927
 21
41.8532
  0
LINE
  8
0
 10
137.927
 20
41.8532
 11
138.607
 21
41.533
  0
LINE
  8
0
 10
138.607
 20
41.533
 11
139.187
 21
41.0536
  0
LINE
  8
0
 10
139.187
 20
41.0536
 11
139.629
 21
40.4453
  0
LINE
  8
0
 10
139.629
 20
40.4453
 11
139.906
 21
39.7461
  0
LINE
  8
0
 10
139.906
 20
39.7461
 11
140
 21
39
  0
LINE
  8
0
 10
140
 20
39
 11
139.906
 21
38.2539
  0
LINE
  8
0
 10
139.906
 20
38.2539
 11
139.629
 21
37.5547
  0
LINE
  8
0
 10
139.629
 20
37.5547
 11
139.187
 21
36.9464
  0
LINE
  8
0
 10
139.187
 20
36.9464
 11
138.607
 21
36.467
  0
LINE
  8
0
 10
138.607
 20
36.467
 11
137.927
 21
36.1468
  0
LINE
  8
0
 10
137.927
 20
36.1468
 11
137.188
 21
36.0059
  0
LINE
  8
0
 10
137.188
 20
36.0059
 11
136.438
 21
36.0531
  0
LINE
  8
0
 10
28.4379
 20
36.0531
 11
27.7227
 21
36.2855
  0
LINE
  8
0
 10
27.7227
 20
36.2855
 11
27.0877
 21
36.6885
  0
LINE
  8
0
 10
27.0877
 20
36.6885
 11
26.5729
 21
37.2366
  0
LINE
  8
0
 10
26.5729
 20
37.2366
 11
26.2107
 21
37.8956
  0
LINE
  8
0
 10
26.2107
 20
37.8956
 11
26.0237
 21
38.624
  0
LINE
  8
0
 10
26.0237
 20
38.624
 11
26.0237
 21
39.376
  0
LINE
  8
0
 10
26.0237
 20
39.376
 11
26.2107
 21
40.1044
  0
LINE
  8
0
 10
26.2107
 20
40.1044
 11
26.5729
 21
40.7634
  0
LINE
  8
0
 10
26.5729
 20
40.7634
 11
27.0877
 21
41.3115
  0
LINE
  8
0
 10
27.0877
 20
41.3115
 11
27.7227
 21
41.7145
  0
LINE
  8
0
 10
27.7227
 20
41.7145
 11
28.4379
 21
41.9469
  0
LINE
  8
0
 10
28.4379
 20
41.9469
 11
29.1884
 21
41.9941
  0
LINE
  8
0
 10
29.1884
 20
41.9941
 11
29.927
 21
41.8532
  0
LINE
  8
0
 10
29.927
 20
41.8532
 11
30.6075
 21
41.533
  0
LINE
  8
0
 10
30.6075
 20
41.533
 11
31.1869
 21
41.0536
  0
LINE
  8
0
 10
31.1869
 20
41.0536
 11
31.6289
 21
40.4453
  0
LINE
  8
0
 10
31.6289
 20
40.4453
 11
31.9057
 21
39.7461
  0
LINE
  8
0
 10
31.9057
 20
39.7461
 11
32
 21
39
  0
LINE
  8
0
 10
32
 20
39
 11
31.9057
 21
38.2539
  0
LINE
  8
0
 10
31.9057
 20
38.2539
 11
31.6289
 21
37.5547
  0
LINE
  8
0
 10
31.6289
 20
37.5547
 11
31.1869
 21
36.9464
  0
LINE
  8
0
 10
31.1869
 20
36.9464
 11
30.6075
 21
36.467
  0
LINE
  8
0
 10
30.6075
 20
36.467
 11
29.927
 21
36.1468
  0
LINE
  8
0
 10
29.927
 20
36.1468
 11
29.1884
 21
36.0059
  0
LINE
  8
0
 10
29.1884
 20
36.0059
 11
28.4379
 21
36.0531
  0
LINE
  8
0
 10
98.7189
 20
25.5266
 11
98.3613
 21
25.6427
  0
LINE
  8
0
 10
98.3613
 20
25.6427
 11
98.0439
 21
25.8442
  0
LINE
  8
0
 10
98.0439
 20
25.8442
 11
97.7865
 21
26.1183
  0
LINE
  8
0
 10
97.7865
 20
26.1183
 11
97.6053
 21
26.4478
  0
LINE
  8
0
 10
97.6053
 20
26.4478
 11
97.5118
 21
26.812
  0
LINE
  8
0
 10
97.5118
 20
26.812
 11
97.5118
 21
27.188
  0
LINE
  8
0
 10
97.5118
 20
27.188
 11
97.6053
 21
27.5522
  0
LINE
  8
0
 10
97.6053
 20
27.5522
 11
97.7865
 21
27.8817
  0
LINE
  8
0
 10
97.7865
 20
27.8817
 11
98.0439
 21
28.1558
  0
LINE
  8
0
 10
98.0439
 20
28.1558
 11
98.3613
 21
28.3572
  0
LINE
  8
0
 10
98.3613
 20
28.3572
 11
98.7189
 21
28.4734
  0
LINE
  8
0
 10
98.7189
 20
28.4734
 11
99.0942
 21
28.497
  0
LINE
  8
0
 10
99.0942
 20
28.497
 11
99.4635
 21
28.4266
  0
LINE
  8
0
 10
99.4635
 20
28.4266
 11
99.8037
 21
28.2665
  0
LINE
  8
0
 10
99.8037
 20
28.2665
 11
100.093
 21
28.0268
  0
LINE
  8
0
 10
100.093
 20
28.0268
 11
100.314
 21
27.7226
  0
LINE
  8
0
 10
100.314
 20
27.7226
 11
100.453
 21
27.373
  0
LINE
  8
0
 10
100.453
 20
27.373
 11
100.5
 21
27
  0
LINE
  8
0
 10
100.5
 20
27
 11
100.453
 21
26.627
  0
LINE
  8
0
 10
100.453
 20
26.627
 11
100.314
 21
26.2774
  0
LINE
  8
0
 10
100.314
 20
26.2774
 11
100.093
 21
25.9732
  0
LINE
  8
0
 10
100.093
 20
25.9732
 11
99.8037
 21
25.7335
  0
LINE
  8
0
 10
99.8037
 20
25.7335
 11
99.4635
 21
25.5734
  0
LINE
  8
0
 10
99.4635
 20
25.5734
 11
99.0942
 21
25.503
  0
LINE
  8
0
 10
99.0942
 20
25.503
 11
98.7189
 21
25.5266
  0
LINE
  8
0
 10
48.7189
 20
25.5266
 11
48.3613
 21
25.6427
  0
LINE
  8
0
 10
48.3613
 20
25.6427
 11
48.0439
 21
25.8442
  0
LINE
  8
0
 10
48.0439
 20
25.8442
 11
47.7865
 21
26.1183
  0
LINE
  8
0
 10
47.7865
 20
26.1183
 11
47.6053
 21
26.4478
  0
LINE
  8
0
 10
47.6053
 20
26.4478
 11
47.5118
 21
26.812
  0
LINE
  8
0
 10
47.5118
 20
26.812
 11
47.5118
 21
27.188
  0
LINE
  8
0
 10
47.5118
 20
27.188
 11
47.6053
 21
27.5522
  0
LINE
  8
0
 10
47.6053
 20
27.5522
 11
47.7865
 21
27.8817
  0
LINE
  8
0
 10
47.7865
 20
27.8817
 11
48.0439
 21
28.1558
  0
LINE
  8
0
 10
48.0439
 20
28.1558
 11
48.3613
 21
28.3572
  0
LINE
  8
0
 10
48.3613
 20
28.3572
 11
48.7189
 21
28.4734
  0
LINE
  8
0
 10
48.7189
 20
28.4734
 11
49.0942
 21
28.497
  0
LINE
  8
0
 10
49.0942
 20
28.497
 11
49.4635
 21
28.4266
  0
LINE
  8
0
 10
49.4635
 20
28.4266
 11
49.8037
 21
28.2665
  0
LINE
  8
0
 10
49.8037
 20
28.2665
 11
50.0934
 21
28.0268
  0
LINE
  8
0
 10
50.0934
 20
28.0268
 11
50.3145
 21
27.7226
  0
LINE
  8
0
 10
50.3145
 20
27.7226
 11
50.4529
 21
27.373
  0
LINE
  8
0
 10
50.4529
 20
27.373
 11
50.5
 21
27
  0
LINE
  8
0
 10
50.5
 20
27
 11
50.4529
 21
26.627
  0
LINE
  8
0
 10
50.4529
 20
26.627
 11
50.3145
 21
26.2774
  0
LINE
  8
0
 10
50.3145
 20
26.2774
 11
50.0934
 21
25.9732
  0
LINE
  8
0
 10
50.0934
 20
25.9732
 11
49.8037
 21
25.7335
  0
LINE
  8
0
 10
49.8037
 20
25.7335
 11
49.4635
 21
25.5734
  0
LINE
  8
0
 10
49.4635
 20
25.5734
 11
49.0942
 21
25.503
  0
LINE
  8
0
 10
49.0942
 20
25.503
 11
48.7189
 21
25.5266
  0
LINE
  8
0
 10
48.7189
 20
-28.4734
 11
48.3613
 21
-28.3572
  0
LINE
  8
0
 10
48.3613
 20
-28.3572
 11
48.0439
 21
-28.1558
  0
LINE
  8
0
 10
48.0439
 20
-28.1558
 11
47.7865
 21
-27.8817
  0
LINE
  8
0
 10
47.7865
 20
-27.8817
 11
47.6053
 21
-27.5522
  0
LINE
  8
0
 10
47.6053
 20
-27.5522
 11
47.5118
 21
-27.188
  0
LINE
  8
0
 10
47.5118
 20
-27.188
 11
47.5118
 21
-26.812
  0
LINE
  8
0
 10
47.5118
 20
-26.812
 11
47.6053
 21
-26.4478
  0
LINE
  8
0
 10
47.6053
 20
-26.4478
 11
47.7865
 21
-26.1183
  0
LINE
  8
0
 10
47.7865
 20
-26.1183
 11
48.0439
 21
-25.8442
  0
LINE
  8
0
 10
48.0439
 20
-25.8442
 11
48.3613
 21
-25.6427
  0
LINE
  8
0
 10
48.3613
 20
-25.6427
 11
48.7189
 21
-25.5266
  0
LINE
  8
0
 10
48.7189
 20
-25.5266
 11
49.0942
 21
-25.503
  0
LINE
  8
0
 10
49.0942
 20
-25.503
 11
49.4635
 21
-25.5734
  0
LINE
  8
0
 10
49.4635
 20
-25.5734
 11
49.8037
 21
-25.7335
  0
LINE
  8
0
 10
49.8037
 20
-25.7335
 11
50.0934
 21
-25.9732
  0
LINE
  8
0
 10
50.0934
 20
-25.9732
 11
50.3145
 21
-26.2774
  0
LINE
  8
0
 10
50.3145
 20
-26.2774
 11
50.4529
 21
-26.627
  0
LINE
  8
0
 10
50.4529
 20
-26.627
 11
50.5
 21
-27
  0
LINE
  8
0
 10
50.5
 20
-27
 11
50.4529
 21
-27.373
  0
LINE
  8
0
 10
50.4529
 20
-27.373
 11
50.3145
 21
-27.7226
  0
LINE
  8
0
 10
50.3145
 20
-27.7226
 11
50.0934
 21
-28.0268
  0
LINE
  8
0
 10
50.0934
 20
-28.0268
 11
49.8037
 21
-28.2665
  0
LINE
  8
0
 10
49.8037
 20
-28.2665
 11
49.4635
 21
-28.4266
  0
LINE
  8
0
 10
49.4635
 20
-28.4266
 11
49.0942
 21
-28.497
  0
LINE
  8
0
 10
49.0942
 20
-28.497
 11
48.7189
 21
-28.4734
  0
LINE
  8
0
 10
98.7189
 20
-28.4734
 11
98.3613
 21
-28.3572
  0
LINE
  8
0
 10
98.3613
 20
-28.3572
 11
98.0439
 21
-28.1558
  0
LINE
  8
0
 10
98.0439
 20
-28.1558
 11
97.7865
 21
-27.8817
  0
LINE
  8
0
 10
97.7865
 20
-27.8817
 11
97.6053
 21
-27.5522
  0
LINE
  8
0
 10
97.6053
 20
-27.5522
 11
97.5118
 21
-27.188
  0
LINE
  8
0
 10
97.5118
 20
-27.188
 11
97.5118
 21
-26.812
  0
LINE
  8
0
 10
97.5118
 20
-26.812
 11
97.6053
 21
-26.4478
  0
LINE
  8
0
 10
97.6053
 20
-26.4478
 11
97.7865
 21
-26.1183
  0
LINE
  8
0
 10
97.7865
 20
-26.1183
 11
98.0439
 21
-25.8442
  0
LINE
  8
0
 10
98.0439
 20
-25.8442
 11
98.3613
 21
-25.6427
  0
LINE
  8
0
 10
98.3613
 20
-25.6427
 11
98.7189
 21
-25.5266
  0
LINE
  8
0
 10
98.7189
 20
-25.5266
 11
99.0942
 21
-25.503
  0
LINE
  8
0
 10
99.0942
 20
-25.503
 11
99.4635
 21
-25.5734
  0
LINE
  8
0
 10
99.4635
 20
-25.5734
 11
99.8037
 21
-25.7335
  0
LINE
  8
0
 10
99.8037
 20
-25.7335
 11
100.093
 21
-25.9732
  0
LINE
  8
0
 10
100.093
 20
-25.9732
 11
100.314
 21
-26.2774
  0
LINE
  8
0
 10
100.314
 20
-26.2774
 11
100.453
 21
-26.627
  0
LINE
  8
0
 10
100.453
 20
-26.627
 11
100.5
 21
-27
  0
LINE
  8
0
 10
100.5
 20
-27
 11
100.453
 21
-27.373
  0
LINE
  8
0
 10
100.453
 20
-27.373
 11
100.314
 21
-27.7226
  0
LINE
  8
0
 10
100.314
 20
-27.7226
 11
100.093
 21
-28.0268
  0
LINE
  8
0
 10
100.093
 20
-28.0268
 11
99.8037
 21
-28.2665
  0
LINE
  8
0
 10
99.8037
 20
-28.2665
 11
99.4635
 21
-28.4266
  0
LINE
  8
0
 10
99.4635
 20
-28.4266
 11
99.0942
 21
-28.497
  0
LINE
  8
0
 10
99.0942
 20
-28.497
 11
98.7189
 21
-28.4734
  0
LINE
  8
0
 10
136.438
 20
-41.9469
 11
135.723
 21
-41.7145
  0
LINE
  8
0
 10
135.723
 20
-41.7145
 11
135.088
 21
-41.3115
  0
LINE
  8
0
 10
135.088
 20
-41.3115
 11
134.573
 21
-40.7634
  0
LINE
  8
0
 10
134.573
 20
-40.7634
 11
134.211
 21
-40.1044
  0
LINE
  8
0
 10
134.211
 20
-40.1044
 11
134.024
 21
-39.376
  0
LINE
  8
0
 10
134.024
 20
-39.376
 11
134.024
 21
-38.624
  0
LINE
  8
0
 10
134.024
 20
-38.624
 11
134.211
 21
-37.8956
  0
LINE
  8
0
 10
134.211
 20
-37.8956
 11
134.573
 21
-37.2366
  0
LINE
  8
0
 10
134.573
 20
-37.2366
 11
135.088
 21
-36.6885
  0
LINE
  8
0
 10
135.088
 20
-36.6885
 11
135.723
 21
-36.2855
  0
LINE
  8
0
 10
135.723
 20
-36.2855
 11
136.438
 21
-36.0531
  0
LINE
  8
0
 10
136.438
 20
-36.0531
 11
137.188
 21
-36.0059
  0
LINE
  8
0
 10
137.188
 20
-36.0059
 11
137.927
 21
-36.1468
  0
LINE
  8
0
 10
137.927
 20
-36.1468
 11
138.607
 21
-36.467
  0
LINE
  8
0
 10
138.607
 20
-36.467
 11
139.187
 21
-36.9464
  0
LINE
  8
0
 10
139.187
 20
-36.9464
 11
139.629
 21
-37.5547
  0
LINE
  8
0
 10
139.629
 20
-37.5547
 11
139.906
 21
-38.2539
  0
LINE
  8
0
 10
139.906
 20
-38.2539
 11
140
 21
-39
  0
LINE
  8
0
 10
140
 20
-39
 11
139.906
 21
-39.7461
  0
LINE
  8
0
 10
139.906
 20
-39.7461
 11
139.629
 21
-40.4453
  0
LINE
  8
0
 10
139.629
 20
-40.4453
 11
139.187
 21
-41.0536
  0
LINE
  8
0
 10
139.187
 20
-41.0536
 11
138.607
 21
-41.533
  0
LINE
  8
0
 10
138.607
 20
-41.533
 11
137.927
 21
-41.8532
  0
LINE
  8
0
 10
137.927
 20
-41.8532
 11
137.188
 21
-41.9941
  0
LINE
  8
0
 10
137.188
 20
-41.9941
 11
136.438
 21
-41.9469
  0
LINE
  8
0
 10
28.4379
 20
-41.9469
 11
27.7227
 21
-41.7145
  0
LINE
  8
0
 10
27.7227
 20
-41.7145
 11
27.0877
 21
-41.3115
  0
LINE
  8
0
 10
27.0877
 20
-41.3115
 11
26.5729
 21
-40.7634
  0
LINE
  8
0
 10
26.5729
 20
-40.7634
 11
26.2107
 21
-40.1044
  0
LINE
  8
0
 10
26.2107
 20
-40.1044
 11
26.0237
 21
-39.376
  0
LINE
  8
0
 10
26.0237
 20
-39.376
 11
26.0237
 21
-38.624
  0
LINE
  8
0
 10
26.0237
 20
-38.624
 11
26.2107
 21
-37.8956
  0
LINE
  8
0
 10
26.2107
 20
-37.8956
 11
26.5729
 21
-37.2366
  0
LINE
  8
0
 10
26.5729
 20
-37.2366
 11
27.0877
 21
-36.6885
  0
LINE
  8
0
 10
27.0877
 20
-36.6885
 11
27.7227
 21
-36.2855
  0
LINE
  8
0
 10
27.7227
 20
-36.2855
 11
28.4379
 21
-36.0531
  0
LINE
  8
0
 10
28.4379
 20
-36.0531
 11
29.1884
 21
-36.0059
  0
LINE
  8
0
 10
29.1884
 20
-36.0059
 11
29.927
 21
-36.1468
  0
LINE
  8
0
 10
29.927
 20
-36.1468
 11
30.6075
 21
-36.467
  0
LINE
  8
0
 10
30.6075
 20
-36.467
 11
31.1869
 21
-36.9464
  0
LINE
  8
0
 10
31.1869
 20
-36.9464
 11
31.6289
 21
-37.5547
  0
LINE
  8
0
 10
31.6289
 20
-37.5547
 11
31.9057
 21
-38.2539
  0
LINE
  8
0
 10
31.9057
 20
-38.2539
 11
32
 21
-39
  0
LINE
  8
0
 10
32
 20
-39
 11
31.9057
 21
-39.7461
  0
LINE
  8
0
 10
31.9057
 20
-39.7461
 11
31.6289
 21
-40.4453
  0
LINE
  8
0
 10
31.6289
 20
-40.4453
 11
31.1869
 21
-41.0536
  0
LINE
  8
0
 10
31.1869
 20
-41.0536
 11
30.6075
 21
-41.533
  0
LINE
  8
0
 10
30.6075
 20
-41.533
 11
29.927
 21
-41.8532
  0
LINE
  8
0
 10
29.927
 20
-41.8532
 11
29.1884
 21
-41.9941
  0
LINE
  8
0
 10
29.1884
 20
-41.9941
 11
28.4379
 21
-41.9469
  0
LINE
  8
0
 10
19
 20
45
 11
-101
 21
45
  0
LINE
  8
0
 10
-101
 20
45
 11
-101
 21
-45
  0
LINE
  8
0
 10
-101
 20
-45
 11
19
 21
-45
  0
LINE
  8
0
 10
19
 20
-45
 11
19
 21
45
  0
LINE
  8
0
 10
12.4379
 20
36.0531
 11
11.7227
 21
36.2855
  0
LINE
  8
0
 10
11.7227
 20
36.2855
 11
11.0877
 21
36.6885
  0
LINE
  8
0
 10
11.0877
 20
36.6885
 11
10.5729
 21
37.2366
  0
LINE
  8
0
 10
10.5729
 20
37.2366
 11
10.2107
 21
37.8956
  0
LINE
  8
0
 10
10.2107
 20
37.8956
 11
10.0237
 21
38.624
  0
LINE
  8
0
 10
10.0237
 20
38.624
 11
10.0237
 21
39.376
  0
LINE
  8
0
 10
10.0237
 20
39.376
 11
10.2107
 21
40.1044
  0
LINE
  8
0
 10
10.2107
 20
40.1044
 11
10.5729
 21
40.7634
  0
LINE
  8
0
 10
10.5729
 20
40.7634
 11
11.0877
 21
41.3115
  0
LINE
  8
0
 10
11.0877
 20
41.3115
 11
11.7227
 21
41.7145
  0
LINE
  8
0
 10
11.7227
 20
41.7145
 11
12.4379
 21
41.9469
  0
LINE
  8
0
 10
12.4379
 20
41.9469
 11
13.1884
 21
41.9941
  0
LINE
  8
0
 10
13.1884
 20
41.9941
 11
13.927
 21
41.8532
  0
LINE
  8
0
 10
13.927
 20
41.8532
 11
14.6075
 21
41.533
  0
LINE
  8
0
 10
14.6075
 20
41.533
 11
15.1869
 21
41.0536
  0
LINE
  8
0
 10
15.1869
 20
41.0536
 11
15.6289
 21
40.4453
  0
LINE
  8
0
 10
15.6289
 20
40.4453
 11
15.9057
 21
39.7461
  0
LINE
  8
0
 10
15.9057
 20
39.7461
 11
16
 21
39
  0
LINE
  8
0
 10
16
 20
39
 11
15.9057
 21
38.2539
  0
LINE
  8
0
 10
15.9057
 20
38.2539
 11
15.6289
 21
37.5547
  0
LINE
  8
0
 10
15.6289
 20
37.5547
 11
15.1869
 21
36.9464
  0
LINE
  8
0
 10
15.1869
 20
36.9464
 11
14.6075
 21
36.467
  0
LINE
  8
0
 10
14.6075
 20
36.467
 11
13.927
 21
36.1468
  0
LINE
  8
0
 10
13.927
 20
36.1468
 11
13.1884
 21
36.0059
  0
LINE
  8
0
 10
13.1884
 20
36.0059
 11
12.4379
 21
36.0531
  0
LINE
  8
0
 10
-95.5621
 20
36.0531
 11
-96.2773
 21
36.2855
  0
LINE
  8
0
 10
-96.2773
 20
36.2855
 11
-96.9123
 21
36.6885
  0
LINE
  8
0
 10
-96.9123
 20
36.6885
 11
-97.427
 21
37.2366
  0
LINE
  8
0
 10
-97.427
 20
37.2366
 11
-97.7893
 21
37.8956
  0
LINE
  8
0
 10
-97.7893
 20
37.8956
 11
-97.9763
 21
38.624
  0
LINE
  8
0
 10
-97.9763
 20
38.624
 11
-97.9763
 21
39.376
  0
LINE
  8
0
 10
-97.9763
 20
39.376
 11
-97.7893
 21
40.1044
  0
LINE
  8
0
 10
-97.7893
 20
40.1044
 11
-97.427
 21
40.7634
  0
LINE
  8
0
 10
-97.427
 20
40.7634
 11
-96.9123
 21
41.3115
  0
LINE
  8
0
 10
-96.9123
 20
41.3115
 11
-96.2773
 21
41.7145
  0
LINE
  8
0
 10
-96.2773
 20
41.7145
 11
-95.5621
 21
41.9469
  0
LINE
  8
0
 10
-95.5621
 20
41.9469
 11
-94.8116
 21
41.9941
  0
LINE
  8
0
 10
-94.8116
 20
41.9941
 11
-94.073
 21
41.8532
  0
LINE
  8
0
 10
-94.073
 20
41.8532
 11
-93.3925
 21
41.533
  0
LINE
  8
0
 10
-93.3925
 20
41.533
 11
-92.8131
 21
41.0536
  0
LINE
  8
0
 10
-92.8131
 20
41.0536
 11
-92.3711
 21
40.4453
  0
LINE
  8
0
 10
-92.3711
 20
40.4453
 11
-92.0943
 21
39.7461
  0
LINE
  8
0
 10
-92.0943
 20
39.7461
 11
-92
 21
39
  0
LINE
  8
0
 10
-92
 20
39
 11
-92.0943
 21
38.2539
  0
LINE
  8
0
 10
-92.0943
 20
38.2539
 11
-92.3711
 21
37.5547
  0
LINE
  8
0
 10
-92.3711
 20
37.5547
 11
-92.8131
 21
36.9464
  0
LINE
  8
0
 10
-92.8131
 20
36.9464
 11
-93.3925
 21
36.467
  0
LINE
  8
0
 10
-93.3925
 20
36.467
 11
-94.073
 21
36.1468
  0
LINE
  8
0
 10
-94.073
 20
36.1468
 11
-94.8116
 21
36.0059
  0
LINE
  8
0
 10
-94.8116
 20
36.0059
 11
-95.5621
 21
36.0531
  0
LINE
  8
0
 10
-25.2811
 20
25.5266
 11
-25.6387
 21
25.6427
  0
LINE
  8
0
 10
-25.6387
 20
25.6427
 11
-25.9561
 21
25.8442
  0
LINE
  8
0
 10
-25.9561
 20
25.8442
 11
-26.2135
 21
26.1183
  0
LINE
  8
0
 10
-26.2135
 20
26.1183
 11
-26.3947
 21
26.4478
  0
LINE
  8
0
 10
-26.3947
 20
26.4478
 11
-26.4882
 21
26.812
  0
LINE
  8
0
 10
-26.4882
 20
26.812
 11
-26.4882
 21
27.188
  0
LINE
  8
0
 10
-26.4882
 20
27.188
 11
-26.3947
 21
27.5522
  0
LINE
  8
0
 10
-26.3947
 20
27.5522
 11
-26.2135
 21
27.8817
  0
LINE
  8
0
 10
-26.2135
 20
27.8817
 11
-25.9561
 21
28.1558
  0
LINE
  8
0
 10
-25.9561
 20
28.1558
 11
-25.6387
 21
28.3572
  0
LINE
  8
0
 10
-25.6387
 20
28.3572
 11
-25.2811
 21
28.4734
  0
LINE
  8
0
 10
-25.2811
 20
28.4734
 11
-24.9058
 21
28.497
  0
LINE
  8
0
 10
-24.9058
 20
28.497
 11
-24.5365
 21
28.4266
  0
LINE
  8
0
 10
-24.5365
 20
28.4266
 11
-24.1963
 21
28.2665
  0
LINE
  8
0
 10
-24.1963
 20
28.2665
 11
-23.9065
 21
28.0268
  0
LINE
  8
0
 10
-23.9065
 20
28.0268
 11
-23.6855
 21
27.7226
  0
LINE
  8
0
 10
-23.6855
 20
27.7226
 11
-23.5471
 21
27.373
  0
LINE
  8
0
 10
-23.5471
 20
27.373
 11
-23.5
 21
27
  0
LINE
  8
0
 10
-23.5
 20
27
 11
-23.5471
 21
26.627
  0
LINE
  8
0
 10
-23.5471
 20
26.627
 11
-23.6855
 21
26.2774
  0
LINE
  8
0
 10
-23.6855
 20
26.2774
 11
-23.9065
 21
25.9732
  0
LINE
  8
0
 10
-23.9065
 20
25.9732
 11
-24.1963
 21
25.7335
  0
LINE
  8
0
 10
-24.1963
 20
25.7335
 11
-24.5365
 21
25.5734
  0
LINE
  8
0
 10
-24.5365
 20
25.5734
 11
-24.9058
 21
25.503
  0
LINE
  8
0
 10
-24.9058
 20
25.503
 11
-25.2811
 21
25.5266
  0
LINE
  8
0
 10
-75.2811
 20
25.5266
 11
-75.6387
 21
25.6427
  0
LINE
  8
0
 10
-75.6387
 20
25.6427
 11
-75.9561
 21
25.8442
  0
LINE
  8
0
 10
-75.9561
 20
25.8442
 11
-76.2135
 21
26.1183
  0
LINE
  8
0
 10
-76.2135
 20
26.1183
 11
-76.3947
 21
26.4478
  0
LINE
  8
0
 10
-76.3947
 20
26.4478
 11
-76.4882
 21
26.812
  0
LINE
  8
0
 10
-76.4882
 20
26.812
 11
-76.4882
 21
27.188
  0
LINE
  8
0
 10
-76.4882
 20
27.188
 11
-76.3947
 21
27.5522
  0
LINE
  8
0
 10
-76.3947
 20
27.5522
 11
-76.2135
 21
27.8817
  0
LINE
  8
0
 10
-76.2135
 20
27.8817
 11
-75.9561
 21
28.1558
  0
LINE
  8
0
 10
-75.9561
 20
28.1558
 11
-75.6387
 21
28.3572
  0
LINE
  8
0
 10
-75.6387
 20
28.3572
 11
-75.2811
 21
28.4734
  0
LINE
  8
0
 10
-75.2811
 20
28.4734
 11
-74.9058
 21
28.497
  0
LINE
  8
0
 10
-74.9058
 20
28.497
 11
-74.5365
 21
28.4266
  0
LINE
  8
0
 10
-74.5365
 20
28.4266
 11
-74.1963
 21
28.2665
  0
LINE
  8
0
 10
-74.1963
 20
28.2665
 11
-73.9065
 21
28.0268
  0
LINE
  8
0
 10
-73.9065
 20
28.0268
 11
-73.6855
 21
27.7226
  0
LINE
  8
0
 10
-73.6855
 20
27.7226
 11
-73.5471
 21
27.373
  0
LINE
  8
0
 10
-73.5471
 20
27.373
 11
-73.5
 21
27
  0
LINE
  8
0
 10
-73.5
 20
27
 11
-73.5471
 21
26.627
  0
LINE
  8
0
 10
-73.5471
 20
26.627
 11
-73.6855
 21
26.2774
  0
LINE
  8
0
 10
-73.6855
 20
26.2774
 11
-73.9065
 21
25.9732
  0
LINE
  8
0
 10
-73.9065
 20
25.9732
 11
-74.1963
 21
25.7335
  0
LINE
  8
0
 10
-74.1963
 20
25.7335
 11
-74.5365
 21
25.5734
  0
LINE
  8
0
 10
-74.5365
 20
25.5734
 11
-74.9058
 21
25.503
  0
LINE
  8
0
 10
-74.9058
 20
25.503
 11
-75.2811
 21
25.5266
  0
LINE
  8
0
 10
-94
 20
-12.5
 11
-94
 21
12.5
  0
LINE
  8
0
 10
-94
 20
12.5
 11
-69
 21
12.5
  0
LINE
  8
0
 10
-69
 20
12.5
 11
-69
 21
-12.5
  0
LINE
  8
0
 10
-69
 20
-12.5
 11
-94
 21
-12.5
  0
LINE
  8
0
 10
-10.2811
 20
-1.47342
 11
-10.6387
 21
-1.35724
  0
LINE
  8
0
 10
-10.6387
 20
-1.35724
 11
-10.9561
 21
-1.15576
  0
LINE
  8
0
 10
-10.9561
 20
-1.15576
 11
-11.2135
 21
-0.881668
  0
LINE
  8
0
 10
-11.2135
 20
-0.881668
 11
-11.3947
 21
-0.552185
  0
LINE
  8
0
 10
-11.3947
 20
-0.552185
 11
-11.4882
 21
-0.187988
  0
LINE
  8
0
 10
-11.4882
 20
-0.187988
 11
-11.4882
 21
0.187988
  0
LINE
  8
0
 10
-11.4882
 20
0.187988
 11
-11.3947
 21
0.552185
  0
LINE
  8
0
 10
-11.3947
 20
0.552185
 11
-11.2135
 21
0.881668
  0
LINE
  8
0
 10
-11.2135
 20
0.881668
 11
-10.9561
 21
1.15576
  0
LINE
  8
0
 10
-10.9561
 20
1.15576
 11
-10.6387
 21
1.35724
  0
LINE
  8
0
 10
-10.6387
 20
1.35724
 11
-10.2811
 21
1.47342
  0
LINE
  8
0
 10
-10.2811
 20
1.47342
 11
-9.90581
 21
1.49704
  0
LINE
  8
0
 10
-9.90581
 20
1.49704
 11
-9.53647
 21
1.42657
  0
LINE
  8
0
 10
-9.53647
 20
1.42657
 11
-9.19626
 21
1.26648
  0
LINE
  8
0
 10
-9.19626
 20
1.26648
 11
-8.90654
 21
1.02681
  0
LINE
  8
0
 10
-8.90654
 20
1.02681
 11
-8.68553
 21
0.722626
  0
LINE
  8
0
 10
-8.68553
 20
0.722626
 11
-8.54712
 21
0.373032
  0
LINE
  8
0
 10
-8.54712
 20
0.373032
 11
-8.5
 21
0
  0
LINE
  8
0
 10
-8.5
 20
0
 11
-8.54712
 21
-0.373032
  0
LINE
  8
0
 10
-8.54712
 20
-0.373032
 11
-8.68553
 21
-0.722626
  0
LINE
  8
0
 10
-8.68553
 20
-0.722626
 11
-8.90654
 21
-1.02681
  0
LINE
  8
0
 10
-8.90654
 20
-1.02681
 11
-9.19626
 21
-1.26648
  0
LINE
  8
0
 10
-9.19626
 20
-1.26648
 11
-9.53647
 21
-1.42657
  0
LINE
  8
0
 10
-9.53647
 20
-1.42657
 11
-9.90581
 21
-1.49704
  0
LINE
  8
0
 10
-9.90581
 20
-1.49704
 11
-10.2811
 21
-1.47342
  0
LINE
  8
0
 10
-16.2811
 20
-1.47342
 11
-16.6387
 21
-1.35724
  0
LINE
  8
0
 10
-16.6387
 20
-1.35724
 11
-16.9561
 21
-1.15576
  0
LINE
  8
0
 10
-16.9561
 20
-1.15576
 11
-17.2135
 21
-0.881668
  0
LINE
  8
0
 10
-17.2135
 20
-0.881668
 11
-17.3947
 21
-0.552185
  0
LINE
  8
0
 10
-17.3947
 20
-0.552185
 11
-17.4882
 21
-0.187988
  0
LINE
  8
0
 10
-17.4882
 20
-0.187988
 11
-17.4882
 21
0.187988
  0
LINE
  8
0
 10
-17.4882
 20
0.187988
 11
-17.3947
 21
0.552185
  0
LINE
  8
0
 10
-17.3947
 20
0.552185
 11
-17.2135
 21
0.881668
  0
LINE
  8
0
 10
-17.2135
 20
0.881668
 11
-16.9561
 21
1.15576
  0
LINE
  8
0
 10
-16.9561
 20
1.15576
 11
-16.6387
 21
1.35724
  0
LINE
  8
0
 10
-16.6387
 20
1.35724
 11
-16.2811
 21
1.47342
  0
LINE
  8
0
 10
-16.2811
 20
1.47342
 11
-15.9058
 21
1.49704
  0
LINE
  8
0
 10
-15.9058
 20
1.49704
 11
-15.5365
 21
1.42657
  0
LINE
  8
0
 10
-15.5365
 20
1.42657
 11
-15.1963
 21
1.26648
  0
LINE
  8
0
 10
-15.1963
 20
1.26648
 11
-14.9065
 21
1.02681
  0
LINE
  8
0
 10
-14.9065
 20
1.02681
 11
-14.6855
 21
0.722626
  0
LINE
  8
0
 10
-14.6855
 20
0.722626
 11
-14.5471
 21
0.373032
  0
LINE
  8
0
 10
-14.5471
 20
0.373032
 11
-14.5
 21
0
  0
LINE
  8
0
 10
-14.5
 20
0
 11
-14.5471
 21
-0.373032
  0
LINE
  8
0
 10
-14.5471
 20
-0.373032
 11
-14.6855
 21
-0.722626
  0
LINE
  8
0
 10
-14.6855
 20
-0.722626
 11
-14.9065
 21
-1.02681
  0
LINE
  8
0
 10
-14.9065
 20
-1.02681
 11
-15.1963
 21
-1.26648
  0
LINE
  8
0
 10
-15.1963
 20
-1.26648
 11
-15.5365
 21
-1.42657
  0
LINE
  8
0
 10
-15.5365
 20
-1.42657
 11
-15.9058
 21
-1.49704
  0
LINE
  8
0
 10
-15.9058
 20
-1.49704
 11
-16.2811
 21
-1.47342
  0
LINE
  8
0
 10
-40.2811
 20
-1.47342
 11
-40.6387
 21
-1.35724
  0
LINE
  8
0
 10
-40.6387
 20
-1.35724
 11
-40.9561
 21
-1.15576
  0
LINE
  8
0
 10
-40.9561
 20
-1.15576
 11
-41.2135
 21
-0.881668
  0
LINE
  8
0
 10
-41.2135
 20
-0.881668
 11
-41.3947
 21
-0.552185
  0
LINE
  8
0
 10
-41.3947
 20
-0.552185
 11
-41.4882
 21
-0.187988
  0
LINE
  8
0
 10
-41.4882
 20
-0.187988
 11
-41.4882
 21
0.187988
  0
LINE
  8
0
 10
-41.4882
 20
0.187988
 11
-41.3947
 21
0.552185
  0
LINE
  8
0
 10
-41.3947
 20
0.552185
 11
-41.2135
 21
0.881668
  0
LINE
  8
0
 10
-41.2135
 20
0.881668
 11
-40.9561
 21
1.15576
  0
LINE
  8
0
 10
-40.9561
 20
1.15576
 11
-40.6387
 21
1.35724
  0
LINE
  8
0
 10
-40.6387
 20
1.35724
 11
-40.2811
 21
1.47342
  0
LINE
  8
0
 10
-40.2811
 20
1.47342
 11
-39.9058
 21
1.49704
  0
LINE
  8
0
 10
-39.9058
 20
1.49704
 11
-39.5365
 21
1.42657
  0
LINE
  8
0
 10
-39.5365
 20
1.42657
 11
-39.1963
 21
1.26648
  0
LINE
  8
0
 10
-39.1963
 20
1.26648
 11
-38.9065
 21
1.02681
  0
LINE
  8
0
 10
-38.9065
 20
1.02681
 11
-38.6855
 21
0.722626
  0
LINE
  8
0
 10
-38.6855
 20
0.722626
 11
-38.5471
 21
0.373032
  0
LINE
  8
0
 10
-38.5471
 20
0.373032
 11
-38.5
 21
0
  0
LINE
  8
0
 10
-38.5
 20
0
 11
-38.5471
 21
-0.373032
  0
LINE
  8
0
 10
-38.5471
 20
-0.373032
 11
-38.6855
 21
-0.722626
  0
LINE
  8
0
 10
-38.6855
 20
-0.722626
 11
-38.9065
 21
-1.02681
  0
LINE
  8
0
 10
-38.9065
 20
-1.02681
 11
-39.1963
 21
-1.26648
  0
LINE
  8
0
 10
-39.1963
 20
-1.26648
 11
-39.5365
 21
-1.42657
  0
LINE
  8
0
 10
-39.5365
 20
-1.42657
 11
-39.9058
 21
-1.49704
  0
LINE
  8
0
 10
-39.9058
 20
-1.49704
 11
-40.2811
 21
-1.47342
  0
LINE
  8
0
 10
-75.2811
 20
-28.4734
 11
-75.6387
 21
-28.3572
  0
LINE
  8
0
 10
-75.6387
 20
-28.3572
 11
-75.9561
 21
-28.1558
  0
LINE
  8
0
 10
-75.9561
 20
-28.1558
 11
-76.2135
 21
-27.8817
  0
LINE
  8
0
 10
-76.2135
 20
-27.8817
 11
-76.3947
 21
-27.5522
  0
LINE
  8
0
 10
-76.3947
 20
-27.5522
 11
-76.4882
 21
-27.188
  0
LINE
  8
0
 10
-76.4882
 20
-27.188
 11
-76.4882
 21
-26.812
  0
LINE
  8
0
 10
-76.4882
 20
-26.812
 11
-76.3947
 21
-26.4478
  0
LINE
  8
0
 10
-76.3947
 20
-26.4478
 11
-76.2135
 21
-26.1183
  0
LINE
  8
0
 10
-76.2135
 20
-26.1183
 11
-75.9561
 21
-25.8442
  0
LINE
  8
0
 10
-75.9561
 20
-25.8442
 11
-75.6387
 21
-25.6427
  0
LINE
  8
0
 10
-75.6387
 20
-25.6427
 11
-75.2811
 21
-25.5266
  0
LINE
  8
0
 10
-75.2811
 20
-25.5266
 11
-74.9058
 21
-25.503
  0
LINE
  8
0
 10
-74.9058
 20
-25.503
 11
-74.5365
 21
-25.5734
  0
LINE
  8
0
 10
-74.5365
 20
-25.5734
 11
-74.1963
 21
-25.7335
  0
LINE
  8
0
 10
-74.1963
 20
-25.7335
 11
-73.9065
 21
-25.9732
  0
LINE
  8
0
 10
-73.9065
 20
-25.9732
 11
-73.6855
 21
-26.2774
  0
LINE
  8
0
 10
-73.6855
 20
-26.2774
 11
-73.5471
 21
-26.627
  0
LINE
  8
0
 10
-73.5471
 20
-26.627
 11
-73.5
 21
-27
  0
LINE
  8
0
 10
-73.5
 20
-27
 11
-73.5471
 21
-27.373
  0
LINE
  8
0
 10
-73.5471
 20
-27.373
 11
-73.6855
 21
-27.7226
  0
LINE
  8
0
 10
-73.6855
 20
-27.7226
 11
-73.9065
 21
-28.0268
  0
LINE
  8
0
 10
-73.9065
 20
-28.0268
 11
-74.1963
 21
-28.2665
  0
LINE
  8
0
 10
-74.1963
 20
-28.2665
 11
-74.5365
 21
-28.4266
  0
LINE
  8
0
 10
-74.5365
 20
-28.4266
 11
-74.9058
 21
-28.497
  0
LINE
  8
0
 10
-74.9058
 20
-28.497
 11
-75.2811
 21
-28.4734
  0
LINE
  8
0
 10
-25.2811
 20
-28.4734
 11
-25.6387
 21
-28.3572
  0
LINE
  8
0
 10
-25.6387
 20
-28.3572
 11
-25.9561
 21
-28.1558
  0
LINE
  8
0
 10
-25.9561
 20
-28.1558
 11
-26.2135
 21
-27.8817
  0
LINE
  8
0
 10
-26.2135
 20
-27.8817
 11
-26.3947
 21
-27.5522
  0
LINE
  8
0
 10
-26.3947
 20
-27.5522
 11
-26.4882
 21
-27.188
  0
LINE
  8
0
 10
-26.4882
 20
-27.188
 11
-26.4882
 21
-26.812
  0
LINE
  8
0
 10
-26.4882
 20
-26.812
 11
-26.3947
 21
-26.4478
  0
LINE
  8
0
 10
-26.3947
 20
-26.4478
 11
-26.2135
 21
-26.1183
  0
LINE
  8
0
 10
-26.2135
 20
-26.1183
 11
-25.9561
 21
-25.8442
  0
LINE
  8
0
 10
-25.9561
 20
-25.8442
 11
-25.6387
 21
-25.6427
  0
LINE
  8
0
 10
-25.6387
 20
-25.6427
 11
-25.2811
 21
-25.5266
  0
LINE
  8
0
 10
-25.2811
 20
-25.5266
 11
-24.9058
 21
-25.503
  0
LINE
  8
0
 10
-24.9058
 20
-25.503
 11
-24.5365
 21
-25.5734
  0
LINE
  8
0
 10
-24.5365
 20
-25.5734
 11
-24.1963
 21
-25.7335
  0
LINE
  8
0
 10
-24.1963
 20
-25.7335
 11
-23.9065
 21
-25.9732
  0
LINE
  8
0
 10
-23.9065
 20
-25.9732
 11
-23.6855
 21
-26.2774
  0
LINE
  8
0
 10
-23.6855
 20
-26.2774
 11
-23.5471
 21
-26.627
  0
LINE
  8
0
 10
-23.5471
 20
-26.627
 11
-23.5
 21
-27
  0
LINE
  8
0
 10
-23.5
 20
-27
 11
-23.5471
 21
-27.373
  0
LINE
  8
0
 10
-23.5471
 20
-27.373
 11
-23.6855
 21
-27.7226
  0
LINE
  8
0
 10
-23.6855
 20
-27.7226
 11
-23.9065
 21
-28.0268
  0
LINE
  8
0
 10
-23.9065
 20
-28.0268
 11
-24.1963
 21
-28.2665
  0
LINE
  8
0
 10
-24.1963
 20
-28.2665
 11
-24.5365
 21
-28.4266
  0
LINE
  8
0
 10
-24.5365
 20
-28.4266
 11
-24.9058
 21
-28.497
  0
LINE
  8
0
 10
-24.9058
 20
-28.497
 11
-25.2811
 21
-28.4734
  0
LINE
  8
0
 10
12.4379
 20
-41.9469
 11
11.7227
 21
-41.7145
  0
LINE
  8
0
 10
11.7227
 20
-41.7145
 11
11.0877
 21
-41.3115
  0
LINE
  8
0
 10
11.0877
 20
-41.3115
 11
10.5729
 21
-40.7634
  0
LINE
  8
0
 10
10.5729
 20
-40.7634
 11
10.2107
 21
-40.1044
  0
LINE
  8
0
 10
10.2107
 20
-40.1044
 11
10.0237
 21
-39.376
  0
LINE
  8
0
 10
10.0237
 20
-39.376
 11
10.0237
 21
-38.624
  0
LINE
  8
0
 10
10.0237
 20
-38.624
 11
10.2107
 21
-37.8956
  0
LINE
  8
0
 10
10.2107
 20
-37.8956
 11
10.5729
 21
-37.2366
  0
LINE
  8
0
 10
10.5729
 20
-37.2366
 11
11.0877
 21
-36.6885
  0
LINE
  8
0
 10
11.0877
 20
-36.6885
 11
11.7227
 21
-36.2855
  0
LINE
  8
0
 10
11.7227
 20
-36.2855
 11
12.4379
 21
-36.0531
  0
LINE
  8
0
 10
12.4379
 20
-36.0531
 11
13.1884
 21
-36.0059
  0
LINE
  8
0
 10
13.1884
 20
-36.0059
 11
13.927
 21
-36.1468
  0
LINE
  8
0
 10
13.927
 20
-36.1468
 11
14.6075
 21
-36.467
  0
LINE
  8
0
 10
14.6075
 20
-36.467
 11
15.1869
 21
-36.9464
  0
LINE
  8
0
 10
15.1869
 20
-36.9464
 11
15.6289
 21
-37.5547
  0
LINE
  8
0
 10
15.6289
 20
-37.5547
 11
15.9057
 21
-38.2539
  0
LINE
  8
0
 10
15.9057
 20
-38.2539
 11
16
 21
-39
  0
LINE
  8
0
 10
16
 20
-39
 11
15.9057
 21
-39.7461
  0
LINE
  8
0
 10
15.9057
 20
-39.7461
 11
15.6289
 21
-40.4453
  0
LINE
  8
0
 10
15.6289
 20
-40.4453
 11
15.1869
 21
-41.0536
  0
LINE
  8
0
 10
15.1869
 20
-41.0536
 11
14.6075
 21
-41.533
  0
LINE
  8
0
 10
14.6075
 20
-41.533
 11
13.927
 21
-41.8532
  0
LINE
  8
0
 10
13.927
 20
-41.8532
 11
13.1884
 21
-41.9941
  0
LINE
  8
0
 10
13.1884
 20
-41.9941
 11
12.4379
 21
-41.9469
  0
LINE
  8
0
 10
-95.5621
 20
-41.9469
 11
-96.2773
 21
-41.7145
  0
LINE
  8
0
 10
-96.2773
 20
-41.7145
 11
-96.9123
 21
-41.3115
  0
LINE
  8
0
 10
-96.9123
 20
-41.3115
 11
-97.427
 21
-40.7634
  0
LINE
  8
0
 10
-97.427
 20
-40.7634
 11
-97.7893
 21
-40.1044
  0
LINE
  8
0
 10
-97.7893
 20
-40.1044
 11
-97.9763
 21
-39.376
  0
LINE
  8
0
 10
-97.9763
 20
-39.376
 11
-97.9763
 21
-38.624
  0
LINE
  8
0
 10
-97.9763
 20
-38.624
 11
-97.7893
 21
-37.8956
  0
LINE
  8
0
 10
-97.7893
 20
-37.8956
 11
-97.427
 21
-37.2366
  0
LINE
  8
0
 10
-97.427
 20
-37.2366
 11
-96.9123
 21
-36.6885
  0
LINE
  8
0
 10
-96.9123
 20
-36.6885
 11
-96.2773
 21
-36.2855
  0
LINE
  8
0
 10
-96.2773
 20
-36.2855
 11
-95.5621
 21
-36.0531
  0
LINE
  8
0
 10
-95.5621
 20
-36.0531
 11
-94.8116
 21
-36.0059
  0
LINE
  8
0
 10
-94.8116
 20
-36.0059
 11
-94.073
 21
-36.1468
  0
LINE
  8
0
 10
-94.073
 20
-36.1468
 11
-93.3925
 21
-36.467
  0
LINE
  8
0
 10
-93.3925
 20
-36.467
 11
-92.8131
 21
-36.9464
  0
LINE
  8
0
 10
-92.8131
 20
-36.9464
 11
-92.3711
 21
-37.5547
  0
LINE
  8
0
 10
-92.3711
 20
-37.5547
 11
-92.0943
 21
-38.2539
  0
LINE
  8
0
 10
-92.0943
 20
-38.2539
 11
-92
 21
-39
  0
LINE
  8
0
 10
-92
 20
-39
 11
-92.0943
 21
-39.7461
  0
LINE
  8
0
 10
-92.0943
 20
-39.7461
 11
-92.3711
 21
-40.4453
  0
LINE
  8
0
 10
-92.3711
 20
-40.4453
 11
-92.8131
 21
-41.0536
  0
LINE
  8
0
 10
-92.8131
 20
-41.0536
 11
-93.3925
 21
-41.533
  0
LINE
  8
0
 10
-93.3925
 20
-41.533
 11
-94.073
 21
-41.8532
  0
LINE
  8
0
 10
-94.073
 20
-41.8532
 11
-94.8116
 21
-41.9941
  0
LINE
  8
0
 10
-94.8116
 20
-41.9941
 11
-95.5621
 21
-41.9469
  0
LINE
  8
0
 10
916
 20
29.5
 11
1004
 21
29.5
  0
LINE
  8
0
 10
1004
 20
29.5
 11
1004
 21
45
  0
LINE
  8
0
 10
1004
 20
45
 11
884
 21
45
  0
LINE
  8
0
 10
884
 20
45
 11
884
 21
22.5
  0
LINE
  8
0
 10
884
 20
22.5
 11
902
 21
22.5
  0
LINE
  8
0
 10
902
 20
22.5
 11
902
 21
12.5
  0
LINE
  8
0
 10
902
 20
12.5
 11
916
 21
12.5
  0
LINE
  8
0
 10
916
 20
12.5
 11
916
 21
29.5
  0
LINE
  8
0
 10
997.438
 20
36.0531
 11
996.723
 21
36.2855
  0
LINE
  8
0
 10
996.723
 20
36.2855
 11
996.088
 21
36.6885
  0
LINE
  8
0
 10
996.088
 20
36.6885
 11
995.573
 21
37.2366
  0
LINE
  8
0
 10
995.573
 20
37.2366
 11
995.211
 21
37.8956
  0
LINE
  8
0
 10
995.211
 20
37.8956
 11
995.024
 21
38.624
  0
LINE
  8
0
 10
995.024
 20
38.624
 11
995.024
 21
39.376
  0
LINE
  8
0
 10
995.024
 20
39.376
 11
995.211
 21
40.1044
  0
LINE
  8
0
 10
995.211
 20
40.1044
 11
995.573
 21
40.7634
  0
LINE
  8
0
 10
995.573
 20
40.7634
 11
996.088
 21
41.3115
  0
LINE
  8
0
 10
996.088
 20
41.3115
 11
996.723
 21
41.7145
  0
LINE
  8
0
 10
996.723
 20
41.7145
 11
997.438
 21
41.9469
  0
LINE
  8
0
 10
997.438
 20
41.9469
 11
998.188
 21
41.9941
  0
LINE
  8
0
 10
998.188
 20
41.9941
 11
998.927
 21
41.8532
  0
LINE
  8
0
 10
998.927
 20
41.8532
 11
999.607
 21
41.533
  0
LINE
  8
0
 10
999.607
 20
41.533
 11
1000.19
 21
41.0536
  0
LINE
  8
0
 10
1000.19
 20
41.0536
 11
1000.63
 21
40.4453
  0
LINE
  8
0
 10
1000.63
 20
40.4453
 11
1000.91
 21
39.7461
  0
LINE
  8
0
 10
1000.91
 20
39.7461
 11
1001
 21
39
  0
LINE
  8
0
 10
1001
 20
39
 11
1000.91
 21
38.2539
  0
LINE
  8
0
 10
1000.91
 20
38.2539
 11
1000.63
 21
37.5547
  0
LINE
  8
0
 10
1000.63
 20
37.5547
 11
1000.19
 21
36.9464
  0
LINE
  8
0
 10
1000.19
 20
36.9464
 11
999.607
 21
36.467
  0
LINE
  8
0
 10
999.607
 20
36.467
 11
998.927
 21
36.1468
  0
LINE
  8
0
 10
998.927
 20
36.1468
 11
998.188
 21
36.0059
  0
LINE
  8
0
 10
998.188
 20
36.0059
 11
997.438
 21
36.0531
  0
LINE
  8
0
 10
889.438
 20
36.0531
 11
888.723
 21
36.2855
  0
LINE
  8
0
 10
888.723
 20
36.2855
 11
888.088
 21
36.6885
  0
LINE
  8
0
 10
888.088
 20
36.6885
 11
887.573
 21
37.2366
  0
LINE
  8
0
 10
887.573
 20
37.2366
 11
887.211
 21
37.8956
  0
LINE
  8
0
 10
887.211
 20
37.8956
 11
887.024
 21
38.624
  0
LINE
  8
0
 10
887.024
 20
38.624
 11
887.024
 21
39.376
  0
LINE
  8
0
 10
887.024
 20
39.376
 11
887.211
 21
40.1044
  0
LINE
  8
0
 10
887.211
 20
40.1044
 11
887.573
 21
40.7634
  0
LINE
  8
0
 10
887.573
 20
40.7634
 11
888.088
 21
41.3115
  0
LINE
  8
0
 10
888.088
 20
41.3115
 11
888.723
 21
41.7145
  0
LINE
  8
0
 10
888.723
 20
41.7145
 11
889.438
 21
41.9469
  0
LINE
  8
0
 10
889.438
 20
41.9469
 11
890.188
 21
41.9941
  0
LINE
  8
0
 10
890.188
 20
41.9941
 11
890.927
 21
41.8532
  0
LINE
  8
0
 10
890.927
 20
41.8532
 11
891.607
 21
41.533
  0
LINE
  8
0
 10
891.607
 20
41.533
 11
892.187
 21
41.0536
  0
LINE
  8
0
 10
892.187
 20
41.0536
 11
892.629
 21
40.4453
  0
LINE
  8
0
 10
892.629
 20
40.4453
 11
892.906
 21
39.7461
  0
LINE
  8
0
 10
892.906
 20
39.7461
 11
893
 21
39
  0
LINE
  8
0
 10
893
 20
39
 11
892.906
 21
38.2539
  0
LINE
  8
0
 10
892.906
 20
38.2539
 11
892.629
 21
37.5547
  0
LINE
  8
0
 10
892.629
 20
37.5547
 11
892.187
 21
36.9464
  0
LINE
  8
0
 10
892.187
 20
36.9464
 11
891.607
 21
36.467
  0
LINE
  8
0
 10
891.607
 20
36.467
 11
890.927
 21
36.1468
  0
LINE
  8
0
 10
890.927
 20
36.1468
 11
890.188
 21
36.0059
  0
LINE
  8
0
 10
890.188
 20
36.0059
 11
889.438
 21
36.0531
  0
LINE
  8
0
 10
909.719
 20
25.5266
 11
909.361
 21
25.6427
  0
LINE
  8
0
 10
909.361
 20
25.6427
 11
909.044
 21
25.8442
  0
LINE
  8
0
 10
909.044
 20
25.8442
 11
908.786
 21
26.1183
  0
LINE
  8
0
 10
908.786
 20
26.1183
 11
908.605
 21
26.4478
  0
LINE
  8
0
 10
908.605
 20
26.4478
 11
908.512
 21
26.812
  0
LINE
  8
0
 10
908.512
 20
26.812
 11
908.512
 21
27.188
  0
LINE
  8
0
 10
908.512
 20
27.188
 11
908.605
 21
27.5522
  0
LINE
  8
0
 10
908.605
 20
27.5522
 11
908.786
 21
27.8817
  0
LINE
  8
0
 10
908.786
 20
27.8817
 11
909.044
 21
28.1558
  0
LINE
  8
0
 10
909.044
 20
28.1558
 11
909.361
 21
28.3572
  0
LINE
  8
0
 10
909.361
 20
28.3572
 11
909.719
 21
28.4734
  0
LINE
  8
0
 10
909.719
 20
28.4734
 11
910.094
 21
28.497
  0
LINE
  8
0
 10
910.094
 20
28.497
 11
910.464
 21
28.4266
  0
LINE
  8
0
 10
910.464
 20
28.4266
 11
910.804
 21
28.2665
  0
LINE
  8
0
 10
910.804
 20
28.2665
 11
911.093
 21
28.0268
  0
LINE
  8
0
 10
911.093
 20
28.0268
 11
911.314
 21
27.7226
  0
LINE
  8
0
 10
911.314
 20
27.7226
 11
911.453
 21
27.373
  0
LINE
  8
0
 10
911.453
 20
27.373
 11
911.5
 21
27
  0
LINE
  8
0
 10
911.5
 20
27
 11
911.453
 21
26.627
  0
LINE
  8
0
 10
911.453
 20
26.627
 11
911.314
 21
26.2774
  0
LINE
  8
0
 10
911.314
 20
26.2774
 11
911.093
 21
25.9732
  0
LINE
  8
0
 10
911.093
 20
25.9732
 11
910.804
 21
25.7335
  0
LINE
  8
0
 10
910.804
 20
25.7335
 11
910.464
 21
25.5734
  0
LINE
  8
0
 10
910.464
 20
25.5734
 11
910.094
 21
25.503
  0
LINE
  8
0
 10
910.094
 20
25.503
 11
909.719
 21
25.5266
  0
LINE
  8
0
 10
793
 20
29.5
 11
881
 21
29.5
  0
LINE
  8
0
 10
881
 20
29.5
 11
881
 21
45
  0
LINE
  8
0
 10
881
 20
45
 11
761
 21
45
  0
LINE
  8
0
 10
761
 20
45
 11
761
 21
22.5
  0
LINE
  8
0
 10
761
 20
22.5
 11
779
 21
22.5
  0
LINE
  8
0
 10
779
 20
22.5
 11
779
 21
12.5
  0
LINE
  8
0
 10
779
 20
12.5
 11
793
 21
12.5
  0
LINE
  8
0
 10
793
 20
12.5
 11
793
 21
29.5
  0
LINE
  8
0
 10
874.438
 20
36.0531
 11
873.723
 21
36.2855
  0
LINE
  8
0
 10
873.723
 20
36.2855
 11
873.088
 21
36.6885
  0
LINE
  8
0
 10
873.088
 20
36.6885
 11
872.573
 21
37.2366
  0
LINE
  8
0
 10
872.573
 20
37.2366
 11
872.211
 21
37.8956
  0
LINE
  8
0
 10
872.211
 20
37.8956
 11
872.024
 21
38.624
  0
LINE
  8
0
 10
872.024
 20
38.624
 11
872.024
 21
39.376
  0
LINE
  8
0
 10
872.024
 20
39.376
 11
872.211
 21
40.1044
  0
LINE
  8
0
 10
872.211
 20
40.1044
 11
872.573
 21
40.7634
  0
LINE
  8
0
 10
872.573
 20
40.7634
 11
873.088
 21
41.3115
  0
LINE
  8
0
 10
873.088
 20
41.3115
 11
873.723
 21
41.7145
  0
LINE
  8
0
 10
873.723
 20
41.7145
 11
874.438
 21
41.9469
  0
LINE
  8
0
 10
874.438
 20
41.9469
 11
875.188
 21
41.9941
  0
LINE
  8
0
 10
875.188
 20
41.9941
 11
875.927
 21
41.8532
  0
LINE
  8
0
 10
875.927
 20
41.8532
 11
876.607
 21
41.533
  0
LINE
  8
0
 10
876.607
 20
41.533
 11
877.187
 21
41.0536
  0
LINE
  8
0
 10
877.187
 20
41.0536
 11
877.629
 21
40.4453
  0
LINE
  8
0
 10
877.629
 20
40.4453
 11
877.906
 21
39.7461
  0
LINE
  8
0
 10
877.906
 20
39.7461
 11
878
 21
39
  0
LINE
  8
0
 10
878
 20
39
 11
877.906
 21
38.2539
  0
LINE
  8
0
 10
877.906
 20
38.2539
 11
877.629
 21
37.5547
  0
LINE
  8
0
 10
877.629
 20
37.5547
 11
877.187
 21
36.9464
  0
LINE
  8
0
 10
877.187
 20
36.9464
 11
876.607
 21
36.467
  0
LINE
  8
0
 10
876.607
 20
36.467
 11
875.927
 21
36.1468
  0
LINE
  8
0
 10
875.927
 20
36.1468
 11
875.188
 21
36.0059
  0
LINE
  8
0
 10
875.188
 20
36.0059
 11
874.438
 21
36.0531
  0
LINE
  8
0
 10
766.438
 20
36.0531
 11
765.723
 21
36.2855
  0
LINE
  8
0
 10
765.723
 20
36.2855
 11
765.088
 21
36.6885
  0
LINE
  8
0
 10
765.088
 20
36.6885
 11
764.573
 21
37.2366
  0
LINE
  8
0
 10
764.573
 20
37.2366
 11
764.211
 21
37.8956
  0
LINE
  8
0
 10
764.211
 20
37.8956
 11
764.024
 21
38.624
  0
LINE
  8
0
 10
764.024
 20
38.624
 11
764.024
 21
39.376
  0
LINE
  8
0
 10
764.024
 20
39.376
 11
764.211
 21
40.1044
  0
LINE
  8
0
 10
764.211
 20
40.1044
 11
764.573
 21
40.7634
  0
LINE
  8
0
 10
764.573
 20
40.7634
 11
765.088
 21
41.3115
  0
LINE
  8
0
 10
765.088
 20
41.3115
 11
765.723
 21
41.7145
  0
LINE
  8
0
 10
765.723
 20
41.7145
 11
766.438
 21
41.9469
  0
LINE
  8
0
 10
766.438
 20
41.9469
 11
767.188
 21
41.9941
  0
LINE
  8
0
 10
767.188
 20
41.9941
 11
767.927
 21
41.8532
  0
LINE
  8
0
 10
767.927
 20
41.8532
 11
768.607
 21
41.533
  0
LINE
  8
0
 10
768.607
 20
41.533
 11
769.187
 21
41.0536
  0
LINE
  8
0
 10
769.187
 20
41.0536
 11
769.629
 21
40.4453
  0
LINE
  8
0
 10
769.629
 20
40.4453
 11
769.906
 21
39.7461
  0
LINE
  8
0
 10
769.906
 20
39.7461
 11
770
 21
39
  0
LINE
  8
0
 10
770
 20
39
 11
769.906
 21
38.2539
  0
LINE
  8
0
 10
769.906
 20
38.2539
 11
769.629
 21
37.5547
  0
LINE
  8
0
 10
769.629
 20
37.5547
 11
769.187
 21
36.9464
  0
LINE
  8
0
 10
769.187
 20
36.9464
 11
768.607
 21
36.467
  0
LINE
  8
0
 10
768.607
 20
36.467
 11
767.927
 21
36.1468
  0
LINE
  8
0
 10
767.927
 20
36.1468
 11
767.188
 21
36.0059
  0
LINE
  8
0
 10
767.188
 20
36.0059
 11
766.438
 21
36.0531
  0
LINE
  8
0
 10
786.719
 20
25.5266
 11
786.361
 21
25.6427
  0
LINE
  8
0
 10
786.361
 20
25.6427
 11
786.044
 21
25.8442
  0
LINE
  8
0
 10
786.044
 20
25.8442
 11
785.786
 21
26.1183
  0
LINE
  8
0
 10
785.786
 20
26.1183
 11
785.605
 21
26.4478
  0
LINE
  8
0
 10
785.605
 20
26.4478
 11
785.512
 21
26.812
  0
LINE
  8
0
 10
785.512
 20
26.812
 11
785.512
 21
27.188
  0
LINE
  8
0
 10
785.512
 20
27.188
 11
785.605
 21
27.5522
  0
LINE
  8
0
 10
785.605
 20
27.5522
 11
785.786
 21
27.8817
  0
LINE
  8
0
 10
785.786
 20
27.8817
 11
786.044
 21
28.1558
  0
LINE
  8
0
 10
786.044
 20
28.1558
 11
786.361
 21
28.3572
  0
LINE
  8
0
 10
786.361
 20
28.3572
 11
786.719
 21
28.4734
  0
LINE
  8
0
 10
786.719
 20
28.4734
 11
787.094
 21
28.497
  0
LINE
  8
0
 10
787.094
 20
28.497
 11
787.464
 21
28.4266
  0
LINE
  8
0
 10
787.464
 20
28.4266
 11
787.804
 21
28.2665
  0
LINE
  8
0
 10
787.804
 20
28.2665
 11
788.093
 21
28.0268
  0
LINE
  8
0
 10
788.093
 20
28.0268
 11
788.314
 21
27.7226
  0
LINE
  8
0
 10
788.314
 20
27.7226
 11
788.453
 21
27.373
  0
LINE
  8
0
 10
788.453
 20
27.373
 11
788.5
 21
27
  0
LINE
  8
0
 10
788.5
 20
27
 11
788.453
 21
26.627
  0
LINE
  8
0
 10
788.453
 20
26.627
 11
788.314
 21
26.2774
  0
LINE
  8
0
 10
788.314
 20
26.2774
 11
788.093
 21
25.9732
  0
LINE
  8
0
 10
788.093
 20
25.9732
 11
787.804
 21
25.7335
  0
LINE
  8
0
 10
787.804
 20
25.7335
 11
787.464
 21
25.5734
  0
LINE
  8
0
 10
787.464
 20
25.5734
 11
787.094
 21
25.503
  0
LINE
  8
0
 10
787.094
 20
25.503
 11
786.719
 21
25.5266
  0
LINE
  8
0
 10
1004
 20
-29.5
 11
916
 21
-29.5
  0
LINE
  8
0
 10
916
 20
-29.5
 11
916
 21
-12.5
  0
LINE
  8
0
 10
916
 20
-12.5
 11
902
 21
-12.5
  0
LINE
  8
0
 10
902
 20
-12.5
 11
902
 21
-22.5
  0
LINE
  8
0
 10
902
 20
-22.5
 11
884
 21
-22.5
  0
LINE
  8
0
 10
884
 20
-22.5
 11
884
 21
-45
  0
LINE
  8
0
 10
884
 20
-45
 11
1004
 21
-45
  0
LINE
  8
0
 10
1004
 20
-45
 11
1004
 21
-29.5
  0
LINE
  8
0
 10
909.719
 20
-28.4734
 11
909.361
 21
-28.3572
  0
LINE
  8
0
 10
909.361
 20
-28.3572
 11
909.044
 21
-28.1558
  0
LINE
  8
0
 10
909.044
 20
-28.1558
 11
908.786
 21
-27.8817
  0
LINE
  8
0
 10
908.786
 20
-27.8817
 11
908.605
 21
-27.5522
  0
LINE
  8
0
 10
908.605
 20
-27.5522
 11
908.512
 21
-27.188
  0
LINE
  8
0
 10
908.512
 20
-27.188
 11
908.512
 21
-26.812
  0
LINE
  8
0
 10
908.512
 20
-26.812
 11
908.605
 21
-26.4478
  0
LINE
  8
0
 10
908.605
 20
-26.4478
 11
908.786
 21
-26.1183
  0
LINE
  8
0
 10
908.786
 20
-26.1183
 11
909.044
 21
-25.8442
  0
LINE
  8
0
 10
909.044
 20
-25.8442
 11
909.361
 21
-25.6427
  0
LINE
  8
0
 10
909.361
 20
-25.6427
 11
909.719
 21
-25.5266
  0
LINE
  8
0
 10
909.719
 20
-25.5266
 11
910.094
 21
-25.503
  0
LINE
  8
0
 10
910.094
 20
-25.503
 11
910.464
 21
-25.5734
  0
LINE
  8
0
 10
910.464
 20
-25.5734
 11
910.804
 21
-25.7335
  0
LINE
  8
0
 10
910.804
 20
-25.7335
 11
911.093
 21
-25.9732
  0
LINE
  8
0
 10
911.093
 20
-25.9732
 11
911.314
 21
-26.2774
  0
LINE
  8
0
 10
911.314
 20
-26.2774
 11
911.453
 21
-26.627
  0
LINE
  8
0
 10
911.453
 20
-26.627
 11
911.5
 21
-27
  0
LINE
  8
0
 10
911.5
 20
-27
 11
911.453
 21
-27.373
  0
LINE
  8
0
 10
911.453
 20
-27.373
 11
911.314
 21
-27.7226
  0
LINE
  8
0
 10
911.314
 20
-27.7226
 11
911.093
 21
-28.0268
  0
LINE
  8
0
 10
911.093
 20
-28.0268
 11
910.804
 21
-28.2665
  0
LINE
  8
0
 10
910.804
 20
-28.2665
 11
910.464
 21
-28.4266
  0
LINE
  8
0
 10
910.464
 20
-28.4266
 11
910.094
 21
-28.497
  0
LINE
  8
0
 10
910.094
 20
-28.497
 11
909.719
 21
-28.4734
  0
LINE
  8
0
 10
997.438
 20
-41.9469
 11
996.723
 21
-41.7145
  0
LINE
  8
0
 10
996.723
 20
-41.7145
 11
996.088
 21
-41.3115
  0
LINE
  8
0
 10
996.088
 20
-41.3115
 11
995.573
 21
-40.7634
  0
LINE
  8
0
 10
995.573
 20
-40.7634
 11
995.211
 21
-40.1044
  0
LINE
  8
0
 10
995.211
 20
-40.1044
 11
995.024
 21
-39.376
  0
LINE
  8
0
 10
995.024
 20
-39.376
 11
995.024
 21
-38.624
  0
LINE
  8
0
 10
995.024
 20
-38.624
 11
995.211
 21
-37.8956
  0
LINE
  8
0
 10
995.211
 20
-37.8956
 11
995.573
 21
-37.2366
  0
LINE
  8
0
 10
995.573
 20
-37.2366
 11
996.088
 21
-36.6885
  0
LINE
  8
0
 10
996.088
 20
-36.6885
 11
996.723
 21
-36.2855
  0
LINE
  8
0
 10
996.723
 20
-36.2855
 11
997.438
 21
-36.0531
  0
LINE
  8
0
 10
997.438
 20
-36.0531
 11
998.188
 21
-36.0059
  0
LINE
  8
0
 10
998.188
 20
-36.0059
 11
998.927
 21
-36.1468
  0
LINE
  8
0
 10
998.927
 20
-36.1468
 11
999.607
 21
-36.467
  0
LINE
  8
0
 10
999.607
 20
-36.467
 11
1000.19
 21
-36.9464
  0
LINE
  8
0
 10
1000.19
 20
-36.9464
 11
1000.63
 21
-37.5547
  0
LINE
  8
0
 10
1000.63
 20
-37.5547
 11
1000.91
 21
-38.2539
  0
LINE
  8
0
 10
1000.91
 20
-38.2539
 11
1001
 21
-39
  0
LINE
  8
0
 10
1001
 20
-39
 11
1000.91
 21
-39.7461
  0
LINE
  8
0
 10
1000.91
 20
-39.7461
 11
1000.63
 21
-40.4453
  0
LINE
  8
0
 10
1000.63
 20
-40.4453
 11
1000.19
 21
-41.0536
  0
LINE
  8
0
 10
1000.19
 20
-41.0536
 11
999.607
 21
-41.533
  0
LINE
  8
0
 10
999.607
 20
-41.533
 11
998.927
 21
-41.8532
  0
LINE
  8
0
 10
998.927
 20
-41.8532
 11
998.188
 21
-41.9941
  0
LINE
  8
0
 10
998.188
 20
-41.9941
 11
997.438
 21
-41.9469
  0
LINE
  8
0
 10
889.438
 20
-41.9469
 11
888.723
 21
-41.7145
  0
LINE
  8
0
 10
888.723
 20
-41.7145
 11
888.088
 21
-41.3115
  0
LINE
  8
0
 10
888.088
 20
-41.3115
 11
887.573
 21
-40.7634
  0
LINE
  8
0
 10
887.573
 20
-40.7634
 11
887.211
 21
-40.1044
  0
LINE
  8
0
 10
887.211
 20
-40.1044
 11
887.024
 21
-39.376
  0
LINE
  8
0
 10
887.024
 20
-39.376
 11
887.024
 21
-38.624
  0
LINE
  8
0
 10
887.024
 20
-38.624
 11
887.211
 21
-37.8956
  0
LINE
  8
0
 10
887.211
 20
-37.8956
 11
887.573
 21
-37.2366
  0
LINE
  8
0
 10
887.573
 20
-37.2366
 11
888.088
 21
-36.6885
  0
LINE
  8
0
 10
888.088
 20
-36.6885
 11
888.723
 21
-36.2855
  0
LINE
  8
0
 10
888.723
 20
-36.2855
 11
889.438
 21
-36.0531
  0
LINE
  8
0
 10
889.438
 20
-36.0531
 11
890.188
 21
-36.0059
  0
LINE
  8
0
 10
890.188
 20
-36.0059
 11
890.927
 21
-36.1468
  0
LINE
  8
0
 10
890.927
 20
-36.1468
 11
891.607
 21
-36.467
  0
LINE
  8
0
 10
891.607
 20
-36.467
 11
892.187
 21
-36.9464
  0
LINE
  8
0
 10
892.187
 20
-36.9464
 11
892.629
 21
-37.5547
  0
LINE
  8
0
 10
892.629
 20
-37.5547
 11
892.906
 21
-38.2539
  0
LINE
  8
0
 10
892.906
 20
-38.2539
 11
893
 21
-39
  0
LINE
  8
0
 10
893
 20
-39
 11
892.906
 21
-39.7461
  0
LINE
  8
0
 10
892.906
 20
-39.7461
 11
892.629
 21
-40.4453
  0
LINE
  8
0
 10
892.629
 20
-40.4453
 11
892.187
 21
-41.0536
  0
LINE
  8
0
 10
892.187
 20
-41.0536
 11
891.607
 21
-41.533
  0
LINE
  8
0
 10
891.607
 20
-41.533
 11
890.927
 21
-41.8532
  0
LINE
  8
0
 10
890.927
 20
-41.8532
 11
890.188
 21
-41.9941
  0
LINE
  8
0
 10
890.188
 20
-41.9941
 11
889.438
 21
-41.9469
  0
LINE
  8
0
 10
881
 20
-29.5
 11
793
 21
-29.5
  0
LINE
  8
0
 10
793
 20
-29.5
 11
793
 21
-12.5
  0
LINE
  8
0
 10
793
 20
-12.5
 11
779
 21
-12.5
  0
LINE
  8
0
 10
779
 20
-12.5
 11
779
 21
-22.5
  0
LINE
  8
0
 10
779
 20
-22.5
 11
761
 21
-22.5
  0
LINE
  8
0
 10
761
 20
-22.5
 11
761
 21
-45
  0
LINE
  8
0
 10
761
 20
-45
 11
881
 21
-45
  0
LINE
  8
0
 10
881
 20
-45
 11
881
 21
-29.5
  0
LINE
  8
0
 10
786.719
 20
-28.4734
 11
786.361
 21
-28.3572
  0
LINE
  8
0
 10
786.361
 20
-28.3572
 11
786.044
 21
-28.1558
  0
LINE
  8
0
 10
786.044
 20
-28.1558
 11
785.786
 21
-27.8817
  0
LINE
  8
0
 10
785.786
 20
-27.8817
 11
785.605
 21
-27.5522
  0
LINE
  8
0
 10
785.605
 20
-27.5522
 11
785.512
 21
-27.188
  0
LINE
  8
0
 10
785.512
 20
-27.188
 11
785.512
 21
-26.812
  0
LINE
  8
0
 10
785.512
 20
-26.812
 11
785.605
 21
-26.4478
  0
LINE
  8
0
 10
785.605
 20
-26.4478
 11
785.786
 21
-26.1183
  0
LINE
  8
0
 10
785.786
 20
-26.1183
 11
786.044
 21
-25.8442
  0
LINE
  8
0
 10
786.044
 20
-25.8442
 11
786.361
 21
-25.6427
  0
LINE
  8
0
 10
786.361
 20
-25.6427
 11
786.719
 21
-25.5266
  0
LINE
  8
0
 10
786.719
 20
-25.5266
 11
787.094
 21
-25.503
  0
LINE
  8
0
 10
787.094
 20
-25.503
 11
787.464
 21
-25.5734
  0
LINE
  8
0
 10
787.464
 20
-25.5734
 11
787.804
 21
-25.7335
  0
LINE
  8
0
 10
787.804
 20
-25.7335
 11
788.093
 21
-25.9732
  0
LINE
  8
0
 10
788.093
 20
-25.9732
 11
788.314
 21
-26.2774
  0
LINE
  8
0
 10
788.314
 20
-26.2774
 11
788.453
 21
-26.627
  0
LINE
  8
0
 10
788.453
 20
-26.627
 11
788.5
 21
-27
  0
LINE
  8
0
 10
788.5
 20
-27
 11
788.453
 21
-27.373
  0
LINE
  8
0
 10
788.453
 20
-27.373
 11
788.314
 21
-27.7226
  0
LINE
  8
0
 10
788.314
 20
-27.7226
 11
788.093
 21
-28.0268
  0
LINE
  8
0
 10
788.093
 20
-28.0268
 11
787.804
 21
-28.2665
  0
LINE
  8
0
 10
787.804
 20
-28.2665
 11
787.464
 21
-28.4266
  0
LINE
  8
0
 10
787.464
 20
-28.4266
 11
787.094
 21
-28.497
  0
LINE
  8
0
 10
787.094
 20
-28.497
 11
786.719
 21
-28.4734
  0
LINE
  8
0
 10
874.438
 20
-41.9469
 11
873.723
 21
-41.7145
  0
LINE
  8
0
 10
873.723
 20
-41.7145
 11
873.088
 21
-41.3115
  0
LINE
  8
0
 10
873.088
 20
-41.3115
 11
872.573
 21
-40.7634
  0
LINE
  8
0
 10
872.573
 20
-40.7634
 11
872.211
 21
-40.1044
  0
LINE
  8
0
 10
872.211
 20
-40.1044
 11
872.024
 21
-39.376
  0
LINE
  8
0
 10
872.024
 20
-39.376
 11
872.024
 21
-38.624
  0
LINE
  8
0
 10
872.024
 20
-38.624
 11
872.211
 21
-37.8956
  0
LINE
  8
0
 10
872.211
 20
-37.8956
 11
872.573
 21
-37.2366
  0
LINE
  8
0
 10
872.573
 20
-37.2366
 11
873.088
 21
-36.6885
  0
LINE
  8
0
 10
873.088
 20
-36.6885
 11
873.723
 21
-36.2855
  0
LINE
  8
0
 10
873.723
 20
-36.2855
 11
874.438
 21
-36.0531
  0
LINE
  8
0
 10
874.438
 20
-36.0531
 11
875.188
 21
-36.0059
  0
LINE
  8
0
 10
875.188
 20
-36.0059
 11
875.927
 21
-36.1468
  0
LINE
  8
0
 10
875.927
 20
-36.1468
 11
876.607
 21
-36.467
  0
LINE
  8
0
 10
876.607
 20
-36.467
 11
877.187
 21
-36.9464
  0
LINE
  8
0
 10
877.187
 20
-36.9464
 11
877.629
 21
-37.5547
  0
LINE
  8
0
 10
877.629
 20
-37.5547
 11
877.906
 21
-38.2539
  0
LINE
  8
0
 10
877.906
 20
-38.2539
 11
878
 21
-39
  0
LINE
  8
0
 10
878
 20
-39
 11
877.906
 21
-39.7461
  0
LINE
  8
0
 10
877.906
 20
-39.7461
 11
877.629
 21
-40.4453
  0
LINE
  8
0
 10
877.629
 20
-40.4453
 11
877.187
 21
-41.0536
  0
LINE
  8
0
 10
877.187
 20
-41.0536
 11
876.607
 21
-41.533
  0
LINE
  8
0
 10
876.607
 20
-41.533
 11
875.927
 21
-41.8532
  0
LINE
  8
0
 10
875.927
 20
-41.8532
 11
875.188
 21
-41.9941
  0
LINE
  8
0
 10
875.188
 20
-41.9941
 11
874.438
 21
-41.9469
  0
LINE
  8
0
 10
766.438
 20
-41.9469
 11
765.723
 21
-41.7145
  0
LINE
  8
0
 10
765.723
 20
-41.7145
 11
765.088
 21
-41.3115
  0
LINE
  8
0
 10
765.088
 20
-41.3115
 11
764.573
 21
-40.7634
  0
LINE
  8
0
 10
764.573
 20
-40.7634
 11
764.211
 21
-40.1044
  0
LINE
  8
0
 10
764.211
 20
-40.1044
 11
764.024
 21
-39.376
  0
LINE
  8
0
 10
764.024
 20
-39.376
 11
764.024
 21
-38.624
  0
LINE
  8
0
 10
764.024
 20
-38.624
 11
764.211
 21
-37.8956
  0
LINE
  8
0
 10
764.211
 20
-37.8956
 11
764.573
 21
-37.2366
  0
LINE
  8
0
 10
764.573
 20
-37.2366
 11
765.088
 21
-36.6885
  0
LINE
  8
0
 10
765.088
 20
-36.6885
 11
765.723
 21
-36.2855
  0
LINE
  8
0
 10
765.723
 20
-36.2855
 11
766.438
 21
-36.0531
  0
LINE
  8
0
 10
766.438
 20
-36.0531
 11
767.188
 21
-36.0059
  0
LINE
  8
0
 10
767.188
 20
-36.0059
 11
767.927
 21
-36.1468
  0
LINE
  8
0
 10
767.927
 20
-36.1468
 11
768.607
 21
-36.467
  0
LINE
  8
0
 10
768.607
 20
-36.467
 11
769.187
 21
-36.9464
  0
LINE
  8
0
 10
769.187
 20
-36.9464
 11
769.629
 21
-37.5547
  0
LINE
  8
0
 10
769.629
 20
-37.5547
 11
769.906
 21
-38.2539
  0
LINE
  8
0
 10
769.906
 20
-38.2539
 11
770
 21
-39
  0
LINE
  8
0
 10
770
 20
-39
 11
769.906
 21
-39.7461
  0
LINE
  8
0
 10
769.906
 20
-39.7461
 11
769.629
 21
-40.4453
  0
LINE
  8
0
 10
769.629
 20
-40.4453
 11
769.187
 21
-41.0536
  0
LINE
  8
0
 10
769.187
 20
-41.0536
 11
768.607
 21
-41.533
  0
LINE
  8
0
 10
768.607
 20
-41.533
 11
767.927
 21
-41.8532
  0
LINE
  8
0
 10
767.927
 20
-41.8532
 11
767.188
 21
-41.9941
  0
LINE
  8
0
 10
767.188
 20
-41.9941
 11
766.438
 21
-41.9469
  0
ENDSEC
  0
SECTION
  2
OBJECTS
  0
DICTIONARY
  0
ENDSEC
  0
EOF
