<?xml version="1.0" standalone="no"?>
<!DOCTYPE svg PUBLIC "-//W3C//DTD SVG 1.1//EN" "http://www.w3.org/Graphics/SVG/1.1/DTD/svg11.dtd">
<svg width="1228mm" height="90mm" viewBox="-101 -45 1228 90" xmlns="http://www.w3.org/2000/svg" version="1.1">
<title>OpenSCAD Model</title>
<path d="
M 1127,29.5 L 1039,29.5 L 1039,12.5 L 1014,12.5 L 1014,-12.5 L 1039,-12.5
 L 1039,-29.5 L 1127,-29.5 L 1127,-45 L 1007,-45 L 1007,45 L 1127,45
 z
M 1120.44,-36.0531 L 1119.72,-36.2855 L 1119.09,-36.6885 L 1118.57,-37.2366 L 1118.21,-37.8956 L 1118.02,-38.624
 L 1118.02,-39.376 L 1118.21,-40.1044 L 1118.57,-40.7634 L 1119.09,-41.3115 L 1119.72,-41.7145 L 1120.44,-41.9469
 L 1121.19,-41.9941 L 1121.93,-41.8532 L 1122.61,-41.533 L 1123.19,-41.0536 L 1123.63,-40.4453 L 1123.91,-39.7461
 L 1124,-39 L 1123.91,-38.2539 L 1123.63,-37.5547 L 1123.19,-36.9464 L 1122.61,-36.467 L 1121.93,-36.1468
 L 1121.19,-36.0059 z
M 1012.44,-36.0531 L 1011.72,-36.2855 L 1011.09,-36.6885 L 1010.57,-37.2366 L 1010.21,-37.8956 L 1010.02,-38.624
 L 1010.02,-39.376 L 1010.21,-40.1044 L 1010.57,-40.7634 L 1011.09,-41.3115 L 1011.72,-41.7145 L 1012.44,-41.9469
 L 1013.19,-41.9941 L 1013.93,-41.8532 L 1014.61,-41.533 L 1015.19,-41.0536 L 1015.63,-40.4453 L 1015.91,-39.7461
 L 1016,-39 L 1015.91,-38.2539 L 1015.63,-37.5547 L 1015.19,-36.9464 L 1014.61,-36.467 L 1013.93,-36.1468
 L 1013.19,-36.0059 z
M 1032.72,-25.5266 L 1032.36,-25.6427 L 1032.04,-25.8442 L 1031.79,-26.1183 L 1031.61,-26.4478 L 1031.51,-26.812
 L 1031.51,-27.188 L 1031.61,-27.5522 L 1031.79,-27.8817 L 1032.04,-28.1558 L 1032.36,-28.3572 L 1032.72,-28.4734
 L 1033.09,-28.497 L 1033.46,-28.4266 L 1033.8,-28.2665 L 1034.09,-28.0268 L 1034.31,-27.7226 L 1034.45,-27.373
 L 1034.5,-27 L 1034.45,-26.627 L 1034.31,-26.2774 L 1034.09,-25.9732 L 1033.8,-25.7335 L 1033.46,-25.5734
 L 1033.09,-25.503 z
M 1032.72,28.4734 L 1032.36,28.3572 L 1032.04,28.1558 L 1031.79,27.8817 L 1031.61,27.5522 L 1031.51,27.188
 L 1031.51,26.812 L 1031.61,26.4478 L 1031.79,26.1183 L 1032.04,25.8442 L 1032.36,25.6427 L 1032.72,25.5266
 L 1033.09,25.503 L 1033.46,25.5734 L 1033.8,25.7335 L 1034.09,25.9732 L 1034.31,26.2774 L 1034.45,26.627
 L 1034.5,27 L 1034.45,27.373 L 1034.31,27.7226 L 1034.09,28.0268 L 1033.8,28.2665 L 1033.46,28.4266
 L 1033.09,28.497 z
M 1120.44,41.9469 L 1119.72,41.7145 L 1119.09,41.3115 L 1118.57,40.7634 L 1118.21,40.1044 L 1118.02,39.376
 L 1118.02,38.624 L 1118.21,37.8956 L 1118.57,37.2366 L 1119.09,36.6885 L 1119.72,36.2855 L 1120.44,36.0531
 L 1121.19,36.0059 L 1121.93,36.1468 L 1122.61,36.467 L 1123.19,36.9464 L 1123.63,37.5547 L 1123.91,38.2539
 L 1124,39 L 1123.91,39.7461 L 1123.63,40.4453 L 1123.19,41.0536 L 1122.61,41.533 L 1121.93,41.8532
 L 1121.19,41.9941 z
M 1012.44,41.9469 L 1011.72,41.7145 L 1011.09,41.3115 L 1010.57,40.7634 L 1010.21,40.1044 L 1010.02,39.376
 L 1010.02,38.624 L 1010.21,37.8956 L 1010.57,37.2366 L 1011.09,36.6885 L 1011.72,36.2855 L 1012.44,36.0531
 L 1013.19,36.0059 L 1013.93,36.1468 L 1014.61,36.467 L 1015.19,36.9464 L 1015.63,37.5547 L 1015.91,38.2539
 L 1016,39 L 1015.91,39.7461 L 1015.63,40.4453 L 1015.19,41.0536 L 1014.61,41.533 L 1013.93,41.8532
 L 1013.19,41.9941 z
M 758,-45 L 638,-45 L 638,-22.5 L 656,-22.5 L 656,-12.5 L 670,-12.5
 L 670,12.5 L 656,12.5 L 656,22.5 L 638,22.5 L 638,45 L 758,45
 z
M 751.438,-36.0531 L 750.723,-36.2855 L 750.088,-36.6885 L 749.573,-37.2366 L 749.211,-37.8956 L 749.024,-38.624
 L 749.024,-39.376 L 749.211,-40.1044 L 749.573,-40.7634 L 750.088,-41.3115 L 750.723,-41.7145 L 751.438,-41.9469
 L 752.188,-41.9941 L 752.927,-41.8532 L 753.607,-41.533 L 754.187,-41.0536 L 754.629,-40.4453 L 754.906,-39.7461
 L 755,-39 L 754.906,-38.2539 L 754.629,-37.5547 L 754.187,-36.9464 L 753.607,-36.467 L 752.927,-36.1468
 L 752.188,-36.0059 z
M 643.438,-36.0531 L 642.723,-36.2855 L 642.088,-36.6885 L 641.573,-37.2366 L 641.211,-37.8956 L 641.024,-38.624
 L 641.024,-39.376 L 641.211,-40.1044 L 641.573,-40.7634 L 642.088,-41.3115 L 642.723,-41.7145 L 643.438,-41.9469
 L 644.188,-41.9941 L 644.927,-41.8532 L 645.607,-41.533 L 646.187,-41.0536 L 646.629,-40.4453 L 646.906,-39.7461
 L 647,-39 L 646.906,-38.2539 L 646.629,-37.5547 L 646.187,-36.9464 L 645.607,-36.467 L 644.927,-36.1468
 L 644.188,-36.0059 z
M 713.719,-25.5266 L 713.361,-25.6427 L 713.044,-25.8442 L 712.786,-26.1183 L 712.605,-26.4478 L 712.512,-26.812
 L 712.512,-27.188 L 712.605,-27.5522 L 712.786,-27.8817 L 713.044,-28.1558 L 713.361,-28.3572 L 713.719,-28.4734
 L 714.094,-28.497 L 714.464,-28.4266 L 714.804,-28.2665 L 715.093,-28.0268 L 715.314,-27.7226 L 715.453,-27.373
 L 715.5,-27 L 715.453,-26.627 L 715.314,-26.2774 L 715.093,-25.9732 L 714.804,-25.7335 L 714.464,-25.5734
 L 714.094,-25.503 z
M 663.719,-25.5266 L 663.361,-25.6427 L 663.044,-25.8442 L 662.786,-26.1183 L 662.605,-26.4478 L 662.512,-26.812
 L 662.512,-27.188 L 662.605,-27.5522 L 662.786,-27.8817 L 663.044,-28.1558 L 663.361,-28.3572 L 663.719,-28.4734
 L 664.094,-28.497 L 664.464,-28.4266 L 664.804,-28.2665 L 665.093,-28.0268 L 665.314,-27.7226 L 665.453,-27.373
 L 665.5,-27 L 665.453,-26.627 L 665.314,-26.2774 L 665.093,-25.9732 L 664.804,-25.7335 L 664.464,-25.5734
 L 664.094,-25.503 z
M 698.719,1.47342 L 698.361,1.35724 L 698.044,1.15576 L 697.786,0.881668 L 697.605,0.552185 L 697.512,0.187988
 L 697.512,-0.187988 L 697.605,-0.552185 L 697.786,-0.881668 L 698.044,-1.15576 L 698.361,-1.35724 L 698.719,-1.47342
 L 699.094,-1.49704 L 699.464,-1.42657 L 699.804,-1.26648 L 700.093,-1.02681 L 700.314,-0.722626 L 700.453,-0.373032
 L 700.5,-0 L 700.453,0.373032 L 700.314,0.722626 L 700.093,1.02681 L 699.804,1.26648 L 699.464,1.42657
 L 699.094,1.49704 z
M 722.719,1.47342 L 722.361,1.35724 L 722.044,1.15576 L 721.786,0.881668 L 721.605,0.552185 L 721.512,0.187988
 L 721.512,-0.187988 L 721.605,-0.552185 L 721.786,-0.881668 L 722.044,-1.15576 L 722.361,-1.35724 L 722.719,-1.47342
 L 723.094,-1.49704 L 723.464,-1.42657 L 723.804,-1.26648 L 724.093,-1.02681 L 724.314,-0.722626 L 724.453,-0.373032
 L 724.5,-0 L 724.453,0.373032 L 724.314,0.722626 L 724.093,1.02681 L 723.804,1.26648 L 723.464,1.42657
 L 723.094,1.49704 z
M 728.719,1.47342 L 728.361,1.35724 L 728.044,1.15576 L 727.786,0.881668 L 727.605,0.552185 L 727.512,0.187988
 L 727.512,-0.187988 L 727.605,-0.552185 L 727.786,-0.881668 L 728.044,-1.15576 L 728.361,-1.35724 L 728.719,-1.47342
 L 729.094,-1.49704 L 729.464,-1.42657 L 729.804,-1.26648 L 730.093,-1.02681 L 730.314,-0.722626 L 730.453,-0.373032
 L 730.5,-0 L 730.453,0.373032 L 730.314,0.722626 L 730.093,1.02681 L 729.804,1.26648 L 729.464,1.42657
 L 729.094,1.49704 z
M 713.719,28.4734 L 713.361,28.3572 L 713.044,28.1558 L 712.786,27.8817 L 712.605,27.5522 L 712.512,27.188
 L 712.512,26.812 L 712.605,26.4478 L 712.786,26.1183 L 713.044,25.8442 L 713.361,25.6427 L 713.719,25.5266
 L 714.094,25.503 L 714.464,25.5734 L 714.804,25.7335 L 715.093,25.9732 L 715.314,26.2774 L 715.453,26.627
 L 715.5,27 L 715.453,27.373 L 715.314,27.7226 L 715.093,28.0268 L 714.804,28.2665 L 714.464,28.4266
 L 714.094,28.497 z
M 663.719,28.4734 L 663.361,28.3572 L 663.044,28.1558 L 662.786,27.8817 L 662.605,27.5522 L 662.512,27.188
 L 662.512,26.812 L 662.605,26.4478 L 662.786,26.1183 L 663.044,25.8442 L 663.361,25.6427 L 663.719,25.5266
 L 664.094,25.503 L 664.464,25.5734 L 664.804,25.7335 L 665.093,25.9732 L 665.314,26.2774 L 665.453,26.627
 L 665.5,27 L 665.453,27.373 L 665.314,27.7226 L 665.093,28.0268 L 664.804,28.2665 L 664.464,28.4266
 L 664.094,28.497 z
M 751.438,41.9469 L 750.723,41.7145 L 750.088,41.3115 L 749.573,40.7634 L 749.211,40.1044 L 749.024,39.376
 L 749.024,38.624 L 749.211,37.8956 L 749.573,37.2366 L 750.088,36.6885 L 750.723,36.2855 L 751.438,36.0531
 L 752.188,36.0059 L 752.927,36.1468 L 753.607,36.467 L 754.187,36.9464 L 754.629,37.5547 L 754.906,38.2539
 L 755,39 L 754.906,39.7461 L 754.629,40.4453 L 754.187,41.0536 L 753.607,41.533 L 752.927,41.8532
 L 752.188,41.9941 z
M 643.438,41.9469 L 642.723,41.7145 L 642.088,41.3115 L 641.573,40.7634 L 641.211,40.1044 L 641.024,39.376
 L 641.024,38.624 L 641.211,37.8956 L 641.573,37.2366 L 642.088,36.6885 L 642.723,36.2855 L 643.438,36.0531
 L 644.188,36.0059 L 644.927,36.1468 L 645.607,36.467 L 646.187,36.9464 L 646.629,37.5547 L 646.906,38.2539
 L 647,39 L 646.906,39.7461 L 646.629,40.4453 L 646.187,41.0536 L 645.607,41.533 L 644.927,41.8532
 L 644.188,41.9941 z
M 635,-45 L 515,-45 L 515,-22.5 L 533,-22.5 L 533,-15.005 L 616.005,-15.005
 L 616.623,-14.9071 L 617.077,-14.6936 L 617.463,-14.3741 L 617.758,-13.9685 L 617.942,-13.5024 L 618.005,-13.005
 L 618.005,13.005 L 617.907,13.623 L 617.694,14.0766 L 617.374,14.4629 L 616.969,14.7576 L 616.502,14.9422
 L 616.005,15.005 L 601.995,15.005 L 601.377,14.9071 L 600.923,14.6936 L 600.537,14.3741 L 600.242,13.9685
 L 600.058,13.5024 L 599.995,13.005 L 599.995,5.99501 L 600.093,5.37698 L 600.306,4.92336 L 600.626,4.53708
 L 601.031,4.2424 L 601.498,4.05785 L 601.995,3.99501 L 608.995,3.99501 L 608.995,-3.99501 L 547,-3.99501
 L 547,3.99501 L 569.005,3.99501 L 569.623,4.0929 L 570.077,4.30635 L 570.463,4.62592 L 570.758,5.03151
 L 570.942,5.49763 L 571.005,5.99501 L 571.005,13.005 L 570.907,13.623 L 570.694,14.0766 L 570.374,14.4629
 L 569.969,14.7576 L 569.502,14.9422 L 569.005,15.005 L 533,15.005 L 533,22.5 L 515,22.5
 L 515,45 L 635,45 z
M 628.438,-36.0531 L 627.723,-36.2855 L 627.088,-36.6885 L 626.573,-37.2366 L 626.211,-37.8956 L 626.024,-38.624
 L 626.024,-39.376 L 626.211,-40.1044 L 626.573,-40.7634 L 627.088,-41.3115 L 627.723,-41.7145 L 628.438,-41.9469
 L 629.188,-41.9941 L 629.927,-41.8532 L 630.607,-41.533 L 631.187,-41.0536 L 631.629,-40.4453 L 631.906,-39.7461
 L 632,-39 L 631.906,-38.2539 L 631.629,-37.5547 L 631.187,-36.9464 L 630.607,-36.467 L 629.927,-36.1468
 L 629.188,-36.0059 z
M 520.438,-36.0531 L 519.723,-36.2855 L 519.088,-36.6885 L 518.573,-37.2366 L 518.211,-37.8956 L 518.024,-38.624
 L 518.024,-39.376 L 518.211,-40.1044 L 518.573,-40.7634 L 519.088,-41.3115 L 519.723,-41.7145 L 520.438,-41.9469
 L 521.188,-41.9941 L 521.927,-41.8532 L 522.607,-41.533 L 523.187,-41.0536 L 523.629,-40.4453 L 523.906,-39.7461
 L 524,-39 L 523.906,-38.2539 L 523.629,-37.5547 L 523.187,-36.9464 L 522.607,-36.467 L 521.927,-36.1468
 L 521.188,-36.0059 z
M 539.412,-24.2499 L 537.825,-27 L 539.412,-29.7501 L 542.588,-29.7501 L 544.175,-27 L 542.588,-24.2499
 z
M 589.412,-24.2499 L 587.825,-27 L 589.412,-29.7501 L 592.588,-29.7501 L 594.175,-27 L 592.588,-24.2499
 z
M 598.412,2.75006 L 596.825,-0 L 598.412,-2.75006 L 601.588,-2.75006 L 603.175,-0 L 601.588,2.75006
 z
M 605.719,1.47342 L 605.361,1.35724 L 605.044,1.15576 L 604.786,0.881668 L 604.605,0.552185 L 604.512,0.187988
 L 604.512,-0.187988 L 604.605,-0.552185 L 604.786,-0.881668 L 605.044,-1.15576 L 605.361,-1.35724 L 605.719,-1.47342
 L 606.094,-1.49704 L 606.464,-1.42657 L 606.804,-1.26648 L 607.093,-1.02681 L 607.314,-0.722626 L 607.453,-0.373032
 L 607.5,-0 L 607.453,0.373032 L 607.314,0.722626 L 607.093,1.02681 L 606.804,1.26648 L 606.464,1.42657
 L 606.094,1.49704 z
M 575.719,1.47342 L 575.361,1.35724 L 575.044,1.15576 L 574.786,0.881668 L 574.605,0.552185 L 574.512,0.187988
 L 574.512,-0.187988 L 574.605,-0.552185 L 574.786,-0.881668 L 575.044,-1.15576 L 575.361,-1.35724 L 575.719,-1.47342
 L 576.094,-1.49704 L 576.464,-1.42657 L 576.804,-1.26648 L 577.093,-1.02681 L 577.314,-0.722626 L 577.453,-0.373032
 L 577.5,-0 L 577.453,0.373032 L 577.314,0.722626 L 577.093,1.02681 L 576.804,1.26648 L 576.464,1.42657
 L 576.094,1.49704 z
M 589.412,29.7501 L 587.825,27 L 589.412,24.2499 L 592.588,24.2499 L 594.175,27 L 592.588,29.7501
 z
M 539.412,29.7501 L 537.825,27 L 539.412,24.2499 L 542.588,24.2499 L 544.175,27 L 542.588,29.7501
 z
M 628.438,41.9469 L 627.723,41.7145 L 627.088,41.3115 L 626.573,40.7634 L 626.211,40.1044 L 626.024,39.376
 L 626.024,38.624 L 626.211,37.8956 L 626.573,37.2366 L 627.088,36.6885 L 627.723,36.2855 L 628.438,36.0531
 L 629.188,36.0059 L 629.927,36.1468 L 630.607,36.467 L 631.187,36.9464 L 631.629,37.5547 L 631.906,38.2539
 L 632,39 L 631.906,39.7461 L 631.629,40.4453 L 631.187,41.0536 L 630.607,41.533 L 629.927,41.8532
 L 629.188,41.9941 z
M 520.438,41.9469 L 519.723,41.7145 L 519.088,41.3115 L 518.573,40.7634 L 518.211,40.1044 L 518.024,39.376
 L 518.024,38.624 L 518.211,37.8956 L 518.573,37.2366 L 519.088,36.6885 L 519.723,36.2855 L 520.438,36.0531
 L 521.188,36.0059 L 521.927,36.1468 L 522.607,36.467 L 523.187,36.9464 L 523.629,37.5547 L 523.906,38.2539
 L 524,39 L 523.906,39.7461 L 523.629,40.4453 L 523.187,41.0536 L 522.607,41.533 L 521.927,41.8532
 L 521.188,41.9941 z
M 512,-45 L 392,-45 L 392,-29 L 442,-29 L 442,-27 L 419.5,-27
 L 419.453,-26.627 L 419.314,-26.2774 L 419.093,-25.9732 L 418.804,-25.7335 L 418.464,-25.5734 L 418.094,-25.503
 L 417.719,-25.5266 L 417.361,-25.6427 L 417.044,-25.8442 L 416.786,-26.1183 L 416.605,-26.4478 L 416.512,-26.812
 L 416.512,-27 L 392,-27 L 392,-22.5 L 410,-22.5 L 410,-15.005 L 493.005,-15.005
 L 493.623,-14.9071 L 494.077,-14.6936 L 494.463,-14.3741 L 494.758,-13.9685 L 494.942,-13.5024 L 495.005,-13.005
 L 495.005,13.005 L 494.907,13.623 L 494.694,14.0766 L 494.374,14.4629 L 493.969,14.7576 L 493.502,14.9422
 L 493.005,15.005 L 478.995,15.005 L 478.377,14.9071 L 477.923,14.6936 L 477.537,14.3741 L 477.242,13.9685
 L 477.058,13.5024 L 476.995,13.005 L 476.995,5.99501 L 477.093,5.37698 L 477.306,4.92336 L 477.626,4.53708
 L 478.031,4.2424 L 478.498,4.05785 L 478.995,3.99501 L 485.995,3.99501 L 485.995,-3.99501 L 474.505,-3.99501
 L 474.505,5.50499 L 474.407,6.12302 L 474.194,6.57664 L 473.874,6.96292 L 473.469,7.2576 L 473.002,7.44215
 L 472.505,7.50499 L 471.495,7.50499 L 470.877,7.4071 L 470.423,7.19365 L 470.037,6.87408 L 469.742,6.46849
 L 469.558,6.00237 L 469.495,5.50499 L 469.495,-3.99501 L 459.505,-3.99501 L 459.505,8.00499 L 459.407,8.62302
 L 459.194,9.07664 L 458.874,9.46292 L 458.469,9.7576 L 458.002,9.94215 L 457.505,10.005 L 456.495,10.005
 L 455.877,9.9071 L 455.423,9.69365 L 455.037,9.37408 L 454.742,8.96849 L 454.558,8.50237 L 454.495,8.00499
 L 454.495,2.30412 L 454.474,2.3219 L 453.85,2.6154 L 453.173,2.74457 L 452.485,2.70128 L 451.829,2.48827
 L 451.247,2.1189 L 450.775,1.61641 L 450.443,1.01233 L 450.272,0.344666 L 450.272,-0.344666 L 450.443,-1.01233
 L 450.775,-1.61641 L 451.247,-2.1189 L 451.829,-2.48827 L 452.485,-2.70128 L 453.173,-2.74457 L 453.85,-2.6154
 L 454.474,-2.3219 L 454.495,-2.30412 L 454.495,-3.99501 L 424,-3.99501 L 424,3.99501 L 446.005,3.99501
 L 446.623,4.0929 L 447.077,4.30635 L 447.463,4.62592 L 447.758,5.03151 L 447.942,5.49763 L 448.005,5.99501
 L 448.005,13.005 L 447.907,13.623 L 447.694,14.0766 L 447.374,14.4629 L 446.969,14.7576 L 446.502,14.9422
 L 446.005,15.005 L 410,15.005 L 410,22.5 L 392,22.5 L 392,27 L 416.512,27
 L 416.512,26.812 L 416.605,26.4478 L 416.786,26.1183 L 417.044,25.8442 L 417.361,25.6427 L 417.719,25.5266
 L 418.094,25.503 L 418.464,25.5734 L 418.804,25.7335 L 419.093,25.9732 L 419.314,26.2774 L 419.453,26.627
 L 419.5,27 L 442,27 L 442,29 L 392,29 L 392,45 L 512,45
 z
M 505.438,-36.0531 L 504.723,-36.2855 L 504.088,-36.6885 L 503.573,-37.2366 L 503.211,-37.8956 L 503.024,-38.624
 L 503.024,-39.376 L 503.211,-40.1044 L 503.573,-40.7634 L 504.088,-41.3115 L 504.723,-41.7145 L 505.438,-41.9469
 L 506.188,-41.9941 L 506.927,-41.8532 L 507.607,-41.533 L 508.187,-41.0536 L 508.629,-40.4453 L 508.906,-39.7461
 L 509,-39 L 508.906,-38.2539 L 508.629,-37.5547 L 508.187,-36.9464 L 507.607,-36.467 L 506.927,-36.1468
 L 506.188,-36.0059 z
M 397.438,-36.0531 L 396.723,-36.2855 L 396.088,-36.6885 L 395.573,-37.2366 L 395.211,-37.8956 L 395.024,-38.624
 L 395.024,-39.376 L 395.211,-40.1044 L 395.573,-40.7634 L 396.088,-41.3115 L 396.723,-41.7145 L 397.438,-41.9469
 L 398.188,-41.9941 L 398.927,-41.8532 L 399.607,-41.533 L 400.187,-41.0536 L 400.629,-40.4453 L 400.906,-39.7461
 L 401,-39 L 400.906,-38.2539 L 400.629,-37.5547 L 400.187,-36.9464 L 399.607,-36.467 L 398.927,-36.1468
 L 398.188,-36.0059 z
M 467.719,-25.5266 L 467.361,-25.6427 L 467.044,-25.8442 L 466.786,-26.1183 L 466.605,-26.4478 L 466.512,-26.812
 L 466.512,-27.188 L 466.605,-27.5522 L 466.786,-27.8817 L 467.044,-28.1558 L 467.361,-28.3572 L 467.719,-28.4734
 L 468.094,-28.497 L 468.464,-28.4266 L 468.804,-28.2665 L 469.093,-28.0268 L 469.314,-27.7226 L 469.453,-27.373
 L 469.5,-27 L 469.453,-26.627 L 469.314,-26.2774 L 469.093,-25.9732 L 468.804,-25.7335 L 468.464,-25.5734
 L 468.094,-25.503 z
M 482.485,2.70128 L 481.829,2.48827 L 481.247,2.1189 L 480.775,1.61641 L 480.443,1.01233 L 480.272,0.344666
 L 480.272,-0.344666 L 480.443,-1.01233 L 480.775,-1.61641 L 481.247,-2.1189 L 481.829,-2.48827 L 482.485,-2.70128
 L 483.173,-2.74457 L 483.85,-2.6154 L 484.474,-2.3219 L 485.005,-1.88249 L 485.41,-1.32481 L 485.664,-0.683884
 L 485.75,-0 L 485.664,0.683884 L 485.41,1.32481 L 485.005,1.88249 L 484.474,2.3219 L 483.85,2.6154
 L 483.173,2.74457 z
M 476.719,1.47342 L 476.361,1.35724 L 476.044,1.15576 L 475.786,0.881668 L 475.605,0.552185 L 475.512,0.187988
 L 475.512,-0.187988 L 475.605,-0.552185 L 475.786,-0.881668 L 476.044,-1.15576 L 476.361,-1.35724 L 476.719,-1.47342
 L 477.094,-1.49704 L 477.464,-1.42657 L 477.804,-1.26648 L 478.093,-1.02681 L 478.314,-0.722626 L 478.453,-0.373032
 L 478.5,-0 L 478.453,0.373032 L 478.314,0.722626 L 478.093,1.02681 L 477.804,1.26648 L 477.464,1.42657
 L 477.094,1.49704 z
M 467.719,28.4734 L 467.361,28.3572 L 467.044,28.1558 L 466.786,27.8817 L 466.605,27.5522 L 466.512,27.188
 L 466.512,26.812 L 466.605,26.4478 L 466.786,26.1183 L 467.044,25.8442 L 467.361,25.6427 L 467.719,25.5266
 L 468.094,25.503 L 468.464,25.5734 L 468.804,25.7335 L 469.093,25.9732 L 469.314,26.2774 L 469.453,26.627
 L 469.5,27 L 469.453,27.373 L 469.314,27.7226 L 469.093,28.0268 L 468.804,28.2665 L 468.464,28.4266
 L 468.094,28.497 z
M 505.438,41.9469 L 504.723,41.7145 L 504.088,41.3115 L 503.573,40.7634 L 503.211,40.1044 L 503.024,39.376
 L 503.024,38.624 L 503.211,37.8956 L 503.573,37.2366 L 504.088,36.6885 L 504.723,36.2855 L 505.438,36.0531
 L 506.188,36.0059 L 506.927,36.1468 L 507.607,36.467 L 508.187,36.9464 L 508.629,37.5547 L 508.906,38.2539
 L 509,39 L 508.906,39.7461 L 508.629,40.4453 L 508.187,41.0536 L 507.607,41.533 L 506.927,41.8532
 L 506.188,41.9941 z
M 397.438,41.9469 L 396.723,41.7145 L 396.088,41.3115 L 395.573,40.7634 L 395.211,40.1044 L 395.024,39.376
 L 395.024,38.624 L 395.211,37.8956 L 395.573,37.2366 L 396.088,36.6885 L 396.723,36.2855 L 397.438,36.0531
 L 398.188,36.0059 L 398.927,36.1468 L 399.607,36.467 L 400.187,36.9464 L 400.629,37.5547 L 400.906,38.2539
 L 401,39 L 400.906,39.7461 L 400.629,40.4453 L 400.187,41.0536 L 399.607,41.533 L 398.927,41.8532
 L 398.188,41.9941 z
M 389,-45 L 269,-45 L 269,-34 L 380,-34 L 380,34 L 269,34
 L 269,45 L 389,45 z
M 382.438,-36.0531 L 381.723,-36.2855 L 381.088,-36.6885 L 380.573,-37.2366 L 380.211,-37.8956 L 380.024,-38.624
 L 380.024,-39.376 L 380.211,-40.1044 L 380.573,-40.7634 L 381.088,-41.3115 L 381.723,-41.7145 L 382.438,-41.9469
 L 383.188,-41.9941 L 383.927,-41.8532 L 384.607,-41.533 L 385.187,-41.0536 L 385.629,-40.4453 L 385.906,-39.7461
 L 386,-39 L 385.906,-38.2539 L 385.629,-37.5547 L 385.187,-36.9464 L 384.607,-36.467 L 383.927,-36.1468
 L 383.188,-36.0059 z
M 274.438,-36.0531 L 273.723,-36.2855 L 273.088,-36.6885 L 272.573,-37.2366 L 272.211,-37.8956 L 272.024,-38.624
 L 272.024,-39.376 L 272.211,-40.1044 L 272.573,-40.7634 L 273.088,-41.3115 L 273.723,-41.7145 L 274.438,-41.9469
 L 275.188,-41.9941 L 275.927,-41.8532 L 276.607,-41.533 L 277.187,-41.0536 L 277.629,-40.4453 L 277.906,-39.7461
 L 278,-39 L 277.906,-38.2539 L 277.629,-37.5547 L 277.187,-36.9464 L 276.607,-36.467 L 275.927,-36.1468
 L 275.188,-36.0059 z
M 382.438,41.9469 L 381.723,41.7145 L 381.088,41.3115 L 380.573,40.7634 L 380.211,40.1044 L 380.024,39.376
 L 380.024,38.624 L 380.211,37.8956 L 380.573,37.2366 L 381.088,36.6885 L 381.723,36.2855 L 382.438,36.0531
 L 383.188,36.0059 L 383.927,36.1468 L 384.607,36.467 L 385.187,36.9464 L 385.629,37.5547 L 385.906,38.2539
 L 386,39 L 385.906,39.7461 L 385.629,40.4453 L 385.187,41.0536 L 384.607,41.533 L 383.927,41.8532
 L 383.188,41.9941 z
M 274.438,41.9469 L 273.723,41.7145 L 273.088,41.3115 L 272.573,40.7634 L 272.211,40.1044 L 272.024,39.376
 L 272.024,38.624 L 272.211,37.8956 L 272.573,37.2366 L 273.088,36.6885 L 273.723,36.2855 L 274.438,36.0531
 L 275.188,36.0059 L 275.927,36.1468 L 276.607,36.467 L 277.187,36.9464 L 277.629,37.5547 L 277.906,38.2539
 L 278,39 L 277.906,39.7461 L 277.629,40.4453 L 277.187,41.0536 L 276.607,41.533 L 275.927,41.8532
 L 275.188,41.9941 z
M 266,-45 L 146,-45 L 146,-21.5 L 231.5,-21.5 L 231.5,-21.3726 L 232.85,-21.4576
 L 238.144,-20.4477 L 243.02,-18.153 L 247.173,-14.7178 L 250.341,-10.3577 L 252.325,-5.34683 L 253,-0
 L 252.325,5.34683 L 250.341,10.3577 L 247.173,14.7178 L 243.02,18.153 L 238.144,20.4477 L 232.85,21.4576
 L 231.5,21.3726 L 231.5,21.5 L 146,21.5 L 146,45 L 266,45 z
M 259.438,-36.0531 L 258.723,-36.2855 L 258.088,-36.6885 L 257.573,-37.2366 L 257.211,-37.8956 L 257.024,-38.624
 L 257.024,-39.376 L 257.211,-40.1044 L 257.573,-40.7634 L 258.088,-41.3115 L 258.723,-41.7145 L 259.438,-41.9469
 L 260.188,-41.9941 L 260.927,-41.8532 L 261.607,-41.533 L 262.187,-41.0536 L 262.629,-40.4453 L 262.906,-39.7461
 L 263,-39 L 262.906,-38.2539 L 262.629,-37.5547 L 262.187,-36.9464 L 261.607,-36.467 L 260.927,-36.1468
 L 260.188,-36.0059 z
M 151.438,-36.0531 L 150.723,-36.2855 L 150.088,-36.6885 L 149.573,-37.2366 L 149.211,-37.8956 L 149.024,-38.624
 L 149.024,-39.376 L 149.211,-40.1044 L 149.573,-40.7634 L 150.088,-41.3115 L 150.723,-41.7145 L 151.438,-41.9469
 L 152.188,-41.9941 L 152.927,-41.8532 L 153.607,-41.533 L 154.187,-41.0536 L 154.629,-40.4453 L 154.906,-39.7461
 L 155,-39 L 154.906,-38.2539 L 154.629,-37.5547 L 154.187,-36.9464 L 153.607,-36.467 L 152.927,-36.1468
 L 152.188,-36.0059 z
M 221.719,-25.5266 L 221.361,-25.6427 L 221.044,-25.8442 L 220.786,-26.1183 L 220.605,-26.4478 L 220.512,-26.812
 L 220.512,-27.188 L 220.605,-27.5522 L 220.786,-27.8817 L 221.044,-28.1558 L 221.361,-28.3572 L 221.719,-28.4734
 L 222.094,-28.497 L 222.464,-28.4266 L 222.804,-28.2665 L 223.093,-28.0268 L 223.314,-27.7226 L 223.453,-27.373
 L 223.5,-27 L 223.453,-26.627 L 223.314,-26.2774 L 223.093,-25.9732 L 222.804,-25.7335 L 222.464,-25.5734
 L 222.094,-25.503 z
M 171.719,-25.5266 L 171.361,-25.6427 L 171.044,-25.8442 L 170.786,-26.1183 L 170.605,-26.4478 L 170.512,-26.812
 L 170.512,-27.188 L 170.605,-27.5522 L 170.786,-27.8817 L 171.044,-28.1558 L 171.361,-28.3572 L 171.719,-28.4734
 L 172.094,-28.497 L 172.464,-28.4266 L 172.804,-28.2665 L 173.093,-28.0268 L 173.314,-27.7226 L 173.453,-27.373
 L 173.5,-27 L 173.453,-26.627 L 173.314,-26.2774 L 173.093,-25.9732 L 172.804,-25.7335 L 172.464,-25.5734
 L 172.094,-25.503 z
M 221.719,28.4734 L 221.361,28.3572 L 221.044,28.1558 L 220.786,27.8817 L 220.605,27.5522 L 220.512,27.188
 L 220.512,26.812 L 220.605,26.4478 L 220.786,26.1183 L 221.044,25.8442 L 221.361,25.6427 L 221.719,25.5266
 L 222.094,25.503 L 222.464,25.5734 L 222.804,25.7335 L 223.093,25.9732 L 223.314,26.2774 L 223.453,26.627
 L 223.5,27 L 223.453,27.373 L 223.314,27.7226 L 223.093,28.0268 L 222.804,28.2665 L 222.464,28.4266
 L 222.094,28.497 z
M 171.719,28.4734 L 171.361,28.3572 L 171.044,28.1558 L 170.786,27.8817 L 170.605,27.5522 L 170.512,27.188
 L 170.512,26.812 L 170.605,26.4478 L 170.786,26.1183 L 171.044,25.8442 L 171.361,25.6427 L 171.719,25.5266
 L 172.094,25.503 L 172.464,25.5734 L 172.804,25.7335 L 173.093,25.9732 L 173.314,26.2774 L 173.453,26.627
 L 173.5,27 L 173.453,27.373 L 173.314,27.7226 L 173.093,28.0268 L 172.804,28.2665 L 172.464,28.4266
 L 172.094,28.497 z
M 259.438,41.9469 L 258.723,41.7145 L 258.088,41.3115 L 257.573,40.7634 L 257.211,40.1044 L 257.024,39.376
 L 257.024,38.624 L 257.211,37.8956 L 257.573,37.2366 L 258.088,36.6885 L 258.723,36.2855 L 259.438,36.0531
 L 260.188,36.0059 L 260.927,36.1468 L 261.607,36.467 L 262.187,36.9464 L 262.629,37.5547 L 262.906,38.2539
 L 263,39 L 262.906,39.7461 L 262.629,40.4453 L 262.187,41.0536 L 261.607,41.533 L 260.927,41.8532
 L 260.188,41.9941 z
M 151.438,41.9469 L 150.723,41.7145 L 150.088,41.3115 L 149.573,40.7634 L 149.211,40.1044 L 149.024,39.376
 L 149.024,38.624 L 149.211,37.8956 L 149.573,37.2366 L 150.088,36.6885 L 150.723,36.2855 L 151.438,36.0531
 L 152.188,36.0059 L 152.927,36.1468 L 153.607,36.467 L 154.187,36.9464 L 154.629,37.5547 L 154.906,38.2539
 L 155,39 L 154.906,39.7461 L 154.629,40.4453 L 154.187,41.0536 L 153.607,41.533 L 152.927,41.8532
 L 152.188,41.9941 z
M 143,-45 L 23,-45 L 23,-21.5 L 108.5,-21.5 L 108.5,-21.3726 L 109.85,-21.4576
 L 115.144,-20.4477 L 120.02,-18.153 L 124.173,-14.7178 L 127.341,-10.3577 L 129.325,-5.34683 L 130,-0
 L 129.325,5.34683 L 127.341,10.3577 L 124.173,14.7178 L 120.02,18.153 L 115.144,20.4477 L 109.85,21.4576
 L 108.5,21.3726 L 108.5,21.5 L 23,21.5 L 23,45 L 143,45 z
M 136.438,-36.0531 L 135.723,-36.2855 L 135.088,-36.6885 L 134.573,-37.2366 L 134.211,-37.8956 L 134.024,-38.624
 L 134.024,-39.376 L 134.211,-40.1044 L 134.573,-40.7634 L 135.088,-41.3115 L 135.723,-41.7145 L 136.438,-41.9469
 L 137.188,-41.9941 L 137.927,-41.8532 L 138.607,-41.533 L 139.187,-41.0536 L 139.629,-40.4453 L 139.906,-39.7461
 L 140,-39 L 139.906,-38.2539 L 139.629,-37.5547 L 139.187,-36.9464 L 138.607,-36.467 L 137.927,-36.1468
 L 137.188,-36.0059 z
M 28.4379,-36.0531 L 27.7227,-36.2855 L 27.0877,-36.6885 L 26.5729,-37.2366 L 26.2107,-37.8956 L 26.0237,-38.624
 L 26.0237,-39.376 L 26.2107,-40.1044 L 26.5729,-40.7634 L 27.0877,-41.3115 L 27.7227,-41.7145 L 28.4379,-41.9469
 L 29.1884,-41.9941 L 29.927,-41.8532 L 30.6075,-41.533 L 31.1869,-41.0536 L 31.6289,-40.4453 L 31.9057,-39.7461
 L 32,-39 L 31.9057,-38.2539 L 31.6289,-37.5547 L 31.1869,-36.9464 L 30.6075,-36.467 L 29.927,-36.1468
 L 29.1884,-36.0059 z
M 98.7189,-25.5266 L 98.3613,-25.6427 L 98.0439,-25.8442 L 97.7865,-26.1183 L 97.6053,-26.4478 L 97.5118,-26.812
 L 97.5118,-27.188 L 97.6053,-27.5522 L 97.7865,-27.8817 L 98.0439,-28.1558 L 98.3613,-28.3572 L 98.7189,-28.4734
 L 99.0942,-28.497 L 99.4635,-28.4266 L 99.8037,-28.2665 L 100.093,-28.0268 L 100.314,-27.7226 L 100.453,-27.373
 L 100.5,-27 L 100.453,-26.627 L 100.314,-26.2774 L 100.093,-25.9732 L 99.8037,-25.7335 L 99.4635,-25.5734
 L 99.0942,-25.503 z
M 48.7189,-25.5266 L 48.3613,-25.6427 L 48.0439,-25.8442 L 47.7865,-26.1183 L 47.6053,-26.4478 L 47.5118,-26.812
 L 47.5118,-27.188 L 47.6053,-27.5522 L 47.7865,-27.8817 L 48.0439,-28.1558 L 48.3613,-28.3572 L 48.7189,-28.4734
 L 49.0942,-28.497 L 49.4635,-28.4266 L 49.8037,-28.2665 L 50.0934,-28.0268 L 50.3145,-27.7226 L 50.4529,-27.373
 L 50.5,-27 L 50.4529,-26.627 L 50.3145,-26.2774 L 50.0934,-25.9732 L 49.8037,-25.7335 L 49.4635,-25.5734
 L 49.0942,-25.503 z
M 48.7189,28.4734 L 48.3613,28.3572 L 48.0439,28.1558 L 47.7865,27.8817 L 47.6053,27.5522 L 47.5118,27.188
 L 47.5118,26.812 L 47.6053,26.4478 L 47.7865,26.1183 L 48.0439,25.8442 L 48.3613,25.6427 L 48.7189,25.5266
 L 49.0942,25.503 L 49.4635,25.5734 L 49.8037,25.7335 L 50.0934,25.9732 L 50.3145,26.2774 L 50.4529,26.627
 L 50.5,27 L 50.4529,27.373 L 50.3145,27.7226 L 50.0934,28.0268 L 49.8037,28.2665 L 49.4635,28.4266
 L 49.0942,28.497 z
M 98.7189,28.4734 L 98.3613,28.3572 L 98.0439,28.1558 L 97.7865,27.8817 L 97.6053,27.5522 L 97.5118,27.188
 L 97.5118,26.812 L 97.6053,26.4478 L 97.7865,26.1183 L 98.0439,25.8442 L 98.3613,25.6427 L 98.7189,25.5266
 L 99.0942,25.503 L 99.4635,25.5734 L 99.8037,25.7335 L 100.093,25.9732 L 100.314,26.2774 L 100.453,26.627
 L 100.5,27 L 100.453,27.373 L 100.314,27.7226 L 100.093,28.0268 L 99.8037,28.2665 L 99.4635,28.4266
 L 99.0942,28.497 z
M 136.438,41.9469 L 135.723,41.7145 L 135.088,41.3115 L 134.573,40.7634 L 134.211,40.1044 L 134.024,39.376
 L 134.024,38.624 L 134.211,37.8956 L 134.573,37.2366 L 135.088,36.6885 L 135.723,36.2855 L 136.438,36.0531
 L 137.188,36.0059 L 137.927,36.1468 L 138.607,36.467 L 139.187,36.9464 L 139.629,37.5547 L 139.906,38.2539
 L 140,39 L 139.906,39.7461 L 139.629,40.4453 L 139.187,41.0536 L 138.607,41.533 L 137.927,41.8532
 L 137.188,41.9941 z
M 28.4379,41.9469 L 27.7227,41.7145 L 27.0877,41.3115 L 26.5729,40.7634 L 26.2107,40.1044 L 26.0237,39.376
 L 26.0237,38.624 L 26.2107,37.8956 L 26.5729,37.2366 L 27.0877,36.6885 L 27.7227,36.2855 L 28.4379,36.0531
 L 29.1884,36.0059 L 29.927,36.1468 L 30.6075,36.467 L 31.1869,36.9464 L 31.6289,37.5547 L 31.9057,38.2539
 L 32,39 L 31.9057,39.7461 L 31.6289,40.4453 L 31.1869,41.0536 L 30.6075,41.533 L 29.927,41.8532
 L 29.1884,41.9941 z
M 19,-45 L -101,-45 L -101,45 L 19,45 z
M 12.4379,-36.0531 L 11.7227,-36.2855 L 11.0877,-36.6885 L 10.5729,-37.2366 L 10.2107,-37.8956 L 10.0237,-38.624
 L 10.0237,-39.376 L 10.2107,-40.1044 L 10.5729,-40.7634 L 11.0877,-41.3115 L 11.7227,-41.7145 L 12.4379,-41.9469
 L 13.1884,-41.9941 L 13.927,-41.8532 L 14.6075,-41.533 L 15.1869,-41.0536 L 15.6289,-40.4453 L 15.9057,-39.7461
 L 16,-39 L 15.9057,-38.2539 L 15.6289,-37.5547 L 15.1869,-36.9464 L 14.6075,-36.467 L 13.927,-36.1468
 L 13.1884,-36.0059 z
M -95.5621,-36.0531 L -96.2773,-36.2855 L -96.9123,-36.6885 L -97.427,-37.2366 L -97.7893,-37.8956 L -97.9763,-38.624
 L -97.9763,-39.376 L -97.7893,-40.1044 L -97.427,-40.7634 L -96.9123,-41.3115 L -96.2773,-41.7145 L -95.5621,-41.9469
 L -94.8116,-41.9941 L -94.073,-41.8532 L -93.3925,-41.533 L -92.8131,-41.0536 L -92.3711,-40.4453 L -92.0943,-39.7461
 L -92,-39 L -92.0943,-38.2539 L -92.3711,-37.5547 L -92.8131,-36.9464 L -93.3925,-36.467 L -94.073,-36.1468
 L -94.8116,-36.0059 z
M -25.2811,-25.5266 L -25.6387,-25.6427 L -25.9561,-25.8442 L -26.2135,-26.1183 L -26.3947,-26.4478 L -26.4882,-26.812
 L -26.4882,-27.188 L -26.3947,-27.5522 L -26.2135,-27.8817 L -25.9561,-28.1558 L -25.6387,-28.3572 L -25.2811,-28.4734
 L -24.9058,-28.497 L -24.5365,-28.4266 L -24.1963,-28.2665 L -23.9065,-28.0268 L -23.6855,-27.7226 L -23.5471,-27.373
 L -23.5,-27 L -23.5471,-26.627 L -23.6855,-26.2774 L -23.9065,-25.9732 L -24.1963,-25.7335 L -24.5365,-25.5734
 L -24.9058,-25.503 z
M -75.2811,-25.5266 L -75.6387,-25.6427 L -75.9561,-25.8442 L -76.2135,-26.1183 L -76.3947,-26.4478 L -76.4882,-26.812
 L -76.4882,-27.188 L -76.3947,-27.5522 L -76.2135,-27.8817 L -75.9561,-28.1558 L -75.6387,-28.3572 L -75.2811,-28.4734
 L -74.9058,-28.497 L -74.5365,-28.4266 L -74.1963,-28.2665 L -73.9065,-28.0268 L -73.6855,-27.7226 L -73.5471,-27.373
 L -73.5,-27 L -73.5471,-26.627 L -73.6855,-26.2774 L -73.9065,-25.9732 L -74.1963,-25.7335 L -74.5365,-25.5734
 L -74.9058,-25.503 z
M -94,12.5 L -94,-12.5 L -69,-12.5 L -69,12.5 z
M -10.2811,1.47342 L -10.6387,1.35724 L -10.9561,1.15576 L -11.2135,0.881668 L -11.3947,0.552185 L -11.4882,0.187988
 L -11.4882,-0.187988 L -11.3947,-0.552185 L -11.2135,-0.881668 L -10.9561,-1.15576 L -10.6387,-1.35724 L -10.2811,-1.47342
 L -9.90581,-1.49704 L -9.53647,-1.42657 L -9.19626,-1.26648 L -8.90654,-1.02681 L -8.68553,-0.722626 L -8.54712,-0.373032
 L -8.5,-0 L -8.54712,0.373032 L -8.68553,0.722626 L -8.90654,1.02681 L -9.19626,1.26648 L -9.53647,1.42657
 L -9.90581,1.49704 z
M -16.2811,1.47342 L -16.6387,1.35724 L -16.9561,1.15576 L -17.2135,0.881668 L -17.3947,0.552185 L -17.4882,0.187988
 L -17.4882,-0.187988 L -17.3947,-0.552185 L -17.2135,-0.881668 L -16.9561,-1.15576 L -16.6387,-1.35724 L -16.2811,-1.47342
 L -15.9058,-1.49704 L -15.5365,-1.42657 L -15.1963,-1.26648 L -14.9065,-1.02681 L -14.6855,-0.722626 L -14.5471,-0.373032
 L -14.5,-0 L -14.5471,0.373032 L -14.6855,0.722626 L -14.9065,1.02681 L -15.1963,1.26648 L -15.5365,1.42657
 L -15.9058,1.49704 z
M -40.2811,1.47342 L -40.6387,1.35724 L -40.9561,1.15576 L -41.2135,0.881668 L -41.3947,0.552185 L -41.4882,0.187988
 L -41.4882,-0.187988 L -41.3947,-0.552185 L -41.2135,-0.881668 L -40.9561,-1.15576 L -40.6387,-1.35724 L -40.2811,-1.47342
 L -39.9058,-1.49704 L -39.5365,-1.42657 L -39.1963,-1.26648 L -38.9065,-1.02681 L -38.6855,-0.722626 L -38.5471,-0.373032
 L -38.5,-0 L -38.5471,0.373032 L -38.6855,0.722626 L -38.9065,1.02681 L -39.1963,1.26648 L -39.5365,1.42657
 L -39.9058,1.49704 z
M -75.2811,28.4734 L -75.6387,28.3572 L -75.9561,28.1558 L -76.2135,27.8817 L -76.3947,27.5522 L -76.4882,27.188
 L -76.4882,26.812 L -76.3947,26.4478 L -76.2135,26.1183 L -75.9561,25.8442 L -75.6387,25.6427 L -75.2811,25.5266
 L -74.9058,25.503 L -74.5365,25.5734 L -74.1963,25.7335 L -73.9065,25.9732 L -73.6855,26.2774 L -73.5471,26.627
 L -73.5,27 L -73.5471,27.373 L -73.6855,27.7226 L -73.9065,28.0268 L -74.1963,28.2665 L -74.5365,28.4266
 L -74.9058,28.497 z
M -25.2811,28.4734 L -25.6387,28.3572 L -25.9561,28.1558 L -26.2135,27.8817 L -26.3947,27.5522 L -26.4882,27.188
 L -26.4882,26.812 L -26.3947,26.4478 L -26.2135,26.1183 L -25.9561,25.8442 L -25.6387,25.6427 L -25.2811,25.5266
 L -24.9058,25.503 L -24.5365,25.5734 L -24.1963,25.7335 L -23.9065,25.9732 L -23.6855,26.2774 L -23.5471,26.627
 L -23.5,27 L -23.5471,27.373 L -23.6855,27.7226 L -23.9065,28.0268 L -24.1963,28.2665 L -24.5365,28.4266
 L -24.9058,28.497 z
M 12.4379,41.9469 L 11.7227,41.7145 L 11.0877,41.3115 L 10.5729,40.7634 L 10.2107,40.1044 L 10.0237,39.376
 L 10.0237,38.624 L 10.2107,37.8956 L 10.5729,37.2366 L 11.0877,36.6885 L 11.7227,36.2855 L 12.4379,36.0531
 L 13.1884,36.0059 L 13.927,36.1468 L 14.6075,36.467 L 15.1869,36.9464 L 15.6289,37.5547 L 15.9057,38.2539
 L 16,39 L 15.9057,39.7461 L 15.6289,40.4453 L 15.1869,41.0536 L 14.6075,41.533 L 13.927,41.8532
 L 13.1884,41.9941 z
M -95.5621,41.9469 L -96.2773,41.7145 L -96.9123,41.3115 L -97.427,40.7634 L -97.7893,40.1044 L -97.9763,39.376
 L -97.9763,38.624 L -97.7893,37.8956 L -97.427,37.2366 L -96.9123,36.6885 L -96.2773,36.2855 L -95.5621,36.0531
 L -94.8116,36.0059 L -94.073,36.1468 L -93.3925,36.467 L -92.8131,36.9464 L -92.3711,37.5547 L -92.0943,38.2539
 L -92,39 L -92.0943,39.7461 L -92.3711,40.4453 L -92.8131,41.0536 L -93.3925,41.533 L -94.073,41.8532
 L -94.8116,41.9941 z
M 916,-29.5 L 1004,-29.5 L 1004,-45 L 884,-45 L 884,-22.5 L 902,-22.5
 L 902,-12.5 L 916,-12.5 z
M 997.438,-36.0531 L 996.723,-36.2855 L 996.088,-36.6885 L 995.573,-37.2366 L 995.211,-37.8956 L 995.024,-38.624
 L 995.024,-39.376 L 995.211,-40.1044 L 995.573,-40.7634 L 996.088,-41.3115 L 996.723,-41.7145 L 997.438,-41.9469
 L 998.188,-41.9941 L 998.927,-41.8532 L 999.607,-41.533 L 1000.19,-41.0536 L 1000.63,-40.4453 L 1000.91,-39.7461
 L 1001,-39 L 1000.91,-38.2539 L 1000.63,-37.5547 L 1000.19,-36.9464 L 999.607,-36.467 L 998.927,-36.1468
 L 998.188,-36.0059 z
M 889.438,-36.0531 L 888.723,-36.2855 L 888.088,-36.6885 L 887.573,-37.2366 L 887.211,-37.8956 L 887.024,-38.624
 L 887.024,-39.376 L 887.211,-40.1044 L 887.573,-40.7634 L 888.088,-41.3115 L 888.723,-41.7145 L 889.438,-41.9469
 L 890.188,-41.9941 L 890.927,-41.8532 L 891.607,-41.533 L 892.187,-41.0536 L 892.629,-40.4453 L 892.906,-39.7461
 L 893,-39 L 892.906,-38.2539 L 892.629,-37.5547 L 892.187,-36.9464 L 891.607,-36.467 L 890.927,-36.1468
 L 890.188,-36.0059 z
M 909.719,-25.5266 L 909.361,-25.6427 L 909.044,-25.8442 L 908.786,-26.1183 L 908.605,-26.4478 L 908.512,-26.812
 L 908.512,-27.188 L 908.605,-27.5522 L 908.786,-27.8817 L 909.044,-28.1558 L 909.361,-28.3572 L 909.719,-28.4734
 L 910.094,-28.497 L 910.464,-28.4266 L 910.804,-28.2665 L 911.093,-28.0268 L 911.314,-27.7226 L 911.453,-27.373
 L 911.5,-27 L 911.453,-26.627 L 911.314,-26.2774 L 911.093,-25.9732 L 910.804,-25.7335 L 910.464,-25.5734
 L 910.094,-25.503 z
M 793,-29.5 L 881,-29.5 L 881,-45 L 761,-45 L 761,-22.5 L 779,-22.5
 L 779,-12.5 L 793,-12.5 z
M 874.438,-36.0531 L 873.723,-36.2855 L 873.088,-36.6885 L 872.573,-37.2366 L 872.211,-37.8956 L 872.024,-38.624
 L 872.024,-39.376 L 872.211,-40.1044 L 872.573,-40.7634 L 873.088,-41.3115 L 873.723,-41.7145 L 874.438,-41.9469
 L 875.188,-41.9941 L 875.927,-41.8532 L 876.607,-41.533 L 877.187,-41.0536 L 877.629,-40.4453 L 877.906,-39.7461
 L 878,-39 L 877.906,-38.2539 L 877.629,-37.5547 L 877.187,-36.9464 L 876.607,-36.467 L 875.927,-36.1468
 L 875.188,-36.0059 z
M 766.438,-36.0531 L 765.723,-36.2855 L 765.088,-36.6885 L 764.573,-37.2366 L 764.211,-37.8956 L 764.024,-38.624
 L 764.024,-39.376 L 764.211,-40.1044 L 764.573,-40.7634 L 765.088,-41.3115 L 765.723,-41.7145 L 766.438,-41.9469
 L 767.188,-41.9941 L 767.927,-41.8532 L 768.607,-41.533 L 769.187,-41.0536 L 769.629,-40.4453 L 769.906,-39.7461
 L 770,-39 L 769.906,-38.2539 L 769.629,-37.5547 L 769.187,-36.9464 L 768.607,-36.467 L 767.927,-36.1468
 L 767.188,-36.0059 z
M 786.719,-25.5266 L 786.361,-25.6427 L 786.044,-25.8442 L 785.786,-26.1183 L 785.605,-26.4478 L 785.512,-26.812
 L 785.512,-27.188 L 785.605,-27.5522 L 785.786,-27.8817 L 786.044,-28.1558 L 786.361,-28.3572 L 786.719,-28.4734
 L 787.094,-28.497 L 787.464,-28.4266 L 787.804,-28.2665 L 788.093,-28.0268 L 788.314,-27.7226 L 788.453,-27.373
 L 788.5,-27 L 788.453,-26.627 L 788.314,-26.2774 L 788.093,-25.9732 L 787.804,-25.7335 L 787.464,-25.5734
 L 787.094,-25.503 z
M 1004,29.5 L 916,29.5 L 916,12.5 L 902,12.5 L 902,22.5 L 884,22.5
 L 884,45 L 1004,45 z
M 909.719,28.4734 L 909.361,28.3572 L 909.044,28.1558 L 908.786,27.8817 L 908.605,27.5522 L 908.512,27.188
 L 908.512,26.812 L 908.605,26.4478 L 908.786,26.1183 L 909.044,25.8442 L 909.361,25.6427 L 909.719,25.5266
 L 910.094,25.503 L 910.464,25.5734 L 910.804,25.7335 L 911.093,25.9732 L 911.314,26.2774 L 911.453,26.627
 L 911.5,27 L 911.453,27.373 L 911.314,27.7226 L 911.093,28.0268 L 910.804,28.2665 L 910.464,28.4266
 L 910.094,28.497 z
M 997.438,41.9469 L 996.723,41.7145 L 996.088,41.3115 L 995.573,40.7634 L 995.211,40.1044 L 995.024,39.376
 L 995.024,38.624 L 995.211,37.8956 L 995.573,37.2366 L 996.088,36.6885 L 996.723,36.2855 L 997.438,36.0531
 L 998.188,36.0059 L 998.927,36.1468 L 999.607,36.467 L 1000.19,36.9464 L 1000.63,37.5547 L 1000.91,38.2539
 L 1001,39 L 1000.91,39.7461 L 1000.63,40.4453 L 1000.19,41.0536 L 999.607,41.533 L 998.927,41.8532
 L 998.188,41.9941 z
M 889.438,41.9469 L 888.723,41.7145 L 888.088,41.3115 L 887.573,40.7634 L 887.211,40.1044 L 887.024,39.376
 L 887.024,38.624 L 887.211,37.8956 L 887.573,37.2366 L 888.088,36.6885 L 888.723,36.2855 L 889.438,36.0531
 L 890.188,36.0059 L 890.927,36.1468 L 891.607,36.467 L 892.187,36.9464 L 892.629,37.5547 L 892.906,38.2539
 L 893,39 L 892.906,39.7461 L 892.629,40.4453 L 892.187,41.0536 L 891.607,41.533 L 890.927,41.8532
 L 890.188,41.9941 z
M 881,29.5 L 793,29.5 L 793,12.5 L 779,12.5 L 779,22.5 L 761,22.5
 L 761,45 L 881,45 z
M 786.719,28.4734 L 786.361,28.3572 L 786.044,28.1558 L 785.786,27.8817 L 785.605,27.5522 L 785.512,27.188
 L 785.512,26.812 L 785.605,26.4478 L 785.786,26.1183 L 786.044,25.8442 L 786.361,25.6427 L 786.719,25.5266
 L 787.094,25.503 L 787.464,25.5734 L 787.804,25.7335 L 788.093,25.9732 L 788.314,26.2774 L 788.453,26.627
 L 788.5,27 L 788.453,27.373 L 788.314,27.7226 L 788.093,28.0268 L 787.804,28.2665 L 787.464,28.4266
 L 787.094,28.497 z
M 874.438,41.9469 L 873.723,41.7145 L 873.088,41.3115 L 872.573,40.7634 L 872.211,40.1044 L 872.024,39.376
 L 872.024,38.624 L 872.211,37.8956 L 872.573,37.2366 L 873.088,36.6885 L 873.723,36.2855 L 874.438,36.0531
 L 875.188,36.0059 L 875.927,36.1468 L 876.607,36.467 L 877.187,36.9464 L 877.629,37.5547 L 877.906,38.2539
 L 878,39 L 877.906,39.7461 L 877.629,40.4453 L 877.187,41.0536 L 876.607,41.533 L 875.927,41.8532
 L 875.188,41.9941 z
M 766.438,41.9469 L 765.723,41.7145 L 765.088,41.3115 L 764.573,40.7634 L 764.211,40.1044 L 764.024,39.376
 L 764.024,38.624 L 764.211,37.8956 L 764.573,37.2366 L 765.088,36.6885 L 765.723,36.2855 L 766.438,36.0531
 L 767.188,36.0059 L 767.927,36.1468 L 768.607,36.467 L 769.187,36.9464 L 769.629,37.5547 L 769.906,38.2539
 L 770,39 L 769.906,39.7461 L 769.629,40.4453 L 769.187,41.0536 L 768.607,41.533 L 767.927,41.8532
 L 767.188,41.9941 z
" stroke="black" fill="lightgray" stroke-width="0.5"/>
</svg>
