<?xml version="1.0" standalone="no"?>
<!DOCTYPE svg PUBLIC "-//W3C//DTD SVG 1.1//EN" "http://www.w3.org/Graphics/SVG/1.1/DTD/svg11.dtd">
<svg width="10mm" height="10mm" viewBox="-5 -5 10 10" xmlns="http://www.w3.org/2000/svg" version="1.1">
<title>OpenSCAD Model</title>
<path d="
M 1.26697,3.89932 L 2.19688,3.46173 L 2.98877,2.80664 L 3.59285,1.97519 L 3.97118,1.01962 L 4.09999,-0
 L 3.97118,-1.01962 L 3.59285,-1.97519 L 2.98877,-2.80664 L 2.19688,-3.46173 L 1.26697,-3.89932 L 0.257431,-4.0919
 L -0.76825,-4.02737 L -1.74568,-3.70978 L -2.61343,-3.1591 L -3.31696,-2.40991 L -3.81207,-1.50931 L -4.06766,-0.513855
 L -4.06766,0.513855 L -3.81207,1.50931 L -3.31696,2.40991 L -2.61343,3.1591 L -1.74568,3.70978 L -0.76825,4.02737
 L 0.257431,4.0919 z
M -0.281067,1.47342 L -0.638657,1.35724 L -0.956131,1.15576 L -1.21352,0.881668 L -1.39465,0.552185 L -1.48816,0.187988
 L -1.48816,-0.187988 L -1.39465,-0.552185 L -1.21352,-0.881668 L -0.956131,-1.15576 L -0.638657,-1.35724 L -0.281067,-1.47342
 L 0.0941772,-1.49704 L 0.463516,-1.42657 L 0.803726,-1.26648 L 1.09344,-1.02681 L 1.31445,-0.722626 L 1.45287,-0.373032
 L 1.5,-0 L 1.45287,0.373032 L 1.31445,0.722626 L 1.09344,1.02681 L 0.803726,1.26648 L 0.463516,1.42657
 L 0.0941772,1.49704 z
" stroke="black" fill="lightgray" stroke-width="0.5"/>
</svg>
