  0
SECTION
  2
BLOCKS
  0
ENDSEC
  0
SECTION
  2
ENTITIES
  0
LINE
  8
0
 10
68.2484
 20
-42.8479
 11
69.4138
 21
-42.3865
  0
LINE
  8
0
 10
69.4138
 20
-42.3865
 11
70.4277
 21
-41.6498
  0
LINE
  8
0
 10
70.4277
 20
-41.6498
 11
71.2266
 21
-40.6841
  0
LINE
  8
0
 10
71.2266
 20
-40.6841
 11
71.7603
 21
-39.5501
  0
LINE
  8
0
 10
71.7603
 20
-39.5501
 11
72.005
 21
-38.005
  0
LINE
  8
0
 10
72.005
 20
-38.005
 11
72.005
 21
38.005
  0
LINE
  8
0
 10
72.005
 20
38.005
 11
71.8479
 21
39.2484
  0
LINE
  8
0
 10
71.8479
 20
39.2484
 11
71.3865
 21
40.4138
  0
LINE
  8
0
 10
71.3865
 20
40.4138
 11
70.6498
 21
41.4277
  0
LINE
  8
0
 10
70.6498
 20
41.4277
 11
69.6841
 21
42.2266
  0
LINE
  8
0
 10
69.6841
 20
42.2266
 11
68.5501
 21
42.7603
  0
LINE
  8
0
 10
68.5501
 20
42.7603
 11
67.005
 21
43.005
  0
LINE
  8
0
 10
67.005
 20
43.005
 11
-23.005
 21
43.005
  0
LINE
  8
0
 10
-23.005
 20
43.005
 11
-24.2484
 21
42.8479
  0
LINE
  8
0
 10
-24.2484
 20
42.8479
 11
-25.4138
 21
42.3865
  0
LINE
  8
0
 10
-25.4138
 20
42.3865
 11
-26.4277
 21
41.6498
  0
LINE
  8
0
 10
-26.4277
 20
41.6498
 11
-27.2266
 21
40.6841
  0
LINE
  8
0
 10
-27.2266
 20
40.6841
 11
-27.7603
 21
39.5501
  0
LINE
  8
0
 10
-27.7603
 20
39.5501
 11
-28.005
 21
38.005
  0
LINE
  8
0
 10
-28.005
 20
38.005
 11
-28.005
 21
17.255
  0
LINE
  8
0
 10
-28.005
 20
17.255
 11
-99.2448
 21
17.255
  0
LINE
  8
0
 10
-99.2448
 20
17.255
 11
-97.6808
 21
13.3049
  0
LINE
  8
0
 10
-97.6808
 20
13.3049
 11
-97.5159
 21
12
  0
LINE
  8
0
 10
-97.5159
 20
12
 11
-90
 21
12
  0
LINE
  8
0
 10
-90
 20
12
 11
-90
 21
4
  0
LINE
  8
0
 10
-90
 20
4
 11
-96.5053
 21
4
  0
LINE
  8
0
 10
-96.5053
 20
4
 11
-96.379
 21
3
  0
LINE
  8
0
 10
-96.379
 20
3
 11
-100
 21
3
  0
LINE
  8
0
 10
-100
 20
3
 11
-100
 21
-9
  0
LINE
  8
0
 10
-100
 20
-9
 11
-97.137
 21
-9
  0
LINE
  8
0
 10
-97.137
 20
-9
 11
-97.6808
 21
-13.3049
  0
LINE
  8
0
 10
-97.6808
 20
-13.3049
 11
-99.2448
 21
-17.255
  0
LINE
  8
0
 10
-99.2448
 20
-17.255
 11
-28.005
 21
-17.255
  0
LINE
  8
0
 10
-28.005
 20
-17.255
 11
-28.005
 21
-38.005
  0
LINE
  8
0
 10
-28.005
 20
-38.005
 11
-27.8479
 21
-39.2484
  0
LINE
  8
0
 10
-27.8479
 20
-39.2484
 11
-27.3865
 21
-40.4138
  0
LINE
  8
0
 10
-27.3865
 20
-40.4138
 11
-26.6498
 21
-41.4277
  0
LINE
  8
0
 10
-26.6498
 20
-41.4277
 11
-25.6841
 21
-42.2266
  0
LINE
  8
0
 10
-25.6841
 20
-42.2266
 11
-24.5501
 21
-42.7603
  0
LINE
  8
0
 10
-24.5501
 20
-42.7603
 11
-23.005
 21
-43.005
  0
LINE
  8
0
 10
-23.005
 20
-43.005
 11
67.005
 21
-43.005
  0
LINE
  8
0
 10
67.005
 20
-43.005
 11
68.2484
 21
-42.8479
  0
LINE
  8
0
 10
11.25
 20
-15
 11
11.25
 21
15
  0
LINE
  8
0
 10
11.25
 20
15
 11
32.75
 21
15
  0
LINE
  8
0
 10
32.75
 20
15
 11
32.75
 21
14.8482
  0
LINE
  8
0
 10
32.75
 20
14.8482
 11
34.6918
 21
14.9704
  0
LINE
  8
0
 10
34.6918
 20
14.9704
 11
38.3853
 21
14.2658
  0
LINE
  8
0
 10
38.3853
 20
14.2658
 11
41.7874
 21
12.6649
  0
LINE
  8
0
 10
41.7874
 20
12.6649
 11
44.6845
 21
10.2682
  0
LINE
  8
0
 10
44.6845
 20
10.2682
 11
46.8946
 21
7.2263
  0
LINE
  8
0
 10
46.8946
 20
7.2263
 11
47.75
 21
5.06581
  0
LINE
  8
0
 10
47.75
 20
5.06581
 11
47.75
 21
-5.06581
  0
LINE
  8
0
 10
47.75
 20
-5.06581
 11
46.8946
 21
-7.2263
  0
LINE
  8
0
 10
46.8946
 20
-7.2263
 11
44.6845
 21
-10.2682
  0
LINE
  8
0
 10
44.6845
 20
-10.2682
 11
41.7874
 21
-12.6649
  0
LINE
  8
0
 10
41.7874
 20
-12.6649
 11
38.3853
 21
-14.2658
  0
LINE
  8
0
 10
38.3853
 20
-14.2658
 11
34.6918
 21
-14.9704
  0
LINE
  8
0
 10
34.6918
 20
-14.9704
 11
32.75
 21
-14.8482
  0
LINE
  8
0
 10
32.75
 20
-14.8482
 11
32.75
 21
-15
  0
LINE
  8
0
 10
32.75
 20
-15
 11
11.25
 21
-15
  0
LINE
  8
0
 10
-30.5379
 20
2
 11
-30.5379
 21
7
  0
LINE
  8
0
 10
-30.5379
 20
7
 11
-28.9428
 21
7
  0
LINE
  8
0
 10
-28.9428
 20
7
 11
-28.9428
 21
5
  0
LINE
  8
0
 10
-28.9428
 20
5
 11
-30
 21
5
  0
LINE
  8
0
 10
-30
 20
5
 11
-30
 21
2
  0
LINE
  8
0
 10
-30
 20
2
 11
-30.5379
 21
2
  0
LINE
  8
0
 10
-30.5379
 20
-7
 11
-30.5379
 21
-2
  0
LINE
  8
0
 10
-30.5379
 20
-2
 11
-30
 21
-2
  0
LINE
  8
0
 10
-30
 20
-2
 11
-30
 21
-5
  0
LINE
  8
0
 10
-30
 20
-5
 11
-28.9428
 21
-5
  0
LINE
  8
0
 10
-28.9428
 20
-5
 11
-28.9428
 21
-7
  0
LINE
  8
0
 10
-28.9428
 20
-7
 11
-30.5379
 21
-7
  0
ENDSEC
  0
SECTION
  2
OBJECTS
  0
DICTIONARY
  0
ENDSEC
  0
EOF
