<?xml version="1.0" standalone="no"?>
<!DOCTYPE svg PUBLIC "-//W3C//DTD SVG 1.1//EN" "http://www.w3.org/Graphics/SVG/1.1/DTD/svg11.dtd">
<svg width="120mm" height="90mm" viewBox="-101 -45 120 90" xmlns="http://www.w3.org/2000/svg" version="1.1">
<title>OpenSCAD Model</title>
<path d="
M 15.2435,44.8429 L 16.4088,44.3815 L 17.4227,43.6448 L 18.2216,42.6791 L 18.7553,41.5451 L 19,40
 L 19,-40 L 18.8429,-41.2435 L 18.3815,-42.4088 L 17.6448,-43.4227 L 16.6791,-44.2216 L 15.5451,-44.7553
 L 14,-45 L -96,-45 L -97.2435,-44.8429 L -98.4088,-44.3815 L -99.4227,-43.6448 L -100.222,-42.6791
 L -100.755,-41.5451 L -101,-40 L -101,-21.5 L -15.5,-21.5 L -15.5,-21.3726 L -14.15,-21.4576
 L -8.85612,-20.4477 L -3.97972,-18.153 L 0.172821,-14.7178 L 3.34059,-10.3577 L 5.32452,-5.34683 L 6,-0
 L 5.32452,5.34683 L 3.34059,10.3577 L 0.172821,14.7178 L -3.97972,18.153 L -8.85612,20.4477 L -14.15,21.4576
 L -15.5,21.3726 L -15.5,21.5 L -101,21.5 L -101,40 L -100.843,41.2435 L -100.382,42.4088
 L -99.6448,43.4227 L -98.6791,44.2216 L -97.5451,44.7553 L -96,45 L 14,45 z
M -95.5621,-36.0531 L -96.2773,-36.2855 L -96.9123,-36.6885 L -97.427,-37.2366 L -97.7893,-37.8956 L -97.9763,-38.624
 L -97.9763,-39.376 L -97.7893,-40.1044 L -97.427,-40.7634 L -96.9123,-41.3115 L -96.2773,-41.7145 L -95.5621,-41.9469
 L -94.8116,-41.9941 L -94.073,-41.8532 L -93.3925,-41.533 L -92.8131,-41.0536 L -92.3711,-40.4453 L -92.0943,-39.7461
 L -92,-39 L -92.0943,-38.2539 L -92.3711,-37.5547 L -92.8131,-36.9464 L -93.3925,-36.467 L -94.073,-36.1468
 L -94.8116,-36.0059 z
M 12.4379,-36.0531 L 11.7227,-36.2855 L 11.0877,-36.6885 L 10.5729,-37.2366 L 10.2107,-37.8956 L 10.0237,-38.624
 L 10.0237,-39.376 L 10.2107,-40.1044 L 10.5729,-40.7634 L 11.0877,-41.3115 L 11.7227,-41.7145 L 12.4379,-41.9469
 L 13.1884,-41.9941 L 13.927,-41.8532 L 14.6075,-41.533 L 15.1869,-41.0536 L 15.6289,-40.4453 L 15.9057,-39.7461
 L 16,-39 L 15.9057,-38.2539 L 15.6289,-37.5547 L 15.1869,-36.9464 L 14.6075,-36.467 L 13.927,-36.1468
 L 13.1884,-36.0059 z
M -95.5621,41.9469 L -96.2773,41.7145 L -96.9123,41.3115 L -97.427,40.7634 L -97.7893,40.1044 L -97.9763,39.376
 L -97.9763,38.624 L -97.7893,37.8956 L -97.427,37.2366 L -96.9123,36.6885 L -96.2773,36.2855 L -95.5621,36.0531
 L -94.8116,36.0059 L -94.073,36.1468 L -93.3925,36.467 L -92.8131,36.9464 L -92.3711,37.5547 L -92.0943,38.2539
 L -92,39 L -92.0943,39.7461 L -92.3711,40.4453 L -92.8131,41.0536 L -93.3925,41.533 L -94.073,41.8532
 L -94.8116,41.9941 z
M 12.4379,41.9469 L 11.7227,41.7145 L 11.0877,41.3115 L 10.5729,40.7634 L 10.2107,40.1044 L 10.0237,39.376
 L 10.0237,38.624 L 10.2107,37.8956 L 10.5729,37.2366 L 11.0877,36.6885 L 11.7227,36.2855 L 12.4379,36.0531
 L 13.1884,36.0059 L 13.927,36.1468 L 14.6075,36.467 L 15.1869,36.9464 L 15.6289,37.5547 L 15.9057,38.2539
 L 16,39 L 15.9057,39.7461 L 15.6289,40.4453 L 15.1869,41.0536 L 14.6075,41.533 L 13.927,41.8532
 L 13.1884,41.9941 z
" stroke="black" fill="lightgray" stroke-width="0.5"/>
</svg>
