<?xml version="1.0" standalone="no"?>
<!DOCTYPE svg PUBLIC "-//W3C//DTD SVG 1.1//EN" "http://www.w3.org/Graphics/SVG/1.1/DTD/svg11.dtd">
<svg width="2427mm" height="119mm" viewBox="-100 -45 2427 119" xmlns="http://www.w3.org/2000/svg" version="1.1">
<title>OpenSCAD Model</title>
<path d="
M 1462.24,44.8429 L 1463.41,44.3815 L 1464.42,43.6448 L 1465.22,42.6791 L 1465.76,41.5451 L 1466,40
 L 1466,-40 L 1465.84,-41.2435 L 1465.38,-42.4088 L 1464.64,-43.4227 L 1463.68,-44.2216 L 1462.55,-44.7553
 L 1461,-45 L 1351,-45 L 1349.76,-44.8429 L 1348.59,-44.3815 L 1347.58,-43.6448 L 1346.78,-42.6791
 L 1346.24,-41.5451 L 1346,-40 L 1346,-21.5 L 1431.5,-21.5 L 1431.5,-21.3726 L 1432.85,-21.4576
 L 1438.14,-20.4477 L 1443.02,-18.153 L 1447.17,-14.7178 L 1450.34,-10.3577 L 1452.32,-5.34683 L 1453,-0
 L 1452.32,5.34683 L 1450.34,10.3577 L 1447.17,14.7178 L 1443.02,18.153 L 1438.14,20.4477 L 1432.85,21.4576
 L 1431.5,21.3726 L 1431.5,21.5 L 1346,21.5 L 1346,40 L 1346.16,41.2435 L 1346.62,42.4088
 L 1347.36,43.4227 L 1348.32,44.2216 L 1349.45,44.7553 L 1351,45 L 1461,45 z
M 1351.44,-36.0531 L 1350.72,-36.2855 L 1350.09,-36.6885 L 1349.57,-37.2366 L 1349.21,-37.8956 L 1349.02,-38.624
 L 1349.02,-39.376 L 1349.21,-40.1044 L 1349.57,-40.7634 L 1350.09,-41.3115 L 1350.72,-41.7145 L 1351.44,-41.9469
 L 1352.19,-41.9941 L 1352.93,-41.8532 L 1353.61,-41.533 L 1354.19,-41.0536 L 1354.63,-40.4453 L 1354.91,-39.7461
 L 1355,-39 L 1354.91,-38.2539 L 1354.63,-37.5547 L 1354.19,-36.9464 L 1353.61,-36.467 L 1352.93,-36.1468
 L 1352.19,-36.0059 z
M 1459.44,-36.0531 L 1458.72,-36.2855 L 1458.09,-36.6885 L 1457.57,-37.2366 L 1457.21,-37.8956 L 1457.02,-38.624
 L 1457.02,-39.376 L 1457.21,-40.1044 L 1457.57,-40.7634 L 1458.09,-41.3115 L 1458.72,-41.7145 L 1459.44,-41.9469
 L 1460.19,-41.9941 L 1460.93,-41.8532 L 1461.61,-41.533 L 1462.19,-41.0536 L 1462.63,-40.4453 L 1462.91,-39.7461
 L 1463,-39 L 1462.91,-38.2539 L 1462.63,-37.5547 L 1462.19,-36.9464 L 1461.61,-36.467 L 1460.93,-36.1468
 L 1460.19,-36.0059 z
M 1459.44,41.9469 L 1458.72,41.7145 L 1458.09,41.3115 L 1457.57,40.7634 L 1457.21,40.1044 L 1457.02,39.376
 L 1457.02,38.624 L 1457.21,37.8956 L 1457.57,37.2366 L 1458.09,36.6885 L 1458.72,36.2855 L 1459.44,36.0531
 L 1460.19,36.0059 L 1460.93,36.1468 L 1461.61,36.467 L 1462.19,36.9464 L 1462.63,37.5547 L 1462.91,38.2539
 L 1463,39 L 1462.91,39.7461 L 1462.63,40.4453 L 1462.19,41.0536 L 1461.61,41.533 L 1460.93,41.8532
 L 1460.19,41.9941 z
M 1351.44,41.9469 L 1350.72,41.7145 L 1350.09,41.3115 L 1349.57,40.7634 L 1349.21,40.1044 L 1349.02,39.376
 L 1349.02,38.624 L 1349.21,37.8956 L 1349.57,37.2366 L 1350.09,36.6885 L 1350.72,36.2855 L 1351.44,36.0531
 L 1352.19,36.0059 L 1352.93,36.1468 L 1353.61,36.467 L 1354.19,36.9464 L 1354.63,37.5547 L 1354.91,38.2539
 L 1355,39 L 1354.91,39.7461 L 1354.63,40.4453 L 1354.19,41.0536 L 1353.61,41.533 L 1352.93,41.8532
 L 1352.19,41.9941 z
M 1339.24,44.8429 L 1340.41,44.3815 L 1341.42,43.6448 L 1342.22,42.6791 L 1342.76,41.5451 L 1343,40
 L 1343,-40 L 1342.84,-41.2435 L 1342.38,-42.4088 L 1341.64,-43.4227 L 1340.68,-44.2216 L 1339.55,-44.7553
 L 1338,-45 L 1228,-45 L 1226.76,-44.8429 L 1225.59,-44.3815 L 1224.58,-43.6448 L 1223.78,-42.6791
 L 1223.24,-41.5451 L 1223,-40 L 1223,-21.5 L 1308.5,-21.5 L 1308.5,-21.3726 L 1309.85,-21.4576
 L 1315.14,-20.4477 L 1320.02,-18.153 L 1324.17,-14.7178 L 1327.34,-10.3577 L 1329.32,-5.34683 L 1330,-0
 L 1329.32,5.34683 L 1327.34,10.3577 L 1324.17,14.7178 L 1320.02,18.153 L 1315.14,20.4477 L 1309.85,21.4576
 L 1308.5,21.3726 L 1308.5,21.5 L 1223,21.5 L 1223,40 L 1223.16,41.2435 L 1223.62,42.4088
 L 1224.36,43.4227 L 1225.32,44.2216 L 1226.45,44.7553 L 1228,45 L 1338,45 z
M 1228.44,-36.0531 L 1227.72,-36.2855 L 1227.09,-36.6885 L 1226.57,-37.2366 L 1226.21,-37.8956 L 1226.02,-38.624
 L 1226.02,-39.376 L 1226.21,-40.1044 L 1226.57,-40.7634 L 1227.09,-41.3115 L 1227.72,-41.7145 L 1228.44,-41.9469
 L 1229.19,-41.9941 L 1229.93,-41.8532 L 1230.61,-41.533 L 1231.19,-41.0536 L 1231.63,-40.4453 L 1231.91,-39.7461
 L 1232,-39 L 1231.91,-38.2539 L 1231.63,-37.5547 L 1231.19,-36.9464 L 1230.61,-36.467 L 1229.93,-36.1468
 L 1229.19,-36.0059 z
M 1336.44,-36.0531 L 1335.72,-36.2855 L 1335.09,-36.6885 L 1334.57,-37.2366 L 1334.21,-37.8956 L 1334.02,-38.624
 L 1334.02,-39.376 L 1334.21,-40.1044 L 1334.57,-40.7634 L 1335.09,-41.3115 L 1335.72,-41.7145 L 1336.44,-41.9469
 L 1337.19,-41.9941 L 1337.93,-41.8532 L 1338.61,-41.533 L 1339.19,-41.0536 L 1339.63,-40.4453 L 1339.91,-39.7461
 L 1340,-39 L 1339.91,-38.2539 L 1339.63,-37.5547 L 1339.19,-36.9464 L 1338.61,-36.467 L 1337.93,-36.1468
 L 1337.19,-36.0059 z
M 1336.44,41.9469 L 1335.72,41.7145 L 1335.09,41.3115 L 1334.57,40.7634 L 1334.21,40.1044 L 1334.02,39.376
 L 1334.02,38.624 L 1334.21,37.8956 L 1334.57,37.2366 L 1335.09,36.6885 L 1335.72,36.2855 L 1336.44,36.0531
 L 1337.19,36.0059 L 1337.93,36.1468 L 1338.61,36.467 L 1339.19,36.9464 L 1339.63,37.5547 L 1339.91,38.2539
 L 1340,39 L 1339.91,39.7461 L 1339.63,40.4453 L 1339.19,41.0536 L 1338.61,41.533 L 1337.93,41.8532
 L 1337.19,41.9941 z
M 1228.44,41.9469 L 1227.72,41.7145 L 1227.09,41.3115 L 1226.57,40.7634 L 1226.21,40.1044 L 1226.02,39.376
 L 1226.02,38.624 L 1226.21,37.8956 L 1226.57,37.2366 L 1227.09,36.6885 L 1227.72,36.2855 L 1228.44,36.0531
 L 1229.19,36.0059 L 1229.93,36.1468 L 1230.61,36.467 L 1231.19,36.9464 L 1231.63,37.5547 L 1231.91,38.2539
 L 1232,39 L 1231.91,39.7461 L 1231.63,40.4453 L 1231.19,41.0536 L 1230.61,41.533 L 1229.93,41.8532
 L 1229.19,41.9941 z
M 615.243,44.8429 L 616.409,44.3815 L 617.423,43.6448 L 618.222,42.6791 L 618.755,41.5451 L 619,40
 L 619,-40 L 618.843,-41.2435 L 618.382,-42.4088 L 617.645,-43.4227 L 616.679,-44.2216 L 615.545,-44.7553
 L 614,-45 L 504,-45 L 502.757,-44.8429 L 501.591,-44.3815 L 500.577,-43.6448 L 499.778,-42.6791
 L 499.245,-41.5451 L 499,-40 L 499,40 L 499.157,41.2435 L 499.618,42.4088 L 500.355,43.4227
 L 501.321,44.2216 L 502.455,44.7553 L 504,45 L 614,45 z
M 612.438,-36.0531 L 611.723,-36.2855 L 611.088,-36.6885 L 610.573,-37.2366 L 610.211,-37.8956 L 610.024,-38.624
 L 610.024,-39.376 L 610.211,-40.1044 L 610.573,-40.7634 L 611.088,-41.3115 L 611.723,-41.7145 L 612.438,-41.9469
 L 613.188,-41.9941 L 613.927,-41.8532 L 614.607,-41.533 L 615.187,-41.0536 L 615.629,-40.4453 L 615.906,-39.7461
 L 616,-39 L 615.906,-38.2539 L 615.629,-37.5547 L 615.187,-36.9464 L 614.607,-36.467 L 613.927,-36.1468
 L 613.188,-36.0059 z
M 504.438,-36.0531 L 503.723,-36.2855 L 503.088,-36.6885 L 502.573,-37.2366 L 502.211,-37.8956 L 502.024,-38.624
 L 502.024,-39.376 L 502.211,-40.1044 L 502.573,-40.7634 L 503.088,-41.3115 L 503.723,-41.7145 L 504.438,-41.9469
 L 505.188,-41.9941 L 505.927,-41.8532 L 506.607,-41.533 L 507.187,-41.0536 L 507.629,-40.4453 L 507.906,-39.7461
 L 508,-39 L 507.906,-38.2539 L 507.629,-37.5547 L 507.187,-36.9464 L 506.607,-36.467 L 505.927,-36.1468
 L 505.188,-36.0059 z
M 506,12.5 L 506,-12.5 L 531,-12.5 L 531,12.5 z
M 589.719,1.47342 L 589.361,1.35724 L 589.044,1.15576 L 588.786,0.881668 L 588.605,0.552185 L 588.512,0.187988
 L 588.512,-0.187988 L 588.605,-0.552185 L 588.786,-0.881668 L 589.044,-1.15576 L 589.361,-1.35724 L 589.719,-1.47342
 L 590.094,-1.49704 L 590.464,-1.42657 L 590.804,-1.26648 L 591.093,-1.02681 L 591.314,-0.722626 L 591.453,-0.373032
 L 591.5,-0 L 591.453,0.373032 L 591.314,0.722626 L 591.093,1.02681 L 590.804,1.26648 L 590.464,1.42657
 L 590.094,1.49704 z
M 583.719,1.47342 L 583.361,1.35724 L 583.044,1.15576 L 582.786,0.881668 L 582.605,0.552185 L 582.512,0.187988
 L 582.512,-0.187988 L 582.605,-0.552185 L 582.786,-0.881668 L 583.044,-1.15576 L 583.361,-1.35724 L 583.719,-1.47342
 L 584.094,-1.49704 L 584.464,-1.42657 L 584.804,-1.26648 L 585.093,-1.02681 L 585.314,-0.722626 L 585.453,-0.373032
 L 585.5,-0 L 585.453,0.373032 L 585.314,0.722626 L 585.093,1.02681 L 584.804,1.26648 L 584.464,1.42657
 L 584.094,1.49704 z
M 559.719,1.47342 L 559.361,1.35724 L 559.044,1.15576 L 558.786,0.881668 L 558.605,0.552185 L 558.512,0.187988
 L 558.512,-0.187988 L 558.605,-0.552185 L 558.786,-0.881668 L 559.044,-1.15576 L 559.361,-1.35724 L 559.719,-1.47342
 L 560.094,-1.49704 L 560.464,-1.42657 L 560.804,-1.26648 L 561.093,-1.02681 L 561.314,-0.722626 L 561.453,-0.373032
 L 561.5,-0 L 561.453,0.373032 L 561.314,0.722626 L 561.093,1.02681 L 560.804,1.26648 L 560.464,1.42657
 L 560.094,1.49704 z
M 504.438,41.9469 L 503.723,41.7145 L 503.088,41.3115 L 502.573,40.7634 L 502.211,40.1044 L 502.024,39.376
 L 502.024,38.624 L 502.211,37.8956 L 502.573,37.2366 L 503.088,36.6885 L 503.723,36.2855 L 504.438,36.0531
 L 505.188,36.0059 L 505.927,36.1468 L 506.607,36.467 L 507.187,36.9464 L 507.629,37.5547 L 507.906,38.2539
 L 508,39 L 507.906,39.7461 L 507.629,40.4453 L 507.187,41.0536 L 506.607,41.533 L 505.927,41.8532
 L 505.188,41.9941 z
M 612.438,41.9469 L 611.723,41.7145 L 611.088,41.3115 L 610.573,40.7634 L 610.211,40.1044 L 610.024,39.376
 L 610.024,38.624 L 610.211,37.8956 L 610.573,37.2366 L 611.088,36.6885 L 611.723,36.2855 L 612.438,36.0531
 L 613.188,36.0059 L 613.927,36.1468 L 614.607,36.467 L 615.187,36.9464 L 615.629,37.5547 L 615.906,38.2539
 L 616,39 L 615.906,39.7461 L 615.629,40.4453 L 615.187,41.0536 L 614.607,41.533 L 613.927,41.8532
 L 613.188,41.9941 z
M 1993,-29.5 L 2081,-29.5 L 2081,-40 L 2080.84,-41.2435 L 2080.38,-42.4088 L 2079.64,-43.4227
 L 2078.68,-44.2216 L 2077.55,-44.7553 L 2076,-45 L 1966,-45 L 1964.76,-44.8429 L 1963.59,-44.3815
 L 1962.58,-43.6448 L 1961.78,-42.6791 L 1961.24,-41.5451 L 1961,-40 L 1961,-22.5 L 1976,-22.5
 L 1976,-12.5 L 1993,-12.5 z
M 1966.44,-36.0531 L 1965.72,-36.2855 L 1965.09,-36.6885 L 1964.57,-37.2366 L 1964.21,-37.8956 L 1964.02,-38.624
 L 1964.02,-39.376 L 1964.21,-40.1044 L 1964.57,-40.7634 L 1965.09,-41.3115 L 1965.72,-41.7145 L 1966.44,-41.9469
 L 1967.19,-41.9941 L 1967.93,-41.8532 L 1968.61,-41.533 L 1969.19,-41.0536 L 1969.63,-40.4453 L 1969.91,-39.7461
 L 1970,-39 L 1969.91,-38.2539 L 1969.63,-37.5547 L 1969.19,-36.9464 L 1968.61,-36.467 L 1967.93,-36.1468
 L 1967.19,-36.0059 z
M 2074.44,-36.0531 L 2073.72,-36.2855 L 2073.09,-36.6885 L 2072.57,-37.2366 L 2072.21,-37.8956 L 2072.02,-38.624
 L 2072.02,-39.376 L 2072.21,-40.1044 L 2072.57,-40.7634 L 2073.09,-41.3115 L 2073.72,-41.7145 L 2074.44,-41.9469
 L 2075.19,-41.9941 L 2075.93,-41.8532 L 2076.61,-41.533 L 2077.19,-41.0536 L 2077.63,-40.4453 L 2077.91,-39.7461
 L 2078,-39 L 2077.91,-38.2539 L 2077.63,-37.5547 L 2077.19,-36.9464 L 2076.61,-36.467 L 2075.93,-36.1468
 L 2075.19,-36.0059 z
M 1215.24,44.8429 L 1216.41,44.3815 L 1217.42,43.6448 L 1218.22,42.6791 L 1218.76,41.5451 L 1219,40
 L 1219,-40 L 1218.84,-41.2435 L 1218.38,-42.4088 L 1217.64,-43.4227 L 1216.68,-44.2216 L 1215.55,-44.7553
 L 1214,-45 L 1104,-45 L 1102.76,-44.8429 L 1101.59,-44.3815 L 1100.58,-43.6448 L 1099.78,-42.6791
 L 1099.24,-41.5451 L 1099,-40 L 1099,40 L 1099.16,41.2435 L 1099.62,42.4088 L 1100.36,43.4227
 L 1101.32,44.2216 L 1102.45,44.7553 L 1104,45 L 1214,45 z
M 1104.44,-36.0531 L 1103.72,-36.2855 L 1103.09,-36.6885 L 1102.57,-37.2366 L 1102.21,-37.8956 L 1102.02,-38.624
 L 1102.02,-39.376 L 1102.21,-40.1044 L 1102.57,-40.7634 L 1103.09,-41.3115 L 1103.72,-41.7145 L 1104.44,-41.9469
 L 1105.19,-41.9941 L 1105.93,-41.8532 L 1106.61,-41.533 L 1107.19,-41.0536 L 1107.63,-40.4453 L 1107.91,-39.7461
 L 1108,-39 L 1107.91,-38.2539 L 1107.63,-37.5547 L 1107.19,-36.9464 L 1106.61,-36.467 L 1105.93,-36.1468
 L 1105.19,-36.0059 z
M 1212.44,-36.0531 L 1211.72,-36.2855 L 1211.09,-36.6885 L 1210.57,-37.2366 L 1210.21,-37.8956 L 1210.02,-38.624
 L 1210.02,-39.376 L 1210.21,-40.1044 L 1210.57,-40.7634 L 1211.09,-41.3115 L 1211.72,-41.7145 L 1212.44,-41.9469
 L 1213.19,-41.9941 L 1213.93,-41.8532 L 1214.61,-41.533 L 1215.19,-41.0536 L 1215.63,-40.4453 L 1215.91,-39.7461
 L 1216,-39 L 1215.91,-38.2539 L 1215.63,-37.5547 L 1215.19,-36.9464 L 1214.61,-36.467 L 1213.93,-36.1468
 L 1213.19,-36.0059 z
M 1106,12.5 L 1106,-12.5 L 1131,-12.5 L 1131,12.5 z
M 1159.72,1.47342 L 1159.36,1.35724 L 1159.04,1.15576 L 1158.79,0.881668 L 1158.61,0.552185 L 1158.51,0.187988
 L 1158.51,-0.187988 L 1158.61,-0.552185 L 1158.79,-0.881668 L 1159.04,-1.15576 L 1159.36,-1.35724 L 1159.72,-1.47342
 L 1160.09,-1.49704 L 1160.46,-1.42657 L 1160.8,-1.26648 L 1161.09,-1.02681 L 1161.31,-0.722626 L 1161.45,-0.373032
 L 1161.5,-0 L 1161.45,0.373032 L 1161.31,0.722626 L 1161.09,1.02681 L 1160.8,1.26648 L 1160.46,1.42657
 L 1160.09,1.49704 z
M 1189.72,1.47342 L 1189.36,1.35724 L 1189.04,1.15576 L 1188.79,0.881668 L 1188.61,0.552185 L 1188.51,0.187988
 L 1188.51,-0.187988 L 1188.61,-0.552185 L 1188.79,-0.881668 L 1189.04,-1.15576 L 1189.36,-1.35724 L 1189.72,-1.47342
 L 1190.09,-1.49704 L 1190.46,-1.42657 L 1190.8,-1.26648 L 1191.09,-1.02681 L 1191.31,-0.722626 L 1191.45,-0.373032
 L 1191.5,-0 L 1191.45,0.373032 L 1191.31,0.722626 L 1191.09,1.02681 L 1190.8,1.26648 L 1190.46,1.42657
 L 1190.09,1.49704 z
M 1183.72,1.47342 L 1183.36,1.35724 L 1183.04,1.15576 L 1182.79,0.881668 L 1182.61,0.552185 L 1182.51,0.187988
 L 1182.51,-0.187988 L 1182.61,-0.552185 L 1182.79,-0.881668 L 1183.04,-1.15576 L 1183.36,-1.35724 L 1183.72,-1.47342
 L 1184.09,-1.49704 L 1184.46,-1.42657 L 1184.8,-1.26648 L 1185.09,-1.02681 L 1185.31,-0.722626 L 1185.45,-0.373032
 L 1185.5,-0 L 1185.45,0.373032 L 1185.31,0.722626 L 1185.09,1.02681 L 1184.8,1.26648 L 1184.46,1.42657
 L 1184.09,1.49704 z
M 1212.44,41.9469 L 1211.72,41.7145 L 1211.09,41.3115 L 1210.57,40.7634 L 1210.21,40.1044 L 1210.02,39.376
 L 1210.02,38.624 L 1210.21,37.8956 L 1210.57,37.2366 L 1211.09,36.6885 L 1211.72,36.2855 L 1212.44,36.0531
 L 1213.19,36.0059 L 1213.93,36.1468 L 1214.61,36.467 L 1215.19,36.9464 L 1215.63,37.5547 L 1215.91,38.2539
 L 1216,39 L 1215.91,39.7461 L 1215.63,40.4453 L 1215.19,41.0536 L 1214.61,41.533 L 1213.93,41.8532
 L 1213.19,41.9941 z
M 1104.44,41.9469 L 1103.72,41.7145 L 1103.09,41.3115 L 1102.57,40.7634 L 1102.21,40.1044 L 1102.02,39.376
 L 1102.02,38.624 L 1102.21,37.8956 L 1102.57,37.2366 L 1103.09,36.6885 L 1103.72,36.2855 L 1104.44,36.0531
 L 1105.19,36.0059 L 1105.93,36.1468 L 1106.61,36.467 L 1107.19,36.9464 L 1107.63,37.5547 L 1107.91,38.2539
 L 1108,39 L 1107.91,39.7461 L 1107.63,40.4453 L 1107.19,41.0536 L 1106.61,41.533 L 1105.93,41.8532
 L 1105.19,41.9941 z
M 2323.24,44.8429 L 2324.41,44.3815 L 2325.42,43.6448 L 2326.22,42.6791 L 2326.76,41.5451 L 2327,40
 L 2327,29.5 L 2239,29.5 L 2239,12.5 L 2214,12.5 L 2214,-12.5 L 2239,-12.5
 L 2239,-29.5 L 2327,-29.5 L 2327,-40 L 2326.84,-41.2435 L 2326.38,-42.4088 L 2325.64,-43.4227
 L 2324.68,-44.2216 L 2323.55,-44.7553 L 2322,-45 L 2212,-45 L 2210.76,-44.8429 L 2209.59,-44.3815
 L 2208.58,-43.6448 L 2207.78,-42.6791 L 2207.24,-41.5451 L 2207,-40 L 2207,40 L 2207.16,41.2435
 L 2207.62,42.4088 L 2208.36,43.4227 L 2209.32,44.2216 L 2210.45,44.7553 L 2212,45 L 2322,45
 z
M 2320.44,-36.0531 L 2319.72,-36.2855 L 2319.09,-36.6885 L 2318.57,-37.2366 L 2318.21,-37.8956 L 2318.02,-38.624
 L 2318.02,-39.376 L 2318.21,-40.1044 L 2318.57,-40.7634 L 2319.09,-41.3115 L 2319.72,-41.7145 L 2320.44,-41.9469
 L 2321.19,-41.9941 L 2321.93,-41.8532 L 2322.61,-41.533 L 2323.19,-41.0536 L 2323.63,-40.4453 L 2323.91,-39.7461
 L 2324,-39 L 2323.91,-38.2539 L 2323.63,-37.5547 L 2323.19,-36.9464 L 2322.61,-36.467 L 2321.93,-36.1468
 L 2321.19,-36.0059 z
M 2212.44,-36.0531 L 2211.72,-36.2855 L 2211.09,-36.6885 L 2210.57,-37.2366 L 2210.21,-37.8956 L 2210.02,-38.624
 L 2210.02,-39.376 L 2210.21,-40.1044 L 2210.57,-40.7634 L 2211.09,-41.3115 L 2211.72,-41.7145 L 2212.44,-41.9469
 L 2213.19,-41.9941 L 2213.93,-41.8532 L 2214.61,-41.533 L 2215.19,-41.0536 L 2215.63,-40.4453 L 2215.91,-39.7461
 L 2216,-39 L 2215.91,-38.2539 L 2215.63,-37.5547 L 2215.19,-36.9464 L 2214.61,-36.467 L 2213.93,-36.1468
 L 2213.19,-36.0059 z
M 2320.44,41.9469 L 2319.72,41.7145 L 2319.09,41.3115 L 2318.57,40.7634 L 2318.21,40.1044 L 2318.02,39.376
 L 2318.02,38.624 L 2318.21,37.8956 L 2318.57,37.2366 L 2319.09,36.6885 L 2319.72,36.2855 L 2320.44,36.0531
 L 2321.19,36.0059 L 2321.93,36.1468 L 2322.61,36.467 L 2323.19,36.9464 L 2323.63,37.5547 L 2323.91,38.2539
 L 2324,39 L 2323.91,39.7461 L 2323.63,40.4453 L 2323.19,41.0536 L 2322.61,41.533 L 2321.93,41.8532
 L 2321.19,41.9941 z
M 2212.44,41.9469 L 2211.72,41.7145 L 2211.09,41.3115 L 2210.57,40.7634 L 2210.21,40.1044 L 2210.02,39.376
 L 2210.02,38.624 L 2210.21,37.8956 L 2210.57,37.2366 L 2211.09,36.6885 L 2211.72,36.2855 L 2212.44,36.0531
 L 2213.19,36.0059 L 2213.93,36.1468 L 2214.61,36.467 L 2215.19,36.9464 L 2215.63,37.5547 L 2215.91,38.2539
 L 2216,39 L 2215.91,39.7461 L 2215.63,40.4453 L 2215.19,41.0536 L 2214.61,41.533 L 2213.93,41.8532
 L 2213.19,41.9941 z
M 2116,-29.5 L 2204,-29.5 L 2204,-40 L 2203.84,-41.2435 L 2203.38,-42.4088 L 2202.64,-43.4227
 L 2201.68,-44.2216 L 2200.55,-44.7553 L 2199,-45 L 2089,-45 L 2087.76,-44.8429 L 2086.59,-44.3815
 L 2085.58,-43.6448 L 2084.78,-42.6791 L 2084.24,-41.5451 L 2084,-40 L 2084,-22.5 L 2099,-22.5
 L 2099,-12.5 L 2116,-12.5 z
M 2089.44,-36.0531 L 2088.72,-36.2855 L 2088.09,-36.6885 L 2087.57,-37.2366 L 2087.21,-37.8956 L 2087.02,-38.624
 L 2087.02,-39.376 L 2087.21,-40.1044 L 2087.57,-40.7634 L 2088.09,-41.3115 L 2088.72,-41.7145 L 2089.44,-41.9469
 L 2090.19,-41.9941 L 2090.93,-41.8532 L 2091.61,-41.533 L 2092.19,-41.0536 L 2092.63,-40.4453 L 2092.91,-39.7461
 L 2093,-39 L 2092.91,-38.2539 L 2092.63,-37.5547 L 2092.19,-36.9464 L 2091.61,-36.467 L 2090.93,-36.1468
 L 2090.19,-36.0059 z
M 2197.44,-36.0531 L 2196.72,-36.2855 L 2196.09,-36.6885 L 2195.57,-37.2366 L 2195.21,-37.8956 L 2195.02,-38.624
 L 2195.02,-39.376 L 2195.21,-40.1044 L 2195.57,-40.7634 L 2196.09,-41.3115 L 2196.72,-41.7145 L 2197.44,-41.9469
 L 2198.19,-41.9941 L 2198.93,-41.8532 L 2199.61,-41.533 L 2200.19,-41.0536 L 2200.63,-40.4453 L 2200.91,-39.7461
 L 2201,-39 L 2200.91,-38.2539 L 2200.63,-37.5547 L 2200.19,-36.9464 L 2199.61,-36.467 L 2198.93,-36.1468
 L 2198.19,-36.0059 z
M 415.243,44.8429 L 416.409,44.3815 L 417.423,43.6448 L 418.222,42.6791 L 418.755,41.5451 L 419,40
 L 419,-40 L 418.843,-41.2435 L 418.382,-42.4088 L 417.645,-43.4227 L 416.679,-44.2216 L 415.545,-44.7553
 L 414,-45 L 304,-45 L 302.757,-44.8429 L 301.591,-44.3815 L 300.577,-43.6448 L 299.778,-42.6791
 L 299.245,-41.5451 L 299,-40 L 299,-21.5 L 384.5,-21.5 L 384.5,-21.3726 L 385.85,-21.4576
 L 391.144,-20.4477 L 396.02,-18.153 L 400.173,-14.7178 L 403.341,-10.3577 L 405.325,-5.34683 L 406,-0
 L 405.325,5.34683 L 403.341,10.3577 L 400.173,14.7178 L 396.02,18.153 L 391.144,20.4477 L 385.85,21.4576
 L 384.5,21.3726 L 384.5,21.5 L 299,21.5 L 299,40 L 299.157,41.2435 L 299.618,42.4088
 L 300.355,43.4227 L 301.321,44.2216 L 302.455,44.7553 L 304,45 L 414,45 z
M 412.438,-36.0531 L 411.723,-36.2855 L 411.088,-36.6885 L 410.573,-37.2366 L 410.211,-37.8956 L 410.024,-38.624
 L 410.024,-39.376 L 410.211,-40.1044 L 410.573,-40.7634 L 411.088,-41.3115 L 411.723,-41.7145 L 412.438,-41.9469
 L 413.188,-41.9941 L 413.927,-41.8532 L 414.607,-41.533 L 415.187,-41.0536 L 415.629,-40.4453 L 415.906,-39.7461
 L 416,-39 L 415.906,-38.2539 L 415.629,-37.5547 L 415.187,-36.9464 L 414.607,-36.467 L 413.927,-36.1468
 L 413.188,-36.0059 z
M 304.438,-36.0531 L 303.723,-36.2855 L 303.088,-36.6885 L 302.573,-37.2366 L 302.211,-37.8956 L 302.024,-38.624
 L 302.024,-39.376 L 302.211,-40.1044 L 302.573,-40.7634 L 303.088,-41.3115 L 303.723,-41.7145 L 304.438,-41.9469
 L 305.188,-41.9941 L 305.927,-41.8532 L 306.607,-41.533 L 307.187,-41.0536 L 307.629,-40.4453 L 307.906,-39.7461
 L 308,-39 L 307.906,-38.2539 L 307.629,-37.5547 L 307.187,-36.9464 L 306.607,-36.467 L 305.927,-36.1468
 L 305.188,-36.0059 z
M 304.438,41.9469 L 303.723,41.7145 L 303.088,41.3115 L 302.573,40.7634 L 302.211,40.1044 L 302.024,39.376
 L 302.024,38.624 L 302.211,37.8956 L 302.573,37.2366 L 303.088,36.6885 L 303.723,36.2855 L 304.438,36.0531
 L 305.188,36.0059 L 305.927,36.1468 L 306.607,36.467 L 307.187,36.9464 L 307.629,37.5547 L 307.906,38.2539
 L 308,39 L 307.906,39.7461 L 307.629,40.4453 L 307.187,41.0536 L 306.607,41.533 L 305.927,41.8532
 L 305.188,41.9941 z
M 412.438,41.9469 L 411.723,41.7145 L 411.088,41.3115 L 410.573,40.7634 L 410.211,40.1044 L 410.024,39.376
 L 410.024,38.624 L 410.211,37.8956 L 410.573,37.2366 L 411.088,36.6885 L 411.723,36.2855 L 412.438,36.0531
 L 413.188,36.0059 L 413.927,36.1468 L 414.607,36.467 L 415.187,36.9464 L 415.629,37.5547 L 415.906,38.2539
 L 416,39 L 415.906,39.7461 L 415.629,40.4453 L 415.187,41.0536 L 414.607,41.533 L 413.927,41.8532
 L 413.188,41.9941 z
M 1831.24,44.8429 L 1832.41,44.3815 L 1833.42,43.6448 L 1834.22,42.6791 L 1834.76,41.5451 L 1835,40
 L 1835,-40 L 1834.84,-41.2435 L 1834.38,-42.4088 L 1833.64,-43.4227 L 1832.68,-44.2216 L 1831.55,-44.7553
 L 1830,-45 L 1720,-45 L 1718.76,-44.8429 L 1717.59,-44.3815 L 1716.58,-43.6448 L 1715.78,-42.6791
 L 1715.24,-41.5451 L 1715,-40 L 1715,-22.5 L 1730,-22.5 L 1730,-12.5 L 1730.99,-12.5
 L 1730.99,-13.005 L 1731.09,-13.623 L 1731.31,-14.0766 L 1731.63,-14.4629 L 1732.03,-14.7576 L 1732.5,-14.9422
 L 1732.99,-15.005 L 1816.01,-15.005 L 1816.62,-14.9071 L 1817.08,-14.6936 L 1817.46,-14.3741 L 1817.76,-13.9685
 L 1817.94,-13.5024 L 1818.01,-13.005 L 1818.01,13.005 L 1817.91,13.623 L 1817.69,14.0766 L 1817.37,14.4629
 L 1816.97,14.7576 L 1816.5,14.9422 L 1816.01,15.005 L 1801.99,15.005 L 1801.38,14.9071 L 1800.92,14.6936
 L 1800.54,14.3741 L 1800.24,13.9685 L 1800.06,13.5024 L 1799.99,13.005 L 1799.99,5.99501 L 1800.09,5.37698
 L 1800.31,4.92336 L 1800.63,4.53708 L 1801.03,4.2424 L 1801.5,4.05785 L 1801.99,3.99501 L 1808.99,3.99501
 L 1808.99,-3.99501 L 1747,-3.99501 L 1747,3.99501 L 1769.01,3.99501 L 1769.62,4.0929 L 1770.08,4.30635
 L 1770.46,4.62592 L 1770.76,5.03151 L 1770.94,5.49763 L 1771.01,5.99501 L 1771.01,13.005 L 1770.91,13.623
 L 1770.69,14.0766 L 1770.37,14.4629 L 1769.97,14.7576 L 1769.5,14.9422 L 1769.01,15.005 L 1732.99,15.005
 L 1732.38,14.9071 L 1731.92,14.6936 L 1731.54,14.3741 L 1731.24,13.9685 L 1731.06,13.5024 L 1730.99,13.005
 L 1730.99,12.5 L 1730,12.5 L 1730,22.5 L 1715,22.5 L 1715,40 L 1715.16,41.2435
 L 1715.62,42.4088 L 1716.36,43.4227 L 1717.32,44.2216 L 1718.45,44.7553 L 1720,45 L 1830,45
 z
M 1828.44,-36.0531 L 1827.72,-36.2855 L 1827.09,-36.6885 L 1826.57,-37.2366 L 1826.21,-37.8956 L 1826.02,-38.624
 L 1826.02,-39.376 L 1826.21,-40.1044 L 1826.57,-40.7634 L 1827.09,-41.3115 L 1827.72,-41.7145 L 1828.44,-41.9469
 L 1829.19,-41.9941 L 1829.93,-41.8532 L 1830.61,-41.533 L 1831.19,-41.0536 L 1831.63,-40.4453 L 1831.91,-39.7461
 L 1832,-39 L 1831.91,-38.2539 L 1831.63,-37.5547 L 1831.19,-36.9464 L 1830.61,-36.467 L 1829.93,-36.1468
 L 1829.19,-36.0059 z
M 1720.44,-36.0531 L 1719.72,-36.2855 L 1719.09,-36.6885 L 1718.57,-37.2366 L 1718.21,-37.8956 L 1718.02,-38.624
 L 1718.02,-39.376 L 1718.21,-40.1044 L 1718.57,-40.7634 L 1719.09,-41.3115 L 1719.72,-41.7145 L 1720.44,-41.9469
 L 1721.19,-41.9941 L 1721.93,-41.8532 L 1722.61,-41.533 L 1723.19,-41.0536 L 1723.63,-40.4453 L 1723.91,-39.7461
 L 1724,-39 L 1723.91,-38.2539 L 1723.63,-37.5547 L 1723.19,-36.9464 L 1722.61,-36.467 L 1721.93,-36.1468
 L 1721.19,-36.0059 z
M 1798.41,2.75006 L 1796.82,-0 L 1798.41,-2.75006 L 1801.59,-2.75006 L 1803.18,-0 L 1801.59,2.75006
 z
M 1805.72,1.47342 L 1805.36,1.35724 L 1805.04,1.15576 L 1804.79,0.881668 L 1804.61,0.552185 L 1804.51,0.187988
 L 1804.51,-0.187988 L 1804.61,-0.552185 L 1804.79,-0.881668 L 1805.04,-1.15576 L 1805.36,-1.35724 L 1805.72,-1.47342
 L 1806.09,-1.49704 L 1806.46,-1.42657 L 1806.8,-1.26648 L 1807.09,-1.02681 L 1807.31,-0.722626 L 1807.45,-0.373032
 L 1807.5,-0 L 1807.45,0.373032 L 1807.31,0.722626 L 1807.09,1.02681 L 1806.8,1.26648 L 1806.46,1.42657
 L 1806.09,1.49704 z
M 1775.72,1.47342 L 1775.36,1.35724 L 1775.04,1.15576 L 1774.79,0.881668 L 1774.61,0.552185 L 1774.51,0.187988
 L 1774.51,-0.187988 L 1774.61,-0.552185 L 1774.79,-0.881668 L 1775.04,-1.15576 L 1775.36,-1.35724 L 1775.72,-1.47342
 L 1776.09,-1.49704 L 1776.46,-1.42657 L 1776.8,-1.26648 L 1777.09,-1.02681 L 1777.31,-0.722626 L 1777.45,-0.373032
 L 1777.5,-0 L 1777.45,0.373032 L 1777.31,0.722626 L 1777.09,1.02681 L 1776.8,1.26648 L 1776.46,1.42657
 L 1776.09,1.49704 z
M 1828.44,41.9469 L 1827.72,41.7145 L 1827.09,41.3115 L 1826.57,40.7634 L 1826.21,40.1044 L 1826.02,39.376
 L 1826.02,38.624 L 1826.21,37.8956 L 1826.57,37.2366 L 1827.09,36.6885 L 1827.72,36.2855 L 1828.44,36.0531
 L 1829.19,36.0059 L 1829.93,36.1468 L 1830.61,36.467 L 1831.19,36.9464 L 1831.63,37.5547 L 1831.91,38.2539
 L 1832,39 L 1831.91,39.7461 L 1831.63,40.4453 L 1831.19,41.0536 L 1830.61,41.533 L 1829.93,41.8532
 L 1829.19,41.9941 z
M 1720.44,41.9469 L 1719.72,41.7145 L 1719.09,41.3115 L 1718.57,40.7634 L 1718.21,40.1044 L 1718.02,39.376
 L 1718.02,38.624 L 1718.21,37.8956 L 1718.57,37.2366 L 1719.09,36.6885 L 1719.72,36.2855 L 1720.44,36.0531
 L 1721.19,36.0059 L 1721.93,36.1468 L 1722.61,36.467 L 1723.19,36.9464 L 1723.63,37.5547 L 1723.91,38.2539
 L 1724,39 L 1723.91,39.7461 L 1723.63,40.4453 L 1723.19,41.0536 L 1722.61,41.533 L 1721.93,41.8532
 L 1721.19,41.9941 z
M 815.243,44.8429 L 816.409,44.3815 L 817.423,43.6448 L 818.222,42.6791 L 818.755,41.5451 L 819,40
 L 819,-40 L 818.843,-41.2435 L 818.382,-42.4088 L 817.645,-43.4227 L 816.679,-44.2216 L 815.545,-44.7553
 L 814,-45 L 704,-45 L 702.757,-44.8429 L 701.591,-44.3815 L 700.577,-43.6448 L 699.778,-42.6791
 L 699.245,-41.5451 L 699,-40 L 699,40 L 699.157,41.2435 L 699.618,42.4088 L 700.355,43.4227
 L 701.321,44.2216 L 702.455,44.7553 L 704,45 L 814,45 z
M 812.438,-36.0531 L 811.723,-36.2855 L 811.088,-36.6885 L 810.573,-37.2366 L 810.211,-37.8956 L 810.024,-38.624
 L 810.024,-39.376 L 810.211,-40.1044 L 810.573,-40.7634 L 811.088,-41.3115 L 811.723,-41.7145 L 812.438,-41.9469
 L 813.188,-41.9941 L 813.927,-41.8532 L 814.607,-41.533 L 815.187,-41.0536 L 815.629,-40.4453 L 815.906,-39.7461
 L 816,-39 L 815.906,-38.2539 L 815.629,-37.5547 L 815.187,-36.9464 L 814.607,-36.467 L 813.927,-36.1468
 L 813.188,-36.0059 z
M 704.438,-36.0531 L 703.723,-36.2855 L 703.088,-36.6885 L 702.573,-37.2366 L 702.211,-37.8956 L 702.024,-38.624
 L 702.024,-39.376 L 702.211,-40.1044 L 702.573,-40.7634 L 703.088,-41.3115 L 703.723,-41.7145 L 704.438,-41.9469
 L 705.188,-41.9941 L 705.927,-41.8532 L 706.607,-41.533 L 707.187,-41.0536 L 707.629,-40.4453 L 707.906,-39.7461
 L 708,-39 L 707.906,-38.2539 L 707.629,-37.5547 L 707.187,-36.9464 L 706.607,-36.467 L 705.927,-36.1468
 L 705.188,-36.0059 z
M 706,12.5 L 706,-12.5 L 731,-12.5 L 731,12.5 z
M 783.719,1.47342 L 783.361,1.35724 L 783.044,1.15576 L 782.786,0.881668 L 782.605,0.552185 L 782.512,0.187988
 L 782.512,-0.187988 L 782.605,-0.552185 L 782.786,-0.881668 L 783.044,-1.15576 L 783.361,-1.35724 L 783.719,-1.47342
 L 784.094,-1.49704 L 784.464,-1.42657 L 784.804,-1.26648 L 785.093,-1.02681 L 785.314,-0.722626 L 785.453,-0.373032
 L 785.5,-0 L 785.453,0.373032 L 785.314,0.722626 L 785.093,1.02681 L 784.804,1.26648 L 784.464,1.42657
 L 784.094,1.49704 z
M 789.719,1.47342 L 789.361,1.35724 L 789.044,1.15576 L 788.786,0.881668 L 788.605,0.552185 L 788.512,0.187988
 L 788.512,-0.187988 L 788.605,-0.552185 L 788.786,-0.881668 L 789.044,-1.15576 L 789.361,-1.35724 L 789.719,-1.47342
 L 790.094,-1.49704 L 790.464,-1.42657 L 790.804,-1.26648 L 791.093,-1.02681 L 791.314,-0.722626 L 791.453,-0.373032
 L 791.5,-0 L 791.453,0.373032 L 791.314,0.722626 L 791.093,1.02681 L 790.804,1.26648 L 790.464,1.42657
 L 790.094,1.49704 z
M 759.719,1.47342 L 759.361,1.35724 L 759.044,1.15576 L 758.786,0.881668 L 758.605,0.552185 L 758.512,0.187988
 L 758.512,-0.187988 L 758.605,-0.552185 L 758.786,-0.881668 L 759.044,-1.15576 L 759.361,-1.35724 L 759.719,-1.47342
 L 760.094,-1.49704 L 760.464,-1.42657 L 760.804,-1.26648 L 761.093,-1.02681 L 761.314,-0.722626 L 761.453,-0.373032
 L 761.5,-0 L 761.453,0.373032 L 761.314,0.722626 L 761.093,1.02681 L 760.804,1.26648 L 760.464,1.42657
 L 760.094,1.49704 z
M 704.438,41.9469 L 703.723,41.7145 L 703.088,41.3115 L 702.573,40.7634 L 702.211,40.1044 L 702.024,39.376
 L 702.024,38.624 L 702.211,37.8956 L 702.573,37.2366 L 703.088,36.6885 L 703.723,36.2855 L 704.438,36.0531
 L 705.188,36.0059 L 705.927,36.1468 L 706.607,36.467 L 707.187,36.9464 L 707.629,37.5547 L 707.906,38.2539
 L 708,39 L 707.906,39.7461 L 707.629,40.4453 L 707.187,41.0536 L 706.607,41.533 L 705.927,41.8532
 L 705.188,41.9941 z
M 812.438,41.9469 L 811.723,41.7145 L 811.088,41.3115 L 810.573,40.7634 L 810.211,40.1044 L 810.024,39.376
 L 810.024,38.624 L 810.211,37.8956 L 810.573,37.2366 L 811.088,36.6885 L 811.723,36.2855 L 812.438,36.0531
 L 813.188,36.0059 L 813.927,36.1468 L 814.607,36.467 L 815.187,36.9464 L 815.629,37.5547 L 815.906,38.2539
 L 816,39 L 815.906,39.7461 L 815.629,40.4453 L 815.187,41.0536 L 814.607,41.533 L 813.927,41.8532
 L 813.188,41.9941 z
M 1585.24,44.8429 L 1586.41,44.3815 L 1587.42,43.6448 L 1588.22,42.6791 L 1588.76,41.5451 L 1589,40
 L 1589,-40 L 1588.84,-41.2435 L 1588.38,-42.4088 L 1587.64,-43.4227 L 1586.68,-44.2216 L 1585.55,-44.7553
 L 1584,-45 L 1474,-45 L 1472.76,-44.8429 L 1471.59,-44.3815 L 1470.58,-43.6448 L 1469.78,-42.6791
 L 1469.24,-41.5451 L 1469,-40 L 1469,-34 L 1580,-34 L 1580,34 L 1469,34
 L 1469,40 L 1469.16,41.2435 L 1469.62,42.4088 L 1470.36,43.4227 L 1471.32,44.2216 L 1472.45,44.7553
 L 1474,45 L 1584,45 z
M 1474.44,-36.0531 L 1473.72,-36.2855 L 1473.09,-36.6885 L 1472.57,-37.2366 L 1472.21,-37.8956 L 1472.02,-38.624
 L 1472.02,-39.376 L 1472.21,-40.1044 L 1472.57,-40.7634 L 1473.09,-41.3115 L 1473.72,-41.7145 L 1474.44,-41.9469
 L 1475.19,-41.9941 L 1475.93,-41.8532 L 1476.61,-41.533 L 1477.19,-41.0536 L 1477.63,-40.4453 L 1477.91,-39.7461
 L 1478,-39 L 1477.91,-38.2539 L 1477.63,-37.5547 L 1477.19,-36.9464 L 1476.61,-36.467 L 1475.93,-36.1468
 L 1475.19,-36.0059 z
M 1582.44,-36.0531 L 1581.72,-36.2855 L 1581.09,-36.6885 L 1580.57,-37.2366 L 1580.21,-37.8956 L 1580.02,-38.624
 L 1580.02,-39.376 L 1580.21,-40.1044 L 1580.57,-40.7634 L 1581.09,-41.3115 L 1581.72,-41.7145 L 1582.44,-41.9469
 L 1583.19,-41.9941 L 1583.93,-41.8532 L 1584.61,-41.533 L 1585.19,-41.0536 L 1585.63,-40.4453 L 1585.91,-39.7461
 L 1586,-39 L 1585.91,-38.2539 L 1585.63,-37.5547 L 1585.19,-36.9464 L 1584.61,-36.467 L 1583.93,-36.1468
 L 1583.19,-36.0059 z
M 1474.44,41.9469 L 1473.72,41.7145 L 1473.09,41.3115 L 1472.57,40.7634 L 1472.21,40.1044 L 1472.02,39.376
 L 1472.02,38.624 L 1472.21,37.8956 L 1472.57,37.2366 L 1473.09,36.6885 L 1473.72,36.2855 L 1474.44,36.0531
 L 1475.19,36.0059 L 1475.93,36.1468 L 1476.61,36.467 L 1477.19,36.9464 L 1477.63,37.5547 L 1477.91,38.2539
 L 1478,39 L 1477.91,39.7461 L 1477.63,40.4453 L 1477.19,41.0536 L 1476.61,41.533 L 1475.93,41.8532
 L 1475.19,41.9941 z
M 1582.44,41.9469 L 1581.72,41.7145 L 1581.09,41.3115 L 1580.57,40.7634 L 1580.21,40.1044 L 1580.02,39.376
 L 1580.02,38.624 L 1580.21,37.8956 L 1580.57,37.2366 L 1581.09,36.6885 L 1581.72,36.2855 L 1582.44,36.0531
 L 1583.19,36.0059 L 1583.93,36.1468 L 1584.61,36.467 L 1585.19,36.9464 L 1585.63,37.5547 L 1585.91,38.2539
 L 1586,39 L 1585.91,39.7461 L 1585.63,40.4453 L 1585.19,41.0536 L 1584.61,41.533 L 1583.93,41.8532
 L 1583.19,41.9941 z
M 1708.24,44.8429 L 1709.41,44.3815 L 1710.42,43.6448 L 1711.22,42.6791 L 1711.76,41.5451 L 1712,40
 L 1712,-40 L 1711.84,-41.2435 L 1711.38,-42.4088 L 1710.64,-43.4227 L 1709.68,-44.2216 L 1708.55,-44.7553
 L 1707,-45 L 1597,-45 L 1595.76,-44.8429 L 1594.59,-44.3815 L 1593.58,-43.6448 L 1592.78,-42.6791
 L 1592.24,-41.5451 L 1592,-40 L 1592,-29 L 1642,-29 L 1642,-27 L 1592,-27
 L 1592,-22.5 L 1607,-22.5 L 1607,-12.5 L 1607.99,-12.5 L 1607.99,-13.005 L 1608.09,-13.623
 L 1608.31,-14.0766 L 1608.63,-14.4629 L 1609.03,-14.7576 L 1609.5,-14.9422 L 1609.99,-15.005 L 1693.01,-15.005
 L 1693.62,-14.9071 L 1694.08,-14.6936 L 1694.46,-14.3741 L 1694.76,-13.9685 L 1694.94,-13.5024 L 1695.01,-13.005
 L 1695.01,13.005 L 1694.91,13.623 L 1694.69,14.0766 L 1694.37,14.4629 L 1693.97,14.7576 L 1693.5,14.9422
 L 1693.01,15.005 L 1678.99,15.005 L 1678.38,14.9071 L 1677.92,14.6936 L 1677.54,14.3741 L 1677.24,13.9685
 L 1677.06,13.5024 L 1676.99,13.005 L 1676.99,5.99501 L 1677.09,5.37698 L 1677.31,4.92336 L 1677.63,4.53708
 L 1678.03,4.2424 L 1678.5,4.05785 L 1678.99,3.99501 L 1685.99,3.99501 L 1685.99,-3.99501 L 1659.51,-3.99501
 L 1659.51,8.00499 L 1659.41,8.62302 L 1659.19,9.07664 L 1658.87,9.46292 L 1658.47,9.7576 L 1658,9.94215
 L 1657.51,10.005 L 1656.49,10.005 L 1655.88,9.9071 L 1655.42,9.69365 L 1655.04,9.37408 L 1654.74,8.96849
 L 1654.56,8.50237 L 1654.49,8.00499 L 1654.49,2.30412 L 1654.47,2.3219 L 1653.85,2.6154 L 1653.17,2.74457
 L 1652.48,2.70128 L 1651.83,2.48827 L 1651.25,2.1189 L 1650.78,1.61641 L 1650.44,1.01233 L 1650.27,0.344666
 L 1650.27,-0.344666 L 1650.44,-1.01233 L 1650.78,-1.61641 L 1651.25,-2.1189 L 1651.83,-2.48827 L 1652.48,-2.70128
 L 1653.17,-2.74457 L 1653.85,-2.6154 L 1654.47,-2.3219 L 1654.49,-2.30412 L 1654.49,-3.99501 L 1624,-3.99501
 L 1624,3.99501 L 1646.01,3.99501 L 1646.62,4.0929 L 1647.08,4.30635 L 1647.46,4.62592 L 1647.76,5.03151
 L 1647.94,5.49763 L 1648.01,5.99501 L 1648.01,13.005 L 1647.91,13.623 L 1647.69,14.0766 L 1647.37,14.4629
 L 1646.97,14.7576 L 1646.5,14.9422 L 1646.01,15.005 L 1609.99,15.005 L 1609.38,14.9071 L 1608.92,14.6936
 L 1608.54,14.3741 L 1608.24,13.9685 L 1608.06,13.5024 L 1607.99,13.005 L 1607.99,12.5 L 1607,12.5
 L 1607,22.5 L 1592,22.5 L 1592,27 L 1642,27 L 1642,29 L 1592,29
 L 1592,40 L 1592.16,41.2435 L 1592.62,42.4088 L 1593.36,43.4227 L 1594.32,44.2216 L 1595.45,44.7553
 L 1597,45 L 1707,45 z
M 1597.44,-36.0531 L 1596.72,-36.2855 L 1596.09,-36.6885 L 1595.57,-37.2366 L 1595.21,-37.8956 L 1595.02,-38.624
 L 1595.02,-39.376 L 1595.21,-40.1044 L 1595.57,-40.7634 L 1596.09,-41.3115 L 1596.72,-41.7145 L 1597.44,-41.9469
 L 1598.19,-41.9941 L 1598.93,-41.8532 L 1599.61,-41.533 L 1600.19,-41.0536 L 1600.63,-40.4453 L 1600.91,-39.7461
 L 1601,-39 L 1600.91,-38.2539 L 1600.63,-37.5547 L 1600.19,-36.9464 L 1599.61,-36.467 L 1598.93,-36.1468
 L 1598.19,-36.0059 z
M 1705.44,-36.0531 L 1704.72,-36.2855 L 1704.09,-36.6885 L 1703.57,-37.2366 L 1703.21,-37.8956 L 1703.02,-38.624
 L 1703.02,-39.376 L 1703.21,-40.1044 L 1703.57,-40.7634 L 1704.09,-41.3115 L 1704.72,-41.7145 L 1705.44,-41.9469
 L 1706.19,-41.9941 L 1706.93,-41.8532 L 1707.61,-41.533 L 1708.19,-41.0536 L 1708.63,-40.4453 L 1708.91,-39.7461
 L 1709,-39 L 1708.91,-38.2539 L 1708.63,-37.5547 L 1708.19,-36.9464 L 1707.61,-36.467 L 1706.93,-36.1468
 L 1706.19,-36.0059 z
M 1682.48,2.70128 L 1681.83,2.48827 L 1681.25,2.1189 L 1680.78,1.61641 L 1680.44,1.01233 L 1680.27,0.344666
 L 1680.27,-0.344666 L 1680.44,-1.01233 L 1680.78,-1.61641 L 1681.25,-2.1189 L 1681.83,-2.48827 L 1682.48,-2.70128
 L 1683.17,-2.74457 L 1683.85,-2.6154 L 1684.47,-2.3219 L 1685,-1.88249 L 1685.41,-1.32481 L 1685.66,-0.683884
 L 1685.75,-0 L 1685.66,0.683884 L 1685.41,1.32481 L 1685,1.88249 L 1684.47,2.3219 L 1683.85,2.6154
 L 1683.17,2.74457 z
M 1676.72,1.47342 L 1676.36,1.35724 L 1676.04,1.15576 L 1675.79,0.881668 L 1675.61,0.552185 L 1675.51,0.187988
 L 1675.51,-0.187988 L 1675.61,-0.552185 L 1675.79,-0.881668 L 1676.04,-1.15576 L 1676.36,-1.35724 L 1676.72,-1.47342
 L 1677.09,-1.49704 L 1677.46,-1.42657 L 1677.8,-1.26648 L 1678.09,-1.02681 L 1678.31,-0.722626 L 1678.45,-0.373032
 L 1678.5,-0 L 1678.45,0.373032 L 1678.31,0.722626 L 1678.09,1.02681 L 1677.8,1.26648 L 1677.46,1.42657
 L 1677.09,1.49704 z
M 1597.44,41.9469 L 1596.72,41.7145 L 1596.09,41.3115 L 1595.57,40.7634 L 1595.21,40.1044 L 1595.02,39.376
 L 1595.02,38.624 L 1595.21,37.8956 L 1595.57,37.2366 L 1596.09,36.6885 L 1596.72,36.2855 L 1597.44,36.0531
 L 1598.19,36.0059 L 1598.93,36.1468 L 1599.61,36.467 L 1600.19,36.9464 L 1600.63,37.5547 L 1600.91,38.2539
 L 1601,39 L 1600.91,39.7461 L 1600.63,40.4453 L 1600.19,41.0536 L 1599.61,41.533 L 1598.93,41.8532
 L 1598.19,41.9941 z
M 1705.44,41.9469 L 1704.72,41.7145 L 1704.09,41.3115 L 1703.57,40.7634 L 1703.21,40.1044 L 1703.02,39.376
 L 1703.02,38.624 L 1703.21,37.8956 L 1703.57,37.2366 L 1704.09,36.6885 L 1704.72,36.2855 L 1705.44,36.0531
 L 1706.19,36.0059 L 1706.93,36.1468 L 1707.61,36.467 L 1708.19,36.9464 L 1708.63,37.5547 L 1708.91,38.2539
 L 1709,39 L 1708.91,39.7461 L 1708.63,40.4453 L 1708.19,41.0536 L 1707.61,41.533 L 1706.93,41.8532
 L 1706.19,41.9941 z
M 1954.24,44.8429 L 1955.41,44.3815 L 1956.42,43.6448 L 1957.22,42.6791 L 1957.76,41.5451 L 1958,40
 L 1958,-40 L 1957.84,-41.2435 L 1957.38,-42.4088 L 1956.64,-43.4227 L 1955.68,-44.2216 L 1954.55,-44.7553
 L 1953,-45 L 1843,-45 L 1841.76,-44.8429 L 1840.59,-44.3815 L 1839.58,-43.6448 L 1838.78,-42.6791
 L 1838.24,-41.5451 L 1838,-40 L 1838,-22.5 L 1853,-22.5 L 1853,-12.5 L 1870,-12.5
 L 1870,12.5 L 1853,12.5 L 1853,22.5 L 1838,22.5 L 1838,40 L 1838.16,41.2435
 L 1838.62,42.4088 L 1839.36,43.4227 L 1840.32,44.2216 L 1841.45,44.7553 L 1843,45 L 1953,45
 z
M 1843.44,-36.0531 L 1842.72,-36.2855 L 1842.09,-36.6885 L 1841.57,-37.2366 L 1841.21,-37.8956 L 1841.02,-38.624
 L 1841.02,-39.376 L 1841.21,-40.1044 L 1841.57,-40.7634 L 1842.09,-41.3115 L 1842.72,-41.7145 L 1843.44,-41.9469
 L 1844.19,-41.9941 L 1844.93,-41.8532 L 1845.61,-41.533 L 1846.19,-41.0536 L 1846.63,-40.4453 L 1846.91,-39.7461
 L 1847,-39 L 1846.91,-38.2539 L 1846.63,-37.5547 L 1846.19,-36.9464 L 1845.61,-36.467 L 1844.93,-36.1468
 L 1844.19,-36.0059 z
M 1951.44,-36.0531 L 1950.72,-36.2855 L 1950.09,-36.6885 L 1949.57,-37.2366 L 1949.21,-37.8956 L 1949.02,-38.624
 L 1949.02,-39.376 L 1949.21,-40.1044 L 1949.57,-40.7634 L 1950.09,-41.3115 L 1950.72,-41.7145 L 1951.44,-41.9469
 L 1952.19,-41.9941 L 1952.93,-41.8532 L 1953.61,-41.533 L 1954.19,-41.0536 L 1954.63,-40.4453 L 1954.91,-39.7461
 L 1955,-39 L 1954.91,-38.2539 L 1954.63,-37.5547 L 1954.19,-36.9464 L 1953.61,-36.467 L 1952.93,-36.1468
 L 1952.19,-36.0059 z
M 1898.72,1.47342 L 1898.36,1.35724 L 1898.04,1.15576 L 1897.79,0.881668 L 1897.61,0.552185 L 1897.51,0.187988
 L 1897.51,-0.187988 L 1897.61,-0.552185 L 1897.79,-0.881668 L 1898.04,-1.15576 L 1898.36,-1.35724 L 1898.72,-1.47342
 L 1899.09,-1.49704 L 1899.46,-1.42657 L 1899.8,-1.26648 L 1900.09,-1.02681 L 1900.31,-0.722626 L 1900.45,-0.373032
 L 1900.5,-0 L 1900.45,0.373032 L 1900.31,0.722626 L 1900.09,1.02681 L 1899.8,1.26648 L 1899.46,1.42657
 L 1899.09,1.49704 z
M 1922.72,1.47342 L 1922.36,1.35724 L 1922.04,1.15576 L 1921.79,0.881668 L 1921.61,0.552185 L 1921.51,0.187988
 L 1921.51,-0.187988 L 1921.61,-0.552185 L 1921.79,-0.881668 L 1922.04,-1.15576 L 1922.36,-1.35724 L 1922.72,-1.47342
 L 1923.09,-1.49704 L 1923.46,-1.42657 L 1923.8,-1.26648 L 1924.09,-1.02681 L 1924.31,-0.722626 L 1924.45,-0.373032
 L 1924.5,-0 L 1924.45,0.373032 L 1924.31,0.722626 L 1924.09,1.02681 L 1923.8,1.26648 L 1923.46,1.42657
 L 1923.09,1.49704 z
M 1928.72,1.47342 L 1928.36,1.35724 L 1928.04,1.15576 L 1927.79,0.881668 L 1927.61,0.552185 L 1927.51,0.187988
 L 1927.51,-0.187988 L 1927.61,-0.552185 L 1927.79,-0.881668 L 1928.04,-1.15576 L 1928.36,-1.35724 L 1928.72,-1.47342
 L 1929.09,-1.49704 L 1929.46,-1.42657 L 1929.8,-1.26648 L 1930.09,-1.02681 L 1930.31,-0.722626 L 1930.45,-0.373032
 L 1930.5,-0 L 1930.45,0.373032 L 1930.31,0.722626 L 1930.09,1.02681 L 1929.8,1.26648 L 1929.46,1.42657
 L 1929.09,1.49704 z
M 1951.44,41.9469 L 1950.72,41.7145 L 1950.09,41.3115 L 1949.57,40.7634 L 1949.21,40.1044 L 1949.02,39.376
 L 1949.02,38.624 L 1949.21,37.8956 L 1949.57,37.2366 L 1950.09,36.6885 L 1950.72,36.2855 L 1951.44,36.0531
 L 1952.19,36.0059 L 1952.93,36.1468 L 1953.61,36.467 L 1954.19,36.9464 L 1954.63,37.5547 L 1954.91,38.2539
 L 1955,39 L 1954.91,39.7461 L 1954.63,40.4453 L 1954.19,41.0536 L 1953.61,41.533 L 1952.93,41.8532
 L 1952.19,41.9941 z
M 1843.44,41.9469 L 1842.72,41.7145 L 1842.09,41.3115 L 1841.57,40.7634 L 1841.21,40.1044 L 1841.02,39.376
 L 1841.02,38.624 L 1841.21,37.8956 L 1841.57,37.2366 L 1842.09,36.6885 L 1842.72,36.2855 L 1843.44,36.0531
 L 1844.19,36.0059 L 1844.93,36.1468 L 1845.61,36.467 L 1846.19,36.9464 L 1846.63,37.5547 L 1846.91,38.2539
 L 1847,39 L 1846.91,39.7461 L 1846.63,40.4453 L 1846.19,41.0536 L 1845.61,41.533 L 1844.93,41.8532
 L 1844.19,41.9941 z
M 68.2484,42.8479 L 69.4138,42.3865 L 70.4277,41.6498 L 71.2266,40.6841 L 71.7603,39.5501 L 72.005,38.005
 L 72.005,-38.005 L 71.8479,-39.2484 L 71.3865,-40.4138 L 70.6498,-41.4277 L 69.6841,-42.2266 L 68.5501,-42.7603
 L 67.005,-43.005 L -23.005,-43.005 L -24.2484,-42.8479 L -25.4138,-42.3865 L -26.4277,-41.6498 L -27.2266,-40.6841
 L -27.7603,-39.5501 L -28.005,-38.005 L -28.005,-17.255 L -99.2448,-17.255 L -97.6808,-13.3049 L -97.5159,-12
 L -90,-12 L -90,-4 L -96.5053,-4 L -96.379,-3 L -100,-3 L -100,9
 L -97.137,9 L -97.6808,13.3049 L -99.2448,17.255 L -28.005,17.255 L -28.005,38.005 L -27.8479,39.2484
 L -27.3865,40.4138 L -26.6498,41.4277 L -25.6841,42.2266 L -24.5501,42.7603 L -23.005,43.005 L 67.005,43.005
 z
M 11.75,14.5 L 11.75,-14.5 L 32.25,-14.5 L 32.25,-14.3826 L 33.6605,-14.4714 L 37.2307,-13.7903
 L 40.5195,-12.2428 L 43.32,-9.92592 L 45.4564,-6.98543 L 46.7944,-3.606 L 47.25,-0 L 46.7944,3.606
 L 45.4564,6.98543 L 43.32,9.92592 L 40.5195,12.2428 L 37.2307,13.7903 L 33.6605,14.4714 L 32.25,14.3826
 L 32.25,14.5 z
M -30.7688,7 L -30.7688,-7 L -28.9428,-7 L -28.9428,-5 L -30,-5 L -30,5
 L -28.9428,5 L -28.9428,7 z
M 1010,-34 L 895,-34 L 895,-29 L 894,-29 L 894,-27 L 895,-27
 L 895,-22.5 L 894,-22.5 L 894,22.5 L 895,22.5 L 895,27 L 894,27
 L 894,29 L 895,29 L 895,34 L 1010,34 z
M 206.748,73.3479 L 207.914,72.8865 L 208.928,72.1498 L 209.727,71.1841 L 210.26,70.0501 L 210.505,68.505
 L 210.505,-12.505 L 210.348,-13.7484 L 209.887,-14.9138 L 209.15,-15.9277 L 208.184,-16.7266 L 207.05,-17.2603
 L 205.505,-17.505 L 100.656,-17.505 L 102.319,-13.3049 L 102.484,-12 L 110,-12 L 110,-4
 L 103.495,-4 L 103.621,-3 L 100,-3 L 100,9 L 102.863,9 L 102.319,13.3049
 L 97.3824,25.7738 L 95.495,28.3716 L 95.495,68.505 L 95.6521,69.7484 L 96.1135,70.9138 L 96.8502,71.9277
 L 97.8159,72.7266 L 98.9499,73.2603 L 100.495,73.505 L 205.505,73.505 z
M 167.153,7 L 167.153,3.75 L 168.308,3.75 L 168.308,-7 L 171.057,-7 L 171.057,-5
 L 170,-5 L 170,5 L 171.057,5 L 171.057,7 z
M 146.394,64.7944 L 143.015,63.4564 L 140.074,61.32 L 137.757,58.5195 L 136.21,55.2307 L 135.529,51.6605
 L 135.617,50.25 L 135.5,50.25 L 135.5,29.75 L 164.5,29.75 L 164.5,50.25 L 164.383,50.25
 L 164.471,51.6605 L 163.79,55.2307 L 162.243,58.5195 L 159.926,61.32 L 156.985,63.4564 L 153.606,64.7944
 L 150,65.25 z
M 1601.24,3.80421 L 1602.14,3.3773 L 1602.92,2.73817 L 1603.51,1.927 L 1603.87,0.994751 L 1604,-0
 L 1603.87,-0.994751 L 1603.51,-1.927 L 1602.92,-2.73817 L 1602.14,-3.3773 L 1601.24,-3.80421 L 1600.25,-3.9921
 L 1599.25,-3.92914 L 1598.3,-3.61929 L 1597.45,-3.08205 L 1596.76,-2.35114 L 1596.28,-1.47249 L 1596.03,-0.501328
 L 1596.03,0.501328 L 1596.28,1.47249 L 1596.76,2.35114 L 1597.45,3.08205 L 1598.3,3.61929 L 1599.25,3.92914
 L 1600.25,3.9921 z
M 1599.72,1.47342 L 1599.36,1.35724 L 1599.04,1.15576 L 1598.79,0.881668 L 1598.61,0.552185 L 1598.51,0.187988
 L 1598.51,-0.187988 L 1598.61,-0.552185 L 1598.79,-0.881668 L 1599.04,-1.15576 L 1599.36,-1.35724 L 1599.72,-1.47342
 L 1600.09,-1.49704 L 1600.46,-1.42657 L 1600.8,-1.26648 L 1601.09,-1.02681 L 1601.31,-0.722626 L 1601.45,-0.373032
 L 1601.5,-0 L 1601.45,0.373032 L 1601.31,0.722626 L 1601.09,1.02681 L 1600.8,1.26648 L 1600.46,1.42657
 L 1600.09,1.49704 z
M 2077.24,44.8429 L 2078.41,44.3815 L 2079.42,43.6448 L 2080.22,42.6791 L 2080.76,41.5451 L 2081,40
 L 2081,29.5 L 1993,29.5 L 1993,12.5 L 1976,12.5 L 1976,22.5 L 1961,22.5
 L 1961,40 L 1961.16,41.2435 L 1961.62,42.4088 L 1962.36,43.4227 L 1963.32,44.2216 L 1964.45,44.7553
 L 1966,45 L 2076,45 z
M 2074.44,41.9469 L 2073.72,41.7145 L 2073.09,41.3115 L 2072.57,40.7634 L 2072.21,40.1044 L 2072.02,39.376
 L 2072.02,38.624 L 2072.21,37.8956 L 2072.57,37.2366 L 2073.09,36.6885 L 2073.72,36.2855 L 2074.44,36.0531
 L 2075.19,36.0059 L 2075.93,36.1468 L 2076.61,36.467 L 2077.19,36.9464 L 2077.63,37.5547 L 2077.91,38.2539
 L 2078,39 L 2077.91,39.7461 L 2077.63,40.4453 L 2077.19,41.0536 L 2076.61,41.533 L 2075.93,41.8532
 L 2075.19,41.9941 z
M 1966.44,41.9469 L 1965.72,41.7145 L 1965.09,41.3115 L 1964.57,40.7634 L 1964.21,40.1044 L 1964.02,39.376
 L 1964.02,38.624 L 1964.21,37.8956 L 1964.57,37.2366 L 1965.09,36.6885 L 1965.72,36.2855 L 1966.44,36.0531
 L 1967.19,36.0059 L 1967.93,36.1468 L 1968.61,36.467 L 1969.19,36.9464 L 1969.63,37.5547 L 1969.91,38.2539
 L 1970,39 L 1969.91,39.7461 L 1969.63,40.4453 L 1969.19,41.0536 L 1968.61,41.533 L 1967.93,41.8532
 L 1967.19,41.9941 z
M 2200.24,44.8429 L 2201.41,44.3815 L 2202.42,43.6448 L 2203.22,42.6791 L 2203.76,41.5451 L 2204,40
 L 2204,29.5 L 2116,29.5 L 2116,12.5 L 2099,12.5 L 2099,22.5 L 2084,22.5
 L 2084,40 L 2084.16,41.2435 L 2084.62,42.4088 L 2085.36,43.4227 L 2086.32,44.2216 L 2087.45,44.7553
 L 2089,45 L 2199,45 z
M 2197.44,41.9469 L 2196.72,41.7145 L 2196.09,41.3115 L 2195.57,40.7634 L 2195.21,40.1044 L 2195.02,39.376
 L 2195.02,38.624 L 2195.21,37.8956 L 2195.57,37.2366 L 2196.09,36.6885 L 2196.72,36.2855 L 2197.44,36.0531
 L 2198.19,36.0059 L 2198.93,36.1468 L 2199.61,36.467 L 2200.19,36.9464 L 2200.63,37.5547 L 2200.91,38.2539
 L 2201,39 L 2200.91,39.7461 L 2200.63,40.4453 L 2200.19,41.0536 L 2199.61,41.533 L 2198.93,41.8532
 L 2198.19,41.9941 z
M 2089.44,41.9469 L 2088.72,41.7145 L 2088.09,41.3115 L 2087.57,40.7634 L 2087.21,40.1044 L 2087.02,39.376
 L 2087.02,38.624 L 2087.21,37.8956 L 2087.57,37.2366 L 2088.09,36.6885 L 2088.72,36.2855 L 2089.44,36.0531
 L 2090.19,36.0059 L 2090.93,36.1468 L 2091.61,36.467 L 2092.19,36.9464 L 2092.63,37.5547 L 2092.91,38.2539
 L 2093,39 L 2092.91,39.7461 L 2092.63,40.4453 L 2092.19,41.0536 L 2091.61,41.533 L 2090.93,41.8532
 L 2090.19,41.9941 z
" stroke="black" fill="lightgray" stroke-width="0.5"/>
</svg>
