  0
SECTION
  2
BLOCKS
  0
ENDSEC
  0
SECTION
  2
ENTITIES
  0
LINE
  8
0
 10
68.2484
 20
-42.8479
 11
69.4138
 21
-42.3865
  0
LINE
  8
0
 10
69.4138
 20
-42.3865
 11
70.4277
 21
-41.6498
  0
LINE
  8
0
 10
70.4277
 20
-41.6498
 11
71.2266
 21
-40.6841
  0
LINE
  8
0
 10
71.2266
 20
-40.6841
 11
71.7603
 21
-39.5501
  0
LINE
  8
0
 10
71.7603
 20
-39.5501
 11
72.005
 21
-38.005
  0
LINE
  8
0
 10
72.005
 20
-38.005
 11
72.005
 21
38.005
  0
LINE
  8
0
 10
72.005
 20
38.005
 11
71.8479
 21
39.2484
  0
LINE
  8
0
 10
71.8479
 20
39.2484
 11
71.3865
 21
40.4138
  0
LINE
  8
0
 10
71.3865
 20
40.4138
 11
70.6498
 21
41.4277
  0
LINE
  8
0
 10
70.6498
 20
41.4277
 11
69.6841
 21
42.2266
  0
LINE
  8
0
 10
69.6841
 20
42.2266
 11
68.5501
 21
42.7603
  0
LINE
  8
0
 10
68.5501
 20
42.7603
 11
67.005
 21
43.005
  0
LINE
  8
0
 10
67.005
 20
43.005
 11
-23.005
 21
43.005
  0
LINE
  8
0
 10
-23.005
 20
43.005
 11
-24.2484
 21
42.8479
  0
LINE
  8
0
 10
-24.2484
 20
42.8479
 11
-25.4138
 21
42.3865
  0
LINE
  8
0
 10
-25.4138
 20
42.3865
 11
-26.4277
 21
41.6498
  0
LINE
  8
0
 10
-26.4277
 20
41.6498
 11
-27.2266
 21
40.6841
  0
LINE
  8
0
 10
-27.2266
 20
40.6841
 11
-27.7603
 21
39.5501
  0
LINE
  8
0
 10
-27.7603
 20
39.5501
 11
-28.005
 21
38.005
  0
LINE
  8
0
 10
-28.005
 20
38.005
 11
-28.005
 21
17.255
  0
LINE
  8
0
 10
-28.005
 20
17.255
 11
-99.2448
 21
17.255
  0
LINE
  8
0
 10
-99.2448
 20
17.255
 11
-97.6808
 21
13.3049
  0
LINE
  8
0
 10
-97.6808
 20
13.3049
 11
-97.5159
 21
12
  0
LINE
  8
0
 10
-97.5159
 20
12
 11
-90
 21
12
  0
LINE
  8
0
 10
-90
 20
12
 11
-90
 21
4
  0
LINE
  8
0
 10
-90
 20
4
 11
-96.5053
 21
4
  0
LINE
  8
0
 10
-96.5053
 20
4
 11
-96.379
 21
3
  0
LINE
  8
0
 10
-96.379
 20
3
 11
-100
 21
3
  0
LINE
  8
0
 10
-100
 20
3
 11
-100
 21
-9
  0
LINE
  8
0
 10
-100
 20
-9
 11
-97.137
 21
-9
  0
LINE
  8
0
 10
-97.137
 20
-9
 11
-97.6808
 21
-13.3049
  0
LINE
  8
0
 10
-97.6808
 20
-13.3049
 11
-99.2448
 21
-17.255
  0
LINE
  8
0
 10
-99.2448
 20
-17.255
 11
-28.005
 21
-17.255
  0
LINE
  8
0
 10
-28.005
 20
-17.255
 11
-28.005
 21
-38.005
  0
LINE
  8
0
 10
-28.005
 20
-38.005
 11
-27.8479
 21
-39.2484
  0
LINE
  8
0
 10
-27.8479
 20
-39.2484
 11
-27.3865
 21
-40.4138
  0
LINE
  8
0
 10
-27.3865
 20
-40.4138
 11
-26.6498
 21
-41.4277
  0
LINE
  8
0
 10
-26.6498
 20
-41.4277
 11
-25.6841
 21
-42.2266
  0
LINE
  8
0
 10
-25.6841
 20
-42.2266
 11
-24.5501
 21
-42.7603
  0
LINE
  8
0
 10
-24.5501
 20
-42.7603
 11
-23.005
 21
-43.005
  0
LINE
  8
0
 10
-23.005
 20
-43.005
 11
67.005
 21
-43.005
  0
LINE
  8
0
 10
67.005
 20
-43.005
 11
68.2484
 21
-42.8479
  0
LINE
  8
0
 10
11.25
 20
-15
 11
11.25
 21
15
  0
LINE
  8
0
 10
11.25
 20
15
 11
32.75
 21
15
  0
LINE
  8
0
 10
32.75
 20
15
 11
32.75
 21
14.8482
  0
LINE
  8
0
 10
32.75
 20
14.8482
 11
34.6918
 21
14.9704
  0
LINE
  8
0
 10
34.6918
 20
14.9704
 11
38.3853
 21
14.2658
  0
LINE
  8
0
 10
38.3853
 20
14.2658
 11
41.7874
 21
12.6649
  0
LINE
  8
0
 10
41.7874
 20
12.6649
 11
44.6845
 21
10.2682
  0
LINE
  8
0
 10
44.6845
 20
10.2682
 11
46.8946
 21
7.2263
  0
LINE
  8
0
 10
46.8946
 20
7.2263
 11
48.2787
 21
3.73035
  0
LINE
  8
0
 10
48.2787
 20
3.73035
 11
48.75
 21
0
  0
LINE
  8
0
 10
48.75
 20
0
 11
48.2787
 21
-3.73035
  0
LINE
  8
0
 10
48.2787
 20
-3.73035
 11
46.8946
 21
-7.2263
  0
LINE
  8
0
 10
46.8946
 20
-7.2263
 11
44.6845
 21
-10.2682
  0
LINE
  8
0
 10
44.6845
 20
-10.2682
 11
41.7874
 21
-12.6649
  0
LINE
  8
0
 10
41.7874
 20
-12.6649
 11
38.3853
 21
-14.2658
  0
LINE
  8
0
 10
38.3853
 20
-14.2658
 11
34.6918
 21
-14.9704
  0
LINE
  8
0
 10
34.6918
 20
-14.9704
 11
32.75
 21
-14.8482
  0
LINE
  8
0
 10
32.75
 20
-14.8482
 11
32.75
 21
-15
  0
LINE
  8
0
 10
32.75
 20
-15
 11
11.25
 21
-15
  0
LINE
  8
0
 10
-30.7688
 20
-7
 11
-30.7688
 21
7
  0
LINE
  8
0
 10
-30.7688
 20
7
 11
-28.9428
 21
7
  0
LINE
  8
0
 10
-28.9428
 20
7
 11
-28.9428
 21
5
  0
LINE
  8
0
 10
-28.9428
 20
5
 11
-30
 21
5
  0
LINE
  8
0
 10
-30
 20
5
 11
-30
 21
-5
  0
LINE
  8
0
 10
-30
 20
-5
 11
-28.9428
 21
-5
  0
LINE
  8
0
 10
-28.9428
 20
-5
 11
-28.9428
 21
-7
  0
LINE
  8
0
 10
-28.9428
 20
-7
 11
-30.7688
 21
-7
  0
LINE
  8
0
 10
-31.6922
 20
-7
 11
-31.6922
 21
7
  0
LINE
  8
0
 10
-31.6922
 20
7
 11
-31.25
 21
7
  0
LINE
  8
0
 10
-31.25
 20
7
 11
-31.25
 21
-7
  0
LINE
  8
0
 10
-31.25
 20
-7
 11
-31.6922
 21
-7
  0
LINE
  8
0
 10
206.748
 20
-73.3479
 11
207.914
 21
-72.8865
  0
LINE
  8
0
 10
207.914
 20
-72.8865
 11
208.928
 21
-72.1498
  0
LINE
  8
0
 10
208.928
 20
-72.1498
 11
209.727
 21
-71.1841
  0
LINE
  8
0
 10
209.727
 20
-71.1841
 11
210.26
 21
-70.0501
  0
LINE
  8
0
 10
210.26
 20
-70.0501
 11
210.505
 21
-68.505
  0
LINE
  8
0
 10
210.505
 20
-68.505
 11
210.505
 21
12.505
  0
LINE
  8
0
 10
210.505
 20
12.505
 11
210.348
 21
13.7484
  0
LINE
  8
0
 10
210.348
 20
13.7484
 11
209.887
 21
14.9138
  0
LINE
  8
0
 10
209.887
 20
14.9138
 11
209.15
 21
15.9277
  0
LINE
  8
0
 10
209.15
 20
15.9277
 11
208.184
 21
16.7266
  0
LINE
  8
0
 10
208.184
 20
16.7266
 11
207.05
 21
17.2603
  0
LINE
  8
0
 10
207.05
 20
17.2603
 11
205.505
 21
17.505
  0
LINE
  8
0
 10
205.505
 20
17.505
 11
100.656
 21
17.505
  0
LINE
  8
0
 10
100.656
 20
17.505
 11
102.319
 21
13.3049
  0
LINE
  8
0
 10
102.319
 20
13.3049
 11
102.484
 21
12
  0
LINE
  8
0
 10
102.484
 20
12
 11
110
 21
12
  0
LINE
  8
0
 10
110
 20
12
 11
110
 21
4
  0
LINE
  8
0
 10
110
 20
4
 11
103.495
 21
4
  0
LINE
  8
0
 10
103.495
 20
4
 11
103.621
 21
3
  0
LINE
  8
0
 10
103.621
 20
3
 11
100
 21
3
  0
LINE
  8
0
 10
100
 20
3
 11
100
 21
-9
  0
LINE
  8
0
 10
100
 20
-9
 11
102.863
 21
-9
  0
LINE
  8
0
 10
102.863
 20
-9
 11
102.319
 21
-13.3049
  0
LINE
  8
0
 10
102.319
 20
-13.3049
 11
97.3824
 21
-25.7738
  0
LINE
  8
0
 10
97.3824
 20
-25.7738
 11
95.495
 21
-28.3716
  0
LINE
  8
0
 10
95.495
 20
-28.3716
 11
95.495
 21
-68.505
  0
LINE
  8
0
 10
95.495
 20
-68.505
 11
95.6521
 21
-69.7484
  0
LINE
  8
0
 10
95.6521
 20
-69.7484
 11
96.1135
 21
-70.9138
  0
LINE
  8
0
 10
96.1135
 20
-70.9138
 11
96.8502
 21
-71.9277
  0
LINE
  8
0
 10
96.8502
 20
-71.9277
 11
97.8159
 21
-72.7266
  0
LINE
  8
0
 10
97.8159
 20
-72.7266
 11
98.9499
 21
-73.2603
  0
LINE
  8
0
 10
98.9499
 20
-73.2603
 11
100.495
 21
-73.505
  0
LINE
  8
0
 10
100.495
 20
-73.505
 11
205.505
 21
-73.505
  0
LINE
  8
0
 10
205.505
 20
-73.505
 11
206.748
 21
-73.3479
  0
LINE
  8
0
 10
167.153
 20
-7
 11
167.153
 21
-4.75
  0
LINE
  8
0
 10
167.153
 20
-4.75
 11
168.308
 21
-4.75
  0
LINE
  8
0
 10
168.308
 20
-4.75
 11
168.308
 21
7
  0
LINE
  8
0
 10
168.308
 20
7
 11
171.057
 21
7
  0
LINE
  8
0
 10
171.057
 20
7
 11
171.057
 21
5
  0
LINE
  8
0
 10
171.057
 20
5
 11
170
 21
5
  0
LINE
  8
0
 10
170
 20
5
 11
170
 21
-5
  0
LINE
  8
0
 10
170
 20
-5
 11
171.057
 21
-5
  0
LINE
  8
0
 10
171.057
 20
-5
 11
171.057
 21
-7
  0
LINE
  8
0
 10
171.057
 20
-7
 11
167.153
 21
-7
  0
LINE
  8
0
 10
146.27
 20
-66.2787
 11
142.774
 21
-64.8946
  0
LINE
  8
0
 10
142.774
 20
-64.8946
 11
139.732
 21
-62.6845
  0
LINE
  8
0
 10
139.732
 20
-62.6845
 11
137.335
 21
-59.7874
  0
LINE
  8
0
 10
137.335
 20
-59.7874
 11
135.734
 21
-56.3853
  0
LINE
  8
0
 10
135.734
 20
-56.3853
 11
135.03
 21
-52.6918
  0
LINE
  8
0
 10
135.03
 20
-52.6918
 11
135.152
 21
-50.75
  0
LINE
  8
0
 10
135.152
 20
-50.75
 11
135
 21
-50.75
  0
LINE
  8
0
 10
135
 20
-50.75
 11
135
 21
-29.25
  0
LINE
  8
0
 10
135
 20
-29.25
 11
165
 21
-29.25
  0
LINE
  8
0
 10
165
 20
-29.25
 11
165
 21
-50.75
  0
LINE
  8
0
 10
165
 20
-50.75
 11
164.848
 21
-50.75
  0
LINE
  8
0
 10
164.848
 20
-50.75
 11
164.97
 21
-52.6918
  0
LINE
  8
0
 10
164.97
 20
-52.6918
 11
164.266
 21
-56.3853
  0
LINE
  8
0
 10
164.266
 20
-56.3853
 11
162.665
 21
-59.7874
  0
LINE
  8
0
 10
162.665
 20
-59.7874
 11
160.268
 21
-62.6845
  0
LINE
  8
0
 10
160.268
 20
-62.6845
 11
157.226
 21
-64.8946
  0
LINE
  8
0
 10
157.226
 20
-64.8946
 11
153.73
 21
-66.2787
  0
LINE
  8
0
 10
153.73
 20
-66.2787
 11
150
 21
-66.75
  0
LINE
  8
0
 10
150
 20
-66.75
 11
146.27
 21
-66.2787
  0
ENDSEC
  0
SECTION
  2
OBJECTS
  0
DICTIONARY
  0
ENDSEC
  0
EOF
