  0
SECTION
  2
BLOCKS
  0
ENDSEC
  0
SECTION
  2
ENTITIES
  0
LINE
  8
0
 10
15.2435
 20
-44.8429
 11
16.4088
 21
-44.3815
  0
LINE
  8
0
 10
16.4088
 20
-44.3815
 11
17.4227
 21
-43.6448
  0
LINE
  8
0
 10
17.4227
 20
-43.6448
 11
18.2216
 21
-42.6791
  0
LINE
  8
0
 10
18.2216
 20
-42.6791
 11
18.7553
 21
-41.5451
  0
LINE
  8
0
 10
18.7553
 20
-41.5451
 11
19
 21
-40
  0
LINE
  8
0
 10
19
 20
-40
 11
19
 21
40
  0
LINE
  8
0
 10
19
 20
40
 11
18.8429
 21
41.2435
  0
LINE
  8
0
 10
18.8429
 20
41.2435
 11
18.3815
 21
42.4088
  0
LINE
  8
0
 10
18.3815
 20
42.4088
 11
17.6448
 21
43.4227
  0
LINE
  8
0
 10
17.6448
 20
43.4227
 11
16.6791
 21
44.2216
  0
LINE
  8
0
 10
16.6791
 20
44.2216
 11
15.5451
 21
44.7553
  0
LINE
  8
0
 10
15.5451
 20
44.7553
 11
14
 21
45
  0
LINE
  8
0
 10
14
 20
45
 11
-96
 21
45
  0
LINE
  8
0
 10
-96
 20
45
 11
-97.2435
 21
44.8429
  0
LINE
  8
0
 10
-97.2435
 20
44.8429
 11
-98.4088
 21
44.3815
  0
LINE
  8
0
 10
-98.4088
 20
44.3815
 11
-99.4227
 21
43.6448
  0
LINE
  8
0
 10
-99.4227
 20
43.6448
 11
-100.222
 21
42.6791
  0
LINE
  8
0
 10
-100.222
 20
42.6791
 11
-100.755
 21
41.5451
  0
LINE
  8
0
 10
-100.755
 20
41.5451
 11
-101
 21
40
  0
LINE
  8
0
 10
-101
 20
40
 11
-101
 21
21.5
  0
LINE
  8
0
 10
-101
 20
21.5
 11
-86
 21
21.5
  0
LINE
  8
0
 10
-86
 20
21.5
 11
-86
 21
12.5
  0
LINE
  8
0
 10
-86
 20
12.5
 11
-69
 21
12.5
  0
LINE
  8
0
 10
-69
 20
12.5
 11
-69
 21
-12.5
  0
LINE
  8
0
 10
-69
 20
-12.5
 11
-86
 21
-12.5
  0
LINE
  8
0
 10
-86
 20
-12.5
 11
-86
 21
-21.5
  0
LINE
  8
0
 10
-86
 20
-21.5
 11
-101
 21
-21.5
  0
LINE
  8
0
 10
-101
 20
-21.5
 11
-101
 21
-40
  0
LINE
  8
0
 10
-101
 20
-40
 11
-100.843
 21
-41.2435
  0
LINE
  8
0
 10
-100.843
 20
-41.2435
 11
-100.382
 21
-42.4088
  0
LINE
  8
0
 10
-100.382
 20
-42.4088
 11
-99.6448
 21
-43.4227
  0
LINE
  8
0
 10
-99.6448
 20
-43.4227
 11
-98.6791
 21
-44.2216
  0
LINE
  8
0
 10
-98.6791
 20
-44.2216
 11
-97.5451
 21
-44.7553
  0
LINE
  8
0
 10
-97.5451
 20
-44.7553
 11
-96
 21
-45
  0
LINE
  8
0
 10
-96
 20
-45
 11
14
 21
-45
  0
LINE
  8
0
 10
14
 20
-45
 11
15.2435
 21
-44.8429
  0
LINE
  8
0
 10
-95.5621
 20
36.0531
 11
-96.2773
 21
36.2855
  0
LINE
  8
0
 10
-96.2773
 20
36.2855
 11
-96.9123
 21
36.6885
  0
LINE
  8
0
 10
-96.9123
 20
36.6885
 11
-97.427
 21
37.2366
  0
LINE
  8
0
 10
-97.427
 20
37.2366
 11
-97.7893
 21
37.8956
  0
LINE
  8
0
 10
-97.7893
 20
37.8956
 11
-97.9763
 21
38.624
  0
LINE
  8
0
 10
-97.9763
 20
38.624
 11
-97.9763
 21
39.376
  0
LINE
  8
0
 10
-97.9763
 20
39.376
 11
-97.7893
 21
40.1044
  0
LINE
  8
0
 10
-97.7893
 20
40.1044
 11
-97.427
 21
40.7634
  0
LINE
  8
0
 10
-97.427
 20
40.7634
 11
-96.9123
 21
41.3115
  0
LINE
  8
0
 10
-96.9123
 20
41.3115
 11
-96.2773
 21
41.7145
  0
LINE
  8
0
 10
-96.2773
 20
41.7145
 11
-95.5621
 21
41.9469
  0
LINE
  8
0
 10
-95.5621
 20
41.9469
 11
-94.8116
 21
41.9941
  0
LINE
  8
0
 10
-94.8116
 20
41.9941
 11
-94.073
 21
41.8532
  0
LINE
  8
0
 10
-94.073
 20
41.8532
 11
-93.3925
 21
41.533
  0
LINE
  8
0
 10
-93.3925
 20
41.533
 11
-92.8131
 21
41.0536
  0
LINE
  8
0
 10
-92.8131
 20
41.0536
 11
-92.3711
 21
40.4453
  0
LINE
  8
0
 10
-92.3711
 20
40.4453
 11
-92.0943
 21
39.7461
  0
LINE
  8
0
 10
-92.0943
 20
39.7461
 11
-92
 21
39
  0
LINE
  8
0
 10
-92
 20
39
 11
-92.0943
 21
38.2539
  0
LINE
  8
0
 10
-92.0943
 20
38.2539
 11
-92.3711
 21
37.5547
  0
LINE
  8
0
 10
-92.3711
 20
37.5547
 11
-92.8131
 21
36.9464
  0
LINE
  8
0
 10
-92.8131
 20
36.9464
 11
-93.3925
 21
36.467
  0
LINE
  8
0
 10
-93.3925
 20
36.467
 11
-94.073
 21
36.1468
  0
LINE
  8
0
 10
-94.073
 20
36.1468
 11
-94.8116
 21
36.0059
  0
LINE
  8
0
 10
-94.8116
 20
36.0059
 11
-95.5621
 21
36.0531
  0
LINE
  8
0
 10
12.4379
 20
36.0531
 11
11.7227
 21
36.2855
  0
LINE
  8
0
 10
11.7227
 20
36.2855
 11
11.0877
 21
36.6885
  0
LINE
  8
0
 10
11.0877
 20
36.6885
 11
10.5729
 21
37.2366
  0
LINE
  8
0
 10
10.5729
 20
37.2366
 11
10.2107
 21
37.8956
  0
LINE
  8
0
 10
10.2107
 20
37.8956
 11
10.0237
 21
38.624
  0
LINE
  8
0
 10
10.0237
 20
38.624
 11
10.0237
 21
39.376
  0
LINE
  8
0
 10
10.0237
 20
39.376
 11
10.2107
 21
40.1044
  0
LINE
  8
0
 10
10.2107
 20
40.1044
 11
10.5729
 21
40.7634
  0
LINE
  8
0
 10
10.5729
 20
40.7634
 11
11.0877
 21
41.3115
  0
LINE
  8
0
 10
11.0877
 20
41.3115
 11
11.7227
 21
41.7145
  0
LINE
  8
0
 10
11.7227
 20
41.7145
 11
12.4379
 21
41.9469
  0
LINE
  8
0
 10
12.4379
 20
41.9469
 11
13.1884
 21
41.9941
  0
LINE
  8
0
 10
13.1884
 20
41.9941
 11
13.927
 21
41.8532
  0
LINE
  8
0
 10
13.927
 20
41.8532
 11
14.6075
 21
41.533
  0
LINE
  8
0
 10
14.6075
 20
41.533
 11
15.1869
 21
41.0536
  0
LINE
  8
0
 10
15.1869
 20
41.0536
 11
15.6289
 21
40.4453
  0
LINE
  8
0
 10
15.6289
 20
40.4453
 11
15.9057
 21
39.7461
  0
LINE
  8
0
 10
15.9057
 20
39.7461
 11
16
 21
39
  0
LINE
  8
0
 10
16
 20
39
 11
15.9057
 21
38.2539
  0
LINE
  8
0
 10
15.9057
 20
38.2539
 11
15.6289
 21
37.5547
  0
LINE
  8
0
 10
15.6289
 20
37.5547
 11
15.1869
 21
36.9464
  0
LINE
  8
0
 10
15.1869
 20
36.9464
 11
14.6075
 21
36.467
  0
LINE
  8
0
 10
14.6075
 20
36.467
 11
13.927
 21
36.1468
  0
LINE
  8
0
 10
13.927
 20
36.1468
 11
13.1884
 21
36.0059
  0
LINE
  8
0
 10
13.1884
 20
36.0059
 11
12.4379
 21
36.0531
  0
LINE
  8
0
 10
-16.2811
 20
-1.47342
 11
-16.6387
 21
-1.35724
  0
LINE
  8
0
 10
-16.6387
 20
-1.35724
 11
-16.9561
 21
-1.15576
  0
LINE
  8
0
 10
-16.9561
 20
-1.15576
 11
-17.2135
 21
-0.881668
  0
LINE
  8
0
 10
-17.2135
 20
-0.881668
 11
-17.3947
 21
-0.552185
  0
LINE
  8
0
 10
-17.3947
 20
-0.552185
 11
-17.4882
 21
-0.187988
  0
LINE
  8
0
 10
-17.4882
 20
-0.187988
 11
-17.4882
 21
0.187988
  0
LINE
  8
0
 10
-17.4882
 20
0.187988
 11
-17.3947
 21
0.552185
  0
LINE
  8
0
 10
-17.3947
 20
0.552185
 11
-17.2135
 21
0.881668
  0
LINE
  8
0
 10
-17.2135
 20
0.881668
 11
-16.9561
 21
1.15576
  0
LINE
  8
0
 10
-16.9561
 20
1.15576
 11
-16.6387
 21
1.35724
  0
LINE
  8
0
 10
-16.6387
 20
1.35724
 11
-16.2811
 21
1.47342
  0
LINE
  8
0
 10
-16.2811
 20
1.47342
 11
-15.9058
 21
1.49704
  0
LINE
  8
0
 10
-15.9058
 20
1.49704
 11
-15.5365
 21
1.42657
  0
LINE
  8
0
 10
-15.5365
 20
1.42657
 11
-15.1963
 21
1.26648
  0
LINE
  8
0
 10
-15.1963
 20
1.26648
 11
-14.9065
 21
1.02681
  0
LINE
  8
0
 10
-14.9065
 20
1.02681
 11
-14.6855
 21
0.722626
  0
LINE
  8
0
 10
-14.6855
 20
0.722626
 11
-14.5471
 21
0.373032
  0
LINE
  8
0
 10
-14.5471
 20
0.373032
 11
-14.5
 21
0
  0
LINE
  8
0
 10
-14.5
 20
0
 11
-14.5471
 21
-0.373032
  0
LINE
  8
0
 10
-14.5471
 20
-0.373032
 11
-14.6855
 21
-0.722626
  0
LINE
  8
0
 10
-14.6855
 20
-0.722626
 11
-14.9065
 21
-1.02681
  0
LINE
  8
0
 10
-14.9065
 20
-1.02681
 11
-15.1963
 21
-1.26648
  0
LINE
  8
0
 10
-15.1963
 20
-1.26648
 11
-15.5365
 21
-1.42657
  0
LINE
  8
0
 10
-15.5365
 20
-1.42657
 11
-15.9058
 21
-1.49704
  0
LINE
  8
0
 10
-15.9058
 20
-1.49704
 11
-16.2811
 21
-1.47342
  0
LINE
  8
0
 10
-10.2811
 20
-1.47342
 11
-10.6387
 21
-1.35724
  0
LINE
  8
0
 10
-10.6387
 20
-1.35724
 11
-10.9561
 21
-1.15576
  0
LINE
  8
0
 10
-10.9561
 20
-1.15576
 11
-11.2135
 21
-0.881668
  0
LINE
  8
0
 10
-11.2135
 20
-0.881668
 11
-11.3947
 21
-0.552185
  0
LINE
  8
0
 10
-11.3947
 20
-0.552185
 11
-11.4882
 21
-0.187988
  0
LINE
  8
0
 10
-11.4882
 20
-0.187988
 11
-11.4882
 21
0.187988
  0
LINE
  8
0
 10
-11.4882
 20
0.187988
 11
-11.3947
 21
0.552185
  0
LINE
  8
0
 10
-11.3947
 20
0.552185
 11
-11.2135
 21
0.881668
  0
LINE
  8
0
 10
-11.2135
 20
0.881668
 11
-10.9561
 21
1.15576
  0
LINE
  8
0
 10
-10.9561
 20
1.15576
 11
-10.6387
 21
1.35724
  0
LINE
  8
0
 10
-10.6387
 20
1.35724
 11
-10.2811
 21
1.47342
  0
LINE
  8
0
 10
-10.2811
 20
1.47342
 11
-9.90581
 21
1.49704
  0
LINE
  8
0
 10
-9.90581
 20
1.49704
 11
-9.53647
 21
1.42657
  0
LINE
  8
0
 10
-9.53647
 20
1.42657
 11
-9.19626
 21
1.26648
  0
LINE
  8
0
 10
-9.19626
 20
1.26648
 11
-8.90654
 21
1.02681
  0
LINE
  8
0
 10
-8.90654
 20
1.02681
 11
-8.68553
 21
0.722626
  0
LINE
  8
0
 10
-8.68553
 20
0.722626
 11
-8.54712
 21
0.373032
  0
LINE
  8
0
 10
-8.54712
 20
0.373032
 11
-8.5
 21
0
  0
LINE
  8
0
 10
-8.5
 20
0
 11
-8.54712
 21
-0.373032
  0
LINE
  8
0
 10
-8.54712
 20
-0.373032
 11
-8.68553
 21
-0.722626
  0
LINE
  8
0
 10
-8.68553
 20
-0.722626
 11
-8.90654
 21
-1.02681
  0
LINE
  8
0
 10
-8.90654
 20
-1.02681
 11
-9.19626
 21
-1.26648
  0
LINE
  8
0
 10
-9.19626
 20
-1.26648
 11
-9.53647
 21
-1.42657
  0
LINE
  8
0
 10
-9.53647
 20
-1.42657
 11
-9.90581
 21
-1.49704
  0
LINE
  8
0
 10
-9.90581
 20
-1.49704
 11
-10.2811
 21
-1.47342
  0
LINE
  8
0
 10
-40.2811
 20
-1.47342
 11
-40.6387
 21
-1.35724
  0
LINE
  8
0
 10
-40.6387
 20
-1.35724
 11
-40.9561
 21
-1.15576
  0
LINE
  8
0
 10
-40.9561
 20
-1.15576
 11
-41.2135
 21
-0.881668
  0
LINE
  8
0
 10
-41.2135
 20
-0.881668
 11
-41.3947
 21
-0.552185
  0
LINE
  8
0
 10
-41.3947
 20
-0.552185
 11
-41.4882
 21
-0.187988
  0
LINE
  8
0
 10
-41.4882
 20
-0.187988
 11
-41.4882
 21
0.187988
  0
LINE
  8
0
 10
-41.4882
 20
0.187988
 11
-41.3947
 21
0.552185
  0
LINE
  8
0
 10
-41.3947
 20
0.552185
 11
-41.2135
 21
0.881668
  0
LINE
  8
0
 10
-41.2135
 20
0.881668
 11
-40.9561
 21
1.15576
  0
LINE
  8
0
 10
-40.9561
 20
1.15576
 11
-40.6387
 21
1.35724
  0
LINE
  8
0
 10
-40.6387
 20
1.35724
 11
-40.2811
 21
1.47342
  0
LINE
  8
0
 10
-40.2811
 20
1.47342
 11
-39.9058
 21
1.49704
  0
LINE
  8
0
 10
-39.9058
 20
1.49704
 11
-39.5365
 21
1.42657
  0
LINE
  8
0
 10
-39.5365
 20
1.42657
 11
-39.1963
 21
1.26648
  0
LINE
  8
0
 10
-39.1963
 20
1.26648
 11
-38.9065
 21
1.02681
  0
LINE
  8
0
 10
-38.9065
 20
1.02681
 11
-38.6855
 21
0.722626
  0
LINE
  8
0
 10
-38.6855
 20
0.722626
 11
-38.5471
 21
0.373032
  0
LINE
  8
0
 10
-38.5471
 20
0.373032
 11
-38.5
 21
0
  0
LINE
  8
0
 10
-38.5
 20
0
 11
-38.5471
 21
-0.373032
  0
LINE
  8
0
 10
-38.5471
 20
-0.373032
 11
-38.6855
 21
-0.722626
  0
LINE
  8
0
 10
-38.6855
 20
-0.722626
 11
-38.9065
 21
-1.02681
  0
LINE
  8
0
 10
-38.9065
 20
-1.02681
 11
-39.1963
 21
-1.26648
  0
LINE
  8
0
 10
-39.1963
 20
-1.26648
 11
-39.5365
 21
-1.42657
  0
LINE
  8
0
 10
-39.5365
 20
-1.42657
 11
-39.9058
 21
-1.49704
  0
LINE
  8
0
 10
-39.9058
 20
-1.49704
 11
-40.2811
 21
-1.47342
  0
LINE
  8
0
 10
-95.5621
 20
-41.9469
 11
-96.2773
 21
-41.7145
  0
LINE
  8
0
 10
-96.2773
 20
-41.7145
 11
-96.9123
 21
-41.3115
  0
LINE
  8
0
 10
-96.9123
 20
-41.3115
 11
-97.427
 21
-40.7634
  0
LINE
  8
0
 10
-97.427
 20
-40.7634
 11
-97.7893
 21
-40.1044
  0
LINE
  8
0
 10
-97.7893
 20
-40.1044
 11
-97.9763
 21
-39.376
  0
LINE
  8
0
 10
-97.9763
 20
-39.376
 11
-97.9763
 21
-38.624
  0
LINE
  8
0
 10
-97.9763
 20
-38.624
 11
-97.7893
 21
-37.8956
  0
LINE
  8
0
 10
-97.7893
 20
-37.8956
 11
-97.427
 21
-37.2366
  0
LINE
  8
0
 10
-97.427
 20
-37.2366
 11
-96.9123
 21
-36.6885
  0
LINE
  8
0
 10
-96.9123
 20
-36.6885
 11
-96.2773
 21
-36.2855
  0
LINE
  8
0
 10
-96.2773
 20
-36.2855
 11
-95.5621
 21
-36.0531
  0
LINE
  8
0
 10
-95.5621
 20
-36.0531
 11
-94.8116
 21
-36.0059
  0
LINE
  8
0
 10
-94.8116
 20
-36.0059
 11
-94.073
 21
-36.1468
  0
LINE
  8
0
 10
-94.073
 20
-36.1468
 11
-93.3925
 21
-36.467
  0
LINE
  8
0
 10
-93.3925
 20
-36.467
 11
-92.8131
 21
-36.9464
  0
LINE
  8
0
 10
-92.8131
 20
-36.9464
 11
-92.3711
 21
-37.5547
  0
LINE
  8
0
 10
-92.3711
 20
-37.5547
 11
-92.0943
 21
-38.2539
  0
LINE
  8
0
 10
-92.0943
 20
-38.2539
 11
-92
 21
-39
  0
LINE
  8
0
 10
-92
 20
-39
 11
-92.0943
 21
-39.7461
  0
LINE
  8
0
 10
-92.0943
 20
-39.7461
 11
-92.3711
 21
-40.4453
  0
LINE
  8
0
 10
-92.3711
 20
-40.4453
 11
-92.8131
 21
-41.0536
  0
LINE
  8
0
 10
-92.8131
 20
-41.0536
 11
-93.3925
 21
-41.533
  0
LINE
  8
0
 10
-93.3925
 20
-41.533
 11
-94.073
 21
-41.8532
  0
LINE
  8
0
 10
-94.073
 20
-41.8532
 11
-94.8116
 21
-41.9941
  0
LINE
  8
0
 10
-94.8116
 20
-41.9941
 11
-95.5621
 21
-41.9469
  0
LINE
  8
0
 10
12.4379
 20
-41.9469
 11
11.7227
 21
-41.7145
  0
LINE
  8
0
 10
11.7227
 20
-41.7145
 11
11.0877
 21
-41.3115
  0
LINE
  8
0
 10
11.0877
 20
-41.3115
 11
10.5729
 21
-40.7634
  0
LINE
  8
0
 10
10.5729
 20
-40.7634
 11
10.2107
 21
-40.1044
  0
LINE
  8
0
 10
10.2107
 20
-40.1044
 11
10.0237
 21
-39.376
  0
LINE
  8
0
 10
10.0237
 20
-39.376
 11
10.0237
 21
-38.624
  0
LINE
  8
0
 10
10.0237
 20
-38.624
 11
10.2107
 21
-37.8956
  0
LINE
  8
0
 10
10.2107
 20
-37.8956
 11
10.5729
 21
-37.2366
  0
LINE
  8
0
 10
10.5729
 20
-37.2366
 11
11.0877
 21
-36.6885
  0
LINE
  8
0
 10
11.0877
 20
-36.6885
 11
11.7227
 21
-36.2855
  0
LINE
  8
0
 10
11.7227
 20
-36.2855
 11
12.4379
 21
-36.0531
  0
LINE
  8
0
 10
12.4379
 20
-36.0531
 11
13.1884
 21
-36.0059
  0
LINE
  8
0
 10
13.1884
 20
-36.0059
 11
13.927
 21
-36.1468
  0
LINE
  8
0
 10
13.927
 20
-36.1468
 11
14.6075
 21
-36.467
  0
LINE
  8
0
 10
14.6075
 20
-36.467
 11
15.1869
 21
-36.9464
  0
LINE
  8
0
 10
15.1869
 20
-36.9464
 11
15.6289
 21
-37.5547
  0
LINE
  8
0
 10
15.6289
 20
-37.5547
 11
15.9057
 21
-38.2539
  0
LINE
  8
0
 10
15.9057
 20
-38.2539
 11
16
 21
-39
  0
LINE
  8
0
 10
16
 20
-39
 11
15.9057
 21
-39.7461
  0
LINE
  8
0
 10
15.9057
 20
-39.7461
 11
15.6289
 21
-40.4453
  0
LINE
  8
0
 10
15.6289
 20
-40.4453
 11
15.1869
 21
-41.0536
  0
LINE
  8
0
 10
15.1869
 20
-41.0536
 11
14.6075
 21
-41.533
  0
LINE
  8
0
 10
14.6075
 20
-41.533
 11
13.927
 21
-41.8532
  0
LINE
  8
0
 10
13.927
 20
-41.8532
 11
13.1884
 21
-41.9941
  0
LINE
  8
0
 10
13.1884
 20
-41.9941
 11
12.4379
 21
-41.9469
  0
ENDSEC
  0
SECTION
  2
OBJECTS
  0
DICTIONARY
  0
ENDSEC
  0
EOF
