  0
SECTION
  2
BLOCKS
  0
ENDSEC
  0
SECTION
  2
ENTITIES
  0
LINE
  8
0
 10
1123.24
 20
-44.8429
 11
1124.41
 21
-44.3815
  0
LINE
  8
0
 10
1124.41
 20
-44.3815
 11
1125.42
 21
-43.6448
  0
LINE
  8
0
 10
1125.42
 20
-43.6448
 11
1126.22
 21
-42.6791
  0
LINE
  8
0
 10
1126.22
 20
-42.6791
 11
1126.76
 21
-41.5451
  0
LINE
  8
0
 10
1126.76
 20
-41.5451
 11
1127
 21
-40
  0
LINE
  8
0
 10
1127
 20
-40
 11
1127
 21
-29.5
  0
LINE
  8
0
 10
1127
 20
-29.5
 11
1039
 21
-29.5
  0
LINE
  8
0
 10
1039
 20
-29.5
 11
1039
 21
-12.5
  0
LINE
  8
0
 10
1039
 20
-12.5
 11
1014
 21
-12.5
  0
LINE
  8
0
 10
1014
 20
-12.5
 11
1014
 21
12.5
  0
LINE
  8
0
 10
1014
 20
12.5
 11
1039
 21
12.5
  0
LINE
  8
0
 10
1039
 20
12.5
 11
1039
 21
29.5
  0
LINE
  8
0
 10
1039
 20
29.5
 11
1127
 21
29.5
  0
LINE
  8
0
 10
1127
 20
29.5
 11
1127
 21
40
  0
LINE
  8
0
 10
1127
 20
40
 11
1126.84
 21
41.2435
  0
LINE
  8
0
 10
1126.84
 20
41.2435
 11
1126.38
 21
42.4088
  0
LINE
  8
0
 10
1126.38
 20
42.4088
 11
1125.64
 21
43.4227
  0
LINE
  8
0
 10
1125.64
 20
43.4227
 11
1124.68
 21
44.2216
  0
LINE
  8
0
 10
1124.68
 20
44.2216
 11
1123.55
 21
44.7553
  0
LINE
  8
0
 10
1123.55
 20
44.7553
 11
1122
 21
45
  0
LINE
  8
0
 10
1122
 20
45
 11
1012
 21
45
  0
LINE
  8
0
 10
1012
 20
45
 11
1010.76
 21
44.8429
  0
LINE
  8
0
 10
1010.76
 20
44.8429
 11
1009.59
 21
44.3815
  0
LINE
  8
0
 10
1009.59
 20
44.3815
 11
1008.58
 21
43.6448
  0
LINE
  8
0
 10
1008.58
 20
43.6448
 11
1007.78
 21
42.6791
  0
LINE
  8
0
 10
1007.78
 20
42.6791
 11
1007.24
 21
41.5451
  0
LINE
  8
0
 10
1007.24
 20
41.5451
 11
1007
 21
40
  0
LINE
  8
0
 10
1007
 20
40
 11
1007
 21
-40
  0
LINE
  8
0
 10
1007
 20
-40
 11
1007.16
 21
-41.2435
  0
LINE
  8
0
 10
1007.16
 20
-41.2435
 11
1007.62
 21
-42.4088
  0
LINE
  8
0
 10
1007.62
 20
-42.4088
 11
1008.36
 21
-43.4227
  0
LINE
  8
0
 10
1008.36
 20
-43.4227
 11
1009.32
 21
-44.2216
  0
LINE
  8
0
 10
1009.32
 20
-44.2216
 11
1010.45
 21
-44.7553
  0
LINE
  8
0
 10
1010.45
 20
-44.7553
 11
1012
 21
-45
  0
LINE
  8
0
 10
1012
 20
-45
 11
1122
 21
-45
  0
LINE
  8
0
 10
1122
 20
-45
 11
1123.24
 21
-44.8429
  0
LINE
  8
0
 10
1120.44
 20
36.0531
 11
1119.72
 21
36.2855
  0
LINE
  8
0
 10
1119.72
 20
36.2855
 11
1119.09
 21
36.6885
  0
LINE
  8
0
 10
1119.09
 20
36.6885
 11
1118.57
 21
37.2366
  0
LINE
  8
0
 10
1118.57
 20
37.2366
 11
1118.21
 21
37.8956
  0
LINE
  8
0
 10
1118.21
 20
37.8956
 11
1118.02
 21
38.624
  0
LINE
  8
0
 10
1118.02
 20
38.624
 11
1118.02
 21
39.376
  0
LINE
  8
0
 10
1118.02
 20
39.376
 11
1118.21
 21
40.1044
  0
LINE
  8
0
 10
1118.21
 20
40.1044
 11
1118.57
 21
40.7634
  0
LINE
  8
0
 10
1118.57
 20
40.7634
 11
1119.09
 21
41.3115
  0
LINE
  8
0
 10
1119.09
 20
41.3115
 11
1119.72
 21
41.7145
  0
LINE
  8
0
 10
1119.72
 20
41.7145
 11
1120.44
 21
41.9469
  0
LINE
  8
0
 10
1120.44
 20
41.9469
 11
1121.19
 21
41.9941
  0
LINE
  8
0
 10
1121.19
 20
41.9941
 11
1121.93
 21
41.8532
  0
LINE
  8
0
 10
1121.93
 20
41.8532
 11
1122.61
 21
41.533
  0
LINE
  8
0
 10
1122.61
 20
41.533
 11
1123.19
 21
41.0536
  0
LINE
  8
0
 10
1123.19
 20
41.0536
 11
1123.63
 21
40.4453
  0
LINE
  8
0
 10
1123.63
 20
40.4453
 11
1123.91
 21
39.7461
  0
LINE
  8
0
 10
1123.91
 20
39.7461
 11
1124
 21
39
  0
LINE
  8
0
 10
1124
 20
39
 11
1123.91
 21
38.2539
  0
LINE
  8
0
 10
1123.91
 20
38.2539
 11
1123.63
 21
37.5547
  0
LINE
  8
0
 10
1123.63
 20
37.5547
 11
1123.19
 21
36.9464
  0
LINE
  8
0
 10
1123.19
 20
36.9464
 11
1122.61
 21
36.467
  0
LINE
  8
0
 10
1122.61
 20
36.467
 11
1121.93
 21
36.1468
  0
LINE
  8
0
 10
1121.93
 20
36.1468
 11
1121.19
 21
36.0059
  0
LINE
  8
0
 10
1121.19
 20
36.0059
 11
1120.44
 21
36.0531
  0
LINE
  8
0
 10
1012.44
 20
36.0531
 11
1011.72
 21
36.2855
  0
LINE
  8
0
 10
1011.72
 20
36.2855
 11
1011.09
 21
36.6885
  0
LINE
  8
0
 10
1011.09
 20
36.6885
 11
1010.57
 21
37.2366
  0
LINE
  8
0
 10
1010.57
 20
37.2366
 11
1010.21
 21
37.8956
  0
LINE
  8
0
 10
1010.21
 20
37.8956
 11
1010.02
 21
38.624
  0
LINE
  8
0
 10
1010.02
 20
38.624
 11
1010.02
 21
39.376
  0
LINE
  8
0
 10
1010.02
 20
39.376
 11
1010.21
 21
40.1044
  0
LINE
  8
0
 10
1010.21
 20
40.1044
 11
1010.57
 21
40.7634
  0
LINE
  8
0
 10
1010.57
 20
40.7634
 11
1011.09
 21
41.3115
  0
LINE
  8
0
 10
1011.09
 20
41.3115
 11
1011.72
 21
41.7145
  0
LINE
  8
0
 10
1011.72
 20
41.7145
 11
1012.44
 21
41.9469
  0
LINE
  8
0
 10
1012.44
 20
41.9469
 11
1013.19
 21
41.9941
  0
LINE
  8
0
 10
1013.19
 20
41.9941
 11
1013.93
 21
41.8532
  0
LINE
  8
0
 10
1013.93
 20
41.8532
 11
1014.61
 21
41.533
  0
LINE
  8
0
 10
1014.61
 20
41.533
 11
1015.19
 21
41.0536
  0
LINE
  8
0
 10
1015.19
 20
41.0536
 11
1015.63
 21
40.4453
  0
LINE
  8
0
 10
1015.63
 20
40.4453
 11
1015.91
 21
39.7461
  0
LINE
  8
0
 10
1015.91
 20
39.7461
 11
1016
 21
39
  0
LINE
  8
0
 10
1016
 20
39
 11
1015.91
 21
38.2539
  0
LINE
  8
0
 10
1015.91
 20
38.2539
 11
1015.63
 21
37.5547
  0
LINE
  8
0
 10
1015.63
 20
37.5547
 11
1015.19
 21
36.9464
  0
LINE
  8
0
 10
1015.19
 20
36.9464
 11
1014.61
 21
36.467
  0
LINE
  8
0
 10
1014.61
 20
36.467
 11
1013.93
 21
36.1468
  0
LINE
  8
0
 10
1013.93
 20
36.1468
 11
1013.19
 21
36.0059
  0
LINE
  8
0
 10
1013.19
 20
36.0059
 11
1012.44
 21
36.0531
  0
LINE
  8
0
 10
1120.44
 20
-41.9469
 11
1119.72
 21
-41.7145
  0
LINE
  8
0
 10
1119.72
 20
-41.7145
 11
1119.09
 21
-41.3115
  0
LINE
  8
0
 10
1119.09
 20
-41.3115
 11
1118.57
 21
-40.7634
  0
LINE
  8
0
 10
1118.57
 20
-40.7634
 11
1118.21
 21
-40.1044
  0
LINE
  8
0
 10
1118.21
 20
-40.1044
 11
1118.02
 21
-39.376
  0
LINE
  8
0
 10
1118.02
 20
-39.376
 11
1118.02
 21
-38.624
  0
LINE
  8
0
 10
1118.02
 20
-38.624
 11
1118.21
 21
-37.8956
  0
LINE
  8
0
 10
1118.21
 20
-37.8956
 11
1118.57
 21
-37.2366
  0
LINE
  8
0
 10
1118.57
 20
-37.2366
 11
1119.09
 21
-36.6885
  0
LINE
  8
0
 10
1119.09
 20
-36.6885
 11
1119.72
 21
-36.2855
  0
LINE
  8
0
 10
1119.72
 20
-36.2855
 11
1120.44
 21
-36.0531
  0
LINE
  8
0
 10
1120.44
 20
-36.0531
 11
1121.19
 21
-36.0059
  0
LINE
  8
0
 10
1121.19
 20
-36.0059
 11
1121.93
 21
-36.1468
  0
LINE
  8
0
 10
1121.93
 20
-36.1468
 11
1122.61
 21
-36.467
  0
LINE
  8
0
 10
1122.61
 20
-36.467
 11
1123.19
 21
-36.9464
  0
LINE
  8
0
 10
1123.19
 20
-36.9464
 11
1123.63
 21
-37.5547
  0
LINE
  8
0
 10
1123.63
 20
-37.5547
 11
1123.91
 21
-38.2539
  0
LINE
  8
0
 10
1123.91
 20
-38.2539
 11
1124
 21
-39
  0
LINE
  8
0
 10
1124
 20
-39
 11
1123.91
 21
-39.7461
  0
LINE
  8
0
 10
1123.91
 20
-39.7461
 11
1123.63
 21
-40.4453
  0
LINE
  8
0
 10
1123.63
 20
-40.4453
 11
1123.19
 21
-41.0536
  0
LINE
  8
0
 10
1123.19
 20
-41.0536
 11
1122.61
 21
-41.533
  0
LINE
  8
0
 10
1122.61
 20
-41.533
 11
1121.93
 21
-41.8532
  0
LINE
  8
0
 10
1121.93
 20
-41.8532
 11
1121.19
 21
-41.9941
  0
LINE
  8
0
 10
1121.19
 20
-41.9941
 11
1120.44
 21
-41.9469
  0
LINE
  8
0
 10
1012.44
 20
-41.9469
 11
1011.72
 21
-41.7145
  0
LINE
  8
0
 10
1011.72
 20
-41.7145
 11
1011.09
 21
-41.3115
  0
LINE
  8
0
 10
1011.09
 20
-41.3115
 11
1010.57
 21
-40.7634
  0
LINE
  8
0
 10
1010.57
 20
-40.7634
 11
1010.21
 21
-40.1044
  0
LINE
  8
0
 10
1010.21
 20
-40.1044
 11
1010.02
 21
-39.376
  0
LINE
  8
0
 10
1010.02
 20
-39.376
 11
1010.02
 21
-38.624
  0
LINE
  8
0
 10
1010.02
 20
-38.624
 11
1010.21
 21
-37.8956
  0
LINE
  8
0
 10
1010.21
 20
-37.8956
 11
1010.57
 21
-37.2366
  0
LINE
  8
0
 10
1010.57
 20
-37.2366
 11
1011.09
 21
-36.6885
  0
LINE
  8
0
 10
1011.09
 20
-36.6885
 11
1011.72
 21
-36.2855
  0
LINE
  8
0
 10
1011.72
 20
-36.2855
 11
1012.44
 21
-36.0531
  0
LINE
  8
0
 10
1012.44
 20
-36.0531
 11
1013.19
 21
-36.0059
  0
LINE
  8
0
 10
1013.19
 20
-36.0059
 11
1013.93
 21
-36.1468
  0
LINE
  8
0
 10
1013.93
 20
-36.1468
 11
1014.61
 21
-36.467
  0
LINE
  8
0
 10
1014.61
 20
-36.467
 11
1015.19
 21
-36.9464
  0
LINE
  8
0
 10
1015.19
 20
-36.9464
 11
1015.63
 21
-37.5547
  0
LINE
  8
0
 10
1015.63
 20
-37.5547
 11
1015.91
 21
-38.2539
  0
LINE
  8
0
 10
1015.91
 20
-38.2539
 11
1016
 21
-39
  0
LINE
  8
0
 10
1016
 20
-39
 11
1015.91
 21
-39.7461
  0
LINE
  8
0
 10
1015.91
 20
-39.7461
 11
1015.63
 21
-40.4453
  0
LINE
  8
0
 10
1015.63
 20
-40.4453
 11
1015.19
 21
-41.0536
  0
LINE
  8
0
 10
1015.19
 20
-41.0536
 11
1014.61
 21
-41.533
  0
LINE
  8
0
 10
1014.61
 20
-41.533
 11
1013.93
 21
-41.8532
  0
LINE
  8
0
 10
1013.93
 20
-41.8532
 11
1013.19
 21
-41.9941
  0
LINE
  8
0
 10
1013.19
 20
-41.9941
 11
1012.44
 21
-41.9469
  0
LINE
  8
0
 10
754.243
 20
-44.8429
 11
755.409
 21
-44.3815
  0
LINE
  8
0
 10
755.409
 20
-44.3815
 11
756.423
 21
-43.6448
  0
LINE
  8
0
 10
756.423
 20
-43.6448
 11
757.222
 21
-42.6791
  0
LINE
  8
0
 10
757.222
 20
-42.6791
 11
757.755
 21
-41.5451
  0
LINE
  8
0
 10
757.755
 20
-41.5451
 11
758
 21
-40
  0
LINE
  8
0
 10
758
 20
-40
 11
758
 21
40
  0
LINE
  8
0
 10
758
 20
40
 11
757.843
 21
41.2435
  0
LINE
  8
0
 10
757.843
 20
41.2435
 11
757.382
 21
42.4088
  0
LINE
  8
0
 10
757.382
 20
42.4088
 11
756.645
 21
43.4227
  0
LINE
  8
0
 10
756.645
 20
43.4227
 11
755.679
 21
44.2216
  0
LINE
  8
0
 10
755.679
 20
44.2216
 11
754.545
 21
44.7553
  0
LINE
  8
0
 10
754.545
 20
44.7553
 11
753
 21
45
  0
LINE
  8
0
 10
753
 20
45
 11
643
 21
45
  0
LINE
  8
0
 10
643
 20
45
 11
641.757
 21
44.8429
  0
LINE
  8
0
 10
641.757
 20
44.8429
 11
640.591
 21
44.3815
  0
LINE
  8
0
 10
640.591
 20
44.3815
 11
639.577
 21
43.6448
  0
LINE
  8
0
 10
639.577
 20
43.6448
 11
638.778
 21
42.6791
  0
LINE
  8
0
 10
638.778
 20
42.6791
 11
638.245
 21
41.5451
  0
LINE
  8
0
 10
638.245
 20
41.5451
 11
638
 21
40
  0
LINE
  8
0
 10
638
 20
40
 11
638
 21
22.5
  0
LINE
  8
0
 10
638
 20
22.5
 11
653
 21
22.5
  0
LINE
  8
0
 10
653
 20
22.5
 11
653
 21
12.5
  0
LINE
  8
0
 10
653
 20
12.5
 11
670
 21
12.5
  0
LINE
  8
0
 10
670
 20
12.5
 11
670
 21
-12.5
  0
LINE
  8
0
 10
670
 20
-12.5
 11
653
 21
-12.5
  0
LINE
  8
0
 10
653
 20
-12.5
 11
653
 21
-22.5
  0
LINE
  8
0
 10
653
 20
-22.5
 11
638
 21
-22.5
  0
LINE
  8
0
 10
638
 20
-22.5
 11
638
 21
-40
  0
LINE
  8
0
 10
638
 20
-40
 11
638.157
 21
-41.2435
  0
LINE
  8
0
 10
638.157
 20
-41.2435
 11
638.618
 21
-42.4088
  0
LINE
  8
0
 10
638.618
 20
-42.4088
 11
639.355
 21
-43.4227
  0
LINE
  8
0
 10
639.355
 20
-43.4227
 11
640.321
 21
-44.2216
  0
LINE
  8
0
 10
640.321
 20
-44.2216
 11
641.455
 21
-44.7553
  0
LINE
  8
0
 10
641.455
 20
-44.7553
 11
643
 21
-45
  0
LINE
  8
0
 10
643
 20
-45
 11
753
 21
-45
  0
LINE
  8
0
 10
753
 20
-45
 11
754.243
 21
-44.8429
  0
LINE
  8
0
 10
751.438
 20
36.0531
 11
750.723
 21
36.2855
  0
LINE
  8
0
 10
750.723
 20
36.2855
 11
750.088
 21
36.6885
  0
LINE
  8
0
 10
750.088
 20
36.6885
 11
749.573
 21
37.2366
  0
LINE
  8
0
 10
749.573
 20
37.2366
 11
749.211
 21
37.8956
  0
LINE
  8
0
 10
749.211
 20
37.8956
 11
749.024
 21
38.624
  0
LINE
  8
0
 10
749.024
 20
38.624
 11
749.024
 21
39.376
  0
LINE
  8
0
 10
749.024
 20
39.376
 11
749.211
 21
40.1044
  0
LINE
  8
0
 10
749.211
 20
40.1044
 11
749.573
 21
40.7634
  0
LINE
  8
0
 10
749.573
 20
40.7634
 11
750.088
 21
41.3115
  0
LINE
  8
0
 10
750.088
 20
41.3115
 11
750.723
 21
41.7145
  0
LINE
  8
0
 10
750.723
 20
41.7145
 11
751.438
 21
41.9469
  0
LINE
  8
0
 10
751.438
 20
41.9469
 11
752.188
 21
41.9941
  0
LINE
  8
0
 10
752.188
 20
41.9941
 11
752.927
 21
41.8532
  0
LINE
  8
0
 10
752.927
 20
41.8532
 11
753.607
 21
41.533
  0
LINE
  8
0
 10
753.607
 20
41.533
 11
754.187
 21
41.0536
  0
LINE
  8
0
 10
754.187
 20
41.0536
 11
754.629
 21
40.4453
  0
LINE
  8
0
 10
754.629
 20
40.4453
 11
754.906
 21
39.7461
  0
LINE
  8
0
 10
754.906
 20
39.7461
 11
755
 21
39
  0
LINE
  8
0
 10
755
 20
39
 11
754.906
 21
38.2539
  0
LINE
  8
0
 10
754.906
 20
38.2539
 11
754.629
 21
37.5547
  0
LINE
  8
0
 10
754.629
 20
37.5547
 11
754.187
 21
36.9464
  0
LINE
  8
0
 10
754.187
 20
36.9464
 11
753.607
 21
36.467
  0
LINE
  8
0
 10
753.607
 20
36.467
 11
752.927
 21
36.1468
  0
LINE
  8
0
 10
752.927
 20
36.1468
 11
752.188
 21
36.0059
  0
LINE
  8
0
 10
752.188
 20
36.0059
 11
751.438
 21
36.0531
  0
LINE
  8
0
 10
643.438
 20
36.0531
 11
642.723
 21
36.2855
  0
LINE
  8
0
 10
642.723
 20
36.2855
 11
642.088
 21
36.6885
  0
LINE
  8
0
 10
642.088
 20
36.6885
 11
641.573
 21
37.2366
  0
LINE
  8
0
 10
641.573
 20
37.2366
 11
641.211
 21
37.8956
  0
LINE
  8
0
 10
641.211
 20
37.8956
 11
641.024
 21
38.624
  0
LINE
  8
0
 10
641.024
 20
38.624
 11
641.024
 21
39.376
  0
LINE
  8
0
 10
641.024
 20
39.376
 11
641.211
 21
40.1044
  0
LINE
  8
0
 10
641.211
 20
40.1044
 11
641.573
 21
40.7634
  0
LINE
  8
0
 10
641.573
 20
40.7634
 11
642.088
 21
41.3115
  0
LINE
  8
0
 10
642.088
 20
41.3115
 11
642.723
 21
41.7145
  0
LINE
  8
0
 10
642.723
 20
41.7145
 11
643.438
 21
41.9469
  0
LINE
  8
0
 10
643.438
 20
41.9469
 11
644.188
 21
41.9941
  0
LINE
  8
0
 10
644.188
 20
41.9941
 11
644.927
 21
41.8532
  0
LINE
  8
0
 10
644.927
 20
41.8532
 11
645.607
 21
41.533
  0
LINE
  8
0
 10
645.607
 20
41.533
 11
646.187
 21
41.0536
  0
LINE
  8
0
 10
646.187
 20
41.0536
 11
646.629
 21
40.4453
  0
LINE
  8
0
 10
646.629
 20
40.4453
 11
646.906
 21
39.7461
  0
LINE
  8
0
 10
646.906
 20
39.7461
 11
647
 21
39
  0
LINE
  8
0
 10
647
 20
39
 11
646.906
 21
38.2539
  0
LINE
  8
0
 10
646.906
 20
38.2539
 11
646.629
 21
37.5547
  0
LINE
  8
0
 10
646.629
 20
37.5547
 11
646.187
 21
36.9464
  0
LINE
  8
0
 10
646.187
 20
36.9464
 11
645.607
 21
36.467
  0
LINE
  8
0
 10
645.607
 20
36.467
 11
644.927
 21
36.1468
  0
LINE
  8
0
 10
644.927
 20
36.1468
 11
644.188
 21
36.0059
  0
LINE
  8
0
 10
644.188
 20
36.0059
 11
643.438
 21
36.0531
  0
LINE
  8
0
 10
722.719
 20
-1.47342
 11
722.361
 21
-1.35724
  0
LINE
  8
0
 10
722.361
 20
-1.35724
 11
722.044
 21
-1.15576
  0
LINE
  8
0
 10
722.044
 20
-1.15576
 11
721.786
 21
-0.881668
  0
LINE
  8
0
 10
721.786
 20
-0.881668
 11
721.605
 21
-0.552185
  0
LINE
  8
0
 10
721.605
 20
-0.552185
 11
721.512
 21
-0.187988
  0
LINE
  8
0
 10
721.512
 20
-0.187988
 11
721.512
 21
0.187988
  0
LINE
  8
0
 10
721.512
 20
0.187988
 11
721.605
 21
0.552185
  0
LINE
  8
0
 10
721.605
 20
0.552185
 11
721.786
 21
0.881668
  0
LINE
  8
0
 10
721.786
 20
0.881668
 11
722.044
 21
1.15576
  0
LINE
  8
0
 10
722.044
 20
1.15576
 11
722.361
 21
1.35724
  0
LINE
  8
0
 10
722.361
 20
1.35724
 11
722.719
 21
1.47342
  0
LINE
  8
0
 10
722.719
 20
1.47342
 11
723.094
 21
1.49704
  0
LINE
  8
0
 10
723.094
 20
1.49704
 11
723.464
 21
1.42657
  0
LINE
  8
0
 10
723.464
 20
1.42657
 11
723.804
 21
1.26648
  0
LINE
  8
0
 10
723.804
 20
1.26648
 11
724.093
 21
1.02681
  0
LINE
  8
0
 10
724.093
 20
1.02681
 11
724.314
 21
0.722626
  0
LINE
  8
0
 10
724.314
 20
0.722626
 11
724.453
 21
0.373032
  0
LINE
  8
0
 10
724.453
 20
0.373032
 11
724.5
 21
0
  0
LINE
  8
0
 10
724.5
 20
0
 11
724.453
 21
-0.373032
  0
LINE
  8
0
 10
724.453
 20
-0.373032
 11
724.314
 21
-0.722626
  0
LINE
  8
0
 10
724.314
 20
-0.722626
 11
724.093
 21
-1.02681
  0
LINE
  8
0
 10
724.093
 20
-1.02681
 11
723.804
 21
-1.26648
  0
LINE
  8
0
 10
723.804
 20
-1.26648
 11
723.464
 21
-1.42657
  0
LINE
  8
0
 10
723.464
 20
-1.42657
 11
723.094
 21
-1.49704
  0
LINE
  8
0
 10
723.094
 20
-1.49704
 11
722.719
 21
-1.47342
  0
LINE
  8
0
 10
698.719
 20
-1.47342
 11
698.361
 21
-1.35724
  0
LINE
  8
0
 10
698.361
 20
-1.35724
 11
698.044
 21
-1.15576
  0
LINE
  8
0
 10
698.044
 20
-1.15576
 11
697.786
 21
-0.881668
  0
LINE
  8
0
 10
697.786
 20
-0.881668
 11
697.605
 21
-0.552185
  0
LINE
  8
0
 10
697.605
 20
-0.552185
 11
697.512
 21
-0.187988
  0
LINE
  8
0
 10
697.512
 20
-0.187988
 11
697.512
 21
0.187988
  0
LINE
  8
0
 10
697.512
 20
0.187988
 11
697.605
 21
0.552185
  0
LINE
  8
0
 10
697.605
 20
0.552185
 11
697.786
 21
0.881668
  0
LINE
  8
0
 10
697.786
 20
0.881668
 11
698.044
 21
1.15576
  0
LINE
  8
0
 10
698.044
 20
1.15576
 11
698.361
 21
1.35724
  0
LINE
  8
0
 10
698.361
 20
1.35724
 11
698.719
 21
1.47342
  0
LINE
  8
0
 10
698.719
 20
1.47342
 11
699.094
 21
1.49704
  0
LINE
  8
0
 10
699.094
 20
1.49704
 11
699.464
 21
1.42657
  0
LINE
  8
0
 10
699.464
 20
1.42657
 11
699.804
 21
1.26648
  0
LINE
  8
0
 10
699.804
 20
1.26648
 11
700.093
 21
1.02681
  0
LINE
  8
0
 10
700.093
 20
1.02681
 11
700.314
 21
0.722626
  0
LINE
  8
0
 10
700.314
 20
0.722626
 11
700.453
 21
0.373032
  0
LINE
  8
0
 10
700.453
 20
0.373032
 11
700.5
 21
0
  0
LINE
  8
0
 10
700.5
 20
0
 11
700.453
 21
-0.373032
  0
LINE
  8
0
 10
700.453
 20
-0.373032
 11
700.314
 21
-0.722626
  0
LINE
  8
0
 10
700.314
 20
-0.722626
 11
700.093
 21
-1.02681
  0
LINE
  8
0
 10
700.093
 20
-1.02681
 11
699.804
 21
-1.26648
  0
LINE
  8
0
 10
699.804
 20
-1.26648
 11
699.464
 21
-1.42657
  0
LINE
  8
0
 10
699.464
 20
-1.42657
 11
699.094
 21
-1.49704
  0
LINE
  8
0
 10
699.094
 20
-1.49704
 11
698.719
 21
-1.47342
  0
LINE
  8
0
 10
728.719
 20
-1.47342
 11
728.361
 21
-1.35724
  0
LINE
  8
0
 10
728.361
 20
-1.35724
 11
728.044
 21
-1.15576
  0
LINE
  8
0
 10
728.044
 20
-1.15576
 11
727.786
 21
-0.881668
  0
LINE
  8
0
 10
727.786
 20
-0.881668
 11
727.605
 21
-0.552185
  0
LINE
  8
0
 10
727.605
 20
-0.552185
 11
727.512
 21
-0.187988
  0
LINE
  8
0
 10
727.512
 20
-0.187988
 11
727.512
 21
0.187988
  0
LINE
  8
0
 10
727.512
 20
0.187988
 11
727.605
 21
0.552185
  0
LINE
  8
0
 10
727.605
 20
0.552185
 11
727.786
 21
0.881668
  0
LINE
  8
0
 10
727.786
 20
0.881668
 11
728.044
 21
1.15576
  0
LINE
  8
0
 10
728.044
 20
1.15576
 11
728.361
 21
1.35724
  0
LINE
  8
0
 10
728.361
 20
1.35724
 11
728.719
 21
1.47342
  0
LINE
  8
0
 10
728.719
 20
1.47342
 11
729.094
 21
1.49704
  0
LINE
  8
0
 10
729.094
 20
1.49704
 11
729.464
 21
1.42657
  0
LINE
  8
0
 10
729.464
 20
1.42657
 11
729.804
 21
1.26648
  0
LINE
  8
0
 10
729.804
 20
1.26648
 11
730.093
 21
1.02681
  0
LINE
  8
0
 10
730.093
 20
1.02681
 11
730.314
 21
0.722626
  0
LINE
  8
0
 10
730.314
 20
0.722626
 11
730.453
 21
0.373032
  0
LINE
  8
0
 10
730.453
 20
0.373032
 11
730.5
 21
0
  0
LINE
  8
0
 10
730.5
 20
0
 11
730.453
 21
-0.373032
  0
LINE
  8
0
 10
730.453
 20
-0.373032
 11
730.314
 21
-0.722626
  0
LINE
  8
0
 10
730.314
 20
-0.722626
 11
730.093
 21
-1.02681
  0
LINE
  8
0
 10
730.093
 20
-1.02681
 11
729.804
 21
-1.26648
  0
LINE
  8
0
 10
729.804
 20
-1.26648
 11
729.464
 21
-1.42657
  0
LINE
  8
0
 10
729.464
 20
-1.42657
 11
729.094
 21
-1.49704
  0
LINE
  8
0
 10
729.094
 20
-1.49704
 11
728.719
 21
-1.47342
  0
LINE
  8
0
 10
643.438
 20
-41.9469
 11
642.723
 21
-41.7145
  0
LINE
  8
0
 10
642.723
 20
-41.7145
 11
642.088
 21
-41.3115
  0
LINE
  8
0
 10
642.088
 20
-41.3115
 11
641.573
 21
-40.7634
  0
LINE
  8
0
 10
641.573
 20
-40.7634
 11
641.211
 21
-40.1044
  0
LINE
  8
0
 10
641.211
 20
-40.1044
 11
641.024
 21
-39.376
  0
LINE
  8
0
 10
641.024
 20
-39.376
 11
641.024
 21
-38.624
  0
LINE
  8
0
 10
641.024
 20
-38.624
 11
641.211
 21
-37.8956
  0
LINE
  8
0
 10
641.211
 20
-37.8956
 11
641.573
 21
-37.2366
  0
LINE
  8
0
 10
641.573
 20
-37.2366
 11
642.088
 21
-36.6885
  0
LINE
  8
0
 10
642.088
 20
-36.6885
 11
642.723
 21
-36.2855
  0
LINE
  8
0
 10
642.723
 20
-36.2855
 11
643.438
 21
-36.0531
  0
LINE
  8
0
 10
643.438
 20
-36.0531
 11
644.188
 21
-36.0059
  0
LINE
  8
0
 10
644.188
 20
-36.0059
 11
644.927
 21
-36.1468
  0
LINE
  8
0
 10
644.927
 20
-36.1468
 11
645.607
 21
-36.467
  0
LINE
  8
0
 10
645.607
 20
-36.467
 11
646.187
 21
-36.9464
  0
LINE
  8
0
 10
646.187
 20
-36.9464
 11
646.629
 21
-37.5547
  0
LINE
  8
0
 10
646.629
 20
-37.5547
 11
646.906
 21
-38.2539
  0
LINE
  8
0
 10
646.906
 20
-38.2539
 11
647
 21
-39
  0
LINE
  8
0
 10
647
 20
-39
 11
646.906
 21
-39.7461
  0
LINE
  8
0
 10
646.906
 20
-39.7461
 11
646.629
 21
-40.4453
  0
LINE
  8
0
 10
646.629
 20
-40.4453
 11
646.187
 21
-41.0536
  0
LINE
  8
0
 10
646.187
 20
-41.0536
 11
645.607
 21
-41.533
  0
LINE
  8
0
 10
645.607
 20
-41.533
 11
644.927
 21
-41.8532
  0
LINE
  8
0
 10
644.927
 20
-41.8532
 11
644.188
 21
-41.9941
  0
LINE
  8
0
 10
644.188
 20
-41.9941
 11
643.438
 21
-41.9469
  0
LINE
  8
0
 10
751.438
 20
-41.9469
 11
750.723
 21
-41.7145
  0
LINE
  8
0
 10
750.723
 20
-41.7145
 11
750.088
 21
-41.3115
  0
LINE
  8
0
 10
750.088
 20
-41.3115
 11
749.573
 21
-40.7634
  0
LINE
  8
0
 10
749.573
 20
-40.7634
 11
749.211
 21
-40.1044
  0
LINE
  8
0
 10
749.211
 20
-40.1044
 11
749.024
 21
-39.376
  0
LINE
  8
0
 10
749.024
 20
-39.376
 11
749.024
 21
-38.624
  0
LINE
  8
0
 10
749.024
 20
-38.624
 11
749.211
 21
-37.8956
  0
LINE
  8
0
 10
749.211
 20
-37.8956
 11
749.573
 21
-37.2366
  0
LINE
  8
0
 10
749.573
 20
-37.2366
 11
750.088
 21
-36.6885
  0
LINE
  8
0
 10
750.088
 20
-36.6885
 11
750.723
 21
-36.2855
  0
LINE
  8
0
 10
750.723
 20
-36.2855
 11
751.438
 21
-36.0531
  0
LINE
  8
0
 10
751.438
 20
-36.0531
 11
752.188
 21
-36.0059
  0
LINE
  8
0
 10
752.188
 20
-36.0059
 11
752.927
 21
-36.1468
  0
LINE
  8
0
 10
752.927
 20
-36.1468
 11
753.607
 21
-36.467
  0
LINE
  8
0
 10
753.607
 20
-36.467
 11
754.187
 21
-36.9464
  0
LINE
  8
0
 10
754.187
 20
-36.9464
 11
754.629
 21
-37.5547
  0
LINE
  8
0
 10
754.629
 20
-37.5547
 11
754.906
 21
-38.2539
  0
LINE
  8
0
 10
754.906
 20
-38.2539
 11
755
 21
-39
  0
LINE
  8
0
 10
755
 20
-39
 11
754.906
 21
-39.7461
  0
LINE
  8
0
 10
754.906
 20
-39.7461
 11
754.629
 21
-40.4453
  0
LINE
  8
0
 10
754.629
 20
-40.4453
 11
754.187
 21
-41.0536
  0
LINE
  8
0
 10
754.187
 20
-41.0536
 11
753.607
 21
-41.533
  0
LINE
  8
0
 10
753.607
 20
-41.533
 11
752.927
 21
-41.8532
  0
LINE
  8
0
 10
752.927
 20
-41.8532
 11
752.188
 21
-41.9941
  0
LINE
  8
0
 10
752.188
 20
-41.9941
 11
751.438
 21
-41.9469
  0
LINE
  8
0
 10
631.243
 20
-44.8429
 11
632.409
 21
-44.3815
  0
LINE
  8
0
 10
632.409
 20
-44.3815
 11
633.423
 21
-43.6448
  0
LINE
  8
0
 10
633.423
 20
-43.6448
 11
634.222
 21
-42.6791
  0
LINE
  8
0
 10
634.222
 20
-42.6791
 11
634.755
 21
-41.5451
  0
LINE
  8
0
 10
634.755
 20
-41.5451
 11
635
 21
-40
  0
LINE
  8
0
 10
635
 20
-40
 11
635
 21
40
  0
LINE
  8
0
 10
635
 20
40
 11
634.843
 21
41.2435
  0
LINE
  8
0
 10
634.843
 20
41.2435
 11
634.382
 21
42.4088
  0
LINE
  8
0
 10
634.382
 20
42.4088
 11
633.645
 21
43.4227
  0
LINE
  8
0
 10
633.645
 20
43.4227
 11
632.679
 21
44.2216
  0
LINE
  8
0
 10
632.679
 20
44.2216
 11
631.545
 21
44.7553
  0
LINE
  8
0
 10
631.545
 20
44.7553
 11
630
 21
45
  0
LINE
  8
0
 10
630
 20
45
 11
520
 21
45
  0
LINE
  8
0
 10
520
 20
45
 11
518.757
 21
44.8429
  0
LINE
  8
0
 10
518.757
 20
44.8429
 11
517.591
 21
44.3815
  0
LINE
  8
0
 10
517.591
 20
44.3815
 11
516.577
 21
43.6448
  0
LINE
  8
0
 10
516.577
 20
43.6448
 11
515.778
 21
42.6791
  0
LINE
  8
0
 10
515.778
 20
42.6791
 11
515.245
 21
41.5451
  0
LINE
  8
0
 10
515.245
 20
41.5451
 11
515
 21
40
  0
LINE
  8
0
 10
515
 20
40
 11
515
 21
22.5
  0
LINE
  8
0
 10
515
 20
22.5
 11
530
 21
22.5
  0
LINE
  8
0
 10
530
 20
22.5
 11
530
 21
12.5
  0
LINE
  8
0
 10
530
 20
12.5
 11
530.995
 21
12.5
  0
LINE
  8
0
 10
530.995
 20
12.5
 11
530.995
 21
13.005
  0
LINE
  8
0
 10
530.995
 20
13.005
 11
531.093
 21
13.623
  0
LINE
  8
0
 10
531.093
 20
13.623
 11
531.306
 21
14.0766
  0
LINE
  8
0
 10
531.306
 20
14.0766
 11
531.626
 21
14.4629
  0
LINE
  8
0
 10
531.626
 20
14.4629
 11
532.031
 21
14.7576
  0
LINE
  8
0
 10
532.031
 20
14.7576
 11
532.498
 21
14.9422
  0
LINE
  8
0
 10
532.498
 20
14.9422
 11
532.995
 21
15.005
  0
LINE
  8
0
 10
532.995
 20
15.005
 11
616.005
 21
15.005
  0
LINE
  8
0
 10
616.005
 20
15.005
 11
616.623
 21
14.9071
  0
LINE
  8
0
 10
616.623
 20
14.9071
 11
617.077
 21
14.6936
  0
LINE
  8
0
 10
617.077
 20
14.6936
 11
617.463
 21
14.3741
  0
LINE
  8
0
 10
617.463
 20
14.3741
 11
617.758
 21
13.9685
  0
LINE
  8
0
 10
617.758
 20
13.9685
 11
617.942
 21
13.5024
  0
LINE
  8
0
 10
617.942
 20
13.5024
 11
618.005
 21
13.005
  0
LINE
  8
0
 10
618.005
 20
13.005
 11
618.005
 21
-13.005
  0
LINE
  8
0
 10
618.005
 20
-13.005
 11
617.907
 21
-13.623
  0
LINE
  8
0
 10
617.907
 20
-13.623
 11
617.694
 21
-14.0766
  0
LINE
  8
0
 10
617.694
 20
-14.0766
 11
617.374
 21
-14.4629
  0
LINE
  8
0
 10
617.374
 20
-14.4629
 11
616.969
 21
-14.7576
  0
LINE
  8
0
 10
616.969
 20
-14.7576
 11
616.502
 21
-14.9422
  0
LINE
  8
0
 10
616.502
 20
-14.9422
 11
616.005
 21
-15.005
  0
LINE
  8
0
 10
616.005
 20
-15.005
 11
601.995
 21
-15.005
  0
LINE
  8
0
 10
601.995
 20
-15.005
 11
601.377
 21
-14.9071
  0
LINE
  8
0
 10
601.377
 20
-14.9071
 11
600.923
 21
-14.6936
  0
LINE
  8
0
 10
600.923
 20
-14.6936
 11
600.537
 21
-14.3741
  0
LINE
  8
0
 10
600.537
 20
-14.3741
 11
600.242
 21
-13.9685
  0
LINE
  8
0
 10
600.242
 20
-13.9685
 11
600.058
 21
-13.5024
  0
LINE
  8
0
 10
600.058
 20
-13.5024
 11
599.995
 21
-13.005
  0
LINE
  8
0
 10
599.995
 20
-13.005
 11
599.995
 21
-5.99501
  0
LINE
  8
0
 10
599.995
 20
-5.99501
 11
600.093
 21
-5.37698
  0
LINE
  8
0
 10
600.093
 20
-5.37698
 11
600.306
 21
-4.92336
  0
LINE
  8
0
 10
600.306
 20
-4.92336
 11
600.626
 21
-4.53708
  0
LINE
  8
0
 10
600.626
 20
-4.53708
 11
601.031
 21
-4.2424
  0
LINE
  8
0
 10
601.031
 20
-4.2424
 11
601.498
 21
-4.05785
  0
LINE
  8
0
 10
601.498
 20
-4.05785
 11
601.995
 21
-3.99501
  0
LINE
  8
0
 10
601.995
 20
-3.99501
 11
608.995
 21
-3.99501
  0
LINE
  8
0
 10
608.995
 20
-3.99501
 11
608.995
 21
3.99501
  0
LINE
  8
0
 10
608.995
 20
3.99501
 11
547
 21
3.99501
  0
LINE
  8
0
 10
547
 20
3.99501
 11
547
 21
-3.99501
  0
LINE
  8
0
 10
547
 20
-3.99501
 11
569.005
 21
-3.99501
  0
LINE
  8
0
 10
569.005
 20
-3.99501
 11
569.623
 21
-4.0929
  0
LINE
  8
0
 10
569.623
 20
-4.0929
 11
570.077
 21
-4.30635
  0
LINE
  8
0
 10
570.077
 20
-4.30635
 11
570.463
 21
-4.62592
  0
LINE
  8
0
 10
570.463
 20
-4.62592
 11
570.758
 21
-5.03151
  0
LINE
  8
0
 10
570.758
 20
-5.03151
 11
570.942
 21
-5.49763
  0
LINE
  8
0
 10
570.942
 20
-5.49763
 11
571.005
 21
-5.99501
  0
LINE
  8
0
 10
571.005
 20
-5.99501
 11
571.005
 21
-13.005
  0
LINE
  8
0
 10
571.005
 20
-13.005
 11
570.907
 21
-13.623
  0
LINE
  8
0
 10
570.907
 20
-13.623
 11
570.694
 21
-14.0766
  0
LINE
  8
0
 10
570.694
 20
-14.0766
 11
570.374
 21
-14.4629
  0
LINE
  8
0
 10
570.374
 20
-14.4629
 11
569.969
 21
-14.7576
  0
LINE
  8
0
 10
569.969
 20
-14.7576
 11
569.502
 21
-14.9422
  0
LINE
  8
0
 10
569.502
 20
-14.9422
 11
569.005
 21
-15.005
  0
LINE
  8
0
 10
569.005
 20
-15.005
 11
532.995
 21
-15.005
  0
LINE
  8
0
 10
532.995
 20
-15.005
 11
532.377
 21
-14.9071
  0
LINE
  8
0
 10
532.377
 20
-14.9071
 11
531.923
 21
-14.6936
  0
LINE
  8
0
 10
531.923
 20
-14.6936
 11
531.537
 21
-14.3741
  0
LINE
  8
0
 10
531.537
 20
-14.3741
 11
531.242
 21
-13.9685
  0
LINE
  8
0
 10
531.242
 20
-13.9685
 11
531.058
 21
-13.5024
  0
LINE
  8
0
 10
531.058
 20
-13.5024
 11
530.995
 21
-13.005
  0
LINE
  8
0
 10
530.995
 20
-13.005
 11
530.995
 21
-12.5
  0
LINE
  8
0
 10
530.995
 20
-12.5
 11
530
 21
-12.5
  0
LINE
  8
0
 10
530
 20
-12.5
 11
530
 21
-22.5
  0
LINE
  8
0
 10
530
 20
-22.5
 11
515
 21
-22.5
  0
LINE
  8
0
 10
515
 20
-22.5
 11
515
 21
-40
  0
LINE
  8
0
 10
515
 20
-40
 11
515.157
 21
-41.2435
  0
LINE
  8
0
 10
515.157
 20
-41.2435
 11
515.618
 21
-42.4088
  0
LINE
  8
0
 10
515.618
 20
-42.4088
 11
516.355
 21
-43.4227
  0
LINE
  8
0
 10
516.355
 20
-43.4227
 11
517.321
 21
-44.2216
  0
LINE
  8
0
 10
517.321
 20
-44.2216
 11
518.455
 21
-44.7553
  0
LINE
  8
0
 10
518.455
 20
-44.7553
 11
520
 21
-45
  0
LINE
  8
0
 10
520
 20
-45
 11
630
 21
-45
  0
LINE
  8
0
 10
630
 20
-45
 11
631.243
 21
-44.8429
  0
LINE
  8
0
 10
628.438
 20
36.0531
 11
627.723
 21
36.2855
  0
LINE
  8
0
 10
627.723
 20
36.2855
 11
627.088
 21
36.6885
  0
LINE
  8
0
 10
627.088
 20
36.6885
 11
626.573
 21
37.2366
  0
LINE
  8
0
 10
626.573
 20
37.2366
 11
626.211
 21
37.8956
  0
LINE
  8
0
 10
626.211
 20
37.8956
 11
626.024
 21
38.624
  0
LINE
  8
0
 10
626.024
 20
38.624
 11
626.024
 21
39.376
  0
LINE
  8
0
 10
626.024
 20
39.376
 11
626.211
 21
40.1044
  0
LINE
  8
0
 10
626.211
 20
40.1044
 11
626.573
 21
40.7634
  0
LINE
  8
0
 10
626.573
 20
40.7634
 11
627.088
 21
41.3115
  0
LINE
  8
0
 10
627.088
 20
41.3115
 11
627.723
 21
41.7145
  0
LINE
  8
0
 10
627.723
 20
41.7145
 11
628.438
 21
41.9469
  0
LINE
  8
0
 10
628.438
 20
41.9469
 11
629.188
 21
41.9941
  0
LINE
  8
0
 10
629.188
 20
41.9941
 11
629.927
 21
41.8532
  0
LINE
  8
0
 10
629.927
 20
41.8532
 11
630.607
 21
41.533
  0
LINE
  8
0
 10
630.607
 20
41.533
 11
631.187
 21
41.0536
  0
LINE
  8
0
 10
631.187
 20
41.0536
 11
631.629
 21
40.4453
  0
LINE
  8
0
 10
631.629
 20
40.4453
 11
631.906
 21
39.7461
  0
LINE
  8
0
 10
631.906
 20
39.7461
 11
632
 21
39
  0
LINE
  8
0
 10
632
 20
39
 11
631.906
 21
38.2539
  0
LINE
  8
0
 10
631.906
 20
38.2539
 11
631.629
 21
37.5547
  0
LINE
  8
0
 10
631.629
 20
37.5547
 11
631.187
 21
36.9464
  0
LINE
  8
0
 10
631.187
 20
36.9464
 11
630.607
 21
36.467
  0
LINE
  8
0
 10
630.607
 20
36.467
 11
629.927
 21
36.1468
  0
LINE
  8
0
 10
629.927
 20
36.1468
 11
629.188
 21
36.0059
  0
LINE
  8
0
 10
629.188
 20
36.0059
 11
628.438
 21
36.0531
  0
LINE
  8
0
 10
520.438
 20
36.0531
 11
519.723
 21
36.2855
  0
LINE
  8
0
 10
519.723
 20
36.2855
 11
519.088
 21
36.6885
  0
LINE
  8
0
 10
519.088
 20
36.6885
 11
518.573
 21
37.2366
  0
LINE
  8
0
 10
518.573
 20
37.2366
 11
518.211
 21
37.8956
  0
LINE
  8
0
 10
518.211
 20
37.8956
 11
518.024
 21
38.624
  0
LINE
  8
0
 10
518.024
 20
38.624
 11
518.024
 21
39.376
  0
LINE
  8
0
 10
518.024
 20
39.376
 11
518.211
 21
40.1044
  0
LINE
  8
0
 10
518.211
 20
40.1044
 11
518.573
 21
40.7634
  0
LINE
  8
0
 10
518.573
 20
40.7634
 11
519.088
 21
41.3115
  0
LINE
  8
0
 10
519.088
 20
41.3115
 11
519.723
 21
41.7145
  0
LINE
  8
0
 10
519.723
 20
41.7145
 11
520.438
 21
41.9469
  0
LINE
  8
0
 10
520.438
 20
41.9469
 11
521.188
 21
41.9941
  0
LINE
  8
0
 10
521.188
 20
41.9941
 11
521.927
 21
41.8532
  0
LINE
  8
0
 10
521.927
 20
41.8532
 11
522.607
 21
41.533
  0
LINE
  8
0
 10
522.607
 20
41.533
 11
523.187
 21
41.0536
  0
LINE
  8
0
 10
523.187
 20
41.0536
 11
523.629
 21
40.4453
  0
LINE
  8
0
 10
523.629
 20
40.4453
 11
523.906
 21
39.7461
  0
LINE
  8
0
 10
523.906
 20
39.7461
 11
524
 21
39
  0
LINE
  8
0
 10
524
 20
39
 11
523.906
 21
38.2539
  0
LINE
  8
0
 10
523.906
 20
38.2539
 11
523.629
 21
37.5547
  0
LINE
  8
0
 10
523.629
 20
37.5547
 11
523.187
 21
36.9464
  0
LINE
  8
0
 10
523.187
 20
36.9464
 11
522.607
 21
36.467
  0
LINE
  8
0
 10
522.607
 20
36.467
 11
521.927
 21
36.1468
  0
LINE
  8
0
 10
521.927
 20
36.1468
 11
521.188
 21
36.0059
  0
LINE
  8
0
 10
521.188
 20
36.0059
 11
520.438
 21
36.0531
  0
LINE
  8
0
 10
598.412
 20
-2.75006
 11
596.825
 21
0
  0
LINE
  8
0
 10
596.825
 20
0
 11
598.412
 21
2.75006
  0
LINE
  8
0
 10
598.412
 20
2.75006
 11
601.588
 21
2.75006
  0
LINE
  8
0
 10
601.588
 20
2.75006
 11
603.175
 21
0
  0
LINE
  8
0
 10
603.175
 20
0
 11
601.588
 21
-2.75006
  0
LINE
  8
0
 10
601.588
 20
-2.75006
 11
598.412
 21
-2.75006
  0
LINE
  8
0
 10
605.719
 20
-1.47342
 11
605.361
 21
-1.35724
  0
LINE
  8
0
 10
605.361
 20
-1.35724
 11
605.044
 21
-1.15576
  0
LINE
  8
0
 10
605.044
 20
-1.15576
 11
604.786
 21
-0.881668
  0
LINE
  8
0
 10
604.786
 20
-0.881668
 11
604.605
 21
-0.552185
  0
LINE
  8
0
 10
604.605
 20
-0.552185
 11
604.512
 21
-0.187988
  0
LINE
  8
0
 10
604.512
 20
-0.187988
 11
604.512
 21
0.187988
  0
LINE
  8
0
 10
604.512
 20
0.187988
 11
604.605
 21
0.552185
  0
LINE
  8
0
 10
604.605
 20
0.552185
 11
604.786
 21
0.881668
  0
LINE
  8
0
 10
604.786
 20
0.881668
 11
605.044
 21
1.15576
  0
LINE
  8
0
 10
605.044
 20
1.15576
 11
605.361
 21
1.35724
  0
LINE
  8
0
 10
605.361
 20
1.35724
 11
605.719
 21
1.47342
  0
LINE
  8
0
 10
605.719
 20
1.47342
 11
606.094
 21
1.49704
  0
LINE
  8
0
 10
606.094
 20
1.49704
 11
606.464
 21
1.42657
  0
LINE
  8
0
 10
606.464
 20
1.42657
 11
606.804
 21
1.26648
  0
LINE
  8
0
 10
606.804
 20
1.26648
 11
607.093
 21
1.02681
  0
LINE
  8
0
 10
607.093
 20
1.02681
 11
607.314
 21
0.722626
  0
LINE
  8
0
 10
607.314
 20
0.722626
 11
607.453
 21
0.373032
  0
LINE
  8
0
 10
607.453
 20
0.373032
 11
607.5
 21
0
  0
LINE
  8
0
 10
607.5
 20
0
 11
607.453
 21
-0.373032
  0
LINE
  8
0
 10
607.453
 20
-0.373032
 11
607.314
 21
-0.722626
  0
LINE
  8
0
 10
607.314
 20
-0.722626
 11
607.093
 21
-1.02681
  0
LINE
  8
0
 10
607.093
 20
-1.02681
 11
606.804
 21
-1.26648
  0
LINE
  8
0
 10
606.804
 20
-1.26648
 11
606.464
 21
-1.42657
  0
LINE
  8
0
 10
606.464
 20
-1.42657
 11
606.094
 21
-1.49704
  0
LINE
  8
0
 10
606.094
 20
-1.49704
 11
605.719
 21
-1.47342
  0
LINE
  8
0
 10
575.719
 20
-1.47342
 11
575.361
 21
-1.35724
  0
LINE
  8
0
 10
575.361
 20
-1.35724
 11
575.044
 21
-1.15576
  0
LINE
  8
0
 10
575.044
 20
-1.15576
 11
574.786
 21
-0.881668
  0
LINE
  8
0
 10
574.786
 20
-0.881668
 11
574.605
 21
-0.552185
  0
LINE
  8
0
 10
574.605
 20
-0.552185
 11
574.512
 21
-0.187988
  0
LINE
  8
0
 10
574.512
 20
-0.187988
 11
574.512
 21
0.187988
  0
LINE
  8
0
 10
574.512
 20
0.187988
 11
574.605
 21
0.552185
  0
LINE
  8
0
 10
574.605
 20
0.552185
 11
574.786
 21
0.881668
  0
LINE
  8
0
 10
574.786
 20
0.881668
 11
575.044
 21
1.15576
  0
LINE
  8
0
 10
575.044
 20
1.15576
 11
575.361
 21
1.35724
  0
LINE
  8
0
 10
575.361
 20
1.35724
 11
575.719
 21
1.47342
  0
LINE
  8
0
 10
575.719
 20
1.47342
 11
576.094
 21
1.49704
  0
LINE
  8
0
 10
576.094
 20
1.49704
 11
576.464
 21
1.42657
  0
LINE
  8
0
 10
576.464
 20
1.42657
 11
576.804
 21
1.26648
  0
LINE
  8
0
 10
576.804
 20
1.26648
 11
577.093
 21
1.02681
  0
LINE
  8
0
 10
577.093
 20
1.02681
 11
577.314
 21
0.722626
  0
LINE
  8
0
 10
577.314
 20
0.722626
 11
577.453
 21
0.373032
  0
LINE
  8
0
 10
577.453
 20
0.373032
 11
577.5
 21
0
  0
LINE
  8
0
 10
577.5
 20
0
 11
577.453
 21
-0.373032
  0
LINE
  8
0
 10
577.453
 20
-0.373032
 11
577.314
 21
-0.722626
  0
LINE
  8
0
 10
577.314
 20
-0.722626
 11
577.093
 21
-1.02681
  0
LINE
  8
0
 10
577.093
 20
-1.02681
 11
576.804
 21
-1.26648
  0
LINE
  8
0
 10
576.804
 20
-1.26648
 11
576.464
 21
-1.42657
  0
LINE
  8
0
 10
576.464
 20
-1.42657
 11
576.094
 21
-1.49704
  0
LINE
  8
0
 10
576.094
 20
-1.49704
 11
575.719
 21
-1.47342
  0
LINE
  8
0
 10
520.438
 20
-41.9469
 11
519.723
 21
-41.7145
  0
LINE
  8
0
 10
519.723
 20
-41.7145
 11
519.088
 21
-41.3115
  0
LINE
  8
0
 10
519.088
 20
-41.3115
 11
518.573
 21
-40.7634
  0
LINE
  8
0
 10
518.573
 20
-40.7634
 11
518.211
 21
-40.1044
  0
LINE
  8
0
 10
518.211
 20
-40.1044
 11
518.024
 21
-39.376
  0
LINE
  8
0
 10
518.024
 20
-39.376
 11
518.024
 21
-38.624
  0
LINE
  8
0
 10
518.024
 20
-38.624
 11
518.211
 21
-37.8956
  0
LINE
  8
0
 10
518.211
 20
-37.8956
 11
518.573
 21
-37.2366
  0
LINE
  8
0
 10
518.573
 20
-37.2366
 11
519.088
 21
-36.6885
  0
LINE
  8
0
 10
519.088
 20
-36.6885
 11
519.723
 21
-36.2855
  0
LINE
  8
0
 10
519.723
 20
-36.2855
 11
520.438
 21
-36.0531
  0
LINE
  8
0
 10
520.438
 20
-36.0531
 11
521.188
 21
-36.0059
  0
LINE
  8
0
 10
521.188
 20
-36.0059
 11
521.927
 21
-36.1468
  0
LINE
  8
0
 10
521.927
 20
-36.1468
 11
522.607
 21
-36.467
  0
LINE
  8
0
 10
522.607
 20
-36.467
 11
523.187
 21
-36.9464
  0
LINE
  8
0
 10
523.187
 20
-36.9464
 11
523.629
 21
-37.5547
  0
LINE
  8
0
 10
523.629
 20
-37.5547
 11
523.906
 21
-38.2539
  0
LINE
  8
0
 10
523.906
 20
-38.2539
 11
524
 21
-39
  0
LINE
  8
0
 10
524
 20
-39
 11
523.906
 21
-39.7461
  0
LINE
  8
0
 10
523.906
 20
-39.7461
 11
523.629
 21
-40.4453
  0
LINE
  8
0
 10
523.629
 20
-40.4453
 11
523.187
 21
-41.0536
  0
LINE
  8
0
 10
523.187
 20
-41.0536
 11
522.607
 21
-41.533
  0
LINE
  8
0
 10
522.607
 20
-41.533
 11
521.927
 21
-41.8532
  0
LINE
  8
0
 10
521.927
 20
-41.8532
 11
521.188
 21
-41.9941
  0
LINE
  8
0
 10
521.188
 20
-41.9941
 11
520.438
 21
-41.9469
  0
LINE
  8
0
 10
628.438
 20
-41.9469
 11
627.723
 21
-41.7145
  0
LINE
  8
0
 10
627.723
 20
-41.7145
 11
627.088
 21
-41.3115
  0
LINE
  8
0
 10
627.088
 20
-41.3115
 11
626.573
 21
-40.7634
  0
LINE
  8
0
 10
626.573
 20
-40.7634
 11
626.211
 21
-40.1044
  0
LINE
  8
0
 10
626.211
 20
-40.1044
 11
626.024
 21
-39.376
  0
LINE
  8
0
 10
626.024
 20
-39.376
 11
626.024
 21
-38.624
  0
LINE
  8
0
 10
626.024
 20
-38.624
 11
626.211
 21
-37.8956
  0
LINE
  8
0
 10
626.211
 20
-37.8956
 11
626.573
 21
-37.2366
  0
LINE
  8
0
 10
626.573
 20
-37.2366
 11
627.088
 21
-36.6885
  0
LINE
  8
0
 10
627.088
 20
-36.6885
 11
627.723
 21
-36.2855
  0
LINE
  8
0
 10
627.723
 20
-36.2855
 11
628.438
 21
-36.0531
  0
LINE
  8
0
 10
628.438
 20
-36.0531
 11
629.188
 21
-36.0059
  0
LINE
  8
0
 10
629.188
 20
-36.0059
 11
629.927
 21
-36.1468
  0
LINE
  8
0
 10
629.927
 20
-36.1468
 11
630.607
 21
-36.467
  0
LINE
  8
0
 10
630.607
 20
-36.467
 11
631.187
 21
-36.9464
  0
LINE
  8
0
 10
631.187
 20
-36.9464
 11
631.629
 21
-37.5547
  0
LINE
  8
0
 10
631.629
 20
-37.5547
 11
631.906
 21
-38.2539
  0
LINE
  8
0
 10
631.906
 20
-38.2539
 11
632
 21
-39
  0
LINE
  8
0
 10
632
 20
-39
 11
631.906
 21
-39.7461
  0
LINE
  8
0
 10
631.906
 20
-39.7461
 11
631.629
 21
-40.4453
  0
LINE
  8
0
 10
631.629
 20
-40.4453
 11
631.187
 21
-41.0536
  0
LINE
  8
0
 10
631.187
 20
-41.0536
 11
630.607
 21
-41.533
  0
LINE
  8
0
 10
630.607
 20
-41.533
 11
629.927
 21
-41.8532
  0
LINE
  8
0
 10
629.927
 20
-41.8532
 11
629.188
 21
-41.9941
  0
LINE
  8
0
 10
629.188
 20
-41.9941
 11
628.438
 21
-41.9469
  0
LINE
  8
0
 10
508.243
 20
-44.8429
 11
509.409
 21
-44.3815
  0
LINE
  8
0
 10
509.409
 20
-44.3815
 11
510.423
 21
-43.6448
  0
LINE
  8
0
 10
510.423
 20
-43.6448
 11
511.222
 21
-42.6791
  0
LINE
  8
0
 10
511.222
 20
-42.6791
 11
511.755
 21
-41.5451
  0
LINE
  8
0
 10
511.755
 20
-41.5451
 11
512
 21
-40
  0
LINE
  8
0
 10
512
 20
-40
 11
512
 21
40
  0
LINE
  8
0
 10
512
 20
40
 11
511.843
 21
41.2435
  0
LINE
  8
0
 10
511.843
 20
41.2435
 11
511.382
 21
42.4088
  0
LINE
  8
0
 10
511.382
 20
42.4088
 11
510.645
 21
43.4227
  0
LINE
  8
0
 10
510.645
 20
43.4227
 11
509.679
 21
44.2216
  0
LINE
  8
0
 10
509.679
 20
44.2216
 11
508.545
 21
44.7553
  0
LINE
  8
0
 10
508.545
 20
44.7553
 11
507
 21
45
  0
LINE
  8
0
 10
507
 20
45
 11
397
 21
45
  0
LINE
  8
0
 10
397
 20
45
 11
395.757
 21
44.8429
  0
LINE
  8
0
 10
395.757
 20
44.8429
 11
394.591
 21
44.3815
  0
LINE
  8
0
 10
394.591
 20
44.3815
 11
393.577
 21
43.6448
  0
LINE
  8
0
 10
393.577
 20
43.6448
 11
392.778
 21
42.6791
  0
LINE
  8
0
 10
392.778
 20
42.6791
 11
392.245
 21
41.5451
  0
LINE
  8
0
 10
392.245
 20
41.5451
 11
392
 21
40
  0
LINE
  8
0
 10
392
 20
40
 11
392
 21
29
  0
LINE
  8
0
 10
392
 20
29
 11
442
 21
29
  0
LINE
  8
0
 10
442
 20
29
 11
442
 21
27
  0
LINE
  8
0
 10
442
 20
27
 11
392
 21
27
  0
LINE
  8
0
 10
392
 20
27
 11
392
 21
22.5
  0
LINE
  8
0
 10
392
 20
22.5
 11
407
 21
22.5
  0
LINE
  8
0
 10
407
 20
22.5
 11
407
 21
12.5
  0
LINE
  8
0
 10
407
 20
12.5
 11
407.995
 21
12.5
  0
LINE
  8
0
 10
407.995
 20
12.5
 11
407.995
 21
13.005
  0
LINE
  8
0
 10
407.995
 20
13.005
 11
408.093
 21
13.623
  0
LINE
  8
0
 10
408.093
 20
13.623
 11
408.306
 21
14.0766
  0
LINE
  8
0
 10
408.306
 20
14.0766
 11
408.626
 21
14.4629
  0
LINE
  8
0
 10
408.626
 20
14.4629
 11
409.031
 21
14.7576
  0
LINE
  8
0
 10
409.031
 20
14.7576
 11
409.498
 21
14.9422
  0
LINE
  8
0
 10
409.498
 20
14.9422
 11
409.995
 21
15.005
  0
LINE
  8
0
 10
409.995
 20
15.005
 11
493.005
 21
15.005
  0
LINE
  8
0
 10
493.005
 20
15.005
 11
493.623
 21
14.9071
  0
LINE
  8
0
 10
493.623
 20
14.9071
 11
494.077
 21
14.6936
  0
LINE
  8
0
 10
494.077
 20
14.6936
 11
494.463
 21
14.3741
  0
LINE
  8
0
 10
494.463
 20
14.3741
 11
494.758
 21
13.9685
  0
LINE
  8
0
 10
494.758
 20
13.9685
 11
494.942
 21
13.5024
  0
LINE
  8
0
 10
494.942
 20
13.5024
 11
495.005
 21
13.005
  0
LINE
  8
0
 10
495.005
 20
13.005
 11
495.005
 21
-13.005
  0
LINE
  8
0
 10
495.005
 20
-13.005
 11
494.907
 21
-13.623
  0
LINE
  8
0
 10
494.907
 20
-13.623
 11
494.694
 21
-14.0766
  0
LINE
  8
0
 10
494.694
 20
-14.0766
 11
494.374
 21
-14.4629
  0
LINE
  8
0
 10
494.374
 20
-14.4629
 11
493.969
 21
-14.7576
  0
LINE
  8
0
 10
493.969
 20
-14.7576
 11
493.502
 21
-14.9422
  0
LINE
  8
0
 10
493.502
 20
-14.9422
 11
493.005
 21
-15.005
  0
LINE
  8
0
 10
493.005
 20
-15.005
 11
478.995
 21
-15.005
  0
LINE
  8
0
 10
478.995
 20
-15.005
 11
478.377
 21
-14.9071
  0
LINE
  8
0
 10
478.377
 20
-14.9071
 11
477.923
 21
-14.6936
  0
LINE
  8
0
 10
477.923
 20
-14.6936
 11
477.537
 21
-14.3741
  0
LINE
  8
0
 10
477.537
 20
-14.3741
 11
477.242
 21
-13.9685
  0
LINE
  8
0
 10
477.242
 20
-13.9685
 11
477.058
 21
-13.5024
  0
LINE
  8
0
 10
477.058
 20
-13.5024
 11
476.995
 21
-13.005
  0
LINE
  8
0
 10
476.995
 20
-13.005
 11
476.995
 21
-5.99501
  0
LINE
  8
0
 10
476.995
 20
-5.99501
 11
477.093
 21
-5.37698
  0
LINE
  8
0
 10
477.093
 20
-5.37698
 11
477.306
 21
-4.92336
  0
LINE
  8
0
 10
477.306
 20
-4.92336
 11
477.626
 21
-4.53708
  0
LINE
  8
0
 10
477.626
 20
-4.53708
 11
478.031
 21
-4.2424
  0
LINE
  8
0
 10
478.031
 20
-4.2424
 11
478.498
 21
-4.05785
  0
LINE
  8
0
 10
478.498
 20
-4.05785
 11
478.995
 21
-3.99501
  0
LINE
  8
0
 10
478.995
 20
-3.99501
 11
485.995
 21
-3.99501
  0
LINE
  8
0
 10
485.995
 20
-3.99501
 11
485.995
 21
3.99501
  0
LINE
  8
0
 10
485.995
 20
3.99501
 11
459.505
 21
3.99501
  0
LINE
  8
0
 10
459.505
 20
3.99501
 11
459.505
 21
-8.00499
  0
LINE
  8
0
 10
459.505
 20
-8.00499
 11
459.407
 21
-8.62302
  0
LINE
  8
0
 10
459.407
 20
-8.62302
 11
459.194
 21
-9.07664
  0
LINE
  8
0
 10
459.194
 20
-9.07664
 11
458.874
 21
-9.46292
  0
LINE
  8
0
 10
458.874
 20
-9.46292
 11
458.469
 21
-9.7576
  0
LINE
  8
0
 10
458.469
 20
-9.7576
 11
458.002
 21
-9.94215
  0
LINE
  8
0
 10
458.002
 20
-9.94215
 11
457.505
 21
-10.005
  0
LINE
  8
0
 10
457.505
 20
-10.005
 11
456.495
 21
-10.005
  0
LINE
  8
0
 10
456.495
 20
-10.005
 11
455.877
 21
-9.9071
  0
LINE
  8
0
 10
455.877
 20
-9.9071
 11
455.423
 21
-9.69365
  0
LINE
  8
0
 10
455.423
 20
-9.69365
 11
455.037
 21
-9.37408
  0
LINE
  8
0
 10
455.037
 20
-9.37408
 11
454.742
 21
-8.96849
  0
LINE
  8
0
 10
454.742
 20
-8.96849
 11
454.558
 21
-8.50237
  0
LINE
  8
0
 10
454.558
 20
-8.50237
 11
454.495
 21
-8.00499
  0
LINE
  8
0
 10
454.495
 20
-8.00499
 11
454.495
 21
-2.30412
  0
LINE
  8
0
 10
454.495
 20
-2.30412
 11
454.474
 21
-2.3219
  0
LINE
  8
0
 10
454.474
 20
-2.3219
 11
453.85
 21
-2.6154
  0
LINE
  8
0
 10
453.85
 20
-2.6154
 11
453.173
 21
-2.74457
  0
LINE
  8
0
 10
453.173
 20
-2.74457
 11
452.485
 21
-2.70128
  0
LINE
  8
0
 10
452.485
 20
-2.70128
 11
451.829
 21
-2.48827
  0
LINE
  8
0
 10
451.829
 20
-2.48827
 11
451.247
 21
-2.1189
  0
LINE
  8
0
 10
451.247
 20
-2.1189
 11
450.775
 21
-1.61641
  0
LINE
  8
0
 10
450.775
 20
-1.61641
 11
450.443
 21
-1.01233
  0
LINE
  8
0
 10
450.443
 20
-1.01233
 11
450.272
 21
-0.344666
  0
LINE
  8
0
 10
450.272
 20
-0.344666
 11
450.272
 21
0.344666
  0
LINE
  8
0
 10
450.272
 20
0.344666
 11
450.443
 21
1.01233
  0
LINE
  8
0
 10
450.443
 20
1.01233
 11
450.775
 21
1.61641
  0
LINE
  8
0
 10
450.775
 20
1.61641
 11
451.247
 21
2.1189
  0
LINE
  8
0
 10
451.247
 20
2.1189
 11
451.829
 21
2.48827
  0
LINE
  8
0
 10
451.829
 20
2.48827
 11
452.485
 21
2.70128
  0
LINE
  8
0
 10
452.485
 20
2.70128
 11
453.173
 21
2.74457
  0
LINE
  8
0
 10
453.173
 20
2.74457
 11
453.85
 21
2.6154
  0
LINE
  8
0
 10
453.85
 20
2.6154
 11
454.474
 21
2.3219
  0
LINE
  8
0
 10
454.474
 20
2.3219
 11
454.495
 21
2.30412
  0
LINE
  8
0
 10
454.495
 20
2.30412
 11
454.495
 21
3.99501
  0
LINE
  8
0
 10
454.495
 20
3.99501
 11
424
 21
3.99501
  0
LINE
  8
0
 10
424
 20
3.99501
 11
424
 21
-3.99501
  0
LINE
  8
0
 10
424
 20
-3.99501
 11
446.005
 21
-3.99501
  0
LINE
  8
0
 10
446.005
 20
-3.99501
 11
446.623
 21
-4.0929
  0
LINE
  8
0
 10
446.623
 20
-4.0929
 11
447.077
 21
-4.30635
  0
LINE
  8
0
 10
447.077
 20
-4.30635
 11
447.463
 21
-4.62592
  0
LINE
  8
0
 10
447.463
 20
-4.62592
 11
447.758
 21
-5.03151
  0
LINE
  8
0
 10
447.758
 20
-5.03151
 11
447.942
 21
-5.49763
  0
LINE
  8
0
 10
447.942
 20
-5.49763
 11
448.005
 21
-5.99501
  0
LINE
  8
0
 10
448.005
 20
-5.99501
 11
448.005
 21
-13.005
  0
LINE
  8
0
 10
448.005
 20
-13.005
 11
447.907
 21
-13.623
  0
LINE
  8
0
 10
447.907
 20
-13.623
 11
447.694
 21
-14.0766
  0
LINE
  8
0
 10
447.694
 20
-14.0766
 11
447.374
 21
-14.4629
  0
LINE
  8
0
 10
447.374
 20
-14.4629
 11
446.969
 21
-14.7576
  0
LINE
  8
0
 10
446.969
 20
-14.7576
 11
446.502
 21
-14.9422
  0
LINE
  8
0
 10
446.502
 20
-14.9422
 11
446.005
 21
-15.005
  0
LINE
  8
0
 10
446.005
 20
-15.005
 11
409.995
 21
-15.005
  0
LINE
  8
0
 10
409.995
 20
-15.005
 11
409.377
 21
-14.9071
  0
LINE
  8
0
 10
409.377
 20
-14.9071
 11
408.923
 21
-14.6936
  0
LINE
  8
0
 10
408.923
 20
-14.6936
 11
408.537
 21
-14.3741
  0
LINE
  8
0
 10
408.537
 20
-14.3741
 11
408.242
 21
-13.9685
  0
LINE
  8
0
 10
408.242
 20
-13.9685
 11
408.058
 21
-13.5024
  0
LINE
  8
0
 10
408.058
 20
-13.5024
 11
407.995
 21
-13.005
  0
LINE
  8
0
 10
407.995
 20
-13.005
 11
407.995
 21
-12.5
  0
LINE
  8
0
 10
407.995
 20
-12.5
 11
407
 21
-12.5
  0
LINE
  8
0
 10
407
 20
-12.5
 11
407
 21
-22.5
  0
LINE
  8
0
 10
407
 20
-22.5
 11
392
 21
-22.5
  0
LINE
  8
0
 10
392
 20
-22.5
 11
392
 21
-27
  0
LINE
  8
0
 10
392
 20
-27
 11
442
 21
-27
  0
LINE
  8
0
 10
442
 20
-27
 11
442
 21
-29
  0
LINE
  8
0
 10
442
 20
-29
 11
392
 21
-29
  0
LINE
  8
0
 10
392
 20
-29
 11
392
 21
-40
  0
LINE
  8
0
 10
392
 20
-40
 11
392.157
 21
-41.2435
  0
LINE
  8
0
 10
392.157
 20
-41.2435
 11
392.618
 21
-42.4088
  0
LINE
  8
0
 10
392.618
 20
-42.4088
 11
393.355
 21
-43.4227
  0
LINE
  8
0
 10
393.355
 20
-43.4227
 11
394.321
 21
-44.2216
  0
LINE
  8
0
 10
394.321
 20
-44.2216
 11
395.455
 21
-44.7553
  0
LINE
  8
0
 10
395.455
 20
-44.7553
 11
397
 21
-45
  0
LINE
  8
0
 10
397
 20
-45
 11
507
 21
-45
  0
LINE
  8
0
 10
507
 20
-45
 11
508.243
 21
-44.8429
  0
LINE
  8
0
 10
505.438
 20
36.0531
 11
504.723
 21
36.2855
  0
LINE
  8
0
 10
504.723
 20
36.2855
 11
504.088
 21
36.6885
  0
LINE
  8
0
 10
504.088
 20
36.6885
 11
503.573
 21
37.2366
  0
LINE
  8
0
 10
503.573
 20
37.2366
 11
503.211
 21
37.8956
  0
LINE
  8
0
 10
503.211
 20
37.8956
 11
503.024
 21
38.624
  0
LINE
  8
0
 10
503.024
 20
38.624
 11
503.024
 21
39.376
  0
LINE
  8
0
 10
503.024
 20
39.376
 11
503.211
 21
40.1044
  0
LINE
  8
0
 10
503.211
 20
40.1044
 11
503.573
 21
40.7634
  0
LINE
  8
0
 10
503.573
 20
40.7634
 11
504.088
 21
41.3115
  0
LINE
  8
0
 10
504.088
 20
41.3115
 11
504.723
 21
41.7145
  0
LINE
  8
0
 10
504.723
 20
41.7145
 11
505.438
 21
41.9469
  0
LINE
  8
0
 10
505.438
 20
41.9469
 11
506.188
 21
41.9941
  0
LINE
  8
0
 10
506.188
 20
41.9941
 11
506.927
 21
41.8532
  0
LINE
  8
0
 10
506.927
 20
41.8532
 11
507.607
 21
41.533
  0
LINE
  8
0
 10
507.607
 20
41.533
 11
508.187
 21
41.0536
  0
LINE
  8
0
 10
508.187
 20
41.0536
 11
508.629
 21
40.4453
  0
LINE
  8
0
 10
508.629
 20
40.4453
 11
508.906
 21
39.7461
  0
LINE
  8
0
 10
508.906
 20
39.7461
 11
509
 21
39
  0
LINE
  8
0
 10
509
 20
39
 11
508.906
 21
38.2539
  0
LINE
  8
0
 10
508.906
 20
38.2539
 11
508.629
 21
37.5547
  0
LINE
  8
0
 10
508.629
 20
37.5547
 11
508.187
 21
36.9464
  0
LINE
  8
0
 10
508.187
 20
36.9464
 11
507.607
 21
36.467
  0
LINE
  8
0
 10
507.607
 20
36.467
 11
506.927
 21
36.1468
  0
LINE
  8
0
 10
506.927
 20
36.1468
 11
506.188
 21
36.0059
  0
LINE
  8
0
 10
506.188
 20
36.0059
 11
505.438
 21
36.0531
  0
LINE
  8
0
 10
397.438
 20
36.0531
 11
396.723
 21
36.2855
  0
LINE
  8
0
 10
396.723
 20
36.2855
 11
396.088
 21
36.6885
  0
LINE
  8
0
 10
396.088
 20
36.6885
 11
395.573
 21
37.2366
  0
LINE
  8
0
 10
395.573
 20
37.2366
 11
395.211
 21
37.8956
  0
LINE
  8
0
 10
395.211
 20
37.8956
 11
395.024
 21
38.624
  0
LINE
  8
0
 10
395.024
 20
38.624
 11
395.024
 21
39.376
  0
LINE
  8
0
 10
395.024
 20
39.376
 11
395.211
 21
40.1044
  0
LINE
  8
0
 10
395.211
 20
40.1044
 11
395.573
 21
40.7634
  0
LINE
  8
0
 10
395.573
 20
40.7634
 11
396.088
 21
41.3115
  0
LINE
  8
0
 10
396.088
 20
41.3115
 11
396.723
 21
41.7145
  0
LINE
  8
0
 10
396.723
 20
41.7145
 11
397.438
 21
41.9469
  0
LINE
  8
0
 10
397.438
 20
41.9469
 11
398.188
 21
41.9941
  0
LINE
  8
0
 10
398.188
 20
41.9941
 11
398.927
 21
41.8532
  0
LINE
  8
0
 10
398.927
 20
41.8532
 11
399.607
 21
41.533
  0
LINE
  8
0
 10
399.607
 20
41.533
 11
400.187
 21
41.0536
  0
LINE
  8
0
 10
400.187
 20
41.0536
 11
400.629
 21
40.4453
  0
LINE
  8
0
 10
400.629
 20
40.4453
 11
400.906
 21
39.7461
  0
LINE
  8
0
 10
400.906
 20
39.7461
 11
401
 21
39
  0
LINE
  8
0
 10
401
 20
39
 11
400.906
 21
38.2539
  0
LINE
  8
0
 10
400.906
 20
38.2539
 11
400.629
 21
37.5547
  0
LINE
  8
0
 10
400.629
 20
37.5547
 11
400.187
 21
36.9464
  0
LINE
  8
0
 10
400.187
 20
36.9464
 11
399.607
 21
36.467
  0
LINE
  8
0
 10
399.607
 20
36.467
 11
398.927
 21
36.1468
  0
LINE
  8
0
 10
398.927
 20
36.1468
 11
398.188
 21
36.0059
  0
LINE
  8
0
 10
398.188
 20
36.0059
 11
397.438
 21
36.0531
  0
LINE
  8
0
 10
482.485
 20
-2.70128
 11
481.829
 21
-2.48827
  0
LINE
  8
0
 10
481.829
 20
-2.48827
 11
481.247
 21
-2.1189
  0
LINE
  8
0
 10
481.247
 20
-2.1189
 11
480.775
 21
-1.61641
  0
LINE
  8
0
 10
480.775
 20
-1.61641
 11
480.443
 21
-1.01233
  0
LINE
  8
0
 10
480.443
 20
-1.01233
 11
480.272
 21
-0.344666
  0
LINE
  8
0
 10
480.272
 20
-0.344666
 11
480.272
 21
0.344666
  0
LINE
  8
0
 10
480.272
 20
0.344666
 11
480.443
 21
1.01233
  0
LINE
  8
0
 10
480.443
 20
1.01233
 11
480.775
 21
1.61641
  0
LINE
  8
0
 10
480.775
 20
1.61641
 11
481.247
 21
2.1189
  0
LINE
  8
0
 10
481.247
 20
2.1189
 11
481.829
 21
2.48827
  0
LINE
  8
0
 10
481.829
 20
2.48827
 11
482.485
 21
2.70128
  0
LINE
  8
0
 10
482.485
 20
2.70128
 11
483.173
 21
2.74457
  0
LINE
  8
0
 10
483.173
 20
2.74457
 11
483.85
 21
2.6154
  0
LINE
  8
0
 10
483.85
 20
2.6154
 11
484.474
 21
2.3219
  0
LINE
  8
0
 10
484.474
 20
2.3219
 11
485.005
 21
1.88249
  0
LINE
  8
0
 10
485.005
 20
1.88249
 11
485.41
 21
1.32481
  0
LINE
  8
0
 10
485.41
 20
1.32481
 11
485.664
 21
0.683884
  0
LINE
  8
0
 10
485.664
 20
0.683884
 11
485.75
 21
0
  0
LINE
  8
0
 10
485.75
 20
0
 11
485.664
 21
-0.683884
  0
LINE
  8
0
 10
485.664
 20
-0.683884
 11
485.41
 21
-1.32481
  0
LINE
  8
0
 10
485.41
 20
-1.32481
 11
485.005
 21
-1.88249
  0
LINE
  8
0
 10
485.005
 20
-1.88249
 11
484.474
 21
-2.3219
  0
LINE
  8
0
 10
484.474
 20
-2.3219
 11
483.85
 21
-2.6154
  0
LINE
  8
0
 10
483.85
 20
-2.6154
 11
483.173
 21
-2.74457
  0
LINE
  8
0
 10
483.173
 20
-2.74457
 11
482.485
 21
-2.70128
  0
LINE
  8
0
 10
476.719
 20
-1.47342
 11
476.361
 21
-1.35724
  0
LINE
  8
0
 10
476.361
 20
-1.35724
 11
476.044
 21
-1.15576
  0
LINE
  8
0
 10
476.044
 20
-1.15576
 11
475.786
 21
-0.881668
  0
LINE
  8
0
 10
475.786
 20
-0.881668
 11
475.605
 21
-0.552185
  0
LINE
  8
0
 10
475.605
 20
-0.552185
 11
475.512
 21
-0.187988
  0
LINE
  8
0
 10
475.512
 20
-0.187988
 11
475.512
 21
0.187988
  0
LINE
  8
0
 10
475.512
 20
0.187988
 11
475.605
 21
0.552185
  0
LINE
  8
0
 10
475.605
 20
0.552185
 11
475.786
 21
0.881668
  0
LINE
  8
0
 10
475.786
 20
0.881668
 11
476.044
 21
1.15576
  0
LINE
  8
0
 10
476.044
 20
1.15576
 11
476.361
 21
1.35724
  0
LINE
  8
0
 10
476.361
 20
1.35724
 11
476.719
 21
1.47342
  0
LINE
  8
0
 10
476.719
 20
1.47342
 11
477.094
 21
1.49704
  0
LINE
  8
0
 10
477.094
 20
1.49704
 11
477.464
 21
1.42657
  0
LINE
  8
0
 10
477.464
 20
1.42657
 11
477.804
 21
1.26648
  0
LINE
  8
0
 10
477.804
 20
1.26648
 11
478.093
 21
1.02681
  0
LINE
  8
0
 10
478.093
 20
1.02681
 11
478.314
 21
0.722626
  0
LINE
  8
0
 10
478.314
 20
0.722626
 11
478.453
 21
0.373032
  0
LINE
  8
0
 10
478.453
 20
0.373032
 11
478.5
 21
0
  0
LINE
  8
0
 10
478.5
 20
0
 11
478.453
 21
-0.373032
  0
LINE
  8
0
 10
478.453
 20
-0.373032
 11
478.314
 21
-0.722626
  0
LINE
  8
0
 10
478.314
 20
-0.722626
 11
478.093
 21
-1.02681
  0
LINE
  8
0
 10
478.093
 20
-1.02681
 11
477.804
 21
-1.26648
  0
LINE
  8
0
 10
477.804
 20
-1.26648
 11
477.464
 21
-1.42657
  0
LINE
  8
0
 10
477.464
 20
-1.42657
 11
477.094
 21
-1.49704
  0
LINE
  8
0
 10
477.094
 20
-1.49704
 11
476.719
 21
-1.47342
  0
LINE
  8
0
 10
505.438
 20
-41.9469
 11
504.723
 21
-41.7145
  0
LINE
  8
0
 10
504.723
 20
-41.7145
 11
504.088
 21
-41.3115
  0
LINE
  8
0
 10
504.088
 20
-41.3115
 11
503.573
 21
-40.7634
  0
LINE
  8
0
 10
503.573
 20
-40.7634
 11
503.211
 21
-40.1044
  0
LINE
  8
0
 10
503.211
 20
-40.1044
 11
503.024
 21
-39.376
  0
LINE
  8
0
 10
503.024
 20
-39.376
 11
503.024
 21
-38.624
  0
LINE
  8
0
 10
503.024
 20
-38.624
 11
503.211
 21
-37.8956
  0
LINE
  8
0
 10
503.211
 20
-37.8956
 11
503.573
 21
-37.2366
  0
LINE
  8
0
 10
503.573
 20
-37.2366
 11
504.088
 21
-36.6885
  0
LINE
  8
0
 10
504.088
 20
-36.6885
 11
504.723
 21
-36.2855
  0
LINE
  8
0
 10
504.723
 20
-36.2855
 11
505.438
 21
-36.0531
  0
LINE
  8
0
 10
505.438
 20
-36.0531
 11
506.188
 21
-36.0059
  0
LINE
  8
0
 10
506.188
 20
-36.0059
 11
506.927
 21
-36.1468
  0
LINE
  8
0
 10
506.927
 20
-36.1468
 11
507.607
 21
-36.467
  0
LINE
  8
0
 10
507.607
 20
-36.467
 11
508.187
 21
-36.9464
  0
LINE
  8
0
 10
508.187
 20
-36.9464
 11
508.629
 21
-37.5547
  0
LINE
  8
0
 10
508.629
 20
-37.5547
 11
508.906
 21
-38.2539
  0
LINE
  8
0
 10
508.906
 20
-38.2539
 11
509
 21
-39
  0
LINE
  8
0
 10
509
 20
-39
 11
508.906
 21
-39.7461
  0
LINE
  8
0
 10
508.906
 20
-39.7461
 11
508.629
 21
-40.4453
  0
LINE
  8
0
 10
508.629
 20
-40.4453
 11
508.187
 21
-41.0536
  0
LINE
  8
0
 10
508.187
 20
-41.0536
 11
507.607
 21
-41.533
  0
LINE
  8
0
 10
507.607
 20
-41.533
 11
506.927
 21
-41.8532
  0
LINE
  8
0
 10
506.927
 20
-41.8532
 11
506.188
 21
-41.9941
  0
LINE
  8
0
 10
506.188
 20
-41.9941
 11
505.438
 21
-41.9469
  0
LINE
  8
0
 10
397.438
 20
-41.9469
 11
396.723
 21
-41.7145
  0
LINE
  8
0
 10
396.723
 20
-41.7145
 11
396.088
 21
-41.3115
  0
LINE
  8
0
 10
396.088
 20
-41.3115
 11
395.573
 21
-40.7634
  0
LINE
  8
0
 10
395.573
 20
-40.7634
 11
395.211
 21
-40.1044
  0
LINE
  8
0
 10
395.211
 20
-40.1044
 11
395.024
 21
-39.376
  0
LINE
  8
0
 10
395.024
 20
-39.376
 11
395.024
 21
-38.624
  0
LINE
  8
0
 10
395.024
 20
-38.624
 11
395.211
 21
-37.8956
  0
LINE
  8
0
 10
395.211
 20
-37.8956
 11
395.573
 21
-37.2366
  0
LINE
  8
0
 10
395.573
 20
-37.2366
 11
396.088
 21
-36.6885
  0
LINE
  8
0
 10
396.088
 20
-36.6885
 11
396.723
 21
-36.2855
  0
LINE
  8
0
 10
396.723
 20
-36.2855
 11
397.438
 21
-36.0531
  0
LINE
  8
0
 10
397.438
 20
-36.0531
 11
398.188
 21
-36.0059
  0
LINE
  8
0
 10
398.188
 20
-36.0059
 11
398.927
 21
-36.1468
  0
LINE
  8
0
 10
398.927
 20
-36.1468
 11
399.607
 21
-36.467
  0
LINE
  8
0
 10
399.607
 20
-36.467
 11
400.187
 21
-36.9464
  0
LINE
  8
0
 10
400.187
 20
-36.9464
 11
400.629
 21
-37.5547
  0
LINE
  8
0
 10
400.629
 20
-37.5547
 11
400.906
 21
-38.2539
  0
LINE
  8
0
 10
400.906
 20
-38.2539
 11
401
 21
-39
  0
LINE
  8
0
 10
401
 20
-39
 11
400.906
 21
-39.7461
  0
LINE
  8
0
 10
400.906
 20
-39.7461
 11
400.629
 21
-40.4453
  0
LINE
  8
0
 10
400.629
 20
-40.4453
 11
400.187
 21
-41.0536
  0
LINE
  8
0
 10
400.187
 20
-41.0536
 11
399.607
 21
-41.533
  0
LINE
  8
0
 10
399.607
 20
-41.533
 11
398.927
 21
-41.8532
  0
LINE
  8
0
 10
398.927
 20
-41.8532
 11
398.188
 21
-41.9941
  0
LINE
  8
0
 10
398.188
 20
-41.9941
 11
397.438
 21
-41.9469
  0
LINE
  8
0
 10
385.243
 20
-44.8429
 11
386.409
 21
-44.3815
  0
LINE
  8
0
 10
386.409
 20
-44.3815
 11
387.423
 21
-43.6448
  0
LINE
  8
0
 10
387.423
 20
-43.6448
 11
388.222
 21
-42.6791
  0
LINE
  8
0
 10
388.222
 20
-42.6791
 11
388.755
 21
-41.5451
  0
LINE
  8
0
 10
388.755
 20
-41.5451
 11
389
 21
-40
  0
LINE
  8
0
 10
389
 20
-40
 11
389
 21
40
  0
LINE
  8
0
 10
389
 20
40
 11
388.843
 21
41.2435
  0
LINE
  8
0
 10
388.843
 20
41.2435
 11
388.382
 21
42.4088
  0
LINE
  8
0
 10
388.382
 20
42.4088
 11
387.645
 21
43.4227
  0
LINE
  8
0
 10
387.645
 20
43.4227
 11
386.679
 21
44.2216
  0
LINE
  8
0
 10
386.679
 20
44.2216
 11
385.545
 21
44.7553
  0
LINE
  8
0
 10
385.545
 20
44.7553
 11
384
 21
45
  0
LINE
  8
0
 10
384
 20
45
 11
274
 21
45
  0
LINE
  8
0
 10
274
 20
45
 11
272.757
 21
44.8429
  0
LINE
  8
0
 10
272.757
 20
44.8429
 11
271.591
 21
44.3815
  0
LINE
  8
0
 10
271.591
 20
44.3815
 11
270.577
 21
43.6448
  0
LINE
  8
0
 10
270.577
 20
43.6448
 11
269.778
 21
42.6791
  0
LINE
  8
0
 10
269.778
 20
42.6791
 11
269.245
 21
41.5451
  0
LINE
  8
0
 10
269.245
 20
41.5451
 11
269
 21
40
  0
LINE
  8
0
 10
269
 20
40
 11
269
 21
34
  0
LINE
  8
0
 10
269
 20
34
 11
380
 21
34
  0
LINE
  8
0
 10
380
 20
34
 11
380
 21
-34
  0
LINE
  8
0
 10
380
 20
-34
 11
269
 21
-34
  0
LINE
  8
0
 10
269
 20
-34
 11
269
 21
-40
  0
LINE
  8
0
 10
269
 20
-40
 11
269.157
 21
-41.2435
  0
LINE
  8
0
 10
269.157
 20
-41.2435
 11
269.618
 21
-42.4088
  0
LINE
  8
0
 10
269.618
 20
-42.4088
 11
270.355
 21
-43.4227
  0
LINE
  8
0
 10
270.355
 20
-43.4227
 11
271.321
 21
-44.2216
  0
LINE
  8
0
 10
271.321
 20
-44.2216
 11
272.455
 21
-44.7553
  0
LINE
  8
0
 10
272.455
 20
-44.7553
 11
274
 21
-45
  0
LINE
  8
0
 10
274
 20
-45
 11
384
 21
-45
  0
LINE
  8
0
 10
384
 20
-45
 11
385.243
 21
-44.8429
  0
LINE
  8
0
 10
382.438
 20
36.0531
 11
381.723
 21
36.2855
  0
LINE
  8
0
 10
381.723
 20
36.2855
 11
381.088
 21
36.6885
  0
LINE
  8
0
 10
381.088
 20
36.6885
 11
380.573
 21
37.2366
  0
LINE
  8
0
 10
380.573
 20
37.2366
 11
380.211
 21
37.8956
  0
LINE
  8
0
 10
380.211
 20
37.8956
 11
380.024
 21
38.624
  0
LINE
  8
0
 10
380.024
 20
38.624
 11
380.024
 21
39.376
  0
LINE
  8
0
 10
380.024
 20
39.376
 11
380.211
 21
40.1044
  0
LINE
  8
0
 10
380.211
 20
40.1044
 11
380.573
 21
40.7634
  0
LINE
  8
0
 10
380.573
 20
40.7634
 11
381.088
 21
41.3115
  0
LINE
  8
0
 10
381.088
 20
41.3115
 11
381.723
 21
41.7145
  0
LINE
  8
0
 10
381.723
 20
41.7145
 11
382.438
 21
41.9469
  0
LINE
  8
0
 10
382.438
 20
41.9469
 11
383.188
 21
41.9941
  0
LINE
  8
0
 10
383.188
 20
41.9941
 11
383.927
 21
41.8532
  0
LINE
  8
0
 10
383.927
 20
41.8532
 11
384.607
 21
41.533
  0
LINE
  8
0
 10
384.607
 20
41.533
 11
385.187
 21
41.0536
  0
LINE
  8
0
 10
385.187
 20
41.0536
 11
385.629
 21
40.4453
  0
LINE
  8
0
 10
385.629
 20
40.4453
 11
385.906
 21
39.7461
  0
LINE
  8
0
 10
385.906
 20
39.7461
 11
386
 21
39
  0
LINE
  8
0
 10
386
 20
39
 11
385.906
 21
38.2539
  0
LINE
  8
0
 10
385.906
 20
38.2539
 11
385.629
 21
37.5547
  0
LINE
  8
0
 10
385.629
 20
37.5547
 11
385.187
 21
36.9464
  0
LINE
  8
0
 10
385.187
 20
36.9464
 11
384.607
 21
36.467
  0
LINE
  8
0
 10
384.607
 20
36.467
 11
383.927
 21
36.1468
  0
LINE
  8
0
 10
383.927
 20
36.1468
 11
383.188
 21
36.0059
  0
LINE
  8
0
 10
383.188
 20
36.0059
 11
382.438
 21
36.0531
  0
LINE
  8
0
 10
274.438
 20
36.0531
 11
273.723
 21
36.2855
  0
LINE
  8
0
 10
273.723
 20
36.2855
 11
273.088
 21
36.6885
  0
LINE
  8
0
 10
273.088
 20
36.6885
 11
272.573
 21
37.2366
  0
LINE
  8
0
 10
272.573
 20
37.2366
 11
272.211
 21
37.8956
  0
LINE
  8
0
 10
272.211
 20
37.8956
 11
272.024
 21
38.624
  0
LINE
  8
0
 10
272.024
 20
38.624
 11
272.024
 21
39.376
  0
LINE
  8
0
 10
272.024
 20
39.376
 11
272.211
 21
40.1044
  0
LINE
  8
0
 10
272.211
 20
40.1044
 11
272.573
 21
40.7634
  0
LINE
  8
0
 10
272.573
 20
40.7634
 11
273.088
 21
41.3115
  0
LINE
  8
0
 10
273.088
 20
41.3115
 11
273.723
 21
41.7145
  0
LINE
  8
0
 10
273.723
 20
41.7145
 11
274.438
 21
41.9469
  0
LINE
  8
0
 10
274.438
 20
41.9469
 11
275.188
 21
41.9941
  0
LINE
  8
0
 10
275.188
 20
41.9941
 11
275.927
 21
41.8532
  0
LINE
  8
0
 10
275.927
 20
41.8532
 11
276.607
 21
41.533
  0
LINE
  8
0
 10
276.607
 20
41.533
 11
277.187
 21
41.0536
  0
LINE
  8
0
 10
277.187
 20
41.0536
 11
277.629
 21
40.4453
  0
LINE
  8
0
 10
277.629
 20
40.4453
 11
277.906
 21
39.7461
  0
LINE
  8
0
 10
277.906
 20
39.7461
 11
278
 21
39
  0
LINE
  8
0
 10
278
 20
39
 11
277.906
 21
38.2539
  0
LINE
  8
0
 10
277.906
 20
38.2539
 11
277.629
 21
37.5547
  0
LINE
  8
0
 10
277.629
 20
37.5547
 11
277.187
 21
36.9464
  0
LINE
  8
0
 10
277.187
 20
36.9464
 11
276.607
 21
36.467
  0
LINE
  8
0
 10
276.607
 20
36.467
 11
275.927
 21
36.1468
  0
LINE
  8
0
 10
275.927
 20
36.1468
 11
275.188
 21
36.0059
  0
LINE
  8
0
 10
275.188
 20
36.0059
 11
274.438
 21
36.0531
  0
LINE
  8
0
 10
274.438
 20
-41.9469
 11
273.723
 21
-41.7145
  0
LINE
  8
0
 10
273.723
 20
-41.7145
 11
273.088
 21
-41.3115
  0
LINE
  8
0
 10
273.088
 20
-41.3115
 11
272.573
 21
-40.7634
  0
LINE
  8
0
 10
272.573
 20
-40.7634
 11
272.211
 21
-40.1044
  0
LINE
  8
0
 10
272.211
 20
-40.1044
 11
272.024
 21
-39.376
  0
LINE
  8
0
 10
272.024
 20
-39.376
 11
272.024
 21
-38.624
  0
LINE
  8
0
 10
272.024
 20
-38.624
 11
272.211
 21
-37.8956
  0
LINE
  8
0
 10
272.211
 20
-37.8956
 11
272.573
 21
-37.2366
  0
LINE
  8
0
 10
272.573
 20
-37.2366
 11
273.088
 21
-36.6885
  0
LINE
  8
0
 10
273.088
 20
-36.6885
 11
273.723
 21
-36.2855
  0
LINE
  8
0
 10
273.723
 20
-36.2855
 11
274.438
 21
-36.0531
  0
LINE
  8
0
 10
274.438
 20
-36.0531
 11
275.188
 21
-36.0059
  0
LINE
  8
0
 10
275.188
 20
-36.0059
 11
275.927
 21
-36.1468
  0
LINE
  8
0
 10
275.927
 20
-36.1468
 11
276.607
 21
-36.467
  0
LINE
  8
0
 10
276.607
 20
-36.467
 11
277.187
 21
-36.9464
  0
LINE
  8
0
 10
277.187
 20
-36.9464
 11
277.629
 21
-37.5547
  0
LINE
  8
0
 10
277.629
 20
-37.5547
 11
277.906
 21
-38.2539
  0
LINE
  8
0
 10
277.906
 20
-38.2539
 11
278
 21
-39
  0
LINE
  8
0
 10
278
 20
-39
 11
277.906
 21
-39.7461
  0
LINE
  8
0
 10
277.906
 20
-39.7461
 11
277.629
 21
-40.4453
  0
LINE
  8
0
 10
277.629
 20
-40.4453
 11
277.187
 21
-41.0536
  0
LINE
  8
0
 10
277.187
 20
-41.0536
 11
276.607
 21
-41.533
  0
LINE
  8
0
 10
276.607
 20
-41.533
 11
275.927
 21
-41.8532
  0
LINE
  8
0
 10
275.927
 20
-41.8532
 11
275.188
 21
-41.9941
  0
LINE
  8
0
 10
275.188
 20
-41.9941
 11
274.438
 21
-41.9469
  0
LINE
  8
0
 10
382.438
 20
-41.9469
 11
381.723
 21
-41.7145
  0
LINE
  8
0
 10
381.723
 20
-41.7145
 11
381.088
 21
-41.3115
  0
LINE
  8
0
 10
381.088
 20
-41.3115
 11
380.573
 21
-40.7634
  0
LINE
  8
0
 10
380.573
 20
-40.7634
 11
380.211
 21
-40.1044
  0
LINE
  8
0
 10
380.211
 20
-40.1044
 11
380.024
 21
-39.376
  0
LINE
  8
0
 10
380.024
 20
-39.376
 11
380.024
 21
-38.624
  0
LINE
  8
0
 10
380.024
 20
-38.624
 11
380.211
 21
-37.8956
  0
LINE
  8
0
 10
380.211
 20
-37.8956
 11
380.573
 21
-37.2366
  0
LINE
  8
0
 10
380.573
 20
-37.2366
 11
381.088
 21
-36.6885
  0
LINE
  8
0
 10
381.088
 20
-36.6885
 11
381.723
 21
-36.2855
  0
LINE
  8
0
 10
381.723
 20
-36.2855
 11
382.438
 21
-36.0531
  0
LINE
  8
0
 10
382.438
 20
-36.0531
 11
383.188
 21
-36.0059
  0
LINE
  8
0
 10
383.188
 20
-36.0059
 11
383.927
 21
-36.1468
  0
LINE
  8
0
 10
383.927
 20
-36.1468
 11
384.607
 21
-36.467
  0
LINE
  8
0
 10
384.607
 20
-36.467
 11
385.187
 21
-36.9464
  0
LINE
  8
0
 10
385.187
 20
-36.9464
 11
385.629
 21
-37.5547
  0
LINE
  8
0
 10
385.629
 20
-37.5547
 11
385.906
 21
-38.2539
  0
LINE
  8
0
 10
385.906
 20
-38.2539
 11
386
 21
-39
  0
LINE
  8
0
 10
386
 20
-39
 11
385.906
 21
-39.7461
  0
LINE
  8
0
 10
385.906
 20
-39.7461
 11
385.629
 21
-40.4453
  0
LINE
  8
0
 10
385.629
 20
-40.4453
 11
385.187
 21
-41.0536
  0
LINE
  8
0
 10
385.187
 20
-41.0536
 11
384.607
 21
-41.533
  0
LINE
  8
0
 10
384.607
 20
-41.533
 11
383.927
 21
-41.8532
  0
LINE
  8
0
 10
383.927
 20
-41.8532
 11
383.188
 21
-41.9941
  0
LINE
  8
0
 10
383.188
 20
-41.9941
 11
382.438
 21
-41.9469
  0
LINE
  8
0
 10
262.243
 20
-44.8429
 11
263.409
 21
-44.3815
  0
LINE
  8
0
 10
263.409
 20
-44.3815
 11
264.423
 21
-43.6448
  0
LINE
  8
0
 10
264.423
 20
-43.6448
 11
265.222
 21
-42.6791
  0
LINE
  8
0
 10
265.222
 20
-42.6791
 11
265.755
 21
-41.5451
  0
LINE
  8
0
 10
265.755
 20
-41.5451
 11
266
 21
-40
  0
LINE
  8
0
 10
266
 20
-40
 11
266
 21
40
  0
LINE
  8
0
 10
266
 20
40
 11
265.843
 21
41.2435
  0
LINE
  8
0
 10
265.843
 20
41.2435
 11
265.382
 21
42.4088
  0
LINE
  8
0
 10
265.382
 20
42.4088
 11
264.645
 21
43.4227
  0
LINE
  8
0
 10
264.645
 20
43.4227
 11
263.679
 21
44.2216
  0
LINE
  8
0
 10
263.679
 20
44.2216
 11
262.545
 21
44.7553
  0
LINE
  8
0
 10
262.545
 20
44.7553
 11
261
 21
45
  0
LINE
  8
0
 10
261
 20
45
 11
151
 21
45
  0
LINE
  8
0
 10
151
 20
45
 11
149.757
 21
44.8429
  0
LINE
  8
0
 10
149.757
 20
44.8429
 11
148.591
 21
44.3815
  0
LINE
  8
0
 10
148.591
 20
44.3815
 11
147.577
 21
43.6448
  0
LINE
  8
0
 10
147.577
 20
43.6448
 11
146.778
 21
42.6791
  0
LINE
  8
0
 10
146.778
 20
42.6791
 11
146.245
 21
41.5451
  0
LINE
  8
0
 10
146.245
 20
41.5451
 11
146
 21
40
  0
LINE
  8
0
 10
146
 20
40
 11
146
 21
21.5
  0
LINE
  8
0
 10
146
 20
21.5
 11
231.5
 21
21.5
  0
LINE
  8
0
 10
231.5
 20
21.5
 11
231.5
 21
21.3726
  0
LINE
  8
0
 10
231.5
 20
21.3726
 11
232.85
 21
21.4576
  0
LINE
  8
0
 10
232.85
 20
21.4576
 11
238.144
 21
20.4477
  0
LINE
  8
0
 10
238.144
 20
20.4477
 11
243.02
 21
18.153
  0
LINE
  8
0
 10
243.02
 20
18.153
 11
247.173
 21
14.7178
  0
LINE
  8
0
 10
247.173
 20
14.7178
 11
250.341
 21
10.3577
  0
LINE
  8
0
 10
250.341
 20
10.3577
 11
252.325
 21
5.34683
  0
LINE
  8
0
 10
252.325
 20
5.34683
 11
253
 21
0
  0
LINE
  8
0
 10
253
 20
0
 11
252.325
 21
-5.34683
  0
LINE
  8
0
 10
252.325
 20
-5.34683
 11
250.341
 21
-10.3577
  0
LINE
  8
0
 10
250.341
 20
-10.3577
 11
247.173
 21
-14.7178
  0
LINE
  8
0
 10
247.173
 20
-14.7178
 11
243.02
 21
-18.153
  0
LINE
  8
0
 10
243.02
 20
-18.153
 11
238.144
 21
-20.4477
  0
LINE
  8
0
 10
238.144
 20
-20.4477
 11
232.85
 21
-21.4576
  0
LINE
  8
0
 10
232.85
 20
-21.4576
 11
231.5
 21
-21.3726
  0
LINE
  8
0
 10
231.5
 20
-21.3726
 11
231.5
 21
-21.5
  0
LINE
  8
0
 10
231.5
 20
-21.5
 11
146
 21
-21.5
  0
LINE
  8
0
 10
146
 20
-21.5
 11
146
 21
-40
  0
LINE
  8
0
 10
146
 20
-40
 11
146.157
 21
-41.2435
  0
LINE
  8
0
 10
146.157
 20
-41.2435
 11
146.618
 21
-42.4088
  0
LINE
  8
0
 10
146.618
 20
-42.4088
 11
147.355
 21
-43.4227
  0
LINE
  8
0
 10
147.355
 20
-43.4227
 11
148.321
 21
-44.2216
  0
LINE
  8
0
 10
148.321
 20
-44.2216
 11
149.455
 21
-44.7553
  0
LINE
  8
0
 10
149.455
 20
-44.7553
 11
151
 21
-45
  0
LINE
  8
0
 10
151
 20
-45
 11
261
 21
-45
  0
LINE
  8
0
 10
261
 20
-45
 11
262.243
 21
-44.8429
  0
LINE
  8
0
 10
151.438
 20
36.0531
 11
150.723
 21
36.2855
  0
LINE
  8
0
 10
150.723
 20
36.2855
 11
150.088
 21
36.6885
  0
LINE
  8
0
 10
150.088
 20
36.6885
 11
149.573
 21
37.2366
  0
LINE
  8
0
 10
149.573
 20
37.2366
 11
149.211
 21
37.8956
  0
LINE
  8
0
 10
149.211
 20
37.8956
 11
149.024
 21
38.624
  0
LINE
  8
0
 10
149.024
 20
38.624
 11
149.024
 21
39.376
  0
LINE
  8
0
 10
149.024
 20
39.376
 11
149.211
 21
40.1044
  0
LINE
  8
0
 10
149.211
 20
40.1044
 11
149.573
 21
40.7634
  0
LINE
  8
0
 10
149.573
 20
40.7634
 11
150.088
 21
41.3115
  0
LINE
  8
0
 10
150.088
 20
41.3115
 11
150.723
 21
41.7145
  0
LINE
  8
0
 10
150.723
 20
41.7145
 11
151.438
 21
41.9469
  0
LINE
  8
0
 10
151.438
 20
41.9469
 11
152.188
 21
41.9941
  0
LINE
  8
0
 10
152.188
 20
41.9941
 11
152.927
 21
41.8532
  0
LINE
  8
0
 10
152.927
 20
41.8532
 11
153.607
 21
41.533
  0
LINE
  8
0
 10
153.607
 20
41.533
 11
154.187
 21
41.0536
  0
LINE
  8
0
 10
154.187
 20
41.0536
 11
154.629
 21
40.4453
  0
LINE
  8
0
 10
154.629
 20
40.4453
 11
154.906
 21
39.7461
  0
LINE
  8
0
 10
154.906
 20
39.7461
 11
155
 21
39
  0
LINE
  8
0
 10
155
 20
39
 11
154.906
 21
38.2539
  0
LINE
  8
0
 10
154.906
 20
38.2539
 11
154.629
 21
37.5547
  0
LINE
  8
0
 10
154.629
 20
37.5547
 11
154.187
 21
36.9464
  0
LINE
  8
0
 10
154.187
 20
36.9464
 11
153.607
 21
36.467
  0
LINE
  8
0
 10
153.607
 20
36.467
 11
152.927
 21
36.1468
  0
LINE
  8
0
 10
152.927
 20
36.1468
 11
152.188
 21
36.0059
  0
LINE
  8
0
 10
152.188
 20
36.0059
 11
151.438
 21
36.0531
  0
LINE
  8
0
 10
259.438
 20
36.0531
 11
258.723
 21
36.2855
  0
LINE
  8
0
 10
258.723
 20
36.2855
 11
258.088
 21
36.6885
  0
LINE
  8
0
 10
258.088
 20
36.6885
 11
257.573
 21
37.2366
  0
LINE
  8
0
 10
257.573
 20
37.2366
 11
257.211
 21
37.8956
  0
LINE
  8
0
 10
257.211
 20
37.8956
 11
257.024
 21
38.624
  0
LINE
  8
0
 10
257.024
 20
38.624
 11
257.024
 21
39.376
  0
LINE
  8
0
 10
257.024
 20
39.376
 11
257.211
 21
40.1044
  0
LINE
  8
0
 10
257.211
 20
40.1044
 11
257.573
 21
40.7634
  0
LINE
  8
0
 10
257.573
 20
40.7634
 11
258.088
 21
41.3115
  0
LINE
  8
0
 10
258.088
 20
41.3115
 11
258.723
 21
41.7145
  0
LINE
  8
0
 10
258.723
 20
41.7145
 11
259.438
 21
41.9469
  0
LINE
  8
0
 10
259.438
 20
41.9469
 11
260.188
 21
41.9941
  0
LINE
  8
0
 10
260.188
 20
41.9941
 11
260.927
 21
41.8532
  0
LINE
  8
0
 10
260.927
 20
41.8532
 11
261.607
 21
41.533
  0
LINE
  8
0
 10
261.607
 20
41.533
 11
262.187
 21
41.0536
  0
LINE
  8
0
 10
262.187
 20
41.0536
 11
262.629
 21
40.4453
  0
LINE
  8
0
 10
262.629
 20
40.4453
 11
262.906
 21
39.7461
  0
LINE
  8
0
 10
262.906
 20
39.7461
 11
263
 21
39
  0
LINE
  8
0
 10
263
 20
39
 11
262.906
 21
38.2539
  0
LINE
  8
0
 10
262.906
 20
38.2539
 11
262.629
 21
37.5547
  0
LINE
  8
0
 10
262.629
 20
37.5547
 11
262.187
 21
36.9464
  0
LINE
  8
0
 10
262.187
 20
36.9464
 11
261.607
 21
36.467
  0
LINE
  8
0
 10
261.607
 20
36.467
 11
260.927
 21
36.1468
  0
LINE
  8
0
 10
260.927
 20
36.1468
 11
260.188
 21
36.0059
  0
LINE
  8
0
 10
260.188
 20
36.0059
 11
259.438
 21
36.0531
  0
LINE
  8
0
 10
151.438
 20
-41.9469
 11
150.723
 21
-41.7145
  0
LINE
  8
0
 10
150.723
 20
-41.7145
 11
150.088
 21
-41.3115
  0
LINE
  8
0
 10
150.088
 20
-41.3115
 11
149.573
 21
-40.7634
  0
LINE
  8
0
 10
149.573
 20
-40.7634
 11
149.211
 21
-40.1044
  0
LINE
  8
0
 10
149.211
 20
-40.1044
 11
149.024
 21
-39.376
  0
LINE
  8
0
 10
149.024
 20
-39.376
 11
149.024
 21
-38.624
  0
LINE
  8
0
 10
149.024
 20
-38.624
 11
149.211
 21
-37.8956
  0
LINE
  8
0
 10
149.211
 20
-37.8956
 11
149.573
 21
-37.2366
  0
LINE
  8
0
 10
149.573
 20
-37.2366
 11
150.088
 21
-36.6885
  0
LINE
  8
0
 10
150.088
 20
-36.6885
 11
150.723
 21
-36.2855
  0
LINE
  8
0
 10
150.723
 20
-36.2855
 11
151.438
 21
-36.0531
  0
LINE
  8
0
 10
151.438
 20
-36.0531
 11
152.188
 21
-36.0059
  0
LINE
  8
0
 10
152.188
 20
-36.0059
 11
152.927
 21
-36.1468
  0
LINE
  8
0
 10
152.927
 20
-36.1468
 11
153.607
 21
-36.467
  0
LINE
  8
0
 10
153.607
 20
-36.467
 11
154.187
 21
-36.9464
  0
LINE
  8
0
 10
154.187
 20
-36.9464
 11
154.629
 21
-37.5547
  0
LINE
  8
0
 10
154.629
 20
-37.5547
 11
154.906
 21
-38.2539
  0
LINE
  8
0
 10
154.906
 20
-38.2539
 11
155
 21
-39
  0
LINE
  8
0
 10
155
 20
-39
 11
154.906
 21
-39.7461
  0
LINE
  8
0
 10
154.906
 20
-39.7461
 11
154.629
 21
-40.4453
  0
LINE
  8
0
 10
154.629
 20
-40.4453
 11
154.187
 21
-41.0536
  0
LINE
  8
0
 10
154.187
 20
-41.0536
 11
153.607
 21
-41.533
  0
LINE
  8
0
 10
153.607
 20
-41.533
 11
152.927
 21
-41.8532
  0
LINE
  8
0
 10
152.927
 20
-41.8532
 11
152.188
 21
-41.9941
  0
LINE
  8
0
 10
152.188
 20
-41.9941
 11
151.438
 21
-41.9469
  0
LINE
  8
0
 10
259.438
 20
-41.9469
 11
258.723
 21
-41.7145
  0
LINE
  8
0
 10
258.723
 20
-41.7145
 11
258.088
 21
-41.3115
  0
LINE
  8
0
 10
258.088
 20
-41.3115
 11
257.573
 21
-40.7634
  0
LINE
  8
0
 10
257.573
 20
-40.7634
 11
257.211
 21
-40.1044
  0
LINE
  8
0
 10
257.211
 20
-40.1044
 11
257.024
 21
-39.376
  0
LINE
  8
0
 10
257.024
 20
-39.376
 11
257.024
 21
-38.624
  0
LINE
  8
0
 10
257.024
 20
-38.624
 11
257.211
 21
-37.8956
  0
LINE
  8
0
 10
257.211
 20
-37.8956
 11
257.573
 21
-37.2366
  0
LINE
  8
0
 10
257.573
 20
-37.2366
 11
258.088
 21
-36.6885
  0
LINE
  8
0
 10
258.088
 20
-36.6885
 11
258.723
 21
-36.2855
  0
LINE
  8
0
 10
258.723
 20
-36.2855
 11
259.438
 21
-36.0531
  0
LINE
  8
0
 10
259.438
 20
-36.0531
 11
260.188
 21
-36.0059
  0
LINE
  8
0
 10
260.188
 20
-36.0059
 11
260.927
 21
-36.1468
  0
LINE
  8
0
 10
260.927
 20
-36.1468
 11
261.607
 21
-36.467
  0
LINE
  8
0
 10
261.607
 20
-36.467
 11
262.187
 21
-36.9464
  0
LINE
  8
0
 10
262.187
 20
-36.9464
 11
262.629
 21
-37.5547
  0
LINE
  8
0
 10
262.629
 20
-37.5547
 11
262.906
 21
-38.2539
  0
LINE
  8
0
 10
262.906
 20
-38.2539
 11
263
 21
-39
  0
LINE
  8
0
 10
263
 20
-39
 11
262.906
 21
-39.7461
  0
LINE
  8
0
 10
262.906
 20
-39.7461
 11
262.629
 21
-40.4453
  0
LINE
  8
0
 10
262.629
 20
-40.4453
 11
262.187
 21
-41.0536
  0
LINE
  8
0
 10
262.187
 20
-41.0536
 11
261.607
 21
-41.533
  0
LINE
  8
0
 10
261.607
 20
-41.533
 11
260.927
 21
-41.8532
  0
LINE
  8
0
 10
260.927
 20
-41.8532
 11
260.188
 21
-41.9941
  0
LINE
  8
0
 10
260.188
 20
-41.9941
 11
259.438
 21
-41.9469
  0
LINE
  8
0
 10
139.243
 20
-44.8429
 11
140.409
 21
-44.3815
  0
LINE
  8
0
 10
140.409
 20
-44.3815
 11
141.423
 21
-43.6448
  0
LINE
  8
0
 10
141.423
 20
-43.6448
 11
142.222
 21
-42.6791
  0
LINE
  8
0
 10
142.222
 20
-42.6791
 11
142.755
 21
-41.5451
  0
LINE
  8
0
 10
142.755
 20
-41.5451
 11
143
 21
-40
  0
LINE
  8
0
 10
143
 20
-40
 11
143
 21
40
  0
LINE
  8
0
 10
143
 20
40
 11
142.843
 21
41.2435
  0
LINE
  8
0
 10
142.843
 20
41.2435
 11
142.382
 21
42.4088
  0
LINE
  8
0
 10
142.382
 20
42.4088
 11
141.645
 21
43.4227
  0
LINE
  8
0
 10
141.645
 20
43.4227
 11
140.679
 21
44.2216
  0
LINE
  8
0
 10
140.679
 20
44.2216
 11
139.545
 21
44.7553
  0
LINE
  8
0
 10
139.545
 20
44.7553
 11
138
 21
45
  0
LINE
  8
0
 10
138
 20
45
 11
28
 21
45
  0
LINE
  8
0
 10
28
 20
45
 11
26.7565
 21
44.8429
  0
LINE
  8
0
 10
26.7565
 20
44.8429
 11
25.5912
 21
44.3815
  0
LINE
  8
0
 10
25.5912
 20
44.3815
 11
24.5773
 21
43.6448
  0
LINE
  8
0
 10
24.5773
 20
43.6448
 11
23.7784
 21
42.6791
  0
LINE
  8
0
 10
23.7784
 20
42.6791
 11
23.2447
 21
41.5451
  0
LINE
  8
0
 10
23.2447
 20
41.5451
 11
23
 21
40
  0
LINE
  8
0
 10
23
 20
40
 11
23
 21
21.5
  0
LINE
  8
0
 10
23
 20
21.5
 11
108.5
 21
21.5
  0
LINE
  8
0
 10
108.5
 20
21.5
 11
108.5
 21
21.3726
  0
LINE
  8
0
 10
108.5
 20
21.3726
 11
109.85
 21
21.4576
  0
LINE
  8
0
 10
109.85
 20
21.4576
 11
115.144
 21
20.4477
  0
LINE
  8
0
 10
115.144
 20
20.4477
 11
120.02
 21
18.153
  0
LINE
  8
0
 10
120.02
 20
18.153
 11
124.173
 21
14.7178
  0
LINE
  8
0
 10
124.173
 20
14.7178
 11
127.341
 21
10.3577
  0
LINE
  8
0
 10
127.341
 20
10.3577
 11
129.325
 21
5.34683
  0
LINE
  8
0
 10
129.325
 20
5.34683
 11
130
 21
0
  0
LINE
  8
0
 10
130
 20
0
 11
129.325
 21
-5.34683
  0
LINE
  8
0
 10
129.325
 20
-5.34683
 11
127.341
 21
-10.3577
  0
LINE
  8
0
 10
127.341
 20
-10.3577
 11
124.173
 21
-14.7178
  0
LINE
  8
0
 10
124.173
 20
-14.7178
 11
120.02
 21
-18.153
  0
LINE
  8
0
 10
120.02
 20
-18.153
 11
115.144
 21
-20.4477
  0
LINE
  8
0
 10
115.144
 20
-20.4477
 11
109.85
 21
-21.4576
  0
LINE
  8
0
 10
109.85
 20
-21.4576
 11
108.5
 21
-21.3726
  0
LINE
  8
0
 10
108.5
 20
-21.3726
 11
108.5
 21
-21.5
  0
LINE
  8
0
 10
108.5
 20
-21.5
 11
23
 21
-21.5
  0
LINE
  8
0
 10
23
 20
-21.5
 11
23
 21
-40
  0
LINE
  8
0
 10
23
 20
-40
 11
23.1571
 21
-41.2435
  0
LINE
  8
0
 10
23.1571
 20
-41.2435
 11
23.6185
 21
-42.4088
  0
LINE
  8
0
 10
23.6185
 20
-42.4088
 11
24.3552
 21
-43.4227
  0
LINE
  8
0
 10
24.3552
 20
-43.4227
 11
25.3209
 21
-44.2216
  0
LINE
  8
0
 10
25.3209
 20
-44.2216
 11
26.4549
 21
-44.7553
  0
LINE
  8
0
 10
26.4549
 20
-44.7553
 11
28
 21
-45
  0
LINE
  8
0
 10
28
 20
-45
 11
138
 21
-45
  0
LINE
  8
0
 10
138
 20
-45
 11
139.243
 21
-44.8429
  0
LINE
  8
0
 10
136.438
 20
36.0531
 11
135.723
 21
36.2855
  0
LINE
  8
0
 10
135.723
 20
36.2855
 11
135.088
 21
36.6885
  0
LINE
  8
0
 10
135.088
 20
36.6885
 11
134.573
 21
37.2366
  0
LINE
  8
0
 10
134.573
 20
37.2366
 11
134.211
 21
37.8956
  0
LINE
  8
0
 10
134.211
 20
37.8956
 11
134.024
 21
38.624
  0
LINE
  8
0
 10
134.024
 20
38.624
 11
134.024
 21
39.376
  0
LINE
  8
0
 10
134.024
 20
39.376
 11
134.211
 21
40.1044
  0
LINE
  8
0
 10
134.211
 20
40.1044
 11
134.573
 21
40.7634
  0
LINE
  8
0
 10
134.573
 20
40.7634
 11
135.088
 21
41.3115
  0
LINE
  8
0
 10
135.088
 20
41.3115
 11
135.723
 21
41.7145
  0
LINE
  8
0
 10
135.723
 20
41.7145
 11
136.438
 21
41.9469
  0
LINE
  8
0
 10
136.438
 20
41.9469
 11
137.188
 21
41.9941
  0
LINE
  8
0
 10
137.188
 20
41.9941
 11
137.927
 21
41.8532
  0
LINE
  8
0
 10
137.927
 20
41.8532
 11
138.607
 21
41.533
  0
LINE
  8
0
 10
138.607
 20
41.533
 11
139.187
 21
41.0536
  0
LINE
  8
0
 10
139.187
 20
41.0536
 11
139.629
 21
40.4453
  0
LINE
  8
0
 10
139.629
 20
40.4453
 11
139.906
 21
39.7461
  0
LINE
  8
0
 10
139.906
 20
39.7461
 11
140
 21
39
  0
LINE
  8
0
 10
140
 20
39
 11
139.906
 21
38.2539
  0
LINE
  8
0
 10
139.906
 20
38.2539
 11
139.629
 21
37.5547
  0
LINE
  8
0
 10
139.629
 20
37.5547
 11
139.187
 21
36.9464
  0
LINE
  8
0
 10
139.187
 20
36.9464
 11
138.607
 21
36.467
  0
LINE
  8
0
 10
138.607
 20
36.467
 11
137.927
 21
36.1468
  0
LINE
  8
0
 10
137.927
 20
36.1468
 11
137.188
 21
36.0059
  0
LINE
  8
0
 10
137.188
 20
36.0059
 11
136.438
 21
36.0531
  0
LINE
  8
0
 10
28.4379
 20
36.0531
 11
27.7227
 21
36.2855
  0
LINE
  8
0
 10
27.7227
 20
36.2855
 11
27.0877
 21
36.6885
  0
LINE
  8
0
 10
27.0877
 20
36.6885
 11
26.5729
 21
37.2366
  0
LINE
  8
0
 10
26.5729
 20
37.2366
 11
26.2107
 21
37.8956
  0
LINE
  8
0
 10
26.2107
 20
37.8956
 11
26.0237
 21
38.624
  0
LINE
  8
0
 10
26.0237
 20
38.624
 11
26.0237
 21
39.376
  0
LINE
  8
0
 10
26.0237
 20
39.376
 11
26.2107
 21
40.1044
  0
LINE
  8
0
 10
26.2107
 20
40.1044
 11
26.5729
 21
40.7634
  0
LINE
  8
0
 10
26.5729
 20
40.7634
 11
27.0877
 21
41.3115
  0
LINE
  8
0
 10
27.0877
 20
41.3115
 11
27.7227
 21
41.7145
  0
LINE
  8
0
 10
27.7227
 20
41.7145
 11
28.4379
 21
41.9469
  0
LINE
  8
0
 10
28.4379
 20
41.9469
 11
29.1884
 21
41.9941
  0
LINE
  8
0
 10
29.1884
 20
41.9941
 11
29.927
 21
41.8532
  0
LINE
  8
0
 10
29.927
 20
41.8532
 11
30.6075
 21
41.533
  0
LINE
  8
0
 10
30.6075
 20
41.533
 11
31.1869
 21
41.0536
  0
LINE
  8
0
 10
31.1869
 20
41.0536
 11
31.6289
 21
40.4453
  0
LINE
  8
0
 10
31.6289
 20
40.4453
 11
31.9057
 21
39.7461
  0
LINE
  8
0
 10
31.9057
 20
39.7461
 11
32
 21
39
  0
LINE
  8
0
 10
32
 20
39
 11
31.9057
 21
38.2539
  0
LINE
  8
0
 10
31.9057
 20
38.2539
 11
31.6289
 21
37.5547
  0
LINE
  8
0
 10
31.6289
 20
37.5547
 11
31.1869
 21
36.9464
  0
LINE
  8
0
 10
31.1869
 20
36.9464
 11
30.6075
 21
36.467
  0
LINE
  8
0
 10
30.6075
 20
36.467
 11
29.927
 21
36.1468
  0
LINE
  8
0
 10
29.927
 20
36.1468
 11
29.1884
 21
36.0059
  0
LINE
  8
0
 10
29.1884
 20
36.0059
 11
28.4379
 21
36.0531
  0
LINE
  8
0
 10
28.4379
 20
-41.9469
 11
27.7227
 21
-41.7145
  0
LINE
  8
0
 10
27.7227
 20
-41.7145
 11
27.0877
 21
-41.3115
  0
LINE
  8
0
 10
27.0877
 20
-41.3115
 11
26.5729
 21
-40.7634
  0
LINE
  8
0
 10
26.5729
 20
-40.7634
 11
26.2107
 21
-40.1044
  0
LINE
  8
0
 10
26.2107
 20
-40.1044
 11
26.0237
 21
-39.376
  0
LINE
  8
0
 10
26.0237
 20
-39.376
 11
26.0237
 21
-38.624
  0
LINE
  8
0
 10
26.0237
 20
-38.624
 11
26.2107
 21
-37.8956
  0
LINE
  8
0
 10
26.2107
 20
-37.8956
 11
26.5729
 21
-37.2366
  0
LINE
  8
0
 10
26.5729
 20
-37.2366
 11
27.0877
 21
-36.6885
  0
LINE
  8
0
 10
27.0877
 20
-36.6885
 11
27.7227
 21
-36.2855
  0
LINE
  8
0
 10
27.7227
 20
-36.2855
 11
28.4379
 21
-36.0531
  0
LINE
  8
0
 10
28.4379
 20
-36.0531
 11
29.1884
 21
-36.0059
  0
LINE
  8
0
 10
29.1884
 20
-36.0059
 11
29.927
 21
-36.1468
  0
LINE
  8
0
 10
29.927
 20
-36.1468
 11
30.6075
 21
-36.467
  0
LINE
  8
0
 10
30.6075
 20
-36.467
 11
31.1869
 21
-36.9464
  0
LINE
  8
0
 10
31.1869
 20
-36.9464
 11
31.6289
 21
-37.5547
  0
LINE
  8
0
 10
31.6289
 20
-37.5547
 11
31.9057
 21
-38.2539
  0
LINE
  8
0
 10
31.9057
 20
-38.2539
 11
32
 21
-39
  0
LINE
  8
0
 10
32
 20
-39
 11
31.9057
 21
-39.7461
  0
LINE
  8
0
 10
31.9057
 20
-39.7461
 11
31.6289
 21
-40.4453
  0
LINE
  8
0
 10
31.6289
 20
-40.4453
 11
31.1869
 21
-41.0536
  0
LINE
  8
0
 10
31.1869
 20
-41.0536
 11
30.6075
 21
-41.533
  0
LINE
  8
0
 10
30.6075
 20
-41.533
 11
29.927
 21
-41.8532
  0
LINE
  8
0
 10
29.927
 20
-41.8532
 11
29.1884
 21
-41.9941
  0
LINE
  8
0
 10
29.1884
 20
-41.9941
 11
28.4379
 21
-41.9469
  0
LINE
  8
0
 10
136.438
 20
-41.9469
 11
135.723
 21
-41.7145
  0
LINE
  8
0
 10
135.723
 20
-41.7145
 11
135.088
 21
-41.3115
  0
LINE
  8
0
 10
135.088
 20
-41.3115
 11
134.573
 21
-40.7634
  0
LINE
  8
0
 10
134.573
 20
-40.7634
 11
134.211
 21
-40.1044
  0
LINE
  8
0
 10
134.211
 20
-40.1044
 11
134.024
 21
-39.376
  0
LINE
  8
0
 10
134.024
 20
-39.376
 11
134.024
 21
-38.624
  0
LINE
  8
0
 10
134.024
 20
-38.624
 11
134.211
 21
-37.8956
  0
LINE
  8
0
 10
134.211
 20
-37.8956
 11
134.573
 21
-37.2366
  0
LINE
  8
0
 10
134.573
 20
-37.2366
 11
135.088
 21
-36.6885
  0
LINE
  8
0
 10
135.088
 20
-36.6885
 11
135.723
 21
-36.2855
  0
LINE
  8
0
 10
135.723
 20
-36.2855
 11
136.438
 21
-36.0531
  0
LINE
  8
0
 10
136.438
 20
-36.0531
 11
137.188
 21
-36.0059
  0
LINE
  8
0
 10
137.188
 20
-36.0059
 11
137.927
 21
-36.1468
  0
LINE
  8
0
 10
137.927
 20
-36.1468
 11
138.607
 21
-36.467
  0
LINE
  8
0
 10
138.607
 20
-36.467
 11
139.187
 21
-36.9464
  0
LINE
  8
0
 10
139.187
 20
-36.9464
 11
139.629
 21
-37.5547
  0
LINE
  8
0
 10
139.629
 20
-37.5547
 11
139.906
 21
-38.2539
  0
LINE
  8
0
 10
139.906
 20
-38.2539
 11
140
 21
-39
  0
LINE
  8
0
 10
140
 20
-39
 11
139.906
 21
-39.7461
  0
LINE
  8
0
 10
139.906
 20
-39.7461
 11
139.629
 21
-40.4453
  0
LINE
  8
0
 10
139.629
 20
-40.4453
 11
139.187
 21
-41.0536
  0
LINE
  8
0
 10
139.187
 20
-41.0536
 11
138.607
 21
-41.533
  0
LINE
  8
0
 10
138.607
 20
-41.533
 11
137.927
 21
-41.8532
  0
LINE
  8
0
 10
137.927
 20
-41.8532
 11
137.188
 21
-41.9941
  0
LINE
  8
0
 10
137.188
 20
-41.9941
 11
136.438
 21
-41.9469
  0
LINE
  8
0
 10
15.2435
 20
-44.8429
 11
16.4088
 21
-44.3815
  0
LINE
  8
0
 10
16.4088
 20
-44.3815
 11
17.4227
 21
-43.6448
  0
LINE
  8
0
 10
17.4227
 20
-43.6448
 11
18.2216
 21
-42.6791
  0
LINE
  8
0
 10
18.2216
 20
-42.6791
 11
18.7553
 21
-41.5451
  0
LINE
  8
0
 10
18.7553
 20
-41.5451
 11
19
 21
-40
  0
LINE
  8
0
 10
19
 20
-40
 11
19
 21
40
  0
LINE
  8
0
 10
19
 20
40
 11
18.8429
 21
41.2435
  0
LINE
  8
0
 10
18.8429
 20
41.2435
 11
18.3815
 21
42.4088
  0
LINE
  8
0
 10
18.3815
 20
42.4088
 11
17.6448
 21
43.4227
  0
LINE
  8
0
 10
17.6448
 20
43.4227
 11
16.6791
 21
44.2216
  0
LINE
  8
0
 10
16.6791
 20
44.2216
 11
15.5451
 21
44.7553
  0
LINE
  8
0
 10
15.5451
 20
44.7553
 11
14
 21
45
  0
LINE
  8
0
 10
14
 20
45
 11
-96
 21
45
  0
LINE
  8
0
 10
-96
 20
45
 11
-97.2435
 21
44.8429
  0
LINE
  8
0
 10
-97.2435
 20
44.8429
 11
-98.4088
 21
44.3815
  0
LINE
  8
0
 10
-98.4088
 20
44.3815
 11
-99.4227
 21
43.6448
  0
LINE
  8
0
 10
-99.4227
 20
43.6448
 11
-100.222
 21
42.6791
  0
LINE
  8
0
 10
-100.222
 20
42.6791
 11
-100.755
 21
41.5451
  0
LINE
  8
0
 10
-100.755
 20
41.5451
 11
-101
 21
40
  0
LINE
  8
0
 10
-101
 20
40
 11
-101
 21
-40
  0
LINE
  8
0
 10
-101
 20
-40
 11
-100.843
 21
-41.2435
  0
LINE
  8
0
 10
-100.843
 20
-41.2435
 11
-100.382
 21
-42.4088
  0
LINE
  8
0
 10
-100.382
 20
-42.4088
 11
-99.6448
 21
-43.4227
  0
LINE
  8
0
 10
-99.6448
 20
-43.4227
 11
-98.6791
 21
-44.2216
  0
LINE
  8
0
 10
-98.6791
 20
-44.2216
 11
-97.5451
 21
-44.7553
  0
LINE
  8
0
 10
-97.5451
 20
-44.7553
 11
-96
 21
-45
  0
LINE
  8
0
 10
-96
 20
-45
 11
14
 21
-45
  0
LINE
  8
0
 10
14
 20
-45
 11
15.2435
 21
-44.8429
  0
LINE
  8
0
 10
12.4379
 20
36.0531
 11
11.7227
 21
36.2855
  0
LINE
  8
0
 10
11.7227
 20
36.2855
 11
11.0877
 21
36.6885
  0
LINE
  8
0
 10
11.0877
 20
36.6885
 11
10.5729
 21
37.2366
  0
LINE
  8
0
 10
10.5729
 20
37.2366
 11
10.2107
 21
37.8956
  0
LINE
  8
0
 10
10.2107
 20
37.8956
 11
10.0237
 21
38.624
  0
LINE
  8
0
 10
10.0237
 20
38.624
 11
10.0237
 21
39.376
  0
LINE
  8
0
 10
10.0237
 20
39.376
 11
10.2107
 21
40.1044
  0
LINE
  8
0
 10
10.2107
 20
40.1044
 11
10.5729
 21
40.7634
  0
LINE
  8
0
 10
10.5729
 20
40.7634
 11
11.0877
 21
41.3115
  0
LINE
  8
0
 10
11.0877
 20
41.3115
 11
11.7227
 21
41.7145
  0
LINE
  8
0
 10
11.7227
 20
41.7145
 11
12.4379
 21
41.9469
  0
LINE
  8
0
 10
12.4379
 20
41.9469
 11
13.1884
 21
41.9941
  0
LINE
  8
0
 10
13.1884
 20
41.9941
 11
13.927
 21
41.8532
  0
LINE
  8
0
 10
13.927
 20
41.8532
 11
14.6075
 21
41.533
  0
LINE
  8
0
 10
14.6075
 20
41.533
 11
15.1869
 21
41.0536
  0
LINE
  8
0
 10
15.1869
 20
41.0536
 11
15.6289
 21
40.4453
  0
LINE
  8
0
 10
15.6289
 20
40.4453
 11
15.9057
 21
39.7461
  0
LINE
  8
0
 10
15.9057
 20
39.7461
 11
16
 21
39
  0
LINE
  8
0
 10
16
 20
39
 11
15.9057
 21
38.2539
  0
LINE
  8
0
 10
15.9057
 20
38.2539
 11
15.6289
 21
37.5547
  0
LINE
  8
0
 10
15.6289
 20
37.5547
 11
15.1869
 21
36.9464
  0
LINE
  8
0
 10
15.1869
 20
36.9464
 11
14.6075
 21
36.467
  0
LINE
  8
0
 10
14.6075
 20
36.467
 11
13.927
 21
36.1468
  0
LINE
  8
0
 10
13.927
 20
36.1468
 11
13.1884
 21
36.0059
  0
LINE
  8
0
 10
13.1884
 20
36.0059
 11
12.4379
 21
36.0531
  0
LINE
  8
0
 10
-95.5621
 20
36.0531
 11
-96.2773
 21
36.2855
  0
LINE
  8
0
 10
-96.2773
 20
36.2855
 11
-96.9123
 21
36.6885
  0
LINE
  8
0
 10
-96.9123
 20
36.6885
 11
-97.427
 21
37.2366
  0
LINE
  8
0
 10
-97.427
 20
37.2366
 11
-97.7893
 21
37.8956
  0
LINE
  8
0
 10
-97.7893
 20
37.8956
 11
-97.9763
 21
38.624
  0
LINE
  8
0
 10
-97.9763
 20
38.624
 11
-97.9763
 21
39.376
  0
LINE
  8
0
 10
-97.9763
 20
39.376
 11
-97.7893
 21
40.1044
  0
LINE
  8
0
 10
-97.7893
 20
40.1044
 11
-97.427
 21
40.7634
  0
LINE
  8
0
 10
-97.427
 20
40.7634
 11
-96.9123
 21
41.3115
  0
LINE
  8
0
 10
-96.9123
 20
41.3115
 11
-96.2773
 21
41.7145
  0
LINE
  8
0
 10
-96.2773
 20
41.7145
 11
-95.5621
 21
41.9469
  0
LINE
  8
0
 10
-95.5621
 20
41.9469
 11
-94.8116
 21
41.9941
  0
LINE
  8
0
 10
-94.8116
 20
41.9941
 11
-94.073
 21
41.8532
  0
LINE
  8
0
 10
-94.073
 20
41.8532
 11
-93.3925
 21
41.533
  0
LINE
  8
0
 10
-93.3925
 20
41.533
 11
-92.8131
 21
41.0536
  0
LINE
  8
0
 10
-92.8131
 20
41.0536
 11
-92.3711
 21
40.4453
  0
LINE
  8
0
 10
-92.3711
 20
40.4453
 11
-92.0943
 21
39.7461
  0
LINE
  8
0
 10
-92.0943
 20
39.7461
 11
-92
 21
39
  0
LINE
  8
0
 10
-92
 20
39
 11
-92.0943
 21
38.2539
  0
LINE
  8
0
 10
-92.0943
 20
38.2539
 11
-92.3711
 21
37.5547
  0
LINE
  8
0
 10
-92.3711
 20
37.5547
 11
-92.8131
 21
36.9464
  0
LINE
  8
0
 10
-92.8131
 20
36.9464
 11
-93.3925
 21
36.467
  0
LINE
  8
0
 10
-93.3925
 20
36.467
 11
-94.073
 21
36.1468
  0
LINE
  8
0
 10
-94.073
 20
36.1468
 11
-94.8116
 21
36.0059
  0
LINE
  8
0
 10
-94.8116
 20
36.0059
 11
-95.5621
 21
36.0531
  0
LINE
  8
0
 10
-94
 20
-12.5
 11
-94
 21
12.5
  0
LINE
  8
0
 10
-94
 20
12.5
 11
-69
 21
12.5
  0
LINE
  8
0
 10
-69
 20
12.5
 11
-69
 21
-12.5
  0
LINE
  8
0
 10
-69
 20
-12.5
 11
-94
 21
-12.5
  0
LINE
  8
0
 10
-10.2811
 20
-1.47342
 11
-10.6387
 21
-1.35724
  0
LINE
  8
0
 10
-10.6387
 20
-1.35724
 11
-10.9561
 21
-1.15576
  0
LINE
  8
0
 10
-10.9561
 20
-1.15576
 11
-11.2135
 21
-0.881668
  0
LINE
  8
0
 10
-11.2135
 20
-0.881668
 11
-11.3947
 21
-0.552185
  0
LINE
  8
0
 10
-11.3947
 20
-0.552185
 11
-11.4882
 21
-0.187988
  0
LINE
  8
0
 10
-11.4882
 20
-0.187988
 11
-11.4882
 21
0.187988
  0
LINE
  8
0
 10
-11.4882
 20
0.187988
 11
-11.3947
 21
0.552185
  0
LINE
  8
0
 10
-11.3947
 20
0.552185
 11
-11.2135
 21
0.881668
  0
LINE
  8
0
 10
-11.2135
 20
0.881668
 11
-10.9561
 21
1.15576
  0
LINE
  8
0
 10
-10.9561
 20
1.15576
 11
-10.6387
 21
1.35724
  0
LINE
  8
0
 10
-10.6387
 20
1.35724
 11
-10.2811
 21
1.47342
  0
LINE
  8
0
 10
-10.2811
 20
1.47342
 11
-9.90581
 21
1.49704
  0
LINE
  8
0
 10
-9.90581
 20
1.49704
 11
-9.53647
 21
1.42657
  0
LINE
  8
0
 10
-9.53647
 20
1.42657
 11
-9.19626
 21
1.26648
  0
LINE
  8
0
 10
-9.19626
 20
1.26648
 11
-8.90654
 21
1.02681
  0
LINE
  8
0
 10
-8.90654
 20
1.02681
 11
-8.68553
 21
0.722626
  0
LINE
  8
0
 10
-8.68553
 20
0.722626
 11
-8.54712
 21
0.373032
  0
LINE
  8
0
 10
-8.54712
 20
0.373032
 11
-8.5
 21
0
  0
LINE
  8
0
 10
-8.5
 20
0
 11
-8.54712
 21
-0.373032
  0
LINE
  8
0
 10
-8.54712
 20
-0.373032
 11
-8.68553
 21
-0.722626
  0
LINE
  8
0
 10
-8.68553
 20
-0.722626
 11
-8.90654
 21
-1.02681
  0
LINE
  8
0
 10
-8.90654
 20
-1.02681
 11
-9.19626
 21
-1.26648
  0
LINE
  8
0
 10
-9.19626
 20
-1.26648
 11
-9.53647
 21
-1.42657
  0
LINE
  8
0
 10
-9.53647
 20
-1.42657
 11
-9.90581
 21
-1.49704
  0
LINE
  8
0
 10
-9.90581
 20
-1.49704
 11
-10.2811
 21
-1.47342
  0
LINE
  8
0
 10
-40.2811
 20
-1.47342
 11
-40.6387
 21
-1.35724
  0
LINE
  8
0
 10
-40.6387
 20
-1.35724
 11
-40.9561
 21
-1.15576
  0
LINE
  8
0
 10
-40.9561
 20
-1.15576
 11
-41.2135
 21
-0.881668
  0
LINE
  8
0
 10
-41.2135
 20
-0.881668
 11
-41.3947
 21
-0.552185
  0
LINE
  8
0
 10
-41.3947
 20
-0.552185
 11
-41.4882
 21
-0.187988
  0
LINE
  8
0
 10
-41.4882
 20
-0.187988
 11
-41.4882
 21
0.187988
  0
LINE
  8
0
 10
-41.4882
 20
0.187988
 11
-41.3947
 21
0.552185
  0
LINE
  8
0
 10
-41.3947
 20
0.552185
 11
-41.2135
 21
0.881668
  0
LINE
  8
0
 10
-41.2135
 20
0.881668
 11
-40.9561
 21
1.15576
  0
LINE
  8
0
 10
-40.9561
 20
1.15576
 11
-40.6387
 21
1.35724
  0
LINE
  8
0
 10
-40.6387
 20
1.35724
 11
-40.2811
 21
1.47342
  0
LINE
  8
0
 10
-40.2811
 20
1.47342
 11
-39.9058
 21
1.49704
  0
LINE
  8
0
 10
-39.9058
 20
1.49704
 11
-39.5365
 21
1.42657
  0
LINE
  8
0
 10
-39.5365
 20
1.42657
 11
-39.1963
 21
1.26648
  0
LINE
  8
0
 10
-39.1963
 20
1.26648
 11
-38.9065
 21
1.02681
  0
LINE
  8
0
 10
-38.9065
 20
1.02681
 11
-38.6855
 21
0.722626
  0
LINE
  8
0
 10
-38.6855
 20
0.722626
 11
-38.5471
 21
0.373032
  0
LINE
  8
0
 10
-38.5471
 20
0.373032
 11
-38.5
 21
0
  0
LINE
  8
0
 10
-38.5
 20
0
 11
-38.5471
 21
-0.373032
  0
LINE
  8
0
 10
-38.5471
 20
-0.373032
 11
-38.6855
 21
-0.722626
  0
LINE
  8
0
 10
-38.6855
 20
-0.722626
 11
-38.9065
 21
-1.02681
  0
LINE
  8
0
 10
-38.9065
 20
-1.02681
 11
-39.1963
 21
-1.26648
  0
LINE
  8
0
 10
-39.1963
 20
-1.26648
 11
-39.5365
 21
-1.42657
  0
LINE
  8
0
 10
-39.5365
 20
-1.42657
 11
-39.9058
 21
-1.49704
  0
LINE
  8
0
 10
-39.9058
 20
-1.49704
 11
-40.2811
 21
-1.47342
  0
LINE
  8
0
 10
-16.2811
 20
-1.47342
 11
-16.6387
 21
-1.35724
  0
LINE
  8
0
 10
-16.6387
 20
-1.35724
 11
-16.9561
 21
-1.15576
  0
LINE
  8
0
 10
-16.9561
 20
-1.15576
 11
-17.2135
 21
-0.881668
  0
LINE
  8
0
 10
-17.2135
 20
-0.881668
 11
-17.3947
 21
-0.552185
  0
LINE
  8
0
 10
-17.3947
 20
-0.552185
 11
-17.4882
 21
-0.187988
  0
LINE
  8
0
 10
-17.4882
 20
-0.187988
 11
-17.4882
 21
0.187988
  0
LINE
  8
0
 10
-17.4882
 20
0.187988
 11
-17.3947
 21
0.552185
  0
LINE
  8
0
 10
-17.3947
 20
0.552185
 11
-17.2135
 21
0.881668
  0
LINE
  8
0
 10
-17.2135
 20
0.881668
 11
-16.9561
 21
1.15576
  0
LINE
  8
0
 10
-16.9561
 20
1.15576
 11
-16.6387
 21
1.35724
  0
LINE
  8
0
 10
-16.6387
 20
1.35724
 11
-16.2811
 21
1.47342
  0
LINE
  8
0
 10
-16.2811
 20
1.47342
 11
-15.9058
 21
1.49704
  0
LINE
  8
0
 10
-15.9058
 20
1.49704
 11
-15.5365
 21
1.42657
  0
LINE
  8
0
 10
-15.5365
 20
1.42657
 11
-15.1963
 21
1.26648
  0
LINE
  8
0
 10
-15.1963
 20
1.26648
 11
-14.9065
 21
1.02681
  0
LINE
  8
0
 10
-14.9065
 20
1.02681
 11
-14.6855
 21
0.722626
  0
LINE
  8
0
 10
-14.6855
 20
0.722626
 11
-14.5471
 21
0.373032
  0
LINE
  8
0
 10
-14.5471
 20
0.373032
 11
-14.5
 21
0
  0
LINE
  8
0
 10
-14.5
 20
0
 11
-14.5471
 21
-0.373032
  0
LINE
  8
0
 10
-14.5471
 20
-0.373032
 11
-14.6855
 21
-0.722626
  0
LINE
  8
0
 10
-14.6855
 20
-0.722626
 11
-14.9065
 21
-1.02681
  0
LINE
  8
0
 10
-14.9065
 20
-1.02681
 11
-15.1963
 21
-1.26648
  0
LINE
  8
0
 10
-15.1963
 20
-1.26648
 11
-15.5365
 21
-1.42657
  0
LINE
  8
0
 10
-15.5365
 20
-1.42657
 11
-15.9058
 21
-1.49704
  0
LINE
  8
0
 10
-15.9058
 20
-1.49704
 11
-16.2811
 21
-1.47342
  0
LINE
  8
0
 10
-95.5621
 20
-41.9469
 11
-96.2773
 21
-41.7145
  0
LINE
  8
0
 10
-96.2773
 20
-41.7145
 11
-96.9123
 21
-41.3115
  0
LINE
  8
0
 10
-96.9123
 20
-41.3115
 11
-97.427
 21
-40.7634
  0
LINE
  8
0
 10
-97.427
 20
-40.7634
 11
-97.7893
 21
-40.1044
  0
LINE
  8
0
 10
-97.7893
 20
-40.1044
 11
-97.9763
 21
-39.376
  0
LINE
  8
0
 10
-97.9763
 20
-39.376
 11
-97.9763
 21
-38.624
  0
LINE
  8
0
 10
-97.9763
 20
-38.624
 11
-97.7893
 21
-37.8956
  0
LINE
  8
0
 10
-97.7893
 20
-37.8956
 11
-97.427
 21
-37.2366
  0
LINE
  8
0
 10
-97.427
 20
-37.2366
 11
-96.9123
 21
-36.6885
  0
LINE
  8
0
 10
-96.9123
 20
-36.6885
 11
-96.2773
 21
-36.2855
  0
LINE
  8
0
 10
-96.2773
 20
-36.2855
 11
-95.5621
 21
-36.0531
  0
LINE
  8
0
 10
-95.5621
 20
-36.0531
 11
-94.8116
 21
-36.0059
  0
LINE
  8
0
 10
-94.8116
 20
-36.0059
 11
-94.073
 21
-36.1468
  0
LINE
  8
0
 10
-94.073
 20
-36.1468
 11
-93.3925
 21
-36.467
  0
LINE
  8
0
 10
-93.3925
 20
-36.467
 11
-92.8131
 21
-36.9464
  0
LINE
  8
0
 10
-92.8131
 20
-36.9464
 11
-92.3711
 21
-37.5547
  0
LINE
  8
0
 10
-92.3711
 20
-37.5547
 11
-92.0943
 21
-38.2539
  0
LINE
  8
0
 10
-92.0943
 20
-38.2539
 11
-92
 21
-39
  0
LINE
  8
0
 10
-92
 20
-39
 11
-92.0943
 21
-39.7461
  0
LINE
  8
0
 10
-92.0943
 20
-39.7461
 11
-92.3711
 21
-40.4453
  0
LINE
  8
0
 10
-92.3711
 20
-40.4453
 11
-92.8131
 21
-41.0536
  0
LINE
  8
0
 10
-92.8131
 20
-41.0536
 11
-93.3925
 21
-41.533
  0
LINE
  8
0
 10
-93.3925
 20
-41.533
 11
-94.073
 21
-41.8532
  0
LINE
  8
0
 10
-94.073
 20
-41.8532
 11
-94.8116
 21
-41.9941
  0
LINE
  8
0
 10
-94.8116
 20
-41.9941
 11
-95.5621
 21
-41.9469
  0
LINE
  8
0
 10
12.4379
 20
-41.9469
 11
11.7227
 21
-41.7145
  0
LINE
  8
0
 10
11.7227
 20
-41.7145
 11
11.0877
 21
-41.3115
  0
LINE
  8
0
 10
11.0877
 20
-41.3115
 11
10.5729
 21
-40.7634
  0
LINE
  8
0
 10
10.5729
 20
-40.7634
 11
10.2107
 21
-40.1044
  0
LINE
  8
0
 10
10.2107
 20
-40.1044
 11
10.0237
 21
-39.376
  0
LINE
  8
0
 10
10.0237
 20
-39.376
 11
10.0237
 21
-38.624
  0
LINE
  8
0
 10
10.0237
 20
-38.624
 11
10.2107
 21
-37.8956
  0
LINE
  8
0
 10
10.2107
 20
-37.8956
 11
10.5729
 21
-37.2366
  0
LINE
  8
0
 10
10.5729
 20
-37.2366
 11
11.0877
 21
-36.6885
  0
LINE
  8
0
 10
11.0877
 20
-36.6885
 11
11.7227
 21
-36.2855
  0
LINE
  8
0
 10
11.7227
 20
-36.2855
 11
12.4379
 21
-36.0531
  0
LINE
  8
0
 10
12.4379
 20
-36.0531
 11
13.1884
 21
-36.0059
  0
LINE
  8
0
 10
13.1884
 20
-36.0059
 11
13.927
 21
-36.1468
  0
LINE
  8
0
 10
13.927
 20
-36.1468
 11
14.6075
 21
-36.467
  0
LINE
  8
0
 10
14.6075
 20
-36.467
 11
15.1869
 21
-36.9464
  0
LINE
  8
0
 10
15.1869
 20
-36.9464
 11
15.6289
 21
-37.5547
  0
LINE
  8
0
 10
15.6289
 20
-37.5547
 11
15.9057
 21
-38.2539
  0
LINE
  8
0
 10
15.9057
 20
-38.2539
 11
16
 21
-39
  0
LINE
  8
0
 10
16
 20
-39
 11
15.9057
 21
-39.7461
  0
LINE
  8
0
 10
15.9057
 20
-39.7461
 11
15.6289
 21
-40.4453
  0
LINE
  8
0
 10
15.6289
 20
-40.4453
 11
15.1869
 21
-41.0536
  0
LINE
  8
0
 10
15.1869
 20
-41.0536
 11
14.6075
 21
-41.533
  0
LINE
  8
0
 10
14.6075
 20
-41.533
 11
13.927
 21
-41.8532
  0
LINE
  8
0
 10
13.927
 20
-41.8532
 11
13.1884
 21
-41.9941
  0
LINE
  8
0
 10
13.1884
 20
-41.9941
 11
12.4379
 21
-41.9469
  0
LINE
  8
0
 10
916
 20
29.5
 11
1004
 21
29.5
  0
LINE
  8
0
 10
1004
 20
29.5
 11
1004
 21
40
  0
LINE
  8
0
 10
1004
 20
40
 11
1003.84
 21
41.2435
  0
LINE
  8
0
 10
1003.84
 20
41.2435
 11
1003.38
 21
42.4088
  0
LINE
  8
0
 10
1003.38
 20
42.4088
 11
1002.64
 21
43.4227
  0
LINE
  8
0
 10
1002.64
 20
43.4227
 11
1001.68
 21
44.2216
  0
LINE
  8
0
 10
1001.68
 20
44.2216
 11
1000.55
 21
44.7553
  0
LINE
  8
0
 10
1000.55
 20
44.7553
 11
999
 21
45
  0
LINE
  8
0
 10
999
 20
45
 11
889
 21
45
  0
LINE
  8
0
 10
889
 20
45
 11
887.757
 21
44.8429
  0
LINE
  8
0
 10
887.757
 20
44.8429
 11
886.591
 21
44.3815
  0
LINE
  8
0
 10
886.591
 20
44.3815
 11
885.577
 21
43.6448
  0
LINE
  8
0
 10
885.577
 20
43.6448
 11
884.778
 21
42.6791
  0
LINE
  8
0
 10
884.778
 20
42.6791
 11
884.245
 21
41.5451
  0
LINE
  8
0
 10
884.245
 20
41.5451
 11
884
 21
40
  0
LINE
  8
0
 10
884
 20
40
 11
884
 21
22.5
  0
LINE
  8
0
 10
884
 20
22.5
 11
899
 21
22.5
  0
LINE
  8
0
 10
899
 20
22.5
 11
899
 21
12.5
  0
LINE
  8
0
 10
899
 20
12.5
 11
916
 21
12.5
  0
LINE
  8
0
 10
916
 20
12.5
 11
916
 21
29.5
  0
LINE
  8
0
 10
889.438
 20
36.0531
 11
888.723
 21
36.2855
  0
LINE
  8
0
 10
888.723
 20
36.2855
 11
888.088
 21
36.6885
  0
LINE
  8
0
 10
888.088
 20
36.6885
 11
887.573
 21
37.2366
  0
LINE
  8
0
 10
887.573
 20
37.2366
 11
887.211
 21
37.8956
  0
LINE
  8
0
 10
887.211
 20
37.8956
 11
887.024
 21
38.624
  0
LINE
  8
0
 10
887.024
 20
38.624
 11
887.024
 21
39.376
  0
LINE
  8
0
 10
887.024
 20
39.376
 11
887.211
 21
40.1044
  0
LINE
  8
0
 10
887.211
 20
40.1044
 11
887.573
 21
40.7634
  0
LINE
  8
0
 10
887.573
 20
40.7634
 11
888.088
 21
41.3115
  0
LINE
  8
0
 10
888.088
 20
41.3115
 11
888.723
 21
41.7145
  0
LINE
  8
0
 10
888.723
 20
41.7145
 11
889.438
 21
41.9469
  0
LINE
  8
0
 10
889.438
 20
41.9469
 11
890.188
 21
41.9941
  0
LINE
  8
0
 10
890.188
 20
41.9941
 11
890.927
 21
41.8532
  0
LINE
  8
0
 10
890.927
 20
41.8532
 11
891.607
 21
41.533
  0
LINE
  8
0
 10
891.607
 20
41.533
 11
892.187
 21
41.0536
  0
LINE
  8
0
 10
892.187
 20
41.0536
 11
892.629
 21
40.4453
  0
LINE
  8
0
 10
892.629
 20
40.4453
 11
892.906
 21
39.7461
  0
LINE
  8
0
 10
892.906
 20
39.7461
 11
893
 21
39
  0
LINE
  8
0
 10
893
 20
39
 11
892.906
 21
38.2539
  0
LINE
  8
0
 10
892.906
 20
38.2539
 11
892.629
 21
37.5547
  0
LINE
  8
0
 10
892.629
 20
37.5547
 11
892.187
 21
36.9464
  0
LINE
  8
0
 10
892.187
 20
36.9464
 11
891.607
 21
36.467
  0
LINE
  8
0
 10
891.607
 20
36.467
 11
890.927
 21
36.1468
  0
LINE
  8
0
 10
890.927
 20
36.1468
 11
890.188
 21
36.0059
  0
LINE
  8
0
 10
890.188
 20
36.0059
 11
889.438
 21
36.0531
  0
LINE
  8
0
 10
997.438
 20
36.0531
 11
996.723
 21
36.2855
  0
LINE
  8
0
 10
996.723
 20
36.2855
 11
996.088
 21
36.6885
  0
LINE
  8
0
 10
996.088
 20
36.6885
 11
995.573
 21
37.2366
  0
LINE
  8
0
 10
995.573
 20
37.2366
 11
995.211
 21
37.8956
  0
LINE
  8
0
 10
995.211
 20
37.8956
 11
995.024
 21
38.624
  0
LINE
  8
0
 10
995.024
 20
38.624
 11
995.024
 21
39.376
  0
LINE
  8
0
 10
995.024
 20
39.376
 11
995.211
 21
40.1044
  0
LINE
  8
0
 10
995.211
 20
40.1044
 11
995.573
 21
40.7634
  0
LINE
  8
0
 10
995.573
 20
40.7634
 11
996.088
 21
41.3115
  0
LINE
  8
0
 10
996.088
 20
41.3115
 11
996.723
 21
41.7145
  0
LINE
  8
0
 10
996.723
 20
41.7145
 11
997.438
 21
41.9469
  0
LINE
  8
0
 10
997.438
 20
41.9469
 11
998.188
 21
41.9941
  0
LINE
  8
0
 10
998.188
 20
41.9941
 11
998.927
 21
41.8532
  0
LINE
  8
0
 10
998.927
 20
41.8532
 11
999.607
 21
41.533
  0
LINE
  8
0
 10
999.607
 20
41.533
 11
1000.19
 21
41.0536
  0
LINE
  8
0
 10
1000.19
 20
41.0536
 11
1000.63
 21
40.4453
  0
LINE
  8
0
 10
1000.63
 20
40.4453
 11
1000.91
 21
39.7461
  0
LINE
  8
0
 10
1000.91
 20
39.7461
 11
1001
 21
39
  0
LINE
  8
0
 10
1001
 20
39
 11
1000.91
 21
38.2539
  0
LINE
  8
0
 10
1000.91
 20
38.2539
 11
1000.63
 21
37.5547
  0
LINE
  8
0
 10
1000.63
 20
37.5547
 11
1000.19
 21
36.9464
  0
LINE
  8
0
 10
1000.19
 20
36.9464
 11
999.607
 21
36.467
  0
LINE
  8
0
 10
999.607
 20
36.467
 11
998.927
 21
36.1468
  0
LINE
  8
0
 10
998.927
 20
36.1468
 11
998.188
 21
36.0059
  0
LINE
  8
0
 10
998.188
 20
36.0059
 11
997.438
 21
36.0531
  0
LINE
  8
0
 10
793
 20
29.5
 11
881
 21
29.5
  0
LINE
  8
0
 10
881
 20
29.5
 11
881
 21
40
  0
LINE
  8
0
 10
881
 20
40
 11
880.843
 21
41.2435
  0
LINE
  8
0
 10
880.843
 20
41.2435
 11
880.382
 21
42.4088
  0
LINE
  8
0
 10
880.382
 20
42.4088
 11
879.645
 21
43.4227
  0
LINE
  8
0
 10
879.645
 20
43.4227
 11
878.679
 21
44.2216
  0
LINE
  8
0
 10
878.679
 20
44.2216
 11
877.545
 21
44.7553
  0
LINE
  8
0
 10
877.545
 20
44.7553
 11
876
 21
45
  0
LINE
  8
0
 10
876
 20
45
 11
766
 21
45
  0
LINE
  8
0
 10
766
 20
45
 11
764.757
 21
44.8429
  0
LINE
  8
0
 10
764.757
 20
44.8429
 11
763.591
 21
44.3815
  0
LINE
  8
0
 10
763.591
 20
44.3815
 11
762.577
 21
43.6448
  0
LINE
  8
0
 10
762.577
 20
43.6448
 11
761.778
 21
42.6791
  0
LINE
  8
0
 10
761.778
 20
42.6791
 11
761.245
 21
41.5451
  0
LINE
  8
0
 10
761.245
 20
41.5451
 11
761
 21
40
  0
LINE
  8
0
 10
761
 20
40
 11
761
 21
22.5
  0
LINE
  8
0
 10
761
 20
22.5
 11
776
 21
22.5
  0
LINE
  8
0
 10
776
 20
22.5
 11
776
 21
12.5
  0
LINE
  8
0
 10
776
 20
12.5
 11
793
 21
12.5
  0
LINE
  8
0
 10
793
 20
12.5
 11
793
 21
29.5
  0
LINE
  8
0
 10
766.438
 20
36.0531
 11
765.723
 21
36.2855
  0
LINE
  8
0
 10
765.723
 20
36.2855
 11
765.088
 21
36.6885
  0
LINE
  8
0
 10
765.088
 20
36.6885
 11
764.573
 21
37.2366
  0
LINE
  8
0
 10
764.573
 20
37.2366
 11
764.211
 21
37.8956
  0
LINE
  8
0
 10
764.211
 20
37.8956
 11
764.024
 21
38.624
  0
LINE
  8
0
 10
764.024
 20
38.624
 11
764.024
 21
39.376
  0
LINE
  8
0
 10
764.024
 20
39.376
 11
764.211
 21
40.1044
  0
LINE
  8
0
 10
764.211
 20
40.1044
 11
764.573
 21
40.7634
  0
LINE
  8
0
 10
764.573
 20
40.7634
 11
765.088
 21
41.3115
  0
LINE
  8
0
 10
765.088
 20
41.3115
 11
765.723
 21
41.7145
  0
LINE
  8
0
 10
765.723
 20
41.7145
 11
766.438
 21
41.9469
  0
LINE
  8
0
 10
766.438
 20
41.9469
 11
767.188
 21
41.9941
  0
LINE
  8
0
 10
767.188
 20
41.9941
 11
767.927
 21
41.8532
  0
LINE
  8
0
 10
767.927
 20
41.8532
 11
768.607
 21
41.533
  0
LINE
  8
0
 10
768.607
 20
41.533
 11
769.187
 21
41.0536
  0
LINE
  8
0
 10
769.187
 20
41.0536
 11
769.629
 21
40.4453
  0
LINE
  8
0
 10
769.629
 20
40.4453
 11
769.906
 21
39.7461
  0
LINE
  8
0
 10
769.906
 20
39.7461
 11
770
 21
39
  0
LINE
  8
0
 10
770
 20
39
 11
769.906
 21
38.2539
  0
LINE
  8
0
 10
769.906
 20
38.2539
 11
769.629
 21
37.5547
  0
LINE
  8
0
 10
769.629
 20
37.5547
 11
769.187
 21
36.9464
  0
LINE
  8
0
 10
769.187
 20
36.9464
 11
768.607
 21
36.467
  0
LINE
  8
0
 10
768.607
 20
36.467
 11
767.927
 21
36.1468
  0
LINE
  8
0
 10
767.927
 20
36.1468
 11
767.188
 21
36.0059
  0
LINE
  8
0
 10
767.188
 20
36.0059
 11
766.438
 21
36.0531
  0
LINE
  8
0
 10
874.438
 20
36.0531
 11
873.723
 21
36.2855
  0
LINE
  8
0
 10
873.723
 20
36.2855
 11
873.088
 21
36.6885
  0
LINE
  8
0
 10
873.088
 20
36.6885
 11
872.573
 21
37.2366
  0
LINE
  8
0
 10
872.573
 20
37.2366
 11
872.211
 21
37.8956
  0
LINE
  8
0
 10
872.211
 20
37.8956
 11
872.024
 21
38.624
  0
LINE
  8
0
 10
872.024
 20
38.624
 11
872.024
 21
39.376
  0
LINE
  8
0
 10
872.024
 20
39.376
 11
872.211
 21
40.1044
  0
LINE
  8
0
 10
872.211
 20
40.1044
 11
872.573
 21
40.7634
  0
LINE
  8
0
 10
872.573
 20
40.7634
 11
873.088
 21
41.3115
  0
LINE
  8
0
 10
873.088
 20
41.3115
 11
873.723
 21
41.7145
  0
LINE
  8
0
 10
873.723
 20
41.7145
 11
874.438
 21
41.9469
  0
LINE
  8
0
 10
874.438
 20
41.9469
 11
875.188
 21
41.9941
  0
LINE
  8
0
 10
875.188
 20
41.9941
 11
875.927
 21
41.8532
  0
LINE
  8
0
 10
875.927
 20
41.8532
 11
876.607
 21
41.533
  0
LINE
  8
0
 10
876.607
 20
41.533
 11
877.187
 21
41.0536
  0
LINE
  8
0
 10
877.187
 20
41.0536
 11
877.629
 21
40.4453
  0
LINE
  8
0
 10
877.629
 20
40.4453
 11
877.906
 21
39.7461
  0
LINE
  8
0
 10
877.906
 20
39.7461
 11
878
 21
39
  0
LINE
  8
0
 10
878
 20
39
 11
877.906
 21
38.2539
  0
LINE
  8
0
 10
877.906
 20
38.2539
 11
877.629
 21
37.5547
  0
LINE
  8
0
 10
877.629
 20
37.5547
 11
877.187
 21
36.9464
  0
LINE
  8
0
 10
877.187
 20
36.9464
 11
876.607
 21
36.467
  0
LINE
  8
0
 10
876.607
 20
36.467
 11
875.927
 21
36.1468
  0
LINE
  8
0
 10
875.927
 20
36.1468
 11
875.188
 21
36.0059
  0
LINE
  8
0
 10
875.188
 20
36.0059
 11
874.438
 21
36.0531
  0
LINE
  8
0
 10
877.243
 20
-44.8429
 11
878.409
 21
-44.3815
  0
LINE
  8
0
 10
878.409
 20
-44.3815
 11
879.423
 21
-43.6448
  0
LINE
  8
0
 10
879.423
 20
-43.6448
 11
880.222
 21
-42.6791
  0
LINE
  8
0
 10
880.222
 20
-42.6791
 11
880.755
 21
-41.5451
  0
LINE
  8
0
 10
880.755
 20
-41.5451
 11
881
 21
-40
  0
LINE
  8
0
 10
881
 20
-40
 11
881
 21
-29.5
  0
LINE
  8
0
 10
881
 20
-29.5
 11
793
 21
-29.5
  0
LINE
  8
0
 10
793
 20
-29.5
 11
793
 21
-12.5
  0
LINE
  8
0
 10
793
 20
-12.5
 11
776
 21
-12.5
  0
LINE
  8
0
 10
776
 20
-12.5
 11
776
 21
-22.5
  0
LINE
  8
0
 10
776
 20
-22.5
 11
761
 21
-22.5
  0
LINE
  8
0
 10
761
 20
-22.5
 11
761
 21
-40
  0
LINE
  8
0
 10
761
 20
-40
 11
761.157
 21
-41.2435
  0
LINE
  8
0
 10
761.157
 20
-41.2435
 11
761.618
 21
-42.4088
  0
LINE
  8
0
 10
761.618
 20
-42.4088
 11
762.355
 21
-43.4227
  0
LINE
  8
0
 10
762.355
 20
-43.4227
 11
763.321
 21
-44.2216
  0
LINE
  8
0
 10
763.321
 20
-44.2216
 11
764.455
 21
-44.7553
  0
LINE
  8
0
 10
764.455
 20
-44.7553
 11
766
 21
-45
  0
LINE
  8
0
 10
766
 20
-45
 11
876
 21
-45
  0
LINE
  8
0
 10
876
 20
-45
 11
877.243
 21
-44.8429
  0
LINE
  8
0
 10
874.438
 20
-41.9469
 11
873.723
 21
-41.7145
  0
LINE
  8
0
 10
873.723
 20
-41.7145
 11
873.088
 21
-41.3115
  0
LINE
  8
0
 10
873.088
 20
-41.3115
 11
872.573
 21
-40.7634
  0
LINE
  8
0
 10
872.573
 20
-40.7634
 11
872.211
 21
-40.1044
  0
LINE
  8
0
 10
872.211
 20
-40.1044
 11
872.024
 21
-39.376
  0
LINE
  8
0
 10
872.024
 20
-39.376
 11
872.024
 21
-38.624
  0
LINE
  8
0
 10
872.024
 20
-38.624
 11
872.211
 21
-37.8956
  0
LINE
  8
0
 10
872.211
 20
-37.8956
 11
872.573
 21
-37.2366
  0
LINE
  8
0
 10
872.573
 20
-37.2366
 11
873.088
 21
-36.6885
  0
LINE
  8
0
 10
873.088
 20
-36.6885
 11
873.723
 21
-36.2855
  0
LINE
  8
0
 10
873.723
 20
-36.2855
 11
874.438
 21
-36.0531
  0
LINE
  8
0
 10
874.438
 20
-36.0531
 11
875.188
 21
-36.0059
  0
LINE
  8
0
 10
875.188
 20
-36.0059
 11
875.927
 21
-36.1468
  0
LINE
  8
0
 10
875.927
 20
-36.1468
 11
876.607
 21
-36.467
  0
LINE
  8
0
 10
876.607
 20
-36.467
 11
877.187
 21
-36.9464
  0
LINE
  8
0
 10
877.187
 20
-36.9464
 11
877.629
 21
-37.5547
  0
LINE
  8
0
 10
877.629
 20
-37.5547
 11
877.906
 21
-38.2539
  0
LINE
  8
0
 10
877.906
 20
-38.2539
 11
878
 21
-39
  0
LINE
  8
0
 10
878
 20
-39
 11
877.906
 21
-39.7461
  0
LINE
  8
0
 10
877.906
 20
-39.7461
 11
877.629
 21
-40.4453
  0
LINE
  8
0
 10
877.629
 20
-40.4453
 11
877.187
 21
-41.0536
  0
LINE
  8
0
 10
877.187
 20
-41.0536
 11
876.607
 21
-41.533
  0
LINE
  8
0
 10
876.607
 20
-41.533
 11
875.927
 21
-41.8532
  0
LINE
  8
0
 10
875.927
 20
-41.8532
 11
875.188
 21
-41.9941
  0
LINE
  8
0
 10
875.188
 20
-41.9941
 11
874.438
 21
-41.9469
  0
LINE
  8
0
 10
766.438
 20
-41.9469
 11
765.723
 21
-41.7145
  0
LINE
  8
0
 10
765.723
 20
-41.7145
 11
765.088
 21
-41.3115
  0
LINE
  8
0
 10
765.088
 20
-41.3115
 11
764.573
 21
-40.7634
  0
LINE
  8
0
 10
764.573
 20
-40.7634
 11
764.211
 21
-40.1044
  0
LINE
  8
0
 10
764.211
 20
-40.1044
 11
764.024
 21
-39.376
  0
LINE
  8
0
 10
764.024
 20
-39.376
 11
764.024
 21
-38.624
  0
LINE
  8
0
 10
764.024
 20
-38.624
 11
764.211
 21
-37.8956
  0
LINE
  8
0
 10
764.211
 20
-37.8956
 11
764.573
 21
-37.2366
  0
LINE
  8
0
 10
764.573
 20
-37.2366
 11
765.088
 21
-36.6885
  0
LINE
  8
0
 10
765.088
 20
-36.6885
 11
765.723
 21
-36.2855
  0
LINE
  8
0
 10
765.723
 20
-36.2855
 11
766.438
 21
-36.0531
  0
LINE
  8
0
 10
766.438
 20
-36.0531
 11
767.188
 21
-36.0059
  0
LINE
  8
0
 10
767.188
 20
-36.0059
 11
767.927
 21
-36.1468
  0
LINE
  8
0
 10
767.927
 20
-36.1468
 11
768.607
 21
-36.467
  0
LINE
  8
0
 10
768.607
 20
-36.467
 11
769.187
 21
-36.9464
  0
LINE
  8
0
 10
769.187
 20
-36.9464
 11
769.629
 21
-37.5547
  0
LINE
  8
0
 10
769.629
 20
-37.5547
 11
769.906
 21
-38.2539
  0
LINE
  8
0
 10
769.906
 20
-38.2539
 11
770
 21
-39
  0
LINE
  8
0
 10
770
 20
-39
 11
769.906
 21
-39.7461
  0
LINE
  8
0
 10
769.906
 20
-39.7461
 11
769.629
 21
-40.4453
  0
LINE
  8
0
 10
769.629
 20
-40.4453
 11
769.187
 21
-41.0536
  0
LINE
  8
0
 10
769.187
 20
-41.0536
 11
768.607
 21
-41.533
  0
LINE
  8
0
 10
768.607
 20
-41.533
 11
767.927
 21
-41.8532
  0
LINE
  8
0
 10
767.927
 20
-41.8532
 11
767.188
 21
-41.9941
  0
LINE
  8
0
 10
767.188
 20
-41.9941
 11
766.438
 21
-41.9469
  0
LINE
  8
0
 10
1000.24
 20
-44.8429
 11
1001.41
 21
-44.3815
  0
LINE
  8
0
 10
1001.41
 20
-44.3815
 11
1002.42
 21
-43.6448
  0
LINE
  8
0
 10
1002.42
 20
-43.6448
 11
1003.22
 21
-42.6791
  0
LINE
  8
0
 10
1003.22
 20
-42.6791
 11
1003.76
 21
-41.5451
  0
LINE
  8
0
 10
1003.76
 20
-41.5451
 11
1004
 21
-40
  0
LINE
  8
0
 10
1004
 20
-40
 11
1004
 21
-29.5
  0
LINE
  8
0
 10
1004
 20
-29.5
 11
916
 21
-29.5
  0
LINE
  8
0
 10
916
 20
-29.5
 11
916
 21
-12.5
  0
LINE
  8
0
 10
916
 20
-12.5
 11
899
 21
-12.5
  0
LINE
  8
0
 10
899
 20
-12.5
 11
899
 21
-22.5
  0
LINE
  8
0
 10
899
 20
-22.5
 11
884
 21
-22.5
  0
LINE
  8
0
 10
884
 20
-22.5
 11
884
 21
-40
  0
LINE
  8
0
 10
884
 20
-40
 11
884.157
 21
-41.2435
  0
LINE
  8
0
 10
884.157
 20
-41.2435
 11
884.618
 21
-42.4088
  0
LINE
  8
0
 10
884.618
 20
-42.4088
 11
885.355
 21
-43.4227
  0
LINE
  8
0
 10
885.355
 20
-43.4227
 11
886.321
 21
-44.2216
  0
LINE
  8
0
 10
886.321
 20
-44.2216
 11
887.455
 21
-44.7553
  0
LINE
  8
0
 10
887.455
 20
-44.7553
 11
889
 21
-45
  0
LINE
  8
0
 10
889
 20
-45
 11
999
 21
-45
  0
LINE
  8
0
 10
999
 20
-45
 11
1000.24
 21
-44.8429
  0
LINE
  8
0
 10
997.438
 20
-41.9469
 11
996.723
 21
-41.7145
  0
LINE
  8
0
 10
996.723
 20
-41.7145
 11
996.088
 21
-41.3115
  0
LINE
  8
0
 10
996.088
 20
-41.3115
 11
995.573
 21
-40.7634
  0
LINE
  8
0
 10
995.573
 20
-40.7634
 11
995.211
 21
-40.1044
  0
LINE
  8
0
 10
995.211
 20
-40.1044
 11
995.024
 21
-39.376
  0
LINE
  8
0
 10
995.024
 20
-39.376
 11
995.024
 21
-38.624
  0
LINE
  8
0
 10
995.024
 20
-38.624
 11
995.211
 21
-37.8956
  0
LINE
  8
0
 10
995.211
 20
-37.8956
 11
995.573
 21
-37.2366
  0
LINE
  8
0
 10
995.573
 20
-37.2366
 11
996.088
 21
-36.6885
  0
LINE
  8
0
 10
996.088
 20
-36.6885
 11
996.723
 21
-36.2855
  0
LINE
  8
0
 10
996.723
 20
-36.2855
 11
997.438
 21
-36.0531
  0
LINE
  8
0
 10
997.438
 20
-36.0531
 11
998.188
 21
-36.0059
  0
LINE
  8
0
 10
998.188
 20
-36.0059
 11
998.927
 21
-36.1468
  0
LINE
  8
0
 10
998.927
 20
-36.1468
 11
999.607
 21
-36.467
  0
LINE
  8
0
 10
999.607
 20
-36.467
 11
1000.19
 21
-36.9464
  0
LINE
  8
0
 10
1000.19
 20
-36.9464
 11
1000.63
 21
-37.5547
  0
LINE
  8
0
 10
1000.63
 20
-37.5547
 11
1000.91
 21
-38.2539
  0
LINE
  8
0
 10
1000.91
 20
-38.2539
 11
1001
 21
-39
  0
LINE
  8
0
 10
1001
 20
-39
 11
1000.91
 21
-39.7461
  0
LINE
  8
0
 10
1000.91
 20
-39.7461
 11
1000.63
 21
-40.4453
  0
LINE
  8
0
 10
1000.63
 20
-40.4453
 11
1000.19
 21
-41.0536
  0
LINE
  8
0
 10
1000.19
 20
-41.0536
 11
999.607
 21
-41.533
  0
LINE
  8
0
 10
999.607
 20
-41.533
 11
998.927
 21
-41.8532
  0
LINE
  8
0
 10
998.927
 20
-41.8532
 11
998.188
 21
-41.9941
  0
LINE
  8
0
 10
998.188
 20
-41.9941
 11
997.438
 21
-41.9469
  0
LINE
  8
0
 10
889.438
 20
-41.9469
 11
888.723
 21
-41.7145
  0
LINE
  8
0
 10
888.723
 20
-41.7145
 11
888.088
 21
-41.3115
  0
LINE
  8
0
 10
888.088
 20
-41.3115
 11
887.573
 21
-40.7634
  0
LINE
  8
0
 10
887.573
 20
-40.7634
 11
887.211
 21
-40.1044
  0
LINE
  8
0
 10
887.211
 20
-40.1044
 11
887.024
 21
-39.376
  0
LINE
  8
0
 10
887.024
 20
-39.376
 11
887.024
 21
-38.624
  0
LINE
  8
0
 10
887.024
 20
-38.624
 11
887.211
 21
-37.8956
  0
LINE
  8
0
 10
887.211
 20
-37.8956
 11
887.573
 21
-37.2366
  0
LINE
  8
0
 10
887.573
 20
-37.2366
 11
888.088
 21
-36.6885
  0
LINE
  8
0
 10
888.088
 20
-36.6885
 11
888.723
 21
-36.2855
  0
LINE
  8
0
 10
888.723
 20
-36.2855
 11
889.438
 21
-36.0531
  0
LINE
  8
0
 10
889.438
 20
-36.0531
 11
890.188
 21
-36.0059
  0
LINE
  8
0
 10
890.188
 20
-36.0059
 11
890.927
 21
-36.1468
  0
LINE
  8
0
 10
890.927
 20
-36.1468
 11
891.607
 21
-36.467
  0
LINE
  8
0
 10
891.607
 20
-36.467
 11
892.187
 21
-36.9464
  0
LINE
  8
0
 10
892.187
 20
-36.9464
 11
892.629
 21
-37.5547
  0
LINE
  8
0
 10
892.629
 20
-37.5547
 11
892.906
 21
-38.2539
  0
LINE
  8
0
 10
892.906
 20
-38.2539
 11
893
 21
-39
  0
LINE
  8
0
 10
893
 20
-39
 11
892.906
 21
-39.7461
  0
LINE
  8
0
 10
892.906
 20
-39.7461
 11
892.629
 21
-40.4453
  0
LINE
  8
0
 10
892.629
 20
-40.4453
 11
892.187
 21
-41.0536
  0
LINE
  8
0
 10
892.187
 20
-41.0536
 11
891.607
 21
-41.533
  0
LINE
  8
0
 10
891.607
 20
-41.533
 11
890.927
 21
-41.8532
  0
LINE
  8
0
 10
890.927
 20
-41.8532
 11
890.188
 21
-41.9941
  0
LINE
  8
0
 10
890.188
 20
-41.9941
 11
889.438
 21
-41.9469
  0
ENDSEC
  0
SECTION
  2
OBJECTS
  0
DICTIONARY
  0
ENDSEC
  0
EOF
