  0
SECTION
  2
BLOCKS
  0
ENDSEC
  0
SECTION
  2
ENTITIES
  0
LINE
  8
0
 10
1958
 20
45
 11
1838
 21
45
  0
LINE
  8
0
 10
1838
 20
45
 11
1838
 21
22.5
  0
LINE
  8
0
 10
1838
 20
22.5
 11
1856
 21
22.5
  0
LINE
  8
0
 10
1856
 20
22.5
 11
1856
 21
12.5
  0
LINE
  8
0
 10
1856
 20
12.5
 11
1870
 21
12.5
  0
LINE
  8
0
 10
1870
 20
12.5
 11
1870
 21
-12.5
  0
LINE
  8
0
 10
1870
 20
-12.5
 11
1856
 21
-12.5
  0
LINE
  8
0
 10
1856
 20
-12.5
 11
1856
 21
-22.5
  0
LINE
  8
0
 10
1856
 20
-22.5
 11
1838
 21
-22.5
  0
LINE
  8
0
 10
1838
 20
-22.5
 11
1838
 21
-45
  0
LINE
  8
0
 10
1838
 20
-45
 11
1958
 21
-45
  0
LINE
  8
0
 10
1958
 20
-45
 11
1958
 21
45
  0
LINE
  8
0
 10
1843.44
 20
36.0531
 11
1842.72
 21
36.2855
  0
LINE
  8
0
 10
1842.72
 20
36.2855
 11
1842.09
 21
36.6885
  0
LINE
  8
0
 10
1842.09
 20
36.6885
 11
1841.57
 21
37.2366
  0
LINE
  8
0
 10
1841.57
 20
37.2366
 11
1841.21
 21
37.8956
  0
LINE
  8
0
 10
1841.21
 20
37.8956
 11
1841.02
 21
38.624
  0
LINE
  8
0
 10
1841.02
 20
38.624
 11
1841.02
 21
39.376
  0
LINE
  8
0
 10
1841.02
 20
39.376
 11
1841.21
 21
40.1044
  0
LINE
  8
0
 10
1841.21
 20
40.1044
 11
1841.57
 21
40.7634
  0
LINE
  8
0
 10
1841.57
 20
40.7634
 11
1842.09
 21
41.3115
  0
LINE
  8
0
 10
1842.09
 20
41.3115
 11
1842.72
 21
41.7145
  0
LINE
  8
0
 10
1842.72
 20
41.7145
 11
1843.44
 21
41.9469
  0
LINE
  8
0
 10
1843.44
 20
41.9469
 11
1844.19
 21
41.9941
  0
LINE
  8
0
 10
1844.19
 20
41.9941
 11
1844.93
 21
41.8532
  0
LINE
  8
0
 10
1844.93
 20
41.8532
 11
1845.61
 21
41.533
  0
LINE
  8
0
 10
1845.61
 20
41.533
 11
1846.19
 21
41.0536
  0
LINE
  8
0
 10
1846.19
 20
41.0536
 11
1846.63
 21
40.4453
  0
LINE
  8
0
 10
1846.63
 20
40.4453
 11
1846.91
 21
39.7461
  0
LINE
  8
0
 10
1846.91
 20
39.7461
 11
1847
 21
39
  0
LINE
  8
0
 10
1847
 20
39
 11
1846.91
 21
38.2539
  0
LINE
  8
0
 10
1846.91
 20
38.2539
 11
1846.63
 21
37.5547
  0
LINE
  8
0
 10
1846.63
 20
37.5547
 11
1846.19
 21
36.9464
  0
LINE
  8
0
 10
1846.19
 20
36.9464
 11
1845.61
 21
36.467
  0
LINE
  8
0
 10
1845.61
 20
36.467
 11
1844.93
 21
36.1468
  0
LINE
  8
0
 10
1844.93
 20
36.1468
 11
1844.19
 21
36.0059
  0
LINE
  8
0
 10
1844.19
 20
36.0059
 11
1843.44
 21
36.0531
  0
LINE
  8
0
 10
1951.44
 20
36.0531
 11
1950.72
 21
36.2855
  0
LINE
  8
0
 10
1950.72
 20
36.2855
 11
1950.09
 21
36.6885
  0
LINE
  8
0
 10
1950.09
 20
36.6885
 11
1949.57
 21
37.2366
  0
LINE
  8
0
 10
1949.57
 20
37.2366
 11
1949.21
 21
37.8956
  0
LINE
  8
0
 10
1949.21
 20
37.8956
 11
1949.02
 21
38.624
  0
LINE
  8
0
 10
1949.02
 20
38.624
 11
1949.02
 21
39.376
  0
LINE
  8
0
 10
1949.02
 20
39.376
 11
1949.21
 21
40.1044
  0
LINE
  8
0
 10
1949.21
 20
40.1044
 11
1949.57
 21
40.7634
  0
LINE
  8
0
 10
1949.57
 20
40.7634
 11
1950.09
 21
41.3115
  0
LINE
  8
0
 10
1950.09
 20
41.3115
 11
1950.72
 21
41.7145
  0
LINE
  8
0
 10
1950.72
 20
41.7145
 11
1951.44
 21
41.9469
  0
LINE
  8
0
 10
1951.44
 20
41.9469
 11
1952.19
 21
41.9941
  0
LINE
  8
0
 10
1952.19
 20
41.9941
 11
1952.93
 21
41.8532
  0
LINE
  8
0
 10
1952.93
 20
41.8532
 11
1953.61
 21
41.533
  0
LINE
  8
0
 10
1953.61
 20
41.533
 11
1954.19
 21
41.0536
  0
LINE
  8
0
 10
1954.19
 20
41.0536
 11
1954.63
 21
40.4453
  0
LINE
  8
0
 10
1954.63
 20
40.4453
 11
1954.91
 21
39.7461
  0
LINE
  8
0
 10
1954.91
 20
39.7461
 11
1955
 21
39
  0
LINE
  8
0
 10
1955
 20
39
 11
1954.91
 21
38.2539
  0
LINE
  8
0
 10
1954.91
 20
38.2539
 11
1954.63
 21
37.5547
  0
LINE
  8
0
 10
1954.63
 20
37.5547
 11
1954.19
 21
36.9464
  0
LINE
  8
0
 10
1954.19
 20
36.9464
 11
1953.61
 21
36.467
  0
LINE
  8
0
 10
1953.61
 20
36.467
 11
1952.93
 21
36.1468
  0
LINE
  8
0
 10
1952.93
 20
36.1468
 11
1952.19
 21
36.0059
  0
LINE
  8
0
 10
1952.19
 20
36.0059
 11
1951.44
 21
36.0531
  0
LINE
  8
0
 10
1863.72
 20
25.5266
 11
1863.36
 21
25.6427
  0
LINE
  8
0
 10
1863.36
 20
25.6427
 11
1863.04
 21
25.8442
  0
LINE
  8
0
 10
1863.04
 20
25.8442
 11
1862.79
 21
26.1183
  0
LINE
  8
0
 10
1862.79
 20
26.1183
 11
1862.61
 21
26.4478
  0
LINE
  8
0
 10
1862.61
 20
26.4478
 11
1862.51
 21
26.812
  0
LINE
  8
0
 10
1862.51
 20
26.812
 11
1862.51
 21
27.188
  0
LINE
  8
0
 10
1862.51
 20
27.188
 11
1862.61
 21
27.5522
  0
LINE
  8
0
 10
1862.61
 20
27.5522
 11
1862.79
 21
27.8817
  0
LINE
  8
0
 10
1862.79
 20
27.8817
 11
1863.04
 21
28.1558
  0
LINE
  8
0
 10
1863.04
 20
28.1558
 11
1863.36
 21
28.3572
  0
LINE
  8
0
 10
1863.36
 20
28.3572
 11
1863.72
 21
28.4734
  0
LINE
  8
0
 10
1863.72
 20
28.4734
 11
1864.09
 21
28.497
  0
LINE
  8
0
 10
1864.09
 20
28.497
 11
1864.46
 21
28.4266
  0
LINE
  8
0
 10
1864.46
 20
28.4266
 11
1864.8
 21
28.2665
  0
LINE
  8
0
 10
1864.8
 20
28.2665
 11
1865.09
 21
28.0268
  0
LINE
  8
0
 10
1865.09
 20
28.0268
 11
1865.31
 21
27.7226
  0
LINE
  8
0
 10
1865.31
 20
27.7226
 11
1865.45
 21
27.373
  0
LINE
  8
0
 10
1865.45
 20
27.373
 11
1865.5
 21
27
  0
LINE
  8
0
 10
1865.5
 20
27
 11
1865.45
 21
26.627
  0
LINE
  8
0
 10
1865.45
 20
26.627
 11
1865.31
 21
26.2774
  0
LINE
  8
0
 10
1865.31
 20
26.2774
 11
1865.09
 21
25.9732
  0
LINE
  8
0
 10
1865.09
 20
25.9732
 11
1864.8
 21
25.7335
  0
LINE
  8
0
 10
1864.8
 20
25.7335
 11
1864.46
 21
25.5734
  0
LINE
  8
0
 10
1864.46
 20
25.5734
 11
1864.09
 21
25.503
  0
LINE
  8
0
 10
1864.09
 20
25.503
 11
1863.72
 21
25.5266
  0
LINE
  8
0
 10
1913.72
 20
25.5266
 11
1913.36
 21
25.6427
  0
LINE
  8
0
 10
1913.36
 20
25.6427
 11
1913.04
 21
25.8442
  0
LINE
  8
0
 10
1913.04
 20
25.8442
 11
1912.79
 21
26.1183
  0
LINE
  8
0
 10
1912.79
 20
26.1183
 11
1912.61
 21
26.4478
  0
LINE
  8
0
 10
1912.61
 20
26.4478
 11
1912.51
 21
26.812
  0
LINE
  8
0
 10
1912.51
 20
26.812
 11
1912.51
 21
27.188
  0
LINE
  8
0
 10
1912.51
 20
27.188
 11
1912.61
 21
27.5522
  0
LINE
  8
0
 10
1912.61
 20
27.5522
 11
1912.79
 21
27.8817
  0
LINE
  8
0
 10
1912.79
 20
27.8817
 11
1913.04
 21
28.1558
  0
LINE
  8
0
 10
1913.04
 20
28.1558
 11
1913.36
 21
28.3572
  0
LINE
  8
0
 10
1913.36
 20
28.3572
 11
1913.72
 21
28.4734
  0
LINE
  8
0
 10
1913.72
 20
28.4734
 11
1914.09
 21
28.497
  0
LINE
  8
0
 10
1914.09
 20
28.497
 11
1914.46
 21
28.4266
  0
LINE
  8
0
 10
1914.46
 20
28.4266
 11
1914.8
 21
28.2665
  0
LINE
  8
0
 10
1914.8
 20
28.2665
 11
1915.09
 21
28.0268
  0
LINE
  8
0
 10
1915.09
 20
28.0268
 11
1915.31
 21
27.7226
  0
LINE
  8
0
 10
1915.31
 20
27.7226
 11
1915.45
 21
27.373
  0
LINE
  8
0
 10
1915.45
 20
27.373
 11
1915.5
 21
27
  0
LINE
  8
0
 10
1915.5
 20
27
 11
1915.45
 21
26.627
  0
LINE
  8
0
 10
1915.45
 20
26.627
 11
1915.31
 21
26.2774
  0
LINE
  8
0
 10
1915.31
 20
26.2774
 11
1915.09
 21
25.9732
  0
LINE
  8
0
 10
1915.09
 20
25.9732
 11
1914.8
 21
25.7335
  0
LINE
  8
0
 10
1914.8
 20
25.7335
 11
1914.46
 21
25.5734
  0
LINE
  8
0
 10
1914.46
 20
25.5734
 11
1914.09
 21
25.503
  0
LINE
  8
0
 10
1914.09
 20
25.503
 11
1913.72
 21
25.5266
  0
LINE
  8
0
 10
1898.72
 20
-1.47342
 11
1898.36
 21
-1.35724
  0
LINE
  8
0
 10
1898.36
 20
-1.35724
 11
1898.04
 21
-1.15576
  0
LINE
  8
0
 10
1898.04
 20
-1.15576
 11
1897.79
 21
-0.881668
  0
LINE
  8
0
 10
1897.79
 20
-0.881668
 11
1897.61
 21
-0.552185
  0
LINE
  8
0
 10
1897.61
 20
-0.552185
 11
1897.51
 21
-0.187988
  0
LINE
  8
0
 10
1897.51
 20
-0.187988
 11
1897.51
 21
0.187988
  0
LINE
  8
0
 10
1897.51
 20
0.187988
 11
1897.61
 21
0.552185
  0
LINE
  8
0
 10
1897.61
 20
0.552185
 11
1897.79
 21
0.881668
  0
LINE
  8
0
 10
1897.79
 20
0.881668
 11
1898.04
 21
1.15576
  0
LINE
  8
0
 10
1898.04
 20
1.15576
 11
1898.36
 21
1.35724
  0
LINE
  8
0
 10
1898.36
 20
1.35724
 11
1898.72
 21
1.47342
  0
LINE
  8
0
 10
1898.72
 20
1.47342
 11
1899.09
 21
1.49704
  0
LINE
  8
0
 10
1899.09
 20
1.49704
 11
1899.46
 21
1.42657
  0
LINE
  8
0
 10
1899.46
 20
1.42657
 11
1899.8
 21
1.26648
  0
LINE
  8
0
 10
1899.8
 20
1.26648
 11
1900.09
 21
1.02681
  0
LINE
  8
0
 10
1900.09
 20
1.02681
 11
1900.31
 21
0.722626
  0
LINE
  8
0
 10
1900.31
 20
0.722626
 11
1900.45
 21
0.373032
  0
LINE
  8
0
 10
1900.45
 20
0.373032
 11
1900.5
 21
0
  0
LINE
  8
0
 10
1900.5
 20
0
 11
1900.45
 21
-0.373032
  0
LINE
  8
0
 10
1900.45
 20
-0.373032
 11
1900.31
 21
-0.722626
  0
LINE
  8
0
 10
1900.31
 20
-0.722626
 11
1900.09
 21
-1.02681
  0
LINE
  8
0
 10
1900.09
 20
-1.02681
 11
1899.8
 21
-1.26648
  0
LINE
  8
0
 10
1899.8
 20
-1.26648
 11
1899.46
 21
-1.42657
  0
LINE
  8
0
 10
1899.46
 20
-1.42657
 11
1899.09
 21
-1.49704
  0
LINE
  8
0
 10
1899.09
 20
-1.49704
 11
1898.72
 21
-1.47342
  0
LINE
  8
0
 10
1922.72
 20
-1.47342
 11
1922.36
 21
-1.35724
  0
LINE
  8
0
 10
1922.36
 20
-1.35724
 11
1922.04
 21
-1.15576
  0
LINE
  8
0
 10
1922.04
 20
-1.15576
 11
1921.79
 21
-0.881668
  0
LINE
  8
0
 10
1921.79
 20
-0.881668
 11
1921.61
 21
-0.552185
  0
LINE
  8
0
 10
1921.61
 20
-0.552185
 11
1921.51
 21
-0.187988
  0
LINE
  8
0
 10
1921.51
 20
-0.187988
 11
1921.51
 21
0.187988
  0
LINE
  8
0
 10
1921.51
 20
0.187988
 11
1921.61
 21
0.552185
  0
LINE
  8
0
 10
1921.61
 20
0.552185
 11
1921.79
 21
0.881668
  0
LINE
  8
0
 10
1921.79
 20
0.881668
 11
1922.04
 21
1.15576
  0
LINE
  8
0
 10
1922.04
 20
1.15576
 11
1922.36
 21
1.35724
  0
LINE
  8
0
 10
1922.36
 20
1.35724
 11
1922.72
 21
1.47342
  0
LINE
  8
0
 10
1922.72
 20
1.47342
 11
1923.09
 21
1.49704
  0
LINE
  8
0
 10
1923.09
 20
1.49704
 11
1923.46
 21
1.42657
  0
LINE
  8
0
 10
1923.46
 20
1.42657
 11
1923.8
 21
1.26648
  0
LINE
  8
0
 10
1923.8
 20
1.26648
 11
1924.09
 21
1.02681
  0
LINE
  8
0
 10
1924.09
 20
1.02681
 11
1924.31
 21
0.722626
  0
LINE
  8
0
 10
1924.31
 20
0.722626
 11
1924.45
 21
0.373032
  0
LINE
  8
0
 10
1924.45
 20
0.373032
 11
1924.5
 21
0
  0
LINE
  8
0
 10
1924.5
 20
0
 11
1924.45
 21
-0.373032
  0
LINE
  8
0
 10
1924.45
 20
-0.373032
 11
1924.31
 21
-0.722626
  0
LINE
  8
0
 10
1924.31
 20
-0.722626
 11
1924.09
 21
-1.02681
  0
LINE
  8
0
 10
1924.09
 20
-1.02681
 11
1923.8
 21
-1.26648
  0
LINE
  8
0
 10
1923.8
 20
-1.26648
 11
1923.46
 21
-1.42657
  0
LINE
  8
0
 10
1923.46
 20
-1.42657
 11
1923.09
 21
-1.49704
  0
LINE
  8
0
 10
1923.09
 20
-1.49704
 11
1922.72
 21
-1.47342
  0
LINE
  8
0
 10
1928.72
 20
-1.47342
 11
1928.36
 21
-1.35724
  0
LINE
  8
0
 10
1928.36
 20
-1.35724
 11
1928.04
 21
-1.15576
  0
LINE
  8
0
 10
1928.04
 20
-1.15576
 11
1927.79
 21
-0.881668
  0
LINE
  8
0
 10
1927.79
 20
-0.881668
 11
1927.61
 21
-0.552185
  0
LINE
  8
0
 10
1927.61
 20
-0.552185
 11
1927.51
 21
-0.187988
  0
LINE
  8
0
 10
1927.51
 20
-0.187988
 11
1927.51
 21
0.187988
  0
LINE
  8
0
 10
1927.51
 20
0.187988
 11
1927.61
 21
0.552185
  0
LINE
  8
0
 10
1927.61
 20
0.552185
 11
1927.79
 21
0.881668
  0
LINE
  8
0
 10
1927.79
 20
0.881668
 11
1928.04
 21
1.15576
  0
LINE
  8
0
 10
1928.04
 20
1.15576
 11
1928.36
 21
1.35724
  0
LINE
  8
0
 10
1928.36
 20
1.35724
 11
1928.72
 21
1.47342
  0
LINE
  8
0
 10
1928.72
 20
1.47342
 11
1929.09
 21
1.49704
  0
LINE
  8
0
 10
1929.09
 20
1.49704
 11
1929.46
 21
1.42657
  0
LINE
  8
0
 10
1929.46
 20
1.42657
 11
1929.8
 21
1.26648
  0
LINE
  8
0
 10
1929.8
 20
1.26648
 11
1930.09
 21
1.02681
  0
LINE
  8
0
 10
1930.09
 20
1.02681
 11
1930.31
 21
0.722626
  0
LINE
  8
0
 10
1930.31
 20
0.722626
 11
1930.45
 21
0.373032
  0
LINE
  8
0
 10
1930.45
 20
0.373032
 11
1930.5
 21
0
  0
LINE
  8
0
 10
1930.5
 20
0
 11
1930.45
 21
-0.373032
  0
LINE
  8
0
 10
1930.45
 20
-0.373032
 11
1930.31
 21
-0.722626
  0
LINE
  8
0
 10
1930.31
 20
-0.722626
 11
1930.09
 21
-1.02681
  0
LINE
  8
0
 10
1930.09
 20
-1.02681
 11
1929.8
 21
-1.26648
  0
LINE
  8
0
 10
1929.8
 20
-1.26648
 11
1929.46
 21
-1.42657
  0
LINE
  8
0
 10
1929.46
 20
-1.42657
 11
1929.09
 21
-1.49704
  0
LINE
  8
0
 10
1929.09
 20
-1.49704
 11
1928.72
 21
-1.47342
  0
LINE
  8
0
 10
1863.72
 20
-28.4734
 11
1863.36
 21
-28.3572
  0
LINE
  8
0
 10
1863.36
 20
-28.3572
 11
1863.04
 21
-28.1558
  0
LINE
  8
0
 10
1863.04
 20
-28.1558
 11
1862.79
 21
-27.8817
  0
LINE
  8
0
 10
1862.79
 20
-27.8817
 11
1862.61
 21
-27.5522
  0
LINE
  8
0
 10
1862.61
 20
-27.5522
 11
1862.51
 21
-27.188
  0
LINE
  8
0
 10
1862.51
 20
-27.188
 11
1862.51
 21
-26.812
  0
LINE
  8
0
 10
1862.51
 20
-26.812
 11
1862.61
 21
-26.4478
  0
LINE
  8
0
 10
1862.61
 20
-26.4478
 11
1862.79
 21
-26.1183
  0
LINE
  8
0
 10
1862.79
 20
-26.1183
 11
1863.04
 21
-25.8442
  0
LINE
  8
0
 10
1863.04
 20
-25.8442
 11
1863.36
 21
-25.6427
  0
LINE
  8
0
 10
1863.36
 20
-25.6427
 11
1863.72
 21
-25.5266
  0
LINE
  8
0
 10
1863.72
 20
-25.5266
 11
1864.09
 21
-25.503
  0
LINE
  8
0
 10
1864.09
 20
-25.503
 11
1864.46
 21
-25.5734
  0
LINE
  8
0
 10
1864.46
 20
-25.5734
 11
1864.8
 21
-25.7335
  0
LINE
  8
0
 10
1864.8
 20
-25.7335
 11
1865.09
 21
-25.9732
  0
LINE
  8
0
 10
1865.09
 20
-25.9732
 11
1865.31
 21
-26.2774
  0
LINE
  8
0
 10
1865.31
 20
-26.2774
 11
1865.45
 21
-26.627
  0
LINE
  8
0
 10
1865.45
 20
-26.627
 11
1865.5
 21
-27
  0
LINE
  8
0
 10
1865.5
 20
-27
 11
1865.45
 21
-27.373
  0
LINE
  8
0
 10
1865.45
 20
-27.373
 11
1865.31
 21
-27.7226
  0
LINE
  8
0
 10
1865.31
 20
-27.7226
 11
1865.09
 21
-28.0268
  0
LINE
  8
0
 10
1865.09
 20
-28.0268
 11
1864.8
 21
-28.2665
  0
LINE
  8
0
 10
1864.8
 20
-28.2665
 11
1864.46
 21
-28.4266
  0
LINE
  8
0
 10
1864.46
 20
-28.4266
 11
1864.09
 21
-28.497
  0
LINE
  8
0
 10
1864.09
 20
-28.497
 11
1863.72
 21
-28.4734
  0
LINE
  8
0
 10
1913.72
 20
-28.4734
 11
1913.36
 21
-28.3572
  0
LINE
  8
0
 10
1913.36
 20
-28.3572
 11
1913.04
 21
-28.1558
  0
LINE
  8
0
 10
1913.04
 20
-28.1558
 11
1912.79
 21
-27.8817
  0
LINE
  8
0
 10
1912.79
 20
-27.8817
 11
1912.61
 21
-27.5522
  0
LINE
  8
0
 10
1912.61
 20
-27.5522
 11
1912.51
 21
-27.188
  0
LINE
  8
0
 10
1912.51
 20
-27.188
 11
1912.51
 21
-26.812
  0
LINE
  8
0
 10
1912.51
 20
-26.812
 11
1912.61
 21
-26.4478
  0
LINE
  8
0
 10
1912.61
 20
-26.4478
 11
1912.79
 21
-26.1183
  0
LINE
  8
0
 10
1912.79
 20
-26.1183
 11
1913.04
 21
-25.8442
  0
LINE
  8
0
 10
1913.04
 20
-25.8442
 11
1913.36
 21
-25.6427
  0
LINE
  8
0
 10
1913.36
 20
-25.6427
 11
1913.72
 21
-25.5266
  0
LINE
  8
0
 10
1913.72
 20
-25.5266
 11
1914.09
 21
-25.503
  0
LINE
  8
0
 10
1914.09
 20
-25.503
 11
1914.46
 21
-25.5734
  0
LINE
  8
0
 10
1914.46
 20
-25.5734
 11
1914.8
 21
-25.7335
  0
LINE
  8
0
 10
1914.8
 20
-25.7335
 11
1915.09
 21
-25.9732
  0
LINE
  8
0
 10
1915.09
 20
-25.9732
 11
1915.31
 21
-26.2774
  0
LINE
  8
0
 10
1915.31
 20
-26.2774
 11
1915.45
 21
-26.627
  0
LINE
  8
0
 10
1915.45
 20
-26.627
 11
1915.5
 21
-27
  0
LINE
  8
0
 10
1915.5
 20
-27
 11
1915.45
 21
-27.373
  0
LINE
  8
0
 10
1915.45
 20
-27.373
 11
1915.31
 21
-27.7226
  0
LINE
  8
0
 10
1915.31
 20
-27.7226
 11
1915.09
 21
-28.0268
  0
LINE
  8
0
 10
1915.09
 20
-28.0268
 11
1914.8
 21
-28.2665
  0
LINE
  8
0
 10
1914.8
 20
-28.2665
 11
1914.46
 21
-28.4266
  0
LINE
  8
0
 10
1914.46
 20
-28.4266
 11
1914.09
 21
-28.497
  0
LINE
  8
0
 10
1914.09
 20
-28.497
 11
1913.72
 21
-28.4734
  0
LINE
  8
0
 10
1843.44
 20
-41.9469
 11
1842.72
 21
-41.7145
  0
LINE
  8
0
 10
1842.72
 20
-41.7145
 11
1842.09
 21
-41.3115
  0
LINE
  8
0
 10
1842.09
 20
-41.3115
 11
1841.57
 21
-40.7634
  0
LINE
  8
0
 10
1841.57
 20
-40.7634
 11
1841.21
 21
-40.1044
  0
LINE
  8
0
 10
1841.21
 20
-40.1044
 11
1841.02
 21
-39.376
  0
LINE
  8
0
 10
1841.02
 20
-39.376
 11
1841.02
 21
-38.624
  0
LINE
  8
0
 10
1841.02
 20
-38.624
 11
1841.21
 21
-37.8956
  0
LINE
  8
0
 10
1841.21
 20
-37.8956
 11
1841.57
 21
-37.2366
  0
LINE
  8
0
 10
1841.57
 20
-37.2366
 11
1842.09
 21
-36.6885
  0
LINE
  8
0
 10
1842.09
 20
-36.6885
 11
1842.72
 21
-36.2855
  0
LINE
  8
0
 10
1842.72
 20
-36.2855
 11
1843.44
 21
-36.0531
  0
LINE
  8
0
 10
1843.44
 20
-36.0531
 11
1844.19
 21
-36.0059
  0
LINE
  8
0
 10
1844.19
 20
-36.0059
 11
1844.93
 21
-36.1468
  0
LINE
  8
0
 10
1844.93
 20
-36.1468
 11
1845.61
 21
-36.467
  0
LINE
  8
0
 10
1845.61
 20
-36.467
 11
1846.19
 21
-36.9464
  0
LINE
  8
0
 10
1846.19
 20
-36.9464
 11
1846.63
 21
-37.5547
  0
LINE
  8
0
 10
1846.63
 20
-37.5547
 11
1846.91
 21
-38.2539
  0
LINE
  8
0
 10
1846.91
 20
-38.2539
 11
1847
 21
-39
  0
LINE
  8
0
 10
1847
 20
-39
 11
1846.91
 21
-39.7461
  0
LINE
  8
0
 10
1846.91
 20
-39.7461
 11
1846.63
 21
-40.4453
  0
LINE
  8
0
 10
1846.63
 20
-40.4453
 11
1846.19
 21
-41.0536
  0
LINE
  8
0
 10
1846.19
 20
-41.0536
 11
1845.61
 21
-41.533
  0
LINE
  8
0
 10
1845.61
 20
-41.533
 11
1844.93
 21
-41.8532
  0
LINE
  8
0
 10
1844.93
 20
-41.8532
 11
1844.19
 21
-41.9941
  0
LINE
  8
0
 10
1844.19
 20
-41.9941
 11
1843.44
 21
-41.9469
  0
LINE
  8
0
 10
1951.44
 20
-41.9469
 11
1950.72
 21
-41.7145
  0
LINE
  8
0
 10
1950.72
 20
-41.7145
 11
1950.09
 21
-41.3115
  0
LINE
  8
0
 10
1950.09
 20
-41.3115
 11
1949.57
 21
-40.7634
  0
LINE
  8
0
 10
1949.57
 20
-40.7634
 11
1949.21
 21
-40.1044
  0
LINE
  8
0
 10
1949.21
 20
-40.1044
 11
1949.02
 21
-39.376
  0
LINE
  8
0
 10
1949.02
 20
-39.376
 11
1949.02
 21
-38.624
  0
LINE
  8
0
 10
1949.02
 20
-38.624
 11
1949.21
 21
-37.8956
  0
LINE
  8
0
 10
1949.21
 20
-37.8956
 11
1949.57
 21
-37.2366
  0
LINE
  8
0
 10
1949.57
 20
-37.2366
 11
1950.09
 21
-36.6885
  0
LINE
  8
0
 10
1950.09
 20
-36.6885
 11
1950.72
 21
-36.2855
  0
LINE
  8
0
 10
1950.72
 20
-36.2855
 11
1951.44
 21
-36.0531
  0
LINE
  8
0
 10
1951.44
 20
-36.0531
 11
1952.19
 21
-36.0059
  0
LINE
  8
0
 10
1952.19
 20
-36.0059
 11
1952.93
 21
-36.1468
  0
LINE
  8
0
 10
1952.93
 20
-36.1468
 11
1953.61
 21
-36.467
  0
LINE
  8
0
 10
1953.61
 20
-36.467
 11
1954.19
 21
-36.9464
  0
LINE
  8
0
 10
1954.19
 20
-36.9464
 11
1954.63
 21
-37.5547
  0
LINE
  8
0
 10
1954.63
 20
-37.5547
 11
1954.91
 21
-38.2539
  0
LINE
  8
0
 10
1954.91
 20
-38.2539
 11
1955
 21
-39
  0
LINE
  8
0
 10
1955
 20
-39
 11
1954.91
 21
-39.7461
  0
LINE
  8
0
 10
1954.91
 20
-39.7461
 11
1954.63
 21
-40.4453
  0
LINE
  8
0
 10
1954.63
 20
-40.4453
 11
1954.19
 21
-41.0536
  0
LINE
  8
0
 10
1954.19
 20
-41.0536
 11
1953.61
 21
-41.533
  0
LINE
  8
0
 10
1953.61
 20
-41.533
 11
1952.93
 21
-41.8532
  0
LINE
  8
0
 10
1952.93
 20
-41.8532
 11
1952.19
 21
-41.9941
  0
LINE
  8
0
 10
1952.19
 20
-41.9941
 11
1951.44
 21
-41.9469
  0
LINE
  8
0
 10
2116
 20
29.5
 11
2204
 21
29.5
  0
LINE
  8
0
 10
2204
 20
29.5
 11
2204
 21
45
  0
LINE
  8
0
 10
2204
 20
45
 11
2084
 21
45
  0
LINE
  8
0
 10
2084
 20
45
 11
2084
 21
22.5
  0
LINE
  8
0
 10
2084
 20
22.5
 11
2102
 21
22.5
  0
LINE
  8
0
 10
2102
 20
22.5
 11
2102
 21
12.5
  0
LINE
  8
0
 10
2102
 20
12.5
 11
2116
 21
12.5
  0
LINE
  8
0
 10
2116
 20
12.5
 11
2116
 21
29.5
  0
LINE
  8
0
 10
2197.44
 20
36.0531
 11
2196.72
 21
36.2855
  0
LINE
  8
0
 10
2196.72
 20
36.2855
 11
2196.09
 21
36.6885
  0
LINE
  8
0
 10
2196.09
 20
36.6885
 11
2195.57
 21
37.2366
  0
LINE
  8
0
 10
2195.57
 20
37.2366
 11
2195.21
 21
37.8956
  0
LINE
  8
0
 10
2195.21
 20
37.8956
 11
2195.02
 21
38.624
  0
LINE
  8
0
 10
2195.02
 20
38.624
 11
2195.02
 21
39.376
  0
LINE
  8
0
 10
2195.02
 20
39.376
 11
2195.21
 21
40.1044
  0
LINE
  8
0
 10
2195.21
 20
40.1044
 11
2195.57
 21
40.7634
  0
LINE
  8
0
 10
2195.57
 20
40.7634
 11
2196.09
 21
41.3115
  0
LINE
  8
0
 10
2196.09
 20
41.3115
 11
2196.72
 21
41.7145
  0
LINE
  8
0
 10
2196.72
 20
41.7145
 11
2197.44
 21
41.9469
  0
LINE
  8
0
 10
2197.44
 20
41.9469
 11
2198.19
 21
41.9941
  0
LINE
  8
0
 10
2198.19
 20
41.9941
 11
2198.93
 21
41.8532
  0
LINE
  8
0
 10
2198.93
 20
41.8532
 11
2199.61
 21
41.533
  0
LINE
  8
0
 10
2199.61
 20
41.533
 11
2200.19
 21
41.0536
  0
LINE
  8
0
 10
2200.19
 20
41.0536
 11
2200.63
 21
40.4453
  0
LINE
  8
0
 10
2200.63
 20
40.4453
 11
2200.91
 21
39.7461
  0
LINE
  8
0
 10
2200.91
 20
39.7461
 11
2201
 21
39
  0
LINE
  8
0
 10
2201
 20
39
 11
2200.91
 21
38.2539
  0
LINE
  8
0
 10
2200.91
 20
38.2539
 11
2200.63
 21
37.5547
  0
LINE
  8
0
 10
2200.63
 20
37.5547
 11
2200.19
 21
36.9464
  0
LINE
  8
0
 10
2200.19
 20
36.9464
 11
2199.61
 21
36.467
  0
LINE
  8
0
 10
2199.61
 20
36.467
 11
2198.93
 21
36.1468
  0
LINE
  8
0
 10
2198.93
 20
36.1468
 11
2198.19
 21
36.0059
  0
LINE
  8
0
 10
2198.19
 20
36.0059
 11
2197.44
 21
36.0531
  0
LINE
  8
0
 10
2089.44
 20
36.0531
 11
2088.72
 21
36.2855
  0
LINE
  8
0
 10
2088.72
 20
36.2855
 11
2088.09
 21
36.6885
  0
LINE
  8
0
 10
2088.09
 20
36.6885
 11
2087.57
 21
37.2366
  0
LINE
  8
0
 10
2087.57
 20
37.2366
 11
2087.21
 21
37.8956
  0
LINE
  8
0
 10
2087.21
 20
37.8956
 11
2087.02
 21
38.624
  0
LINE
  8
0
 10
2087.02
 20
38.624
 11
2087.02
 21
39.376
  0
LINE
  8
0
 10
2087.02
 20
39.376
 11
2087.21
 21
40.1044
  0
LINE
  8
0
 10
2087.21
 20
40.1044
 11
2087.57
 21
40.7634
  0
LINE
  8
0
 10
2087.57
 20
40.7634
 11
2088.09
 21
41.3115
  0
LINE
  8
0
 10
2088.09
 20
41.3115
 11
2088.72
 21
41.7145
  0
LINE
  8
0
 10
2088.72
 20
41.7145
 11
2089.44
 21
41.9469
  0
LINE
  8
0
 10
2089.44
 20
41.9469
 11
2090.19
 21
41.9941
  0
LINE
  8
0
 10
2090.19
 20
41.9941
 11
2090.93
 21
41.8532
  0
LINE
  8
0
 10
2090.93
 20
41.8532
 11
2091.61
 21
41.533
  0
LINE
  8
0
 10
2091.61
 20
41.533
 11
2092.19
 21
41.0536
  0
LINE
  8
0
 10
2092.19
 20
41.0536
 11
2092.63
 21
40.4453
  0
LINE
  8
0
 10
2092.63
 20
40.4453
 11
2092.91
 21
39.7461
  0
LINE
  8
0
 10
2092.91
 20
39.7461
 11
2093
 21
39
  0
LINE
  8
0
 10
2093
 20
39
 11
2092.91
 21
38.2539
  0
LINE
  8
0
 10
2092.91
 20
38.2539
 11
2092.63
 21
37.5547
  0
LINE
  8
0
 10
2092.63
 20
37.5547
 11
2092.19
 21
36.9464
  0
LINE
  8
0
 10
2092.19
 20
36.9464
 11
2091.61
 21
36.467
  0
LINE
  8
0
 10
2091.61
 20
36.467
 11
2090.93
 21
36.1468
  0
LINE
  8
0
 10
2090.93
 20
36.1468
 11
2090.19
 21
36.0059
  0
LINE
  8
0
 10
2090.19
 20
36.0059
 11
2089.44
 21
36.0531
  0
LINE
  8
0
 10
2109.72
 20
25.5266
 11
2109.36
 21
25.6427
  0
LINE
  8
0
 10
2109.36
 20
25.6427
 11
2109.04
 21
25.8442
  0
LINE
  8
0
 10
2109.04
 20
25.8442
 11
2108.79
 21
26.1183
  0
LINE
  8
0
 10
2108.79
 20
26.1183
 11
2108.61
 21
26.4478
  0
LINE
  8
0
 10
2108.61
 20
26.4478
 11
2108.51
 21
26.812
  0
LINE
  8
0
 10
2108.51
 20
26.812
 11
2108.51
 21
27.188
  0
LINE
  8
0
 10
2108.51
 20
27.188
 11
2108.61
 21
27.5522
  0
LINE
  8
0
 10
2108.61
 20
27.5522
 11
2108.79
 21
27.8817
  0
LINE
  8
0
 10
2108.79
 20
27.8817
 11
2109.04
 21
28.1558
  0
LINE
  8
0
 10
2109.04
 20
28.1558
 11
2109.36
 21
28.3572
  0
LINE
  8
0
 10
2109.36
 20
28.3572
 11
2109.72
 21
28.4734
  0
LINE
  8
0
 10
2109.72
 20
28.4734
 11
2110.09
 21
28.497
  0
LINE
  8
0
 10
2110.09
 20
28.497
 11
2110.46
 21
28.4266
  0
LINE
  8
0
 10
2110.46
 20
28.4266
 11
2110.8
 21
28.2665
  0
LINE
  8
0
 10
2110.8
 20
28.2665
 11
2111.09
 21
28.0268
  0
LINE
  8
0
 10
2111.09
 20
28.0268
 11
2111.31
 21
27.7226
  0
LINE
  8
0
 10
2111.31
 20
27.7226
 11
2111.45
 21
27.373
  0
LINE
  8
0
 10
2111.45
 20
27.373
 11
2111.5
 21
27
  0
LINE
  8
0
 10
2111.5
 20
27
 11
2111.45
 21
26.627
  0
LINE
  8
0
 10
2111.45
 20
26.627
 11
2111.31
 21
26.2774
  0
LINE
  8
0
 10
2111.31
 20
26.2774
 11
2111.09
 21
25.9732
  0
LINE
  8
0
 10
2111.09
 20
25.9732
 11
2110.8
 21
25.7335
  0
LINE
  8
0
 10
2110.8
 20
25.7335
 11
2110.46
 21
25.5734
  0
LINE
  8
0
 10
2110.46
 20
25.5734
 11
2110.09
 21
25.503
  0
LINE
  8
0
 10
2110.09
 20
25.503
 11
2109.72
 21
25.5266
  0
LINE
  8
0
 10
1466
 20
45
 11
1346
 21
45
  0
LINE
  8
0
 10
1346
 20
45
 11
1346
 21
21.5
  0
LINE
  8
0
 10
1346
 20
21.5
 11
1431.5
 21
21.5
  0
LINE
  8
0
 10
1431.5
 20
21.5
 11
1431.5
 21
21.3726
  0
LINE
  8
0
 10
1431.5
 20
21.3726
 11
1432.85
 21
21.4576
  0
LINE
  8
0
 10
1432.85
 20
21.4576
 11
1438.14
 21
20.4477
  0
LINE
  8
0
 10
1438.14
 20
20.4477
 11
1443.02
 21
18.153
  0
LINE
  8
0
 10
1443.02
 20
18.153
 11
1447.17
 21
14.7178
  0
LINE
  8
0
 10
1447.17
 20
14.7178
 11
1450.34
 21
10.3577
  0
LINE
  8
0
 10
1450.34
 20
10.3577
 11
1452.32
 21
5.34683
  0
LINE
  8
0
 10
1452.32
 20
5.34683
 11
1453
 21
0
  0
LINE
  8
0
 10
1453
 20
0
 11
1452.32
 21
-5.34683
  0
LINE
  8
0
 10
1452.32
 20
-5.34683
 11
1450.34
 21
-10.3577
  0
LINE
  8
0
 10
1450.34
 20
-10.3577
 11
1447.17
 21
-14.7178
  0
LINE
  8
0
 10
1447.17
 20
-14.7178
 11
1443.02
 21
-18.153
  0
LINE
  8
0
 10
1443.02
 20
-18.153
 11
1438.14
 21
-20.4477
  0
LINE
  8
0
 10
1438.14
 20
-20.4477
 11
1432.85
 21
-21.4576
  0
LINE
  8
0
 10
1432.85
 20
-21.4576
 11
1431.5
 21
-21.3726
  0
LINE
  8
0
 10
1431.5
 20
-21.3726
 11
1431.5
 21
-21.5
  0
LINE
  8
0
 10
1431.5
 20
-21.5
 11
1346
 21
-21.5
  0
LINE
  8
0
 10
1346
 20
-21.5
 11
1346
 21
-45
  0
LINE
  8
0
 10
1346
 20
-45
 11
1466
 21
-45
  0
LINE
  8
0
 10
1466
 20
-45
 11
1466
 21
45
  0
LINE
  8
0
 10
1351.44
 20
36.0531
 11
1350.72
 21
36.2855
  0
LINE
  8
0
 10
1350.72
 20
36.2855
 11
1350.09
 21
36.6885
  0
LINE
  8
0
 10
1350.09
 20
36.6885
 11
1349.57
 21
37.2366
  0
LINE
  8
0
 10
1349.57
 20
37.2366
 11
1349.21
 21
37.8956
  0
LINE
  8
0
 10
1349.21
 20
37.8956
 11
1349.02
 21
38.624
  0
LINE
  8
0
 10
1349.02
 20
38.624
 11
1349.02
 21
39.376
  0
LINE
  8
0
 10
1349.02
 20
39.376
 11
1349.21
 21
40.1044
  0
LINE
  8
0
 10
1349.21
 20
40.1044
 11
1349.57
 21
40.7634
  0
LINE
  8
0
 10
1349.57
 20
40.7634
 11
1350.09
 21
41.3115
  0
LINE
  8
0
 10
1350.09
 20
41.3115
 11
1350.72
 21
41.7145
  0
LINE
  8
0
 10
1350.72
 20
41.7145
 11
1351.44
 21
41.9469
  0
LINE
  8
0
 10
1351.44
 20
41.9469
 11
1352.19
 21
41.9941
  0
LINE
  8
0
 10
1352.19
 20
41.9941
 11
1352.93
 21
41.8532
  0
LINE
  8
0
 10
1352.93
 20
41.8532
 11
1353.61
 21
41.533
  0
LINE
  8
0
 10
1353.61
 20
41.533
 11
1354.19
 21
41.0536
  0
LINE
  8
0
 10
1354.19
 20
41.0536
 11
1354.63
 21
40.4453
  0
LINE
  8
0
 10
1354.63
 20
40.4453
 11
1354.91
 21
39.7461
  0
LINE
  8
0
 10
1354.91
 20
39.7461
 11
1355
 21
39
  0
LINE
  8
0
 10
1355
 20
39
 11
1354.91
 21
38.2539
  0
LINE
  8
0
 10
1354.91
 20
38.2539
 11
1354.63
 21
37.5547
  0
LINE
  8
0
 10
1354.63
 20
37.5547
 11
1354.19
 21
36.9464
  0
LINE
  8
0
 10
1354.19
 20
36.9464
 11
1353.61
 21
36.467
  0
LINE
  8
0
 10
1353.61
 20
36.467
 11
1352.93
 21
36.1468
  0
LINE
  8
0
 10
1352.93
 20
36.1468
 11
1352.19
 21
36.0059
  0
LINE
  8
0
 10
1352.19
 20
36.0059
 11
1351.44
 21
36.0531
  0
LINE
  8
0
 10
1459.44
 20
36.0531
 11
1458.72
 21
36.2855
  0
LINE
  8
0
 10
1458.72
 20
36.2855
 11
1458.09
 21
36.6885
  0
LINE
  8
0
 10
1458.09
 20
36.6885
 11
1457.57
 21
37.2366
  0
LINE
  8
0
 10
1457.57
 20
37.2366
 11
1457.21
 21
37.8956
  0
LINE
  8
0
 10
1457.21
 20
37.8956
 11
1457.02
 21
38.624
  0
LINE
  8
0
 10
1457.02
 20
38.624
 11
1457.02
 21
39.376
  0
LINE
  8
0
 10
1457.02
 20
39.376
 11
1457.21
 21
40.1044
  0
LINE
  8
0
 10
1457.21
 20
40.1044
 11
1457.57
 21
40.7634
  0
LINE
  8
0
 10
1457.57
 20
40.7634
 11
1458.09
 21
41.3115
  0
LINE
  8
0
 10
1458.09
 20
41.3115
 11
1458.72
 21
41.7145
  0
LINE
  8
0
 10
1458.72
 20
41.7145
 11
1459.44
 21
41.9469
  0
LINE
  8
0
 10
1459.44
 20
41.9469
 11
1460.19
 21
41.9941
  0
LINE
  8
0
 10
1460.19
 20
41.9941
 11
1460.93
 21
41.8532
  0
LINE
  8
0
 10
1460.93
 20
41.8532
 11
1461.61
 21
41.533
  0
LINE
  8
0
 10
1461.61
 20
41.533
 11
1462.19
 21
41.0536
  0
LINE
  8
0
 10
1462.19
 20
41.0536
 11
1462.63
 21
40.4453
  0
LINE
  8
0
 10
1462.63
 20
40.4453
 11
1462.91
 21
39.7461
  0
LINE
  8
0
 10
1462.91
 20
39.7461
 11
1463
 21
39
  0
LINE
  8
0
 10
1463
 20
39
 11
1462.91
 21
38.2539
  0
LINE
  8
0
 10
1462.91
 20
38.2539
 11
1462.63
 21
37.5547
  0
LINE
  8
0
 10
1462.63
 20
37.5547
 11
1462.19
 21
36.9464
  0
LINE
  8
0
 10
1462.19
 20
36.9464
 11
1461.61
 21
36.467
  0
LINE
  8
0
 10
1461.61
 20
36.467
 11
1460.93
 21
36.1468
  0
LINE
  8
0
 10
1460.93
 20
36.1468
 11
1460.19
 21
36.0059
  0
LINE
  8
0
 10
1460.19
 20
36.0059
 11
1459.44
 21
36.0531
  0
LINE
  8
0
 10
1371.72
 20
25.5266
 11
1371.36
 21
25.6427
  0
LINE
  8
0
 10
1371.36
 20
25.6427
 11
1371.04
 21
25.8442
  0
LINE
  8
0
 10
1371.04
 20
25.8442
 11
1370.79
 21
26.1183
  0
LINE
  8
0
 10
1370.79
 20
26.1183
 11
1370.61
 21
26.4478
  0
LINE
  8
0
 10
1370.61
 20
26.4478
 11
1370.51
 21
26.812
  0
LINE
  8
0
 10
1370.51
 20
26.812
 11
1370.51
 21
27.188
  0
LINE
  8
0
 10
1370.51
 20
27.188
 11
1370.61
 21
27.5522
  0
LINE
  8
0
 10
1370.61
 20
27.5522
 11
1370.79
 21
27.8817
  0
LINE
  8
0
 10
1370.79
 20
27.8817
 11
1371.04
 21
28.1558
  0
LINE
  8
0
 10
1371.04
 20
28.1558
 11
1371.36
 21
28.3572
  0
LINE
  8
0
 10
1371.36
 20
28.3572
 11
1371.72
 21
28.4734
  0
LINE
  8
0
 10
1371.72
 20
28.4734
 11
1372.09
 21
28.497
  0
LINE
  8
0
 10
1372.09
 20
28.497
 11
1372.46
 21
28.4266
  0
LINE
  8
0
 10
1372.46
 20
28.4266
 11
1372.8
 21
28.2665
  0
LINE
  8
0
 10
1372.8
 20
28.2665
 11
1373.09
 21
28.0268
  0
LINE
  8
0
 10
1373.09
 20
28.0268
 11
1373.31
 21
27.7226
  0
LINE
  8
0
 10
1373.31
 20
27.7226
 11
1373.45
 21
27.373
  0
LINE
  8
0
 10
1373.45
 20
27.373
 11
1373.5
 21
27
  0
LINE
  8
0
 10
1373.5
 20
27
 11
1373.45
 21
26.627
  0
LINE
  8
0
 10
1373.45
 20
26.627
 11
1373.31
 21
26.2774
  0
LINE
  8
0
 10
1373.31
 20
26.2774
 11
1373.09
 21
25.9732
  0
LINE
  8
0
 10
1373.09
 20
25.9732
 11
1372.8
 21
25.7335
  0
LINE
  8
0
 10
1372.8
 20
25.7335
 11
1372.46
 21
25.5734
  0
LINE
  8
0
 10
1372.46
 20
25.5734
 11
1372.09
 21
25.503
  0
LINE
  8
0
 10
1372.09
 20
25.503
 11
1371.72
 21
25.5266
  0
LINE
  8
0
 10
1421.72
 20
25.5266
 11
1421.36
 21
25.6427
  0
LINE
  8
0
 10
1421.36
 20
25.6427
 11
1421.04
 21
25.8442
  0
LINE
  8
0
 10
1421.04
 20
25.8442
 11
1420.79
 21
26.1183
  0
LINE
  8
0
 10
1420.79
 20
26.1183
 11
1420.61
 21
26.4478
  0
LINE
  8
0
 10
1420.61
 20
26.4478
 11
1420.51
 21
26.812
  0
LINE
  8
0
 10
1420.51
 20
26.812
 11
1420.51
 21
27.188
  0
LINE
  8
0
 10
1420.51
 20
27.188
 11
1420.61
 21
27.5522
  0
LINE
  8
0
 10
1420.61
 20
27.5522
 11
1420.79
 21
27.8817
  0
LINE
  8
0
 10
1420.79
 20
27.8817
 11
1421.04
 21
28.1558
  0
LINE
  8
0
 10
1421.04
 20
28.1558
 11
1421.36
 21
28.3572
  0
LINE
  8
0
 10
1421.36
 20
28.3572
 11
1421.72
 21
28.4734
  0
LINE
  8
0
 10
1421.72
 20
28.4734
 11
1422.09
 21
28.497
  0
LINE
  8
0
 10
1422.09
 20
28.497
 11
1422.46
 21
28.4266
  0
LINE
  8
0
 10
1422.46
 20
28.4266
 11
1422.8
 21
28.2665
  0
LINE
  8
0
 10
1422.8
 20
28.2665
 11
1423.09
 21
28.0268
  0
LINE
  8
0
 10
1423.09
 20
28.0268
 11
1423.31
 21
27.7226
  0
LINE
  8
0
 10
1423.31
 20
27.7226
 11
1423.45
 21
27.373
  0
LINE
  8
0
 10
1423.45
 20
27.373
 11
1423.5
 21
27
  0
LINE
  8
0
 10
1423.5
 20
27
 11
1423.45
 21
26.627
  0
LINE
  8
0
 10
1423.45
 20
26.627
 11
1423.31
 21
26.2774
  0
LINE
  8
0
 10
1423.31
 20
26.2774
 11
1423.09
 21
25.9732
  0
LINE
  8
0
 10
1423.09
 20
25.9732
 11
1422.8
 21
25.7335
  0
LINE
  8
0
 10
1422.8
 20
25.7335
 11
1422.46
 21
25.5734
  0
LINE
  8
0
 10
1422.46
 20
25.5734
 11
1422.09
 21
25.503
  0
LINE
  8
0
 10
1422.09
 20
25.503
 11
1421.72
 21
25.5266
  0
LINE
  8
0
 10
1371.72
 20
-28.4734
 11
1371.36
 21
-28.3572
  0
LINE
  8
0
 10
1371.36
 20
-28.3572
 11
1371.04
 21
-28.1558
  0
LINE
  8
0
 10
1371.04
 20
-28.1558
 11
1370.79
 21
-27.8817
  0
LINE
  8
0
 10
1370.79
 20
-27.8817
 11
1370.61
 21
-27.5522
  0
LINE
  8
0
 10
1370.61
 20
-27.5522
 11
1370.51
 21
-27.188
  0
LINE
  8
0
 10
1370.51
 20
-27.188
 11
1370.51
 21
-26.812
  0
LINE
  8
0
 10
1370.51
 20
-26.812
 11
1370.61
 21
-26.4478
  0
LINE
  8
0
 10
1370.61
 20
-26.4478
 11
1370.79
 21
-26.1183
  0
LINE
  8
0
 10
1370.79
 20
-26.1183
 11
1371.04
 21
-25.8442
  0
LINE
  8
0
 10
1371.04
 20
-25.8442
 11
1371.36
 21
-25.6427
  0
LINE
  8
0
 10
1371.36
 20
-25.6427
 11
1371.72
 21
-25.5266
  0
LINE
  8
0
 10
1371.72
 20
-25.5266
 11
1372.09
 21
-25.503
  0
LINE
  8
0
 10
1372.09
 20
-25.503
 11
1372.46
 21
-25.5734
  0
LINE
  8
0
 10
1372.46
 20
-25.5734
 11
1372.8
 21
-25.7335
  0
LINE
  8
0
 10
1372.8
 20
-25.7335
 11
1373.09
 21
-25.9732
  0
LINE
  8
0
 10
1373.09
 20
-25.9732
 11
1373.31
 21
-26.2774
  0
LINE
  8
0
 10
1373.31
 20
-26.2774
 11
1373.45
 21
-26.627
  0
LINE
  8
0
 10
1373.45
 20
-26.627
 11
1373.5
 21
-27
  0
LINE
  8
0
 10
1373.5
 20
-27
 11
1373.45
 21
-27.373
  0
LINE
  8
0
 10
1373.45
 20
-27.373
 11
1373.31
 21
-27.7226
  0
LINE
  8
0
 10
1373.31
 20
-27.7226
 11
1373.09
 21
-28.0268
  0
LINE
  8
0
 10
1373.09
 20
-28.0268
 11
1372.8
 21
-28.2665
  0
LINE
  8
0
 10
1372.8
 20
-28.2665
 11
1372.46
 21
-28.4266
  0
LINE
  8
0
 10
1372.46
 20
-28.4266
 11
1372.09
 21
-28.497
  0
LINE
  8
0
 10
1372.09
 20
-28.497
 11
1371.72
 21
-28.4734
  0
LINE
  8
0
 10
1421.72
 20
-28.4734
 11
1421.36
 21
-28.3572
  0
LINE
  8
0
 10
1421.36
 20
-28.3572
 11
1421.04
 21
-28.1558
  0
LINE
  8
0
 10
1421.04
 20
-28.1558
 11
1420.79
 21
-27.8817
  0
LINE
  8
0
 10
1420.79
 20
-27.8817
 11
1420.61
 21
-27.5522
  0
LINE
  8
0
 10
1420.61
 20
-27.5522
 11
1420.51
 21
-27.188
  0
LINE
  8
0
 10
1420.51
 20
-27.188
 11
1420.51
 21
-26.812
  0
LINE
  8
0
 10
1420.51
 20
-26.812
 11
1420.61
 21
-26.4478
  0
LINE
  8
0
 10
1420.61
 20
-26.4478
 11
1420.79
 21
-26.1183
  0
LINE
  8
0
 10
1420.79
 20
-26.1183
 11
1421.04
 21
-25.8442
  0
LINE
  8
0
 10
1421.04
 20
-25.8442
 11
1421.36
 21
-25.6427
  0
LINE
  8
0
 10
1421.36
 20
-25.6427
 11
1421.72
 21
-25.5266
  0
LINE
  8
0
 10
1421.72
 20
-25.5266
 11
1422.09
 21
-25.503
  0
LINE
  8
0
 10
1422.09
 20
-25.503
 11
1422.46
 21
-25.5734
  0
LINE
  8
0
 10
1422.46
 20
-25.5734
 11
1422.8
 21
-25.7335
  0
LINE
  8
0
 10
1422.8
 20
-25.7335
 11
1423.09
 21
-25.9732
  0
LINE
  8
0
 10
1423.09
 20
-25.9732
 11
1423.31
 21
-26.2774
  0
LINE
  8
0
 10
1423.31
 20
-26.2774
 11
1423.45
 21
-26.627
  0
LINE
  8
0
 10
1423.45
 20
-26.627
 11
1423.5
 21
-27
  0
LINE
  8
0
 10
1423.5
 20
-27
 11
1423.45
 21
-27.373
  0
LINE
  8
0
 10
1423.45
 20
-27.373
 11
1423.31
 21
-27.7226
  0
LINE
  8
0
 10
1423.31
 20
-27.7226
 11
1423.09
 21
-28.0268
  0
LINE
  8
0
 10
1423.09
 20
-28.0268
 11
1422.8
 21
-28.2665
  0
LINE
  8
0
 10
1422.8
 20
-28.2665
 11
1422.46
 21
-28.4266
  0
LINE
  8
0
 10
1422.46
 20
-28.4266
 11
1422.09
 21
-28.497
  0
LINE
  8
0
 10
1422.09
 20
-28.497
 11
1421.72
 21
-28.4734
  0
LINE
  8
0
 10
1459.44
 20
-41.9469
 11
1458.72
 21
-41.7145
  0
LINE
  8
0
 10
1458.72
 20
-41.7145
 11
1458.09
 21
-41.3115
  0
LINE
  8
0
 10
1458.09
 20
-41.3115
 11
1457.57
 21
-40.7634
  0
LINE
  8
0
 10
1457.57
 20
-40.7634
 11
1457.21
 21
-40.1044
  0
LINE
  8
0
 10
1457.21
 20
-40.1044
 11
1457.02
 21
-39.376
  0
LINE
  8
0
 10
1457.02
 20
-39.376
 11
1457.02
 21
-38.624
  0
LINE
  8
0
 10
1457.02
 20
-38.624
 11
1457.21
 21
-37.8956
  0
LINE
  8
0
 10
1457.21
 20
-37.8956
 11
1457.57
 21
-37.2366
  0
LINE
  8
0
 10
1457.57
 20
-37.2366
 11
1458.09
 21
-36.6885
  0
LINE
  8
0
 10
1458.09
 20
-36.6885
 11
1458.72
 21
-36.2855
  0
LINE
  8
0
 10
1458.72
 20
-36.2855
 11
1459.44
 21
-36.0531
  0
LINE
  8
0
 10
1459.44
 20
-36.0531
 11
1460.19
 21
-36.0059
  0
LINE
  8
0
 10
1460.19
 20
-36.0059
 11
1460.93
 21
-36.1468
  0
LINE
  8
0
 10
1460.93
 20
-36.1468
 11
1461.61
 21
-36.467
  0
LINE
  8
0
 10
1461.61
 20
-36.467
 11
1462.19
 21
-36.9464
  0
LINE
  8
0
 10
1462.19
 20
-36.9464
 11
1462.63
 21
-37.5547
  0
LINE
  8
0
 10
1462.63
 20
-37.5547
 11
1462.91
 21
-38.2539
  0
LINE
  8
0
 10
1462.91
 20
-38.2539
 11
1463
 21
-39
  0
LINE
  8
0
 10
1463
 20
-39
 11
1462.91
 21
-39.7461
  0
LINE
  8
0
 10
1462.91
 20
-39.7461
 11
1462.63
 21
-40.4453
  0
LINE
  8
0
 10
1462.63
 20
-40.4453
 11
1462.19
 21
-41.0536
  0
LINE
  8
0
 10
1462.19
 20
-41.0536
 11
1461.61
 21
-41.533
  0
LINE
  8
0
 10
1461.61
 20
-41.533
 11
1460.93
 21
-41.8532
  0
LINE
  8
0
 10
1460.93
 20
-41.8532
 11
1460.19
 21
-41.9941
  0
LINE
  8
0
 10
1460.19
 20
-41.9941
 11
1459.44
 21
-41.9469
  0
LINE
  8
0
 10
1351.44
 20
-41.9469
 11
1350.72
 21
-41.7145
  0
LINE
  8
0
 10
1350.72
 20
-41.7145
 11
1350.09
 21
-41.3115
  0
LINE
  8
0
 10
1350.09
 20
-41.3115
 11
1349.57
 21
-40.7634
  0
LINE
  8
0
 10
1349.57
 20
-40.7634
 11
1349.21
 21
-40.1044
  0
LINE
  8
0
 10
1349.21
 20
-40.1044
 11
1349.02
 21
-39.376
  0
LINE
  8
0
 10
1349.02
 20
-39.376
 11
1349.02
 21
-38.624
  0
LINE
  8
0
 10
1349.02
 20
-38.624
 11
1349.21
 21
-37.8956
  0
LINE
  8
0
 10
1349.21
 20
-37.8956
 11
1349.57
 21
-37.2366
  0
LINE
  8
0
 10
1349.57
 20
-37.2366
 11
1350.09
 21
-36.6885
  0
LINE
  8
0
 10
1350.09
 20
-36.6885
 11
1350.72
 21
-36.2855
  0
LINE
  8
0
 10
1350.72
 20
-36.2855
 11
1351.44
 21
-36.0531
  0
LINE
  8
0
 10
1351.44
 20
-36.0531
 11
1352.19
 21
-36.0059
  0
LINE
  8
0
 10
1352.19
 20
-36.0059
 11
1352.93
 21
-36.1468
  0
LINE
  8
0
 10
1352.93
 20
-36.1468
 11
1353.61
 21
-36.467
  0
LINE
  8
0
 10
1353.61
 20
-36.467
 11
1354.19
 21
-36.9464
  0
LINE
  8
0
 10
1354.19
 20
-36.9464
 11
1354.63
 21
-37.5547
  0
LINE
  8
0
 10
1354.63
 20
-37.5547
 11
1354.91
 21
-38.2539
  0
LINE
  8
0
 10
1354.91
 20
-38.2539
 11
1355
 21
-39
  0
LINE
  8
0
 10
1355
 20
-39
 11
1354.91
 21
-39.7461
  0
LINE
  8
0
 10
1354.91
 20
-39.7461
 11
1354.63
 21
-40.4453
  0
LINE
  8
0
 10
1354.63
 20
-40.4453
 11
1354.19
 21
-41.0536
  0
LINE
  8
0
 10
1354.19
 20
-41.0536
 11
1353.61
 21
-41.533
  0
LINE
  8
0
 10
1353.61
 20
-41.533
 11
1352.93
 21
-41.8532
  0
LINE
  8
0
 10
1352.93
 20
-41.8532
 11
1352.19
 21
-41.9941
  0
LINE
  8
0
 10
1352.19
 20
-41.9941
 11
1351.44
 21
-41.9469
  0
LINE
  8
0
 10
1835
 20
45
 11
1715
 21
45
  0
LINE
  8
0
 10
1715
 20
45
 11
1715
 21
22.5
  0
LINE
  8
0
 10
1715
 20
22.5
 11
1733
 21
22.5
  0
LINE
  8
0
 10
1733
 20
22.5
 11
1733
 21
15.005
  0
LINE
  8
0
 10
1733
 20
15.005
 11
1816.01
 21
15.005
  0
LINE
  8
0
 10
1816.01
 20
15.005
 11
1816.62
 21
14.9071
  0
LINE
  8
0
 10
1816.62
 20
14.9071
 11
1817.08
 21
14.6936
  0
LINE
  8
0
 10
1817.08
 20
14.6936
 11
1817.46
 21
14.3741
  0
LINE
  8
0
 10
1817.46
 20
14.3741
 11
1817.76
 21
13.9685
  0
LINE
  8
0
 10
1817.76
 20
13.9685
 11
1817.94
 21
13.5024
  0
LINE
  8
0
 10
1817.94
 20
13.5024
 11
1818.01
 21
13.005
  0
LINE
  8
0
 10
1818.01
 20
13.005
 11
1818.01
 21
-13.005
  0
LINE
  8
0
 10
1818.01
 20
-13.005
 11
1817.91
 21
-13.623
  0
LINE
  8
0
 10
1817.91
 20
-13.623
 11
1817.69
 21
-14.0766
  0
LINE
  8
0
 10
1817.69
 20
-14.0766
 11
1817.37
 21
-14.4629
  0
LINE
  8
0
 10
1817.37
 20
-14.4629
 11
1816.97
 21
-14.7576
  0
LINE
  8
0
 10
1816.97
 20
-14.7576
 11
1816.5
 21
-14.9422
  0
LINE
  8
0
 10
1816.5
 20
-14.9422
 11
1816.01
 21
-15.005
  0
LINE
  8
0
 10
1816.01
 20
-15.005
 11
1801.99
 21
-15.005
  0
LINE
  8
0
 10
1801.99
 20
-15.005
 11
1801.38
 21
-14.9071
  0
LINE
  8
0
 10
1801.38
 20
-14.9071
 11
1800.92
 21
-14.6936
  0
LINE
  8
0
 10
1800.92
 20
-14.6936
 11
1800.54
 21
-14.3741
  0
LINE
  8
0
 10
1800.54
 20
-14.3741
 11
1800.24
 21
-13.9685
  0
LINE
  8
0
 10
1800.24
 20
-13.9685
 11
1800.06
 21
-13.5024
  0
LINE
  8
0
 10
1800.06
 20
-13.5024
 11
1799.99
 21
-13.005
  0
LINE
  8
0
 10
1799.99
 20
-13.005
 11
1799.99
 21
-5.99501
  0
LINE
  8
0
 10
1799.99
 20
-5.99501
 11
1800.09
 21
-5.37698
  0
LINE
  8
0
 10
1800.09
 20
-5.37698
 11
1800.31
 21
-4.92336
  0
LINE
  8
0
 10
1800.31
 20
-4.92336
 11
1800.63
 21
-4.53708
  0
LINE
  8
0
 10
1800.63
 20
-4.53708
 11
1801.03
 21
-4.2424
  0
LINE
  8
0
 10
1801.03
 20
-4.2424
 11
1801.5
 21
-4.05785
  0
LINE
  8
0
 10
1801.5
 20
-4.05785
 11
1801.99
 21
-3.99501
  0
LINE
  8
0
 10
1801.99
 20
-3.99501
 11
1808.99
 21
-3.99501
  0
LINE
  8
0
 10
1808.99
 20
-3.99501
 11
1808.99
 21
3.99501
  0
LINE
  8
0
 10
1808.99
 20
3.99501
 11
1747
 21
3.99501
  0
LINE
  8
0
 10
1747
 20
3.99501
 11
1747
 21
-3.99501
  0
LINE
  8
0
 10
1747
 20
-3.99501
 11
1769.01
 21
-3.99501
  0
LINE
  8
0
 10
1769.01
 20
-3.99501
 11
1769.62
 21
-4.0929
  0
LINE
  8
0
 10
1769.62
 20
-4.0929
 11
1770.08
 21
-4.30635
  0
LINE
  8
0
 10
1770.08
 20
-4.30635
 11
1770.46
 21
-4.62592
  0
LINE
  8
0
 10
1770.46
 20
-4.62592
 11
1770.76
 21
-5.03151
  0
LINE
  8
0
 10
1770.76
 20
-5.03151
 11
1770.94
 21
-5.49763
  0
LINE
  8
0
 10
1770.94
 20
-5.49763
 11
1771.01
 21
-5.99501
  0
LINE
  8
0
 10
1771.01
 20
-5.99501
 11
1771.01
 21
-13.005
  0
LINE
  8
0
 10
1771.01
 20
-13.005
 11
1770.91
 21
-13.623
  0
LINE
  8
0
 10
1770.91
 20
-13.623
 11
1770.69
 21
-14.0766
  0
LINE
  8
0
 10
1770.69
 20
-14.0766
 11
1770.37
 21
-14.4629
  0
LINE
  8
0
 10
1770.37
 20
-14.4629
 11
1769.97
 21
-14.7576
  0
LINE
  8
0
 10
1769.97
 20
-14.7576
 11
1769.5
 21
-14.9422
  0
LINE
  8
0
 10
1769.5
 20
-14.9422
 11
1769.01
 21
-15.005
  0
LINE
  8
0
 10
1769.01
 20
-15.005
 11
1733
 21
-15.005
  0
LINE
  8
0
 10
1733
 20
-15.005
 11
1733
 21
-22.5
  0
LINE
  8
0
 10
1733
 20
-22.5
 11
1715
 21
-22.5
  0
LINE
  8
0
 10
1715
 20
-22.5
 11
1715
 21
-45
  0
LINE
  8
0
 10
1715
 20
-45
 11
1835
 21
-45
  0
LINE
  8
0
 10
1835
 20
-45
 11
1835
 21
45
  0
LINE
  8
0
 10
1720.44
 20
36.0531
 11
1719.72
 21
36.2855
  0
LINE
  8
0
 10
1719.72
 20
36.2855
 11
1719.09
 21
36.6885
  0
LINE
  8
0
 10
1719.09
 20
36.6885
 11
1718.57
 21
37.2366
  0
LINE
  8
0
 10
1718.57
 20
37.2366
 11
1718.21
 21
37.8956
  0
LINE
  8
0
 10
1718.21
 20
37.8956
 11
1718.02
 21
38.624
  0
LINE
  8
0
 10
1718.02
 20
38.624
 11
1718.02
 21
39.376
  0
LINE
  8
0
 10
1718.02
 20
39.376
 11
1718.21
 21
40.1044
  0
LINE
  8
0
 10
1718.21
 20
40.1044
 11
1718.57
 21
40.7634
  0
LINE
  8
0
 10
1718.57
 20
40.7634
 11
1719.09
 21
41.3115
  0
LINE
  8
0
 10
1719.09
 20
41.3115
 11
1719.72
 21
41.7145
  0
LINE
  8
0
 10
1719.72
 20
41.7145
 11
1720.44
 21
41.9469
  0
LINE
  8
0
 10
1720.44
 20
41.9469
 11
1721.19
 21
41.9941
  0
LINE
  8
0
 10
1721.19
 20
41.9941
 11
1721.93
 21
41.8532
  0
LINE
  8
0
 10
1721.93
 20
41.8532
 11
1722.61
 21
41.533
  0
LINE
  8
0
 10
1722.61
 20
41.533
 11
1723.19
 21
41.0536
  0
LINE
  8
0
 10
1723.19
 20
41.0536
 11
1723.63
 21
40.4453
  0
LINE
  8
0
 10
1723.63
 20
40.4453
 11
1723.91
 21
39.7461
  0
LINE
  8
0
 10
1723.91
 20
39.7461
 11
1724
 21
39
  0
LINE
  8
0
 10
1724
 20
39
 11
1723.91
 21
38.2539
  0
LINE
  8
0
 10
1723.91
 20
38.2539
 11
1723.63
 21
37.5547
  0
LINE
  8
0
 10
1723.63
 20
37.5547
 11
1723.19
 21
36.9464
  0
LINE
  8
0
 10
1723.19
 20
36.9464
 11
1722.61
 21
36.467
  0
LINE
  8
0
 10
1722.61
 20
36.467
 11
1721.93
 21
36.1468
  0
LINE
  8
0
 10
1721.93
 20
36.1468
 11
1721.19
 21
36.0059
  0
LINE
  8
0
 10
1721.19
 20
36.0059
 11
1720.44
 21
36.0531
  0
LINE
  8
0
 10
1828.44
 20
36.0531
 11
1827.72
 21
36.2855
  0
LINE
  8
0
 10
1827.72
 20
36.2855
 11
1827.09
 21
36.6885
  0
LINE
  8
0
 10
1827.09
 20
36.6885
 11
1826.57
 21
37.2366
  0
LINE
  8
0
 10
1826.57
 20
37.2366
 11
1826.21
 21
37.8956
  0
LINE
  8
0
 10
1826.21
 20
37.8956
 11
1826.02
 21
38.624
  0
LINE
  8
0
 10
1826.02
 20
38.624
 11
1826.02
 21
39.376
  0
LINE
  8
0
 10
1826.02
 20
39.376
 11
1826.21
 21
40.1044
  0
LINE
  8
0
 10
1826.21
 20
40.1044
 11
1826.57
 21
40.7634
  0
LINE
  8
0
 10
1826.57
 20
40.7634
 11
1827.09
 21
41.3115
  0
LINE
  8
0
 10
1827.09
 20
41.3115
 11
1827.72
 21
41.7145
  0
LINE
  8
0
 10
1827.72
 20
41.7145
 11
1828.44
 21
41.9469
  0
LINE
  8
0
 10
1828.44
 20
41.9469
 11
1829.19
 21
41.9941
  0
LINE
  8
0
 10
1829.19
 20
41.9941
 11
1829.93
 21
41.8532
  0
LINE
  8
0
 10
1829.93
 20
41.8532
 11
1830.61
 21
41.533
  0
LINE
  8
0
 10
1830.61
 20
41.533
 11
1831.19
 21
41.0536
  0
LINE
  8
0
 10
1831.19
 20
41.0536
 11
1831.63
 21
40.4453
  0
LINE
  8
0
 10
1831.63
 20
40.4453
 11
1831.91
 21
39.7461
  0
LINE
  8
0
 10
1831.91
 20
39.7461
 11
1832
 21
39
  0
LINE
  8
0
 10
1832
 20
39
 11
1831.91
 21
38.2539
  0
LINE
  8
0
 10
1831.91
 20
38.2539
 11
1831.63
 21
37.5547
  0
LINE
  8
0
 10
1831.63
 20
37.5547
 11
1831.19
 21
36.9464
  0
LINE
  8
0
 10
1831.19
 20
36.9464
 11
1830.61
 21
36.467
  0
LINE
  8
0
 10
1830.61
 20
36.467
 11
1829.93
 21
36.1468
  0
LINE
  8
0
 10
1829.93
 20
36.1468
 11
1829.19
 21
36.0059
  0
LINE
  8
0
 10
1829.19
 20
36.0059
 11
1828.44
 21
36.0531
  0
LINE
  8
0
 10
1739.41
 20
24.2499
 11
1737.82
 21
27
  0
LINE
  8
0
 10
1737.82
 20
27
 11
1739.41
 21
29.7501
  0
LINE
  8
0
 10
1739.41
 20
29.7501
 11
1742.59
 21
29.7501
  0
LINE
  8
0
 10
1742.59
 20
29.7501
 11
1744.18
 21
27
  0
LINE
  8
0
 10
1744.18
 20
27
 11
1742.59
 21
24.2499
  0
LINE
  8
0
 10
1742.59
 20
24.2499
 11
1739.41
 21
24.2499
  0
LINE
  8
0
 10
1789.41
 20
24.2499
 11
1787.82
 21
27
  0
LINE
  8
0
 10
1787.82
 20
27
 11
1789.41
 21
29.7501
  0
LINE
  8
0
 10
1789.41
 20
29.7501
 11
1792.59
 21
29.7501
  0
LINE
  8
0
 10
1792.59
 20
29.7501
 11
1794.18
 21
27
  0
LINE
  8
0
 10
1794.18
 20
27
 11
1792.59
 21
24.2499
  0
LINE
  8
0
 10
1792.59
 20
24.2499
 11
1789.41
 21
24.2499
  0
LINE
  8
0
 10
1798.41
 20
-2.75006
 11
1796.82
 21
0
  0
LINE
  8
0
 10
1796.82
 20
0
 11
1798.41
 21
2.75006
  0
LINE
  8
0
 10
1798.41
 20
2.75006
 11
1801.59
 21
2.75006
  0
LINE
  8
0
 10
1801.59
 20
2.75006
 11
1803.18
 21
0
  0
LINE
  8
0
 10
1803.18
 20
0
 11
1801.59
 21
-2.75006
  0
LINE
  8
0
 10
1801.59
 20
-2.75006
 11
1798.41
 21
-2.75006
  0
LINE
  8
0
 10
1775.72
 20
-1.47342
 11
1775.36
 21
-1.35724
  0
LINE
  8
0
 10
1775.36
 20
-1.35724
 11
1775.04
 21
-1.15576
  0
LINE
  8
0
 10
1775.04
 20
-1.15576
 11
1774.79
 21
-0.881668
  0
LINE
  8
0
 10
1774.79
 20
-0.881668
 11
1774.61
 21
-0.552185
  0
LINE
  8
0
 10
1774.61
 20
-0.552185
 11
1774.51
 21
-0.187988
  0
LINE
  8
0
 10
1774.51
 20
-0.187988
 11
1774.51
 21
0.187988
  0
LINE
  8
0
 10
1774.51
 20
0.187988
 11
1774.61
 21
0.552185
  0
LINE
  8
0
 10
1774.61
 20
0.552185
 11
1774.79
 21
0.881668
  0
LINE
  8
0
 10
1774.79
 20
0.881668
 11
1775.04
 21
1.15576
  0
LINE
  8
0
 10
1775.04
 20
1.15576
 11
1775.36
 21
1.35724
  0
LINE
  8
0
 10
1775.36
 20
1.35724
 11
1775.72
 21
1.47342
  0
LINE
  8
0
 10
1775.72
 20
1.47342
 11
1776.09
 21
1.49704
  0
LINE
  8
0
 10
1776.09
 20
1.49704
 11
1776.46
 21
1.42657
  0
LINE
  8
0
 10
1776.46
 20
1.42657
 11
1776.8
 21
1.26648
  0
LINE
  8
0
 10
1776.8
 20
1.26648
 11
1777.09
 21
1.02681
  0
LINE
  8
0
 10
1777.09
 20
1.02681
 11
1777.31
 21
0.722626
  0
LINE
  8
0
 10
1777.31
 20
0.722626
 11
1777.45
 21
0.373032
  0
LINE
  8
0
 10
1777.45
 20
0.373032
 11
1777.5
 21
0
  0
LINE
  8
0
 10
1777.5
 20
0
 11
1777.45
 21
-0.373032
  0
LINE
  8
0
 10
1777.45
 20
-0.373032
 11
1777.31
 21
-0.722626
  0
LINE
  8
0
 10
1777.31
 20
-0.722626
 11
1777.09
 21
-1.02681
  0
LINE
  8
0
 10
1777.09
 20
-1.02681
 11
1776.8
 21
-1.26648
  0
LINE
  8
0
 10
1776.8
 20
-1.26648
 11
1776.46
 21
-1.42657
  0
LINE
  8
0
 10
1776.46
 20
-1.42657
 11
1776.09
 21
-1.49704
  0
LINE
  8
0
 10
1776.09
 20
-1.49704
 11
1775.72
 21
-1.47342
  0
LINE
  8
0
 10
1805.72
 20
-1.47342
 11
1805.36
 21
-1.35724
  0
LINE
  8
0
 10
1805.36
 20
-1.35724
 11
1805.04
 21
-1.15576
  0
LINE
  8
0
 10
1805.04
 20
-1.15576
 11
1804.79
 21
-0.881668
  0
LINE
  8
0
 10
1804.79
 20
-0.881668
 11
1804.61
 21
-0.552185
  0
LINE
  8
0
 10
1804.61
 20
-0.552185
 11
1804.51
 21
-0.187988
  0
LINE
  8
0
 10
1804.51
 20
-0.187988
 11
1804.51
 21
0.187988
  0
LINE
  8
0
 10
1804.51
 20
0.187988
 11
1804.61
 21
0.552185
  0
LINE
  8
0
 10
1804.61
 20
0.552185
 11
1804.79
 21
0.881668
  0
LINE
  8
0
 10
1804.79
 20
0.881668
 11
1805.04
 21
1.15576
  0
LINE
  8
0
 10
1805.04
 20
1.15576
 11
1805.36
 21
1.35724
  0
LINE
  8
0
 10
1805.36
 20
1.35724
 11
1805.72
 21
1.47342
  0
LINE
  8
0
 10
1805.72
 20
1.47342
 11
1806.09
 21
1.49704
  0
LINE
  8
0
 10
1806.09
 20
1.49704
 11
1806.46
 21
1.42657
  0
LINE
  8
0
 10
1806.46
 20
1.42657
 11
1806.8
 21
1.26648
  0
LINE
  8
0
 10
1806.8
 20
1.26648
 11
1807.09
 21
1.02681
  0
LINE
  8
0
 10
1807.09
 20
1.02681
 11
1807.31
 21
0.722626
  0
LINE
  8
0
 10
1807.31
 20
0.722626
 11
1807.45
 21
0.373032
  0
LINE
  8
0
 10
1807.45
 20
0.373032
 11
1807.5
 21
0
  0
LINE
  8
0
 10
1807.5
 20
0
 11
1807.45
 21
-0.373032
  0
LINE
  8
0
 10
1807.45
 20
-0.373032
 11
1807.31
 21
-0.722626
  0
LINE
  8
0
 10
1807.31
 20
-0.722626
 11
1807.09
 21
-1.02681
  0
LINE
  8
0
 10
1807.09
 20
-1.02681
 11
1806.8
 21
-1.26648
  0
LINE
  8
0
 10
1806.8
 20
-1.26648
 11
1806.46
 21
-1.42657
  0
LINE
  8
0
 10
1806.46
 20
-1.42657
 11
1806.09
 21
-1.49704
  0
LINE
  8
0
 10
1806.09
 20
-1.49704
 11
1805.72
 21
-1.47342
  0
LINE
  8
0
 10
1789.41
 20
-29.7501
 11
1787.82
 21
-27
  0
LINE
  8
0
 10
1787.82
 20
-27
 11
1789.41
 21
-24.2499
  0
LINE
  8
0
 10
1789.41
 20
-24.2499
 11
1792.59
 21
-24.2499
  0
LINE
  8
0
 10
1792.59
 20
-24.2499
 11
1794.18
 21
-27
  0
LINE
  8
0
 10
1794.18
 20
-27
 11
1792.59
 21
-29.7501
  0
LINE
  8
0
 10
1792.59
 20
-29.7501
 11
1789.41
 21
-29.7501
  0
LINE
  8
0
 10
1739.41
 20
-29.7501
 11
1737.82
 21
-27
  0
LINE
  8
0
 10
1737.82
 20
-27
 11
1739.41
 21
-24.2499
  0
LINE
  8
0
 10
1739.41
 20
-24.2499
 11
1742.59
 21
-24.2499
  0
LINE
  8
0
 10
1742.59
 20
-24.2499
 11
1744.18
 21
-27
  0
LINE
  8
0
 10
1744.18
 20
-27
 11
1742.59
 21
-29.7501
  0
LINE
  8
0
 10
1742.59
 20
-29.7501
 11
1739.41
 21
-29.7501
  0
LINE
  8
0
 10
1828.44
 20
-41.9469
 11
1827.72
 21
-41.7145
  0
LINE
  8
0
 10
1827.72
 20
-41.7145
 11
1827.09
 21
-41.3115
  0
LINE
  8
0
 10
1827.09
 20
-41.3115
 11
1826.57
 21
-40.7634
  0
LINE
  8
0
 10
1826.57
 20
-40.7634
 11
1826.21
 21
-40.1044
  0
LINE
  8
0
 10
1826.21
 20
-40.1044
 11
1826.02
 21
-39.376
  0
LINE
  8
0
 10
1826.02
 20
-39.376
 11
1826.02
 21
-38.624
  0
LINE
  8
0
 10
1826.02
 20
-38.624
 11
1826.21
 21
-37.8956
  0
LINE
  8
0
 10
1826.21
 20
-37.8956
 11
1826.57
 21
-37.2366
  0
LINE
  8
0
 10
1826.57
 20
-37.2366
 11
1827.09
 21
-36.6885
  0
LINE
  8
0
 10
1827.09
 20
-36.6885
 11
1827.72
 21
-36.2855
  0
LINE
  8
0
 10
1827.72
 20
-36.2855
 11
1828.44
 21
-36.0531
  0
LINE
  8
0
 10
1828.44
 20
-36.0531
 11
1829.19
 21
-36.0059
  0
LINE
  8
0
 10
1829.19
 20
-36.0059
 11
1829.93
 21
-36.1468
  0
LINE
  8
0
 10
1829.93
 20
-36.1468
 11
1830.61
 21
-36.467
  0
LINE
  8
0
 10
1830.61
 20
-36.467
 11
1831.19
 21
-36.9464
  0
LINE
  8
0
 10
1831.19
 20
-36.9464
 11
1831.63
 21
-37.5547
  0
LINE
  8
0
 10
1831.63
 20
-37.5547
 11
1831.91
 21
-38.2539
  0
LINE
  8
0
 10
1831.91
 20
-38.2539
 11
1832
 21
-39
  0
LINE
  8
0
 10
1832
 20
-39
 11
1831.91
 21
-39.7461
  0
LINE
  8
0
 10
1831.91
 20
-39.7461
 11
1831.63
 21
-40.4453
  0
LINE
  8
0
 10
1831.63
 20
-40.4453
 11
1831.19
 21
-41.0536
  0
LINE
  8
0
 10
1831.19
 20
-41.0536
 11
1830.61
 21
-41.533
  0
LINE
  8
0
 10
1830.61
 20
-41.533
 11
1829.93
 21
-41.8532
  0
LINE
  8
0
 10
1829.93
 20
-41.8532
 11
1829.19
 21
-41.9941
  0
LINE
  8
0
 10
1829.19
 20
-41.9941
 11
1828.44
 21
-41.9469
  0
LINE
  8
0
 10
1720.44
 20
-41.9469
 11
1719.72
 21
-41.7145
  0
LINE
  8
0
 10
1719.72
 20
-41.7145
 11
1719.09
 21
-41.3115
  0
LINE
  8
0
 10
1719.09
 20
-41.3115
 11
1718.57
 21
-40.7634
  0
LINE
  8
0
 10
1718.57
 20
-40.7634
 11
1718.21
 21
-40.1044
  0
LINE
  8
0
 10
1718.21
 20
-40.1044
 11
1718.02
 21
-39.376
  0
LINE
  8
0
 10
1718.02
 20
-39.376
 11
1718.02
 21
-38.624
  0
LINE
  8
0
 10
1718.02
 20
-38.624
 11
1718.21
 21
-37.8956
  0
LINE
  8
0
 10
1718.21
 20
-37.8956
 11
1718.57
 21
-37.2366
  0
LINE
  8
0
 10
1718.57
 20
-37.2366
 11
1719.09
 21
-36.6885
  0
LINE
  8
0
 10
1719.09
 20
-36.6885
 11
1719.72
 21
-36.2855
  0
LINE
  8
0
 10
1719.72
 20
-36.2855
 11
1720.44
 21
-36.0531
  0
LINE
  8
0
 10
1720.44
 20
-36.0531
 11
1721.19
 21
-36.0059
  0
LINE
  8
0
 10
1721.19
 20
-36.0059
 11
1721.93
 21
-36.1468
  0
LINE
  8
0
 10
1721.93
 20
-36.1468
 11
1722.61
 21
-36.467
  0
LINE
  8
0
 10
1722.61
 20
-36.467
 11
1723.19
 21
-36.9464
  0
LINE
  8
0
 10
1723.19
 20
-36.9464
 11
1723.63
 21
-37.5547
  0
LINE
  8
0
 10
1723.63
 20
-37.5547
 11
1723.91
 21
-38.2539
  0
LINE
  8
0
 10
1723.91
 20
-38.2539
 11
1724
 21
-39
  0
LINE
  8
0
 10
1724
 20
-39
 11
1723.91
 21
-39.7461
  0
LINE
  8
0
 10
1723.91
 20
-39.7461
 11
1723.63
 21
-40.4453
  0
LINE
  8
0
 10
1723.63
 20
-40.4453
 11
1723.19
 21
-41.0536
  0
LINE
  8
0
 10
1723.19
 20
-41.0536
 11
1722.61
 21
-41.533
  0
LINE
  8
0
 10
1722.61
 20
-41.533
 11
1721.93
 21
-41.8532
  0
LINE
  8
0
 10
1721.93
 20
-41.8532
 11
1721.19
 21
-41.9941
  0
LINE
  8
0
 10
1721.19
 20
-41.9941
 11
1720.44
 21
-41.9469
  0
LINE
  8
0
 10
1343
 20
45
 11
1223
 21
45
  0
LINE
  8
0
 10
1223
 20
45
 11
1223
 21
21.5
  0
LINE
  8
0
 10
1223
 20
21.5
 11
1308.5
 21
21.5
  0
LINE
  8
0
 10
1308.5
 20
21.5
 11
1308.5
 21
21.3726
  0
LINE
  8
0
 10
1308.5
 20
21.3726
 11
1309.85
 21
21.4576
  0
LINE
  8
0
 10
1309.85
 20
21.4576
 11
1315.14
 21
20.4477
  0
LINE
  8
0
 10
1315.14
 20
20.4477
 11
1320.02
 21
18.153
  0
LINE
  8
0
 10
1320.02
 20
18.153
 11
1324.17
 21
14.7178
  0
LINE
  8
0
 10
1324.17
 20
14.7178
 11
1327.34
 21
10.3577
  0
LINE
  8
0
 10
1327.34
 20
10.3577
 11
1329.32
 21
5.34683
  0
LINE
  8
0
 10
1329.32
 20
5.34683
 11
1330
 21
0
  0
LINE
  8
0
 10
1330
 20
0
 11
1329.32
 21
-5.34683
  0
LINE
  8
0
 10
1329.32
 20
-5.34683
 11
1327.34
 21
-10.3577
  0
LINE
  8
0
 10
1327.34
 20
-10.3577
 11
1324.17
 21
-14.7178
  0
LINE
  8
0
 10
1324.17
 20
-14.7178
 11
1320.02
 21
-18.153
  0
LINE
  8
0
 10
1320.02
 20
-18.153
 11
1315.14
 21
-20.4477
  0
LINE
  8
0
 10
1315.14
 20
-20.4477
 11
1309.85
 21
-21.4576
  0
LINE
  8
0
 10
1309.85
 20
-21.4576
 11
1308.5
 21
-21.3726
  0
LINE
  8
0
 10
1308.5
 20
-21.3726
 11
1308.5
 21
-21.5
  0
LINE
  8
0
 10
1308.5
 20
-21.5
 11
1223
 21
-21.5
  0
LINE
  8
0
 10
1223
 20
-21.5
 11
1223
 21
-45
  0
LINE
  8
0
 10
1223
 20
-45
 11
1343
 21
-45
  0
LINE
  8
0
 10
1343
 20
-45
 11
1343
 21
45
  0
LINE
  8
0
 10
1336.44
 20
36.0531
 11
1335.72
 21
36.2855
  0
LINE
  8
0
 10
1335.72
 20
36.2855
 11
1335.09
 21
36.6885
  0
LINE
  8
0
 10
1335.09
 20
36.6885
 11
1334.57
 21
37.2366
  0
LINE
  8
0
 10
1334.57
 20
37.2366
 11
1334.21
 21
37.8956
  0
LINE
  8
0
 10
1334.21
 20
37.8956
 11
1334.02
 21
38.624
  0
LINE
  8
0
 10
1334.02
 20
38.624
 11
1334.02
 21
39.376
  0
LINE
  8
0
 10
1334.02
 20
39.376
 11
1334.21
 21
40.1044
  0
LINE
  8
0
 10
1334.21
 20
40.1044
 11
1334.57
 21
40.7634
  0
LINE
  8
0
 10
1334.57
 20
40.7634
 11
1335.09
 21
41.3115
  0
LINE
  8
0
 10
1335.09
 20
41.3115
 11
1335.72
 21
41.7145
  0
LINE
  8
0
 10
1335.72
 20
41.7145
 11
1336.44
 21
41.9469
  0
LINE
  8
0
 10
1336.44
 20
41.9469
 11
1337.19
 21
41.9941
  0
LINE
  8
0
 10
1337.19
 20
41.9941
 11
1337.93
 21
41.8532
  0
LINE
  8
0
 10
1337.93
 20
41.8532
 11
1338.61
 21
41.533
  0
LINE
  8
0
 10
1338.61
 20
41.533
 11
1339.19
 21
41.0536
  0
LINE
  8
0
 10
1339.19
 20
41.0536
 11
1339.63
 21
40.4453
  0
LINE
  8
0
 10
1339.63
 20
40.4453
 11
1339.91
 21
39.7461
  0
LINE
  8
0
 10
1339.91
 20
39.7461
 11
1340
 21
39
  0
LINE
  8
0
 10
1340
 20
39
 11
1339.91
 21
38.2539
  0
LINE
  8
0
 10
1339.91
 20
38.2539
 11
1339.63
 21
37.5547
  0
LINE
  8
0
 10
1339.63
 20
37.5547
 11
1339.19
 21
36.9464
  0
LINE
  8
0
 10
1339.19
 20
36.9464
 11
1338.61
 21
36.467
  0
LINE
  8
0
 10
1338.61
 20
36.467
 11
1337.93
 21
36.1468
  0
LINE
  8
0
 10
1337.93
 20
36.1468
 11
1337.19
 21
36.0059
  0
LINE
  8
0
 10
1337.19
 20
36.0059
 11
1336.44
 21
36.0531
  0
LINE
  8
0
 10
1228.44
 20
36.0531
 11
1227.72
 21
36.2855
  0
LINE
  8
0
 10
1227.72
 20
36.2855
 11
1227.09
 21
36.6885
  0
LINE
  8
0
 10
1227.09
 20
36.6885
 11
1226.57
 21
37.2366
  0
LINE
  8
0
 10
1226.57
 20
37.2366
 11
1226.21
 21
37.8956
  0
LINE
  8
0
 10
1226.21
 20
37.8956
 11
1226.02
 21
38.624
  0
LINE
  8
0
 10
1226.02
 20
38.624
 11
1226.02
 21
39.376
  0
LINE
  8
0
 10
1226.02
 20
39.376
 11
1226.21
 21
40.1044
  0
LINE
  8
0
 10
1226.21
 20
40.1044
 11
1226.57
 21
40.7634
  0
LINE
  8
0
 10
1226.57
 20
40.7634
 11
1227.09
 21
41.3115
  0
LINE
  8
0
 10
1227.09
 20
41.3115
 11
1227.72
 21
41.7145
  0
LINE
  8
0
 10
1227.72
 20
41.7145
 11
1228.44
 21
41.9469
  0
LINE
  8
0
 10
1228.44
 20
41.9469
 11
1229.19
 21
41.9941
  0
LINE
  8
0
 10
1229.19
 20
41.9941
 11
1229.93
 21
41.8532
  0
LINE
  8
0
 10
1229.93
 20
41.8532
 11
1230.61
 21
41.533
  0
LINE
  8
0
 10
1230.61
 20
41.533
 11
1231.19
 21
41.0536
  0
LINE
  8
0
 10
1231.19
 20
41.0536
 11
1231.63
 21
40.4453
  0
LINE
  8
0
 10
1231.63
 20
40.4453
 11
1231.91
 21
39.7461
  0
LINE
  8
0
 10
1231.91
 20
39.7461
 11
1232
 21
39
  0
LINE
  8
0
 10
1232
 20
39
 11
1231.91
 21
38.2539
  0
LINE
  8
0
 10
1231.91
 20
38.2539
 11
1231.63
 21
37.5547
  0
LINE
  8
0
 10
1231.63
 20
37.5547
 11
1231.19
 21
36.9464
  0
LINE
  8
0
 10
1231.19
 20
36.9464
 11
1230.61
 21
36.467
  0
LINE
  8
0
 10
1230.61
 20
36.467
 11
1229.93
 21
36.1468
  0
LINE
  8
0
 10
1229.93
 20
36.1468
 11
1229.19
 21
36.0059
  0
LINE
  8
0
 10
1229.19
 20
36.0059
 11
1228.44
 21
36.0531
  0
LINE
  8
0
 10
1248.72
 20
25.5266
 11
1248.36
 21
25.6427
  0
LINE
  8
0
 10
1248.36
 20
25.6427
 11
1248.04
 21
25.8442
  0
LINE
  8
0
 10
1248.04
 20
25.8442
 11
1247.79
 21
26.1183
  0
LINE
  8
0
 10
1247.79
 20
26.1183
 11
1247.61
 21
26.4478
  0
LINE
  8
0
 10
1247.61
 20
26.4478
 11
1247.51
 21
26.812
  0
LINE
  8
0
 10
1247.51
 20
26.812
 11
1247.51
 21
27.188
  0
LINE
  8
0
 10
1247.51
 20
27.188
 11
1247.61
 21
27.5522
  0
LINE
  8
0
 10
1247.61
 20
27.5522
 11
1247.79
 21
27.8817
  0
LINE
  8
0
 10
1247.79
 20
27.8817
 11
1248.04
 21
28.1558
  0
LINE
  8
0
 10
1248.04
 20
28.1558
 11
1248.36
 21
28.3572
  0
LINE
  8
0
 10
1248.36
 20
28.3572
 11
1248.72
 21
28.4734
  0
LINE
  8
0
 10
1248.72
 20
28.4734
 11
1249.09
 21
28.497
  0
LINE
  8
0
 10
1249.09
 20
28.497
 11
1249.46
 21
28.4266
  0
LINE
  8
0
 10
1249.46
 20
28.4266
 11
1249.8
 21
28.2665
  0
LINE
  8
0
 10
1249.8
 20
28.2665
 11
1250.09
 21
28.0268
  0
LINE
  8
0
 10
1250.09
 20
28.0268
 11
1250.31
 21
27.7226
  0
LINE
  8
0
 10
1250.31
 20
27.7226
 11
1250.45
 21
27.373
  0
LINE
  8
0
 10
1250.45
 20
27.373
 11
1250.5
 21
27
  0
LINE
  8
0
 10
1250.5
 20
27
 11
1250.45
 21
26.627
  0
LINE
  8
0
 10
1250.45
 20
26.627
 11
1250.31
 21
26.2774
  0
LINE
  8
0
 10
1250.31
 20
26.2774
 11
1250.09
 21
25.9732
  0
LINE
  8
0
 10
1250.09
 20
25.9732
 11
1249.8
 21
25.7335
  0
LINE
  8
0
 10
1249.8
 20
25.7335
 11
1249.46
 21
25.5734
  0
LINE
  8
0
 10
1249.46
 20
25.5734
 11
1249.09
 21
25.503
  0
LINE
  8
0
 10
1249.09
 20
25.503
 11
1248.72
 21
25.5266
  0
LINE
  8
0
 10
1298.72
 20
25.5266
 11
1298.36
 21
25.6427
  0
LINE
  8
0
 10
1298.36
 20
25.6427
 11
1298.04
 21
25.8442
  0
LINE
  8
0
 10
1298.04
 20
25.8442
 11
1297.79
 21
26.1183
  0
LINE
  8
0
 10
1297.79
 20
26.1183
 11
1297.61
 21
26.4478
  0
LINE
  8
0
 10
1297.61
 20
26.4478
 11
1297.51
 21
26.812
  0
LINE
  8
0
 10
1297.51
 20
26.812
 11
1297.51
 21
27.188
  0
LINE
  8
0
 10
1297.51
 20
27.188
 11
1297.61
 21
27.5522
  0
LINE
  8
0
 10
1297.61
 20
27.5522
 11
1297.79
 21
27.8817
  0
LINE
  8
0
 10
1297.79
 20
27.8817
 11
1298.04
 21
28.1558
  0
LINE
  8
0
 10
1298.04
 20
28.1558
 11
1298.36
 21
28.3572
  0
LINE
  8
0
 10
1298.36
 20
28.3572
 11
1298.72
 21
28.4734
  0
LINE
  8
0
 10
1298.72
 20
28.4734
 11
1299.09
 21
28.497
  0
LINE
  8
0
 10
1299.09
 20
28.497
 11
1299.46
 21
28.4266
  0
LINE
  8
0
 10
1299.46
 20
28.4266
 11
1299.8
 21
28.2665
  0
LINE
  8
0
 10
1299.8
 20
28.2665
 11
1300.09
 21
28.0268
  0
LINE
  8
0
 10
1300.09
 20
28.0268
 11
1300.31
 21
27.7226
  0
LINE
  8
0
 10
1300.31
 20
27.7226
 11
1300.45
 21
27.373
  0
LINE
  8
0
 10
1300.45
 20
27.373
 11
1300.5
 21
27
  0
LINE
  8
0
 10
1300.5
 20
27
 11
1300.45
 21
26.627
  0
LINE
  8
0
 10
1300.45
 20
26.627
 11
1300.31
 21
26.2774
  0
LINE
  8
0
 10
1300.31
 20
26.2774
 11
1300.09
 21
25.9732
  0
LINE
  8
0
 10
1300.09
 20
25.9732
 11
1299.8
 21
25.7335
  0
LINE
  8
0
 10
1299.8
 20
25.7335
 11
1299.46
 21
25.5734
  0
LINE
  8
0
 10
1299.46
 20
25.5734
 11
1299.09
 21
25.503
  0
LINE
  8
0
 10
1299.09
 20
25.503
 11
1298.72
 21
25.5266
  0
LINE
  8
0
 10
1298.72
 20
-28.4734
 11
1298.36
 21
-28.3572
  0
LINE
  8
0
 10
1298.36
 20
-28.3572
 11
1298.04
 21
-28.1558
  0
LINE
  8
0
 10
1298.04
 20
-28.1558
 11
1297.79
 21
-27.8817
  0
LINE
  8
0
 10
1297.79
 20
-27.8817
 11
1297.61
 21
-27.5522
  0
LINE
  8
0
 10
1297.61
 20
-27.5522
 11
1297.51
 21
-27.188
  0
LINE
  8
0
 10
1297.51
 20
-27.188
 11
1297.51
 21
-26.812
  0
LINE
  8
0
 10
1297.51
 20
-26.812
 11
1297.61
 21
-26.4478
  0
LINE
  8
0
 10
1297.61
 20
-26.4478
 11
1297.79
 21
-26.1183
  0
LINE
  8
0
 10
1297.79
 20
-26.1183
 11
1298.04
 21
-25.8442
  0
LINE
  8
0
 10
1298.04
 20
-25.8442
 11
1298.36
 21
-25.6427
  0
LINE
  8
0
 10
1298.36
 20
-25.6427
 11
1298.72
 21
-25.5266
  0
LINE
  8
0
 10
1298.72
 20
-25.5266
 11
1299.09
 21
-25.503
  0
LINE
  8
0
 10
1299.09
 20
-25.503
 11
1299.46
 21
-25.5734
  0
LINE
  8
0
 10
1299.46
 20
-25.5734
 11
1299.8
 21
-25.7335
  0
LINE
  8
0
 10
1299.8
 20
-25.7335
 11
1300.09
 21
-25.9732
  0
LINE
  8
0
 10
1300.09
 20
-25.9732
 11
1300.31
 21
-26.2774
  0
LINE
  8
0
 10
1300.31
 20
-26.2774
 11
1300.45
 21
-26.627
  0
LINE
  8
0
 10
1300.45
 20
-26.627
 11
1300.5
 21
-27
  0
LINE
  8
0
 10
1300.5
 20
-27
 11
1300.45
 21
-27.373
  0
LINE
  8
0
 10
1300.45
 20
-27.373
 11
1300.31
 21
-27.7226
  0
LINE
  8
0
 10
1300.31
 20
-27.7226
 11
1300.09
 21
-28.0268
  0
LINE
  8
0
 10
1300.09
 20
-28.0268
 11
1299.8
 21
-28.2665
  0
LINE
  8
0
 10
1299.8
 20
-28.2665
 11
1299.46
 21
-28.4266
  0
LINE
  8
0
 10
1299.46
 20
-28.4266
 11
1299.09
 21
-28.497
  0
LINE
  8
0
 10
1299.09
 20
-28.497
 11
1298.72
 21
-28.4734
  0
LINE
  8
0
 10
1248.72
 20
-28.4734
 11
1248.36
 21
-28.3572
  0
LINE
  8
0
 10
1248.36
 20
-28.3572
 11
1248.04
 21
-28.1558
  0
LINE
  8
0
 10
1248.04
 20
-28.1558
 11
1247.79
 21
-27.8817
  0
LINE
  8
0
 10
1247.79
 20
-27.8817
 11
1247.61
 21
-27.5522
  0
LINE
  8
0
 10
1247.61
 20
-27.5522
 11
1247.51
 21
-27.188
  0
LINE
  8
0
 10
1247.51
 20
-27.188
 11
1247.51
 21
-26.812
  0
LINE
  8
0
 10
1247.51
 20
-26.812
 11
1247.61
 21
-26.4478
  0
LINE
  8
0
 10
1247.61
 20
-26.4478
 11
1247.79
 21
-26.1183
  0
LINE
  8
0
 10
1247.79
 20
-26.1183
 11
1248.04
 21
-25.8442
  0
LINE
  8
0
 10
1248.04
 20
-25.8442
 11
1248.36
 21
-25.6427
  0
LINE
  8
0
 10
1248.36
 20
-25.6427
 11
1248.72
 21
-25.5266
  0
LINE
  8
0
 10
1248.72
 20
-25.5266
 11
1249.09
 21
-25.503
  0
LINE
  8
0
 10
1249.09
 20
-25.503
 11
1249.46
 21
-25.5734
  0
LINE
  8
0
 10
1249.46
 20
-25.5734
 11
1249.8
 21
-25.7335
  0
LINE
  8
0
 10
1249.8
 20
-25.7335
 11
1250.09
 21
-25.9732
  0
LINE
  8
0
 10
1250.09
 20
-25.9732
 11
1250.31
 21
-26.2774
  0
LINE
  8
0
 10
1250.31
 20
-26.2774
 11
1250.45
 21
-26.627
  0
LINE
  8
0
 10
1250.45
 20
-26.627
 11
1250.5
 21
-27
  0
LINE
  8
0
 10
1250.5
 20
-27
 11
1250.45
 21
-27.373
  0
LINE
  8
0
 10
1250.45
 20
-27.373
 11
1250.31
 21
-27.7226
  0
LINE
  8
0
 10
1250.31
 20
-27.7226
 11
1250.09
 21
-28.0268
  0
LINE
  8
0
 10
1250.09
 20
-28.0268
 11
1249.8
 21
-28.2665
  0
LINE
  8
0
 10
1249.8
 20
-28.2665
 11
1249.46
 21
-28.4266
  0
LINE
  8
0
 10
1249.46
 20
-28.4266
 11
1249.09
 21
-28.497
  0
LINE
  8
0
 10
1249.09
 20
-28.497
 11
1248.72
 21
-28.4734
  0
LINE
  8
0
 10
1336.44
 20
-41.9469
 11
1335.72
 21
-41.7145
  0
LINE
  8
0
 10
1335.72
 20
-41.7145
 11
1335.09
 21
-41.3115
  0
LINE
  8
0
 10
1335.09
 20
-41.3115
 11
1334.57
 21
-40.7634
  0
LINE
  8
0
 10
1334.57
 20
-40.7634
 11
1334.21
 21
-40.1044
  0
LINE
  8
0
 10
1334.21
 20
-40.1044
 11
1334.02
 21
-39.376
  0
LINE
  8
0
 10
1334.02
 20
-39.376
 11
1334.02
 21
-38.624
  0
LINE
  8
0
 10
1334.02
 20
-38.624
 11
1334.21
 21
-37.8956
  0
LINE
  8
0
 10
1334.21
 20
-37.8956
 11
1334.57
 21
-37.2366
  0
LINE
  8
0
 10
1334.57
 20
-37.2366
 11
1335.09
 21
-36.6885
  0
LINE
  8
0
 10
1335.09
 20
-36.6885
 11
1335.72
 21
-36.2855
  0
LINE
  8
0
 10
1335.72
 20
-36.2855
 11
1336.44
 21
-36.0531
  0
LINE
  8
0
 10
1336.44
 20
-36.0531
 11
1337.19
 21
-36.0059
  0
LINE
  8
0
 10
1337.19
 20
-36.0059
 11
1337.93
 21
-36.1468
  0
LINE
  8
0
 10
1337.93
 20
-36.1468
 11
1338.61
 21
-36.467
  0
LINE
  8
0
 10
1338.61
 20
-36.467
 11
1339.19
 21
-36.9464
  0
LINE
  8
0
 10
1339.19
 20
-36.9464
 11
1339.63
 21
-37.5547
  0
LINE
  8
0
 10
1339.63
 20
-37.5547
 11
1339.91
 21
-38.2539
  0
LINE
  8
0
 10
1339.91
 20
-38.2539
 11
1340
 21
-39
  0
LINE
  8
0
 10
1340
 20
-39
 11
1339.91
 21
-39.7461
  0
LINE
  8
0
 10
1339.91
 20
-39.7461
 11
1339.63
 21
-40.4453
  0
LINE
  8
0
 10
1339.63
 20
-40.4453
 11
1339.19
 21
-41.0536
  0
LINE
  8
0
 10
1339.19
 20
-41.0536
 11
1338.61
 21
-41.533
  0
LINE
  8
0
 10
1338.61
 20
-41.533
 11
1337.93
 21
-41.8532
  0
LINE
  8
0
 10
1337.93
 20
-41.8532
 11
1337.19
 21
-41.9941
  0
LINE
  8
0
 10
1337.19
 20
-41.9941
 11
1336.44
 21
-41.9469
  0
LINE
  8
0
 10
1228.44
 20
-41.9469
 11
1227.72
 21
-41.7145
  0
LINE
  8
0
 10
1227.72
 20
-41.7145
 11
1227.09
 21
-41.3115
  0
LINE
  8
0
 10
1227.09
 20
-41.3115
 11
1226.57
 21
-40.7634
  0
LINE
  8
0
 10
1226.57
 20
-40.7634
 11
1226.21
 21
-40.1044
  0
LINE
  8
0
 10
1226.21
 20
-40.1044
 11
1226.02
 21
-39.376
  0
LINE
  8
0
 10
1226.02
 20
-39.376
 11
1226.02
 21
-38.624
  0
LINE
  8
0
 10
1226.02
 20
-38.624
 11
1226.21
 21
-37.8956
  0
LINE
  8
0
 10
1226.21
 20
-37.8956
 11
1226.57
 21
-37.2366
  0
LINE
  8
0
 10
1226.57
 20
-37.2366
 11
1227.09
 21
-36.6885
  0
LINE
  8
0
 10
1227.09
 20
-36.6885
 11
1227.72
 21
-36.2855
  0
LINE
  8
0
 10
1227.72
 20
-36.2855
 11
1228.44
 21
-36.0531
  0
LINE
  8
0
 10
1228.44
 20
-36.0531
 11
1229.19
 21
-36.0059
  0
LINE
  8
0
 10
1229.19
 20
-36.0059
 11
1229.93
 21
-36.1468
  0
LINE
  8
0
 10
1229.93
 20
-36.1468
 11
1230.61
 21
-36.467
  0
LINE
  8
0
 10
1230.61
 20
-36.467
 11
1231.19
 21
-36.9464
  0
LINE
  8
0
 10
1231.19
 20
-36.9464
 11
1231.63
 21
-37.5547
  0
LINE
  8
0
 10
1231.63
 20
-37.5547
 11
1231.91
 21
-38.2539
  0
LINE
  8
0
 10
1231.91
 20
-38.2539
 11
1232
 21
-39
  0
LINE
  8
0
 10
1232
 20
-39
 11
1231.91
 21
-39.7461
  0
LINE
  8
0
 10
1231.91
 20
-39.7461
 11
1231.63
 21
-40.4453
  0
LINE
  8
0
 10
1231.63
 20
-40.4453
 11
1231.19
 21
-41.0536
  0
LINE
  8
0
 10
1231.19
 20
-41.0536
 11
1230.61
 21
-41.533
  0
LINE
  8
0
 10
1230.61
 20
-41.533
 11
1229.93
 21
-41.8532
  0
LINE
  8
0
 10
1229.93
 20
-41.8532
 11
1229.19
 21
-41.9941
  0
LINE
  8
0
 10
1229.19
 20
-41.9941
 11
1228.44
 21
-41.9469
  0
LINE
  8
0
 10
819
 20
45
 11
699
 21
45
  0
LINE
  8
0
 10
699
 20
45
 11
699
 21
-45
  0
LINE
  8
0
 10
699
 20
-45
 11
819
 21
-45
  0
LINE
  8
0
 10
819
 20
-45
 11
819
 21
45
  0
LINE
  8
0
 10
812.438
 20
36.0531
 11
811.723
 21
36.2855
  0
LINE
  8
0
 10
811.723
 20
36.2855
 11
811.088
 21
36.6885
  0
LINE
  8
0
 10
811.088
 20
36.6885
 11
810.573
 21
37.2366
  0
LINE
  8
0
 10
810.573
 20
37.2366
 11
810.211
 21
37.8956
  0
LINE
  8
0
 10
810.211
 20
37.8956
 11
810.024
 21
38.624
  0
LINE
  8
0
 10
810.024
 20
38.624
 11
810.024
 21
39.376
  0
LINE
  8
0
 10
810.024
 20
39.376
 11
810.211
 21
40.1044
  0
LINE
  8
0
 10
810.211
 20
40.1044
 11
810.573
 21
40.7634
  0
LINE
  8
0
 10
810.573
 20
40.7634
 11
811.088
 21
41.3115
  0
LINE
  8
0
 10
811.088
 20
41.3115
 11
811.723
 21
41.7145
  0
LINE
  8
0
 10
811.723
 20
41.7145
 11
812.438
 21
41.9469
  0
LINE
  8
0
 10
812.438
 20
41.9469
 11
813.188
 21
41.9941
  0
LINE
  8
0
 10
813.188
 20
41.9941
 11
813.927
 21
41.8532
  0
LINE
  8
0
 10
813.927
 20
41.8532
 11
814.607
 21
41.533
  0
LINE
  8
0
 10
814.607
 20
41.533
 11
815.187
 21
41.0536
  0
LINE
  8
0
 10
815.187
 20
41.0536
 11
815.629
 21
40.4453
  0
LINE
  8
0
 10
815.629
 20
40.4453
 11
815.906
 21
39.7461
  0
LINE
  8
0
 10
815.906
 20
39.7461
 11
816
 21
39
  0
LINE
  8
0
 10
816
 20
39
 11
815.906
 21
38.2539
  0
LINE
  8
0
 10
815.906
 20
38.2539
 11
815.629
 21
37.5547
  0
LINE
  8
0
 10
815.629
 20
37.5547
 11
815.187
 21
36.9464
  0
LINE
  8
0
 10
815.187
 20
36.9464
 11
814.607
 21
36.467
  0
LINE
  8
0
 10
814.607
 20
36.467
 11
813.927
 21
36.1468
  0
LINE
  8
0
 10
813.927
 20
36.1468
 11
813.188
 21
36.0059
  0
LINE
  8
0
 10
813.188
 20
36.0059
 11
812.438
 21
36.0531
  0
LINE
  8
0
 10
704.438
 20
36.0531
 11
703.723
 21
36.2855
  0
LINE
  8
0
 10
703.723
 20
36.2855
 11
703.088
 21
36.6885
  0
LINE
  8
0
 10
703.088
 20
36.6885
 11
702.573
 21
37.2366
  0
LINE
  8
0
 10
702.573
 20
37.2366
 11
702.211
 21
37.8956
  0
LINE
  8
0
 10
702.211
 20
37.8956
 11
702.024
 21
38.624
  0
LINE
  8
0
 10
702.024
 20
38.624
 11
702.024
 21
39.376
  0
LINE
  8
0
 10
702.024
 20
39.376
 11
702.211
 21
40.1044
  0
LINE
  8
0
 10
702.211
 20
40.1044
 11
702.573
 21
40.7634
  0
LINE
  8
0
 10
702.573
 20
40.7634
 11
703.088
 21
41.3115
  0
LINE
  8
0
 10
703.088
 20
41.3115
 11
703.723
 21
41.7145
  0
LINE
  8
0
 10
703.723
 20
41.7145
 11
704.438
 21
41.9469
  0
LINE
  8
0
 10
704.438
 20
41.9469
 11
705.188
 21
41.9941
  0
LINE
  8
0
 10
705.188
 20
41.9941
 11
705.927
 21
41.8532
  0
LINE
  8
0
 10
705.927
 20
41.8532
 11
706.607
 21
41.533
  0
LINE
  8
0
 10
706.607
 20
41.533
 11
707.187
 21
41.0536
  0
LINE
  8
0
 10
707.187
 20
41.0536
 11
707.629
 21
40.4453
  0
LINE
  8
0
 10
707.629
 20
40.4453
 11
707.906
 21
39.7461
  0
LINE
  8
0
 10
707.906
 20
39.7461
 11
708
 21
39
  0
LINE
  8
0
 10
708
 20
39
 11
707.906
 21
38.2539
  0
LINE
  8
0
 10
707.906
 20
38.2539
 11
707.629
 21
37.5547
  0
LINE
  8
0
 10
707.629
 20
37.5547
 11
707.187
 21
36.9464
  0
LINE
  8
0
 10
707.187
 20
36.9464
 11
706.607
 21
36.467
  0
LINE
  8
0
 10
706.607
 20
36.467
 11
705.927
 21
36.1468
  0
LINE
  8
0
 10
705.927
 20
36.1468
 11
705.188
 21
36.0059
  0
LINE
  8
0
 10
705.188
 20
36.0059
 11
704.438
 21
36.0531
  0
LINE
  8
0
 10
724.719
 20
25.5266
 11
724.361
 21
25.6427
  0
LINE
  8
0
 10
724.361
 20
25.6427
 11
724.044
 21
25.8442
  0
LINE
  8
0
 10
724.044
 20
25.8442
 11
723.786
 21
26.1183
  0
LINE
  8
0
 10
723.786
 20
26.1183
 11
723.605
 21
26.4478
  0
LINE
  8
0
 10
723.605
 20
26.4478
 11
723.512
 21
26.812
  0
LINE
  8
0
 10
723.512
 20
26.812
 11
723.512
 21
27.188
  0
LINE
  8
0
 10
723.512
 20
27.188
 11
723.605
 21
27.5522
  0
LINE
  8
0
 10
723.605
 20
27.5522
 11
723.786
 21
27.8817
  0
LINE
  8
0
 10
723.786
 20
27.8817
 11
724.044
 21
28.1558
  0
LINE
  8
0
 10
724.044
 20
28.1558
 11
724.361
 21
28.3572
  0
LINE
  8
0
 10
724.361
 20
28.3572
 11
724.719
 21
28.4734
  0
LINE
  8
0
 10
724.719
 20
28.4734
 11
725.094
 21
28.497
  0
LINE
  8
0
 10
725.094
 20
28.497
 11
725.464
 21
28.4266
  0
LINE
  8
0
 10
725.464
 20
28.4266
 11
725.804
 21
28.2665
  0
LINE
  8
0
 10
725.804
 20
28.2665
 11
726.093
 21
28.0268
  0
LINE
  8
0
 10
726.093
 20
28.0268
 11
726.314
 21
27.7226
  0
LINE
  8
0
 10
726.314
 20
27.7226
 11
726.453
 21
27.373
  0
LINE
  8
0
 10
726.453
 20
27.373
 11
726.5
 21
27
  0
LINE
  8
0
 10
726.5
 20
27
 11
726.453
 21
26.627
  0
LINE
  8
0
 10
726.453
 20
26.627
 11
726.314
 21
26.2774
  0
LINE
  8
0
 10
726.314
 20
26.2774
 11
726.093
 21
25.9732
  0
LINE
  8
0
 10
726.093
 20
25.9732
 11
725.804
 21
25.7335
  0
LINE
  8
0
 10
725.804
 20
25.7335
 11
725.464
 21
25.5734
  0
LINE
  8
0
 10
725.464
 20
25.5734
 11
725.094
 21
25.503
  0
LINE
  8
0
 10
725.094
 20
25.503
 11
724.719
 21
25.5266
  0
LINE
  8
0
 10
774.719
 20
25.5266
 11
774.361
 21
25.6427
  0
LINE
  8
0
 10
774.361
 20
25.6427
 11
774.044
 21
25.8442
  0
LINE
  8
0
 10
774.044
 20
25.8442
 11
773.786
 21
26.1183
  0
LINE
  8
0
 10
773.786
 20
26.1183
 11
773.605
 21
26.4478
  0
LINE
  8
0
 10
773.605
 20
26.4478
 11
773.512
 21
26.812
  0
LINE
  8
0
 10
773.512
 20
26.812
 11
773.512
 21
27.188
  0
LINE
  8
0
 10
773.512
 20
27.188
 11
773.605
 21
27.5522
  0
LINE
  8
0
 10
773.605
 20
27.5522
 11
773.786
 21
27.8817
  0
LINE
  8
0
 10
773.786
 20
27.8817
 11
774.044
 21
28.1558
  0
LINE
  8
0
 10
774.044
 20
28.1558
 11
774.361
 21
28.3572
  0
LINE
  8
0
 10
774.361
 20
28.3572
 11
774.719
 21
28.4734
  0
LINE
  8
0
 10
774.719
 20
28.4734
 11
775.094
 21
28.497
  0
LINE
  8
0
 10
775.094
 20
28.497
 11
775.464
 21
28.4266
  0
LINE
  8
0
 10
775.464
 20
28.4266
 11
775.804
 21
28.2665
  0
LINE
  8
0
 10
775.804
 20
28.2665
 11
776.093
 21
28.0268
  0
LINE
  8
0
 10
776.093
 20
28.0268
 11
776.314
 21
27.7226
  0
LINE
  8
0
 10
776.314
 20
27.7226
 11
776.453
 21
27.373
  0
LINE
  8
0
 10
776.453
 20
27.373
 11
776.5
 21
27
  0
LINE
  8
0
 10
776.5
 20
27
 11
776.453
 21
26.627
  0
LINE
  8
0
 10
776.453
 20
26.627
 11
776.314
 21
26.2774
  0
LINE
  8
0
 10
776.314
 20
26.2774
 11
776.093
 21
25.9732
  0
LINE
  8
0
 10
776.093
 20
25.9732
 11
775.804
 21
25.7335
  0
LINE
  8
0
 10
775.804
 20
25.7335
 11
775.464
 21
25.5734
  0
LINE
  8
0
 10
775.464
 20
25.5734
 11
775.094
 21
25.503
  0
LINE
  8
0
 10
775.094
 20
25.503
 11
774.719
 21
25.5266
  0
LINE
  8
0
 10
706
 20
-12.5
 11
706
 21
12.5
  0
LINE
  8
0
 10
706
 20
12.5
 11
731
 21
12.5
  0
LINE
  8
0
 10
731
 20
12.5
 11
731
 21
-12.5
  0
LINE
  8
0
 10
731
 20
-12.5
 11
706
 21
-12.5
  0
LINE
  8
0
 10
759.719
 20
-1.47342
 11
759.361
 21
-1.35724
  0
LINE
  8
0
 10
759.361
 20
-1.35724
 11
759.044
 21
-1.15576
  0
LINE
  8
0
 10
759.044
 20
-1.15576
 11
758.786
 21
-0.881668
  0
LINE
  8
0
 10
758.786
 20
-0.881668
 11
758.605
 21
-0.552185
  0
LINE
  8
0
 10
758.605
 20
-0.552185
 11
758.512
 21
-0.187988
  0
LINE
  8
0
 10
758.512
 20
-0.187988
 11
758.512
 21
0.187988
  0
LINE
  8
0
 10
758.512
 20
0.187988
 11
758.605
 21
0.552185
  0
LINE
  8
0
 10
758.605
 20
0.552185
 11
758.786
 21
0.881668
  0
LINE
  8
0
 10
758.786
 20
0.881668
 11
759.044
 21
1.15576
  0
LINE
  8
0
 10
759.044
 20
1.15576
 11
759.361
 21
1.35724
  0
LINE
  8
0
 10
759.361
 20
1.35724
 11
759.719
 21
1.47342
  0
LINE
  8
0
 10
759.719
 20
1.47342
 11
760.094
 21
1.49704
  0
LINE
  8
0
 10
760.094
 20
1.49704
 11
760.464
 21
1.42657
  0
LINE
  8
0
 10
760.464
 20
1.42657
 11
760.804
 21
1.26648
  0
LINE
  8
0
 10
760.804
 20
1.26648
 11
761.093
 21
1.02681
  0
LINE
  8
0
 10
761.093
 20
1.02681
 11
761.314
 21
0.722626
  0
LINE
  8
0
 10
761.314
 20
0.722626
 11
761.453
 21
0.373032
  0
LINE
  8
0
 10
761.453
 20
0.373032
 11
761.5
 21
0
  0
LINE
  8
0
 10
761.5
 20
0
 11
761.453
 21
-0.373032
  0
LINE
  8
0
 10
761.453
 20
-0.373032
 11
761.314
 21
-0.722626
  0
LINE
  8
0
 10
761.314
 20
-0.722626
 11
761.093
 21
-1.02681
  0
LINE
  8
0
 10
761.093
 20
-1.02681
 11
760.804
 21
-1.26648
  0
LINE
  8
0
 10
760.804
 20
-1.26648
 11
760.464
 21
-1.42657
  0
LINE
  8
0
 10
760.464
 20
-1.42657
 11
760.094
 21
-1.49704
  0
LINE
  8
0
 10
760.094
 20
-1.49704
 11
759.719
 21
-1.47342
  0
LINE
  8
0
 10
783.719
 20
-1.47342
 11
783.361
 21
-1.35724
  0
LINE
  8
0
 10
783.361
 20
-1.35724
 11
783.044
 21
-1.15576
  0
LINE
  8
0
 10
783.044
 20
-1.15576
 11
782.786
 21
-0.881668
  0
LINE
  8
0
 10
782.786
 20
-0.881668
 11
782.605
 21
-0.552185
  0
LINE
  8
0
 10
782.605
 20
-0.552185
 11
782.512
 21
-0.187988
  0
LINE
  8
0
 10
782.512
 20
-0.187988
 11
782.512
 21
0.187988
  0
LINE
  8
0
 10
782.512
 20
0.187988
 11
782.605
 21
0.552185
  0
LINE
  8
0
 10
782.605
 20
0.552185
 11
782.786
 21
0.881668
  0
LINE
  8
0
 10
782.786
 20
0.881668
 11
783.044
 21
1.15576
  0
LINE
  8
0
 10
783.044
 20
1.15576
 11
783.361
 21
1.35724
  0
LINE
  8
0
 10
783.361
 20
1.35724
 11
783.719
 21
1.47342
  0
LINE
  8
0
 10
783.719
 20
1.47342
 11
784.094
 21
1.49704
  0
LINE
  8
0
 10
784.094
 20
1.49704
 11
784.464
 21
1.42657
  0
LINE
  8
0
 10
784.464
 20
1.42657
 11
784.804
 21
1.26648
  0
LINE
  8
0
 10
784.804
 20
1.26648
 11
785.093
 21
1.02681
  0
LINE
  8
0
 10
785.093
 20
1.02681
 11
785.314
 21
0.722626
  0
LINE
  8
0
 10
785.314
 20
0.722626
 11
785.453
 21
0.373032
  0
LINE
  8
0
 10
785.453
 20
0.373032
 11
785.5
 21
0
  0
LINE
  8
0
 10
785.5
 20
0
 11
785.453
 21
-0.373032
  0
LINE
  8
0
 10
785.453
 20
-0.373032
 11
785.314
 21
-0.722626
  0
LINE
  8
0
 10
785.314
 20
-0.722626
 11
785.093
 21
-1.02681
  0
LINE
  8
0
 10
785.093
 20
-1.02681
 11
784.804
 21
-1.26648
  0
LINE
  8
0
 10
784.804
 20
-1.26648
 11
784.464
 21
-1.42657
  0
LINE
  8
0
 10
784.464
 20
-1.42657
 11
784.094
 21
-1.49704
  0
LINE
  8
0
 10
784.094
 20
-1.49704
 11
783.719
 21
-1.47342
  0
LINE
  8
0
 10
789.719
 20
-1.47342
 11
789.361
 21
-1.35724
  0
LINE
  8
0
 10
789.361
 20
-1.35724
 11
789.044
 21
-1.15576
  0
LINE
  8
0
 10
789.044
 20
-1.15576
 11
788.786
 21
-0.881668
  0
LINE
  8
0
 10
788.786
 20
-0.881668
 11
788.605
 21
-0.552185
  0
LINE
  8
0
 10
788.605
 20
-0.552185
 11
788.512
 21
-0.187988
  0
LINE
  8
0
 10
788.512
 20
-0.187988
 11
788.512
 21
0.187988
  0
LINE
  8
0
 10
788.512
 20
0.187988
 11
788.605
 21
0.552185
  0
LINE
  8
0
 10
788.605
 20
0.552185
 11
788.786
 21
0.881668
  0
LINE
  8
0
 10
788.786
 20
0.881668
 11
789.044
 21
1.15576
  0
LINE
  8
0
 10
789.044
 20
1.15576
 11
789.361
 21
1.35724
  0
LINE
  8
0
 10
789.361
 20
1.35724
 11
789.719
 21
1.47342
  0
LINE
  8
0
 10
789.719
 20
1.47342
 11
790.094
 21
1.49704
  0
LINE
  8
0
 10
790.094
 20
1.49704
 11
790.464
 21
1.42657
  0
LINE
  8
0
 10
790.464
 20
1.42657
 11
790.804
 21
1.26648
  0
LINE
  8
0
 10
790.804
 20
1.26648
 11
791.093
 21
1.02681
  0
LINE
  8
0
 10
791.093
 20
1.02681
 11
791.314
 21
0.722626
  0
LINE
  8
0
 10
791.314
 20
0.722626
 11
791.453
 21
0.373032
  0
LINE
  8
0
 10
791.453
 20
0.373032
 11
791.5
 21
0
  0
LINE
  8
0
 10
791.5
 20
0
 11
791.453
 21
-0.373032
  0
LINE
  8
0
 10
791.453
 20
-0.373032
 11
791.314
 21
-0.722626
  0
LINE
  8
0
 10
791.314
 20
-0.722626
 11
791.093
 21
-1.02681
  0
LINE
  8
0
 10
791.093
 20
-1.02681
 11
790.804
 21
-1.26648
  0
LINE
  8
0
 10
790.804
 20
-1.26648
 11
790.464
 21
-1.42657
  0
LINE
  8
0
 10
790.464
 20
-1.42657
 11
790.094
 21
-1.49704
  0
LINE
  8
0
 10
790.094
 20
-1.49704
 11
789.719
 21
-1.47342
  0
LINE
  8
0
 10
724.719
 20
-28.4734
 11
724.361
 21
-28.3572
  0
LINE
  8
0
 10
724.361
 20
-28.3572
 11
724.044
 21
-28.1558
  0
LINE
  8
0
 10
724.044
 20
-28.1558
 11
723.786
 21
-27.8817
  0
LINE
  8
0
 10
723.786
 20
-27.8817
 11
723.605
 21
-27.5522
  0
LINE
  8
0
 10
723.605
 20
-27.5522
 11
723.512
 21
-27.188
  0
LINE
  8
0
 10
723.512
 20
-27.188
 11
723.512
 21
-26.812
  0
LINE
  8
0
 10
723.512
 20
-26.812
 11
723.605
 21
-26.4478
  0
LINE
  8
0
 10
723.605
 20
-26.4478
 11
723.786
 21
-26.1183
  0
LINE
  8
0
 10
723.786
 20
-26.1183
 11
724.044
 21
-25.8442
  0
LINE
  8
0
 10
724.044
 20
-25.8442
 11
724.361
 21
-25.6427
  0
LINE
  8
0
 10
724.361
 20
-25.6427
 11
724.719
 21
-25.5266
  0
LINE
  8
0
 10
724.719
 20
-25.5266
 11
725.094
 21
-25.503
  0
LINE
  8
0
 10
725.094
 20
-25.503
 11
725.464
 21
-25.5734
  0
LINE
  8
0
 10
725.464
 20
-25.5734
 11
725.804
 21
-25.7335
  0
LINE
  8
0
 10
725.804
 20
-25.7335
 11
726.093
 21
-25.9732
  0
LINE
  8
0
 10
726.093
 20
-25.9732
 11
726.314
 21
-26.2774
  0
LINE
  8
0
 10
726.314
 20
-26.2774
 11
726.453
 21
-26.627
  0
LINE
  8
0
 10
726.453
 20
-26.627
 11
726.5
 21
-27
  0
LINE
  8
0
 10
726.5
 20
-27
 11
726.453
 21
-27.373
  0
LINE
  8
0
 10
726.453
 20
-27.373
 11
726.314
 21
-27.7226
  0
LINE
  8
0
 10
726.314
 20
-27.7226
 11
726.093
 21
-28.0268
  0
LINE
  8
0
 10
726.093
 20
-28.0268
 11
725.804
 21
-28.2665
  0
LINE
  8
0
 10
725.804
 20
-28.2665
 11
725.464
 21
-28.4266
  0
LINE
  8
0
 10
725.464
 20
-28.4266
 11
725.094
 21
-28.497
  0
LINE
  8
0
 10
725.094
 20
-28.497
 11
724.719
 21
-28.4734
  0
LINE
  8
0
 10
774.719
 20
-28.4734
 11
774.361
 21
-28.3572
  0
LINE
  8
0
 10
774.361
 20
-28.3572
 11
774.044
 21
-28.1558
  0
LINE
  8
0
 10
774.044
 20
-28.1558
 11
773.786
 21
-27.8817
  0
LINE
  8
0
 10
773.786
 20
-27.8817
 11
773.605
 21
-27.5522
  0
LINE
  8
0
 10
773.605
 20
-27.5522
 11
773.512
 21
-27.188
  0
LINE
  8
0
 10
773.512
 20
-27.188
 11
773.512
 21
-26.812
  0
LINE
  8
0
 10
773.512
 20
-26.812
 11
773.605
 21
-26.4478
  0
LINE
  8
0
 10
773.605
 20
-26.4478
 11
773.786
 21
-26.1183
  0
LINE
  8
0
 10
773.786
 20
-26.1183
 11
774.044
 21
-25.8442
  0
LINE
  8
0
 10
774.044
 20
-25.8442
 11
774.361
 21
-25.6427
  0
LINE
  8
0
 10
774.361
 20
-25.6427
 11
774.719
 21
-25.5266
  0
LINE
  8
0
 10
774.719
 20
-25.5266
 11
775.094
 21
-25.503
  0
LINE
  8
0
 10
775.094
 20
-25.503
 11
775.464
 21
-25.5734
  0
LINE
  8
0
 10
775.464
 20
-25.5734
 11
775.804
 21
-25.7335
  0
LINE
  8
0
 10
775.804
 20
-25.7335
 11
776.093
 21
-25.9732
  0
LINE
  8
0
 10
776.093
 20
-25.9732
 11
776.314
 21
-26.2774
  0
LINE
  8
0
 10
776.314
 20
-26.2774
 11
776.453
 21
-26.627
  0
LINE
  8
0
 10
776.453
 20
-26.627
 11
776.5
 21
-27
  0
LINE
  8
0
 10
776.5
 20
-27
 11
776.453
 21
-27.373
  0
LINE
  8
0
 10
776.453
 20
-27.373
 11
776.314
 21
-27.7226
  0
LINE
  8
0
 10
776.314
 20
-27.7226
 11
776.093
 21
-28.0268
  0
LINE
  8
0
 10
776.093
 20
-28.0268
 11
775.804
 21
-28.2665
  0
LINE
  8
0
 10
775.804
 20
-28.2665
 11
775.464
 21
-28.4266
  0
LINE
  8
0
 10
775.464
 20
-28.4266
 11
775.094
 21
-28.497
  0
LINE
  8
0
 10
775.094
 20
-28.497
 11
774.719
 21
-28.4734
  0
LINE
  8
0
 10
812.438
 20
-41.9469
 11
811.723
 21
-41.7145
  0
LINE
  8
0
 10
811.723
 20
-41.7145
 11
811.088
 21
-41.3115
  0
LINE
  8
0
 10
811.088
 20
-41.3115
 11
810.573
 21
-40.7634
  0
LINE
  8
0
 10
810.573
 20
-40.7634
 11
810.211
 21
-40.1044
  0
LINE
  8
0
 10
810.211
 20
-40.1044
 11
810.024
 21
-39.376
  0
LINE
  8
0
 10
810.024
 20
-39.376
 11
810.024
 21
-38.624
  0
LINE
  8
0
 10
810.024
 20
-38.624
 11
810.211
 21
-37.8956
  0
LINE
  8
0
 10
810.211
 20
-37.8956
 11
810.573
 21
-37.2366
  0
LINE
  8
0
 10
810.573
 20
-37.2366
 11
811.088
 21
-36.6885
  0
LINE
  8
0
 10
811.088
 20
-36.6885
 11
811.723
 21
-36.2855
  0
LINE
  8
0
 10
811.723
 20
-36.2855
 11
812.438
 21
-36.0531
  0
LINE
  8
0
 10
812.438
 20
-36.0531
 11
813.188
 21
-36.0059
  0
LINE
  8
0
 10
813.188
 20
-36.0059
 11
813.927
 21
-36.1468
  0
LINE
  8
0
 10
813.927
 20
-36.1468
 11
814.607
 21
-36.467
  0
LINE
  8
0
 10
814.607
 20
-36.467
 11
815.187
 21
-36.9464
  0
LINE
  8
0
 10
815.187
 20
-36.9464
 11
815.629
 21
-37.5547
  0
LINE
  8
0
 10
815.629
 20
-37.5547
 11
815.906
 21
-38.2539
  0
LINE
  8
0
 10
815.906
 20
-38.2539
 11
816
 21
-39
  0
LINE
  8
0
 10
816
 20
-39
 11
815.906
 21
-39.7461
  0
LINE
  8
0
 10
815.906
 20
-39.7461
 11
815.629
 21
-40.4453
  0
LINE
  8
0
 10
815.629
 20
-40.4453
 11
815.187
 21
-41.0536
  0
LINE
  8
0
 10
815.187
 20
-41.0536
 11
814.607
 21
-41.533
  0
LINE
  8
0
 10
814.607
 20
-41.533
 11
813.927
 21
-41.8532
  0
LINE
  8
0
 10
813.927
 20
-41.8532
 11
813.188
 21
-41.9941
  0
LINE
  8
0
 10
813.188
 20
-41.9941
 11
812.438
 21
-41.9469
  0
LINE
  8
0
 10
704.438
 20
-41.9469
 11
703.723
 21
-41.7145
  0
LINE
  8
0
 10
703.723
 20
-41.7145
 11
703.088
 21
-41.3115
  0
LINE
  8
0
 10
703.088
 20
-41.3115
 11
702.573
 21
-40.7634
  0
LINE
  8
0
 10
702.573
 20
-40.7634
 11
702.211
 21
-40.1044
  0
LINE
  8
0
 10
702.211
 20
-40.1044
 11
702.024
 21
-39.376
  0
LINE
  8
0
 10
702.024
 20
-39.376
 11
702.024
 21
-38.624
  0
LINE
  8
0
 10
702.024
 20
-38.624
 11
702.211
 21
-37.8956
  0
LINE
  8
0
 10
702.211
 20
-37.8956
 11
702.573
 21
-37.2366
  0
LINE
  8
0
 10
702.573
 20
-37.2366
 11
703.088
 21
-36.6885
  0
LINE
  8
0
 10
703.088
 20
-36.6885
 11
703.723
 21
-36.2855
  0
LINE
  8
0
 10
703.723
 20
-36.2855
 11
704.438
 21
-36.0531
  0
LINE
  8
0
 10
704.438
 20
-36.0531
 11
705.188
 21
-36.0059
  0
LINE
  8
0
 10
705.188
 20
-36.0059
 11
705.927
 21
-36.1468
  0
LINE
  8
0
 10
705.927
 20
-36.1468
 11
706.607
 21
-36.467
  0
LINE
  8
0
 10
706.607
 20
-36.467
 11
707.187
 21
-36.9464
  0
LINE
  8
0
 10
707.187
 20
-36.9464
 11
707.629
 21
-37.5547
  0
LINE
  8
0
 10
707.629
 20
-37.5547
 11
707.906
 21
-38.2539
  0
LINE
  8
0
 10
707.906
 20
-38.2539
 11
708
 21
-39
  0
LINE
  8
0
 10
708
 20
-39
 11
707.906
 21
-39.7461
  0
LINE
  8
0
 10
707.906
 20
-39.7461
 11
707.629
 21
-40.4453
  0
LINE
  8
0
 10
707.629
 20
-40.4453
 11
707.187
 21
-41.0536
  0
LINE
  8
0
 10
707.187
 20
-41.0536
 11
706.607
 21
-41.533
  0
LINE
  8
0
 10
706.607
 20
-41.533
 11
705.927
 21
-41.8532
  0
LINE
  8
0
 10
705.927
 20
-41.8532
 11
705.188
 21
-41.9941
  0
LINE
  8
0
 10
705.188
 20
-41.9941
 11
704.438
 21
-41.9469
  0
LINE
  8
0
 10
619
 20
45
 11
499
 21
45
  0
LINE
  8
0
 10
499
 20
45
 11
499
 21
-45
  0
LINE
  8
0
 10
499
 20
-45
 11
619
 21
-45
  0
LINE
  8
0
 10
619
 20
-45
 11
619
 21
45
  0
LINE
  8
0
 10
612.438
 20
36.0531
 11
611.723
 21
36.2855
  0
LINE
  8
0
 10
611.723
 20
36.2855
 11
611.088
 21
36.6885
  0
LINE
  8
0
 10
611.088
 20
36.6885
 11
610.573
 21
37.2366
  0
LINE
  8
0
 10
610.573
 20
37.2366
 11
610.211
 21
37.8956
  0
LINE
  8
0
 10
610.211
 20
37.8956
 11
610.024
 21
38.624
  0
LINE
  8
0
 10
610.024
 20
38.624
 11
610.024
 21
39.376
  0
LINE
  8
0
 10
610.024
 20
39.376
 11
610.211
 21
40.1044
  0
LINE
  8
0
 10
610.211
 20
40.1044
 11
610.573
 21
40.7634
  0
LINE
  8
0
 10
610.573
 20
40.7634
 11
611.088
 21
41.3115
  0
LINE
  8
0
 10
611.088
 20
41.3115
 11
611.723
 21
41.7145
  0
LINE
  8
0
 10
611.723
 20
41.7145
 11
612.438
 21
41.9469
  0
LINE
  8
0
 10
612.438
 20
41.9469
 11
613.188
 21
41.9941
  0
LINE
  8
0
 10
613.188
 20
41.9941
 11
613.927
 21
41.8532
  0
LINE
  8
0
 10
613.927
 20
41.8532
 11
614.607
 21
41.533
  0
LINE
  8
0
 10
614.607
 20
41.533
 11
615.187
 21
41.0536
  0
LINE
  8
0
 10
615.187
 20
41.0536
 11
615.629
 21
40.4453
  0
LINE
  8
0
 10
615.629
 20
40.4453
 11
615.906
 21
39.7461
  0
LINE
  8
0
 10
615.906
 20
39.7461
 11
616
 21
39
  0
LINE
  8
0
 10
616
 20
39
 11
615.906
 21
38.2539
  0
LINE
  8
0
 10
615.906
 20
38.2539
 11
615.629
 21
37.5547
  0
LINE
  8
0
 10
615.629
 20
37.5547
 11
615.187
 21
36.9464
  0
LINE
  8
0
 10
615.187
 20
36.9464
 11
614.607
 21
36.467
  0
LINE
  8
0
 10
614.607
 20
36.467
 11
613.927
 21
36.1468
  0
LINE
  8
0
 10
613.927
 20
36.1468
 11
613.188
 21
36.0059
  0
LINE
  8
0
 10
613.188
 20
36.0059
 11
612.438
 21
36.0531
  0
LINE
  8
0
 10
504.438
 20
36.0531
 11
503.723
 21
36.2855
  0
LINE
  8
0
 10
503.723
 20
36.2855
 11
503.088
 21
36.6885
  0
LINE
  8
0
 10
503.088
 20
36.6885
 11
502.573
 21
37.2366
  0
LINE
  8
0
 10
502.573
 20
37.2366
 11
502.211
 21
37.8956
  0
LINE
  8
0
 10
502.211
 20
37.8956
 11
502.024
 21
38.624
  0
LINE
  8
0
 10
502.024
 20
38.624
 11
502.024
 21
39.376
  0
LINE
  8
0
 10
502.024
 20
39.376
 11
502.211
 21
40.1044
  0
LINE
  8
0
 10
502.211
 20
40.1044
 11
502.573
 21
40.7634
  0
LINE
  8
0
 10
502.573
 20
40.7634
 11
503.088
 21
41.3115
  0
LINE
  8
0
 10
503.088
 20
41.3115
 11
503.723
 21
41.7145
  0
LINE
  8
0
 10
503.723
 20
41.7145
 11
504.438
 21
41.9469
  0
LINE
  8
0
 10
504.438
 20
41.9469
 11
505.188
 21
41.9941
  0
LINE
  8
0
 10
505.188
 20
41.9941
 11
505.927
 21
41.8532
  0
LINE
  8
0
 10
505.927
 20
41.8532
 11
506.607
 21
41.533
  0
LINE
  8
0
 10
506.607
 20
41.533
 11
507.187
 21
41.0536
  0
LINE
  8
0
 10
507.187
 20
41.0536
 11
507.629
 21
40.4453
  0
LINE
  8
0
 10
507.629
 20
40.4453
 11
507.906
 21
39.7461
  0
LINE
  8
0
 10
507.906
 20
39.7461
 11
508
 21
39
  0
LINE
  8
0
 10
508
 20
39
 11
507.906
 21
38.2539
  0
LINE
  8
0
 10
507.906
 20
38.2539
 11
507.629
 21
37.5547
  0
LINE
  8
0
 10
507.629
 20
37.5547
 11
507.187
 21
36.9464
  0
LINE
  8
0
 10
507.187
 20
36.9464
 11
506.607
 21
36.467
  0
LINE
  8
0
 10
506.607
 20
36.467
 11
505.927
 21
36.1468
  0
LINE
  8
0
 10
505.927
 20
36.1468
 11
505.188
 21
36.0059
  0
LINE
  8
0
 10
505.188
 20
36.0059
 11
504.438
 21
36.0531
  0
LINE
  8
0
 10
524.719
 20
25.5266
 11
524.361
 21
25.6427
  0
LINE
  8
0
 10
524.361
 20
25.6427
 11
524.044
 21
25.8442
  0
LINE
  8
0
 10
524.044
 20
25.8442
 11
523.786
 21
26.1183
  0
LINE
  8
0
 10
523.786
 20
26.1183
 11
523.605
 21
26.4478
  0
LINE
  8
0
 10
523.605
 20
26.4478
 11
523.512
 21
26.812
  0
LINE
  8
0
 10
523.512
 20
26.812
 11
523.512
 21
27.188
  0
LINE
  8
0
 10
523.512
 20
27.188
 11
523.605
 21
27.5522
  0
LINE
  8
0
 10
523.605
 20
27.5522
 11
523.786
 21
27.8817
  0
LINE
  8
0
 10
523.786
 20
27.8817
 11
524.044
 21
28.1558
  0
LINE
  8
0
 10
524.044
 20
28.1558
 11
524.361
 21
28.3572
  0
LINE
  8
0
 10
524.361
 20
28.3572
 11
524.719
 21
28.4734
  0
LINE
  8
0
 10
524.719
 20
28.4734
 11
525.094
 21
28.497
  0
LINE
  8
0
 10
525.094
 20
28.497
 11
525.464
 21
28.4266
  0
LINE
  8
0
 10
525.464
 20
28.4266
 11
525.804
 21
28.2665
  0
LINE
  8
0
 10
525.804
 20
28.2665
 11
526.093
 21
28.0268
  0
LINE
  8
0
 10
526.093
 20
28.0268
 11
526.314
 21
27.7226
  0
LINE
  8
0
 10
526.314
 20
27.7226
 11
526.453
 21
27.373
  0
LINE
  8
0
 10
526.453
 20
27.373
 11
526.5
 21
27
  0
LINE
  8
0
 10
526.5
 20
27
 11
526.453
 21
26.627
  0
LINE
  8
0
 10
526.453
 20
26.627
 11
526.314
 21
26.2774
  0
LINE
  8
0
 10
526.314
 20
26.2774
 11
526.093
 21
25.9732
  0
LINE
  8
0
 10
526.093
 20
25.9732
 11
525.804
 21
25.7335
  0
LINE
  8
0
 10
525.804
 20
25.7335
 11
525.464
 21
25.5734
  0
LINE
  8
0
 10
525.464
 20
25.5734
 11
525.094
 21
25.503
  0
LINE
  8
0
 10
525.094
 20
25.503
 11
524.719
 21
25.5266
  0
LINE
  8
0
 10
574.719
 20
25.5266
 11
574.361
 21
25.6427
  0
LINE
  8
0
 10
574.361
 20
25.6427
 11
574.044
 21
25.8442
  0
LINE
  8
0
 10
574.044
 20
25.8442
 11
573.786
 21
26.1183
  0
LINE
  8
0
 10
573.786
 20
26.1183
 11
573.605
 21
26.4478
  0
LINE
  8
0
 10
573.605
 20
26.4478
 11
573.512
 21
26.812
  0
LINE
  8
0
 10
573.512
 20
26.812
 11
573.512
 21
27.188
  0
LINE
  8
0
 10
573.512
 20
27.188
 11
573.605
 21
27.5522
  0
LINE
  8
0
 10
573.605
 20
27.5522
 11
573.786
 21
27.8817
  0
LINE
  8
0
 10
573.786
 20
27.8817
 11
574.044
 21
28.1558
  0
LINE
  8
0
 10
574.044
 20
28.1558
 11
574.361
 21
28.3572
  0
LINE
  8
0
 10
574.361
 20
28.3572
 11
574.719
 21
28.4734
  0
LINE
  8
0
 10
574.719
 20
28.4734
 11
575.094
 21
28.497
  0
LINE
  8
0
 10
575.094
 20
28.497
 11
575.464
 21
28.4266
  0
LINE
  8
0
 10
575.464
 20
28.4266
 11
575.804
 21
28.2665
  0
LINE
  8
0
 10
575.804
 20
28.2665
 11
576.093
 21
28.0268
  0
LINE
  8
0
 10
576.093
 20
28.0268
 11
576.314
 21
27.7226
  0
LINE
  8
0
 10
576.314
 20
27.7226
 11
576.453
 21
27.373
  0
LINE
  8
0
 10
576.453
 20
27.373
 11
576.5
 21
27
  0
LINE
  8
0
 10
576.5
 20
27
 11
576.453
 21
26.627
  0
LINE
  8
0
 10
576.453
 20
26.627
 11
576.314
 21
26.2774
  0
LINE
  8
0
 10
576.314
 20
26.2774
 11
576.093
 21
25.9732
  0
LINE
  8
0
 10
576.093
 20
25.9732
 11
575.804
 21
25.7335
  0
LINE
  8
0
 10
575.804
 20
25.7335
 11
575.464
 21
25.5734
  0
LINE
  8
0
 10
575.464
 20
25.5734
 11
575.094
 21
25.503
  0
LINE
  8
0
 10
575.094
 20
25.503
 11
574.719
 21
25.5266
  0
LINE
  8
0
 10
506
 20
-12.5
 11
506
 21
12.5
  0
LINE
  8
0
 10
506
 20
12.5
 11
531
 21
12.5
  0
LINE
  8
0
 10
531
 20
12.5
 11
531
 21
-12.5
  0
LINE
  8
0
 10
531
 20
-12.5
 11
506
 21
-12.5
  0
LINE
  8
0
 10
559.719
 20
-1.47342
 11
559.361
 21
-1.35724
  0
LINE
  8
0
 10
559.361
 20
-1.35724
 11
559.044
 21
-1.15576
  0
LINE
  8
0
 10
559.044
 20
-1.15576
 11
558.786
 21
-0.881668
  0
LINE
  8
0
 10
558.786
 20
-0.881668
 11
558.605
 21
-0.552185
  0
LINE
  8
0
 10
558.605
 20
-0.552185
 11
558.512
 21
-0.187988
  0
LINE
  8
0
 10
558.512
 20
-0.187988
 11
558.512
 21
0.187988
  0
LINE
  8
0
 10
558.512
 20
0.187988
 11
558.605
 21
0.552185
  0
LINE
  8
0
 10
558.605
 20
0.552185
 11
558.786
 21
0.881668
  0
LINE
  8
0
 10
558.786
 20
0.881668
 11
559.044
 21
1.15576
  0
LINE
  8
0
 10
559.044
 20
1.15576
 11
559.361
 21
1.35724
  0
LINE
  8
0
 10
559.361
 20
1.35724
 11
559.719
 21
1.47342
  0
LINE
  8
0
 10
559.719
 20
1.47342
 11
560.094
 21
1.49704
  0
LINE
  8
0
 10
560.094
 20
1.49704
 11
560.464
 21
1.42657
  0
LINE
  8
0
 10
560.464
 20
1.42657
 11
560.804
 21
1.26648
  0
LINE
  8
0
 10
560.804
 20
1.26648
 11
561.093
 21
1.02681
  0
LINE
  8
0
 10
561.093
 20
1.02681
 11
561.314
 21
0.722626
  0
LINE
  8
0
 10
561.314
 20
0.722626
 11
561.453
 21
0.373032
  0
LINE
  8
0
 10
561.453
 20
0.373032
 11
561.5
 21
0
  0
LINE
  8
0
 10
561.5
 20
0
 11
561.453
 21
-0.373032
  0
LINE
  8
0
 10
561.453
 20
-0.373032
 11
561.314
 21
-0.722626
  0
LINE
  8
0
 10
561.314
 20
-0.722626
 11
561.093
 21
-1.02681
  0
LINE
  8
0
 10
561.093
 20
-1.02681
 11
560.804
 21
-1.26648
  0
LINE
  8
0
 10
560.804
 20
-1.26648
 11
560.464
 21
-1.42657
  0
LINE
  8
0
 10
560.464
 20
-1.42657
 11
560.094
 21
-1.49704
  0
LINE
  8
0
 10
560.094
 20
-1.49704
 11
559.719
 21
-1.47342
  0
LINE
  8
0
 10
583.719
 20
-1.47342
 11
583.361
 21
-1.35724
  0
LINE
  8
0
 10
583.361
 20
-1.35724
 11
583.044
 21
-1.15576
  0
LINE
  8
0
 10
583.044
 20
-1.15576
 11
582.786
 21
-0.881668
  0
LINE
  8
0
 10
582.786
 20
-0.881668
 11
582.605
 21
-0.552185
  0
LINE
  8
0
 10
582.605
 20
-0.552185
 11
582.512
 21
-0.187988
  0
LINE
  8
0
 10
582.512
 20
-0.187988
 11
582.512
 21
0.187988
  0
LINE
  8
0
 10
582.512
 20
0.187988
 11
582.605
 21
0.552185
  0
LINE
  8
0
 10
582.605
 20
0.552185
 11
582.786
 21
0.881668
  0
LINE
  8
0
 10
582.786
 20
0.881668
 11
583.044
 21
1.15576
  0
LINE
  8
0
 10
583.044
 20
1.15576
 11
583.361
 21
1.35724
  0
LINE
  8
0
 10
583.361
 20
1.35724
 11
583.719
 21
1.47342
  0
LINE
  8
0
 10
583.719
 20
1.47342
 11
584.094
 21
1.49704
  0
LINE
  8
0
 10
584.094
 20
1.49704
 11
584.464
 21
1.42657
  0
LINE
  8
0
 10
584.464
 20
1.42657
 11
584.804
 21
1.26648
  0
LINE
  8
0
 10
584.804
 20
1.26648
 11
585.093
 21
1.02681
  0
LINE
  8
0
 10
585.093
 20
1.02681
 11
585.314
 21
0.722626
  0
LINE
  8
0
 10
585.314
 20
0.722626
 11
585.453
 21
0.373032
  0
LINE
  8
0
 10
585.453
 20
0.373032
 11
585.5
 21
0
  0
LINE
  8
0
 10
585.5
 20
0
 11
585.453
 21
-0.373032
  0
LINE
  8
0
 10
585.453
 20
-0.373032
 11
585.314
 21
-0.722626
  0
LINE
  8
0
 10
585.314
 20
-0.722626
 11
585.093
 21
-1.02681
  0
LINE
  8
0
 10
585.093
 20
-1.02681
 11
584.804
 21
-1.26648
  0
LINE
  8
0
 10
584.804
 20
-1.26648
 11
584.464
 21
-1.42657
  0
LINE
  8
0
 10
584.464
 20
-1.42657
 11
584.094
 21
-1.49704
  0
LINE
  8
0
 10
584.094
 20
-1.49704
 11
583.719
 21
-1.47342
  0
LINE
  8
0
 10
589.719
 20
-1.47342
 11
589.361
 21
-1.35724
  0
LINE
  8
0
 10
589.361
 20
-1.35724
 11
589.044
 21
-1.15576
  0
LINE
  8
0
 10
589.044
 20
-1.15576
 11
588.786
 21
-0.881668
  0
LINE
  8
0
 10
588.786
 20
-0.881668
 11
588.605
 21
-0.552185
  0
LINE
  8
0
 10
588.605
 20
-0.552185
 11
588.512
 21
-0.187988
  0
LINE
  8
0
 10
588.512
 20
-0.187988
 11
588.512
 21
0.187988
  0
LINE
  8
0
 10
588.512
 20
0.187988
 11
588.605
 21
0.552185
  0
LINE
  8
0
 10
588.605
 20
0.552185
 11
588.786
 21
0.881668
  0
LINE
  8
0
 10
588.786
 20
0.881668
 11
589.044
 21
1.15576
  0
LINE
  8
0
 10
589.044
 20
1.15576
 11
589.361
 21
1.35724
  0
LINE
  8
0
 10
589.361
 20
1.35724
 11
589.719
 21
1.47342
  0
LINE
  8
0
 10
589.719
 20
1.47342
 11
590.094
 21
1.49704
  0
LINE
  8
0
 10
590.094
 20
1.49704
 11
590.464
 21
1.42657
  0
LINE
  8
0
 10
590.464
 20
1.42657
 11
590.804
 21
1.26648
  0
LINE
  8
0
 10
590.804
 20
1.26648
 11
591.093
 21
1.02681
  0
LINE
  8
0
 10
591.093
 20
1.02681
 11
591.314
 21
0.722626
  0
LINE
  8
0
 10
591.314
 20
0.722626
 11
591.453
 21
0.373032
  0
LINE
  8
0
 10
591.453
 20
0.373032
 11
591.5
 21
0
  0
LINE
  8
0
 10
591.5
 20
0
 11
591.453
 21
-0.373032
  0
LINE
  8
0
 10
591.453
 20
-0.373032
 11
591.314
 21
-0.722626
  0
LINE
  8
0
 10
591.314
 20
-0.722626
 11
591.093
 21
-1.02681
  0
LINE
  8
0
 10
591.093
 20
-1.02681
 11
590.804
 21
-1.26648
  0
LINE
  8
0
 10
590.804
 20
-1.26648
 11
590.464
 21
-1.42657
  0
LINE
  8
0
 10
590.464
 20
-1.42657
 11
590.094
 21
-1.49704
  0
LINE
  8
0
 10
590.094
 20
-1.49704
 11
589.719
 21
-1.47342
  0
LINE
  8
0
 10
524.719
 20
-28.4734
 11
524.361
 21
-28.3572
  0
LINE
  8
0
 10
524.361
 20
-28.3572
 11
524.044
 21
-28.1558
  0
LINE
  8
0
 10
524.044
 20
-28.1558
 11
523.786
 21
-27.8817
  0
LINE
  8
0
 10
523.786
 20
-27.8817
 11
523.605
 21
-27.5522
  0
LINE
  8
0
 10
523.605
 20
-27.5522
 11
523.512
 21
-27.188
  0
LINE
  8
0
 10
523.512
 20
-27.188
 11
523.512
 21
-26.812
  0
LINE
  8
0
 10
523.512
 20
-26.812
 11
523.605
 21
-26.4478
  0
LINE
  8
0
 10
523.605
 20
-26.4478
 11
523.786
 21
-26.1183
  0
LINE
  8
0
 10
523.786
 20
-26.1183
 11
524.044
 21
-25.8442
  0
LINE
  8
0
 10
524.044
 20
-25.8442
 11
524.361
 21
-25.6427
  0
LINE
  8
0
 10
524.361
 20
-25.6427
 11
524.719
 21
-25.5266
  0
LINE
  8
0
 10
524.719
 20
-25.5266
 11
525.094
 21
-25.503
  0
LINE
  8
0
 10
525.094
 20
-25.503
 11
525.464
 21
-25.5734
  0
LINE
  8
0
 10
525.464
 20
-25.5734
 11
525.804
 21
-25.7335
  0
LINE
  8
0
 10
525.804
 20
-25.7335
 11
526.093
 21
-25.9732
  0
LINE
  8
0
 10
526.093
 20
-25.9732
 11
526.314
 21
-26.2774
  0
LINE
  8
0
 10
526.314
 20
-26.2774
 11
526.453
 21
-26.627
  0
LINE
  8
0
 10
526.453
 20
-26.627
 11
526.5
 21
-27
  0
LINE
  8
0
 10
526.5
 20
-27
 11
526.453
 21
-27.373
  0
LINE
  8
0
 10
526.453
 20
-27.373
 11
526.314
 21
-27.7226
  0
LINE
  8
0
 10
526.314
 20
-27.7226
 11
526.093
 21
-28.0268
  0
LINE
  8
0
 10
526.093
 20
-28.0268
 11
525.804
 21
-28.2665
  0
LINE
  8
0
 10
525.804
 20
-28.2665
 11
525.464
 21
-28.4266
  0
LINE
  8
0
 10
525.464
 20
-28.4266
 11
525.094
 21
-28.497
  0
LINE
  8
0
 10
525.094
 20
-28.497
 11
524.719
 21
-28.4734
  0
LINE
  8
0
 10
574.719
 20
-28.4734
 11
574.361
 21
-28.3572
  0
LINE
  8
0
 10
574.361
 20
-28.3572
 11
574.044
 21
-28.1558
  0
LINE
  8
0
 10
574.044
 20
-28.1558
 11
573.786
 21
-27.8817
  0
LINE
  8
0
 10
573.786
 20
-27.8817
 11
573.605
 21
-27.5522
  0
LINE
  8
0
 10
573.605
 20
-27.5522
 11
573.512
 21
-27.188
  0
LINE
  8
0
 10
573.512
 20
-27.188
 11
573.512
 21
-26.812
  0
LINE
  8
0
 10
573.512
 20
-26.812
 11
573.605
 21
-26.4478
  0
LINE
  8
0
 10
573.605
 20
-26.4478
 11
573.786
 21
-26.1183
  0
LINE
  8
0
 10
573.786
 20
-26.1183
 11
574.044
 21
-25.8442
  0
LINE
  8
0
 10
574.044
 20
-25.8442
 11
574.361
 21
-25.6427
  0
LINE
  8
0
 10
574.361
 20
-25.6427
 11
574.719
 21
-25.5266
  0
LINE
  8
0
 10
574.719
 20
-25.5266
 11
575.094
 21
-25.503
  0
LINE
  8
0
 10
575.094
 20
-25.503
 11
575.464
 21
-25.5734
  0
LINE
  8
0
 10
575.464
 20
-25.5734
 11
575.804
 21
-25.7335
  0
LINE
  8
0
 10
575.804
 20
-25.7335
 11
576.093
 21
-25.9732
  0
LINE
  8
0
 10
576.093
 20
-25.9732
 11
576.314
 21
-26.2774
  0
LINE
  8
0
 10
576.314
 20
-26.2774
 11
576.453
 21
-26.627
  0
LINE
  8
0
 10
576.453
 20
-26.627
 11
576.5
 21
-27
  0
LINE
  8
0
 10
576.5
 20
-27
 11
576.453
 21
-27.373
  0
LINE
  8
0
 10
576.453
 20
-27.373
 11
576.314
 21
-27.7226
  0
LINE
  8
0
 10
576.314
 20
-27.7226
 11
576.093
 21
-28.0268
  0
LINE
  8
0
 10
576.093
 20
-28.0268
 11
575.804
 21
-28.2665
  0
LINE
  8
0
 10
575.804
 20
-28.2665
 11
575.464
 21
-28.4266
  0
LINE
  8
0
 10
575.464
 20
-28.4266
 11
575.094
 21
-28.497
  0
LINE
  8
0
 10
575.094
 20
-28.497
 11
574.719
 21
-28.4734
  0
LINE
  8
0
 10
504.438
 20
-41.9469
 11
503.723
 21
-41.7145
  0
LINE
  8
0
 10
503.723
 20
-41.7145
 11
503.088
 21
-41.3115
  0
LINE
  8
0
 10
503.088
 20
-41.3115
 11
502.573
 21
-40.7634
  0
LINE
  8
0
 10
502.573
 20
-40.7634
 11
502.211
 21
-40.1044
  0
LINE
  8
0
 10
502.211
 20
-40.1044
 11
502.024
 21
-39.376
  0
LINE
  8
0
 10
502.024
 20
-39.376
 11
502.024
 21
-38.624
  0
LINE
  8
0
 10
502.024
 20
-38.624
 11
502.211
 21
-37.8956
  0
LINE
  8
0
 10
502.211
 20
-37.8956
 11
502.573
 21
-37.2366
  0
LINE
  8
0
 10
502.573
 20
-37.2366
 11
503.088
 21
-36.6885
  0
LINE
  8
0
 10
503.088
 20
-36.6885
 11
503.723
 21
-36.2855
  0
LINE
  8
0
 10
503.723
 20
-36.2855
 11
504.438
 21
-36.0531
  0
LINE
  8
0
 10
504.438
 20
-36.0531
 11
505.188
 21
-36.0059
  0
LINE
  8
0
 10
505.188
 20
-36.0059
 11
505.927
 21
-36.1468
  0
LINE
  8
0
 10
505.927
 20
-36.1468
 11
506.607
 21
-36.467
  0
LINE
  8
0
 10
506.607
 20
-36.467
 11
507.187
 21
-36.9464
  0
LINE
  8
0
 10
507.187
 20
-36.9464
 11
507.629
 21
-37.5547
  0
LINE
  8
0
 10
507.629
 20
-37.5547
 11
507.906
 21
-38.2539
  0
LINE
  8
0
 10
507.906
 20
-38.2539
 11
508
 21
-39
  0
LINE
  8
0
 10
508
 20
-39
 11
507.906
 21
-39.7461
  0
LINE
  8
0
 10
507.906
 20
-39.7461
 11
507.629
 21
-40.4453
  0
LINE
  8
0
 10
507.629
 20
-40.4453
 11
507.187
 21
-41.0536
  0
LINE
  8
0
 10
507.187
 20
-41.0536
 11
506.607
 21
-41.533
  0
LINE
  8
0
 10
506.607
 20
-41.533
 11
505.927
 21
-41.8532
  0
LINE
  8
0
 10
505.927
 20
-41.8532
 11
505.188
 21
-41.9941
  0
LINE
  8
0
 10
505.188
 20
-41.9941
 11
504.438
 21
-41.9469
  0
LINE
  8
0
 10
612.438
 20
-41.9469
 11
611.723
 21
-41.7145
  0
LINE
  8
0
 10
611.723
 20
-41.7145
 11
611.088
 21
-41.3115
  0
LINE
  8
0
 10
611.088
 20
-41.3115
 11
610.573
 21
-40.7634
  0
LINE
  8
0
 10
610.573
 20
-40.7634
 11
610.211
 21
-40.1044
  0
LINE
  8
0
 10
610.211
 20
-40.1044
 11
610.024
 21
-39.376
  0
LINE
  8
0
 10
610.024
 20
-39.376
 11
610.024
 21
-38.624
  0
LINE
  8
0
 10
610.024
 20
-38.624
 11
610.211
 21
-37.8956
  0
LINE
  8
0
 10
610.211
 20
-37.8956
 11
610.573
 21
-37.2366
  0
LINE
  8
0
 10
610.573
 20
-37.2366
 11
611.088
 21
-36.6885
  0
LINE
  8
0
 10
611.088
 20
-36.6885
 11
611.723
 21
-36.2855
  0
LINE
  8
0
 10
611.723
 20
-36.2855
 11
612.438
 21
-36.0531
  0
LINE
  8
0
 10
612.438
 20
-36.0531
 11
613.188
 21
-36.0059
  0
LINE
  8
0
 10
613.188
 20
-36.0059
 11
613.927
 21
-36.1468
  0
LINE
  8
0
 10
613.927
 20
-36.1468
 11
614.607
 21
-36.467
  0
LINE
  8
0
 10
614.607
 20
-36.467
 11
615.187
 21
-36.9464
  0
LINE
  8
0
 10
615.187
 20
-36.9464
 11
615.629
 21
-37.5547
  0
LINE
  8
0
 10
615.629
 20
-37.5547
 11
615.906
 21
-38.2539
  0
LINE
  8
0
 10
615.906
 20
-38.2539
 11
616
 21
-39
  0
LINE
  8
0
 10
616
 20
-39
 11
615.906
 21
-39.7461
  0
LINE
  8
0
 10
615.906
 20
-39.7461
 11
615.629
 21
-40.4453
  0
LINE
  8
0
 10
615.629
 20
-40.4453
 11
615.187
 21
-41.0536
  0
LINE
  8
0
 10
615.187
 20
-41.0536
 11
614.607
 21
-41.533
  0
LINE
  8
0
 10
614.607
 20
-41.533
 11
613.927
 21
-41.8532
  0
LINE
  8
0
 10
613.927
 20
-41.8532
 11
613.188
 21
-41.9941
  0
LINE
  8
0
 10
613.188
 20
-41.9941
 11
612.438
 21
-41.9469
  0
LINE
  8
0
 10
1993
 20
29.5
 11
2081
 21
29.5
  0
LINE
  8
0
 10
2081
 20
29.5
 11
2081
 21
45
  0
LINE
  8
0
 10
2081
 20
45
 11
1961
 21
45
  0
LINE
  8
0
 10
1961
 20
45
 11
1961
 21
22.5
  0
LINE
  8
0
 10
1961
 20
22.5
 11
1979
 21
22.5
  0
LINE
  8
0
 10
1979
 20
22.5
 11
1979
 21
12.5
  0
LINE
  8
0
 10
1979
 20
12.5
 11
1993
 21
12.5
  0
LINE
  8
0
 10
1993
 20
12.5
 11
1993
 21
29.5
  0
LINE
  8
0
 10
1966.44
 20
36.0531
 11
1965.72
 21
36.2855
  0
LINE
  8
0
 10
1965.72
 20
36.2855
 11
1965.09
 21
36.6885
  0
LINE
  8
0
 10
1965.09
 20
36.6885
 11
1964.57
 21
37.2366
  0
LINE
  8
0
 10
1964.57
 20
37.2366
 11
1964.21
 21
37.8956
  0
LINE
  8
0
 10
1964.21
 20
37.8956
 11
1964.02
 21
38.624
  0
LINE
  8
0
 10
1964.02
 20
38.624
 11
1964.02
 21
39.376
  0
LINE
  8
0
 10
1964.02
 20
39.376
 11
1964.21
 21
40.1044
  0
LINE
  8
0
 10
1964.21
 20
40.1044
 11
1964.57
 21
40.7634
  0
LINE
  8
0
 10
1964.57
 20
40.7634
 11
1965.09
 21
41.3115
  0
LINE
  8
0
 10
1965.09
 20
41.3115
 11
1965.72
 21
41.7145
  0
LINE
  8
0
 10
1965.72
 20
41.7145
 11
1966.44
 21
41.9469
  0
LINE
  8
0
 10
1966.44
 20
41.9469
 11
1967.19
 21
41.9941
  0
LINE
  8
0
 10
1967.19
 20
41.9941
 11
1967.93
 21
41.8532
  0
LINE
  8
0
 10
1967.93
 20
41.8532
 11
1968.61
 21
41.533
  0
LINE
  8
0
 10
1968.61
 20
41.533
 11
1969.19
 21
41.0536
  0
LINE
  8
0
 10
1969.19
 20
41.0536
 11
1969.63
 21
40.4453
  0
LINE
  8
0
 10
1969.63
 20
40.4453
 11
1969.91
 21
39.7461
  0
LINE
  8
0
 10
1969.91
 20
39.7461
 11
1970
 21
39
  0
LINE
  8
0
 10
1970
 20
39
 11
1969.91
 21
38.2539
  0
LINE
  8
0
 10
1969.91
 20
38.2539
 11
1969.63
 21
37.5547
  0
LINE
  8
0
 10
1969.63
 20
37.5547
 11
1969.19
 21
36.9464
  0
LINE
  8
0
 10
1969.19
 20
36.9464
 11
1968.61
 21
36.467
  0
LINE
  8
0
 10
1968.61
 20
36.467
 11
1967.93
 21
36.1468
  0
LINE
  8
0
 10
1967.93
 20
36.1468
 11
1967.19
 21
36.0059
  0
LINE
  8
0
 10
1967.19
 20
36.0059
 11
1966.44
 21
36.0531
  0
LINE
  8
0
 10
2074.44
 20
36.0531
 11
2073.72
 21
36.2855
  0
LINE
  8
0
 10
2073.72
 20
36.2855
 11
2073.09
 21
36.6885
  0
LINE
  8
0
 10
2073.09
 20
36.6885
 11
2072.57
 21
37.2366
  0
LINE
  8
0
 10
2072.57
 20
37.2366
 11
2072.21
 21
37.8956
  0
LINE
  8
0
 10
2072.21
 20
37.8956
 11
2072.02
 21
38.624
  0
LINE
  8
0
 10
2072.02
 20
38.624
 11
2072.02
 21
39.376
  0
LINE
  8
0
 10
2072.02
 20
39.376
 11
2072.21
 21
40.1044
  0
LINE
  8
0
 10
2072.21
 20
40.1044
 11
2072.57
 21
40.7634
  0
LINE
  8
0
 10
2072.57
 20
40.7634
 11
2073.09
 21
41.3115
  0
LINE
  8
0
 10
2073.09
 20
41.3115
 11
2073.72
 21
41.7145
  0
LINE
  8
0
 10
2073.72
 20
41.7145
 11
2074.44
 21
41.9469
  0
LINE
  8
0
 10
2074.44
 20
41.9469
 11
2075.19
 21
41.9941
  0
LINE
  8
0
 10
2075.19
 20
41.9941
 11
2075.93
 21
41.8532
  0
LINE
  8
0
 10
2075.93
 20
41.8532
 11
2076.61
 21
41.533
  0
LINE
  8
0
 10
2076.61
 20
41.533
 11
2077.19
 21
41.0536
  0
LINE
  8
0
 10
2077.19
 20
41.0536
 11
2077.63
 21
40.4453
  0
LINE
  8
0
 10
2077.63
 20
40.4453
 11
2077.91
 21
39.7461
  0
LINE
  8
0
 10
2077.91
 20
39.7461
 11
2078
 21
39
  0
LINE
  8
0
 10
2078
 20
39
 11
2077.91
 21
38.2539
  0
LINE
  8
0
 10
2077.91
 20
38.2539
 11
2077.63
 21
37.5547
  0
LINE
  8
0
 10
2077.63
 20
37.5547
 11
2077.19
 21
36.9464
  0
LINE
  8
0
 10
2077.19
 20
36.9464
 11
2076.61
 21
36.467
  0
LINE
  8
0
 10
2076.61
 20
36.467
 11
2075.93
 21
36.1468
  0
LINE
  8
0
 10
2075.93
 20
36.1468
 11
2075.19
 21
36.0059
  0
LINE
  8
0
 10
2075.19
 20
36.0059
 11
2074.44
 21
36.0531
  0
LINE
  8
0
 10
1986.72
 20
25.5266
 11
1986.36
 21
25.6427
  0
LINE
  8
0
 10
1986.36
 20
25.6427
 11
1986.04
 21
25.8442
  0
LINE
  8
0
 10
1986.04
 20
25.8442
 11
1985.79
 21
26.1183
  0
LINE
  8
0
 10
1985.79
 20
26.1183
 11
1985.61
 21
26.4478
  0
LINE
  8
0
 10
1985.61
 20
26.4478
 11
1985.51
 21
26.812
  0
LINE
  8
0
 10
1985.51
 20
26.812
 11
1985.51
 21
27.188
  0
LINE
  8
0
 10
1985.51
 20
27.188
 11
1985.61
 21
27.5522
  0
LINE
  8
0
 10
1985.61
 20
27.5522
 11
1985.79
 21
27.8817
  0
LINE
  8
0
 10
1985.79
 20
27.8817
 11
1986.04
 21
28.1558
  0
LINE
  8
0
 10
1986.04
 20
28.1558
 11
1986.36
 21
28.3572
  0
LINE
  8
0
 10
1986.36
 20
28.3572
 11
1986.72
 21
28.4734
  0
LINE
  8
0
 10
1986.72
 20
28.4734
 11
1987.09
 21
28.497
  0
LINE
  8
0
 10
1987.09
 20
28.497
 11
1987.46
 21
28.4266
  0
LINE
  8
0
 10
1987.46
 20
28.4266
 11
1987.8
 21
28.2665
  0
LINE
  8
0
 10
1987.8
 20
28.2665
 11
1988.09
 21
28.0268
  0
LINE
  8
0
 10
1988.09
 20
28.0268
 11
1988.31
 21
27.7226
  0
LINE
  8
0
 10
1988.31
 20
27.7226
 11
1988.45
 21
27.373
  0
LINE
  8
0
 10
1988.45
 20
27.373
 11
1988.5
 21
27
  0
LINE
  8
0
 10
1988.5
 20
27
 11
1988.45
 21
26.627
  0
LINE
  8
0
 10
1988.45
 20
26.627
 11
1988.31
 21
26.2774
  0
LINE
  8
0
 10
1988.31
 20
26.2774
 11
1988.09
 21
25.9732
  0
LINE
  8
0
 10
1988.09
 20
25.9732
 11
1987.8
 21
25.7335
  0
LINE
  8
0
 10
1987.8
 20
25.7335
 11
1987.46
 21
25.5734
  0
LINE
  8
0
 10
1987.46
 20
25.5734
 11
1987.09
 21
25.503
  0
LINE
  8
0
 10
1987.09
 20
25.503
 11
1986.72
 21
25.5266
  0
LINE
  8
0
 10
1219
 20
45
 11
1099
 21
45
  0
LINE
  8
0
 10
1099
 20
45
 11
1099
 21
-45
  0
LINE
  8
0
 10
1099
 20
-45
 11
1219
 21
-45
  0
LINE
  8
0
 10
1219
 20
-45
 11
1219
 21
45
  0
LINE
  8
0
 10
1104.44
 20
36.0531
 11
1103.72
 21
36.2855
  0
LINE
  8
0
 10
1103.72
 20
36.2855
 11
1103.09
 21
36.6885
  0
LINE
  8
0
 10
1103.09
 20
36.6885
 11
1102.57
 21
37.2366
  0
LINE
  8
0
 10
1102.57
 20
37.2366
 11
1102.21
 21
37.8956
  0
LINE
  8
0
 10
1102.21
 20
37.8956
 11
1102.02
 21
38.624
  0
LINE
  8
0
 10
1102.02
 20
38.624
 11
1102.02
 21
39.376
  0
LINE
  8
0
 10
1102.02
 20
39.376
 11
1102.21
 21
40.1044
  0
LINE
  8
0
 10
1102.21
 20
40.1044
 11
1102.57
 21
40.7634
  0
LINE
  8
0
 10
1102.57
 20
40.7634
 11
1103.09
 21
41.3115
  0
LINE
  8
0
 10
1103.09
 20
41.3115
 11
1103.72
 21
41.7145
  0
LINE
  8
0
 10
1103.72
 20
41.7145
 11
1104.44
 21
41.9469
  0
LINE
  8
0
 10
1104.44
 20
41.9469
 11
1105.19
 21
41.9941
  0
LINE
  8
0
 10
1105.19
 20
41.9941
 11
1105.93
 21
41.8532
  0
LINE
  8
0
 10
1105.93
 20
41.8532
 11
1106.61
 21
41.533
  0
LINE
  8
0
 10
1106.61
 20
41.533
 11
1107.19
 21
41.0536
  0
LINE
  8
0
 10
1107.19
 20
41.0536
 11
1107.63
 21
40.4453
  0
LINE
  8
0
 10
1107.63
 20
40.4453
 11
1107.91
 21
39.7461
  0
LINE
  8
0
 10
1107.91
 20
39.7461
 11
1108
 21
39
  0
LINE
  8
0
 10
1108
 20
39
 11
1107.91
 21
38.2539
  0
LINE
  8
0
 10
1107.91
 20
38.2539
 11
1107.63
 21
37.5547
  0
LINE
  8
0
 10
1107.63
 20
37.5547
 11
1107.19
 21
36.9464
  0
LINE
  8
0
 10
1107.19
 20
36.9464
 11
1106.61
 21
36.467
  0
LINE
  8
0
 10
1106.61
 20
36.467
 11
1105.93
 21
36.1468
  0
LINE
  8
0
 10
1105.93
 20
36.1468
 11
1105.19
 21
36.0059
  0
LINE
  8
0
 10
1105.19
 20
36.0059
 11
1104.44
 21
36.0531
  0
LINE
  8
0
 10
1212.44
 20
36.0531
 11
1211.72
 21
36.2855
  0
LINE
  8
0
 10
1211.72
 20
36.2855
 11
1211.09
 21
36.6885
  0
LINE
  8
0
 10
1211.09
 20
36.6885
 11
1210.57
 21
37.2366
  0
LINE
  8
0
 10
1210.57
 20
37.2366
 11
1210.21
 21
37.8956
  0
LINE
  8
0
 10
1210.21
 20
37.8956
 11
1210.02
 21
38.624
  0
LINE
  8
0
 10
1210.02
 20
38.624
 11
1210.02
 21
39.376
  0
LINE
  8
0
 10
1210.02
 20
39.376
 11
1210.21
 21
40.1044
  0
LINE
  8
0
 10
1210.21
 20
40.1044
 11
1210.57
 21
40.7634
  0
LINE
  8
0
 10
1210.57
 20
40.7634
 11
1211.09
 21
41.3115
  0
LINE
  8
0
 10
1211.09
 20
41.3115
 11
1211.72
 21
41.7145
  0
LINE
  8
0
 10
1211.72
 20
41.7145
 11
1212.44
 21
41.9469
  0
LINE
  8
0
 10
1212.44
 20
41.9469
 11
1213.19
 21
41.9941
  0
LINE
  8
0
 10
1213.19
 20
41.9941
 11
1213.93
 21
41.8532
  0
LINE
  8
0
 10
1213.93
 20
41.8532
 11
1214.61
 21
41.533
  0
LINE
  8
0
 10
1214.61
 20
41.533
 11
1215.19
 21
41.0536
  0
LINE
  8
0
 10
1215.19
 20
41.0536
 11
1215.63
 21
40.4453
  0
LINE
  8
0
 10
1215.63
 20
40.4453
 11
1215.91
 21
39.7461
  0
LINE
  8
0
 10
1215.91
 20
39.7461
 11
1216
 21
39
  0
LINE
  8
0
 10
1216
 20
39
 11
1215.91
 21
38.2539
  0
LINE
  8
0
 10
1215.91
 20
38.2539
 11
1215.63
 21
37.5547
  0
LINE
  8
0
 10
1215.63
 20
37.5547
 11
1215.19
 21
36.9464
  0
LINE
  8
0
 10
1215.19
 20
36.9464
 11
1214.61
 21
36.467
  0
LINE
  8
0
 10
1214.61
 20
36.467
 11
1213.93
 21
36.1468
  0
LINE
  8
0
 10
1213.93
 20
36.1468
 11
1213.19
 21
36.0059
  0
LINE
  8
0
 10
1213.19
 20
36.0059
 11
1212.44
 21
36.0531
  0
LINE
  8
0
 10
1124.72
 20
25.5266
 11
1124.36
 21
25.6427
  0
LINE
  8
0
 10
1124.36
 20
25.6427
 11
1124.04
 21
25.8442
  0
LINE
  8
0
 10
1124.04
 20
25.8442
 11
1123.79
 21
26.1183
  0
LINE
  8
0
 10
1123.79
 20
26.1183
 11
1123.61
 21
26.4478
  0
LINE
  8
0
 10
1123.61
 20
26.4478
 11
1123.51
 21
26.812
  0
LINE
  8
0
 10
1123.51
 20
26.812
 11
1123.51
 21
27.188
  0
LINE
  8
0
 10
1123.51
 20
27.188
 11
1123.61
 21
27.5522
  0
LINE
  8
0
 10
1123.61
 20
27.5522
 11
1123.79
 21
27.8817
  0
LINE
  8
0
 10
1123.79
 20
27.8817
 11
1124.04
 21
28.1558
  0
LINE
  8
0
 10
1124.04
 20
28.1558
 11
1124.36
 21
28.3572
  0
LINE
  8
0
 10
1124.36
 20
28.3572
 11
1124.72
 21
28.4734
  0
LINE
  8
0
 10
1124.72
 20
28.4734
 11
1125.09
 21
28.497
  0
LINE
  8
0
 10
1125.09
 20
28.497
 11
1125.46
 21
28.4266
  0
LINE
  8
0
 10
1125.46
 20
28.4266
 11
1125.8
 21
28.2665
  0
LINE
  8
0
 10
1125.8
 20
28.2665
 11
1126.09
 21
28.0268
  0
LINE
  8
0
 10
1126.09
 20
28.0268
 11
1126.31
 21
27.7226
  0
LINE
  8
0
 10
1126.31
 20
27.7226
 11
1126.45
 21
27.373
  0
LINE
  8
0
 10
1126.45
 20
27.373
 11
1126.5
 21
27
  0
LINE
  8
0
 10
1126.5
 20
27
 11
1126.45
 21
26.627
  0
LINE
  8
0
 10
1126.45
 20
26.627
 11
1126.31
 21
26.2774
  0
LINE
  8
0
 10
1126.31
 20
26.2774
 11
1126.09
 21
25.9732
  0
LINE
  8
0
 10
1126.09
 20
25.9732
 11
1125.8
 21
25.7335
  0
LINE
  8
0
 10
1125.8
 20
25.7335
 11
1125.46
 21
25.5734
  0
LINE
  8
0
 10
1125.46
 20
25.5734
 11
1125.09
 21
25.503
  0
LINE
  8
0
 10
1125.09
 20
25.503
 11
1124.72
 21
25.5266
  0
LINE
  8
0
 10
1174.72
 20
25.5266
 11
1174.36
 21
25.6427
  0
LINE
  8
0
 10
1174.36
 20
25.6427
 11
1174.04
 21
25.8442
  0
LINE
  8
0
 10
1174.04
 20
25.8442
 11
1173.79
 21
26.1183
  0
LINE
  8
0
 10
1173.79
 20
26.1183
 11
1173.61
 21
26.4478
  0
LINE
  8
0
 10
1173.61
 20
26.4478
 11
1173.51
 21
26.812
  0
LINE
  8
0
 10
1173.51
 20
26.812
 11
1173.51
 21
27.188
  0
LINE
  8
0
 10
1173.51
 20
27.188
 11
1173.61
 21
27.5522
  0
LINE
  8
0
 10
1173.61
 20
27.5522
 11
1173.79
 21
27.8817
  0
LINE
  8
0
 10
1173.79
 20
27.8817
 11
1174.04
 21
28.1558
  0
LINE
  8
0
 10
1174.04
 20
28.1558
 11
1174.36
 21
28.3572
  0
LINE
  8
0
 10
1174.36
 20
28.3572
 11
1174.72
 21
28.4734
  0
LINE
  8
0
 10
1174.72
 20
28.4734
 11
1175.09
 21
28.497
  0
LINE
  8
0
 10
1175.09
 20
28.497
 11
1175.46
 21
28.4266
  0
LINE
  8
0
 10
1175.46
 20
28.4266
 11
1175.8
 21
28.2665
  0
LINE
  8
0
 10
1175.8
 20
28.2665
 11
1176.09
 21
28.0268
  0
LINE
  8
0
 10
1176.09
 20
28.0268
 11
1176.31
 21
27.7226
  0
LINE
  8
0
 10
1176.31
 20
27.7226
 11
1176.45
 21
27.373
  0
LINE
  8
0
 10
1176.45
 20
27.373
 11
1176.5
 21
27
  0
LINE
  8
0
 10
1176.5
 20
27
 11
1176.45
 21
26.627
  0
LINE
  8
0
 10
1176.45
 20
26.627
 11
1176.31
 21
26.2774
  0
LINE
  8
0
 10
1176.31
 20
26.2774
 11
1176.09
 21
25.9732
  0
LINE
  8
0
 10
1176.09
 20
25.9732
 11
1175.8
 21
25.7335
  0
LINE
  8
0
 10
1175.8
 20
25.7335
 11
1175.46
 21
25.5734
  0
LINE
  8
0
 10
1175.46
 20
25.5734
 11
1175.09
 21
25.503
  0
LINE
  8
0
 10
1175.09
 20
25.503
 11
1174.72
 21
25.5266
  0
LINE
  8
0
 10
1106
 20
-12.5
 11
1106
 21
12.5
  0
LINE
  8
0
 10
1106
 20
12.5
 11
1131
 21
12.5
  0
LINE
  8
0
 10
1131
 20
12.5
 11
1131
 21
-12.5
  0
LINE
  8
0
 10
1131
 20
-12.5
 11
1106
 21
-12.5
  0
LINE
  8
0
 10
1159.72
 20
-1.47342
 11
1159.36
 21
-1.35724
  0
LINE
  8
0
 10
1159.36
 20
-1.35724
 11
1159.04
 21
-1.15576
  0
LINE
  8
0
 10
1159.04
 20
-1.15576
 11
1158.79
 21
-0.881668
  0
LINE
  8
0
 10
1158.79
 20
-0.881668
 11
1158.61
 21
-0.552185
  0
LINE
  8
0
 10
1158.61
 20
-0.552185
 11
1158.51
 21
-0.187988
  0
LINE
  8
0
 10
1158.51
 20
-0.187988
 11
1158.51
 21
0.187988
  0
LINE
  8
0
 10
1158.51
 20
0.187988
 11
1158.61
 21
0.552185
  0
LINE
  8
0
 10
1158.61
 20
0.552185
 11
1158.79
 21
0.881668
  0
LINE
  8
0
 10
1158.79
 20
0.881668
 11
1159.04
 21
1.15576
  0
LINE
  8
0
 10
1159.04
 20
1.15576
 11
1159.36
 21
1.35724
  0
LINE
  8
0
 10
1159.36
 20
1.35724
 11
1159.72
 21
1.47342
  0
LINE
  8
0
 10
1159.72
 20
1.47342
 11
1160.09
 21
1.49704
  0
LINE
  8
0
 10
1160.09
 20
1.49704
 11
1160.46
 21
1.42657
  0
LINE
  8
0
 10
1160.46
 20
1.42657
 11
1160.8
 21
1.26648
  0
LINE
  8
0
 10
1160.8
 20
1.26648
 11
1161.09
 21
1.02681
  0
LINE
  8
0
 10
1161.09
 20
1.02681
 11
1161.31
 21
0.722626
  0
LINE
  8
0
 10
1161.31
 20
0.722626
 11
1161.45
 21
0.373032
  0
LINE
  8
0
 10
1161.45
 20
0.373032
 11
1161.5
 21
0
  0
LINE
  8
0
 10
1161.5
 20
0
 11
1161.45
 21
-0.373032
  0
LINE
  8
0
 10
1161.45
 20
-0.373032
 11
1161.31
 21
-0.722626
  0
LINE
  8
0
 10
1161.31
 20
-0.722626
 11
1161.09
 21
-1.02681
  0
LINE
  8
0
 10
1161.09
 20
-1.02681
 11
1160.8
 21
-1.26648
  0
LINE
  8
0
 10
1160.8
 20
-1.26648
 11
1160.46
 21
-1.42657
  0
LINE
  8
0
 10
1160.46
 20
-1.42657
 11
1160.09
 21
-1.49704
  0
LINE
  8
0
 10
1160.09
 20
-1.49704
 11
1159.72
 21
-1.47342
  0
LINE
  8
0
 10
1183.72
 20
-1.47342
 11
1183.36
 21
-1.35724
  0
LINE
  8
0
 10
1183.36
 20
-1.35724
 11
1183.04
 21
-1.15576
  0
LINE
  8
0
 10
1183.04
 20
-1.15576
 11
1182.79
 21
-0.881668
  0
LINE
  8
0
 10
1182.79
 20
-0.881668
 11
1182.61
 21
-0.552185
  0
LINE
  8
0
 10
1182.61
 20
-0.552185
 11
1182.51
 21
-0.187988
  0
LINE
  8
0
 10
1182.51
 20
-0.187988
 11
1182.51
 21
0.187988
  0
LINE
  8
0
 10
1182.51
 20
0.187988
 11
1182.61
 21
0.552185
  0
LINE
  8
0
 10
1182.61
 20
0.552185
 11
1182.79
 21
0.881668
  0
LINE
  8
0
 10
1182.79
 20
0.881668
 11
1183.04
 21
1.15576
  0
LINE
  8
0
 10
1183.04
 20
1.15576
 11
1183.36
 21
1.35724
  0
LINE
  8
0
 10
1183.36
 20
1.35724
 11
1183.72
 21
1.47342
  0
LINE
  8
0
 10
1183.72
 20
1.47342
 11
1184.09
 21
1.49704
  0
LINE
  8
0
 10
1184.09
 20
1.49704
 11
1184.46
 21
1.42657
  0
LINE
  8
0
 10
1184.46
 20
1.42657
 11
1184.8
 21
1.26648
  0
LINE
  8
0
 10
1184.8
 20
1.26648
 11
1185.09
 21
1.02681
  0
LINE
  8
0
 10
1185.09
 20
1.02681
 11
1185.31
 21
0.722626
  0
LINE
  8
0
 10
1185.31
 20
0.722626
 11
1185.45
 21
0.373032
  0
LINE
  8
0
 10
1185.45
 20
0.373032
 11
1185.5
 21
0
  0
LINE
  8
0
 10
1185.5
 20
0
 11
1185.45
 21
-0.373032
  0
LINE
  8
0
 10
1185.45
 20
-0.373032
 11
1185.31
 21
-0.722626
  0
LINE
  8
0
 10
1185.31
 20
-0.722626
 11
1185.09
 21
-1.02681
  0
LINE
  8
0
 10
1185.09
 20
-1.02681
 11
1184.8
 21
-1.26648
  0
LINE
  8
0
 10
1184.8
 20
-1.26648
 11
1184.46
 21
-1.42657
  0
LINE
  8
0
 10
1184.46
 20
-1.42657
 11
1184.09
 21
-1.49704
  0
LINE
  8
0
 10
1184.09
 20
-1.49704
 11
1183.72
 21
-1.47342
  0
LINE
  8
0
 10
1189.72
 20
-1.47342
 11
1189.36
 21
-1.35724
  0
LINE
  8
0
 10
1189.36
 20
-1.35724
 11
1189.04
 21
-1.15576
  0
LINE
  8
0
 10
1189.04
 20
-1.15576
 11
1188.79
 21
-0.881668
  0
LINE
  8
0
 10
1188.79
 20
-0.881668
 11
1188.61
 21
-0.552185
  0
LINE
  8
0
 10
1188.61
 20
-0.552185
 11
1188.51
 21
-0.187988
  0
LINE
  8
0
 10
1188.51
 20
-0.187988
 11
1188.51
 21
0.187988
  0
LINE
  8
0
 10
1188.51
 20
0.187988
 11
1188.61
 21
0.552185
  0
LINE
  8
0
 10
1188.61
 20
0.552185
 11
1188.79
 21
0.881668
  0
LINE
  8
0
 10
1188.79
 20
0.881668
 11
1189.04
 21
1.15576
  0
LINE
  8
0
 10
1189.04
 20
1.15576
 11
1189.36
 21
1.35724
  0
LINE
  8
0
 10
1189.36
 20
1.35724
 11
1189.72
 21
1.47342
  0
LINE
  8
0
 10
1189.72
 20
1.47342
 11
1190.09
 21
1.49704
  0
LINE
  8
0
 10
1190.09
 20
1.49704
 11
1190.46
 21
1.42657
  0
LINE
  8
0
 10
1190.46
 20
1.42657
 11
1190.8
 21
1.26648
  0
LINE
  8
0
 10
1190.8
 20
1.26648
 11
1191.09
 21
1.02681
  0
LINE
  8
0
 10
1191.09
 20
1.02681
 11
1191.31
 21
0.722626
  0
LINE
  8
0
 10
1191.31
 20
0.722626
 11
1191.45
 21
0.373032
  0
LINE
  8
0
 10
1191.45
 20
0.373032
 11
1191.5
 21
0
  0
LINE
  8
0
 10
1191.5
 20
0
 11
1191.45
 21
-0.373032
  0
LINE
  8
0
 10
1191.45
 20
-0.373032
 11
1191.31
 21
-0.722626
  0
LINE
  8
0
 10
1191.31
 20
-0.722626
 11
1191.09
 21
-1.02681
  0
LINE
  8
0
 10
1191.09
 20
-1.02681
 11
1190.8
 21
-1.26648
  0
LINE
  8
0
 10
1190.8
 20
-1.26648
 11
1190.46
 21
-1.42657
  0
LINE
  8
0
 10
1190.46
 20
-1.42657
 11
1190.09
 21
-1.49704
  0
LINE
  8
0
 10
1190.09
 20
-1.49704
 11
1189.72
 21
-1.47342
  0
LINE
  8
0
 10
1124.72
 20
-28.4734
 11
1124.36
 21
-28.3572
  0
LINE
  8
0
 10
1124.36
 20
-28.3572
 11
1124.04
 21
-28.1558
  0
LINE
  8
0
 10
1124.04
 20
-28.1558
 11
1123.79
 21
-27.8817
  0
LINE
  8
0
 10
1123.79
 20
-27.8817
 11
1123.61
 21
-27.5522
  0
LINE
  8
0
 10
1123.61
 20
-27.5522
 11
1123.51
 21
-27.188
  0
LINE
  8
0
 10
1123.51
 20
-27.188
 11
1123.51
 21
-26.812
  0
LINE
  8
0
 10
1123.51
 20
-26.812
 11
1123.61
 21
-26.4478
  0
LINE
  8
0
 10
1123.61
 20
-26.4478
 11
1123.79
 21
-26.1183
  0
LINE
  8
0
 10
1123.79
 20
-26.1183
 11
1124.04
 21
-25.8442
  0
LINE
  8
0
 10
1124.04
 20
-25.8442
 11
1124.36
 21
-25.6427
  0
LINE
  8
0
 10
1124.36
 20
-25.6427
 11
1124.72
 21
-25.5266
  0
LINE
  8
0
 10
1124.72
 20
-25.5266
 11
1125.09
 21
-25.503
  0
LINE
  8
0
 10
1125.09
 20
-25.503
 11
1125.46
 21
-25.5734
  0
LINE
  8
0
 10
1125.46
 20
-25.5734
 11
1125.8
 21
-25.7335
  0
LINE
  8
0
 10
1125.8
 20
-25.7335
 11
1126.09
 21
-25.9732
  0
LINE
  8
0
 10
1126.09
 20
-25.9732
 11
1126.31
 21
-26.2774
  0
LINE
  8
0
 10
1126.31
 20
-26.2774
 11
1126.45
 21
-26.627
  0
LINE
  8
0
 10
1126.45
 20
-26.627
 11
1126.5
 21
-27
  0
LINE
  8
0
 10
1126.5
 20
-27
 11
1126.45
 21
-27.373
  0
LINE
  8
0
 10
1126.45
 20
-27.373
 11
1126.31
 21
-27.7226
  0
LINE
  8
0
 10
1126.31
 20
-27.7226
 11
1126.09
 21
-28.0268
  0
LINE
  8
0
 10
1126.09
 20
-28.0268
 11
1125.8
 21
-28.2665
  0
LINE
  8
0
 10
1125.8
 20
-28.2665
 11
1125.46
 21
-28.4266
  0
LINE
  8
0
 10
1125.46
 20
-28.4266
 11
1125.09
 21
-28.497
  0
LINE
  8
0
 10
1125.09
 20
-28.497
 11
1124.72
 21
-28.4734
  0
LINE
  8
0
 10
1174.72
 20
-28.4734
 11
1174.36
 21
-28.3572
  0
LINE
  8
0
 10
1174.36
 20
-28.3572
 11
1174.04
 21
-28.1558
  0
LINE
  8
0
 10
1174.04
 20
-28.1558
 11
1173.79
 21
-27.8817
  0
LINE
  8
0
 10
1173.79
 20
-27.8817
 11
1173.61
 21
-27.5522
  0
LINE
  8
0
 10
1173.61
 20
-27.5522
 11
1173.51
 21
-27.188
  0
LINE
  8
0
 10
1173.51
 20
-27.188
 11
1173.51
 21
-26.812
  0
LINE
  8
0
 10
1173.51
 20
-26.812
 11
1173.61
 21
-26.4478
  0
LINE
  8
0
 10
1173.61
 20
-26.4478
 11
1173.79
 21
-26.1183
  0
LINE
  8
0
 10
1173.79
 20
-26.1183
 11
1174.04
 21
-25.8442
  0
LINE
  8
0
 10
1174.04
 20
-25.8442
 11
1174.36
 21
-25.6427
  0
LINE
  8
0
 10
1174.36
 20
-25.6427
 11
1174.72
 21
-25.5266
  0
LINE
  8
0
 10
1174.72
 20
-25.5266
 11
1175.09
 21
-25.503
  0
LINE
  8
0
 10
1175.09
 20
-25.503
 11
1175.46
 21
-25.5734
  0
LINE
  8
0
 10
1175.46
 20
-25.5734
 11
1175.8
 21
-25.7335
  0
LINE
  8
0
 10
1175.8
 20
-25.7335
 11
1176.09
 21
-25.9732
  0
LINE
  8
0
 10
1176.09
 20
-25.9732
 11
1176.31
 21
-26.2774
  0
LINE
  8
0
 10
1176.31
 20
-26.2774
 11
1176.45
 21
-26.627
  0
LINE
  8
0
 10
1176.45
 20
-26.627
 11
1176.5
 21
-27
  0
LINE
  8
0
 10
1176.5
 20
-27
 11
1176.45
 21
-27.373
  0
LINE
  8
0
 10
1176.45
 20
-27.373
 11
1176.31
 21
-27.7226
  0
LINE
  8
0
 10
1176.31
 20
-27.7226
 11
1176.09
 21
-28.0268
  0
LINE
  8
0
 10
1176.09
 20
-28.0268
 11
1175.8
 21
-28.2665
  0
LINE
  8
0
 10
1175.8
 20
-28.2665
 11
1175.46
 21
-28.4266
  0
LINE
  8
0
 10
1175.46
 20
-28.4266
 11
1175.09
 21
-28.497
  0
LINE
  8
0
 10
1175.09
 20
-28.497
 11
1174.72
 21
-28.4734
  0
LINE
  8
0
 10
1104.44
 20
-41.9469
 11
1103.72
 21
-41.7145
  0
LINE
  8
0
 10
1103.72
 20
-41.7145
 11
1103.09
 21
-41.3115
  0
LINE
  8
0
 10
1103.09
 20
-41.3115
 11
1102.57
 21
-40.7634
  0
LINE
  8
0
 10
1102.57
 20
-40.7634
 11
1102.21
 21
-40.1044
  0
LINE
  8
0
 10
1102.21
 20
-40.1044
 11
1102.02
 21
-39.376
  0
LINE
  8
0
 10
1102.02
 20
-39.376
 11
1102.02
 21
-38.624
  0
LINE
  8
0
 10
1102.02
 20
-38.624
 11
1102.21
 21
-37.8956
  0
LINE
  8
0
 10
1102.21
 20
-37.8956
 11
1102.57
 21
-37.2366
  0
LINE
  8
0
 10
1102.57
 20
-37.2366
 11
1103.09
 21
-36.6885
  0
LINE
  8
0
 10
1103.09
 20
-36.6885
 11
1103.72
 21
-36.2855
  0
LINE
  8
0
 10
1103.72
 20
-36.2855
 11
1104.44
 21
-36.0531
  0
LINE
  8
0
 10
1104.44
 20
-36.0531
 11
1105.19
 21
-36.0059
  0
LINE
  8
0
 10
1105.19
 20
-36.0059
 11
1105.93
 21
-36.1468
  0
LINE
  8
0
 10
1105.93
 20
-36.1468
 11
1106.61
 21
-36.467
  0
LINE
  8
0
 10
1106.61
 20
-36.467
 11
1107.19
 21
-36.9464
  0
LINE
  8
0
 10
1107.19
 20
-36.9464
 11
1107.63
 21
-37.5547
  0
LINE
  8
0
 10
1107.63
 20
-37.5547
 11
1107.91
 21
-38.2539
  0
LINE
  8
0
 10
1107.91
 20
-38.2539
 11
1108
 21
-39
  0
LINE
  8
0
 10
1108
 20
-39
 11
1107.91
 21
-39.7461
  0
LINE
  8
0
 10
1107.91
 20
-39.7461
 11
1107.63
 21
-40.4453
  0
LINE
  8
0
 10
1107.63
 20
-40.4453
 11
1107.19
 21
-41.0536
  0
LINE
  8
0
 10
1107.19
 20
-41.0536
 11
1106.61
 21
-41.533
  0
LINE
  8
0
 10
1106.61
 20
-41.533
 11
1105.93
 21
-41.8532
  0
LINE
  8
0
 10
1105.93
 20
-41.8532
 11
1105.19
 21
-41.9941
  0
LINE
  8
0
 10
1105.19
 20
-41.9941
 11
1104.44
 21
-41.9469
  0
LINE
  8
0
 10
1212.44
 20
-41.9469
 11
1211.72
 21
-41.7145
  0
LINE
  8
0
 10
1211.72
 20
-41.7145
 11
1211.09
 21
-41.3115
  0
LINE
  8
0
 10
1211.09
 20
-41.3115
 11
1210.57
 21
-40.7634
  0
LINE
  8
0
 10
1210.57
 20
-40.7634
 11
1210.21
 21
-40.1044
  0
LINE
  8
0
 10
1210.21
 20
-40.1044
 11
1210.02
 21
-39.376
  0
LINE
  8
0
 10
1210.02
 20
-39.376
 11
1210.02
 21
-38.624
  0
LINE
  8
0
 10
1210.02
 20
-38.624
 11
1210.21
 21
-37.8956
  0
LINE
  8
0
 10
1210.21
 20
-37.8956
 11
1210.57
 21
-37.2366
  0
LINE
  8
0
 10
1210.57
 20
-37.2366
 11
1211.09
 21
-36.6885
  0
LINE
  8
0
 10
1211.09
 20
-36.6885
 11
1211.72
 21
-36.2855
  0
LINE
  8
0
 10
1211.72
 20
-36.2855
 11
1212.44
 21
-36.0531
  0
LINE
  8
0
 10
1212.44
 20
-36.0531
 11
1213.19
 21
-36.0059
  0
LINE
  8
0
 10
1213.19
 20
-36.0059
 11
1213.93
 21
-36.1468
  0
LINE
  8
0
 10
1213.93
 20
-36.1468
 11
1214.61
 21
-36.467
  0
LINE
  8
0
 10
1214.61
 20
-36.467
 11
1215.19
 21
-36.9464
  0
LINE
  8
0
 10
1215.19
 20
-36.9464
 11
1215.63
 21
-37.5547
  0
LINE
  8
0
 10
1215.63
 20
-37.5547
 11
1215.91
 21
-38.2539
  0
LINE
  8
0
 10
1215.91
 20
-38.2539
 11
1216
 21
-39
  0
LINE
  8
0
 10
1216
 20
-39
 11
1215.91
 21
-39.7461
  0
LINE
  8
0
 10
1215.91
 20
-39.7461
 11
1215.63
 21
-40.4453
  0
LINE
  8
0
 10
1215.63
 20
-40.4453
 11
1215.19
 21
-41.0536
  0
LINE
  8
0
 10
1215.19
 20
-41.0536
 11
1214.61
 21
-41.533
  0
LINE
  8
0
 10
1214.61
 20
-41.533
 11
1213.93
 21
-41.8532
  0
LINE
  8
0
 10
1213.93
 20
-41.8532
 11
1213.19
 21
-41.9941
  0
LINE
  8
0
 10
1213.19
 20
-41.9941
 11
1212.44
 21
-41.9469
  0
LINE
  8
0
 10
419
 20
45
 11
299
 21
45
  0
LINE
  8
0
 10
299
 20
45
 11
299
 21
21.5
  0
LINE
  8
0
 10
299
 20
21.5
 11
384.5
 21
21.5
  0
LINE
  8
0
 10
384.5
 20
21.5
 11
384.5
 21
21.3726
  0
LINE
  8
0
 10
384.5
 20
21.3726
 11
385.85
 21
21.4576
  0
LINE
  8
0
 10
385.85
 20
21.4576
 11
391.144
 21
20.4477
  0
LINE
  8
0
 10
391.144
 20
20.4477
 11
396.02
 21
18.153
  0
LINE
  8
0
 10
396.02
 20
18.153
 11
400.173
 21
14.7178
  0
LINE
  8
0
 10
400.173
 20
14.7178
 11
403.341
 21
10.3577
  0
LINE
  8
0
 10
403.341
 20
10.3577
 11
405.325
 21
5.34683
  0
LINE
  8
0
 10
405.325
 20
5.34683
 11
406
 21
0
  0
LINE
  8
0
 10
406
 20
0
 11
405.325
 21
-5.34683
  0
LINE
  8
0
 10
405.325
 20
-5.34683
 11
403.341
 21
-10.3577
  0
LINE
  8
0
 10
403.341
 20
-10.3577
 11
400.173
 21
-14.7178
  0
LINE
  8
0
 10
400.173
 20
-14.7178
 11
396.02
 21
-18.153
  0
LINE
  8
0
 10
396.02
 20
-18.153
 11
391.144
 21
-20.4477
  0
LINE
  8
0
 10
391.144
 20
-20.4477
 11
385.85
 21
-21.4576
  0
LINE
  8
0
 10
385.85
 20
-21.4576
 11
384.5
 21
-21.3726
  0
LINE
  8
0
 10
384.5
 20
-21.3726
 11
384.5
 21
-21.5
  0
LINE
  8
0
 10
384.5
 20
-21.5
 11
299
 21
-21.5
  0
LINE
  8
0
 10
299
 20
-21.5
 11
299
 21
-45
  0
LINE
  8
0
 10
299
 20
-45
 11
419
 21
-45
  0
LINE
  8
0
 10
419
 20
-45
 11
419
 21
45
  0
LINE
  8
0
 10
412.438
 20
36.0531
 11
411.723
 21
36.2855
  0
LINE
  8
0
 10
411.723
 20
36.2855
 11
411.088
 21
36.6885
  0
LINE
  8
0
 10
411.088
 20
36.6885
 11
410.573
 21
37.2366
  0
LINE
  8
0
 10
410.573
 20
37.2366
 11
410.211
 21
37.8956
  0
LINE
  8
0
 10
410.211
 20
37.8956
 11
410.024
 21
38.624
  0
LINE
  8
0
 10
410.024
 20
38.624
 11
410.024
 21
39.376
  0
LINE
  8
0
 10
410.024
 20
39.376
 11
410.211
 21
40.1044
  0
LINE
  8
0
 10
410.211
 20
40.1044
 11
410.573
 21
40.7634
  0
LINE
  8
0
 10
410.573
 20
40.7634
 11
411.088
 21
41.3115
  0
LINE
  8
0
 10
411.088
 20
41.3115
 11
411.723
 21
41.7145
  0
LINE
  8
0
 10
411.723
 20
41.7145
 11
412.438
 21
41.9469
  0
LINE
  8
0
 10
412.438
 20
41.9469
 11
413.188
 21
41.9941
  0
LINE
  8
0
 10
413.188
 20
41.9941
 11
413.927
 21
41.8532
  0
LINE
  8
0
 10
413.927
 20
41.8532
 11
414.607
 21
41.533
  0
LINE
  8
0
 10
414.607
 20
41.533
 11
415.187
 21
41.0536
  0
LINE
  8
0
 10
415.187
 20
41.0536
 11
415.629
 21
40.4453
  0
LINE
  8
0
 10
415.629
 20
40.4453
 11
415.906
 21
39.7461
  0
LINE
  8
0
 10
415.906
 20
39.7461
 11
416
 21
39
  0
LINE
  8
0
 10
416
 20
39
 11
415.906
 21
38.2539
  0
LINE
  8
0
 10
415.906
 20
38.2539
 11
415.629
 21
37.5547
  0
LINE
  8
0
 10
415.629
 20
37.5547
 11
415.187
 21
36.9464
  0
LINE
  8
0
 10
415.187
 20
36.9464
 11
414.607
 21
36.467
  0
LINE
  8
0
 10
414.607
 20
36.467
 11
413.927
 21
36.1468
  0
LINE
  8
0
 10
413.927
 20
36.1468
 11
413.188
 21
36.0059
  0
LINE
  8
0
 10
413.188
 20
36.0059
 11
412.438
 21
36.0531
  0
LINE
  8
0
 10
304.438
 20
36.0531
 11
303.723
 21
36.2855
  0
LINE
  8
0
 10
303.723
 20
36.2855
 11
303.088
 21
36.6885
  0
LINE
  8
0
 10
303.088
 20
36.6885
 11
302.573
 21
37.2366
  0
LINE
  8
0
 10
302.573
 20
37.2366
 11
302.211
 21
37.8956
  0
LINE
  8
0
 10
302.211
 20
37.8956
 11
302.024
 21
38.624
  0
LINE
  8
0
 10
302.024
 20
38.624
 11
302.024
 21
39.376
  0
LINE
  8
0
 10
302.024
 20
39.376
 11
302.211
 21
40.1044
  0
LINE
  8
0
 10
302.211
 20
40.1044
 11
302.573
 21
40.7634
  0
LINE
  8
0
 10
302.573
 20
40.7634
 11
303.088
 21
41.3115
  0
LINE
  8
0
 10
303.088
 20
41.3115
 11
303.723
 21
41.7145
  0
LINE
  8
0
 10
303.723
 20
41.7145
 11
304.438
 21
41.9469
  0
LINE
  8
0
 10
304.438
 20
41.9469
 11
305.188
 21
41.9941
  0
LINE
  8
0
 10
305.188
 20
41.9941
 11
305.927
 21
41.8532
  0
LINE
  8
0
 10
305.927
 20
41.8532
 11
306.607
 21
41.533
  0
LINE
  8
0
 10
306.607
 20
41.533
 11
307.187
 21
41.0536
  0
LINE
  8
0
 10
307.187
 20
41.0536
 11
307.629
 21
40.4453
  0
LINE
  8
0
 10
307.629
 20
40.4453
 11
307.906
 21
39.7461
  0
LINE
  8
0
 10
307.906
 20
39.7461
 11
308
 21
39
  0
LINE
  8
0
 10
308
 20
39
 11
307.906
 21
38.2539
  0
LINE
  8
0
 10
307.906
 20
38.2539
 11
307.629
 21
37.5547
  0
LINE
  8
0
 10
307.629
 20
37.5547
 11
307.187
 21
36.9464
  0
LINE
  8
0
 10
307.187
 20
36.9464
 11
306.607
 21
36.467
  0
LINE
  8
0
 10
306.607
 20
36.467
 11
305.927
 21
36.1468
  0
LINE
  8
0
 10
305.927
 20
36.1468
 11
305.188
 21
36.0059
  0
LINE
  8
0
 10
305.188
 20
36.0059
 11
304.438
 21
36.0531
  0
LINE
  8
0
 10
374.719
 20
25.5266
 11
374.361
 21
25.6427
  0
LINE
  8
0
 10
374.361
 20
25.6427
 11
374.044
 21
25.8442
  0
LINE
  8
0
 10
374.044
 20
25.8442
 11
373.786
 21
26.1183
  0
LINE
  8
0
 10
373.786
 20
26.1183
 11
373.605
 21
26.4478
  0
LINE
  8
0
 10
373.605
 20
26.4478
 11
373.512
 21
26.812
  0
LINE
  8
0
 10
373.512
 20
26.812
 11
373.512
 21
27.188
  0
LINE
  8
0
 10
373.512
 20
27.188
 11
373.605
 21
27.5522
  0
LINE
  8
0
 10
373.605
 20
27.5522
 11
373.786
 21
27.8817
  0
LINE
  8
0
 10
373.786
 20
27.8817
 11
374.044
 21
28.1558
  0
LINE
  8
0
 10
374.044
 20
28.1558
 11
374.361
 21
28.3572
  0
LINE
  8
0
 10
374.361
 20
28.3572
 11
374.719
 21
28.4734
  0
LINE
  8
0
 10
374.719
 20
28.4734
 11
375.094
 21
28.497
  0
LINE
  8
0
 10
375.094
 20
28.497
 11
375.464
 21
28.4266
  0
LINE
  8
0
 10
375.464
 20
28.4266
 11
375.804
 21
28.2665
  0
LINE
  8
0
 10
375.804
 20
28.2665
 11
376.093
 21
28.0268
  0
LINE
  8
0
 10
376.093
 20
28.0268
 11
376.314
 21
27.7226
  0
LINE
  8
0
 10
376.314
 20
27.7226
 11
376.453
 21
27.373
  0
LINE
  8
0
 10
376.453
 20
27.373
 11
376.5
 21
27
  0
LINE
  8
0
 10
376.5
 20
27
 11
376.453
 21
26.627
  0
LINE
  8
0
 10
376.453
 20
26.627
 11
376.314
 21
26.2774
  0
LINE
  8
0
 10
376.314
 20
26.2774
 11
376.093
 21
25.9732
  0
LINE
  8
0
 10
376.093
 20
25.9732
 11
375.804
 21
25.7335
  0
LINE
  8
0
 10
375.804
 20
25.7335
 11
375.464
 21
25.5734
  0
LINE
  8
0
 10
375.464
 20
25.5734
 11
375.094
 21
25.503
  0
LINE
  8
0
 10
375.094
 20
25.503
 11
374.719
 21
25.5266
  0
LINE
  8
0
 10
324.719
 20
25.5266
 11
324.361
 21
25.6427
  0
LINE
  8
0
 10
324.361
 20
25.6427
 11
324.044
 21
25.8442
  0
LINE
  8
0
 10
324.044
 20
25.8442
 11
323.786
 21
26.1183
  0
LINE
  8
0
 10
323.786
 20
26.1183
 11
323.605
 21
26.4478
  0
LINE
  8
0
 10
323.605
 20
26.4478
 11
323.512
 21
26.812
  0
LINE
  8
0
 10
323.512
 20
26.812
 11
323.512
 21
27.188
  0
LINE
  8
0
 10
323.512
 20
27.188
 11
323.605
 21
27.5522
  0
LINE
  8
0
 10
323.605
 20
27.5522
 11
323.786
 21
27.8817
  0
LINE
  8
0
 10
323.786
 20
27.8817
 11
324.044
 21
28.1558
  0
LINE
  8
0
 10
324.044
 20
28.1558
 11
324.361
 21
28.3572
  0
LINE
  8
0
 10
324.361
 20
28.3572
 11
324.719
 21
28.4734
  0
LINE
  8
0
 10
324.719
 20
28.4734
 11
325.094
 21
28.497
  0
LINE
  8
0
 10
325.094
 20
28.497
 11
325.464
 21
28.4266
  0
LINE
  8
0
 10
325.464
 20
28.4266
 11
325.804
 21
28.2665
  0
LINE
  8
0
 10
325.804
 20
28.2665
 11
326.093
 21
28.0268
  0
LINE
  8
0
 10
326.093
 20
28.0268
 11
326.314
 21
27.7226
  0
LINE
  8
0
 10
326.314
 20
27.7226
 11
326.453
 21
27.373
  0
LINE
  8
0
 10
326.453
 20
27.373
 11
326.5
 21
27
  0
LINE
  8
0
 10
326.5
 20
27
 11
326.453
 21
26.627
  0
LINE
  8
0
 10
326.453
 20
26.627
 11
326.314
 21
26.2774
  0
LINE
  8
0
 10
326.314
 20
26.2774
 11
326.093
 21
25.9732
  0
LINE
  8
0
 10
326.093
 20
25.9732
 11
325.804
 21
25.7335
  0
LINE
  8
0
 10
325.804
 20
25.7335
 11
325.464
 21
25.5734
  0
LINE
  8
0
 10
325.464
 20
25.5734
 11
325.094
 21
25.503
  0
LINE
  8
0
 10
325.094
 20
25.503
 11
324.719
 21
25.5266
  0
LINE
  8
0
 10
324.719
 20
-28.4734
 11
324.361
 21
-28.3572
  0
LINE
  8
0
 10
324.361
 20
-28.3572
 11
324.044
 21
-28.1558
  0
LINE
  8
0
 10
324.044
 20
-28.1558
 11
323.786
 21
-27.8817
  0
LINE
  8
0
 10
323.786
 20
-27.8817
 11
323.605
 21
-27.5522
  0
LINE
  8
0
 10
323.605
 20
-27.5522
 11
323.512
 21
-27.188
  0
LINE
  8
0
 10
323.512
 20
-27.188
 11
323.512
 21
-26.812
  0
LINE
  8
0
 10
323.512
 20
-26.812
 11
323.605
 21
-26.4478
  0
LINE
  8
0
 10
323.605
 20
-26.4478
 11
323.786
 21
-26.1183
  0
LINE
  8
0
 10
323.786
 20
-26.1183
 11
324.044
 21
-25.8442
  0
LINE
  8
0
 10
324.044
 20
-25.8442
 11
324.361
 21
-25.6427
  0
LINE
  8
0
 10
324.361
 20
-25.6427
 11
324.719
 21
-25.5266
  0
LINE
  8
0
 10
324.719
 20
-25.5266
 11
325.094
 21
-25.503
  0
LINE
  8
0
 10
325.094
 20
-25.503
 11
325.464
 21
-25.5734
  0
LINE
  8
0
 10
325.464
 20
-25.5734
 11
325.804
 21
-25.7335
  0
LINE
  8
0
 10
325.804
 20
-25.7335
 11
326.093
 21
-25.9732
  0
LINE
  8
0
 10
326.093
 20
-25.9732
 11
326.314
 21
-26.2774
  0
LINE
  8
0
 10
326.314
 20
-26.2774
 11
326.453
 21
-26.627
  0
LINE
  8
0
 10
326.453
 20
-26.627
 11
326.5
 21
-27
  0
LINE
  8
0
 10
326.5
 20
-27
 11
326.453
 21
-27.373
  0
LINE
  8
0
 10
326.453
 20
-27.373
 11
326.314
 21
-27.7226
  0
LINE
  8
0
 10
326.314
 20
-27.7226
 11
326.093
 21
-28.0268
  0
LINE
  8
0
 10
326.093
 20
-28.0268
 11
325.804
 21
-28.2665
  0
LINE
  8
0
 10
325.804
 20
-28.2665
 11
325.464
 21
-28.4266
  0
LINE
  8
0
 10
325.464
 20
-28.4266
 11
325.094
 21
-28.497
  0
LINE
  8
0
 10
325.094
 20
-28.497
 11
324.719
 21
-28.4734
  0
LINE
  8
0
 10
374.719
 20
-28.4734
 11
374.361
 21
-28.3572
  0
LINE
  8
0
 10
374.361
 20
-28.3572
 11
374.044
 21
-28.1558
  0
LINE
  8
0
 10
374.044
 20
-28.1558
 11
373.786
 21
-27.8817
  0
LINE
  8
0
 10
373.786
 20
-27.8817
 11
373.605
 21
-27.5522
  0
LINE
  8
0
 10
373.605
 20
-27.5522
 11
373.512
 21
-27.188
  0
LINE
  8
0
 10
373.512
 20
-27.188
 11
373.512
 21
-26.812
  0
LINE
  8
0
 10
373.512
 20
-26.812
 11
373.605
 21
-26.4478
  0
LINE
  8
0
 10
373.605
 20
-26.4478
 11
373.786
 21
-26.1183
  0
LINE
  8
0
 10
373.786
 20
-26.1183
 11
374.044
 21
-25.8442
  0
LINE
  8
0
 10
374.044
 20
-25.8442
 11
374.361
 21
-25.6427
  0
LINE
  8
0
 10
374.361
 20
-25.6427
 11
374.719
 21
-25.5266
  0
LINE
  8
0
 10
374.719
 20
-25.5266
 11
375.094
 21
-25.503
  0
LINE
  8
0
 10
375.094
 20
-25.503
 11
375.464
 21
-25.5734
  0
LINE
  8
0
 10
375.464
 20
-25.5734
 11
375.804
 21
-25.7335
  0
LINE
  8
0
 10
375.804
 20
-25.7335
 11
376.093
 21
-25.9732
  0
LINE
  8
0
 10
376.093
 20
-25.9732
 11
376.314
 21
-26.2774
  0
LINE
  8
0
 10
376.314
 20
-26.2774
 11
376.453
 21
-26.627
  0
LINE
  8
0
 10
376.453
 20
-26.627
 11
376.5
 21
-27
  0
LINE
  8
0
 10
376.5
 20
-27
 11
376.453
 21
-27.373
  0
LINE
  8
0
 10
376.453
 20
-27.373
 11
376.314
 21
-27.7226
  0
LINE
  8
0
 10
376.314
 20
-27.7226
 11
376.093
 21
-28.0268
  0
LINE
  8
0
 10
376.093
 20
-28.0268
 11
375.804
 21
-28.2665
  0
LINE
  8
0
 10
375.804
 20
-28.2665
 11
375.464
 21
-28.4266
  0
LINE
  8
0
 10
375.464
 20
-28.4266
 11
375.094
 21
-28.497
  0
LINE
  8
0
 10
375.094
 20
-28.497
 11
374.719
 21
-28.4734
  0
LINE
  8
0
 10
304.438
 20
-41.9469
 11
303.723
 21
-41.7145
  0
LINE
  8
0
 10
303.723
 20
-41.7145
 11
303.088
 21
-41.3115
  0
LINE
  8
0
 10
303.088
 20
-41.3115
 11
302.573
 21
-40.7634
  0
LINE
  8
0
 10
302.573
 20
-40.7634
 11
302.211
 21
-40.1044
  0
LINE
  8
0
 10
302.211
 20
-40.1044
 11
302.024
 21
-39.376
  0
LINE
  8
0
 10
302.024
 20
-39.376
 11
302.024
 21
-38.624
  0
LINE
  8
0
 10
302.024
 20
-38.624
 11
302.211
 21
-37.8956
  0
LINE
  8
0
 10
302.211
 20
-37.8956
 11
302.573
 21
-37.2366
  0
LINE
  8
0
 10
302.573
 20
-37.2366
 11
303.088
 21
-36.6885
  0
LINE
  8
0
 10
303.088
 20
-36.6885
 11
303.723
 21
-36.2855
  0
LINE
  8
0
 10
303.723
 20
-36.2855
 11
304.438
 21
-36.0531
  0
LINE
  8
0
 10
304.438
 20
-36.0531
 11
305.188
 21
-36.0059
  0
LINE
  8
0
 10
305.188
 20
-36.0059
 11
305.927
 21
-36.1468
  0
LINE
  8
0
 10
305.927
 20
-36.1468
 11
306.607
 21
-36.467
  0
LINE
  8
0
 10
306.607
 20
-36.467
 11
307.187
 21
-36.9464
  0
LINE
  8
0
 10
307.187
 20
-36.9464
 11
307.629
 21
-37.5547
  0
LINE
  8
0
 10
307.629
 20
-37.5547
 11
307.906
 21
-38.2539
  0
LINE
  8
0
 10
307.906
 20
-38.2539
 11
308
 21
-39
  0
LINE
  8
0
 10
308
 20
-39
 11
307.906
 21
-39.7461
  0
LINE
  8
0
 10
307.906
 20
-39.7461
 11
307.629
 21
-40.4453
  0
LINE
  8
0
 10
307.629
 20
-40.4453
 11
307.187
 21
-41.0536
  0
LINE
  8
0
 10
307.187
 20
-41.0536
 11
306.607
 21
-41.533
  0
LINE
  8
0
 10
306.607
 20
-41.533
 11
305.927
 21
-41.8532
  0
LINE
  8
0
 10
305.927
 20
-41.8532
 11
305.188
 21
-41.9941
  0
LINE
  8
0
 10
305.188
 20
-41.9941
 11
304.438
 21
-41.9469
  0
LINE
  8
0
 10
412.438
 20
-41.9469
 11
411.723
 21
-41.7145
  0
LINE
  8
0
 10
411.723
 20
-41.7145
 11
411.088
 21
-41.3115
  0
LINE
  8
0
 10
411.088
 20
-41.3115
 11
410.573
 21
-40.7634
  0
LINE
  8
0
 10
410.573
 20
-40.7634
 11
410.211
 21
-40.1044
  0
LINE
  8
0
 10
410.211
 20
-40.1044
 11
410.024
 21
-39.376
  0
LINE
  8
0
 10
410.024
 20
-39.376
 11
410.024
 21
-38.624
  0
LINE
  8
0
 10
410.024
 20
-38.624
 11
410.211
 21
-37.8956
  0
LINE
  8
0
 10
410.211
 20
-37.8956
 11
410.573
 21
-37.2366
  0
LINE
  8
0
 10
410.573
 20
-37.2366
 11
411.088
 21
-36.6885
  0
LINE
  8
0
 10
411.088
 20
-36.6885
 11
411.723
 21
-36.2855
  0
LINE
  8
0
 10
411.723
 20
-36.2855
 11
412.438
 21
-36.0531
  0
LINE
  8
0
 10
412.438
 20
-36.0531
 11
413.188
 21
-36.0059
  0
LINE
  8
0
 10
413.188
 20
-36.0059
 11
413.927
 21
-36.1468
  0
LINE
  8
0
 10
413.927
 20
-36.1468
 11
414.607
 21
-36.467
  0
LINE
  8
0
 10
414.607
 20
-36.467
 11
415.187
 21
-36.9464
  0
LINE
  8
0
 10
415.187
 20
-36.9464
 11
415.629
 21
-37.5547
  0
LINE
  8
0
 10
415.629
 20
-37.5547
 11
415.906
 21
-38.2539
  0
LINE
  8
0
 10
415.906
 20
-38.2539
 11
416
 21
-39
  0
LINE
  8
0
 10
416
 20
-39
 11
415.906
 21
-39.7461
  0
LINE
  8
0
 10
415.906
 20
-39.7461
 11
415.629
 21
-40.4453
  0
LINE
  8
0
 10
415.629
 20
-40.4453
 11
415.187
 21
-41.0536
  0
LINE
  8
0
 10
415.187
 20
-41.0536
 11
414.607
 21
-41.533
  0
LINE
  8
0
 10
414.607
 20
-41.533
 11
413.927
 21
-41.8532
  0
LINE
  8
0
 10
413.927
 20
-41.8532
 11
413.188
 21
-41.9941
  0
LINE
  8
0
 10
413.188
 20
-41.9941
 11
412.438
 21
-41.9469
  0
LINE
  8
0
 10
1712
 20
45
 11
1592
 21
45
  0
LINE
  8
0
 10
1592
 20
45
 11
1592
 21
29
  0
LINE
  8
0
 10
1592
 20
29
 11
1642
 21
29
  0
LINE
  8
0
 10
1642
 20
29
 11
1642
 21
27
  0
LINE
  8
0
 10
1642
 20
27
 11
1619.5
 21
27
  0
LINE
  8
0
 10
1619.5
 20
27
 11
1619.45
 21
26.627
  0
LINE
  8
0
 10
1619.45
 20
26.627
 11
1619.31
 21
26.2774
  0
LINE
  8
0
 10
1619.31
 20
26.2774
 11
1619.09
 21
25.9732
  0
LINE
  8
0
 10
1619.09
 20
25.9732
 11
1618.8
 21
25.7335
  0
LINE
  8
0
 10
1618.8
 20
25.7335
 11
1618.46
 21
25.5734
  0
LINE
  8
0
 10
1618.46
 20
25.5734
 11
1618.09
 21
25.503
  0
LINE
  8
0
 10
1618.09
 20
25.503
 11
1617.72
 21
25.5266
  0
LINE
  8
0
 10
1617.72
 20
25.5266
 11
1617.36
 21
25.6427
  0
LINE
  8
0
 10
1617.36
 20
25.6427
 11
1617.04
 21
25.8442
  0
LINE
  8
0
 10
1617.04
 20
25.8442
 11
1616.79
 21
26.1183
  0
LINE
  8
0
 10
1616.79
 20
26.1183
 11
1616.61
 21
26.4478
  0
LINE
  8
0
 10
1616.61
 20
26.4478
 11
1616.51
 21
26.812
  0
LINE
  8
0
 10
1616.51
 20
26.812
 11
1616.51
 21
27
  0
LINE
  8
0
 10
1616.51
 20
27
 11
1592
 21
27
  0
LINE
  8
0
 10
1592
 20
27
 11
1592
 21
22.5
  0
LINE
  8
0
 10
1592
 20
22.5
 11
1610
 21
22.5
  0
LINE
  8
0
 10
1610
 20
22.5
 11
1610
 21
15.005
  0
LINE
  8
0
 10
1610
 20
15.005
 11
1693.01
 21
15.005
  0
LINE
  8
0
 10
1693.01
 20
15.005
 11
1693.62
 21
14.9071
  0
LINE
  8
0
 10
1693.62
 20
14.9071
 11
1694.08
 21
14.6936
  0
LINE
  8
0
 10
1694.08
 20
14.6936
 11
1694.46
 21
14.3741
  0
LINE
  8
0
 10
1694.46
 20
14.3741
 11
1694.76
 21
13.9685
  0
LINE
  8
0
 10
1694.76
 20
13.9685
 11
1694.94
 21
13.5024
  0
LINE
  8
0
 10
1694.94
 20
13.5024
 11
1695.01
 21
13.005
  0
LINE
  8
0
 10
1695.01
 20
13.005
 11
1695.01
 21
-13.005
  0
LINE
  8
0
 10
1695.01
 20
-13.005
 11
1694.91
 21
-13.623
  0
LINE
  8
0
 10
1694.91
 20
-13.623
 11
1694.69
 21
-14.0766
  0
LINE
  8
0
 10
1694.69
 20
-14.0766
 11
1694.37
 21
-14.4629
  0
LINE
  8
0
 10
1694.37
 20
-14.4629
 11
1693.97
 21
-14.7576
  0
LINE
  8
0
 10
1693.97
 20
-14.7576
 11
1693.5
 21
-14.9422
  0
LINE
  8
0
 10
1693.5
 20
-14.9422
 11
1693.01
 21
-15.005
  0
LINE
  8
0
 10
1693.01
 20
-15.005
 11
1678.99
 21
-15.005
  0
LINE
  8
0
 10
1678.99
 20
-15.005
 11
1678.38
 21
-14.9071
  0
LINE
  8
0
 10
1678.38
 20
-14.9071
 11
1677.92
 21
-14.6936
  0
LINE
  8
0
 10
1677.92
 20
-14.6936
 11
1677.54
 21
-14.3741
  0
LINE
  8
0
 10
1677.54
 20
-14.3741
 11
1677.24
 21
-13.9685
  0
LINE
  8
0
 10
1677.24
 20
-13.9685
 11
1677.06
 21
-13.5024
  0
LINE
  8
0
 10
1677.06
 20
-13.5024
 11
1676.99
 21
-13.005
  0
LINE
  8
0
 10
1676.99
 20
-13.005
 11
1676.99
 21
-5.99501
  0
LINE
  8
0
 10
1676.99
 20
-5.99501
 11
1677.09
 21
-5.37698
  0
LINE
  8
0
 10
1677.09
 20
-5.37698
 11
1677.31
 21
-4.92336
  0
LINE
  8
0
 10
1677.31
 20
-4.92336
 11
1677.63
 21
-4.53708
  0
LINE
  8
0
 10
1677.63
 20
-4.53708
 11
1678.03
 21
-4.2424
  0
LINE
  8
0
 10
1678.03
 20
-4.2424
 11
1678.5
 21
-4.05785
  0
LINE
  8
0
 10
1678.5
 20
-4.05785
 11
1678.99
 21
-3.99501
  0
LINE
  8
0
 10
1678.99
 20
-3.99501
 11
1685.99
 21
-3.99501
  0
LINE
  8
0
 10
1685.99
 20
-3.99501
 11
1685.99
 21
3.99501
  0
LINE
  8
0
 10
1685.99
 20
3.99501
 11
1674.51
 21
3.99501
  0
LINE
  8
0
 10
1674.51
 20
3.99501
 11
1674.51
 21
-5.50499
  0
LINE
  8
0
 10
1674.51
 20
-5.50499
 11
1674.41
 21
-6.12302
  0
LINE
  8
0
 10
1674.41
 20
-6.12302
 11
1674.19
 21
-6.57664
  0
LINE
  8
0
 10
1674.19
 20
-6.57664
 11
1673.87
 21
-6.96292
  0
LINE
  8
0
 10
1673.87
 20
-6.96292
 11
1673.47
 21
-7.2576
  0
LINE
  8
0
 10
1673.47
 20
-7.2576
 11
1673
 21
-7.44215
  0
LINE
  8
0
 10
1673
 20
-7.44215
 11
1672.51
 21
-7.50499
  0
LINE
  8
0
 10
1672.51
 20
-7.50499
 11
1671.49
 21
-7.50499
  0
LINE
  8
0
 10
1671.49
 20
-7.50499
 11
1670.88
 21
-7.4071
  0
LINE
  8
0
 10
1670.88
 20
-7.4071
 11
1670.42
 21
-7.19365
  0
LINE
  8
0
 10
1670.42
 20
-7.19365
 11
1670.04
 21
-6.87408
  0
LINE
  8
0
 10
1670.04
 20
-6.87408
 11
1669.74
 21
-6.46849
  0
LINE
  8
0
 10
1669.74
 20
-6.46849
 11
1669.56
 21
-6.00237
  0
LINE
  8
0
 10
1669.56
 20
-6.00237
 11
1669.49
 21
-5.50499
  0
LINE
  8
0
 10
1669.49
 20
-5.50499
 11
1669.49
 21
3.99501
  0
LINE
  8
0
 10
1669.49
 20
3.99501
 11
1659.51
 21
3.99501
  0
LINE
  8
0
 10
1659.51
 20
3.99501
 11
1659.51
 21
-8.00499
  0
LINE
  8
0
 10
1659.51
 20
-8.00499
 11
1659.41
 21
-8.62302
  0
LINE
  8
0
 10
1659.41
 20
-8.62302
 11
1659.19
 21
-9.07664
  0
LINE
  8
0
 10
1659.19
 20
-9.07664
 11
1658.87
 21
-9.46292
  0
LINE
  8
0
 10
1658.87
 20
-9.46292
 11
1658.47
 21
-9.7576
  0
LINE
  8
0
 10
1658.47
 20
-9.7576
 11
1658
 21
-9.94215
  0
LINE
  8
0
 10
1658
 20
-9.94215
 11
1657.51
 21
-10.005
  0
LINE
  8
0
 10
1657.51
 20
-10.005
 11
1656.49
 21
-10.005
  0
LINE
  8
0
 10
1656.49
 20
-10.005
 11
1655.88
 21
-9.9071
  0
LINE
  8
0
 10
1655.88
 20
-9.9071
 11
1655.42
 21
-9.69365
  0
LINE
  8
0
 10
1655.42
 20
-9.69365
 11
1655.04
 21
-9.37408
  0
LINE
  8
0
 10
1655.04
 20
-9.37408
 11
1654.74
 21
-8.96849
  0
LINE
  8
0
 10
1654.74
 20
-8.96849
 11
1654.56
 21
-8.50237
  0
LINE
  8
0
 10
1654.56
 20
-8.50237
 11
1654.49
 21
-8.00499
  0
LINE
  8
0
 10
1654.49
 20
-8.00499
 11
1654.49
 21
-2.30412
  0
LINE
  8
0
 10
1654.49
 20
-2.30412
 11
1654.47
 21
-2.3219
  0
LINE
  8
0
 10
1654.47
 20
-2.3219
 11
1653.85
 21
-2.6154
  0
LINE
  8
0
 10
1653.85
 20
-2.6154
 11
1653.17
 21
-2.74457
  0
LINE
  8
0
 10
1653.17
 20
-2.74457
 11
1652.48
 21
-2.70128
  0
LINE
  8
0
 10
1652.48
 20
-2.70128
 11
1651.83
 21
-2.48827
  0
LINE
  8
0
 10
1651.83
 20
-2.48827
 11
1651.25
 21
-2.1189
  0
LINE
  8
0
 10
1651.25
 20
-2.1189
 11
1650.78
 21
-1.61641
  0
LINE
  8
0
 10
1650.78
 20
-1.61641
 11
1650.44
 21
-1.01233
  0
LINE
  8
0
 10
1650.44
 20
-1.01233
 11
1650.27
 21
-0.344666
  0
LINE
  8
0
 10
1650.27
 20
-0.344666
 11
1650.27
 21
0.344666
  0
LINE
  8
0
 10
1650.27
 20
0.344666
 11
1650.44
 21
1.01233
  0
LINE
  8
0
 10
1650.44
 20
1.01233
 11
1650.78
 21
1.61641
  0
LINE
  8
0
 10
1650.78
 20
1.61641
 11
1651.25
 21
2.1189
  0
LINE
  8
0
 10
1651.25
 20
2.1189
 11
1651.83
 21
2.48827
  0
LINE
  8
0
 10
1651.83
 20
2.48827
 11
1652.48
 21
2.70128
  0
LINE
  8
0
 10
1652.48
 20
2.70128
 11
1653.17
 21
2.74457
  0
LINE
  8
0
 10
1653.17
 20
2.74457
 11
1653.85
 21
2.6154
  0
LINE
  8
0
 10
1653.85
 20
2.6154
 11
1654.47
 21
2.3219
  0
LINE
  8
0
 10
1654.47
 20
2.3219
 11
1654.49
 21
2.30412
  0
LINE
  8
0
 10
1654.49
 20
2.30412
 11
1654.49
 21
3.99501
  0
LINE
  8
0
 10
1654.49
 20
3.99501
 11
1624
 21
3.99501
  0
LINE
  8
0
 10
1624
 20
3.99501
 11
1624
 21
-3.99501
  0
LINE
  8
0
 10
1624
 20
-3.99501
 11
1646.01
 21
-3.99501
  0
LINE
  8
0
 10
1646.01
 20
-3.99501
 11
1646.62
 21
-4.0929
  0
LINE
  8
0
 10
1646.62
 20
-4.0929
 11
1647.08
 21
-4.30635
  0
LINE
  8
0
 10
1647.08
 20
-4.30635
 11
1647.46
 21
-4.62592
  0
LINE
  8
0
 10
1647.46
 20
-4.62592
 11
1647.76
 21
-5.03151
  0
LINE
  8
0
 10
1647.76
 20
-5.03151
 11
1647.94
 21
-5.49763
  0
LINE
  8
0
 10
1647.94
 20
-5.49763
 11
1648.01
 21
-5.99501
  0
LINE
  8
0
 10
1648.01
 20
-5.99501
 11
1648.01
 21
-13.005
  0
LINE
  8
0
 10
1648.01
 20
-13.005
 11
1647.91
 21
-13.623
  0
LINE
  8
0
 10
1647.91
 20
-13.623
 11
1647.69
 21
-14.0766
  0
LINE
  8
0
 10
1647.69
 20
-14.0766
 11
1647.37
 21
-14.4629
  0
LINE
  8
0
 10
1647.37
 20
-14.4629
 11
1646.97
 21
-14.7576
  0
LINE
  8
0
 10
1646.97
 20
-14.7576
 11
1646.5
 21
-14.9422
  0
LINE
  8
0
 10
1646.5
 20
-14.9422
 11
1646.01
 21
-15.005
  0
LINE
  8
0
 10
1646.01
 20
-15.005
 11
1610
 21
-15.005
  0
LINE
  8
0
 10
1610
 20
-15.005
 11
1610
 21
-22.5
  0
LINE
  8
0
 10
1610
 20
-22.5
 11
1592
 21
-22.5
  0
LINE
  8
0
 10
1592
 20
-22.5
 11
1592
 21
-27
  0
LINE
  8
0
 10
1592
 20
-27
 11
1616.51
 21
-27
  0
LINE
  8
0
 10
1616.51
 20
-27
 11
1616.51
 21
-26.812
  0
LINE
  8
0
 10
1616.51
 20
-26.812
 11
1616.61
 21
-26.4478
  0
LINE
  8
0
 10
1616.61
 20
-26.4478
 11
1616.79
 21
-26.1183
  0
LINE
  8
0
 10
1616.79
 20
-26.1183
 11
1617.04
 21
-25.8442
  0
LINE
  8
0
 10
1617.04
 20
-25.8442
 11
1617.36
 21
-25.6427
  0
LINE
  8
0
 10
1617.36
 20
-25.6427
 11
1617.72
 21
-25.5266
  0
LINE
  8
0
 10
1617.72
 20
-25.5266
 11
1618.09
 21
-25.503
  0
LINE
  8
0
 10
1618.09
 20
-25.503
 11
1618.46
 21
-25.5734
  0
LINE
  8
0
 10
1618.46
 20
-25.5734
 11
1618.8
 21
-25.7335
  0
LINE
  8
0
 10
1618.8
 20
-25.7335
 11
1619.09
 21
-25.9732
  0
LINE
  8
0
 10
1619.09
 20
-25.9732
 11
1619.31
 21
-26.2774
  0
LINE
  8
0
 10
1619.31
 20
-26.2774
 11
1619.45
 21
-26.627
  0
LINE
  8
0
 10
1619.45
 20
-26.627
 11
1619.5
 21
-27
  0
LINE
  8
0
 10
1619.5
 20
-27
 11
1642
 21
-27
  0
LINE
  8
0
 10
1642
 20
-27
 11
1642
 21
-29
  0
LINE
  8
0
 10
1642
 20
-29
 11
1592
 21
-29
  0
LINE
  8
0
 10
1592
 20
-29
 11
1592
 21
-45
  0
LINE
  8
0
 10
1592
 20
-45
 11
1712
 21
-45
  0
LINE
  8
0
 10
1712
 20
-45
 11
1712
 21
45
  0
LINE
  8
0
 10
1705.44
 20
36.0531
 11
1704.72
 21
36.2855
  0
LINE
  8
0
 10
1704.72
 20
36.2855
 11
1704.09
 21
36.6885
  0
LINE
  8
0
 10
1704.09
 20
36.6885
 11
1703.57
 21
37.2366
  0
LINE
  8
0
 10
1703.57
 20
37.2366
 11
1703.21
 21
37.8956
  0
LINE
  8
0
 10
1703.21
 20
37.8956
 11
1703.02
 21
38.624
  0
LINE
  8
0
 10
1703.02
 20
38.624
 11
1703.02
 21
39.376
  0
LINE
  8
0
 10
1703.02
 20
39.376
 11
1703.21
 21
40.1044
  0
LINE
  8
0
 10
1703.21
 20
40.1044
 11
1703.57
 21
40.7634
  0
LINE
  8
0
 10
1703.57
 20
40.7634
 11
1704.09
 21
41.3115
  0
LINE
  8
0
 10
1704.09
 20
41.3115
 11
1704.72
 21
41.7145
  0
LINE
  8
0
 10
1704.72
 20
41.7145
 11
1705.44
 21
41.9469
  0
LINE
  8
0
 10
1705.44
 20
41.9469
 11
1706.19
 21
41.9941
  0
LINE
  8
0
 10
1706.19
 20
41.9941
 11
1706.93
 21
41.8532
  0
LINE
  8
0
 10
1706.93
 20
41.8532
 11
1707.61
 21
41.533
  0
LINE
  8
0
 10
1707.61
 20
41.533
 11
1708.19
 21
41.0536
  0
LINE
  8
0
 10
1708.19
 20
41.0536
 11
1708.63
 21
40.4453
  0
LINE
  8
0
 10
1708.63
 20
40.4453
 11
1708.91
 21
39.7461
  0
LINE
  8
0
 10
1708.91
 20
39.7461
 11
1709
 21
39
  0
LINE
  8
0
 10
1709
 20
39
 11
1708.91
 21
38.2539
  0
LINE
  8
0
 10
1708.91
 20
38.2539
 11
1708.63
 21
37.5547
  0
LINE
  8
0
 10
1708.63
 20
37.5547
 11
1708.19
 21
36.9464
  0
LINE
  8
0
 10
1708.19
 20
36.9464
 11
1707.61
 21
36.467
  0
LINE
  8
0
 10
1707.61
 20
36.467
 11
1706.93
 21
36.1468
  0
LINE
  8
0
 10
1706.93
 20
36.1468
 11
1706.19
 21
36.0059
  0
LINE
  8
0
 10
1706.19
 20
36.0059
 11
1705.44
 21
36.0531
  0
LINE
  8
0
 10
1597.44
 20
36.0531
 11
1596.72
 21
36.2855
  0
LINE
  8
0
 10
1596.72
 20
36.2855
 11
1596.09
 21
36.6885
  0
LINE
  8
0
 10
1596.09
 20
36.6885
 11
1595.57
 21
37.2366
  0
LINE
  8
0
 10
1595.57
 20
37.2366
 11
1595.21
 21
37.8956
  0
LINE
  8
0
 10
1595.21
 20
37.8956
 11
1595.02
 21
38.624
  0
LINE
  8
0
 10
1595.02
 20
38.624
 11
1595.02
 21
39.376
  0
LINE
  8
0
 10
1595.02
 20
39.376
 11
1595.21
 21
40.1044
  0
LINE
  8
0
 10
1595.21
 20
40.1044
 11
1595.57
 21
40.7634
  0
LINE
  8
0
 10
1595.57
 20
40.7634
 11
1596.09
 21
41.3115
  0
LINE
  8
0
 10
1596.09
 20
41.3115
 11
1596.72
 21
41.7145
  0
LINE
  8
0
 10
1596.72
 20
41.7145
 11
1597.44
 21
41.9469
  0
LINE
  8
0
 10
1597.44
 20
41.9469
 11
1598.19
 21
41.9941
  0
LINE
  8
0
 10
1598.19
 20
41.9941
 11
1598.93
 21
41.8532
  0
LINE
  8
0
 10
1598.93
 20
41.8532
 11
1599.61
 21
41.533
  0
LINE
  8
0
 10
1599.61
 20
41.533
 11
1600.19
 21
41.0536
  0
LINE
  8
0
 10
1600.19
 20
41.0536
 11
1600.63
 21
40.4453
  0
LINE
  8
0
 10
1600.63
 20
40.4453
 11
1600.91
 21
39.7461
  0
LINE
  8
0
 10
1600.91
 20
39.7461
 11
1601
 21
39
  0
LINE
  8
0
 10
1601
 20
39
 11
1600.91
 21
38.2539
  0
LINE
  8
0
 10
1600.91
 20
38.2539
 11
1600.63
 21
37.5547
  0
LINE
  8
0
 10
1600.63
 20
37.5547
 11
1600.19
 21
36.9464
  0
LINE
  8
0
 10
1600.19
 20
36.9464
 11
1599.61
 21
36.467
  0
LINE
  8
0
 10
1599.61
 20
36.467
 11
1598.93
 21
36.1468
  0
LINE
  8
0
 10
1598.93
 20
36.1468
 11
1598.19
 21
36.0059
  0
LINE
  8
0
 10
1598.19
 20
36.0059
 11
1597.44
 21
36.0531
  0
LINE
  8
0
 10
1667.72
 20
25.5266
 11
1667.36
 21
25.6427
  0
LINE
  8
0
 10
1667.36
 20
25.6427
 11
1667.04
 21
25.8442
  0
LINE
  8
0
 10
1667.04
 20
25.8442
 11
1666.79
 21
26.1183
  0
LINE
  8
0
 10
1666.79
 20
26.1183
 11
1666.61
 21
26.4478
  0
LINE
  8
0
 10
1666.61
 20
26.4478
 11
1666.51
 21
26.812
  0
LINE
  8
0
 10
1666.51
 20
26.812
 11
1666.51
 21
27.188
  0
LINE
  8
0
 10
1666.51
 20
27.188
 11
1666.61
 21
27.5522
  0
LINE
  8
0
 10
1666.61
 20
27.5522
 11
1666.79
 21
27.8817
  0
LINE
  8
0
 10
1666.79
 20
27.8817
 11
1667.04
 21
28.1558
  0
LINE
  8
0
 10
1667.04
 20
28.1558
 11
1667.36
 21
28.3572
  0
LINE
  8
0
 10
1667.36
 20
28.3572
 11
1667.72
 21
28.4734
  0
LINE
  8
0
 10
1667.72
 20
28.4734
 11
1668.09
 21
28.497
  0
LINE
  8
0
 10
1668.09
 20
28.497
 11
1668.46
 21
28.4266
  0
LINE
  8
0
 10
1668.46
 20
28.4266
 11
1668.8
 21
28.2665
  0
LINE
  8
0
 10
1668.8
 20
28.2665
 11
1669.09
 21
28.0268
  0
LINE
  8
0
 10
1669.09
 20
28.0268
 11
1669.31
 21
27.7226
  0
LINE
  8
0
 10
1669.31
 20
27.7226
 11
1669.45
 21
27.373
  0
LINE
  8
0
 10
1669.45
 20
27.373
 11
1669.5
 21
27
  0
LINE
  8
0
 10
1669.5
 20
27
 11
1669.45
 21
26.627
  0
LINE
  8
0
 10
1669.45
 20
26.627
 11
1669.31
 21
26.2774
  0
LINE
  8
0
 10
1669.31
 20
26.2774
 11
1669.09
 21
25.9732
  0
LINE
  8
0
 10
1669.09
 20
25.9732
 11
1668.8
 21
25.7335
  0
LINE
  8
0
 10
1668.8
 20
25.7335
 11
1668.46
 21
25.5734
  0
LINE
  8
0
 10
1668.46
 20
25.5734
 11
1668.09
 21
25.503
  0
LINE
  8
0
 10
1668.09
 20
25.503
 11
1667.72
 21
25.5266
  0
LINE
  8
0
 10
1682.48
 20
-2.70128
 11
1681.83
 21
-2.48827
  0
LINE
  8
0
 10
1681.83
 20
-2.48827
 11
1681.25
 21
-2.1189
  0
LINE
  8
0
 10
1681.25
 20
-2.1189
 11
1680.78
 21
-1.61641
  0
LINE
  8
0
 10
1680.78
 20
-1.61641
 11
1680.44
 21
-1.01233
  0
LINE
  8
0
 10
1680.44
 20
-1.01233
 11
1680.27
 21
-0.344666
  0
LINE
  8
0
 10
1680.27
 20
-0.344666
 11
1680.27
 21
0.344666
  0
LINE
  8
0
 10
1680.27
 20
0.344666
 11
1680.44
 21
1.01233
  0
LINE
  8
0
 10
1680.44
 20
1.01233
 11
1680.78
 21
1.61641
  0
LINE
  8
0
 10
1680.78
 20
1.61641
 11
1681.25
 21
2.1189
  0
LINE
  8
0
 10
1681.25
 20
2.1189
 11
1681.83
 21
2.48827
  0
LINE
  8
0
 10
1681.83
 20
2.48827
 11
1682.48
 21
2.70128
  0
LINE
  8
0
 10
1682.48
 20
2.70128
 11
1683.17
 21
2.74457
  0
LINE
  8
0
 10
1683.17
 20
2.74457
 11
1683.85
 21
2.6154
  0
LINE
  8
0
 10
1683.85
 20
2.6154
 11
1684.47
 21
2.3219
  0
LINE
  8
0
 10
1684.47
 20
2.3219
 11
1685
 21
1.88249
  0
LINE
  8
0
 10
1685
 20
1.88249
 11
1685.41
 21
1.32481
  0
LINE
  8
0
 10
1685.41
 20
1.32481
 11
1685.66
 21
0.683884
  0
LINE
  8
0
 10
1685.66
 20
0.683884
 11
1685.75
 21
0
  0
LINE
  8
0
 10
1685.75
 20
0
 11
1685.66
 21
-0.683884
  0
LINE
  8
0
 10
1685.66
 20
-0.683884
 11
1685.41
 21
-1.32481
  0
LINE
  8
0
 10
1685.41
 20
-1.32481
 11
1685
 21
-1.88249
  0
LINE
  8
0
 10
1685
 20
-1.88249
 11
1684.47
 21
-2.3219
  0
LINE
  8
0
 10
1684.47
 20
-2.3219
 11
1683.85
 21
-2.6154
  0
LINE
  8
0
 10
1683.85
 20
-2.6154
 11
1683.17
 21
-2.74457
  0
LINE
  8
0
 10
1683.17
 20
-2.74457
 11
1682.48
 21
-2.70128
  0
LINE
  8
0
 10
1676.72
 20
-1.47342
 11
1676.36
 21
-1.35724
  0
LINE
  8
0
 10
1676.36
 20
-1.35724
 11
1676.04
 21
-1.15576
  0
LINE
  8
0
 10
1676.04
 20
-1.15576
 11
1675.79
 21
-0.881668
  0
LINE
  8
0
 10
1675.79
 20
-0.881668
 11
1675.61
 21
-0.552185
  0
LINE
  8
0
 10
1675.61
 20
-0.552185
 11
1675.51
 21
-0.187988
  0
LINE
  8
0
 10
1675.51
 20
-0.187988
 11
1675.51
 21
0.187988
  0
LINE
  8
0
 10
1675.51
 20
0.187988
 11
1675.61
 21
0.552185
  0
LINE
  8
0
 10
1675.61
 20
0.552185
 11
1675.79
 21
0.881668
  0
LINE
  8
0
 10
1675.79
 20
0.881668
 11
1676.04
 21
1.15576
  0
LINE
  8
0
 10
1676.04
 20
1.15576
 11
1676.36
 21
1.35724
  0
LINE
  8
0
 10
1676.36
 20
1.35724
 11
1676.72
 21
1.47342
  0
LINE
  8
0
 10
1676.72
 20
1.47342
 11
1677.09
 21
1.49704
  0
LINE
  8
0
 10
1677.09
 20
1.49704
 11
1677.46
 21
1.42657
  0
LINE
  8
0
 10
1677.46
 20
1.42657
 11
1677.8
 21
1.26648
  0
LINE
  8
0
 10
1677.8
 20
1.26648
 11
1678.09
 21
1.02681
  0
LINE
  8
0
 10
1678.09
 20
1.02681
 11
1678.31
 21
0.722626
  0
LINE
  8
0
 10
1678.31
 20
0.722626
 11
1678.45
 21
0.373032
  0
LINE
  8
0
 10
1678.45
 20
0.373032
 11
1678.5
 21
0
  0
LINE
  8
0
 10
1678.5
 20
0
 11
1678.45
 21
-0.373032
  0
LINE
  8
0
 10
1678.45
 20
-0.373032
 11
1678.31
 21
-0.722626
  0
LINE
  8
0
 10
1678.31
 20
-0.722626
 11
1678.09
 21
-1.02681
  0
LINE
  8
0
 10
1678.09
 20
-1.02681
 11
1677.8
 21
-1.26648
  0
LINE
  8
0
 10
1677.8
 20
-1.26648
 11
1677.46
 21
-1.42657
  0
LINE
  8
0
 10
1677.46
 20
-1.42657
 11
1677.09
 21
-1.49704
  0
LINE
  8
0
 10
1677.09
 20
-1.49704
 11
1676.72
 21
-1.47342
  0
LINE
  8
0
 10
1667.72
 20
-28.4734
 11
1667.36
 21
-28.3572
  0
LINE
  8
0
 10
1667.36
 20
-28.3572
 11
1667.04
 21
-28.1558
  0
LINE
  8
0
 10
1667.04
 20
-28.1558
 11
1666.79
 21
-27.8817
  0
LINE
  8
0
 10
1666.79
 20
-27.8817
 11
1666.61
 21
-27.5522
  0
LINE
  8
0
 10
1666.61
 20
-27.5522
 11
1666.51
 21
-27.188
  0
LINE
  8
0
 10
1666.51
 20
-27.188
 11
1666.51
 21
-26.812
  0
LINE
  8
0
 10
1666.51
 20
-26.812
 11
1666.61
 21
-26.4478
  0
LINE
  8
0
 10
1666.61
 20
-26.4478
 11
1666.79
 21
-26.1183
  0
LINE
  8
0
 10
1666.79
 20
-26.1183
 11
1667.04
 21
-25.8442
  0
LINE
  8
0
 10
1667.04
 20
-25.8442
 11
1667.36
 21
-25.6427
  0
LINE
  8
0
 10
1667.36
 20
-25.6427
 11
1667.72
 21
-25.5266
  0
LINE
  8
0
 10
1667.72
 20
-25.5266
 11
1668.09
 21
-25.503
  0
LINE
  8
0
 10
1668.09
 20
-25.503
 11
1668.46
 21
-25.5734
  0
LINE
  8
0
 10
1668.46
 20
-25.5734
 11
1668.8
 21
-25.7335
  0
LINE
  8
0
 10
1668.8
 20
-25.7335
 11
1669.09
 21
-25.9732
  0
LINE
  8
0
 10
1669.09
 20
-25.9732
 11
1669.31
 21
-26.2774
  0
LINE
  8
0
 10
1669.31
 20
-26.2774
 11
1669.45
 21
-26.627
  0
LINE
  8
0
 10
1669.45
 20
-26.627
 11
1669.5
 21
-27
  0
LINE
  8
0
 10
1669.5
 20
-27
 11
1669.45
 21
-27.373
  0
LINE
  8
0
 10
1669.45
 20
-27.373
 11
1669.31
 21
-27.7226
  0
LINE
  8
0
 10
1669.31
 20
-27.7226
 11
1669.09
 21
-28.0268
  0
LINE
  8
0
 10
1669.09
 20
-28.0268
 11
1668.8
 21
-28.2665
  0
LINE
  8
0
 10
1668.8
 20
-28.2665
 11
1668.46
 21
-28.4266
  0
LINE
  8
0
 10
1668.46
 20
-28.4266
 11
1668.09
 21
-28.497
  0
LINE
  8
0
 10
1668.09
 20
-28.497
 11
1667.72
 21
-28.4734
  0
LINE
  8
0
 10
1705.44
 20
-41.9469
 11
1704.72
 21
-41.7145
  0
LINE
  8
0
 10
1704.72
 20
-41.7145
 11
1704.09
 21
-41.3115
  0
LINE
  8
0
 10
1704.09
 20
-41.3115
 11
1703.57
 21
-40.7634
  0
LINE
  8
0
 10
1703.57
 20
-40.7634
 11
1703.21
 21
-40.1044
  0
LINE
  8
0
 10
1703.21
 20
-40.1044
 11
1703.02
 21
-39.376
  0
LINE
  8
0
 10
1703.02
 20
-39.376
 11
1703.02
 21
-38.624
  0
LINE
  8
0
 10
1703.02
 20
-38.624
 11
1703.21
 21
-37.8956
  0
LINE
  8
0
 10
1703.21
 20
-37.8956
 11
1703.57
 21
-37.2366
  0
LINE
  8
0
 10
1703.57
 20
-37.2366
 11
1704.09
 21
-36.6885
  0
LINE
  8
0
 10
1704.09
 20
-36.6885
 11
1704.72
 21
-36.2855
  0
LINE
  8
0
 10
1704.72
 20
-36.2855
 11
1705.44
 21
-36.0531
  0
LINE
  8
0
 10
1705.44
 20
-36.0531
 11
1706.19
 21
-36.0059
  0
LINE
  8
0
 10
1706.19
 20
-36.0059
 11
1706.93
 21
-36.1468
  0
LINE
  8
0
 10
1706.93
 20
-36.1468
 11
1707.61
 21
-36.467
  0
LINE
  8
0
 10
1707.61
 20
-36.467
 11
1708.19
 21
-36.9464
  0
LINE
  8
0
 10
1708.19
 20
-36.9464
 11
1708.63
 21
-37.5547
  0
LINE
  8
0
 10
1708.63
 20
-37.5547
 11
1708.91
 21
-38.2539
  0
LINE
  8
0
 10
1708.91
 20
-38.2539
 11
1709
 21
-39
  0
LINE
  8
0
 10
1709
 20
-39
 11
1708.91
 21
-39.7461
  0
LINE
  8
0
 10
1708.91
 20
-39.7461
 11
1708.63
 21
-40.4453
  0
LINE
  8
0
 10
1708.63
 20
-40.4453
 11
1708.19
 21
-41.0536
  0
LINE
  8
0
 10
1708.19
 20
-41.0536
 11
1707.61
 21
-41.533
  0
LINE
  8
0
 10
1707.61
 20
-41.533
 11
1706.93
 21
-41.8532
  0
LINE
  8
0
 10
1706.93
 20
-41.8532
 11
1706.19
 21
-41.9941
  0
LINE
  8
0
 10
1706.19
 20
-41.9941
 11
1705.44
 21
-41.9469
  0
LINE
  8
0
 10
1597.44
 20
-41.9469
 11
1596.72
 21
-41.7145
  0
LINE
  8
0
 10
1596.72
 20
-41.7145
 11
1596.09
 21
-41.3115
  0
LINE
  8
0
 10
1596.09
 20
-41.3115
 11
1595.57
 21
-40.7634
  0
LINE
  8
0
 10
1595.57
 20
-40.7634
 11
1595.21
 21
-40.1044
  0
LINE
  8
0
 10
1595.21
 20
-40.1044
 11
1595.02
 21
-39.376
  0
LINE
  8
0
 10
1595.02
 20
-39.376
 11
1595.02
 21
-38.624
  0
LINE
  8
0
 10
1595.02
 20
-38.624
 11
1595.21
 21
-37.8956
  0
LINE
  8
0
 10
1595.21
 20
-37.8956
 11
1595.57
 21
-37.2366
  0
LINE
  8
0
 10
1595.57
 20
-37.2366
 11
1596.09
 21
-36.6885
  0
LINE
  8
0
 10
1596.09
 20
-36.6885
 11
1596.72
 21
-36.2855
  0
LINE
  8
0
 10
1596.72
 20
-36.2855
 11
1597.44
 21
-36.0531
  0
LINE
  8
0
 10
1597.44
 20
-36.0531
 11
1598.19
 21
-36.0059
  0
LINE
  8
0
 10
1598.19
 20
-36.0059
 11
1598.93
 21
-36.1468
  0
LINE
  8
0
 10
1598.93
 20
-36.1468
 11
1599.61
 21
-36.467
  0
LINE
  8
0
 10
1599.61
 20
-36.467
 11
1600.19
 21
-36.9464
  0
LINE
  8
0
 10
1600.19
 20
-36.9464
 11
1600.63
 21
-37.5547
  0
LINE
  8
0
 10
1600.63
 20
-37.5547
 11
1600.91
 21
-38.2539
  0
LINE
  8
0
 10
1600.91
 20
-38.2539
 11
1601
 21
-39
  0
LINE
  8
0
 10
1601
 20
-39
 11
1600.91
 21
-39.7461
  0
LINE
  8
0
 10
1600.91
 20
-39.7461
 11
1600.63
 21
-40.4453
  0
LINE
  8
0
 10
1600.63
 20
-40.4453
 11
1600.19
 21
-41.0536
  0
LINE
  8
0
 10
1600.19
 20
-41.0536
 11
1599.61
 21
-41.533
  0
LINE
  8
0
 10
1599.61
 20
-41.533
 11
1598.93
 21
-41.8532
  0
LINE
  8
0
 10
1598.93
 20
-41.8532
 11
1598.19
 21
-41.9941
  0
LINE
  8
0
 10
1598.19
 20
-41.9941
 11
1597.44
 21
-41.9469
  0
LINE
  8
0
 10
2327
 20
-29.5
 11
2239
 21
-29.5
  0
LINE
  8
0
 10
2239
 20
-29.5
 11
2239
 21
-12.5
  0
LINE
  8
0
 10
2239
 20
-12.5
 11
2214
 21
-12.5
  0
LINE
  8
0
 10
2214
 20
-12.5
 11
2214
 21
12.5
  0
LINE
  8
0
 10
2214
 20
12.5
 11
2239
 21
12.5
  0
LINE
  8
0
 10
2239
 20
12.5
 11
2239
 21
29.5
  0
LINE
  8
0
 10
2239
 20
29.5
 11
2327
 21
29.5
  0
LINE
  8
0
 10
2327
 20
29.5
 11
2327
 21
45
  0
LINE
  8
0
 10
2327
 20
45
 11
2207
 21
45
  0
LINE
  8
0
 10
2207
 20
45
 11
2207
 21
-45
  0
LINE
  8
0
 10
2207
 20
-45
 11
2327
 21
-45
  0
LINE
  8
0
 10
2327
 20
-45
 11
2327
 21
-29.5
  0
LINE
  8
0
 10
2212.44
 20
36.0531
 11
2211.72
 21
36.2855
  0
LINE
  8
0
 10
2211.72
 20
36.2855
 11
2211.09
 21
36.6885
  0
LINE
  8
0
 10
2211.09
 20
36.6885
 11
2210.57
 21
37.2366
  0
LINE
  8
0
 10
2210.57
 20
37.2366
 11
2210.21
 21
37.8956
  0
LINE
  8
0
 10
2210.21
 20
37.8956
 11
2210.02
 21
38.624
  0
LINE
  8
0
 10
2210.02
 20
38.624
 11
2210.02
 21
39.376
  0
LINE
  8
0
 10
2210.02
 20
39.376
 11
2210.21
 21
40.1044
  0
LINE
  8
0
 10
2210.21
 20
40.1044
 11
2210.57
 21
40.7634
  0
LINE
  8
0
 10
2210.57
 20
40.7634
 11
2211.09
 21
41.3115
  0
LINE
  8
0
 10
2211.09
 20
41.3115
 11
2211.72
 21
41.7145
  0
LINE
  8
0
 10
2211.72
 20
41.7145
 11
2212.44
 21
41.9469
  0
LINE
  8
0
 10
2212.44
 20
41.9469
 11
2213.19
 21
41.9941
  0
LINE
  8
0
 10
2213.19
 20
41.9941
 11
2213.93
 21
41.8532
  0
LINE
  8
0
 10
2213.93
 20
41.8532
 11
2214.61
 21
41.533
  0
LINE
  8
0
 10
2214.61
 20
41.533
 11
2215.19
 21
41.0536
  0
LINE
  8
0
 10
2215.19
 20
41.0536
 11
2215.63
 21
40.4453
  0
LINE
  8
0
 10
2215.63
 20
40.4453
 11
2215.91
 21
39.7461
  0
LINE
  8
0
 10
2215.91
 20
39.7461
 11
2216
 21
39
  0
LINE
  8
0
 10
2216
 20
39
 11
2215.91
 21
38.2539
  0
LINE
  8
0
 10
2215.91
 20
38.2539
 11
2215.63
 21
37.5547
  0
LINE
  8
0
 10
2215.63
 20
37.5547
 11
2215.19
 21
36.9464
  0
LINE
  8
0
 10
2215.19
 20
36.9464
 11
2214.61
 21
36.467
  0
LINE
  8
0
 10
2214.61
 20
36.467
 11
2213.93
 21
36.1468
  0
LINE
  8
0
 10
2213.93
 20
36.1468
 11
2213.19
 21
36.0059
  0
LINE
  8
0
 10
2213.19
 20
36.0059
 11
2212.44
 21
36.0531
  0
LINE
  8
0
 10
2320.44
 20
36.0531
 11
2319.72
 21
36.2855
  0
LINE
  8
0
 10
2319.72
 20
36.2855
 11
2319.09
 21
36.6885
  0
LINE
  8
0
 10
2319.09
 20
36.6885
 11
2318.57
 21
37.2366
  0
LINE
  8
0
 10
2318.57
 20
37.2366
 11
2318.21
 21
37.8956
  0
LINE
  8
0
 10
2318.21
 20
37.8956
 11
2318.02
 21
38.624
  0
LINE
  8
0
 10
2318.02
 20
38.624
 11
2318.02
 21
39.376
  0
LINE
  8
0
 10
2318.02
 20
39.376
 11
2318.21
 21
40.1044
  0
LINE
  8
0
 10
2318.21
 20
40.1044
 11
2318.57
 21
40.7634
  0
LINE
  8
0
 10
2318.57
 20
40.7634
 11
2319.09
 21
41.3115
  0
LINE
  8
0
 10
2319.09
 20
41.3115
 11
2319.72
 21
41.7145
  0
LINE
  8
0
 10
2319.72
 20
41.7145
 11
2320.44
 21
41.9469
  0
LINE
  8
0
 10
2320.44
 20
41.9469
 11
2321.19
 21
41.9941
  0
LINE
  8
0
 10
2321.19
 20
41.9941
 11
2321.93
 21
41.8532
  0
LINE
  8
0
 10
2321.93
 20
41.8532
 11
2322.61
 21
41.533
  0
LINE
  8
0
 10
2322.61
 20
41.533
 11
2323.19
 21
41.0536
  0
LINE
  8
0
 10
2323.19
 20
41.0536
 11
2323.63
 21
40.4453
  0
LINE
  8
0
 10
2323.63
 20
40.4453
 11
2323.91
 21
39.7461
  0
LINE
  8
0
 10
2323.91
 20
39.7461
 11
2324
 21
39
  0
LINE
  8
0
 10
2324
 20
39
 11
2323.91
 21
38.2539
  0
LINE
  8
0
 10
2323.91
 20
38.2539
 11
2323.63
 21
37.5547
  0
LINE
  8
0
 10
2323.63
 20
37.5547
 11
2323.19
 21
36.9464
  0
LINE
  8
0
 10
2323.19
 20
36.9464
 11
2322.61
 21
36.467
  0
LINE
  8
0
 10
2322.61
 20
36.467
 11
2321.93
 21
36.1468
  0
LINE
  8
0
 10
2321.93
 20
36.1468
 11
2321.19
 21
36.0059
  0
LINE
  8
0
 10
2321.19
 20
36.0059
 11
2320.44
 21
36.0531
  0
LINE
  8
0
 10
2232.72
 20
25.5266
 11
2232.36
 21
25.6427
  0
LINE
  8
0
 10
2232.36
 20
25.6427
 11
2232.04
 21
25.8442
  0
LINE
  8
0
 10
2232.04
 20
25.8442
 11
2231.79
 21
26.1183
  0
LINE
  8
0
 10
2231.79
 20
26.1183
 11
2231.61
 21
26.4478
  0
LINE
  8
0
 10
2231.61
 20
26.4478
 11
2231.51
 21
26.812
  0
LINE
  8
0
 10
2231.51
 20
26.812
 11
2231.51
 21
27.188
  0
LINE
  8
0
 10
2231.51
 20
27.188
 11
2231.61
 21
27.5522
  0
LINE
  8
0
 10
2231.61
 20
27.5522
 11
2231.79
 21
27.8817
  0
LINE
  8
0
 10
2231.79
 20
27.8817
 11
2232.04
 21
28.1558
  0
LINE
  8
0
 10
2232.04
 20
28.1558
 11
2232.36
 21
28.3572
  0
LINE
  8
0
 10
2232.36
 20
28.3572
 11
2232.72
 21
28.4734
  0
LINE
  8
0
 10
2232.72
 20
28.4734
 11
2233.09
 21
28.497
  0
LINE
  8
0
 10
2233.09
 20
28.497
 11
2233.46
 21
28.4266
  0
LINE
  8
0
 10
2233.46
 20
28.4266
 11
2233.8
 21
28.2665
  0
LINE
  8
0
 10
2233.8
 20
28.2665
 11
2234.09
 21
28.0268
  0
LINE
  8
0
 10
2234.09
 20
28.0268
 11
2234.31
 21
27.7226
  0
LINE
  8
0
 10
2234.31
 20
27.7226
 11
2234.45
 21
27.373
  0
LINE
  8
0
 10
2234.45
 20
27.373
 11
2234.5
 21
27
  0
LINE
  8
0
 10
2234.5
 20
27
 11
2234.45
 21
26.627
  0
LINE
  8
0
 10
2234.45
 20
26.627
 11
2234.31
 21
26.2774
  0
LINE
  8
0
 10
2234.31
 20
26.2774
 11
2234.09
 21
25.9732
  0
LINE
  8
0
 10
2234.09
 20
25.9732
 11
2233.8
 21
25.7335
  0
LINE
  8
0
 10
2233.8
 20
25.7335
 11
2233.46
 21
25.5734
  0
LINE
  8
0
 10
2233.46
 20
25.5734
 11
2233.09
 21
25.503
  0
LINE
  8
0
 10
2233.09
 20
25.503
 11
2232.72
 21
25.5266
  0
LINE
  8
0
 10
2232.72
 20
-28.4734
 11
2232.36
 21
-28.3572
  0
LINE
  8
0
 10
2232.36
 20
-28.3572
 11
2232.04
 21
-28.1558
  0
LINE
  8
0
 10
2232.04
 20
-28.1558
 11
2231.79
 21
-27.8817
  0
LINE
  8
0
 10
2231.79
 20
-27.8817
 11
2231.61
 21
-27.5522
  0
LINE
  8
0
 10
2231.61
 20
-27.5522
 11
2231.51
 21
-27.188
  0
LINE
  8
0
 10
2231.51
 20
-27.188
 11
2231.51
 21
-26.812
  0
LINE
  8
0
 10
2231.51
 20
-26.812
 11
2231.61
 21
-26.4478
  0
LINE
  8
0
 10
2231.61
 20
-26.4478
 11
2231.79
 21
-26.1183
  0
LINE
  8
0
 10
2231.79
 20
-26.1183
 11
2232.04
 21
-25.8442
  0
LINE
  8
0
 10
2232.04
 20
-25.8442
 11
2232.36
 21
-25.6427
  0
LINE
  8
0
 10
2232.36
 20
-25.6427
 11
2232.72
 21
-25.5266
  0
LINE
  8
0
 10
2232.72
 20
-25.5266
 11
2233.09
 21
-25.503
  0
LINE
  8
0
 10
2233.09
 20
-25.503
 11
2233.46
 21
-25.5734
  0
LINE
  8
0
 10
2233.46
 20
-25.5734
 11
2233.8
 21
-25.7335
  0
LINE
  8
0
 10
2233.8
 20
-25.7335
 11
2234.09
 21
-25.9732
  0
LINE
  8
0
 10
2234.09
 20
-25.9732
 11
2234.31
 21
-26.2774
  0
LINE
  8
0
 10
2234.31
 20
-26.2774
 11
2234.45
 21
-26.627
  0
LINE
  8
0
 10
2234.45
 20
-26.627
 11
2234.5
 21
-27
  0
LINE
  8
0
 10
2234.5
 20
-27
 11
2234.45
 21
-27.373
  0
LINE
  8
0
 10
2234.45
 20
-27.373
 11
2234.31
 21
-27.7226
  0
LINE
  8
0
 10
2234.31
 20
-27.7226
 11
2234.09
 21
-28.0268
  0
LINE
  8
0
 10
2234.09
 20
-28.0268
 11
2233.8
 21
-28.2665
  0
LINE
  8
0
 10
2233.8
 20
-28.2665
 11
2233.46
 21
-28.4266
  0
LINE
  8
0
 10
2233.46
 20
-28.4266
 11
2233.09
 21
-28.497
  0
LINE
  8
0
 10
2233.09
 20
-28.497
 11
2232.72
 21
-28.4734
  0
LINE
  8
0
 10
2212.44
 20
-41.9469
 11
2211.72
 21
-41.7145
  0
LINE
  8
0
 10
2211.72
 20
-41.7145
 11
2211.09
 21
-41.3115
  0
LINE
  8
0
 10
2211.09
 20
-41.3115
 11
2210.57
 21
-40.7634
  0
LINE
  8
0
 10
2210.57
 20
-40.7634
 11
2210.21
 21
-40.1044
  0
LINE
  8
0
 10
2210.21
 20
-40.1044
 11
2210.02
 21
-39.376
  0
LINE
  8
0
 10
2210.02
 20
-39.376
 11
2210.02
 21
-38.624
  0
LINE
  8
0
 10
2210.02
 20
-38.624
 11
2210.21
 21
-37.8956
  0
LINE
  8
0
 10
2210.21
 20
-37.8956
 11
2210.57
 21
-37.2366
  0
LINE
  8
0
 10
2210.57
 20
-37.2366
 11
2211.09
 21
-36.6885
  0
LINE
  8
0
 10
2211.09
 20
-36.6885
 11
2211.72
 21
-36.2855
  0
LINE
  8
0
 10
2211.72
 20
-36.2855
 11
2212.44
 21
-36.0531
  0
LINE
  8
0
 10
2212.44
 20
-36.0531
 11
2213.19
 21
-36.0059
  0
LINE
  8
0
 10
2213.19
 20
-36.0059
 11
2213.93
 21
-36.1468
  0
LINE
  8
0
 10
2213.93
 20
-36.1468
 11
2214.61
 21
-36.467
  0
LINE
  8
0
 10
2214.61
 20
-36.467
 11
2215.19
 21
-36.9464
  0
LINE
  8
0
 10
2215.19
 20
-36.9464
 11
2215.63
 21
-37.5547
  0
LINE
  8
0
 10
2215.63
 20
-37.5547
 11
2215.91
 21
-38.2539
  0
LINE
  8
0
 10
2215.91
 20
-38.2539
 11
2216
 21
-39
  0
LINE
  8
0
 10
2216
 20
-39
 11
2215.91
 21
-39.7461
  0
LINE
  8
0
 10
2215.91
 20
-39.7461
 11
2215.63
 21
-40.4453
  0
LINE
  8
0
 10
2215.63
 20
-40.4453
 11
2215.19
 21
-41.0536
  0
LINE
  8
0
 10
2215.19
 20
-41.0536
 11
2214.61
 21
-41.533
  0
LINE
  8
0
 10
2214.61
 20
-41.533
 11
2213.93
 21
-41.8532
  0
LINE
  8
0
 10
2213.93
 20
-41.8532
 11
2213.19
 21
-41.9941
  0
LINE
  8
0
 10
2213.19
 20
-41.9941
 11
2212.44
 21
-41.9469
  0
LINE
  8
0
 10
2320.44
 20
-41.9469
 11
2319.72
 21
-41.7145
  0
LINE
  8
0
 10
2319.72
 20
-41.7145
 11
2319.09
 21
-41.3115
  0
LINE
  8
0
 10
2319.09
 20
-41.3115
 11
2318.57
 21
-40.7634
  0
LINE
  8
0
 10
2318.57
 20
-40.7634
 11
2318.21
 21
-40.1044
  0
LINE
  8
0
 10
2318.21
 20
-40.1044
 11
2318.02
 21
-39.376
  0
LINE
  8
0
 10
2318.02
 20
-39.376
 11
2318.02
 21
-38.624
  0
LINE
  8
0
 10
2318.02
 20
-38.624
 11
2318.21
 21
-37.8956
  0
LINE
  8
0
 10
2318.21
 20
-37.8956
 11
2318.57
 21
-37.2366
  0
LINE
  8
0
 10
2318.57
 20
-37.2366
 11
2319.09
 21
-36.6885
  0
LINE
  8
0
 10
2319.09
 20
-36.6885
 11
2319.72
 21
-36.2855
  0
LINE
  8
0
 10
2319.72
 20
-36.2855
 11
2320.44
 21
-36.0531
  0
LINE
  8
0
 10
2320.44
 20
-36.0531
 11
2321.19
 21
-36.0059
  0
LINE
  8
0
 10
2321.19
 20
-36.0059
 11
2321.93
 21
-36.1468
  0
LINE
  8
0
 10
2321.93
 20
-36.1468
 11
2322.61
 21
-36.467
  0
LINE
  8
0
 10
2322.61
 20
-36.467
 11
2323.19
 21
-36.9464
  0
LINE
  8
0
 10
2323.19
 20
-36.9464
 11
2323.63
 21
-37.5547
  0
LINE
  8
0
 10
2323.63
 20
-37.5547
 11
2323.91
 21
-38.2539
  0
LINE
  8
0
 10
2323.91
 20
-38.2539
 11
2324
 21
-39
  0
LINE
  8
0
 10
2324
 20
-39
 11
2323.91
 21
-39.7461
  0
LINE
  8
0
 10
2323.91
 20
-39.7461
 11
2323.63
 21
-40.4453
  0
LINE
  8
0
 10
2323.63
 20
-40.4453
 11
2323.19
 21
-41.0536
  0
LINE
  8
0
 10
2323.19
 20
-41.0536
 11
2322.61
 21
-41.533
  0
LINE
  8
0
 10
2322.61
 20
-41.533
 11
2321.93
 21
-41.8532
  0
LINE
  8
0
 10
2321.93
 20
-41.8532
 11
2321.19
 21
-41.9941
  0
LINE
  8
0
 10
2321.19
 20
-41.9941
 11
2320.44
 21
-41.9469
  0
LINE
  8
0
 10
1589
 20
45
 11
1469
 21
45
  0
LINE
  8
0
 10
1469
 20
45
 11
1469
 21
34
  0
LINE
  8
0
 10
1469
 20
34
 11
1580
 21
34
  0
LINE
  8
0
 10
1580
 20
34
 11
1580
 21
-34
  0
LINE
  8
0
 10
1580
 20
-34
 11
1469
 21
-34
  0
LINE
  8
0
 10
1469
 20
-34
 11
1469
 21
-45
  0
LINE
  8
0
 10
1469
 20
-45
 11
1589
 21
-45
  0
LINE
  8
0
 10
1589
 20
-45
 11
1589
 21
45
  0
LINE
  8
0
 10
1582.44
 20
36.0531
 11
1581.72
 21
36.2855
  0
LINE
  8
0
 10
1581.72
 20
36.2855
 11
1581.09
 21
36.6885
  0
LINE
  8
0
 10
1581.09
 20
36.6885
 11
1580.57
 21
37.2366
  0
LINE
  8
0
 10
1580.57
 20
37.2366
 11
1580.21
 21
37.8956
  0
LINE
  8
0
 10
1580.21
 20
37.8956
 11
1580.02
 21
38.624
  0
LINE
  8
0
 10
1580.02
 20
38.624
 11
1580.02
 21
39.376
  0
LINE
  8
0
 10
1580.02
 20
39.376
 11
1580.21
 21
40.1044
  0
LINE
  8
0
 10
1580.21
 20
40.1044
 11
1580.57
 21
40.7634
  0
LINE
  8
0
 10
1580.57
 20
40.7634
 11
1581.09
 21
41.3115
  0
LINE
  8
0
 10
1581.09
 20
41.3115
 11
1581.72
 21
41.7145
  0
LINE
  8
0
 10
1581.72
 20
41.7145
 11
1582.44
 21
41.9469
  0
LINE
  8
0
 10
1582.44
 20
41.9469
 11
1583.19
 21
41.9941
  0
LINE
  8
0
 10
1583.19
 20
41.9941
 11
1583.93
 21
41.8532
  0
LINE
  8
0
 10
1583.93
 20
41.8532
 11
1584.61
 21
41.533
  0
LINE
  8
0
 10
1584.61
 20
41.533
 11
1585.19
 21
41.0536
  0
LINE
  8
0
 10
1585.19
 20
41.0536
 11
1585.63
 21
40.4453
  0
LINE
  8
0
 10
1585.63
 20
40.4453
 11
1585.91
 21
39.7461
  0
LINE
  8
0
 10
1585.91
 20
39.7461
 11
1586
 21
39
  0
LINE
  8
0
 10
1586
 20
39
 11
1585.91
 21
38.2539
  0
LINE
  8
0
 10
1585.91
 20
38.2539
 11
1585.63
 21
37.5547
  0
LINE
  8
0
 10
1585.63
 20
37.5547
 11
1585.19
 21
36.9464
  0
LINE
  8
0
 10
1585.19
 20
36.9464
 11
1584.61
 21
36.467
  0
LINE
  8
0
 10
1584.61
 20
36.467
 11
1583.93
 21
36.1468
  0
LINE
  8
0
 10
1583.93
 20
36.1468
 11
1583.19
 21
36.0059
  0
LINE
  8
0
 10
1583.19
 20
36.0059
 11
1582.44
 21
36.0531
  0
LINE
  8
0
 10
1474.44
 20
36.0531
 11
1473.72
 21
36.2855
  0
LINE
  8
0
 10
1473.72
 20
36.2855
 11
1473.09
 21
36.6885
  0
LINE
  8
0
 10
1473.09
 20
36.6885
 11
1472.57
 21
37.2366
  0
LINE
  8
0
 10
1472.57
 20
37.2366
 11
1472.21
 21
37.8956
  0
LINE
  8
0
 10
1472.21
 20
37.8956
 11
1472.02
 21
38.624
  0
LINE
  8
0
 10
1472.02
 20
38.624
 11
1472.02
 21
39.376
  0
LINE
  8
0
 10
1472.02
 20
39.376
 11
1472.21
 21
40.1044
  0
LINE
  8
0
 10
1472.21
 20
40.1044
 11
1472.57
 21
40.7634
  0
LINE
  8
0
 10
1472.57
 20
40.7634
 11
1473.09
 21
41.3115
  0
LINE
  8
0
 10
1473.09
 20
41.3115
 11
1473.72
 21
41.7145
  0
LINE
  8
0
 10
1473.72
 20
41.7145
 11
1474.44
 21
41.9469
  0
LINE
  8
0
 10
1474.44
 20
41.9469
 11
1475.19
 21
41.9941
  0
LINE
  8
0
 10
1475.19
 20
41.9941
 11
1475.93
 21
41.8532
  0
LINE
  8
0
 10
1475.93
 20
41.8532
 11
1476.61
 21
41.533
  0
LINE
  8
0
 10
1476.61
 20
41.533
 11
1477.19
 21
41.0536
  0
LINE
  8
0
 10
1477.19
 20
41.0536
 11
1477.63
 21
40.4453
  0
LINE
  8
0
 10
1477.63
 20
40.4453
 11
1477.91
 21
39.7461
  0
LINE
  8
0
 10
1477.91
 20
39.7461
 11
1478
 21
39
  0
LINE
  8
0
 10
1478
 20
39
 11
1477.91
 21
38.2539
  0
LINE
  8
0
 10
1477.91
 20
38.2539
 11
1477.63
 21
37.5547
  0
LINE
  8
0
 10
1477.63
 20
37.5547
 11
1477.19
 21
36.9464
  0
LINE
  8
0
 10
1477.19
 20
36.9464
 11
1476.61
 21
36.467
  0
LINE
  8
0
 10
1476.61
 20
36.467
 11
1475.93
 21
36.1468
  0
LINE
  8
0
 10
1475.93
 20
36.1468
 11
1475.19
 21
36.0059
  0
LINE
  8
0
 10
1475.19
 20
36.0059
 11
1474.44
 21
36.0531
  0
LINE
  8
0
 10
1474.44
 20
-41.9469
 11
1473.72
 21
-41.7145
  0
LINE
  8
0
 10
1473.72
 20
-41.7145
 11
1473.09
 21
-41.3115
  0
LINE
  8
0
 10
1473.09
 20
-41.3115
 11
1472.57
 21
-40.7634
  0
LINE
  8
0
 10
1472.57
 20
-40.7634
 11
1472.21
 21
-40.1044
  0
LINE
  8
0
 10
1472.21
 20
-40.1044
 11
1472.02
 21
-39.376
  0
LINE
  8
0
 10
1472.02
 20
-39.376
 11
1472.02
 21
-38.624
  0
LINE
  8
0
 10
1472.02
 20
-38.624
 11
1472.21
 21
-37.8956
  0
LINE
  8
0
 10
1472.21
 20
-37.8956
 11
1472.57
 21
-37.2366
  0
LINE
  8
0
 10
1472.57
 20
-37.2366
 11
1473.09
 21
-36.6885
  0
LINE
  8
0
 10
1473.09
 20
-36.6885
 11
1473.72
 21
-36.2855
  0
LINE
  8
0
 10
1473.72
 20
-36.2855
 11
1474.44
 21
-36.0531
  0
LINE
  8
0
 10
1474.44
 20
-36.0531
 11
1475.19
 21
-36.0059
  0
LINE
  8
0
 10
1475.19
 20
-36.0059
 11
1475.93
 21
-36.1468
  0
LINE
  8
0
 10
1475.93
 20
-36.1468
 11
1476.61
 21
-36.467
  0
LINE
  8
0
 10
1476.61
 20
-36.467
 11
1477.19
 21
-36.9464
  0
LINE
  8
0
 10
1477.19
 20
-36.9464
 11
1477.63
 21
-37.5547
  0
LINE
  8
0
 10
1477.63
 20
-37.5547
 11
1477.91
 21
-38.2539
  0
LINE
  8
0
 10
1477.91
 20
-38.2539
 11
1478
 21
-39
  0
LINE
  8
0
 10
1478
 20
-39
 11
1477.91
 21
-39.7461
  0
LINE
  8
0
 10
1477.91
 20
-39.7461
 11
1477.63
 21
-40.4453
  0
LINE
  8
0
 10
1477.63
 20
-40.4453
 11
1477.19
 21
-41.0536
  0
LINE
  8
0
 10
1477.19
 20
-41.0536
 11
1476.61
 21
-41.533
  0
LINE
  8
0
 10
1476.61
 20
-41.533
 11
1475.93
 21
-41.8532
  0
LINE
  8
0
 10
1475.93
 20
-41.8532
 11
1475.19
 21
-41.9941
  0
LINE
  8
0
 10
1475.19
 20
-41.9941
 11
1474.44
 21
-41.9469
  0
LINE
  8
0
 10
1582.44
 20
-41.9469
 11
1581.72
 21
-41.7145
  0
LINE
  8
0
 10
1581.72
 20
-41.7145
 11
1581.09
 21
-41.3115
  0
LINE
  8
0
 10
1581.09
 20
-41.3115
 11
1580.57
 21
-40.7634
  0
LINE
  8
0
 10
1580.57
 20
-40.7634
 11
1580.21
 21
-40.1044
  0
LINE
  8
0
 10
1580.21
 20
-40.1044
 11
1580.02
 21
-39.376
  0
LINE
  8
0
 10
1580.02
 20
-39.376
 11
1580.02
 21
-38.624
  0
LINE
  8
0
 10
1580.02
 20
-38.624
 11
1580.21
 21
-37.8956
  0
LINE
  8
0
 10
1580.21
 20
-37.8956
 11
1580.57
 21
-37.2366
  0
LINE
  8
0
 10
1580.57
 20
-37.2366
 11
1581.09
 21
-36.6885
  0
LINE
  8
0
 10
1581.09
 20
-36.6885
 11
1581.72
 21
-36.2855
  0
LINE
  8
0
 10
1581.72
 20
-36.2855
 11
1582.44
 21
-36.0531
  0
LINE
  8
0
 10
1582.44
 20
-36.0531
 11
1583.19
 21
-36.0059
  0
LINE
  8
0
 10
1583.19
 20
-36.0059
 11
1583.93
 21
-36.1468
  0
LINE
  8
0
 10
1583.93
 20
-36.1468
 11
1584.61
 21
-36.467
  0
LINE
  8
0
 10
1584.61
 20
-36.467
 11
1585.19
 21
-36.9464
  0
LINE
  8
0
 10
1585.19
 20
-36.9464
 11
1585.63
 21
-37.5547
  0
LINE
  8
0
 10
1585.63
 20
-37.5547
 11
1585.91
 21
-38.2539
  0
LINE
  8
0
 10
1585.91
 20
-38.2539
 11
1586
 21
-39
  0
LINE
  8
0
 10
1586
 20
-39
 11
1585.91
 21
-39.7461
  0
LINE
  8
0
 10
1585.91
 20
-39.7461
 11
1585.63
 21
-40.4453
  0
LINE
  8
0
 10
1585.63
 20
-40.4453
 11
1585.19
 21
-41.0536
  0
LINE
  8
0
 10
1585.19
 20
-41.0536
 11
1584.61
 21
-41.533
  0
LINE
  8
0
 10
1584.61
 20
-41.533
 11
1583.93
 21
-41.8532
  0
LINE
  8
0
 10
1583.93
 20
-41.8532
 11
1583.19
 21
-41.9941
  0
LINE
  8
0
 10
1583.19
 20
-41.9941
 11
1582.44
 21
-41.9469
  0
LINE
  8
0
 10
68.2484
 20
-42.8479
 11
69.4138
 21
-42.3865
  0
LINE
  8
0
 10
69.4138
 20
-42.3865
 11
70.4277
 21
-41.6498
  0
LINE
  8
0
 10
70.4277
 20
-41.6498
 11
71.2266
 21
-40.6841
  0
LINE
  8
0
 10
71.2266
 20
-40.6841
 11
71.7603
 21
-39.5501
  0
LINE
  8
0
 10
71.7603
 20
-39.5501
 11
72.005
 21
-38.005
  0
LINE
  8
0
 10
72.005
 20
-38.005
 11
72.005
 21
38.005
  0
LINE
  8
0
 10
72.005
 20
38.005
 11
71.8479
 21
39.2484
  0
LINE
  8
0
 10
71.8479
 20
39.2484
 11
71.3865
 21
40.4138
  0
LINE
  8
0
 10
71.3865
 20
40.4138
 11
70.6498
 21
41.4277
  0
LINE
  8
0
 10
70.6498
 20
41.4277
 11
69.6841
 21
42.2266
  0
LINE
  8
0
 10
69.6841
 20
42.2266
 11
68.5501
 21
42.7603
  0
LINE
  8
0
 10
68.5501
 20
42.7603
 11
67.005
 21
43.005
  0
LINE
  8
0
 10
67.005
 20
43.005
 11
-23.005
 21
43.005
  0
LINE
  8
0
 10
-23.005
 20
43.005
 11
-24.2484
 21
42.8479
  0
LINE
  8
0
 10
-24.2484
 20
42.8479
 11
-25.4138
 21
42.3865
  0
LINE
  8
0
 10
-25.4138
 20
42.3865
 11
-26.4277
 21
41.6498
  0
LINE
  8
0
 10
-26.4277
 20
41.6498
 11
-27.2266
 21
40.6841
  0
LINE
  8
0
 10
-27.2266
 20
40.6841
 11
-27.7603
 21
39.5501
  0
LINE
  8
0
 10
-27.7603
 20
39.5501
 11
-28.005
 21
38.005
  0
LINE
  8
0
 10
-28.005
 20
38.005
 11
-28.005
 21
17.255
  0
LINE
  8
0
 10
-28.005
 20
17.255
 11
-99.2448
 21
17.255
  0
LINE
  8
0
 10
-99.2448
 20
17.255
 11
-97.6808
 21
13.3049
  0
LINE
  8
0
 10
-97.6808
 20
13.3049
 11
-97.5159
 21
12
  0
LINE
  8
0
 10
-97.5159
 20
12
 11
-90
 21
12
  0
LINE
  8
0
 10
-90
 20
12
 11
-90
 21
4
  0
LINE
  8
0
 10
-90
 20
4
 11
-96.5053
 21
4
  0
LINE
  8
0
 10
-96.5053
 20
4
 11
-96.379
 21
3
  0
LINE
  8
0
 10
-96.379
 20
3
 11
-100
 21
3
  0
LINE
  8
0
 10
-100
 20
3
 11
-100
 21
-9
  0
LINE
  8
0
 10
-100
 20
-9
 11
-97.137
 21
-9
  0
LINE
  8
0
 10
-97.137
 20
-9
 11
-97.6808
 21
-13.3049
  0
LINE
  8
0
 10
-97.6808
 20
-13.3049
 11
-99.2448
 21
-17.255
  0
LINE
  8
0
 10
-99.2448
 20
-17.255
 11
-28.005
 21
-17.255
  0
LINE
  8
0
 10
-28.005
 20
-17.255
 11
-28.005
 21
-38.005
  0
LINE
  8
0
 10
-28.005
 20
-38.005
 11
-27.8479
 21
-39.2484
  0
LINE
  8
0
 10
-27.8479
 20
-39.2484
 11
-27.3865
 21
-40.4138
  0
LINE
  8
0
 10
-27.3865
 20
-40.4138
 11
-26.6498
 21
-41.4277
  0
LINE
  8
0
 10
-26.6498
 20
-41.4277
 11
-25.6841
 21
-42.2266
  0
LINE
  8
0
 10
-25.6841
 20
-42.2266
 11
-24.5501
 21
-42.7603
  0
LINE
  8
0
 10
-24.5501
 20
-42.7603
 11
-23.005
 21
-43.005
  0
LINE
  8
0
 10
-23.005
 20
-43.005
 11
67.005
 21
-43.005
  0
LINE
  8
0
 10
67.005
 20
-43.005
 11
68.2484
 21
-42.8479
  0
LINE
  8
0
 10
11.75
 20
-14.5
 11
11.75
 21
14.5
  0
LINE
  8
0
 10
11.75
 20
14.5
 11
32.25
 21
14.5
  0
LINE
  8
0
 10
32.25
 20
14.5
 11
32.25
 21
14.3826
  0
LINE
  8
0
 10
32.25
 20
14.3826
 11
33.6605
 21
14.4714
  0
LINE
  8
0
 10
33.6605
 20
14.4714
 11
37.2307
 21
13.7903
  0
LINE
  8
0
 10
37.2307
 20
13.7903
 11
40.5195
 21
12.2428
  0
LINE
  8
0
 10
40.5195
 20
12.2428
 11
43.32
 21
9.92592
  0
LINE
  8
0
 10
43.32
 20
9.92592
 11
45.4564
 21
6.98543
  0
LINE
  8
0
 10
45.4564
 20
6.98543
 11
46.7944
 21
3.606
  0
LINE
  8
0
 10
46.7944
 20
3.606
 11
47.25
 21
0
  0
LINE
  8
0
 10
47.25
 20
0
 11
46.7944
 21
-3.606
  0
LINE
  8
0
 10
46.7944
 20
-3.606
 11
45.4564
 21
-6.98543
  0
LINE
  8
0
 10
45.4564
 20
-6.98543
 11
43.32
 21
-9.92592
  0
LINE
  8
0
 10
43.32
 20
-9.92592
 11
40.5195
 21
-12.2428
  0
LINE
  8
0
 10
40.5195
 20
-12.2428
 11
37.2307
 21
-13.7903
  0
LINE
  8
0
 10
37.2307
 20
-13.7903
 11
33.6605
 21
-14.4714
  0
LINE
  8
0
 10
33.6605
 20
-14.4714
 11
32.25
 21
-14.3826
  0
LINE
  8
0
 10
32.25
 20
-14.3826
 11
32.25
 21
-14.5
  0
LINE
  8
0
 10
32.25
 20
-14.5
 11
11.75
 21
-14.5
  0
LINE
  8
0
 10
-30.7688
 20
-7
 11
-30.7688
 21
7
  0
LINE
  8
0
 10
-30.7688
 20
7
 11
-28.9428
 21
7
  0
LINE
  8
0
 10
-28.9428
 20
7
 11
-28.9428
 21
5
  0
LINE
  8
0
 10
-28.9428
 20
5
 11
-30
 21
5
  0
LINE
  8
0
 10
-30
 20
5
 11
-30
 21
-5
  0
LINE
  8
0
 10
-30
 20
-5
 11
-28.9428
 21
-5
  0
LINE
  8
0
 10
-28.9428
 20
-5
 11
-28.9428
 21
-7
  0
LINE
  8
0
 10
-28.9428
 20
-7
 11
-30.7688
 21
-7
  0
LINE
  8
0
 10
1010
 20
34
 11
895
 21
34
  0
LINE
  8
0
 10
895
 20
34
 11
895
 21
29
  0
LINE
  8
0
 10
895
 20
29
 11
894
 21
29
  0
LINE
  8
0
 10
894
 20
29
 11
894
 21
27
  0
LINE
  8
0
 10
894
 20
27
 11
895
 21
27
  0
LINE
  8
0
 10
895
 20
27
 11
895
 21
22.5
  0
LINE
  8
0
 10
895
 20
22.5
 11
894
 21
22.5
  0
LINE
  8
0
 10
894
 20
22.5
 11
894
 21
-22.5
  0
LINE
  8
0
 10
894
 20
-22.5
 11
895
 21
-22.5
  0
LINE
  8
0
 10
895
 20
-22.5
 11
895
 21
-27
  0
LINE
  8
0
 10
895
 20
-27
 11
894
 21
-27
  0
LINE
  8
0
 10
894
 20
-27
 11
894
 21
-29
  0
LINE
  8
0
 10
894
 20
-29
 11
895
 21
-29
  0
LINE
  8
0
 10
895
 20
-29
 11
895
 21
-34
  0
LINE
  8
0
 10
895
 20
-34
 11
1010
 21
-34
  0
LINE
  8
0
 10
1010
 20
-34
 11
1010
 21
34
  0
LINE
  8
0
 10
206.748
 20
-73.3479
 11
207.914
 21
-72.8865
  0
LINE
  8
0
 10
207.914
 20
-72.8865
 11
208.928
 21
-72.1498
  0
LINE
  8
0
 10
208.928
 20
-72.1498
 11
209.727
 21
-71.1841
  0
LINE
  8
0
 10
209.727
 20
-71.1841
 11
210.26
 21
-70.0501
  0
LINE
  8
0
 10
210.26
 20
-70.0501
 11
210.505
 21
-68.505
  0
LINE
  8
0
 10
210.505
 20
-68.505
 11
210.505
 21
12.505
  0
LINE
  8
0
 10
210.505
 20
12.505
 11
210.348
 21
13.7484
  0
LINE
  8
0
 10
210.348
 20
13.7484
 11
210
 21
14.6271
  0
LINE
  8
0
 10
210
 20
14.6271
 11
210
 21
16.5
  0
LINE
  8
0
 10
210
 20
16.5
 11
208.458
 21
16.5
  0
LINE
  8
0
 10
208.458
 20
16.5
 11
208.184
 21
16.7266
  0
LINE
  8
0
 10
208.184
 20
16.7266
 11
207.05
 21
17.2603
  0
LINE
  8
0
 10
207.05
 20
17.2603
 11
205.505
 21
17.505
  0
LINE
  8
0
 10
205.505
 20
17.505
 11
100.656
 21
17.505
  0
LINE
  8
0
 10
100.656
 20
17.505
 11
102.319
 21
13.3049
  0
LINE
  8
0
 10
102.319
 20
13.3049
 11
102.484
 21
12
  0
LINE
  8
0
 10
102.484
 20
12
 11
110
 21
12
  0
LINE
  8
0
 10
110
 20
12
 11
110
 21
4
  0
LINE
  8
0
 10
110
 20
4
 11
103.495
 21
4
  0
LINE
  8
0
 10
103.495
 20
4
 11
103.621
 21
3
  0
LINE
  8
0
 10
103.621
 20
3
 11
100
 21
3
  0
LINE
  8
0
 10
100
 20
3
 11
100
 21
-9
  0
LINE
  8
0
 10
100
 20
-9
 11
102.863
 21
-9
  0
LINE
  8
0
 10
102.863
 20
-9
 11
102.319
 21
-13.3049
  0
LINE
  8
0
 10
102.319
 20
-13.3049
 11
97.3824
 21
-25.7738
  0
LINE
  8
0
 10
97.3824
 20
-25.7738
 11
95.495
 21
-28.3716
  0
LINE
  8
0
 10
95.495
 20
-28.3716
 11
95.495
 21
-68.505
  0
LINE
  8
0
 10
95.495
 20
-68.505
 11
95.6521
 21
-69.7484
  0
LINE
  8
0
 10
95.6521
 20
-69.7484
 11
96.1135
 21
-70.9138
  0
LINE
  8
0
 10
96.1135
 20
-70.9138
 11
96.8502
 21
-71.9277
  0
LINE
  8
0
 10
96.8502
 20
-71.9277
 11
97.8159
 21
-72.7266
  0
LINE
  8
0
 10
97.8159
 20
-72.7266
 11
98.9499
 21
-73.2603
  0
LINE
  8
0
 10
98.9499
 20
-73.2603
 11
100.495
 21
-73.505
  0
LINE
  8
0
 10
100.495
 20
-73.505
 11
205.505
 21
-73.505
  0
LINE
  8
0
 10
205.505
 20
-73.505
 11
206.748
 21
-73.3479
  0
LINE
  8
0
 10
167.153
 20
-7
 11
167.153
 21
-3.75
  0
LINE
  8
0
 10
167.153
 20
-3.75
 11
168.308
 21
-3.75
  0
LINE
  8
0
 10
168.308
 20
-3.75
 11
168.308
 21
7
  0
LINE
  8
0
 10
168.308
 20
7
 11
171.057
 21
7
  0
LINE
  8
0
 10
171.057
 20
7
 11
171.057
 21
5
  0
LINE
  8
0
 10
171.057
 20
5
 11
170
 21
5
  0
LINE
  8
0
 10
170
 20
5
 11
170
 21
-5
  0
LINE
  8
0
 10
170
 20
-5
 11
171.057
 21
-5
  0
LINE
  8
0
 10
171.057
 20
-5
 11
171.057
 21
-7
  0
LINE
  8
0
 10
171.057
 20
-7
 11
167.153
 21
-7
  0
LINE
  8
0
 10
146.394
 20
-64.7944
 11
143.015
 21
-63.4564
  0
LINE
  8
0
 10
143.015
 20
-63.4564
 11
140.074
 21
-61.32
  0
LINE
  8
0
 10
140.074
 20
-61.32
 11
137.757
 21
-58.5195
  0
LINE
  8
0
 10
137.757
 20
-58.5195
 11
136.21
 21
-55.2307
  0
LINE
  8
0
 10
136.21
 20
-55.2307
 11
135.529
 21
-51.6605
  0
LINE
  8
0
 10
135.529
 20
-51.6605
 11
135.617
 21
-50.25
  0
LINE
  8
0
 10
135.617
 20
-50.25
 11
135.5
 21
-50.25
  0
LINE
  8
0
 10
135.5
 20
-50.25
 11
135.5
 21
-29.75
  0
LINE
  8
0
 10
135.5
 20
-29.75
 11
164.5
 21
-29.75
  0
LINE
  8
0
 10
164.5
 20
-29.75
 11
164.5
 21
-50.25
  0
LINE
  8
0
 10
164.5
 20
-50.25
 11
164.383
 21
-50.25
  0
LINE
  8
0
 10
164.383
 20
-50.25
 11
164.471
 21
-51.6605
  0
LINE
  8
0
 10
164.471
 20
-51.6605
 11
163.79
 21
-55.2307
  0
LINE
  8
0
 10
163.79
 20
-55.2307
 11
162.243
 21
-58.5195
  0
LINE
  8
0
 10
162.243
 20
-58.5195
 11
159.926
 21
-61.32
  0
LINE
  8
0
 10
159.926
 20
-61.32
 11
156.985
 21
-63.4564
  0
LINE
  8
0
 10
156.985
 20
-63.4564
 11
153.606
 21
-64.7944
  0
LINE
  8
0
 10
153.606
 20
-64.7944
 11
150
 21
-65.25
  0
LINE
  8
0
 10
150
 20
-65.25
 11
146.394
 21
-64.7944
  0
LINE
  8
0
 10
1601.27
 20
-3.89932
 11
1602.2
 21
-3.46173
  0
LINE
  8
0
 10
1602.2
 20
-3.46173
 11
1602.99
 21
-2.80664
  0
LINE
  8
0
 10
1602.99
 20
-2.80664
 11
1603.59
 21
-1.97519
  0
LINE
  8
0
 10
1603.59
 20
-1.97519
 11
1603.97
 21
-1.01962
  0
LINE
  8
0
 10
1603.97
 20
-1.01962
 11
1604.1
 21
0
  0
LINE
  8
0
 10
1604.1
 20
0
 11
1603.97
 21
1.01962
  0
LINE
  8
0
 10
1603.97
 20
1.01962
 11
1603.59
 21
1.97519
  0
LINE
  8
0
 10
1603.59
 20
1.97519
 11
1602.99
 21
2.80664
  0
LINE
  8
0
 10
1602.99
 20
2.80664
 11
1602.2
 21
3.46173
  0
LINE
  8
0
 10
1602.2
 20
3.46173
 11
1601.27
 21
3.89932
  0
LINE
  8
0
 10
1601.27
 20
3.89932
 11
1600.26
 21
4.0919
  0
LINE
  8
0
 10
1600.26
 20
4.0919
 11
1599.23
 21
4.02737
  0
LINE
  8
0
 10
1599.23
 20
4.02737
 11
1598.25
 21
3.70978
  0
LINE
  8
0
 10
1598.25
 20
3.70978
 11
1597.39
 21
3.1591
  0
LINE
  8
0
 10
1597.39
 20
3.1591
 11
1596.68
 21
2.40991
  0
LINE
  8
0
 10
1596.68
 20
2.40991
 11
1596.19
 21
1.50931
  0
LINE
  8
0
 10
1596.19
 20
1.50931
 11
1595.93
 21
0.513855
  0
LINE
  8
0
 10
1595.93
 20
0.513855
 11
1595.93
 21
-0.513855
  0
LINE
  8
0
 10
1595.93
 20
-0.513855
 11
1596.19
 21
-1.50931
  0
LINE
  8
0
 10
1596.19
 20
-1.50931
 11
1596.68
 21
-2.40991
  0
LINE
  8
0
 10
1596.68
 20
-2.40991
 11
1597.39
 21
-3.1591
  0
LINE
  8
0
 10
1597.39
 20
-3.1591
 11
1598.25
 21
-3.70978
  0
LINE
  8
0
 10
1598.25
 20
-3.70978
 11
1599.23
 21
-4.02737
  0
LINE
  8
0
 10
1599.23
 20
-4.02737
 11
1600.26
 21
-4.0919
  0
LINE
  8
0
 10
1600.26
 20
-4.0919
 11
1601.27
 21
-3.89932
  0
LINE
  8
0
 10
1599.72
 20
-1.47342
 11
1599.36
 21
-1.35724
  0
LINE
  8
0
 10
1599.36
 20
-1.35724
 11
1599.04
 21
-1.15576
  0
LINE
  8
0
 10
1599.04
 20
-1.15576
 11
1598.79
 21
-0.881668
  0
LINE
  8
0
 10
1598.79
 20
-0.881668
 11
1598.61
 21
-0.552185
  0
LINE
  8
0
 10
1598.61
 20
-0.552185
 11
1598.51
 21
-0.187988
  0
LINE
  8
0
 10
1598.51
 20
-0.187988
 11
1598.51
 21
0.187988
  0
LINE
  8
0
 10
1598.51
 20
0.187988
 11
1598.61
 21
0.552185
  0
LINE
  8
0
 10
1598.61
 20
0.552185
 11
1598.79
 21
0.881668
  0
LINE
  8
0
 10
1598.79
 20
0.881668
 11
1599.04
 21
1.15576
  0
LINE
  8
0
 10
1599.04
 20
1.15576
 11
1599.36
 21
1.35724
  0
LINE
  8
0
 10
1599.36
 20
1.35724
 11
1599.72
 21
1.47342
  0
LINE
  8
0
 10
1599.72
 20
1.47342
 11
1600.09
 21
1.49704
  0
LINE
  8
0
 10
1600.09
 20
1.49704
 11
1600.46
 21
1.42657
  0
LINE
  8
0
 10
1600.46
 20
1.42657
 11
1600.8
 21
1.26648
  0
LINE
  8
0
 10
1600.8
 20
1.26648
 11
1601.09
 21
1.02681
  0
LINE
  8
0
 10
1601.09
 20
1.02681
 11
1601.31
 21
0.722626
  0
LINE
  8
0
 10
1601.31
 20
0.722626
 11
1601.45
 21
0.373032
  0
LINE
  8
0
 10
1601.45
 20
0.373032
 11
1601.5
 21
0
  0
LINE
  8
0
 10
1601.5
 20
0
 11
1601.45
 21
-0.373032
  0
LINE
  8
0
 10
1601.45
 20
-0.373032
 11
1601.31
 21
-0.722626
  0
LINE
  8
0
 10
1601.31
 20
-0.722626
 11
1601.09
 21
-1.02681
  0
LINE
  8
0
 10
1601.09
 20
-1.02681
 11
1600.8
 21
-1.26648
  0
LINE
  8
0
 10
1600.8
 20
-1.26648
 11
1600.46
 21
-1.42657
  0
LINE
  8
0
 10
1600.46
 20
-1.42657
 11
1600.09
 21
-1.49704
  0
LINE
  8
0
 10
1600.09
 20
-1.49704
 11
1599.72
 21
-1.47342
  0
LINE
  8
0
 10
2081
 20
-29.5
 11
1993
 21
-29.5
  0
LINE
  8
0
 10
1993
 20
-29.5
 11
1993
 21
-12.5
  0
LINE
  8
0
 10
1993
 20
-12.5
 11
1979
 21
-12.5
  0
LINE
  8
0
 10
1979
 20
-12.5
 11
1979
 21
-22.5
  0
LINE
  8
0
 10
1979
 20
-22.5
 11
1961
 21
-22.5
  0
LINE
  8
0
 10
1961
 20
-22.5
 11
1961
 21
-45
  0
LINE
  8
0
 10
1961
 20
-45
 11
2081
 21
-45
  0
LINE
  8
0
 10
2081
 20
-45
 11
2081
 21
-29.5
  0
LINE
  8
0
 10
1986.72
 20
-28.4734
 11
1986.36
 21
-28.3572
  0
LINE
  8
0
 10
1986.36
 20
-28.3572
 11
1986.04
 21
-28.1558
  0
LINE
  8
0
 10
1986.04
 20
-28.1558
 11
1985.79
 21
-27.8817
  0
LINE
  8
0
 10
1985.79
 20
-27.8817
 11
1985.61
 21
-27.5522
  0
LINE
  8
0
 10
1985.61
 20
-27.5522
 11
1985.51
 21
-27.188
  0
LINE
  8
0
 10
1985.51
 20
-27.188
 11
1985.51
 21
-26.812
  0
LINE
  8
0
 10
1985.51
 20
-26.812
 11
1985.61
 21
-26.4478
  0
LINE
  8
0
 10
1985.61
 20
-26.4478
 11
1985.79
 21
-26.1183
  0
LINE
  8
0
 10
1985.79
 20
-26.1183
 11
1986.04
 21
-25.8442
  0
LINE
  8
0
 10
1986.04
 20
-25.8442
 11
1986.36
 21
-25.6427
  0
LINE
  8
0
 10
1986.36
 20
-25.6427
 11
1986.72
 21
-25.5266
  0
LINE
  8
0
 10
1986.72
 20
-25.5266
 11
1987.09
 21
-25.503
  0
LINE
  8
0
 10
1987.09
 20
-25.503
 11
1987.46
 21
-25.5734
  0
LINE
  8
0
 10
1987.46
 20
-25.5734
 11
1987.8
 21
-25.7335
  0
LINE
  8
0
 10
1987.8
 20
-25.7335
 11
1988.09
 21
-25.9732
  0
LINE
  8
0
 10
1988.09
 20
-25.9732
 11
1988.31
 21
-26.2774
  0
LINE
  8
0
 10
1988.31
 20
-26.2774
 11
1988.45
 21
-26.627
  0
LINE
  8
0
 10
1988.45
 20
-26.627
 11
1988.5
 21
-27
  0
LINE
  8
0
 10
1988.5
 20
-27
 11
1988.45
 21
-27.373
  0
LINE
  8
0
 10
1988.45
 20
-27.373
 11
1988.31
 21
-27.7226
  0
LINE
  8
0
 10
1988.31
 20
-27.7226
 11
1988.09
 21
-28.0268
  0
LINE
  8
0
 10
1988.09
 20
-28.0268
 11
1987.8
 21
-28.2665
  0
LINE
  8
0
 10
1987.8
 20
-28.2665
 11
1987.46
 21
-28.4266
  0
LINE
  8
0
 10
1987.46
 20
-28.4266
 11
1987.09
 21
-28.497
  0
LINE
  8
0
 10
1987.09
 20
-28.497
 11
1986.72
 21
-28.4734
  0
LINE
  8
0
 10
2074.44
 20
-41.9469
 11
2073.72
 21
-41.7145
  0
LINE
  8
0
 10
2073.72
 20
-41.7145
 11
2073.09
 21
-41.3115
  0
LINE
  8
0
 10
2073.09
 20
-41.3115
 11
2072.57
 21
-40.7634
  0
LINE
  8
0
 10
2072.57
 20
-40.7634
 11
2072.21
 21
-40.1044
  0
LINE
  8
0
 10
2072.21
 20
-40.1044
 11
2072.02
 21
-39.376
  0
LINE
  8
0
 10
2072.02
 20
-39.376
 11
2072.02
 21
-38.624
  0
LINE
  8
0
 10
2072.02
 20
-38.624
 11
2072.21
 21
-37.8956
  0
LINE
  8
0
 10
2072.21
 20
-37.8956
 11
2072.57
 21
-37.2366
  0
LINE
  8
0
 10
2072.57
 20
-37.2366
 11
2073.09
 21
-36.6885
  0
LINE
  8
0
 10
2073.09
 20
-36.6885
 11
2073.72
 21
-36.2855
  0
LINE
  8
0
 10
2073.72
 20
-36.2855
 11
2074.44
 21
-36.0531
  0
LINE
  8
0
 10
2074.44
 20
-36.0531
 11
2075.19
 21
-36.0059
  0
LINE
  8
0
 10
2075.19
 20
-36.0059
 11
2075.93
 21
-36.1468
  0
LINE
  8
0
 10
2075.93
 20
-36.1468
 11
2076.61
 21
-36.467
  0
LINE
  8
0
 10
2076.61
 20
-36.467
 11
2077.19
 21
-36.9464
  0
LINE
  8
0
 10
2077.19
 20
-36.9464
 11
2077.63
 21
-37.5547
  0
LINE
  8
0
 10
2077.63
 20
-37.5547
 11
2077.91
 21
-38.2539
  0
LINE
  8
0
 10
2077.91
 20
-38.2539
 11
2078
 21
-39
  0
LINE
  8
0
 10
2078
 20
-39
 11
2077.91
 21
-39.7461
  0
LINE
  8
0
 10
2077.91
 20
-39.7461
 11
2077.63
 21
-40.4453
  0
LINE
  8
0
 10
2077.63
 20
-40.4453
 11
2077.19
 21
-41.0536
  0
LINE
  8
0
 10
2077.19
 20
-41.0536
 11
2076.61
 21
-41.533
  0
LINE
  8
0
 10
2076.61
 20
-41.533
 11
2075.93
 21
-41.8532
  0
LINE
  8
0
 10
2075.93
 20
-41.8532
 11
2075.19
 21
-41.9941
  0
LINE
  8
0
 10
2075.19
 20
-41.9941
 11
2074.44
 21
-41.9469
  0
LINE
  8
0
 10
1966.44
 20
-41.9469
 11
1965.72
 21
-41.7145
  0
LINE
  8
0
 10
1965.72
 20
-41.7145
 11
1965.09
 21
-41.3115
  0
LINE
  8
0
 10
1965.09
 20
-41.3115
 11
1964.57
 21
-40.7634
  0
LINE
  8
0
 10
1964.57
 20
-40.7634
 11
1964.21
 21
-40.1044
  0
LINE
  8
0
 10
1964.21
 20
-40.1044
 11
1964.02
 21
-39.376
  0
LINE
  8
0
 10
1964.02
 20
-39.376
 11
1964.02
 21
-38.624
  0
LINE
  8
0
 10
1964.02
 20
-38.624
 11
1964.21
 21
-37.8956
  0
LINE
  8
0
 10
1964.21
 20
-37.8956
 11
1964.57
 21
-37.2366
  0
LINE
  8
0
 10
1964.57
 20
-37.2366
 11
1965.09
 21
-36.6885
  0
LINE
  8
0
 10
1965.09
 20
-36.6885
 11
1965.72
 21
-36.2855
  0
LINE
  8
0
 10
1965.72
 20
-36.2855
 11
1966.44
 21
-36.0531
  0
LINE
  8
0
 10
1966.44
 20
-36.0531
 11
1967.19
 21
-36.0059
  0
LINE
  8
0
 10
1967.19
 20
-36.0059
 11
1967.93
 21
-36.1468
  0
LINE
  8
0
 10
1967.93
 20
-36.1468
 11
1968.61
 21
-36.467
  0
LINE
  8
0
 10
1968.61
 20
-36.467
 11
1969.19
 21
-36.9464
  0
LINE
  8
0
 10
1969.19
 20
-36.9464
 11
1969.63
 21
-37.5547
  0
LINE
  8
0
 10
1969.63
 20
-37.5547
 11
1969.91
 21
-38.2539
  0
LINE
  8
0
 10
1969.91
 20
-38.2539
 11
1970
 21
-39
  0
LINE
  8
0
 10
1970
 20
-39
 11
1969.91
 21
-39.7461
  0
LINE
  8
0
 10
1969.91
 20
-39.7461
 11
1969.63
 21
-40.4453
  0
LINE
  8
0
 10
1969.63
 20
-40.4453
 11
1969.19
 21
-41.0536
  0
LINE
  8
0
 10
1969.19
 20
-41.0536
 11
1968.61
 21
-41.533
  0
LINE
  8
0
 10
1968.61
 20
-41.533
 11
1967.93
 21
-41.8532
  0
LINE
  8
0
 10
1967.93
 20
-41.8532
 11
1967.19
 21
-41.9941
  0
LINE
  8
0
 10
1967.19
 20
-41.9941
 11
1966.44
 21
-41.9469
  0
LINE
  8
0
 10
2204
 20
-29.5
 11
2116
 21
-29.5
  0
LINE
  8
0
 10
2116
 20
-29.5
 11
2116
 21
-12.5
  0
LINE
  8
0
 10
2116
 20
-12.5
 11
2102
 21
-12.5
  0
LINE
  8
0
 10
2102
 20
-12.5
 11
2102
 21
-22.5
  0
LINE
  8
0
 10
2102
 20
-22.5
 11
2084
 21
-22.5
  0
LINE
  8
0
 10
2084
 20
-22.5
 11
2084
 21
-45
  0
LINE
  8
0
 10
2084
 20
-45
 11
2204
 21
-45
  0
LINE
  8
0
 10
2204
 20
-45
 11
2204
 21
-29.5
  0
LINE
  8
0
 10
2109.72
 20
-28.4734
 11
2109.36
 21
-28.3572
  0
LINE
  8
0
 10
2109.36
 20
-28.3572
 11
2109.04
 21
-28.1558
  0
LINE
  8
0
 10
2109.04
 20
-28.1558
 11
2108.79
 21
-27.8817
  0
LINE
  8
0
 10
2108.79
 20
-27.8817
 11
2108.61
 21
-27.5522
  0
LINE
  8
0
 10
2108.61
 20
-27.5522
 11
2108.51
 21
-27.188
  0
LINE
  8
0
 10
2108.51
 20
-27.188
 11
2108.51
 21
-26.812
  0
LINE
  8
0
 10
2108.51
 20
-26.812
 11
2108.61
 21
-26.4478
  0
LINE
  8
0
 10
2108.61
 20
-26.4478
 11
2108.79
 21
-26.1183
  0
LINE
  8
0
 10
2108.79
 20
-26.1183
 11
2109.04
 21
-25.8442
  0
LINE
  8
0
 10
2109.04
 20
-25.8442
 11
2109.36
 21
-25.6427
  0
LINE
  8
0
 10
2109.36
 20
-25.6427
 11
2109.72
 21
-25.5266
  0
LINE
  8
0
 10
2109.72
 20
-25.5266
 11
2110.09
 21
-25.503
  0
LINE
  8
0
 10
2110.09
 20
-25.503
 11
2110.46
 21
-25.5734
  0
LINE
  8
0
 10
2110.46
 20
-25.5734
 11
2110.8
 21
-25.7335
  0
LINE
  8
0
 10
2110.8
 20
-25.7335
 11
2111.09
 21
-25.9732
  0
LINE
  8
0
 10
2111.09
 20
-25.9732
 11
2111.31
 21
-26.2774
  0
LINE
  8
0
 10
2111.31
 20
-26.2774
 11
2111.45
 21
-26.627
  0
LINE
  8
0
 10
2111.45
 20
-26.627
 11
2111.5
 21
-27
  0
LINE
  8
0
 10
2111.5
 20
-27
 11
2111.45
 21
-27.373
  0
LINE
  8
0
 10
2111.45
 20
-27.373
 11
2111.31
 21
-27.7226
  0
LINE
  8
0
 10
2111.31
 20
-27.7226
 11
2111.09
 21
-28.0268
  0
LINE
  8
0
 10
2111.09
 20
-28.0268
 11
2110.8
 21
-28.2665
  0
LINE
  8
0
 10
2110.8
 20
-28.2665
 11
2110.46
 21
-28.4266
  0
LINE
  8
0
 10
2110.46
 20
-28.4266
 11
2110.09
 21
-28.497
  0
LINE
  8
0
 10
2110.09
 20
-28.497
 11
2109.72
 21
-28.4734
  0
LINE
  8
0
 10
2197.44
 20
-41.9469
 11
2196.72
 21
-41.7145
  0
LINE
  8
0
 10
2196.72
 20
-41.7145
 11
2196.09
 21
-41.3115
  0
LINE
  8
0
 10
2196.09
 20
-41.3115
 11
2195.57
 21
-40.7634
  0
LINE
  8
0
 10
2195.57
 20
-40.7634
 11
2195.21
 21
-40.1044
  0
LINE
  8
0
 10
2195.21
 20
-40.1044
 11
2195.02
 21
-39.376
  0
LINE
  8
0
 10
2195.02
 20
-39.376
 11
2195.02
 21
-38.624
  0
LINE
  8
0
 10
2195.02
 20
-38.624
 11
2195.21
 21
-37.8956
  0
LINE
  8
0
 10
2195.21
 20
-37.8956
 11
2195.57
 21
-37.2366
  0
LINE
  8
0
 10
2195.57
 20
-37.2366
 11
2196.09
 21
-36.6885
  0
LINE
  8
0
 10
2196.09
 20
-36.6885
 11
2196.72
 21
-36.2855
  0
LINE
  8
0
 10
2196.72
 20
-36.2855
 11
2197.44
 21
-36.0531
  0
LINE
  8
0
 10
2197.44
 20
-36.0531
 11
2198.19
 21
-36.0059
  0
LINE
  8
0
 10
2198.19
 20
-36.0059
 11
2198.93
 21
-36.1468
  0
LINE
  8
0
 10
2198.93
 20
-36.1468
 11
2199.61
 21
-36.467
  0
LINE
  8
0
 10
2199.61
 20
-36.467
 11
2200.19
 21
-36.9464
  0
LINE
  8
0
 10
2200.19
 20
-36.9464
 11
2200.63
 21
-37.5547
  0
LINE
  8
0
 10
2200.63
 20
-37.5547
 11
2200.91
 21
-38.2539
  0
LINE
  8
0
 10
2200.91
 20
-38.2539
 11
2201
 21
-39
  0
LINE
  8
0
 10
2201
 20
-39
 11
2200.91
 21
-39.7461
  0
LINE
  8
0
 10
2200.91
 20
-39.7461
 11
2200.63
 21
-40.4453
  0
LINE
  8
0
 10
2200.63
 20
-40.4453
 11
2200.19
 21
-41.0536
  0
LINE
  8
0
 10
2200.19
 20
-41.0536
 11
2199.61
 21
-41.533
  0
LINE
  8
0
 10
2199.61
 20
-41.533
 11
2198.93
 21
-41.8532
  0
LINE
  8
0
 10
2198.93
 20
-41.8532
 11
2198.19
 21
-41.9941
  0
LINE
  8
0
 10
2198.19
 20
-41.9941
 11
2197.44
 21
-41.9469
  0
LINE
  8
0
 10
2089.44
 20
-41.9469
 11
2088.72
 21
-41.7145
  0
LINE
  8
0
 10
2088.72
 20
-41.7145
 11
2088.09
 21
-41.3115
  0
LINE
  8
0
 10
2088.09
 20
-41.3115
 11
2087.57
 21
-40.7634
  0
LINE
  8
0
 10
2087.57
 20
-40.7634
 11
2087.21
 21
-40.1044
  0
LINE
  8
0
 10
2087.21
 20
-40.1044
 11
2087.02
 21
-39.376
  0
LINE
  8
0
 10
2087.02
 20
-39.376
 11
2087.02
 21
-38.624
  0
LINE
  8
0
 10
2087.02
 20
-38.624
 11
2087.21
 21
-37.8956
  0
LINE
  8
0
 10
2087.21
 20
-37.8956
 11
2087.57
 21
-37.2366
  0
LINE
  8
0
 10
2087.57
 20
-37.2366
 11
2088.09
 21
-36.6885
  0
LINE
  8
0
 10
2088.09
 20
-36.6885
 11
2088.72
 21
-36.2855
  0
LINE
  8
0
 10
2088.72
 20
-36.2855
 11
2089.44
 21
-36.0531
  0
LINE
  8
0
 10
2089.44
 20
-36.0531
 11
2090.19
 21
-36.0059
  0
LINE
  8
0
 10
2090.19
 20
-36.0059
 11
2090.93
 21
-36.1468
  0
LINE
  8
0
 10
2090.93
 20
-36.1468
 11
2091.61
 21
-36.467
  0
LINE
  8
0
 10
2091.61
 20
-36.467
 11
2092.19
 21
-36.9464
  0
LINE
  8
0
 10
2092.19
 20
-36.9464
 11
2092.63
 21
-37.5547
  0
LINE
  8
0
 10
2092.63
 20
-37.5547
 11
2092.91
 21
-38.2539
  0
LINE
  8
0
 10
2092.91
 20
-38.2539
 11
2093
 21
-39
  0
LINE
  8
0
 10
2093
 20
-39
 11
2092.91
 21
-39.7461
  0
LINE
  8
0
 10
2092.91
 20
-39.7461
 11
2092.63
 21
-40.4453
  0
LINE
  8
0
 10
2092.63
 20
-40.4453
 11
2092.19
 21
-41.0536
  0
LINE
  8
0
 10
2092.19
 20
-41.0536
 11
2091.61
 21
-41.533
  0
LINE
  8
0
 10
2091.61
 20
-41.533
 11
2090.93
 21
-41.8532
  0
LINE
  8
0
 10
2090.93
 20
-41.8532
 11
2090.19
 21
-41.9941
  0
LINE
  8
0
 10
2090.19
 20
-41.9941
 11
2089.44
 21
-41.9469
  0
ENDSEC
  0
SECTION
  2
OBJECTS
  0
DICTIONARY
  0
ENDSEC
  0
EOF
