<?xml version="1.0" standalone="no"?>
<!DOCTYPE svg PUBLIC "-//W3C//DTD SVG 1.1//EN" "http://www.w3.org/Graphics/SVG/1.1/DTD/svg11.dtd">
<svg width="311mm" height="118mm" viewBox="-100 -44 311 118" xmlns="http://www.w3.org/2000/svg" version="1.1">
<title>OpenSCAD Model</title>
<path d="
M 68.2484,42.8479 L 69.4138,42.3865 L 70.4277,41.6498 L 71.2266,40.6841 L 71.7603,39.5501 L 72.005,38.005
 L 72.005,-38.005 L 71.8479,-39.2484 L 71.3865,-40.4138 L 70.6498,-41.4277 L 69.6841,-42.2266 L 68.5501,-42.7603
 L 67.005,-43.005 L -23.005,-43.005 L -24.2484,-42.8479 L -25.4138,-42.3865 L -26.4277,-41.6498 L -27.2266,-40.6841
 L -27.7603,-39.5501 L -28.005,-38.005 L -28.005,-17.255 L -99.2448,-17.255 L -97.6808,-13.3049 L -97.5159,-12
 L -90,-12 L -90,-4 L -96.5053,-4 L -96.379,-3 L -100,-3 L -100,9
 L -97.137,9 L -97.6808,13.3049 L -99.2448,17.255 L -28.005,17.255 L -28.005,38.005 L -27.8479,39.2484
 L -27.3865,40.4138 L -26.6498,41.4277 L -25.6841,42.2266 L -24.5501,42.7603 L -23.005,43.005 L 67.005,43.005
 z
M 11.25,15 L 11.25,-15 L 32.75,-15 L 32.75,-14.8482 L 34.6918,-14.9704 L 38.3853,-14.2658
 L 41.7874,-12.6649 L 44.6845,-10.2682 L 46.8946,-7.2263 L 48.2787,-3.73035 L 48.75,-0 L 48.2787,3.73035
 L 46.8946,7.2263 L 44.6845,10.2682 L 41.7874,12.6649 L 38.3853,14.2658 L 34.6918,14.9704 L 32.75,14.8482
 L 32.75,15 z
M -30.7688,7 L -30.7688,-7 L -28.9428,-7 L -28.9428,-5 L -30,-5 L -30,5
 L -28.9428,5 L -28.9428,7 z
M -31.6922,7 L -31.6922,-7 L -31.25,-7 L -31.25,7 z
M 206.748,73.3479 L 207.914,72.8865 L 208.928,72.1498 L 209.727,71.1841 L 210.26,70.0501 L 210.505,68.505
 L 210.505,-12.505 L 210.348,-13.7484 L 209.887,-14.9138 L 209.15,-15.9277 L 208.184,-16.7266 L 207.05,-17.2603
 L 205.505,-17.505 L 100.656,-17.505 L 102.319,-13.3049 L 102.484,-12 L 110,-12 L 110,-4
 L 103.495,-4 L 103.621,-3 L 100,-3 L 100,9 L 102.863,9 L 102.319,13.3049
 L 97.3824,25.7738 L 95.495,28.3716 L 95.495,68.505 L 95.6521,69.7484 L 96.1135,70.9138 L 96.8502,71.9277
 L 97.8159,72.7266 L 98.9499,73.2603 L 100.495,73.505 L 205.505,73.505 z
M 167.153,7 L 167.153,4.75 L 168.308,4.75 L 168.308,-7 L 171.057,-7 L 171.057,-5
 L 170,-5 L 170,5 L 171.057,5 L 171.057,7 z
M 146.27,66.2787 L 142.774,64.8946 L 139.732,62.6845 L 137.335,59.7874 L 135.734,56.3853 L 135.03,52.6918
 L 135.152,50.75 L 135,50.75 L 135,29.25 L 165,29.25 L 165,50.75 L 164.848,50.75
 L 164.97,52.6918 L 164.266,56.3853 L 162.665,59.7874 L 160.268,62.6845 L 157.226,64.8946 L 153.73,66.2787
 L 150,66.75 z
" stroke="black" fill="lightgray" stroke-width="0.5"/>
</svg>
