<?xml version="1.0" standalone="no"?>
<!DOCTYPE svg PUBLIC "-//W3C//DTD SVG 1.1//EN" "http://www.w3.org/Graphics/SVG/1.1/DTD/svg11.dtd">
<svg width="2427mm" height="119mm" viewBox="-100 -45 2427 119" xmlns="http://www.w3.org/2000/svg" version="1.1">
<title>OpenSCAD Model</title>
<path d="
M 1958,-45 L 1838,-45 L 1838,-22.5 L 1856,-22.5 L 1856,-12.5 L 1870,-12.5
 L 1870,12.5 L 1856,12.5 L 1856,22.5 L 1838,22.5 L 1838,45 L 1958,45
 z
M 1843.44,-36.0531 L 1842.72,-36.2855 L 1842.09,-36.6885 L 1841.57,-37.2366 L 1841.21,-37.8956 L 1841.02,-38.624
 L 1841.02,-39.376 L 1841.21,-40.1044 L 1841.57,-40.7634 L 1842.09,-41.3115 L 1842.72,-41.7145 L 1843.44,-41.9469
 L 1844.19,-41.9941 L 1844.93,-41.8532 L 1845.61,-41.533 L 1846.19,-41.0536 L 1846.63,-40.4453 L 1846.91,-39.7461
 L 1847,-39 L 1846.91,-38.2539 L 1846.63,-37.5547 L 1846.19,-36.9464 L 1845.61,-36.467 L 1844.93,-36.1468
 L 1844.19,-36.0059 z
M 1951.44,-36.0531 L 1950.72,-36.2855 L 1950.09,-36.6885 L 1949.57,-37.2366 L 1949.21,-37.8956 L 1949.02,-38.624
 L 1949.02,-39.376 L 1949.21,-40.1044 L 1949.57,-40.7634 L 1950.09,-41.3115 L 1950.72,-41.7145 L 1951.44,-41.9469
 L 1952.19,-41.9941 L 1952.93,-41.8532 L 1953.61,-41.533 L 1954.19,-41.0536 L 1954.63,-40.4453 L 1954.91,-39.7461
 L 1955,-39 L 1954.91,-38.2539 L 1954.63,-37.5547 L 1954.19,-36.9464 L 1953.61,-36.467 L 1952.93,-36.1468
 L 1952.19,-36.0059 z
M 1863.72,-25.5266 L 1863.36,-25.6427 L 1863.04,-25.8442 L 1862.79,-26.1183 L 1862.61,-26.4478 L 1862.51,-26.812
 L 1862.51,-27.188 L 1862.61,-27.5522 L 1862.79,-27.8817 L 1863.04,-28.1558 L 1863.36,-28.3572 L 1863.72,-28.4734
 L 1864.09,-28.497 L 1864.46,-28.4266 L 1864.8,-28.2665 L 1865.09,-28.0268 L 1865.31,-27.7226 L 1865.45,-27.373
 L 1865.5,-27 L 1865.45,-26.627 L 1865.31,-26.2774 L 1865.09,-25.9732 L 1864.8,-25.7335 L 1864.46,-25.5734
 L 1864.09,-25.503 z
M 1913.72,-25.5266 L 1913.36,-25.6427 L 1913.04,-25.8442 L 1912.79,-26.1183 L 1912.61,-26.4478 L 1912.51,-26.812
 L 1912.51,-27.188 L 1912.61,-27.5522 L 1912.79,-27.8817 L 1913.04,-28.1558 L 1913.36,-28.3572 L 1913.72,-28.4734
 L 1914.09,-28.497 L 1914.46,-28.4266 L 1914.8,-28.2665 L 1915.09,-28.0268 L 1915.31,-27.7226 L 1915.45,-27.373
 L 1915.5,-27 L 1915.45,-26.627 L 1915.31,-26.2774 L 1915.09,-25.9732 L 1914.8,-25.7335 L 1914.46,-25.5734
 L 1914.09,-25.503 z
M 1898.72,1.47342 L 1898.36,1.35724 L 1898.04,1.15576 L 1897.79,0.881668 L 1897.61,0.552185 L 1897.51,0.187988
 L 1897.51,-0.187988 L 1897.61,-0.552185 L 1897.79,-0.881668 L 1898.04,-1.15576 L 1898.36,-1.35724 L 1898.72,-1.47342
 L 1899.09,-1.49704 L 1899.46,-1.42657 L 1899.8,-1.26648 L 1900.09,-1.02681 L 1900.31,-0.722626 L 1900.45,-0.373032
 L 1900.5,-0 L 1900.45,0.373032 L 1900.31,0.722626 L 1900.09,1.02681 L 1899.8,1.26648 L 1899.46,1.42657
 L 1899.09,1.49704 z
M 1922.72,1.47342 L 1922.36,1.35724 L 1922.04,1.15576 L 1921.79,0.881668 L 1921.61,0.552185 L 1921.51,0.187988
 L 1921.51,-0.187988 L 1921.61,-0.552185 L 1921.79,-0.881668 L 1922.04,-1.15576 L 1922.36,-1.35724 L 1922.72,-1.47342
 L 1923.09,-1.49704 L 1923.46,-1.42657 L 1923.8,-1.26648 L 1924.09,-1.02681 L 1924.31,-0.722626 L 1924.45,-0.373032
 L 1924.5,-0 L 1924.45,0.373032 L 1924.31,0.722626 L 1924.09,1.02681 L 1923.8,1.26648 L 1923.46,1.42657
 L 1923.09,1.49704 z
M 1928.72,1.47342 L 1928.36,1.35724 L 1928.04,1.15576 L 1927.79,0.881668 L 1927.61,0.552185 L 1927.51,0.187988
 L 1927.51,-0.187988 L 1927.61,-0.552185 L 1927.79,-0.881668 L 1928.04,-1.15576 L 1928.36,-1.35724 L 1928.72,-1.47342
 L 1929.09,-1.49704 L 1929.46,-1.42657 L 1929.8,-1.26648 L 1930.09,-1.02681 L 1930.31,-0.722626 L 1930.45,-0.373032
 L 1930.5,-0 L 1930.45,0.373032 L 1930.31,0.722626 L 1930.09,1.02681 L 1929.8,1.26648 L 1929.46,1.42657
 L 1929.09,1.49704 z
M 1863.72,28.4734 L 1863.36,28.3572 L 1863.04,28.1558 L 1862.79,27.8817 L 1862.61,27.5522 L 1862.51,27.188
 L 1862.51,26.812 L 1862.61,26.4478 L 1862.79,26.1183 L 1863.04,25.8442 L 1863.36,25.6427 L 1863.72,25.5266
 L 1864.09,25.503 L 1864.46,25.5734 L 1864.8,25.7335 L 1865.09,25.9732 L 1865.31,26.2774 L 1865.45,26.627
 L 1865.5,27 L 1865.45,27.373 L 1865.31,27.7226 L 1865.09,28.0268 L 1864.8,28.2665 L 1864.46,28.4266
 L 1864.09,28.497 z
M 1913.72,28.4734 L 1913.36,28.3572 L 1913.04,28.1558 L 1912.79,27.8817 L 1912.61,27.5522 L 1912.51,27.188
 L 1912.51,26.812 L 1912.61,26.4478 L 1912.79,26.1183 L 1913.04,25.8442 L 1913.36,25.6427 L 1913.72,25.5266
 L 1914.09,25.503 L 1914.46,25.5734 L 1914.8,25.7335 L 1915.09,25.9732 L 1915.31,26.2774 L 1915.45,26.627
 L 1915.5,27 L 1915.45,27.373 L 1915.31,27.7226 L 1915.09,28.0268 L 1914.8,28.2665 L 1914.46,28.4266
 L 1914.09,28.497 z
M 1843.44,41.9469 L 1842.72,41.7145 L 1842.09,41.3115 L 1841.57,40.7634 L 1841.21,40.1044 L 1841.02,39.376
 L 1841.02,38.624 L 1841.21,37.8956 L 1841.57,37.2366 L 1842.09,36.6885 L 1842.72,36.2855 L 1843.44,36.0531
 L 1844.19,36.0059 L 1844.93,36.1468 L 1845.61,36.467 L 1846.19,36.9464 L 1846.63,37.5547 L 1846.91,38.2539
 L 1847,39 L 1846.91,39.7461 L 1846.63,40.4453 L 1846.19,41.0536 L 1845.61,41.533 L 1844.93,41.8532
 L 1844.19,41.9941 z
M 1951.44,41.9469 L 1950.72,41.7145 L 1950.09,41.3115 L 1949.57,40.7634 L 1949.21,40.1044 L 1949.02,39.376
 L 1949.02,38.624 L 1949.21,37.8956 L 1949.57,37.2366 L 1950.09,36.6885 L 1950.72,36.2855 L 1951.44,36.0531
 L 1952.19,36.0059 L 1952.93,36.1468 L 1953.61,36.467 L 1954.19,36.9464 L 1954.63,37.5547 L 1954.91,38.2539
 L 1955,39 L 1954.91,39.7461 L 1954.63,40.4453 L 1954.19,41.0536 L 1953.61,41.533 L 1952.93,41.8532
 L 1952.19,41.9941 z
M 2116,-29.5 L 2204,-29.5 L 2204,-45 L 2084,-45 L 2084,-22.5 L 2102,-22.5
 L 2102,-12.5 L 2116,-12.5 z
M 2197.44,-36.0531 L 2196.72,-36.2855 L 2196.09,-36.6885 L 2195.57,-37.2366 L 2195.21,-37.8956 L 2195.02,-38.624
 L 2195.02,-39.376 L 2195.21,-40.1044 L 2195.57,-40.7634 L 2196.09,-41.3115 L 2196.72,-41.7145 L 2197.44,-41.9469
 L 2198.19,-41.9941 L 2198.93,-41.8532 L 2199.61,-41.533 L 2200.19,-41.0536 L 2200.63,-40.4453 L 2200.91,-39.7461
 L 2201,-39 L 2200.91,-38.2539 L 2200.63,-37.5547 L 2200.19,-36.9464 L 2199.61,-36.467 L 2198.93,-36.1468
 L 2198.19,-36.0059 z
M 2089.44,-36.0531 L 2088.72,-36.2855 L 2088.09,-36.6885 L 2087.57,-37.2366 L 2087.21,-37.8956 L 2087.02,-38.624
 L 2087.02,-39.376 L 2087.21,-40.1044 L 2087.57,-40.7634 L 2088.09,-41.3115 L 2088.72,-41.7145 L 2089.44,-41.9469
 L 2090.19,-41.9941 L 2090.93,-41.8532 L 2091.61,-41.533 L 2092.19,-41.0536 L 2092.63,-40.4453 L 2092.91,-39.7461
 L 2093,-39 L 2092.91,-38.2539 L 2092.63,-37.5547 L 2092.19,-36.9464 L 2091.61,-36.467 L 2090.93,-36.1468
 L 2090.19,-36.0059 z
M 2109.72,-25.5266 L 2109.36,-25.6427 L 2109.04,-25.8442 L 2108.79,-26.1183 L 2108.61,-26.4478 L 2108.51,-26.812
 L 2108.51,-27.188 L 2108.61,-27.5522 L 2108.79,-27.8817 L 2109.04,-28.1558 L 2109.36,-28.3572 L 2109.72,-28.4734
 L 2110.09,-28.497 L 2110.46,-28.4266 L 2110.8,-28.2665 L 2111.09,-28.0268 L 2111.31,-27.7226 L 2111.45,-27.373
 L 2111.5,-27 L 2111.45,-26.627 L 2111.31,-26.2774 L 2111.09,-25.9732 L 2110.8,-25.7335 L 2110.46,-25.5734
 L 2110.09,-25.503 z
M 1466,-45 L 1346,-45 L 1346,-21.5 L 1431.5,-21.5 L 1431.5,-21.3726 L 1432.85,-21.4576
 L 1438.14,-20.4477 L 1443.02,-18.153 L 1447.17,-14.7178 L 1450.34,-10.3577 L 1452.32,-5.34683 L 1453,-0
 L 1452.32,5.34683 L 1450.34,10.3577 L 1447.17,14.7178 L 1443.02,18.153 L 1438.14,20.4477 L 1432.85,21.4576
 L 1431.5,21.3726 L 1431.5,21.5 L 1346,21.5 L 1346,45 L 1466,45 z
M 1351.44,-36.0531 L 1350.72,-36.2855 L 1350.09,-36.6885 L 1349.57,-37.2366 L 1349.21,-37.8956 L 1349.02,-38.624
 L 1349.02,-39.376 L 1349.21,-40.1044 L 1349.57,-40.7634 L 1350.09,-41.3115 L 1350.72,-41.7145 L 1351.44,-41.9469
 L 1352.19,-41.9941 L 1352.93,-41.8532 L 1353.61,-41.533 L 1354.19,-41.0536 L 1354.63,-40.4453 L 1354.91,-39.7461
 L 1355,-39 L 1354.91,-38.2539 L 1354.63,-37.5547 L 1354.19,-36.9464 L 1353.61,-36.467 L 1352.93,-36.1468
 L 1352.19,-36.0059 z
M 1459.44,-36.0531 L 1458.72,-36.2855 L 1458.09,-36.6885 L 1457.57,-37.2366 L 1457.21,-37.8956 L 1457.02,-38.624
 L 1457.02,-39.376 L 1457.21,-40.1044 L 1457.57,-40.7634 L 1458.09,-41.3115 L 1458.72,-41.7145 L 1459.44,-41.9469
 L 1460.19,-41.9941 L 1460.93,-41.8532 L 1461.61,-41.533 L 1462.19,-41.0536 L 1462.63,-40.4453 L 1462.91,-39.7461
 L 1463,-39 L 1462.91,-38.2539 L 1462.63,-37.5547 L 1462.19,-36.9464 L 1461.61,-36.467 L 1460.93,-36.1468
 L 1460.19,-36.0059 z
M 1371.72,-25.5266 L 1371.36,-25.6427 L 1371.04,-25.8442 L 1370.79,-26.1183 L 1370.61,-26.4478 L 1370.51,-26.812
 L 1370.51,-27.188 L 1370.61,-27.5522 L 1370.79,-27.8817 L 1371.04,-28.1558 L 1371.36,-28.3572 L 1371.72,-28.4734
 L 1372.09,-28.497 L 1372.46,-28.4266 L 1372.8,-28.2665 L 1373.09,-28.0268 L 1373.31,-27.7226 L 1373.45,-27.373
 L 1373.5,-27 L 1373.45,-26.627 L 1373.31,-26.2774 L 1373.09,-25.9732 L 1372.8,-25.7335 L 1372.46,-25.5734
 L 1372.09,-25.503 z
M 1421.72,-25.5266 L 1421.36,-25.6427 L 1421.04,-25.8442 L 1420.79,-26.1183 L 1420.61,-26.4478 L 1420.51,-26.812
 L 1420.51,-27.188 L 1420.61,-27.5522 L 1420.79,-27.8817 L 1421.04,-28.1558 L 1421.36,-28.3572 L 1421.72,-28.4734
 L 1422.09,-28.497 L 1422.46,-28.4266 L 1422.8,-28.2665 L 1423.09,-28.0268 L 1423.31,-27.7226 L 1423.45,-27.373
 L 1423.5,-27 L 1423.45,-26.627 L 1423.31,-26.2774 L 1423.09,-25.9732 L 1422.8,-25.7335 L 1422.46,-25.5734
 L 1422.09,-25.503 z
M 1371.72,28.4734 L 1371.36,28.3572 L 1371.04,28.1558 L 1370.79,27.8817 L 1370.61,27.5522 L 1370.51,27.188
 L 1370.51,26.812 L 1370.61,26.4478 L 1370.79,26.1183 L 1371.04,25.8442 L 1371.36,25.6427 L 1371.72,25.5266
 L 1372.09,25.503 L 1372.46,25.5734 L 1372.8,25.7335 L 1373.09,25.9732 L 1373.31,26.2774 L 1373.45,26.627
 L 1373.5,27 L 1373.45,27.373 L 1373.31,27.7226 L 1373.09,28.0268 L 1372.8,28.2665 L 1372.46,28.4266
 L 1372.09,28.497 z
M 1421.72,28.4734 L 1421.36,28.3572 L 1421.04,28.1558 L 1420.79,27.8817 L 1420.61,27.5522 L 1420.51,27.188
 L 1420.51,26.812 L 1420.61,26.4478 L 1420.79,26.1183 L 1421.04,25.8442 L 1421.36,25.6427 L 1421.72,25.5266
 L 1422.09,25.503 L 1422.46,25.5734 L 1422.8,25.7335 L 1423.09,25.9732 L 1423.31,26.2774 L 1423.45,26.627
 L 1423.5,27 L 1423.45,27.373 L 1423.31,27.7226 L 1423.09,28.0268 L 1422.8,28.2665 L 1422.46,28.4266
 L 1422.09,28.497 z
M 1459.44,41.9469 L 1458.72,41.7145 L 1458.09,41.3115 L 1457.57,40.7634 L 1457.21,40.1044 L 1457.02,39.376
 L 1457.02,38.624 L 1457.21,37.8956 L 1457.57,37.2366 L 1458.09,36.6885 L 1458.72,36.2855 L 1459.44,36.0531
 L 1460.19,36.0059 L 1460.93,36.1468 L 1461.61,36.467 L 1462.19,36.9464 L 1462.63,37.5547 L 1462.91,38.2539
 L 1463,39 L 1462.91,39.7461 L 1462.63,40.4453 L 1462.19,41.0536 L 1461.61,41.533 L 1460.93,41.8532
 L 1460.19,41.9941 z
M 1351.44,41.9469 L 1350.72,41.7145 L 1350.09,41.3115 L 1349.57,40.7634 L 1349.21,40.1044 L 1349.02,39.376
 L 1349.02,38.624 L 1349.21,37.8956 L 1349.57,37.2366 L 1350.09,36.6885 L 1350.72,36.2855 L 1351.44,36.0531
 L 1352.19,36.0059 L 1352.93,36.1468 L 1353.61,36.467 L 1354.19,36.9464 L 1354.63,37.5547 L 1354.91,38.2539
 L 1355,39 L 1354.91,39.7461 L 1354.63,40.4453 L 1354.19,41.0536 L 1353.61,41.533 L 1352.93,41.8532
 L 1352.19,41.9941 z
M 1835,-45 L 1715,-45 L 1715,-22.5 L 1733,-22.5 L 1733,-15.005 L 1816.01,-15.005
 L 1816.62,-14.9071 L 1817.08,-14.6936 L 1817.46,-14.3741 L 1817.76,-13.9685 L 1817.94,-13.5024 L 1818.01,-13.005
 L 1818.01,13.005 L 1817.91,13.623 L 1817.69,14.0766 L 1817.37,14.4629 L 1816.97,14.7576 L 1816.5,14.9422
 L 1816.01,15.005 L 1801.99,15.005 L 1801.38,14.9071 L 1800.92,14.6936 L 1800.54,14.3741 L 1800.24,13.9685
 L 1800.06,13.5024 L 1799.99,13.005 L 1799.99,5.99501 L 1800.09,5.37698 L 1800.31,4.92336 L 1800.63,4.53708
 L 1801.03,4.2424 L 1801.5,4.05785 L 1801.99,3.99501 L 1808.99,3.99501 L 1808.99,-3.99501 L 1747,-3.99501
 L 1747,3.99501 L 1769.01,3.99501 L 1769.62,4.0929 L 1770.08,4.30635 L 1770.46,4.62592 L 1770.76,5.03151
 L 1770.94,5.49763 L 1771.01,5.99501 L 1771.01,13.005 L 1770.91,13.623 L 1770.69,14.0766 L 1770.37,14.4629
 L 1769.97,14.7576 L 1769.5,14.9422 L 1769.01,15.005 L 1733,15.005 L 1733,22.5 L 1715,22.5
 L 1715,45 L 1835,45 z
M 1720.44,-36.0531 L 1719.72,-36.2855 L 1719.09,-36.6885 L 1718.57,-37.2366 L 1718.21,-37.8956 L 1718.02,-38.624
 L 1718.02,-39.376 L 1718.21,-40.1044 L 1718.57,-40.7634 L 1719.09,-41.3115 L 1719.72,-41.7145 L 1720.44,-41.9469
 L 1721.19,-41.9941 L 1721.93,-41.8532 L 1722.61,-41.533 L 1723.19,-41.0536 L 1723.63,-40.4453 L 1723.91,-39.7461
 L 1724,-39 L 1723.91,-38.2539 L 1723.63,-37.5547 L 1723.19,-36.9464 L 1722.61,-36.467 L 1721.93,-36.1468
 L 1721.19,-36.0059 z
M 1828.44,-36.0531 L 1827.72,-36.2855 L 1827.09,-36.6885 L 1826.57,-37.2366 L 1826.21,-37.8956 L 1826.02,-38.624
 L 1826.02,-39.376 L 1826.21,-40.1044 L 1826.57,-40.7634 L 1827.09,-41.3115 L 1827.72,-41.7145 L 1828.44,-41.9469
 L 1829.19,-41.9941 L 1829.93,-41.8532 L 1830.61,-41.533 L 1831.19,-41.0536 L 1831.63,-40.4453 L 1831.91,-39.7461
 L 1832,-39 L 1831.91,-38.2539 L 1831.63,-37.5547 L 1831.19,-36.9464 L 1830.61,-36.467 L 1829.93,-36.1468
 L 1829.19,-36.0059 z
M 1739.41,-24.2499 L 1737.82,-27 L 1739.41,-29.7501 L 1742.59,-29.7501 L 1744.18,-27 L 1742.59,-24.2499
 z
M 1789.41,-24.2499 L 1787.82,-27 L 1789.41,-29.7501 L 1792.59,-29.7501 L 1794.18,-27 L 1792.59,-24.2499
 z
M 1798.41,2.75006 L 1796.82,-0 L 1798.41,-2.75006 L 1801.59,-2.75006 L 1803.18,-0 L 1801.59,2.75006
 z
M 1775.72,1.47342 L 1775.36,1.35724 L 1775.04,1.15576 L 1774.79,0.881668 L 1774.61,0.552185 L 1774.51,0.187988
 L 1774.51,-0.187988 L 1774.61,-0.552185 L 1774.79,-0.881668 L 1775.04,-1.15576 L 1775.36,-1.35724 L 1775.72,-1.47342
 L 1776.09,-1.49704 L 1776.46,-1.42657 L 1776.8,-1.26648 L 1777.09,-1.02681 L 1777.31,-0.722626 L 1777.45,-0.373032
 L 1777.5,-0 L 1777.45,0.373032 L 1777.31,0.722626 L 1777.09,1.02681 L 1776.8,1.26648 L 1776.46,1.42657
 L 1776.09,1.49704 z
M 1805.72,1.47342 L 1805.36,1.35724 L 1805.04,1.15576 L 1804.79,0.881668 L 1804.61,0.552185 L 1804.51,0.187988
 L 1804.51,-0.187988 L 1804.61,-0.552185 L 1804.79,-0.881668 L 1805.04,-1.15576 L 1805.36,-1.35724 L 1805.72,-1.47342
 L 1806.09,-1.49704 L 1806.46,-1.42657 L 1806.8,-1.26648 L 1807.09,-1.02681 L 1807.31,-0.722626 L 1807.45,-0.373032
 L 1807.5,-0 L 1807.45,0.373032 L 1807.31,0.722626 L 1807.09,1.02681 L 1806.8,1.26648 L 1806.46,1.42657
 L 1806.09,1.49704 z
M 1789.41,29.7501 L 1787.82,27 L 1789.41,24.2499 L 1792.59,24.2499 L 1794.18,27 L 1792.59,29.7501
 z
M 1739.41,29.7501 L 1737.82,27 L 1739.41,24.2499 L 1742.59,24.2499 L 1744.18,27 L 1742.59,29.7501
 z
M 1828.44,41.9469 L 1827.72,41.7145 L 1827.09,41.3115 L 1826.57,40.7634 L 1826.21,40.1044 L 1826.02,39.376
 L 1826.02,38.624 L 1826.21,37.8956 L 1826.57,37.2366 L 1827.09,36.6885 L 1827.72,36.2855 L 1828.44,36.0531
 L 1829.19,36.0059 L 1829.93,36.1468 L 1830.61,36.467 L 1831.19,36.9464 L 1831.63,37.5547 L 1831.91,38.2539
 L 1832,39 L 1831.91,39.7461 L 1831.63,40.4453 L 1831.19,41.0536 L 1830.61,41.533 L 1829.93,41.8532
 L 1829.19,41.9941 z
M 1720.44,41.9469 L 1719.72,41.7145 L 1719.09,41.3115 L 1718.57,40.7634 L 1718.21,40.1044 L 1718.02,39.376
 L 1718.02,38.624 L 1718.21,37.8956 L 1718.57,37.2366 L 1719.09,36.6885 L 1719.72,36.2855 L 1720.44,36.0531
 L 1721.19,36.0059 L 1721.93,36.1468 L 1722.61,36.467 L 1723.19,36.9464 L 1723.63,37.5547 L 1723.91,38.2539
 L 1724,39 L 1723.91,39.7461 L 1723.63,40.4453 L 1723.19,41.0536 L 1722.61,41.533 L 1721.93,41.8532
 L 1721.19,41.9941 z
M 1343,-45 L 1223,-45 L 1223,-21.5 L 1308.5,-21.5 L 1308.5,-21.3726 L 1309.85,-21.4576
 L 1315.14,-20.4477 L 1320.02,-18.153 L 1324.17,-14.7178 L 1327.34,-10.3577 L 1329.32,-5.34683 L 1330,-0
 L 1329.32,5.34683 L 1327.34,10.3577 L 1324.17,14.7178 L 1320.02,18.153 L 1315.14,20.4477 L 1309.85,21.4576
 L 1308.5,21.3726 L 1308.5,21.5 L 1223,21.5 L 1223,45 L 1343,45 z
M 1336.44,-36.0531 L 1335.72,-36.2855 L 1335.09,-36.6885 L 1334.57,-37.2366 L 1334.21,-37.8956 L 1334.02,-38.624
 L 1334.02,-39.376 L 1334.21,-40.1044 L 1334.57,-40.7634 L 1335.09,-41.3115 L 1335.72,-41.7145 L 1336.44,-41.9469
 L 1337.19,-41.9941 L 1337.93,-41.8532 L 1338.61,-41.533 L 1339.19,-41.0536 L 1339.63,-40.4453 L 1339.91,-39.7461
 L 1340,-39 L 1339.91,-38.2539 L 1339.63,-37.5547 L 1339.19,-36.9464 L 1338.61,-36.467 L 1337.93,-36.1468
 L 1337.19,-36.0059 z
M 1228.44,-36.0531 L 1227.72,-36.2855 L 1227.09,-36.6885 L 1226.57,-37.2366 L 1226.21,-37.8956 L 1226.02,-38.624
 L 1226.02,-39.376 L 1226.21,-40.1044 L 1226.57,-40.7634 L 1227.09,-41.3115 L 1227.72,-41.7145 L 1228.44,-41.9469
 L 1229.19,-41.9941 L 1229.93,-41.8532 L 1230.61,-41.533 L 1231.19,-41.0536 L 1231.63,-40.4453 L 1231.91,-39.7461
 L 1232,-39 L 1231.91,-38.2539 L 1231.63,-37.5547 L 1231.19,-36.9464 L 1230.61,-36.467 L 1229.93,-36.1468
 L 1229.19,-36.0059 z
M 1248.72,-25.5266 L 1248.36,-25.6427 L 1248.04,-25.8442 L 1247.79,-26.1183 L 1247.61,-26.4478 L 1247.51,-26.812
 L 1247.51,-27.188 L 1247.61,-27.5522 L 1247.79,-27.8817 L 1248.04,-28.1558 L 1248.36,-28.3572 L 1248.72,-28.4734
 L 1249.09,-28.497 L 1249.46,-28.4266 L 1249.8,-28.2665 L 1250.09,-28.0268 L 1250.31,-27.7226 L 1250.45,-27.373
 L 1250.5,-27 L 1250.45,-26.627 L 1250.31,-26.2774 L 1250.09,-25.9732 L 1249.8,-25.7335 L 1249.46,-25.5734
 L 1249.09,-25.503 z
M 1298.72,-25.5266 L 1298.36,-25.6427 L 1298.04,-25.8442 L 1297.79,-26.1183 L 1297.61,-26.4478 L 1297.51,-26.812
 L 1297.51,-27.188 L 1297.61,-27.5522 L 1297.79,-27.8817 L 1298.04,-28.1558 L 1298.36,-28.3572 L 1298.72,-28.4734
 L 1299.09,-28.497 L 1299.46,-28.4266 L 1299.8,-28.2665 L 1300.09,-28.0268 L 1300.31,-27.7226 L 1300.45,-27.373
 L 1300.5,-27 L 1300.45,-26.627 L 1300.31,-26.2774 L 1300.09,-25.9732 L 1299.8,-25.7335 L 1299.46,-25.5734
 L 1299.09,-25.503 z
M 1298.72,28.4734 L 1298.36,28.3572 L 1298.04,28.1558 L 1297.79,27.8817 L 1297.61,27.5522 L 1297.51,27.188
 L 1297.51,26.812 L 1297.61,26.4478 L 1297.79,26.1183 L 1298.04,25.8442 L 1298.36,25.6427 L 1298.72,25.5266
 L 1299.09,25.503 L 1299.46,25.5734 L 1299.8,25.7335 L 1300.09,25.9732 L 1300.31,26.2774 L 1300.45,26.627
 L 1300.5,27 L 1300.45,27.373 L 1300.31,27.7226 L 1300.09,28.0268 L 1299.8,28.2665 L 1299.46,28.4266
 L 1299.09,28.497 z
M 1248.72,28.4734 L 1248.36,28.3572 L 1248.04,28.1558 L 1247.79,27.8817 L 1247.61,27.5522 L 1247.51,27.188
 L 1247.51,26.812 L 1247.61,26.4478 L 1247.79,26.1183 L 1248.04,25.8442 L 1248.36,25.6427 L 1248.72,25.5266
 L 1249.09,25.503 L 1249.46,25.5734 L 1249.8,25.7335 L 1250.09,25.9732 L 1250.31,26.2774 L 1250.45,26.627
 L 1250.5,27 L 1250.45,27.373 L 1250.31,27.7226 L 1250.09,28.0268 L 1249.8,28.2665 L 1249.46,28.4266
 L 1249.09,28.497 z
M 1336.44,41.9469 L 1335.72,41.7145 L 1335.09,41.3115 L 1334.57,40.7634 L 1334.21,40.1044 L 1334.02,39.376
 L 1334.02,38.624 L 1334.21,37.8956 L 1334.57,37.2366 L 1335.09,36.6885 L 1335.72,36.2855 L 1336.44,36.0531
 L 1337.19,36.0059 L 1337.93,36.1468 L 1338.61,36.467 L 1339.19,36.9464 L 1339.63,37.5547 L 1339.91,38.2539
 L 1340,39 L 1339.91,39.7461 L 1339.63,40.4453 L 1339.19,41.0536 L 1338.61,41.533 L 1337.93,41.8532
 L 1337.19,41.9941 z
M 1228.44,41.9469 L 1227.72,41.7145 L 1227.09,41.3115 L 1226.57,40.7634 L 1226.21,40.1044 L 1226.02,39.376
 L 1226.02,38.624 L 1226.21,37.8956 L 1226.57,37.2366 L 1227.09,36.6885 L 1227.72,36.2855 L 1228.44,36.0531
 L 1229.19,36.0059 L 1229.93,36.1468 L 1230.61,36.467 L 1231.19,36.9464 L 1231.63,37.5547 L 1231.91,38.2539
 L 1232,39 L 1231.91,39.7461 L 1231.63,40.4453 L 1231.19,41.0536 L 1230.61,41.533 L 1229.93,41.8532
 L 1229.19,41.9941 z
M 819,-45 L 699,-45 L 699,45 L 819,45 z
M 812.438,-36.0531 L 811.723,-36.2855 L 811.088,-36.6885 L 810.573,-37.2366 L 810.211,-37.8956 L 810.024,-38.624
 L 810.024,-39.376 L 810.211,-40.1044 L 810.573,-40.7634 L 811.088,-41.3115 L 811.723,-41.7145 L 812.438,-41.9469
 L 813.188,-41.9941 L 813.927,-41.8532 L 814.607,-41.533 L 815.187,-41.0536 L 815.629,-40.4453 L 815.906,-39.7461
 L 816,-39 L 815.906,-38.2539 L 815.629,-37.5547 L 815.187,-36.9464 L 814.607,-36.467 L 813.927,-36.1468
 L 813.188,-36.0059 z
M 704.438,-36.0531 L 703.723,-36.2855 L 703.088,-36.6885 L 702.573,-37.2366 L 702.211,-37.8956 L 702.024,-38.624
 L 702.024,-39.376 L 702.211,-40.1044 L 702.573,-40.7634 L 703.088,-41.3115 L 703.723,-41.7145 L 704.438,-41.9469
 L 705.188,-41.9941 L 705.927,-41.8532 L 706.607,-41.533 L 707.187,-41.0536 L 707.629,-40.4453 L 707.906,-39.7461
 L 708,-39 L 707.906,-38.2539 L 707.629,-37.5547 L 707.187,-36.9464 L 706.607,-36.467 L 705.927,-36.1468
 L 705.188,-36.0059 z
M 724.719,-25.5266 L 724.361,-25.6427 L 724.044,-25.8442 L 723.786,-26.1183 L 723.605,-26.4478 L 723.512,-26.812
 L 723.512,-27.188 L 723.605,-27.5522 L 723.786,-27.8817 L 724.044,-28.1558 L 724.361,-28.3572 L 724.719,-28.4734
 L 725.094,-28.497 L 725.464,-28.4266 L 725.804,-28.2665 L 726.093,-28.0268 L 726.314,-27.7226 L 726.453,-27.373
 L 726.5,-27 L 726.453,-26.627 L 726.314,-26.2774 L 726.093,-25.9732 L 725.804,-25.7335 L 725.464,-25.5734
 L 725.094,-25.503 z
M 774.719,-25.5266 L 774.361,-25.6427 L 774.044,-25.8442 L 773.786,-26.1183 L 773.605,-26.4478 L 773.512,-26.812
 L 773.512,-27.188 L 773.605,-27.5522 L 773.786,-27.8817 L 774.044,-28.1558 L 774.361,-28.3572 L 774.719,-28.4734
 L 775.094,-28.497 L 775.464,-28.4266 L 775.804,-28.2665 L 776.093,-28.0268 L 776.314,-27.7226 L 776.453,-27.373
 L 776.5,-27 L 776.453,-26.627 L 776.314,-26.2774 L 776.093,-25.9732 L 775.804,-25.7335 L 775.464,-25.5734
 L 775.094,-25.503 z
M 706,12.5 L 706,-12.5 L 731,-12.5 L 731,12.5 z
M 759.719,1.47342 L 759.361,1.35724 L 759.044,1.15576 L 758.786,0.881668 L 758.605,0.552185 L 758.512,0.187988
 L 758.512,-0.187988 L 758.605,-0.552185 L 758.786,-0.881668 L 759.044,-1.15576 L 759.361,-1.35724 L 759.719,-1.47342
 L 760.094,-1.49704 L 760.464,-1.42657 L 760.804,-1.26648 L 761.093,-1.02681 L 761.314,-0.722626 L 761.453,-0.373032
 L 761.5,-0 L 761.453,0.373032 L 761.314,0.722626 L 761.093,1.02681 L 760.804,1.26648 L 760.464,1.42657
 L 760.094,1.49704 z
M 783.719,1.47342 L 783.361,1.35724 L 783.044,1.15576 L 782.786,0.881668 L 782.605,0.552185 L 782.512,0.187988
 L 782.512,-0.187988 L 782.605,-0.552185 L 782.786,-0.881668 L 783.044,-1.15576 L 783.361,-1.35724 L 783.719,-1.47342
 L 784.094,-1.49704 L 784.464,-1.42657 L 784.804,-1.26648 L 785.093,-1.02681 L 785.314,-0.722626 L 785.453,-0.373032
 L 785.5,-0 L 785.453,0.373032 L 785.314,0.722626 L 785.093,1.02681 L 784.804,1.26648 L 784.464,1.42657
 L 784.094,1.49704 z
M 789.719,1.47342 L 789.361,1.35724 L 789.044,1.15576 L 788.786,0.881668 L 788.605,0.552185 L 788.512,0.187988
 L 788.512,-0.187988 L 788.605,-0.552185 L 788.786,-0.881668 L 789.044,-1.15576 L 789.361,-1.35724 L 789.719,-1.47342
 L 790.094,-1.49704 L 790.464,-1.42657 L 790.804,-1.26648 L 791.093,-1.02681 L 791.314,-0.722626 L 791.453,-0.373032
 L 791.5,-0 L 791.453,0.373032 L 791.314,0.722626 L 791.093,1.02681 L 790.804,1.26648 L 790.464,1.42657
 L 790.094,1.49704 z
M 724.719,28.4734 L 724.361,28.3572 L 724.044,28.1558 L 723.786,27.8817 L 723.605,27.5522 L 723.512,27.188
 L 723.512,26.812 L 723.605,26.4478 L 723.786,26.1183 L 724.044,25.8442 L 724.361,25.6427 L 724.719,25.5266
 L 725.094,25.503 L 725.464,25.5734 L 725.804,25.7335 L 726.093,25.9732 L 726.314,26.2774 L 726.453,26.627
 L 726.5,27 L 726.453,27.373 L 726.314,27.7226 L 726.093,28.0268 L 725.804,28.2665 L 725.464,28.4266
 L 725.094,28.497 z
M 774.719,28.4734 L 774.361,28.3572 L 774.044,28.1558 L 773.786,27.8817 L 773.605,27.5522 L 773.512,27.188
 L 773.512,26.812 L 773.605,26.4478 L 773.786,26.1183 L 774.044,25.8442 L 774.361,25.6427 L 774.719,25.5266
 L 775.094,25.503 L 775.464,25.5734 L 775.804,25.7335 L 776.093,25.9732 L 776.314,26.2774 L 776.453,26.627
 L 776.5,27 L 776.453,27.373 L 776.314,27.7226 L 776.093,28.0268 L 775.804,28.2665 L 775.464,28.4266
 L 775.094,28.497 z
M 812.438,41.9469 L 811.723,41.7145 L 811.088,41.3115 L 810.573,40.7634 L 810.211,40.1044 L 810.024,39.376
 L 810.024,38.624 L 810.211,37.8956 L 810.573,37.2366 L 811.088,36.6885 L 811.723,36.2855 L 812.438,36.0531
 L 813.188,36.0059 L 813.927,36.1468 L 814.607,36.467 L 815.187,36.9464 L 815.629,37.5547 L 815.906,38.2539
 L 816,39 L 815.906,39.7461 L 815.629,40.4453 L 815.187,41.0536 L 814.607,41.533 L 813.927,41.8532
 L 813.188,41.9941 z
M 704.438,41.9469 L 703.723,41.7145 L 703.088,41.3115 L 702.573,40.7634 L 702.211,40.1044 L 702.024,39.376
 L 702.024,38.624 L 702.211,37.8956 L 702.573,37.2366 L 703.088,36.6885 L 703.723,36.2855 L 704.438,36.0531
 L 705.188,36.0059 L 705.927,36.1468 L 706.607,36.467 L 707.187,36.9464 L 707.629,37.5547 L 707.906,38.2539
 L 708,39 L 707.906,39.7461 L 707.629,40.4453 L 707.187,41.0536 L 706.607,41.533 L 705.927,41.8532
 L 705.188,41.9941 z
M 619,-45 L 499,-45 L 499,45 L 619,45 z
M 612.438,-36.0531 L 611.723,-36.2855 L 611.088,-36.6885 L 610.573,-37.2366 L 610.211,-37.8956 L 610.024,-38.624
 L 610.024,-39.376 L 610.211,-40.1044 L 610.573,-40.7634 L 611.088,-41.3115 L 611.723,-41.7145 L 612.438,-41.9469
 L 613.188,-41.9941 L 613.927,-41.8532 L 614.607,-41.533 L 615.187,-41.0536 L 615.629,-40.4453 L 615.906,-39.7461
 L 616,-39 L 615.906,-38.2539 L 615.629,-37.5547 L 615.187,-36.9464 L 614.607,-36.467 L 613.927,-36.1468
 L 613.188,-36.0059 z
M 504.438,-36.0531 L 503.723,-36.2855 L 503.088,-36.6885 L 502.573,-37.2366 L 502.211,-37.8956 L 502.024,-38.624
 L 502.024,-39.376 L 502.211,-40.1044 L 502.573,-40.7634 L 503.088,-41.3115 L 503.723,-41.7145 L 504.438,-41.9469
 L 505.188,-41.9941 L 505.927,-41.8532 L 506.607,-41.533 L 507.187,-41.0536 L 507.629,-40.4453 L 507.906,-39.7461
 L 508,-39 L 507.906,-38.2539 L 507.629,-37.5547 L 507.187,-36.9464 L 506.607,-36.467 L 505.927,-36.1468
 L 505.188,-36.0059 z
M 524.719,-25.5266 L 524.361,-25.6427 L 524.044,-25.8442 L 523.786,-26.1183 L 523.605,-26.4478 L 523.512,-26.812
 L 523.512,-27.188 L 523.605,-27.5522 L 523.786,-27.8817 L 524.044,-28.1558 L 524.361,-28.3572 L 524.719,-28.4734
 L 525.094,-28.497 L 525.464,-28.4266 L 525.804,-28.2665 L 526.093,-28.0268 L 526.314,-27.7226 L 526.453,-27.373
 L 526.5,-27 L 526.453,-26.627 L 526.314,-26.2774 L 526.093,-25.9732 L 525.804,-25.7335 L 525.464,-25.5734
 L 525.094,-25.503 z
M 574.719,-25.5266 L 574.361,-25.6427 L 574.044,-25.8442 L 573.786,-26.1183 L 573.605,-26.4478 L 573.512,-26.812
 L 573.512,-27.188 L 573.605,-27.5522 L 573.786,-27.8817 L 574.044,-28.1558 L 574.361,-28.3572 L 574.719,-28.4734
 L 575.094,-28.497 L 575.464,-28.4266 L 575.804,-28.2665 L 576.093,-28.0268 L 576.314,-27.7226 L 576.453,-27.373
 L 576.5,-27 L 576.453,-26.627 L 576.314,-26.2774 L 576.093,-25.9732 L 575.804,-25.7335 L 575.464,-25.5734
 L 575.094,-25.503 z
M 506,12.5 L 506,-12.5 L 531,-12.5 L 531,12.5 z
M 559.719,1.47342 L 559.361,1.35724 L 559.044,1.15576 L 558.786,0.881668 L 558.605,0.552185 L 558.512,0.187988
 L 558.512,-0.187988 L 558.605,-0.552185 L 558.786,-0.881668 L 559.044,-1.15576 L 559.361,-1.35724 L 559.719,-1.47342
 L 560.094,-1.49704 L 560.464,-1.42657 L 560.804,-1.26648 L 561.093,-1.02681 L 561.314,-0.722626 L 561.453,-0.373032
 L 561.5,-0 L 561.453,0.373032 L 561.314,0.722626 L 561.093,1.02681 L 560.804,1.26648 L 560.464,1.42657
 L 560.094,1.49704 z
M 583.719,1.47342 L 583.361,1.35724 L 583.044,1.15576 L 582.786,0.881668 L 582.605,0.552185 L 582.512,0.187988
 L 582.512,-0.187988 L 582.605,-0.552185 L 582.786,-0.881668 L 583.044,-1.15576 L 583.361,-1.35724 L 583.719,-1.47342
 L 584.094,-1.49704 L 584.464,-1.42657 L 584.804,-1.26648 L 585.093,-1.02681 L 585.314,-0.722626 L 585.453,-0.373032
 L 585.5,-0 L 585.453,0.373032 L 585.314,0.722626 L 585.093,1.02681 L 584.804,1.26648 L 584.464,1.42657
 L 584.094,1.49704 z
M 589.719,1.47342 L 589.361,1.35724 L 589.044,1.15576 L 588.786,0.881668 L 588.605,0.552185 L 588.512,0.187988
 L 588.512,-0.187988 L 588.605,-0.552185 L 588.786,-0.881668 L 589.044,-1.15576 L 589.361,-1.35724 L 589.719,-1.47342
 L 590.094,-1.49704 L 590.464,-1.42657 L 590.804,-1.26648 L 591.093,-1.02681 L 591.314,-0.722626 L 591.453,-0.373032
 L 591.5,-0 L 591.453,0.373032 L 591.314,0.722626 L 591.093,1.02681 L 590.804,1.26648 L 590.464,1.42657
 L 590.094,1.49704 z
M 524.719,28.4734 L 524.361,28.3572 L 524.044,28.1558 L 523.786,27.8817 L 523.605,27.5522 L 523.512,27.188
 L 523.512,26.812 L 523.605,26.4478 L 523.786,26.1183 L 524.044,25.8442 L 524.361,25.6427 L 524.719,25.5266
 L 525.094,25.503 L 525.464,25.5734 L 525.804,25.7335 L 526.093,25.9732 L 526.314,26.2774 L 526.453,26.627
 L 526.5,27 L 526.453,27.373 L 526.314,27.7226 L 526.093,28.0268 L 525.804,28.2665 L 525.464,28.4266
 L 525.094,28.497 z
M 574.719,28.4734 L 574.361,28.3572 L 574.044,28.1558 L 573.786,27.8817 L 573.605,27.5522 L 573.512,27.188
 L 573.512,26.812 L 573.605,26.4478 L 573.786,26.1183 L 574.044,25.8442 L 574.361,25.6427 L 574.719,25.5266
 L 575.094,25.503 L 575.464,25.5734 L 575.804,25.7335 L 576.093,25.9732 L 576.314,26.2774 L 576.453,26.627
 L 576.5,27 L 576.453,27.373 L 576.314,27.7226 L 576.093,28.0268 L 575.804,28.2665 L 575.464,28.4266
 L 575.094,28.497 z
M 504.438,41.9469 L 503.723,41.7145 L 503.088,41.3115 L 502.573,40.7634 L 502.211,40.1044 L 502.024,39.376
 L 502.024,38.624 L 502.211,37.8956 L 502.573,37.2366 L 503.088,36.6885 L 503.723,36.2855 L 504.438,36.0531
 L 505.188,36.0059 L 505.927,36.1468 L 506.607,36.467 L 507.187,36.9464 L 507.629,37.5547 L 507.906,38.2539
 L 508,39 L 507.906,39.7461 L 507.629,40.4453 L 507.187,41.0536 L 506.607,41.533 L 505.927,41.8532
 L 505.188,41.9941 z
M 612.438,41.9469 L 611.723,41.7145 L 611.088,41.3115 L 610.573,40.7634 L 610.211,40.1044 L 610.024,39.376
 L 610.024,38.624 L 610.211,37.8956 L 610.573,37.2366 L 611.088,36.6885 L 611.723,36.2855 L 612.438,36.0531
 L 613.188,36.0059 L 613.927,36.1468 L 614.607,36.467 L 615.187,36.9464 L 615.629,37.5547 L 615.906,38.2539
 L 616,39 L 615.906,39.7461 L 615.629,40.4453 L 615.187,41.0536 L 614.607,41.533 L 613.927,41.8532
 L 613.188,41.9941 z
M 1993,-29.5 L 2081,-29.5 L 2081,-45 L 1961,-45 L 1961,-22.5 L 1979,-22.5
 L 1979,-12.5 L 1993,-12.5 z
M 1966.44,-36.0531 L 1965.72,-36.2855 L 1965.09,-36.6885 L 1964.57,-37.2366 L 1964.21,-37.8956 L 1964.02,-38.624
 L 1964.02,-39.376 L 1964.21,-40.1044 L 1964.57,-40.7634 L 1965.09,-41.3115 L 1965.72,-41.7145 L 1966.44,-41.9469
 L 1967.19,-41.9941 L 1967.93,-41.8532 L 1968.61,-41.533 L 1969.19,-41.0536 L 1969.63,-40.4453 L 1969.91,-39.7461
 L 1970,-39 L 1969.91,-38.2539 L 1969.63,-37.5547 L 1969.19,-36.9464 L 1968.61,-36.467 L 1967.93,-36.1468
 L 1967.19,-36.0059 z
M 2074.44,-36.0531 L 2073.72,-36.2855 L 2073.09,-36.6885 L 2072.57,-37.2366 L 2072.21,-37.8956 L 2072.02,-38.624
 L 2072.02,-39.376 L 2072.21,-40.1044 L 2072.57,-40.7634 L 2073.09,-41.3115 L 2073.72,-41.7145 L 2074.44,-41.9469
 L 2075.19,-41.9941 L 2075.93,-41.8532 L 2076.61,-41.533 L 2077.19,-41.0536 L 2077.63,-40.4453 L 2077.91,-39.7461
 L 2078,-39 L 2077.91,-38.2539 L 2077.63,-37.5547 L 2077.19,-36.9464 L 2076.61,-36.467 L 2075.93,-36.1468
 L 2075.19,-36.0059 z
M 1986.72,-25.5266 L 1986.36,-25.6427 L 1986.04,-25.8442 L 1985.79,-26.1183 L 1985.61,-26.4478 L 1985.51,-26.812
 L 1985.51,-27.188 L 1985.61,-27.5522 L 1985.79,-27.8817 L 1986.04,-28.1558 L 1986.36,-28.3572 L 1986.72,-28.4734
 L 1987.09,-28.497 L 1987.46,-28.4266 L 1987.8,-28.2665 L 1988.09,-28.0268 L 1988.31,-27.7226 L 1988.45,-27.373
 L 1988.5,-27 L 1988.45,-26.627 L 1988.31,-26.2774 L 1988.09,-25.9732 L 1987.8,-25.7335 L 1987.46,-25.5734
 L 1987.09,-25.503 z
M 1219,-45 L 1099,-45 L 1099,45 L 1219,45 z
M 1104.44,-36.0531 L 1103.72,-36.2855 L 1103.09,-36.6885 L 1102.57,-37.2366 L 1102.21,-37.8956 L 1102.02,-38.624
 L 1102.02,-39.376 L 1102.21,-40.1044 L 1102.57,-40.7634 L 1103.09,-41.3115 L 1103.72,-41.7145 L 1104.44,-41.9469
 L 1105.19,-41.9941 L 1105.93,-41.8532 L 1106.61,-41.533 L 1107.19,-41.0536 L 1107.63,-40.4453 L 1107.91,-39.7461
 L 1108,-39 L 1107.91,-38.2539 L 1107.63,-37.5547 L 1107.19,-36.9464 L 1106.61,-36.467 L 1105.93,-36.1468
 L 1105.19,-36.0059 z
M 1212.44,-36.0531 L 1211.72,-36.2855 L 1211.09,-36.6885 L 1210.57,-37.2366 L 1210.21,-37.8956 L 1210.02,-38.624
 L 1210.02,-39.376 L 1210.21,-40.1044 L 1210.57,-40.7634 L 1211.09,-41.3115 L 1211.72,-41.7145 L 1212.44,-41.9469
 L 1213.19,-41.9941 L 1213.93,-41.8532 L 1214.61,-41.533 L 1215.19,-41.0536 L 1215.63,-40.4453 L 1215.91,-39.7461
 L 1216,-39 L 1215.91,-38.2539 L 1215.63,-37.5547 L 1215.19,-36.9464 L 1214.61,-36.467 L 1213.93,-36.1468
 L 1213.19,-36.0059 z
M 1124.72,-25.5266 L 1124.36,-25.6427 L 1124.04,-25.8442 L 1123.79,-26.1183 L 1123.61,-26.4478 L 1123.51,-26.812
 L 1123.51,-27.188 L 1123.61,-27.5522 L 1123.79,-27.8817 L 1124.04,-28.1558 L 1124.36,-28.3572 L 1124.72,-28.4734
 L 1125.09,-28.497 L 1125.46,-28.4266 L 1125.8,-28.2665 L 1126.09,-28.0268 L 1126.31,-27.7226 L 1126.45,-27.373
 L 1126.5,-27 L 1126.45,-26.627 L 1126.31,-26.2774 L 1126.09,-25.9732 L 1125.8,-25.7335 L 1125.46,-25.5734
 L 1125.09,-25.503 z
M 1174.72,-25.5266 L 1174.36,-25.6427 L 1174.04,-25.8442 L 1173.79,-26.1183 L 1173.61,-26.4478 L 1173.51,-26.812
 L 1173.51,-27.188 L 1173.61,-27.5522 L 1173.79,-27.8817 L 1174.04,-28.1558 L 1174.36,-28.3572 L 1174.72,-28.4734
 L 1175.09,-28.497 L 1175.46,-28.4266 L 1175.8,-28.2665 L 1176.09,-28.0268 L 1176.31,-27.7226 L 1176.45,-27.373
 L 1176.5,-27 L 1176.45,-26.627 L 1176.31,-26.2774 L 1176.09,-25.9732 L 1175.8,-25.7335 L 1175.46,-25.5734
 L 1175.09,-25.503 z
M 1106,12.5 L 1106,-12.5 L 1131,-12.5 L 1131,12.5 z
M 1159.72,1.47342 L 1159.36,1.35724 L 1159.04,1.15576 L 1158.79,0.881668 L 1158.61,0.552185 L 1158.51,0.187988
 L 1158.51,-0.187988 L 1158.61,-0.552185 L 1158.79,-0.881668 L 1159.04,-1.15576 L 1159.36,-1.35724 L 1159.72,-1.47342
 L 1160.09,-1.49704 L 1160.46,-1.42657 L 1160.8,-1.26648 L 1161.09,-1.02681 L 1161.31,-0.722626 L 1161.45,-0.373032
 L 1161.5,-0 L 1161.45,0.373032 L 1161.31,0.722626 L 1161.09,1.02681 L 1160.8,1.26648 L 1160.46,1.42657
 L 1160.09,1.49704 z
M 1183.72,1.47342 L 1183.36,1.35724 L 1183.04,1.15576 L 1182.79,0.881668 L 1182.61,0.552185 L 1182.51,0.187988
 L 1182.51,-0.187988 L 1182.61,-0.552185 L 1182.79,-0.881668 L 1183.04,-1.15576 L 1183.36,-1.35724 L 1183.72,-1.47342
 L 1184.09,-1.49704 L 1184.46,-1.42657 L 1184.8,-1.26648 L 1185.09,-1.02681 L 1185.31,-0.722626 L 1185.45,-0.373032
 L 1185.5,-0 L 1185.45,0.373032 L 1185.31,0.722626 L 1185.09,1.02681 L 1184.8,1.26648 L 1184.46,1.42657
 L 1184.09,1.49704 z
M 1189.72,1.47342 L 1189.36,1.35724 L 1189.04,1.15576 L 1188.79,0.881668 L 1188.61,0.552185 L 1188.51,0.187988
 L 1188.51,-0.187988 L 1188.61,-0.552185 L 1188.79,-0.881668 L 1189.04,-1.15576 L 1189.36,-1.35724 L 1189.72,-1.47342
 L 1190.09,-1.49704 L 1190.46,-1.42657 L 1190.8,-1.26648 L 1191.09,-1.02681 L 1191.31,-0.722626 L 1191.45,-0.373032
 L 1191.5,-0 L 1191.45,0.373032 L 1191.31,0.722626 L 1191.09,1.02681 L 1190.8,1.26648 L 1190.46,1.42657
 L 1190.09,1.49704 z
M 1124.72,28.4734 L 1124.36,28.3572 L 1124.04,28.1558 L 1123.79,27.8817 L 1123.61,27.5522 L 1123.51,27.188
 L 1123.51,26.812 L 1123.61,26.4478 L 1123.79,26.1183 L 1124.04,25.8442 L 1124.36,25.6427 L 1124.72,25.5266
 L 1125.09,25.503 L 1125.46,25.5734 L 1125.8,25.7335 L 1126.09,25.9732 L 1126.31,26.2774 L 1126.45,26.627
 L 1126.5,27 L 1126.45,27.373 L 1126.31,27.7226 L 1126.09,28.0268 L 1125.8,28.2665 L 1125.46,28.4266
 L 1125.09,28.497 z
M 1174.72,28.4734 L 1174.36,28.3572 L 1174.04,28.1558 L 1173.79,27.8817 L 1173.61,27.5522 L 1173.51,27.188
 L 1173.51,26.812 L 1173.61,26.4478 L 1173.79,26.1183 L 1174.04,25.8442 L 1174.36,25.6427 L 1174.72,25.5266
 L 1175.09,25.503 L 1175.46,25.5734 L 1175.8,25.7335 L 1176.09,25.9732 L 1176.31,26.2774 L 1176.45,26.627
 L 1176.5,27 L 1176.45,27.373 L 1176.31,27.7226 L 1176.09,28.0268 L 1175.8,28.2665 L 1175.46,28.4266
 L 1175.09,28.497 z
M 1104.44,41.9469 L 1103.72,41.7145 L 1103.09,41.3115 L 1102.57,40.7634 L 1102.21,40.1044 L 1102.02,39.376
 L 1102.02,38.624 L 1102.21,37.8956 L 1102.57,37.2366 L 1103.09,36.6885 L 1103.72,36.2855 L 1104.44,36.0531
 L 1105.19,36.0059 L 1105.93,36.1468 L 1106.61,36.467 L 1107.19,36.9464 L 1107.63,37.5547 L 1107.91,38.2539
 L 1108,39 L 1107.91,39.7461 L 1107.63,40.4453 L 1107.19,41.0536 L 1106.61,41.533 L 1105.93,41.8532
 L 1105.19,41.9941 z
M 1212.44,41.9469 L 1211.72,41.7145 L 1211.09,41.3115 L 1210.57,40.7634 L 1210.21,40.1044 L 1210.02,39.376
 L 1210.02,38.624 L 1210.21,37.8956 L 1210.57,37.2366 L 1211.09,36.6885 L 1211.72,36.2855 L 1212.44,36.0531
 L 1213.19,36.0059 L 1213.93,36.1468 L 1214.61,36.467 L 1215.19,36.9464 L 1215.63,37.5547 L 1215.91,38.2539
 L 1216,39 L 1215.91,39.7461 L 1215.63,40.4453 L 1215.19,41.0536 L 1214.61,41.533 L 1213.93,41.8532
 L 1213.19,41.9941 z
M 419,-45 L 299,-45 L 299,-21.5 L 384.5,-21.5 L 384.5,-21.3726 L 385.85,-21.4576
 L 391.144,-20.4477 L 396.02,-18.153 L 400.173,-14.7178 L 403.341,-10.3577 L 405.325,-5.34683 L 406,-0
 L 405.325,5.34683 L 403.341,10.3577 L 400.173,14.7178 L 396.02,18.153 L 391.144,20.4477 L 385.85,21.4576
 L 384.5,21.3726 L 384.5,21.5 L 299,21.5 L 299,45 L 419,45 z
M 412.438,-36.0531 L 411.723,-36.2855 L 411.088,-36.6885 L 410.573,-37.2366 L 410.211,-37.8956 L 410.024,-38.624
 L 410.024,-39.376 L 410.211,-40.1044 L 410.573,-40.7634 L 411.088,-41.3115 L 411.723,-41.7145 L 412.438,-41.9469
 L 413.188,-41.9941 L 413.927,-41.8532 L 414.607,-41.533 L 415.187,-41.0536 L 415.629,-40.4453 L 415.906,-39.7461
 L 416,-39 L 415.906,-38.2539 L 415.629,-37.5547 L 415.187,-36.9464 L 414.607,-36.467 L 413.927,-36.1468
 L 413.188,-36.0059 z
M 304.438,-36.0531 L 303.723,-36.2855 L 303.088,-36.6885 L 302.573,-37.2366 L 302.211,-37.8956 L 302.024,-38.624
 L 302.024,-39.376 L 302.211,-40.1044 L 302.573,-40.7634 L 303.088,-41.3115 L 303.723,-41.7145 L 304.438,-41.9469
 L 305.188,-41.9941 L 305.927,-41.8532 L 306.607,-41.533 L 307.187,-41.0536 L 307.629,-40.4453 L 307.906,-39.7461
 L 308,-39 L 307.906,-38.2539 L 307.629,-37.5547 L 307.187,-36.9464 L 306.607,-36.467 L 305.927,-36.1468
 L 305.188,-36.0059 z
M 374.719,-25.5266 L 374.361,-25.6427 L 374.044,-25.8442 L 373.786,-26.1183 L 373.605,-26.4478 L 373.512,-26.812
 L 373.512,-27.188 L 373.605,-27.5522 L 373.786,-27.8817 L 374.044,-28.1558 L 374.361,-28.3572 L 374.719,-28.4734
 L 375.094,-28.497 L 375.464,-28.4266 L 375.804,-28.2665 L 376.093,-28.0268 L 376.314,-27.7226 L 376.453,-27.373
 L 376.5,-27 L 376.453,-26.627 L 376.314,-26.2774 L 376.093,-25.9732 L 375.804,-25.7335 L 375.464,-25.5734
 L 375.094,-25.503 z
M 324.719,-25.5266 L 324.361,-25.6427 L 324.044,-25.8442 L 323.786,-26.1183 L 323.605,-26.4478 L 323.512,-26.812
 L 323.512,-27.188 L 323.605,-27.5522 L 323.786,-27.8817 L 324.044,-28.1558 L 324.361,-28.3572 L 324.719,-28.4734
 L 325.094,-28.497 L 325.464,-28.4266 L 325.804,-28.2665 L 326.093,-28.0268 L 326.314,-27.7226 L 326.453,-27.373
 L 326.5,-27 L 326.453,-26.627 L 326.314,-26.2774 L 326.093,-25.9732 L 325.804,-25.7335 L 325.464,-25.5734
 L 325.094,-25.503 z
M 324.719,28.4734 L 324.361,28.3572 L 324.044,28.1558 L 323.786,27.8817 L 323.605,27.5522 L 323.512,27.188
 L 323.512,26.812 L 323.605,26.4478 L 323.786,26.1183 L 324.044,25.8442 L 324.361,25.6427 L 324.719,25.5266
 L 325.094,25.503 L 325.464,25.5734 L 325.804,25.7335 L 326.093,25.9732 L 326.314,26.2774 L 326.453,26.627
 L 326.5,27 L 326.453,27.373 L 326.314,27.7226 L 326.093,28.0268 L 325.804,28.2665 L 325.464,28.4266
 L 325.094,28.497 z
M 374.719,28.4734 L 374.361,28.3572 L 374.044,28.1558 L 373.786,27.8817 L 373.605,27.5522 L 373.512,27.188
 L 373.512,26.812 L 373.605,26.4478 L 373.786,26.1183 L 374.044,25.8442 L 374.361,25.6427 L 374.719,25.5266
 L 375.094,25.503 L 375.464,25.5734 L 375.804,25.7335 L 376.093,25.9732 L 376.314,26.2774 L 376.453,26.627
 L 376.5,27 L 376.453,27.373 L 376.314,27.7226 L 376.093,28.0268 L 375.804,28.2665 L 375.464,28.4266
 L 375.094,28.497 z
M 304.438,41.9469 L 303.723,41.7145 L 303.088,41.3115 L 302.573,40.7634 L 302.211,40.1044 L 302.024,39.376
 L 302.024,38.624 L 302.211,37.8956 L 302.573,37.2366 L 303.088,36.6885 L 303.723,36.2855 L 304.438,36.0531
 L 305.188,36.0059 L 305.927,36.1468 L 306.607,36.467 L 307.187,36.9464 L 307.629,37.5547 L 307.906,38.2539
 L 308,39 L 307.906,39.7461 L 307.629,40.4453 L 307.187,41.0536 L 306.607,41.533 L 305.927,41.8532
 L 305.188,41.9941 z
M 412.438,41.9469 L 411.723,41.7145 L 411.088,41.3115 L 410.573,40.7634 L 410.211,40.1044 L 410.024,39.376
 L 410.024,38.624 L 410.211,37.8956 L 410.573,37.2366 L 411.088,36.6885 L 411.723,36.2855 L 412.438,36.0531
 L 413.188,36.0059 L 413.927,36.1468 L 414.607,36.467 L 415.187,36.9464 L 415.629,37.5547 L 415.906,38.2539
 L 416,39 L 415.906,39.7461 L 415.629,40.4453 L 415.187,41.0536 L 414.607,41.533 L 413.927,41.8532
 L 413.188,41.9941 z
M 1712,-45 L 1592,-45 L 1592,-29 L 1642,-29 L 1642,-27 L 1619.5,-27
 L 1619.45,-26.627 L 1619.31,-26.2774 L 1619.09,-25.9732 L 1618.8,-25.7335 L 1618.46,-25.5734 L 1618.09,-25.503
 L 1617.72,-25.5266 L 1617.36,-25.6427 L 1617.04,-25.8442 L 1616.79,-26.1183 L 1616.61,-26.4478 L 1616.51,-26.812
 L 1616.51,-27 L 1592,-27 L 1592,-22.5 L 1610,-22.5 L 1610,-15.005 L 1693.01,-15.005
 L 1693.62,-14.9071 L 1694.08,-14.6936 L 1694.46,-14.3741 L 1694.76,-13.9685 L 1694.94,-13.5024 L 1695.01,-13.005
 L 1695.01,13.005 L 1694.91,13.623 L 1694.69,14.0766 L 1694.37,14.4629 L 1693.97,14.7576 L 1693.5,14.9422
 L 1693.01,15.005 L 1678.99,15.005 L 1678.38,14.9071 L 1677.92,14.6936 L 1677.54,14.3741 L 1677.24,13.9685
 L 1677.06,13.5024 L 1676.99,13.005 L 1676.99,5.99501 L 1677.09,5.37698 L 1677.31,4.92336 L 1677.63,4.53708
 L 1678.03,4.2424 L 1678.5,4.05785 L 1678.99,3.99501 L 1685.99,3.99501 L 1685.99,-3.99501 L 1674.51,-3.99501
 L 1674.51,5.50499 L 1674.41,6.12302 L 1674.19,6.57664 L 1673.87,6.96292 L 1673.47,7.2576 L 1673,7.44215
 L 1672.51,7.50499 L 1671.49,7.50499 L 1670.88,7.4071 L 1670.42,7.19365 L 1670.04,6.87408 L 1669.74,6.46849
 L 1669.56,6.00237 L 1669.49,5.50499 L 1669.49,-3.99501 L 1659.51,-3.99501 L 1659.51,8.00499 L 1659.41,8.62302
 L 1659.19,9.07664 L 1658.87,9.46292 L 1658.47,9.7576 L 1658,9.94215 L 1657.51,10.005 L 1656.49,10.005
 L 1655.88,9.9071 L 1655.42,9.69365 L 1655.04,9.37408 L 1654.74,8.96849 L 1654.56,8.50237 L 1654.49,8.00499
 L 1654.49,2.30412 L 1654.47,2.3219 L 1653.85,2.6154 L 1653.17,2.74457 L 1652.48,2.70128 L 1651.83,2.48827
 L 1651.25,2.1189 L 1650.78,1.61641 L 1650.44,1.01233 L 1650.27,0.344666 L 1650.27,-0.344666 L 1650.44,-1.01233
 L 1650.78,-1.61641 L 1651.25,-2.1189 L 1651.83,-2.48827 L 1652.48,-2.70128 L 1653.17,-2.74457 L 1653.85,-2.6154
 L 1654.47,-2.3219 L 1654.49,-2.30412 L 1654.49,-3.99501 L 1624,-3.99501 L 1624,3.99501 L 1646.01,3.99501
 L 1646.62,4.0929 L 1647.08,4.30635 L 1647.46,4.62592 L 1647.76,5.03151 L 1647.94,5.49763 L 1648.01,5.99501
 L 1648.01,13.005 L 1647.91,13.623 L 1647.69,14.0766 L 1647.37,14.4629 L 1646.97,14.7576 L 1646.5,14.9422
 L 1646.01,15.005 L 1610,15.005 L 1610,22.5 L 1592,22.5 L 1592,27 L 1616.51,27
 L 1616.51,26.812 L 1616.61,26.4478 L 1616.79,26.1183 L 1617.04,25.8442 L 1617.36,25.6427 L 1617.72,25.5266
 L 1618.09,25.503 L 1618.46,25.5734 L 1618.8,25.7335 L 1619.09,25.9732 L 1619.31,26.2774 L 1619.45,26.627
 L 1619.5,27 L 1642,27 L 1642,29 L 1592,29 L 1592,45 L 1712,45
 z
M 1705.44,-36.0531 L 1704.72,-36.2855 L 1704.09,-36.6885 L 1703.57,-37.2366 L 1703.21,-37.8956 L 1703.02,-38.624
 L 1703.02,-39.376 L 1703.21,-40.1044 L 1703.57,-40.7634 L 1704.09,-41.3115 L 1704.72,-41.7145 L 1705.44,-41.9469
 L 1706.19,-41.9941 L 1706.93,-41.8532 L 1707.61,-41.533 L 1708.19,-41.0536 L 1708.63,-40.4453 L 1708.91,-39.7461
 L 1709,-39 L 1708.91,-38.2539 L 1708.63,-37.5547 L 1708.19,-36.9464 L 1707.61,-36.467 L 1706.93,-36.1468
 L 1706.19,-36.0059 z
M 1597.44,-36.0531 L 1596.72,-36.2855 L 1596.09,-36.6885 L 1595.57,-37.2366 L 1595.21,-37.8956 L 1595.02,-38.624
 L 1595.02,-39.376 L 1595.21,-40.1044 L 1595.57,-40.7634 L 1596.09,-41.3115 L 1596.72,-41.7145 L 1597.44,-41.9469
 L 1598.19,-41.9941 L 1598.93,-41.8532 L 1599.61,-41.533 L 1600.19,-41.0536 L 1600.63,-40.4453 L 1600.91,-39.7461
 L 1601,-39 L 1600.91,-38.2539 L 1600.63,-37.5547 L 1600.19,-36.9464 L 1599.61,-36.467 L 1598.93,-36.1468
 L 1598.19,-36.0059 z
M 1667.72,-25.5266 L 1667.36,-25.6427 L 1667.04,-25.8442 L 1666.79,-26.1183 L 1666.61,-26.4478 L 1666.51,-26.812
 L 1666.51,-27.188 L 1666.61,-27.5522 L 1666.79,-27.8817 L 1667.04,-28.1558 L 1667.36,-28.3572 L 1667.72,-28.4734
 L 1668.09,-28.497 L 1668.46,-28.4266 L 1668.8,-28.2665 L 1669.09,-28.0268 L 1669.31,-27.7226 L 1669.45,-27.373
 L 1669.5,-27 L 1669.45,-26.627 L 1669.31,-26.2774 L 1669.09,-25.9732 L 1668.8,-25.7335 L 1668.46,-25.5734
 L 1668.09,-25.503 z
M 1682.48,2.70128 L 1681.83,2.48827 L 1681.25,2.1189 L 1680.78,1.61641 L 1680.44,1.01233 L 1680.27,0.344666
 L 1680.27,-0.344666 L 1680.44,-1.01233 L 1680.78,-1.61641 L 1681.25,-2.1189 L 1681.83,-2.48827 L 1682.48,-2.70128
 L 1683.17,-2.74457 L 1683.85,-2.6154 L 1684.47,-2.3219 L 1685,-1.88249 L 1685.41,-1.32481 L 1685.66,-0.683884
 L 1685.75,-0 L 1685.66,0.683884 L 1685.41,1.32481 L 1685,1.88249 L 1684.47,2.3219 L 1683.85,2.6154
 L 1683.17,2.74457 z
M 1676.72,1.47342 L 1676.36,1.35724 L 1676.04,1.15576 L 1675.79,0.881668 L 1675.61,0.552185 L 1675.51,0.187988
 L 1675.51,-0.187988 L 1675.61,-0.552185 L 1675.79,-0.881668 L 1676.04,-1.15576 L 1676.36,-1.35724 L 1676.72,-1.47342
 L 1677.09,-1.49704 L 1677.46,-1.42657 L 1677.8,-1.26648 L 1678.09,-1.02681 L 1678.31,-0.722626 L 1678.45,-0.373032
 L 1678.5,-0 L 1678.45,0.373032 L 1678.31,0.722626 L 1678.09,1.02681 L 1677.8,1.26648 L 1677.46,1.42657
 L 1677.09,1.49704 z
M 1667.72,28.4734 L 1667.36,28.3572 L 1667.04,28.1558 L 1666.79,27.8817 L 1666.61,27.5522 L 1666.51,27.188
 L 1666.51,26.812 L 1666.61,26.4478 L 1666.79,26.1183 L 1667.04,25.8442 L 1667.36,25.6427 L 1667.72,25.5266
 L 1668.09,25.503 L 1668.46,25.5734 L 1668.8,25.7335 L 1669.09,25.9732 L 1669.31,26.2774 L 1669.45,26.627
 L 1669.5,27 L 1669.45,27.373 L 1669.31,27.7226 L 1669.09,28.0268 L 1668.8,28.2665 L 1668.46,28.4266
 L 1668.09,28.497 z
M 1705.44,41.9469 L 1704.72,41.7145 L 1704.09,41.3115 L 1703.57,40.7634 L 1703.21,40.1044 L 1703.02,39.376
 L 1703.02,38.624 L 1703.21,37.8956 L 1703.57,37.2366 L 1704.09,36.6885 L 1704.72,36.2855 L 1705.44,36.0531
 L 1706.19,36.0059 L 1706.93,36.1468 L 1707.61,36.467 L 1708.19,36.9464 L 1708.63,37.5547 L 1708.91,38.2539
 L 1709,39 L 1708.91,39.7461 L 1708.63,40.4453 L 1708.19,41.0536 L 1707.61,41.533 L 1706.93,41.8532
 L 1706.19,41.9941 z
M 1597.44,41.9469 L 1596.72,41.7145 L 1596.09,41.3115 L 1595.57,40.7634 L 1595.21,40.1044 L 1595.02,39.376
 L 1595.02,38.624 L 1595.21,37.8956 L 1595.57,37.2366 L 1596.09,36.6885 L 1596.72,36.2855 L 1597.44,36.0531
 L 1598.19,36.0059 L 1598.93,36.1468 L 1599.61,36.467 L 1600.19,36.9464 L 1600.63,37.5547 L 1600.91,38.2539
 L 1601,39 L 1600.91,39.7461 L 1600.63,40.4453 L 1600.19,41.0536 L 1599.61,41.533 L 1598.93,41.8532
 L 1598.19,41.9941 z
M 2327,29.5 L 2239,29.5 L 2239,12.5 L 2214,12.5 L 2214,-12.5 L 2239,-12.5
 L 2239,-29.5 L 2327,-29.5 L 2327,-45 L 2207,-45 L 2207,45 L 2327,45
 z
M 2212.44,-36.0531 L 2211.72,-36.2855 L 2211.09,-36.6885 L 2210.57,-37.2366 L 2210.21,-37.8956 L 2210.02,-38.624
 L 2210.02,-39.376 L 2210.21,-40.1044 L 2210.57,-40.7634 L 2211.09,-41.3115 L 2211.72,-41.7145 L 2212.44,-41.9469
 L 2213.19,-41.9941 L 2213.93,-41.8532 L 2214.61,-41.533 L 2215.19,-41.0536 L 2215.63,-40.4453 L 2215.91,-39.7461
 L 2216,-39 L 2215.91,-38.2539 L 2215.63,-37.5547 L 2215.19,-36.9464 L 2214.61,-36.467 L 2213.93,-36.1468
 L 2213.19,-36.0059 z
M 2320.44,-36.0531 L 2319.72,-36.2855 L 2319.09,-36.6885 L 2318.57,-37.2366 L 2318.21,-37.8956 L 2318.02,-38.624
 L 2318.02,-39.376 L 2318.21,-40.1044 L 2318.57,-40.7634 L 2319.09,-41.3115 L 2319.72,-41.7145 L 2320.44,-41.9469
 L 2321.19,-41.9941 L 2321.93,-41.8532 L 2322.61,-41.533 L 2323.19,-41.0536 L 2323.63,-40.4453 L 2323.91,-39.7461
 L 2324,-39 L 2323.91,-38.2539 L 2323.63,-37.5547 L 2323.19,-36.9464 L 2322.61,-36.467 L 2321.93,-36.1468
 L 2321.19,-36.0059 z
M 2232.72,-25.5266 L 2232.36,-25.6427 L 2232.04,-25.8442 L 2231.79,-26.1183 L 2231.61,-26.4478 L 2231.51,-26.812
 L 2231.51,-27.188 L 2231.61,-27.5522 L 2231.79,-27.8817 L 2232.04,-28.1558 L 2232.36,-28.3572 L 2232.72,-28.4734
 L 2233.09,-28.497 L 2233.46,-28.4266 L 2233.8,-28.2665 L 2234.09,-28.0268 L 2234.31,-27.7226 L 2234.45,-27.373
 L 2234.5,-27 L 2234.45,-26.627 L 2234.31,-26.2774 L 2234.09,-25.9732 L 2233.8,-25.7335 L 2233.46,-25.5734
 L 2233.09,-25.503 z
M 2232.72,28.4734 L 2232.36,28.3572 L 2232.04,28.1558 L 2231.79,27.8817 L 2231.61,27.5522 L 2231.51,27.188
 L 2231.51,26.812 L 2231.61,26.4478 L 2231.79,26.1183 L 2232.04,25.8442 L 2232.36,25.6427 L 2232.72,25.5266
 L 2233.09,25.503 L 2233.46,25.5734 L 2233.8,25.7335 L 2234.09,25.9732 L 2234.31,26.2774 L 2234.45,26.627
 L 2234.5,27 L 2234.45,27.373 L 2234.31,27.7226 L 2234.09,28.0268 L 2233.8,28.2665 L 2233.46,28.4266
 L 2233.09,28.497 z
M 2212.44,41.9469 L 2211.72,41.7145 L 2211.09,41.3115 L 2210.57,40.7634 L 2210.21,40.1044 L 2210.02,39.376
 L 2210.02,38.624 L 2210.21,37.8956 L 2210.57,37.2366 L 2211.09,36.6885 L 2211.72,36.2855 L 2212.44,36.0531
 L 2213.19,36.0059 L 2213.93,36.1468 L 2214.61,36.467 L 2215.19,36.9464 L 2215.63,37.5547 L 2215.91,38.2539
 L 2216,39 L 2215.91,39.7461 L 2215.63,40.4453 L 2215.19,41.0536 L 2214.61,41.533 L 2213.93,41.8532
 L 2213.19,41.9941 z
M 2320.44,41.9469 L 2319.72,41.7145 L 2319.09,41.3115 L 2318.57,40.7634 L 2318.21,40.1044 L 2318.02,39.376
 L 2318.02,38.624 L 2318.21,37.8956 L 2318.57,37.2366 L 2319.09,36.6885 L 2319.72,36.2855 L 2320.44,36.0531
 L 2321.19,36.0059 L 2321.93,36.1468 L 2322.61,36.467 L 2323.19,36.9464 L 2323.63,37.5547 L 2323.91,38.2539
 L 2324,39 L 2323.91,39.7461 L 2323.63,40.4453 L 2323.19,41.0536 L 2322.61,41.533 L 2321.93,41.8532
 L 2321.19,41.9941 z
M 1589,-45 L 1469,-45 L 1469,-34 L 1580,-34 L 1580,34 L 1469,34
 L 1469,45 L 1589,45 z
M 1582.44,-36.0531 L 1581.72,-36.2855 L 1581.09,-36.6885 L 1580.57,-37.2366 L 1580.21,-37.8956 L 1580.02,-38.624
 L 1580.02,-39.376 L 1580.21,-40.1044 L 1580.57,-40.7634 L 1581.09,-41.3115 L 1581.72,-41.7145 L 1582.44,-41.9469
 L 1583.19,-41.9941 L 1583.93,-41.8532 L 1584.61,-41.533 L 1585.19,-41.0536 L 1585.63,-40.4453 L 1585.91,-39.7461
 L 1586,-39 L 1585.91,-38.2539 L 1585.63,-37.5547 L 1585.19,-36.9464 L 1584.61,-36.467 L 1583.93,-36.1468
 L 1583.19,-36.0059 z
M 1474.44,-36.0531 L 1473.72,-36.2855 L 1473.09,-36.6885 L 1472.57,-37.2366 L 1472.21,-37.8956 L 1472.02,-38.624
 L 1472.02,-39.376 L 1472.21,-40.1044 L 1472.57,-40.7634 L 1473.09,-41.3115 L 1473.72,-41.7145 L 1474.44,-41.9469
 L 1475.19,-41.9941 L 1475.93,-41.8532 L 1476.61,-41.533 L 1477.19,-41.0536 L 1477.63,-40.4453 L 1477.91,-39.7461
 L 1478,-39 L 1477.91,-38.2539 L 1477.63,-37.5547 L 1477.19,-36.9464 L 1476.61,-36.467 L 1475.93,-36.1468
 L 1475.19,-36.0059 z
M 1474.44,41.9469 L 1473.72,41.7145 L 1473.09,41.3115 L 1472.57,40.7634 L 1472.21,40.1044 L 1472.02,39.376
 L 1472.02,38.624 L 1472.21,37.8956 L 1472.57,37.2366 L 1473.09,36.6885 L 1473.72,36.2855 L 1474.44,36.0531
 L 1475.19,36.0059 L 1475.93,36.1468 L 1476.61,36.467 L 1477.19,36.9464 L 1477.63,37.5547 L 1477.91,38.2539
 L 1478,39 L 1477.91,39.7461 L 1477.63,40.4453 L 1477.19,41.0536 L 1476.61,41.533 L 1475.93,41.8532
 L 1475.19,41.9941 z
M 1582.44,41.9469 L 1581.72,41.7145 L 1581.09,41.3115 L 1580.57,40.7634 L 1580.21,40.1044 L 1580.02,39.376
 L 1580.02,38.624 L 1580.21,37.8956 L 1580.57,37.2366 L 1581.09,36.6885 L 1581.72,36.2855 L 1582.44,36.0531
 L 1583.19,36.0059 L 1583.93,36.1468 L 1584.61,36.467 L 1585.19,36.9464 L 1585.63,37.5547 L 1585.91,38.2539
 L 1586,39 L 1585.91,39.7461 L 1585.63,40.4453 L 1585.19,41.0536 L 1584.61,41.533 L 1583.93,41.8532
 L 1583.19,41.9941 z
M 68.2484,42.8479 L 69.4138,42.3865 L 70.4277,41.6498 L 71.2266,40.6841 L 71.7603,39.5501 L 72.005,38.005
 L 72.005,-38.005 L 71.8479,-39.2484 L 71.3865,-40.4138 L 70.6498,-41.4277 L 69.6841,-42.2266 L 68.5501,-42.7603
 L 67.005,-43.005 L -23.005,-43.005 L -24.2484,-42.8479 L -25.4138,-42.3865 L -26.4277,-41.6498 L -27.2266,-40.6841
 L -27.7603,-39.5501 L -28.005,-38.005 L -28.005,-17.255 L -99.2448,-17.255 L -97.6808,-13.3049 L -97.5159,-12
 L -90,-12 L -90,-4 L -96.5053,-4 L -96.379,-3 L -100,-3 L -100,9
 L -97.137,9 L -97.6808,13.3049 L -99.2448,17.255 L -28.005,17.255 L -28.005,38.005 L -27.8479,39.2484
 L -27.3865,40.4138 L -26.6498,41.4277 L -25.6841,42.2266 L -24.5501,42.7603 L -23.005,43.005 L 67.005,43.005
 z
M 11.75,14.5 L 11.75,-14.5 L 32.25,-14.5 L 32.25,-14.3826 L 33.6605,-14.4714 L 37.2307,-13.7903
 L 40.5195,-12.2428 L 43.32,-9.92592 L 45.4564,-6.98543 L 46.7944,-3.606 L 47.25,-0 L 46.7944,3.606
 L 45.4564,6.98543 L 43.32,9.92592 L 40.5195,12.2428 L 37.2307,13.7903 L 33.6605,14.4714 L 32.25,14.3826
 L 32.25,14.5 z
M -30.7688,7 L -30.7688,-7 L -28.9428,-7 L -28.9428,-5 L -30,-5 L -30,5
 L -28.9428,5 L -28.9428,7 z
M 1010,-34 L 895,-34 L 895,-29 L 894,-29 L 894,-27 L 895,-27
 L 895,-22.5 L 894,-22.5 L 894,22.5 L 895,22.5 L 895,27 L 894,27
 L 894,29 L 895,29 L 895,34 L 1010,34 z
M 206.748,73.3479 L 207.914,72.8865 L 208.928,72.1498 L 209.727,71.1841 L 210.26,70.0501 L 210.505,68.505
 L 210.505,-12.505 L 210.348,-13.7484 L 210,-14.6271 L 210,-16.5 L 208.458,-16.5 L 208.184,-16.7266
 L 207.05,-17.2603 L 205.505,-17.505 L 100.656,-17.505 L 102.319,-13.3049 L 102.484,-12 L 110,-12
 L 110,-4 L 103.495,-4 L 103.621,-3 L 100,-3 L 100,9 L 102.863,9
 L 102.319,13.3049 L 97.3824,25.7738 L 95.495,28.3716 L 95.495,68.505 L 95.6521,69.7484 L 96.1135,70.9138
 L 96.8502,71.9277 L 97.8159,72.7266 L 98.9499,73.2603 L 100.495,73.505 L 205.505,73.505 z
M 167.153,7 L 167.153,3.75 L 168.308,3.75 L 168.308,-7 L 171.057,-7 L 171.057,-5
 L 170,-5 L 170,5 L 171.057,5 L 171.057,7 z
M 146.394,64.7944 L 143.015,63.4564 L 140.074,61.32 L 137.757,58.5195 L 136.21,55.2307 L 135.529,51.6605
 L 135.617,50.25 L 135.5,50.25 L 135.5,29.75 L 164.5,29.75 L 164.5,50.25 L 164.383,50.25
 L 164.471,51.6605 L 163.79,55.2307 L 162.243,58.5195 L 159.926,61.32 L 156.985,63.4564 L 153.606,64.7944
 L 150,65.25 z
M 1601.27,3.89932 L 1602.2,3.46173 L 1602.99,2.80664 L 1603.59,1.97519 L 1603.97,1.01962 L 1604.1,-0
 L 1603.97,-1.01962 L 1603.59,-1.97519 L 1602.99,-2.80664 L 1602.2,-3.46173 L 1601.27,-3.89932 L 1600.26,-4.0919
 L 1599.23,-4.02737 L 1598.25,-3.70978 L 1597.39,-3.1591 L 1596.68,-2.40991 L 1596.19,-1.50931 L 1595.93,-0.513855
 L 1595.93,0.513855 L 1596.19,1.50931 L 1596.68,2.40991 L 1597.39,3.1591 L 1598.25,3.70978 L 1599.23,4.02737
 L 1600.26,4.0919 z
M 1599.72,1.47342 L 1599.36,1.35724 L 1599.04,1.15576 L 1598.79,0.881668 L 1598.61,0.552185 L 1598.51,0.187988
 L 1598.51,-0.187988 L 1598.61,-0.552185 L 1598.79,-0.881668 L 1599.04,-1.15576 L 1599.36,-1.35724 L 1599.72,-1.47342
 L 1600.09,-1.49704 L 1600.46,-1.42657 L 1600.8,-1.26648 L 1601.09,-1.02681 L 1601.31,-0.722626 L 1601.45,-0.373032
 L 1601.5,-0 L 1601.45,0.373032 L 1601.31,0.722626 L 1601.09,1.02681 L 1600.8,1.26648 L 1600.46,1.42657
 L 1600.09,1.49704 z
M 2081,29.5 L 1993,29.5 L 1993,12.5 L 1979,12.5 L 1979,22.5 L 1961,22.5
 L 1961,45 L 2081,45 z
M 1986.72,28.4734 L 1986.36,28.3572 L 1986.04,28.1558 L 1985.79,27.8817 L 1985.61,27.5522 L 1985.51,27.188
 L 1985.51,26.812 L 1985.61,26.4478 L 1985.79,26.1183 L 1986.04,25.8442 L 1986.36,25.6427 L 1986.72,25.5266
 L 1987.09,25.503 L 1987.46,25.5734 L 1987.8,25.7335 L 1988.09,25.9732 L 1988.31,26.2774 L 1988.45,26.627
 L 1988.5,27 L 1988.45,27.373 L 1988.31,27.7226 L 1988.09,28.0268 L 1987.8,28.2665 L 1987.46,28.4266
 L 1987.09,28.497 z
M 2074.44,41.9469 L 2073.72,41.7145 L 2073.09,41.3115 L 2072.57,40.7634 L 2072.21,40.1044 L 2072.02,39.376
 L 2072.02,38.624 L 2072.21,37.8956 L 2072.57,37.2366 L 2073.09,36.6885 L 2073.72,36.2855 L 2074.44,36.0531
 L 2075.19,36.0059 L 2075.93,36.1468 L 2076.61,36.467 L 2077.19,36.9464 L 2077.63,37.5547 L 2077.91,38.2539
 L 2078,39 L 2077.91,39.7461 L 2077.63,40.4453 L 2077.19,41.0536 L 2076.61,41.533 L 2075.93,41.8532
 L 2075.19,41.9941 z
M 1966.44,41.9469 L 1965.72,41.7145 L 1965.09,41.3115 L 1964.57,40.7634 L 1964.21,40.1044 L 1964.02,39.376
 L 1964.02,38.624 L 1964.21,37.8956 L 1964.57,37.2366 L 1965.09,36.6885 L 1965.72,36.2855 L 1966.44,36.0531
 L 1967.19,36.0059 L 1967.93,36.1468 L 1968.61,36.467 L 1969.19,36.9464 L 1969.63,37.5547 L 1969.91,38.2539
 L 1970,39 L 1969.91,39.7461 L 1969.63,40.4453 L 1969.19,41.0536 L 1968.61,41.533 L 1967.93,41.8532
 L 1967.19,41.9941 z
M 2204,29.5 L 2116,29.5 L 2116,12.5 L 2102,12.5 L 2102,22.5 L 2084,22.5
 L 2084,45 L 2204,45 z
M 2109.72,28.4734 L 2109.36,28.3572 L 2109.04,28.1558 L 2108.79,27.8817 L 2108.61,27.5522 L 2108.51,27.188
 L 2108.51,26.812 L 2108.61,26.4478 L 2108.79,26.1183 L 2109.04,25.8442 L 2109.36,25.6427 L 2109.72,25.5266
 L 2110.09,25.503 L 2110.46,25.5734 L 2110.8,25.7335 L 2111.09,25.9732 L 2111.31,26.2774 L 2111.45,26.627
 L 2111.5,27 L 2111.45,27.373 L 2111.31,27.7226 L 2111.09,28.0268 L 2110.8,28.2665 L 2110.46,28.4266
 L 2110.09,28.497 z
M 2197.44,41.9469 L 2196.72,41.7145 L 2196.09,41.3115 L 2195.57,40.7634 L 2195.21,40.1044 L 2195.02,39.376
 L 2195.02,38.624 L 2195.21,37.8956 L 2195.57,37.2366 L 2196.09,36.6885 L 2196.72,36.2855 L 2197.44,36.0531
 L 2198.19,36.0059 L 2198.93,36.1468 L 2199.61,36.467 L 2200.19,36.9464 L 2200.63,37.5547 L 2200.91,38.2539
 L 2201,39 L 2200.91,39.7461 L 2200.63,40.4453 L 2200.19,41.0536 L 2199.61,41.533 L 2198.93,41.8532
 L 2198.19,41.9941 z
M 2089.44,41.9469 L 2088.72,41.7145 L 2088.09,41.3115 L 2087.57,40.7634 L 2087.21,40.1044 L 2087.02,39.376
 L 2087.02,38.624 L 2087.21,37.8956 L 2087.57,37.2366 L 2088.09,36.6885 L 2088.72,36.2855 L 2089.44,36.0531
 L 2090.19,36.0059 L 2090.93,36.1468 L 2091.61,36.467 L 2092.19,36.9464 L 2092.63,37.5547 L 2092.91,38.2539
 L 2093,39 L 2092.91,39.7461 L 2092.63,40.4453 L 2092.19,41.0536 L 2091.61,41.533 L 2090.93,41.8532
 L 2090.19,41.9941 z
" stroke="black" fill="lightgray" stroke-width="0.5"/>
</svg>
