  0
SECTION
  2
BLOCKS
  0
ENDSEC
  0
SECTION
  2
ENTITIES
  0
LINE
  8
0
 10
1.26697
 20
-3.89932
 11
2.19688
 21
-3.46173
  0
LINE
  8
0
 10
2.19688
 20
-3.46173
 11
2.98877
 21
-2.80664
  0
LINE
  8
0
 10
2.98877
 20
-2.80664
 11
3.59285
 21
-1.97519
  0
LINE
  8
0
 10
3.59285
 20
-1.97519
 11
3.97118
 21
-1.01962
  0
LINE
  8
0
 10
3.97118
 20
-1.01962
 11
4.09999
 21
0
  0
LINE
  8
0
 10
4.09999
 20
0
 11
3.97118
 21
1.01962
  0
LINE
  8
0
 10
3.97118
 20
1.01962
 11
3.59285
 21
1.97519
  0
LINE
  8
0
 10
3.59285
 20
1.97519
 11
2.98877
 21
2.80664
  0
LINE
  8
0
 10
2.98877
 20
2.80664
 11
2.19688
 21
3.46173
  0
LINE
  8
0
 10
2.19688
 20
3.46173
 11
1.26697
 21
3.89932
  0
LINE
  8
0
 10
1.26697
 20
3.89932
 11
0.257431
 21
4.0919
  0
LINE
  8
0
 10
0.257431
 20
4.0919
 11
-0.76825
 21
4.02737
  0
LINE
  8
0
 10
-0.76825
 20
4.02737
 11
-1.74568
 21
3.70978
  0
LINE
  8
0
 10
-1.74568
 20
3.70978
 11
-2.61343
 21
3.1591
  0
LINE
  8
0
 10
-2.61343
 20
3.1591
 11
-3.31696
 21
2.40991
  0
LINE
  8
0
 10
-3.31696
 20
2.40991
 11
-3.81207
 21
1.50931
  0
LINE
  8
0
 10
-3.81207
 20
1.50931
 11
-4.06766
 21
0.513855
  0
LINE
  8
0
 10
-4.06766
 20
0.513855
 11
-4.06766
 21
-0.513855
  0
LINE
  8
0
 10
-4.06766
 20
-0.513855
 11
-3.81207
 21
-1.50931
  0
LINE
  8
0
 10
-3.81207
 20
-1.50931
 11
-3.31696
 21
-2.40991
  0
LINE
  8
0
 10
-3.31696
 20
-2.40991
 11
-2.61343
 21
-3.1591
  0
LINE
  8
0
 10
-2.61343
 20
-3.1591
 11
-1.74568
 21
-3.70978
  0
LINE
  8
0
 10
-1.74568
 20
-3.70978
 11
-0.76825
 21
-4.02737
  0
LINE
  8
0
 10
-0.76825
 20
-4.02737
 11
0.257431
 21
-4.0919
  0
LINE
  8
0
 10
0.257431
 20
-4.0919
 11
1.26697
 21
-3.89932
  0
LINE
  8
0
 10
-0.281067
 20
-1.47342
 11
-0.638657
 21
-1.35724
  0
LINE
  8
0
 10
-0.638657
 20
-1.35724
 11
-0.956131
 21
-1.15576
  0
LINE
  8
0
 10
-0.956131
 20
-1.15576
 11
-1.21352
 21
-0.881668
  0
LINE
  8
0
 10
-1.21352
 20
-0.881668
 11
-1.39465
 21
-0.552185
  0
LINE
  8
0
 10
-1.39465
 20
-0.552185
 11
-1.48816
 21
-0.187988
  0
LINE
  8
0
 10
-1.48816
 20
-0.187988
 11
-1.48816
 21
0.187988
  0
LINE
  8
0
 10
-1.48816
 20
0.187988
 11
-1.39465
 21
0.552185
  0
LINE
  8
0
 10
-1.39465
 20
0.552185
 11
-1.21352
 21
0.881668
  0
LINE
  8
0
 10
-1.21352
 20
0.881668
 11
-0.956131
 21
1.15576
  0
LINE
  8
0
 10
-0.956131
 20
1.15576
 11
-0.638657
 21
1.35724
  0
LINE
  8
0
 10
-0.638657
 20
1.35724
 11
-0.281067
 21
1.47342
  0
LINE
  8
0
 10
-0.281067
 20
1.47342
 11
0.0941772
 21
1.49704
  0
LINE
  8
0
 10
0.0941772
 20
1.49704
 11
0.463516
 21
1.42657
  0
LINE
  8
0
 10
0.463516
 20
1.42657
 11
0.803726
 21
1.26648
  0
LINE
  8
0
 10
0.803726
 20
1.26648
 11
1.09344
 21
1.02681
  0
LINE
  8
0
 10
1.09344
 20
1.02681
 11
1.31445
 21
0.722626
  0
LINE
  8
0
 10
1.31445
 20
0.722626
 11
1.45287
 21
0.373032
  0
LINE
  8
0
 10
1.45287
 20
0.373032
 11
1.5
 21
0
  0
LINE
  8
0
 10
1.5
 20
0
 11
1.45287
 21
-0.373032
  0
LINE
  8
0
 10
1.45287
 20
-0.373032
 11
1.31445
 21
-0.722626
  0
LINE
  8
0
 10
1.31445
 20
-0.722626
 11
1.09344
 21
-1.02681
  0
LINE
  8
0
 10
1.09344
 20
-1.02681
 11
0.803726
 21
-1.26648
  0
LINE
  8
0
 10
0.803726
 20
-1.26648
 11
0.463516
 21
-1.42657
  0
LINE
  8
0
 10
0.463516
 20
-1.42657
 11
0.0941772
 21
-1.49704
  0
LINE
  8
0
 10
0.0941772
 20
-1.49704
 11
-0.281067
 21
-1.47342
  0
ENDSEC
  0
SECTION
  2
OBJECTS
  0
DICTIONARY
  0
ENDSEC
  0
EOF
