<?xml version="1.0" standalone="no"?>
<!DOCTYPE svg PUBLIC "-//W3C//DTD SVG 1.1//EN" "http://www.w3.org/Graphics/SVG/1.1/DTD/svg11.dtd">
<svg width="173mm" height="88mm" viewBox="-100 -44 173 88" xmlns="http://www.w3.org/2000/svg" version="1.1">
<title>OpenSCAD Model</title>
<path d="
M 68.2484,42.8479 L 69.4138,42.3865 L 70.4277,41.6498 L 71.2266,40.6841 L 71.7603,39.5501 L 72.005,38.005
 L 72.005,-38.005 L 71.8479,-39.2484 L 71.3865,-40.4138 L 70.6498,-41.4277 L 69.6841,-42.2266 L 68.5501,-42.7603
 L 67.005,-43.005 L -23.005,-43.005 L -24.2484,-42.8479 L -25.4138,-42.3865 L -26.4277,-41.6498 L -27.2266,-40.6841
 L -27.7603,-39.5501 L -28.005,-38.005 L -28.005,-17.255 L -99.2448,-17.255 L -97.6808,-13.3049 L -97.5159,-12
 L -90,-12 L -90,-4 L -96.5053,-4 L -96.379,-3 L -100,-3 L -100,9
 L -97.137,9 L -97.6808,13.3049 L -99.2448,17.255 L -28.005,17.255 L -28.005,38.005 L -27.8479,39.2484
 L -27.3865,40.4138 L -26.6498,41.4277 L -25.6841,42.2266 L -24.5501,42.7603 L -23.005,43.005 L 67.005,43.005
 z
M 11.25,15 L 11.25,-15 L 32.75,-15 L 32.75,-14.8482 L 34.6918,-14.9704 L 38.3853,-14.2658
 L 41.7874,-12.6649 L 44.6845,-10.2682 L 46.8946,-7.2263 L 48.2787,-3.73035 L 48.75,-0 L 48.2787,3.73035
 L 46.8946,7.2263 L 44.6845,10.2682 L 41.7874,12.6649 L 38.3853,14.2658 L 34.6918,14.9704 L 32.75,14.8482
 L 32.75,15 z
M -30.7688,7 L -30.7688,-7 L -28.9428,-7 L -28.9428,-5 L -30,-5 L -30,5
 L -28.9428,5 L -28.9428,7 z
M -31.6922,7 L -31.6922,-7 L -31.25,-7 L -31.25,7 z
" stroke="black" fill="lightgray" stroke-width="0.5"/>
</svg>
