  0
SECTION
  2
BLOCKS
  0
ENDSEC
  0
SECTION
  2
ENTITIES
  0
LINE
  8
0
 10
15.2435
 20
-44.8429
 11
16.4088
 21
-44.3815
  0
LINE
  8
0
 10
16.4088
 20
-44.3815
 11
17.4227
 21
-43.6448
  0
LINE
  8
0
 10
17.4227
 20
-43.6448
 11
18.2216
 21
-42.6791
  0
LINE
  8
0
 10
18.2216
 20
-42.6791
 11
18.7553
 21
-41.5451
  0
LINE
  8
0
 10
18.7553
 20
-41.5451
 11
19
 21
-40
  0
LINE
  8
0
 10
19
 20
-40
 11
19
 21
40
  0
LINE
  8
0
 10
19
 20
40
 11
18.8429
 21
41.2435
  0
LINE
  8
0
 10
18.8429
 20
41.2435
 11
18.3815
 21
42.4088
  0
LINE
  8
0
 10
18.3815
 20
42.4088
 11
17.6448
 21
43.4227
  0
LINE
  8
0
 10
17.6448
 20
43.4227
 11
16.6791
 21
44.2216
  0
LINE
  8
0
 10
16.6791
 20
44.2216
 11
15.5451
 21
44.7553
  0
LINE
  8
0
 10
15.5451
 20
44.7553
 11
14
 21
45
  0
LINE
  8
0
 10
14
 20
45
 11
-96
 21
45
  0
LINE
  8
0
 10
-96
 20
45
 11
-97.2435
 21
44.8429
  0
LINE
  8
0
 10
-97.2435
 20
44.8429
 11
-98.4088
 21
44.3815
  0
LINE
  8
0
 10
-98.4088
 20
44.3815
 11
-99.4227
 21
43.6448
  0
LINE
  8
0
 10
-99.4227
 20
43.6448
 11
-100.222
 21
42.6791
  0
LINE
  8
0
 10
-100.222
 20
42.6791
 11
-100.755
 21
41.5451
  0
LINE
  8
0
 10
-100.755
 20
41.5451
 11
-101
 21
40
  0
LINE
  8
0
 10
-101
 20
40
 11
-101
 21
21.5
  0
LINE
  8
0
 10
-101
 20
21.5
 11
-15.5
 21
21.5
  0
LINE
  8
0
 10
-15.5
 20
21.5
 11
-15.5
 21
21.3726
  0
LINE
  8
0
 10
-15.5
 20
21.3726
 11
-14.15
 21
21.4576
  0
LINE
  8
0
 10
-14.15
 20
21.4576
 11
-8.85612
 21
20.4477
  0
LINE
  8
0
 10
-8.85612
 20
20.4477
 11
-3.97972
 21
18.153
  0
LINE
  8
0
 10
-3.97972
 20
18.153
 11
0.172821
 21
14.7178
  0
LINE
  8
0
 10
0.172821
 20
14.7178
 11
3.34059
 21
10.3577
  0
LINE
  8
0
 10
3.34059
 20
10.3577
 11
5.32452
 21
5.34683
  0
LINE
  8
0
 10
5.32452
 20
5.34683
 11
6
 21
0
  0
LINE
  8
0
 10
6
 20
0
 11
5.32452
 21
-5.34683
  0
LINE
  8
0
 10
5.32452
 20
-5.34683
 11
3.34059
 21
-10.3577
  0
LINE
  8
0
 10
3.34059
 20
-10.3577
 11
0.172821
 21
-14.7178
  0
LINE
  8
0
 10
0.172821
 20
-14.7178
 11
-3.97972
 21
-18.153
  0
LINE
  8
0
 10
-3.97972
 20
-18.153
 11
-8.85612
 21
-20.4477
  0
LINE
  8
0
 10
-8.85612
 20
-20.4477
 11
-14.15
 21
-21.4576
  0
LINE
  8
0
 10
-14.15
 20
-21.4576
 11
-15.5
 21
-21.3726
  0
LINE
  8
0
 10
-15.5
 20
-21.3726
 11
-15.5
 21
-21.5
  0
LINE
  8
0
 10
-15.5
 20
-21.5
 11
-101
 21
-21.5
  0
LINE
  8
0
 10
-101
 20
-21.5
 11
-101
 21
-40
  0
LINE
  8
0
 10
-101
 20
-40
 11
-100.843
 21
-41.2435
  0
LINE
  8
0
 10
-100.843
 20
-41.2435
 11
-100.382
 21
-42.4088
  0
LINE
  8
0
 10
-100.382
 20
-42.4088
 11
-99.6448
 21
-43.4227
  0
LINE
  8
0
 10
-99.6448
 20
-43.4227
 11
-98.6791
 21
-44.2216
  0
LINE
  8
0
 10
-98.6791
 20
-44.2216
 11
-97.5451
 21
-44.7553
  0
LINE
  8
0
 10
-97.5451
 20
-44.7553
 11
-96
 21
-45
  0
LINE
  8
0
 10
-96
 20
-45
 11
14
 21
-45
  0
LINE
  8
0
 10
14
 20
-45
 11
15.2435
 21
-44.8429
  0
LINE
  8
0
 10
-95.5621
 20
36.0531
 11
-96.2773
 21
36.2855
  0
LINE
  8
0
 10
-96.2773
 20
36.2855
 11
-96.9123
 21
36.6885
  0
LINE
  8
0
 10
-96.9123
 20
36.6885
 11
-97.427
 21
37.2366
  0
LINE
  8
0
 10
-97.427
 20
37.2366
 11
-97.7893
 21
37.8956
  0
LINE
  8
0
 10
-97.7893
 20
37.8956
 11
-97.9763
 21
38.624
  0
LINE
  8
0
 10
-97.9763
 20
38.624
 11
-97.9763
 21
39.376
  0
LINE
  8
0
 10
-97.9763
 20
39.376
 11
-97.7893
 21
40.1044
  0
LINE
  8
0
 10
-97.7893
 20
40.1044
 11
-97.427
 21
40.7634
  0
LINE
  8
0
 10
-97.427
 20
40.7634
 11
-96.9123
 21
41.3115
  0
LINE
  8
0
 10
-96.9123
 20
41.3115
 11
-96.2773
 21
41.7145
  0
LINE
  8
0
 10
-96.2773
 20
41.7145
 11
-95.5621
 21
41.9469
  0
LINE
  8
0
 10
-95.5621
 20
41.9469
 11
-94.8116
 21
41.9941
  0
LINE
  8
0
 10
-94.8116
 20
41.9941
 11
-94.073
 21
41.8532
  0
LINE
  8
0
 10
-94.073
 20
41.8532
 11
-93.3925
 21
41.533
  0
LINE
  8
0
 10
-93.3925
 20
41.533
 11
-92.8131
 21
41.0536
  0
LINE
  8
0
 10
-92.8131
 20
41.0536
 11
-92.3711
 21
40.4453
  0
LINE
  8
0
 10
-92.3711
 20
40.4453
 11
-92.0943
 21
39.7461
  0
LINE
  8
0
 10
-92.0943
 20
39.7461
 11
-92
 21
39
  0
LINE
  8
0
 10
-92
 20
39
 11
-92.0943
 21
38.2539
  0
LINE
  8
0
 10
-92.0943
 20
38.2539
 11
-92.3711
 21
37.5547
  0
LINE
  8
0
 10
-92.3711
 20
37.5547
 11
-92.8131
 21
36.9464
  0
LINE
  8
0
 10
-92.8131
 20
36.9464
 11
-93.3925
 21
36.467
  0
LINE
  8
0
 10
-93.3925
 20
36.467
 11
-94.073
 21
36.1468
  0
LINE
  8
0
 10
-94.073
 20
36.1468
 11
-94.8116
 21
36.0059
  0
LINE
  8
0
 10
-94.8116
 20
36.0059
 11
-95.5621
 21
36.0531
  0
LINE
  8
0
 10
12.4379
 20
36.0531
 11
11.7227
 21
36.2855
  0
LINE
  8
0
 10
11.7227
 20
36.2855
 11
11.0877
 21
36.6885
  0
LINE
  8
0
 10
11.0877
 20
36.6885
 11
10.5729
 21
37.2366
  0
LINE
  8
0
 10
10.5729
 20
37.2366
 11
10.2107
 21
37.8956
  0
LINE
  8
0
 10
10.2107
 20
37.8956
 11
10.0237
 21
38.624
  0
LINE
  8
0
 10
10.0237
 20
38.624
 11
10.0237
 21
39.376
  0
LINE
  8
0
 10
10.0237
 20
39.376
 11
10.2107
 21
40.1044
  0
LINE
  8
0
 10
10.2107
 20
40.1044
 11
10.5729
 21
40.7634
  0
LINE
  8
0
 10
10.5729
 20
40.7634
 11
11.0877
 21
41.3115
  0
LINE
  8
0
 10
11.0877
 20
41.3115
 11
11.7227
 21
41.7145
  0
LINE
  8
0
 10
11.7227
 20
41.7145
 11
12.4379
 21
41.9469
  0
LINE
  8
0
 10
12.4379
 20
41.9469
 11
13.1884
 21
41.9941
  0
LINE
  8
0
 10
13.1884
 20
41.9941
 11
13.927
 21
41.8532
  0
LINE
  8
0
 10
13.927
 20
41.8532
 11
14.6075
 21
41.533
  0
LINE
  8
0
 10
14.6075
 20
41.533
 11
15.1869
 21
41.0536
  0
LINE
  8
0
 10
15.1869
 20
41.0536
 11
15.6289
 21
40.4453
  0
LINE
  8
0
 10
15.6289
 20
40.4453
 11
15.9057
 21
39.7461
  0
LINE
  8
0
 10
15.9057
 20
39.7461
 11
16
 21
39
  0
LINE
  8
0
 10
16
 20
39
 11
15.9057
 21
38.2539
  0
LINE
  8
0
 10
15.9057
 20
38.2539
 11
15.6289
 21
37.5547
  0
LINE
  8
0
 10
15.6289
 20
37.5547
 11
15.1869
 21
36.9464
  0
LINE
  8
0
 10
15.1869
 20
36.9464
 11
14.6075
 21
36.467
  0
LINE
  8
0
 10
14.6075
 20
36.467
 11
13.927
 21
36.1468
  0
LINE
  8
0
 10
13.927
 20
36.1468
 11
13.1884
 21
36.0059
  0
LINE
  8
0
 10
13.1884
 20
36.0059
 11
12.4379
 21
36.0531
  0
LINE
  8
0
 10
-95.5621
 20
-41.9469
 11
-96.2773
 21
-41.7145
  0
LINE
  8
0
 10
-96.2773
 20
-41.7145
 11
-96.9123
 21
-41.3115
  0
LINE
  8
0
 10
-96.9123
 20
-41.3115
 11
-97.427
 21
-40.7634
  0
LINE
  8
0
 10
-97.427
 20
-40.7634
 11
-97.7893
 21
-40.1044
  0
LINE
  8
0
 10
-97.7893
 20
-40.1044
 11
-97.9763
 21
-39.376
  0
LINE
  8
0
 10
-97.9763
 20
-39.376
 11
-97.9763
 21
-38.624
  0
LINE
  8
0
 10
-97.9763
 20
-38.624
 11
-97.7893
 21
-37.8956
  0
LINE
  8
0
 10
-97.7893
 20
-37.8956
 11
-97.427
 21
-37.2366
  0
LINE
  8
0
 10
-97.427
 20
-37.2366
 11
-96.9123
 21
-36.6885
  0
LINE
  8
0
 10
-96.9123
 20
-36.6885
 11
-96.2773
 21
-36.2855
  0
LINE
  8
0
 10
-96.2773
 20
-36.2855
 11
-95.5621
 21
-36.0531
  0
LINE
  8
0
 10
-95.5621
 20
-36.0531
 11
-94.8116
 21
-36.0059
  0
LINE
  8
0
 10
-94.8116
 20
-36.0059
 11
-94.073
 21
-36.1468
  0
LINE
  8
0
 10
-94.073
 20
-36.1468
 11
-93.3925
 21
-36.467
  0
LINE
  8
0
 10
-93.3925
 20
-36.467
 11
-92.8131
 21
-36.9464
  0
LINE
  8
0
 10
-92.8131
 20
-36.9464
 11
-92.3711
 21
-37.5547
  0
LINE
  8
0
 10
-92.3711
 20
-37.5547
 11
-92.0943
 21
-38.2539
  0
LINE
  8
0
 10
-92.0943
 20
-38.2539
 11
-92
 21
-39
  0
LINE
  8
0
 10
-92
 20
-39
 11
-92.0943
 21
-39.7461
  0
LINE
  8
0
 10
-92.0943
 20
-39.7461
 11
-92.3711
 21
-40.4453
  0
LINE
  8
0
 10
-92.3711
 20
-40.4453
 11
-92.8131
 21
-41.0536
  0
LINE
  8
0
 10
-92.8131
 20
-41.0536
 11
-93.3925
 21
-41.533
  0
LINE
  8
0
 10
-93.3925
 20
-41.533
 11
-94.073
 21
-41.8532
  0
LINE
  8
0
 10
-94.073
 20
-41.8532
 11
-94.8116
 21
-41.9941
  0
LINE
  8
0
 10
-94.8116
 20
-41.9941
 11
-95.5621
 21
-41.9469
  0
LINE
  8
0
 10
12.4379
 20
-41.9469
 11
11.7227
 21
-41.7145
  0
LINE
  8
0
 10
11.7227
 20
-41.7145
 11
11.0877
 21
-41.3115
  0
LINE
  8
0
 10
11.0877
 20
-41.3115
 11
10.5729
 21
-40.7634
  0
LINE
  8
0
 10
10.5729
 20
-40.7634
 11
10.2107
 21
-40.1044
  0
LINE
  8
0
 10
10.2107
 20
-40.1044
 11
10.0237
 21
-39.376
  0
LINE
  8
0
 10
10.0237
 20
-39.376
 11
10.0237
 21
-38.624
  0
LINE
  8
0
 10
10.0237
 20
-38.624
 11
10.2107
 21
-37.8956
  0
LINE
  8
0
 10
10.2107
 20
-37.8956
 11
10.5729
 21
-37.2366
  0
LINE
  8
0
 10
10.5729
 20
-37.2366
 11
11.0877
 21
-36.6885
  0
LINE
  8
0
 10
11.0877
 20
-36.6885
 11
11.7227
 21
-36.2855
  0
LINE
  8
0
 10
11.7227
 20
-36.2855
 11
12.4379
 21
-36.0531
  0
LINE
  8
0
 10
12.4379
 20
-36.0531
 11
13.1884
 21
-36.0059
  0
LINE
  8
0
 10
13.1884
 20
-36.0059
 11
13.927
 21
-36.1468
  0
LINE
  8
0
 10
13.927
 20
-36.1468
 11
14.6075
 21
-36.467
  0
LINE
  8
0
 10
14.6075
 20
-36.467
 11
15.1869
 21
-36.9464
  0
LINE
  8
0
 10
15.1869
 20
-36.9464
 11
15.6289
 21
-37.5547
  0
LINE
  8
0
 10
15.6289
 20
-37.5547
 11
15.9057
 21
-38.2539
  0
LINE
  8
0
 10
15.9057
 20
-38.2539
 11
16
 21
-39
  0
LINE
  8
0
 10
16
 20
-39
 11
15.9057
 21
-39.7461
  0
LINE
  8
0
 10
15.9057
 20
-39.7461
 11
15.6289
 21
-40.4453
  0
LINE
  8
0
 10
15.6289
 20
-40.4453
 11
15.1869
 21
-41.0536
  0
LINE
  8
0
 10
15.1869
 20
-41.0536
 11
14.6075
 21
-41.533
  0
LINE
  8
0
 10
14.6075
 20
-41.533
 11
13.927
 21
-41.8532
  0
LINE
  8
0
 10
13.927
 20
-41.8532
 11
13.1884
 21
-41.9941
  0
LINE
  8
0
 10
13.1884
 20
-41.9941
 11
12.4379
 21
-41.9469
  0
ENDSEC
  0
SECTION
  2
OBJECTS
  0
DICTIONARY
  0
ENDSEC
  0
EOF
