<?xml version="1.0" standalone="no"?>
<!DOCTYPE svg PUBLIC "-//W3C//DTD SVG 1.1//EN" "http://www.w3.org/Graphics/SVG/1.1/DTD/svg11.dtd">
<svg width="1228mm" height="90mm" viewBox="-101 -45 1228 90" xmlns="http://www.w3.org/2000/svg" version="1.1">
<title>OpenSCAD Model</title>
<path d="
M 1123.24,44.8429 L 1124.41,44.3815 L 1125.42,43.6448 L 1126.22,42.6791 L 1126.76,41.5451 L 1127,40
 L 1127,29.5 L 1039,29.5 L 1039,12.5 L 1014,12.5 L 1014,-12.5 L 1039,-12.5
 L 1039,-29.5 L 1127,-29.5 L 1127,-40 L 1126.84,-41.2435 L 1126.38,-42.4088 L 1125.64,-43.4227
 L 1124.68,-44.2216 L 1123.55,-44.7553 L 1122,-45 L 1012,-45 L 1010.76,-44.8429 L 1009.59,-44.3815
 L 1008.58,-43.6448 L 1007.78,-42.6791 L 1007.24,-41.5451 L 1007,-40 L 1007,40 L 1007.16,41.2435
 L 1007.62,42.4088 L 1008.36,43.4227 L 1009.32,44.2216 L 1010.45,44.7553 L 1012,45 L 1122,45
 z
M 1120.44,-36.0531 L 1119.72,-36.2855 L 1119.09,-36.6885 L 1118.57,-37.2366 L 1118.21,-37.8956 L 1118.02,-38.624
 L 1118.02,-39.376 L 1118.21,-40.1044 L 1118.57,-40.7634 L 1119.09,-41.3115 L 1119.72,-41.7145 L 1120.44,-41.9469
 L 1121.19,-41.9941 L 1121.93,-41.8532 L 1122.61,-41.533 L 1123.19,-41.0536 L 1123.63,-40.4453 L 1123.91,-39.7461
 L 1124,-39 L 1123.91,-38.2539 L 1123.63,-37.5547 L 1123.19,-36.9464 L 1122.61,-36.467 L 1121.93,-36.1468
 L 1121.19,-36.0059 z
M 1012.44,-36.0531 L 1011.72,-36.2855 L 1011.09,-36.6885 L 1010.57,-37.2366 L 1010.21,-37.8956 L 1010.02,-38.624
 L 1010.02,-39.376 L 1010.21,-40.1044 L 1010.57,-40.7634 L 1011.09,-41.3115 L 1011.72,-41.7145 L 1012.44,-41.9469
 L 1013.19,-41.9941 L 1013.93,-41.8532 L 1014.61,-41.533 L 1015.19,-41.0536 L 1015.63,-40.4453 L 1015.91,-39.7461
 L 1016,-39 L 1015.91,-38.2539 L 1015.63,-37.5547 L 1015.19,-36.9464 L 1014.61,-36.467 L 1013.93,-36.1468
 L 1013.19,-36.0059 z
M 1120.44,41.9469 L 1119.72,41.7145 L 1119.09,41.3115 L 1118.57,40.7634 L 1118.21,40.1044 L 1118.02,39.376
 L 1118.02,38.624 L 1118.21,37.8956 L 1118.57,37.2366 L 1119.09,36.6885 L 1119.72,36.2855 L 1120.44,36.0531
 L 1121.19,36.0059 L 1121.93,36.1468 L 1122.61,36.467 L 1123.19,36.9464 L 1123.63,37.5547 L 1123.91,38.2539
 L 1124,39 L 1123.91,39.7461 L 1123.63,40.4453 L 1123.19,41.0536 L 1122.61,41.533 L 1121.93,41.8532
 L 1121.19,41.9941 z
M 1012.44,41.9469 L 1011.72,41.7145 L 1011.09,41.3115 L 1010.57,40.7634 L 1010.21,40.1044 L 1010.02,39.376
 L 1010.02,38.624 L 1010.21,37.8956 L 1010.57,37.2366 L 1011.09,36.6885 L 1011.72,36.2855 L 1012.44,36.0531
 L 1013.19,36.0059 L 1013.93,36.1468 L 1014.61,36.467 L 1015.19,36.9464 L 1015.63,37.5547 L 1015.91,38.2539
 L 1016,39 L 1015.91,39.7461 L 1015.63,40.4453 L 1015.19,41.0536 L 1014.61,41.533 L 1013.93,41.8532
 L 1013.19,41.9941 z
M 754.243,44.8429 L 755.409,44.3815 L 756.423,43.6448 L 757.222,42.6791 L 757.755,41.5451 L 758,40
 L 758,-40 L 757.843,-41.2435 L 757.382,-42.4088 L 756.645,-43.4227 L 755.679,-44.2216 L 754.545,-44.7553
 L 753,-45 L 643,-45 L 641.757,-44.8429 L 640.591,-44.3815 L 639.577,-43.6448 L 638.778,-42.6791
 L 638.245,-41.5451 L 638,-40 L 638,-22.5 L 653,-22.5 L 653,-12.5 L 670,-12.5
 L 670,12.5 L 653,12.5 L 653,22.5 L 638,22.5 L 638,40 L 638.157,41.2435
 L 638.618,42.4088 L 639.355,43.4227 L 640.321,44.2216 L 641.455,44.7553 L 643,45 L 753,45
 z
M 751.438,-36.0531 L 750.723,-36.2855 L 750.088,-36.6885 L 749.573,-37.2366 L 749.211,-37.8956 L 749.024,-38.624
 L 749.024,-39.376 L 749.211,-40.1044 L 749.573,-40.7634 L 750.088,-41.3115 L 750.723,-41.7145 L 751.438,-41.9469
 L 752.188,-41.9941 L 752.927,-41.8532 L 753.607,-41.533 L 754.187,-41.0536 L 754.629,-40.4453 L 754.906,-39.7461
 L 755,-39 L 754.906,-38.2539 L 754.629,-37.5547 L 754.187,-36.9464 L 753.607,-36.467 L 752.927,-36.1468
 L 752.188,-36.0059 z
M 643.438,-36.0531 L 642.723,-36.2855 L 642.088,-36.6885 L 641.573,-37.2366 L 641.211,-37.8956 L 641.024,-38.624
 L 641.024,-39.376 L 641.211,-40.1044 L 641.573,-40.7634 L 642.088,-41.3115 L 642.723,-41.7145 L 643.438,-41.9469
 L 644.188,-41.9941 L 644.927,-41.8532 L 645.607,-41.533 L 646.187,-41.0536 L 646.629,-40.4453 L 646.906,-39.7461
 L 647,-39 L 646.906,-38.2539 L 646.629,-37.5547 L 646.187,-36.9464 L 645.607,-36.467 L 644.927,-36.1468
 L 644.188,-36.0059 z
M 722.719,1.47342 L 722.361,1.35724 L 722.044,1.15576 L 721.786,0.881668 L 721.605,0.552185 L 721.512,0.187988
 L 721.512,-0.187988 L 721.605,-0.552185 L 721.786,-0.881668 L 722.044,-1.15576 L 722.361,-1.35724 L 722.719,-1.47342
 L 723.094,-1.49704 L 723.464,-1.42657 L 723.804,-1.26648 L 724.093,-1.02681 L 724.314,-0.722626 L 724.453,-0.373032
 L 724.5,-0 L 724.453,0.373032 L 724.314,0.722626 L 724.093,1.02681 L 723.804,1.26648 L 723.464,1.42657
 L 723.094,1.49704 z
M 698.719,1.47342 L 698.361,1.35724 L 698.044,1.15576 L 697.786,0.881668 L 697.605,0.552185 L 697.512,0.187988
 L 697.512,-0.187988 L 697.605,-0.552185 L 697.786,-0.881668 L 698.044,-1.15576 L 698.361,-1.35724 L 698.719,-1.47342
 L 699.094,-1.49704 L 699.464,-1.42657 L 699.804,-1.26648 L 700.093,-1.02681 L 700.314,-0.722626 L 700.453,-0.373032
 L 700.5,-0 L 700.453,0.373032 L 700.314,0.722626 L 700.093,1.02681 L 699.804,1.26648 L 699.464,1.42657
 L 699.094,1.49704 z
M 728.719,1.47342 L 728.361,1.35724 L 728.044,1.15576 L 727.786,0.881668 L 727.605,0.552185 L 727.512,0.187988
 L 727.512,-0.187988 L 727.605,-0.552185 L 727.786,-0.881668 L 728.044,-1.15576 L 728.361,-1.35724 L 728.719,-1.47342
 L 729.094,-1.49704 L 729.464,-1.42657 L 729.804,-1.26648 L 730.093,-1.02681 L 730.314,-0.722626 L 730.453,-0.373032
 L 730.5,-0 L 730.453,0.373032 L 730.314,0.722626 L 730.093,1.02681 L 729.804,1.26648 L 729.464,1.42657
 L 729.094,1.49704 z
M 643.438,41.9469 L 642.723,41.7145 L 642.088,41.3115 L 641.573,40.7634 L 641.211,40.1044 L 641.024,39.376
 L 641.024,38.624 L 641.211,37.8956 L 641.573,37.2366 L 642.088,36.6885 L 642.723,36.2855 L 643.438,36.0531
 L 644.188,36.0059 L 644.927,36.1468 L 645.607,36.467 L 646.187,36.9464 L 646.629,37.5547 L 646.906,38.2539
 L 647,39 L 646.906,39.7461 L 646.629,40.4453 L 646.187,41.0536 L 645.607,41.533 L 644.927,41.8532
 L 644.188,41.9941 z
M 751.438,41.9469 L 750.723,41.7145 L 750.088,41.3115 L 749.573,40.7634 L 749.211,40.1044 L 749.024,39.376
 L 749.024,38.624 L 749.211,37.8956 L 749.573,37.2366 L 750.088,36.6885 L 750.723,36.2855 L 751.438,36.0531
 L 752.188,36.0059 L 752.927,36.1468 L 753.607,36.467 L 754.187,36.9464 L 754.629,37.5547 L 754.906,38.2539
 L 755,39 L 754.906,39.7461 L 754.629,40.4453 L 754.187,41.0536 L 753.607,41.533 L 752.927,41.8532
 L 752.188,41.9941 z
M 631.243,44.8429 L 632.409,44.3815 L 633.423,43.6448 L 634.222,42.6791 L 634.755,41.5451 L 635,40
 L 635,-40 L 634.843,-41.2435 L 634.382,-42.4088 L 633.645,-43.4227 L 632.679,-44.2216 L 631.545,-44.7553
 L 630,-45 L 520,-45 L 518.757,-44.8429 L 517.591,-44.3815 L 516.577,-43.6448 L 515.778,-42.6791
 L 515.245,-41.5451 L 515,-40 L 515,-22.5 L 530,-22.5 L 530,-12.5 L 530.995,-12.5
 L 530.995,-13.005 L 531.093,-13.623 L 531.306,-14.0766 L 531.626,-14.4629 L 532.031,-14.7576 L 532.498,-14.9422
 L 532.995,-15.005 L 616.005,-15.005 L 616.623,-14.9071 L 617.077,-14.6936 L 617.463,-14.3741 L 617.758,-13.9685
 L 617.942,-13.5024 L 618.005,-13.005 L 618.005,13.005 L 617.907,13.623 L 617.694,14.0766 L 617.374,14.4629
 L 616.969,14.7576 L 616.502,14.9422 L 616.005,15.005 L 601.995,15.005 L 601.377,14.9071 L 600.923,14.6936
 L 600.537,14.3741 L 600.242,13.9685 L 600.058,13.5024 L 599.995,13.005 L 599.995,5.99501 L 600.093,5.37698
 L 600.306,4.92336 L 600.626,4.53708 L 601.031,4.2424 L 601.498,4.05785 L 601.995,3.99501 L 608.995,3.99501
 L 608.995,-3.99501 L 547,-3.99501 L 547,3.99501 L 569.005,3.99501 L 569.623,4.0929 L 570.077,4.30635
 L 570.463,4.62592 L 570.758,5.03151 L 570.942,5.49763 L 571.005,5.99501 L 571.005,13.005 L 570.907,13.623
 L 570.694,14.0766 L 570.374,14.4629 L 569.969,14.7576 L 569.502,14.9422 L 569.005,15.005 L 532.995,15.005
 L 532.377,14.9071 L 531.923,14.6936 L 531.537,14.3741 L 531.242,13.9685 L 531.058,13.5024 L 530.995,13.005
 L 530.995,12.5 L 530,12.5 L 530,22.5 L 515,22.5 L 515,40 L 515.157,41.2435
 L 515.618,42.4088 L 516.355,43.4227 L 517.321,44.2216 L 518.455,44.7553 L 520,45 L 630,45
 z
M 628.438,-36.0531 L 627.723,-36.2855 L 627.088,-36.6885 L 626.573,-37.2366 L 626.211,-37.8956 L 626.024,-38.624
 L 626.024,-39.376 L 626.211,-40.1044 L 626.573,-40.7634 L 627.088,-41.3115 L 627.723,-41.7145 L 628.438,-41.9469
 L 629.188,-41.9941 L 629.927,-41.8532 L 630.607,-41.533 L 631.187,-41.0536 L 631.629,-40.4453 L 631.906,-39.7461
 L 632,-39 L 631.906,-38.2539 L 631.629,-37.5547 L 631.187,-36.9464 L 630.607,-36.467 L 629.927,-36.1468
 L 629.188,-36.0059 z
M 520.438,-36.0531 L 519.723,-36.2855 L 519.088,-36.6885 L 518.573,-37.2366 L 518.211,-37.8956 L 518.024,-38.624
 L 518.024,-39.376 L 518.211,-40.1044 L 518.573,-40.7634 L 519.088,-41.3115 L 519.723,-41.7145 L 520.438,-41.9469
 L 521.188,-41.9941 L 521.927,-41.8532 L 522.607,-41.533 L 523.187,-41.0536 L 523.629,-40.4453 L 523.906,-39.7461
 L 524,-39 L 523.906,-38.2539 L 523.629,-37.5547 L 523.187,-36.9464 L 522.607,-36.467 L 521.927,-36.1468
 L 521.188,-36.0059 z
M 598.412,2.75006 L 596.825,-0 L 598.412,-2.75006 L 601.588,-2.75006 L 603.175,-0 L 601.588,2.75006
 z
M 605.719,1.47342 L 605.361,1.35724 L 605.044,1.15576 L 604.786,0.881668 L 604.605,0.552185 L 604.512,0.187988
 L 604.512,-0.187988 L 604.605,-0.552185 L 604.786,-0.881668 L 605.044,-1.15576 L 605.361,-1.35724 L 605.719,-1.47342
 L 606.094,-1.49704 L 606.464,-1.42657 L 606.804,-1.26648 L 607.093,-1.02681 L 607.314,-0.722626 L 607.453,-0.373032
 L 607.5,-0 L 607.453,0.373032 L 607.314,0.722626 L 607.093,1.02681 L 606.804,1.26648 L 606.464,1.42657
 L 606.094,1.49704 z
M 575.719,1.47342 L 575.361,1.35724 L 575.044,1.15576 L 574.786,0.881668 L 574.605,0.552185 L 574.512,0.187988
 L 574.512,-0.187988 L 574.605,-0.552185 L 574.786,-0.881668 L 575.044,-1.15576 L 575.361,-1.35724 L 575.719,-1.47342
 L 576.094,-1.49704 L 576.464,-1.42657 L 576.804,-1.26648 L 577.093,-1.02681 L 577.314,-0.722626 L 577.453,-0.373032
 L 577.5,-0 L 577.453,0.373032 L 577.314,0.722626 L 577.093,1.02681 L 576.804,1.26648 L 576.464,1.42657
 L 576.094,1.49704 z
M 520.438,41.9469 L 519.723,41.7145 L 519.088,41.3115 L 518.573,40.7634 L 518.211,40.1044 L 518.024,39.376
 L 518.024,38.624 L 518.211,37.8956 L 518.573,37.2366 L 519.088,36.6885 L 519.723,36.2855 L 520.438,36.0531
 L 521.188,36.0059 L 521.927,36.1468 L 522.607,36.467 L 523.187,36.9464 L 523.629,37.5547 L 523.906,38.2539
 L 524,39 L 523.906,39.7461 L 523.629,40.4453 L 523.187,41.0536 L 522.607,41.533 L 521.927,41.8532
 L 521.188,41.9941 z
M 628.438,41.9469 L 627.723,41.7145 L 627.088,41.3115 L 626.573,40.7634 L 626.211,40.1044 L 626.024,39.376
 L 626.024,38.624 L 626.211,37.8956 L 626.573,37.2366 L 627.088,36.6885 L 627.723,36.2855 L 628.438,36.0531
 L 629.188,36.0059 L 629.927,36.1468 L 630.607,36.467 L 631.187,36.9464 L 631.629,37.5547 L 631.906,38.2539
 L 632,39 L 631.906,39.7461 L 631.629,40.4453 L 631.187,41.0536 L 630.607,41.533 L 629.927,41.8532
 L 629.188,41.9941 z
M 508.243,44.8429 L 509.409,44.3815 L 510.423,43.6448 L 511.222,42.6791 L 511.755,41.5451 L 512,40
 L 512,-40 L 511.843,-41.2435 L 511.382,-42.4088 L 510.645,-43.4227 L 509.679,-44.2216 L 508.545,-44.7553
 L 507,-45 L 397,-45 L 395.757,-44.8429 L 394.591,-44.3815 L 393.577,-43.6448 L 392.778,-42.6791
 L 392.245,-41.5451 L 392,-40 L 392,-29 L 442,-29 L 442,-27 L 392,-27
 L 392,-22.5 L 407,-22.5 L 407,-12.5 L 407.995,-12.5 L 407.995,-13.005 L 408.093,-13.623
 L 408.306,-14.0766 L 408.626,-14.4629 L 409.031,-14.7576 L 409.498,-14.9422 L 409.995,-15.005 L 493.005,-15.005
 L 493.623,-14.9071 L 494.077,-14.6936 L 494.463,-14.3741 L 494.758,-13.9685 L 494.942,-13.5024 L 495.005,-13.005
 L 495.005,13.005 L 494.907,13.623 L 494.694,14.0766 L 494.374,14.4629 L 493.969,14.7576 L 493.502,14.9422
 L 493.005,15.005 L 478.995,15.005 L 478.377,14.9071 L 477.923,14.6936 L 477.537,14.3741 L 477.242,13.9685
 L 477.058,13.5024 L 476.995,13.005 L 476.995,5.99501 L 477.093,5.37698 L 477.306,4.92336 L 477.626,4.53708
 L 478.031,4.2424 L 478.498,4.05785 L 478.995,3.99501 L 485.995,3.99501 L 485.995,-3.99501 L 459.505,-3.99501
 L 459.505,8.00499 L 459.407,8.62302 L 459.194,9.07664 L 458.874,9.46292 L 458.469,9.7576 L 458.002,9.94215
 L 457.505,10.005 L 456.495,10.005 L 455.877,9.9071 L 455.423,9.69365 L 455.037,9.37408 L 454.742,8.96849
 L 454.558,8.50237 L 454.495,8.00499 L 454.495,2.30412 L 454.474,2.3219 L 453.85,2.6154 L 453.173,2.74457
 L 452.485,2.70128 L 451.829,2.48827 L 451.247,2.1189 L 450.775,1.61641 L 450.443,1.01233 L 450.272,0.344666
 L 450.272,-0.344666 L 450.443,-1.01233 L 450.775,-1.61641 L 451.247,-2.1189 L 451.829,-2.48827 L 452.485,-2.70128
 L 453.173,-2.74457 L 453.85,-2.6154 L 454.474,-2.3219 L 454.495,-2.30412 L 454.495,-3.99501 L 424,-3.99501
 L 424,3.99501 L 446.005,3.99501 L 446.623,4.0929 L 447.077,4.30635 L 447.463,4.62592 L 447.758,5.03151
 L 447.942,5.49763 L 448.005,5.99501 L 448.005,13.005 L 447.907,13.623 L 447.694,14.0766 L 447.374,14.4629
 L 446.969,14.7576 L 446.502,14.9422 L 446.005,15.005 L 409.995,15.005 L 409.377,14.9071 L 408.923,14.6936
 L 408.537,14.3741 L 408.242,13.9685 L 408.058,13.5024 L 407.995,13.005 L 407.995,12.5 L 407,12.5
 L 407,22.5 L 392,22.5 L 392,27 L 442,27 L 442,29 L 392,29
 L 392,40 L 392.157,41.2435 L 392.618,42.4088 L 393.355,43.4227 L 394.321,44.2216 L 395.455,44.7553
 L 397,45 L 507,45 z
M 505.438,-36.0531 L 504.723,-36.2855 L 504.088,-36.6885 L 503.573,-37.2366 L 503.211,-37.8956 L 503.024,-38.624
 L 503.024,-39.376 L 503.211,-40.1044 L 503.573,-40.7634 L 504.088,-41.3115 L 504.723,-41.7145 L 505.438,-41.9469
 L 506.188,-41.9941 L 506.927,-41.8532 L 507.607,-41.533 L 508.187,-41.0536 L 508.629,-40.4453 L 508.906,-39.7461
 L 509,-39 L 508.906,-38.2539 L 508.629,-37.5547 L 508.187,-36.9464 L 507.607,-36.467 L 506.927,-36.1468
 L 506.188,-36.0059 z
M 397.438,-36.0531 L 396.723,-36.2855 L 396.088,-36.6885 L 395.573,-37.2366 L 395.211,-37.8956 L 395.024,-38.624
 L 395.024,-39.376 L 395.211,-40.1044 L 395.573,-40.7634 L 396.088,-41.3115 L 396.723,-41.7145 L 397.438,-41.9469
 L 398.188,-41.9941 L 398.927,-41.8532 L 399.607,-41.533 L 400.187,-41.0536 L 400.629,-40.4453 L 400.906,-39.7461
 L 401,-39 L 400.906,-38.2539 L 400.629,-37.5547 L 400.187,-36.9464 L 399.607,-36.467 L 398.927,-36.1468
 L 398.188,-36.0059 z
M 482.485,2.70128 L 481.829,2.48827 L 481.247,2.1189 L 480.775,1.61641 L 480.443,1.01233 L 480.272,0.344666
 L 480.272,-0.344666 L 480.443,-1.01233 L 480.775,-1.61641 L 481.247,-2.1189 L 481.829,-2.48827 L 482.485,-2.70128
 L 483.173,-2.74457 L 483.85,-2.6154 L 484.474,-2.3219 L 485.005,-1.88249 L 485.41,-1.32481 L 485.664,-0.683884
 L 485.75,-0 L 485.664,0.683884 L 485.41,1.32481 L 485.005,1.88249 L 484.474,2.3219 L 483.85,2.6154
 L 483.173,2.74457 z
M 476.719,1.47342 L 476.361,1.35724 L 476.044,1.15576 L 475.786,0.881668 L 475.605,0.552185 L 475.512,0.187988
 L 475.512,-0.187988 L 475.605,-0.552185 L 475.786,-0.881668 L 476.044,-1.15576 L 476.361,-1.35724 L 476.719,-1.47342
 L 477.094,-1.49704 L 477.464,-1.42657 L 477.804,-1.26648 L 478.093,-1.02681 L 478.314,-0.722626 L 478.453,-0.373032
 L 478.5,-0 L 478.453,0.373032 L 478.314,0.722626 L 478.093,1.02681 L 477.804,1.26648 L 477.464,1.42657
 L 477.094,1.49704 z
M 505.438,41.9469 L 504.723,41.7145 L 504.088,41.3115 L 503.573,40.7634 L 503.211,40.1044 L 503.024,39.376
 L 503.024,38.624 L 503.211,37.8956 L 503.573,37.2366 L 504.088,36.6885 L 504.723,36.2855 L 505.438,36.0531
 L 506.188,36.0059 L 506.927,36.1468 L 507.607,36.467 L 508.187,36.9464 L 508.629,37.5547 L 508.906,38.2539
 L 509,39 L 508.906,39.7461 L 508.629,40.4453 L 508.187,41.0536 L 507.607,41.533 L 506.927,41.8532
 L 506.188,41.9941 z
M 397.438,41.9469 L 396.723,41.7145 L 396.088,41.3115 L 395.573,40.7634 L 395.211,40.1044 L 395.024,39.376
 L 395.024,38.624 L 395.211,37.8956 L 395.573,37.2366 L 396.088,36.6885 L 396.723,36.2855 L 397.438,36.0531
 L 398.188,36.0059 L 398.927,36.1468 L 399.607,36.467 L 400.187,36.9464 L 400.629,37.5547 L 400.906,38.2539
 L 401,39 L 400.906,39.7461 L 400.629,40.4453 L 400.187,41.0536 L 399.607,41.533 L 398.927,41.8532
 L 398.188,41.9941 z
M 385.243,44.8429 L 386.409,44.3815 L 387.423,43.6448 L 388.222,42.6791 L 388.755,41.5451 L 389,40
 L 389,-40 L 388.843,-41.2435 L 388.382,-42.4088 L 387.645,-43.4227 L 386.679,-44.2216 L 385.545,-44.7553
 L 384,-45 L 274,-45 L 272.757,-44.8429 L 271.591,-44.3815 L 270.577,-43.6448 L 269.778,-42.6791
 L 269.245,-41.5451 L 269,-40 L 269,-34 L 380,-34 L 380,34 L 269,34
 L 269,40 L 269.157,41.2435 L 269.618,42.4088 L 270.355,43.4227 L 271.321,44.2216 L 272.455,44.7553
 L 274,45 L 384,45 z
M 382.438,-36.0531 L 381.723,-36.2855 L 381.088,-36.6885 L 380.573,-37.2366 L 380.211,-37.8956 L 380.024,-38.624
 L 380.024,-39.376 L 380.211,-40.1044 L 380.573,-40.7634 L 381.088,-41.3115 L 381.723,-41.7145 L 382.438,-41.9469
 L 383.188,-41.9941 L 383.927,-41.8532 L 384.607,-41.533 L 385.187,-41.0536 L 385.629,-40.4453 L 385.906,-39.7461
 L 386,-39 L 385.906,-38.2539 L 385.629,-37.5547 L 385.187,-36.9464 L 384.607,-36.467 L 383.927,-36.1468
 L 383.188,-36.0059 z
M 274.438,-36.0531 L 273.723,-36.2855 L 273.088,-36.6885 L 272.573,-37.2366 L 272.211,-37.8956 L 272.024,-38.624
 L 272.024,-39.376 L 272.211,-40.1044 L 272.573,-40.7634 L 273.088,-41.3115 L 273.723,-41.7145 L 274.438,-41.9469
 L 275.188,-41.9941 L 275.927,-41.8532 L 276.607,-41.533 L 277.187,-41.0536 L 277.629,-40.4453 L 277.906,-39.7461
 L 278,-39 L 277.906,-38.2539 L 277.629,-37.5547 L 277.187,-36.9464 L 276.607,-36.467 L 275.927,-36.1468
 L 275.188,-36.0059 z
M 274.438,41.9469 L 273.723,41.7145 L 273.088,41.3115 L 272.573,40.7634 L 272.211,40.1044 L 272.024,39.376
 L 272.024,38.624 L 272.211,37.8956 L 272.573,37.2366 L 273.088,36.6885 L 273.723,36.2855 L 274.438,36.0531
 L 275.188,36.0059 L 275.927,36.1468 L 276.607,36.467 L 277.187,36.9464 L 277.629,37.5547 L 277.906,38.2539
 L 278,39 L 277.906,39.7461 L 277.629,40.4453 L 277.187,41.0536 L 276.607,41.533 L 275.927,41.8532
 L 275.188,41.9941 z
M 382.438,41.9469 L 381.723,41.7145 L 381.088,41.3115 L 380.573,40.7634 L 380.211,40.1044 L 380.024,39.376
 L 380.024,38.624 L 380.211,37.8956 L 380.573,37.2366 L 381.088,36.6885 L 381.723,36.2855 L 382.438,36.0531
 L 383.188,36.0059 L 383.927,36.1468 L 384.607,36.467 L 385.187,36.9464 L 385.629,37.5547 L 385.906,38.2539
 L 386,39 L 385.906,39.7461 L 385.629,40.4453 L 385.187,41.0536 L 384.607,41.533 L 383.927,41.8532
 L 383.188,41.9941 z
M 262.243,44.8429 L 263.409,44.3815 L 264.423,43.6448 L 265.222,42.6791 L 265.755,41.5451 L 266,40
 L 266,-40 L 265.843,-41.2435 L 265.382,-42.4088 L 264.645,-43.4227 L 263.679,-44.2216 L 262.545,-44.7553
 L 261,-45 L 151,-45 L 149.757,-44.8429 L 148.591,-44.3815 L 147.577,-43.6448 L 146.778,-42.6791
 L 146.245,-41.5451 L 146,-40 L 146,-21.5 L 231.5,-21.5 L 231.5,-21.3726 L 232.85,-21.4576
 L 238.144,-20.4477 L 243.02,-18.153 L 247.173,-14.7178 L 250.341,-10.3577 L 252.325,-5.34683 L 253,-0
 L 252.325,5.34683 L 250.341,10.3577 L 247.173,14.7178 L 243.02,18.153 L 238.144,20.4477 L 232.85,21.4576
 L 231.5,21.3726 L 231.5,21.5 L 146,21.5 L 146,40 L 146.157,41.2435 L 146.618,42.4088
 L 147.355,43.4227 L 148.321,44.2216 L 149.455,44.7553 L 151,45 L 261,45 z
M 151.438,-36.0531 L 150.723,-36.2855 L 150.088,-36.6885 L 149.573,-37.2366 L 149.211,-37.8956 L 149.024,-38.624
 L 149.024,-39.376 L 149.211,-40.1044 L 149.573,-40.7634 L 150.088,-41.3115 L 150.723,-41.7145 L 151.438,-41.9469
 L 152.188,-41.9941 L 152.927,-41.8532 L 153.607,-41.533 L 154.187,-41.0536 L 154.629,-40.4453 L 154.906,-39.7461
 L 155,-39 L 154.906,-38.2539 L 154.629,-37.5547 L 154.187,-36.9464 L 153.607,-36.467 L 152.927,-36.1468
 L 152.188,-36.0059 z
M 259.438,-36.0531 L 258.723,-36.2855 L 258.088,-36.6885 L 257.573,-37.2366 L 257.211,-37.8956 L 257.024,-38.624
 L 257.024,-39.376 L 257.211,-40.1044 L 257.573,-40.7634 L 258.088,-41.3115 L 258.723,-41.7145 L 259.438,-41.9469
 L 260.188,-41.9941 L 260.927,-41.8532 L 261.607,-41.533 L 262.187,-41.0536 L 262.629,-40.4453 L 262.906,-39.7461
 L 263,-39 L 262.906,-38.2539 L 262.629,-37.5547 L 262.187,-36.9464 L 261.607,-36.467 L 260.927,-36.1468
 L 260.188,-36.0059 z
M 151.438,41.9469 L 150.723,41.7145 L 150.088,41.3115 L 149.573,40.7634 L 149.211,40.1044 L 149.024,39.376
 L 149.024,38.624 L 149.211,37.8956 L 149.573,37.2366 L 150.088,36.6885 L 150.723,36.2855 L 151.438,36.0531
 L 152.188,36.0059 L 152.927,36.1468 L 153.607,36.467 L 154.187,36.9464 L 154.629,37.5547 L 154.906,38.2539
 L 155,39 L 154.906,39.7461 L 154.629,40.4453 L 154.187,41.0536 L 153.607,41.533 L 152.927,41.8532
 L 152.188,41.9941 z
M 259.438,41.9469 L 258.723,41.7145 L 258.088,41.3115 L 257.573,40.7634 L 257.211,40.1044 L 257.024,39.376
 L 257.024,38.624 L 257.211,37.8956 L 257.573,37.2366 L 258.088,36.6885 L 258.723,36.2855 L 259.438,36.0531
 L 260.188,36.0059 L 260.927,36.1468 L 261.607,36.467 L 262.187,36.9464 L 262.629,37.5547 L 262.906,38.2539
 L 263,39 L 262.906,39.7461 L 262.629,40.4453 L 262.187,41.0536 L 261.607,41.533 L 260.927,41.8532
 L 260.188,41.9941 z
M 139.243,44.8429 L 140.409,44.3815 L 141.423,43.6448 L 142.222,42.6791 L 142.755,41.5451 L 143,40
 L 143,-40 L 142.843,-41.2435 L 142.382,-42.4088 L 141.645,-43.4227 L 140.679,-44.2216 L 139.545,-44.7553
 L 138,-45 L 28,-45 L 26.7565,-44.8429 L 25.5912,-44.3815 L 24.5773,-43.6448 L 23.7784,-42.6791
 L 23.2447,-41.5451 L 23,-40 L 23,-21.5 L 108.5,-21.5 L 108.5,-21.3726 L 109.85,-21.4576
 L 115.144,-20.4477 L 120.02,-18.153 L 124.173,-14.7178 L 127.341,-10.3577 L 129.325,-5.34683 L 130,-0
 L 129.325,5.34683 L 127.341,10.3577 L 124.173,14.7178 L 120.02,18.153 L 115.144,20.4477 L 109.85,21.4576
 L 108.5,21.3726 L 108.5,21.5 L 23,21.5 L 23,40 L 23.1571,41.2435 L 23.6185,42.4088
 L 24.3552,43.4227 L 25.3209,44.2216 L 26.4549,44.7553 L 28,45 L 138,45 z
M 136.438,-36.0531 L 135.723,-36.2855 L 135.088,-36.6885 L 134.573,-37.2366 L 134.211,-37.8956 L 134.024,-38.624
 L 134.024,-39.376 L 134.211,-40.1044 L 134.573,-40.7634 L 135.088,-41.3115 L 135.723,-41.7145 L 136.438,-41.9469
 L 137.188,-41.9941 L 137.927,-41.8532 L 138.607,-41.533 L 139.187,-41.0536 L 139.629,-40.4453 L 139.906,-39.7461
 L 140,-39 L 139.906,-38.2539 L 139.629,-37.5547 L 139.187,-36.9464 L 138.607,-36.467 L 137.927,-36.1468
 L 137.188,-36.0059 z
M 28.4379,-36.0531 L 27.7227,-36.2855 L 27.0877,-36.6885 L 26.5729,-37.2366 L 26.2107,-37.8956 L 26.0237,-38.624
 L 26.0237,-39.376 L 26.2107,-40.1044 L 26.5729,-40.7634 L 27.0877,-41.3115 L 27.7227,-41.7145 L 28.4379,-41.9469
 L 29.1884,-41.9941 L 29.927,-41.8532 L 30.6075,-41.533 L 31.1869,-41.0536 L 31.6289,-40.4453 L 31.9057,-39.7461
 L 32,-39 L 31.9057,-38.2539 L 31.6289,-37.5547 L 31.1869,-36.9464 L 30.6075,-36.467 L 29.927,-36.1468
 L 29.1884,-36.0059 z
M 28.4379,41.9469 L 27.7227,41.7145 L 27.0877,41.3115 L 26.5729,40.7634 L 26.2107,40.1044 L 26.0237,39.376
 L 26.0237,38.624 L 26.2107,37.8956 L 26.5729,37.2366 L 27.0877,36.6885 L 27.7227,36.2855 L 28.4379,36.0531
 L 29.1884,36.0059 L 29.927,36.1468 L 30.6075,36.467 L 31.1869,36.9464 L 31.6289,37.5547 L 31.9057,38.2539
 L 32,39 L 31.9057,39.7461 L 31.6289,40.4453 L 31.1869,41.0536 L 30.6075,41.533 L 29.927,41.8532
 L 29.1884,41.9941 z
M 136.438,41.9469 L 135.723,41.7145 L 135.088,41.3115 L 134.573,40.7634 L 134.211,40.1044 L 134.024,39.376
 L 134.024,38.624 L 134.211,37.8956 L 134.573,37.2366 L 135.088,36.6885 L 135.723,36.2855 L 136.438,36.0531
 L 137.188,36.0059 L 137.927,36.1468 L 138.607,36.467 L 139.187,36.9464 L 139.629,37.5547 L 139.906,38.2539
 L 140,39 L 139.906,39.7461 L 139.629,40.4453 L 139.187,41.0536 L 138.607,41.533 L 137.927,41.8532
 L 137.188,41.9941 z
M 15.2435,44.8429 L 16.4088,44.3815 L 17.4227,43.6448 L 18.2216,42.6791 L 18.7553,41.5451 L 19,40
 L 19,-40 L 18.8429,-41.2435 L 18.3815,-42.4088 L 17.6448,-43.4227 L 16.6791,-44.2216 L 15.5451,-44.7553
 L 14,-45 L -96,-45 L -97.2435,-44.8429 L -98.4088,-44.3815 L -99.4227,-43.6448 L -100.222,-42.6791
 L -100.755,-41.5451 L -101,-40 L -101,40 L -100.843,41.2435 L -100.382,42.4088 L -99.6448,43.4227
 L -98.6791,44.2216 L -97.5451,44.7553 L -96,45 L 14,45 z
M 12.4379,-36.0531 L 11.7227,-36.2855 L 11.0877,-36.6885 L 10.5729,-37.2366 L 10.2107,-37.8956 L 10.0237,-38.624
 L 10.0237,-39.376 L 10.2107,-40.1044 L 10.5729,-40.7634 L 11.0877,-41.3115 L 11.7227,-41.7145 L 12.4379,-41.9469
 L 13.1884,-41.9941 L 13.927,-41.8532 L 14.6075,-41.533 L 15.1869,-41.0536 L 15.6289,-40.4453 L 15.9057,-39.7461
 L 16,-39 L 15.9057,-38.2539 L 15.6289,-37.5547 L 15.1869,-36.9464 L 14.6075,-36.467 L 13.927,-36.1468
 L 13.1884,-36.0059 z
M -95.5621,-36.0531 L -96.2773,-36.2855 L -96.9123,-36.6885 L -97.427,-37.2366 L -97.7893,-37.8956 L -97.9763,-38.624
 L -97.9763,-39.376 L -97.7893,-40.1044 L -97.427,-40.7634 L -96.9123,-41.3115 L -96.2773,-41.7145 L -95.5621,-41.9469
 L -94.8116,-41.9941 L -94.073,-41.8532 L -93.3925,-41.533 L -92.8131,-41.0536 L -92.3711,-40.4453 L -92.0943,-39.7461
 L -92,-39 L -92.0943,-38.2539 L -92.3711,-37.5547 L -92.8131,-36.9464 L -93.3925,-36.467 L -94.073,-36.1468
 L -94.8116,-36.0059 z
M -94,12.5 L -94,-12.5 L -69,-12.5 L -69,12.5 z
M -10.2811,1.47342 L -10.6387,1.35724 L -10.9561,1.15576 L -11.2135,0.881668 L -11.3947,0.552185 L -11.4882,0.187988
 L -11.4882,-0.187988 L -11.3947,-0.552185 L -11.2135,-0.881668 L -10.9561,-1.15576 L -10.6387,-1.35724 L -10.2811,-1.47342
 L -9.90581,-1.49704 L -9.53647,-1.42657 L -9.19626,-1.26648 L -8.90654,-1.02681 L -8.68553,-0.722626 L -8.54712,-0.373032
 L -8.5,-0 L -8.54712,0.373032 L -8.68553,0.722626 L -8.90654,1.02681 L -9.19626,1.26648 L -9.53647,1.42657
 L -9.90581,1.49704 z
M -40.2811,1.47342 L -40.6387,1.35724 L -40.9561,1.15576 L -41.2135,0.881668 L -41.3947,0.552185 L -41.4882,0.187988
 L -41.4882,-0.187988 L -41.3947,-0.552185 L -41.2135,-0.881668 L -40.9561,-1.15576 L -40.6387,-1.35724 L -40.2811,-1.47342
 L -39.9058,-1.49704 L -39.5365,-1.42657 L -39.1963,-1.26648 L -38.9065,-1.02681 L -38.6855,-0.722626 L -38.5471,-0.373032
 L -38.5,-0 L -38.5471,0.373032 L -38.6855,0.722626 L -38.9065,1.02681 L -39.1963,1.26648 L -39.5365,1.42657
 L -39.9058,1.49704 z
M -16.2811,1.47342 L -16.6387,1.35724 L -16.9561,1.15576 L -17.2135,0.881668 L -17.3947,0.552185 L -17.4882,0.187988
 L -17.4882,-0.187988 L -17.3947,-0.552185 L -17.2135,-0.881668 L -16.9561,-1.15576 L -16.6387,-1.35724 L -16.2811,-1.47342
 L -15.9058,-1.49704 L -15.5365,-1.42657 L -15.1963,-1.26648 L -14.9065,-1.02681 L -14.6855,-0.722626 L -14.5471,-0.373032
 L -14.5,-0 L -14.5471,0.373032 L -14.6855,0.722626 L -14.9065,1.02681 L -15.1963,1.26648 L -15.5365,1.42657
 L -15.9058,1.49704 z
M -95.5621,41.9469 L -96.2773,41.7145 L -96.9123,41.3115 L -97.427,40.7634 L -97.7893,40.1044 L -97.9763,39.376
 L -97.9763,38.624 L -97.7893,37.8956 L -97.427,37.2366 L -96.9123,36.6885 L -96.2773,36.2855 L -95.5621,36.0531
 L -94.8116,36.0059 L -94.073,36.1468 L -93.3925,36.467 L -92.8131,36.9464 L -92.3711,37.5547 L -92.0943,38.2539
 L -92,39 L -92.0943,39.7461 L -92.3711,40.4453 L -92.8131,41.0536 L -93.3925,41.533 L -94.073,41.8532
 L -94.8116,41.9941 z
M 12.4379,41.9469 L 11.7227,41.7145 L 11.0877,41.3115 L 10.5729,40.7634 L 10.2107,40.1044 L 10.0237,39.376
 L 10.0237,38.624 L 10.2107,37.8956 L 10.5729,37.2366 L 11.0877,36.6885 L 11.7227,36.2855 L 12.4379,36.0531
 L 13.1884,36.0059 L 13.927,36.1468 L 14.6075,36.467 L 15.1869,36.9464 L 15.6289,37.5547 L 15.9057,38.2539
 L 16,39 L 15.9057,39.7461 L 15.6289,40.4453 L 15.1869,41.0536 L 14.6075,41.533 L 13.927,41.8532
 L 13.1884,41.9941 z
M 916,-29.5 L 1004,-29.5 L 1004,-40 L 1003.84,-41.2435 L 1003.38,-42.4088 L 1002.64,-43.4227
 L 1001.68,-44.2216 L 1000.55,-44.7553 L 999,-45 L 889,-45 L 887.757,-44.8429 L 886.591,-44.3815
 L 885.577,-43.6448 L 884.778,-42.6791 L 884.245,-41.5451 L 884,-40 L 884,-22.5 L 899,-22.5
 L 899,-12.5 L 916,-12.5 z
M 889.438,-36.0531 L 888.723,-36.2855 L 888.088,-36.6885 L 887.573,-37.2366 L 887.211,-37.8956 L 887.024,-38.624
 L 887.024,-39.376 L 887.211,-40.1044 L 887.573,-40.7634 L 888.088,-41.3115 L 888.723,-41.7145 L 889.438,-41.9469
 L 890.188,-41.9941 L 890.927,-41.8532 L 891.607,-41.533 L 892.187,-41.0536 L 892.629,-40.4453 L 892.906,-39.7461
 L 893,-39 L 892.906,-38.2539 L 892.629,-37.5547 L 892.187,-36.9464 L 891.607,-36.467 L 890.927,-36.1468
 L 890.188,-36.0059 z
M 997.438,-36.0531 L 996.723,-36.2855 L 996.088,-36.6885 L 995.573,-37.2366 L 995.211,-37.8956 L 995.024,-38.624
 L 995.024,-39.376 L 995.211,-40.1044 L 995.573,-40.7634 L 996.088,-41.3115 L 996.723,-41.7145 L 997.438,-41.9469
 L 998.188,-41.9941 L 998.927,-41.8532 L 999.607,-41.533 L 1000.19,-41.0536 L 1000.63,-40.4453 L 1000.91,-39.7461
 L 1001,-39 L 1000.91,-38.2539 L 1000.63,-37.5547 L 1000.19,-36.9464 L 999.607,-36.467 L 998.927,-36.1468
 L 998.188,-36.0059 z
M 793,-29.5 L 881,-29.5 L 881,-40 L 880.843,-41.2435 L 880.382,-42.4088 L 879.645,-43.4227
 L 878.679,-44.2216 L 877.545,-44.7553 L 876,-45 L 766,-45 L 764.757,-44.8429 L 763.591,-44.3815
 L 762.577,-43.6448 L 761.778,-42.6791 L 761.245,-41.5451 L 761,-40 L 761,-22.5 L 776,-22.5
 L 776,-12.5 L 793,-12.5 z
M 766.438,-36.0531 L 765.723,-36.2855 L 765.088,-36.6885 L 764.573,-37.2366 L 764.211,-37.8956 L 764.024,-38.624
 L 764.024,-39.376 L 764.211,-40.1044 L 764.573,-40.7634 L 765.088,-41.3115 L 765.723,-41.7145 L 766.438,-41.9469
 L 767.188,-41.9941 L 767.927,-41.8532 L 768.607,-41.533 L 769.187,-41.0536 L 769.629,-40.4453 L 769.906,-39.7461
 L 770,-39 L 769.906,-38.2539 L 769.629,-37.5547 L 769.187,-36.9464 L 768.607,-36.467 L 767.927,-36.1468
 L 767.188,-36.0059 z
M 874.438,-36.0531 L 873.723,-36.2855 L 873.088,-36.6885 L 872.573,-37.2366 L 872.211,-37.8956 L 872.024,-38.624
 L 872.024,-39.376 L 872.211,-40.1044 L 872.573,-40.7634 L 873.088,-41.3115 L 873.723,-41.7145 L 874.438,-41.9469
 L 875.188,-41.9941 L 875.927,-41.8532 L 876.607,-41.533 L 877.187,-41.0536 L 877.629,-40.4453 L 877.906,-39.7461
 L 878,-39 L 877.906,-38.2539 L 877.629,-37.5547 L 877.187,-36.9464 L 876.607,-36.467 L 875.927,-36.1468
 L 875.188,-36.0059 z
M 877.243,44.8429 L 878.409,44.3815 L 879.423,43.6448 L 880.222,42.6791 L 880.755,41.5451 L 881,40
 L 881,29.5 L 793,29.5 L 793,12.5 L 776,12.5 L 776,22.5 L 761,22.5
 L 761,40 L 761.157,41.2435 L 761.618,42.4088 L 762.355,43.4227 L 763.321,44.2216 L 764.455,44.7553
 L 766,45 L 876,45 z
M 874.438,41.9469 L 873.723,41.7145 L 873.088,41.3115 L 872.573,40.7634 L 872.211,40.1044 L 872.024,39.376
 L 872.024,38.624 L 872.211,37.8956 L 872.573,37.2366 L 873.088,36.6885 L 873.723,36.2855 L 874.438,36.0531
 L 875.188,36.0059 L 875.927,36.1468 L 876.607,36.467 L 877.187,36.9464 L 877.629,37.5547 L 877.906,38.2539
 L 878,39 L 877.906,39.7461 L 877.629,40.4453 L 877.187,41.0536 L 876.607,41.533 L 875.927,41.8532
 L 875.188,41.9941 z
M 766.438,41.9469 L 765.723,41.7145 L 765.088,41.3115 L 764.573,40.7634 L 764.211,40.1044 L 764.024,39.376
 L 764.024,38.624 L 764.211,37.8956 L 764.573,37.2366 L 765.088,36.6885 L 765.723,36.2855 L 766.438,36.0531
 L 767.188,36.0059 L 767.927,36.1468 L 768.607,36.467 L 769.187,36.9464 L 769.629,37.5547 L 769.906,38.2539
 L 770,39 L 769.906,39.7461 L 769.629,40.4453 L 769.187,41.0536 L 768.607,41.533 L 767.927,41.8532
 L 767.188,41.9941 z
M 1000.24,44.8429 L 1001.41,44.3815 L 1002.42,43.6448 L 1003.22,42.6791 L 1003.76,41.5451 L 1004,40
 L 1004,29.5 L 916,29.5 L 916,12.5 L 899,12.5 L 899,22.5 L 884,22.5
 L 884,40 L 884.157,41.2435 L 884.618,42.4088 L 885.355,43.4227 L 886.321,44.2216 L 887.455,44.7553
 L 889,45 L 999,45 z
M 997.438,41.9469 L 996.723,41.7145 L 996.088,41.3115 L 995.573,40.7634 L 995.211,40.1044 L 995.024,39.376
 L 995.024,38.624 L 995.211,37.8956 L 995.573,37.2366 L 996.088,36.6885 L 996.723,36.2855 L 997.438,36.0531
 L 998.188,36.0059 L 998.927,36.1468 L 999.607,36.467 L 1000.19,36.9464 L 1000.63,37.5547 L 1000.91,38.2539
 L 1001,39 L 1000.91,39.7461 L 1000.63,40.4453 L 1000.19,41.0536 L 999.607,41.533 L 998.927,41.8532
 L 998.188,41.9941 z
M 889.438,41.9469 L 888.723,41.7145 L 888.088,41.3115 L 887.573,40.7634 L 887.211,40.1044 L 887.024,39.376
 L 887.024,38.624 L 887.211,37.8956 L 887.573,37.2366 L 888.088,36.6885 L 888.723,36.2855 L 889.438,36.0531
 L 890.188,36.0059 L 890.927,36.1468 L 891.607,36.467 L 892.187,36.9464 L 892.629,37.5547 L 892.906,38.2539
 L 893,39 L 892.906,39.7461 L 892.629,40.4453 L 892.187,41.0536 L 891.607,41.533 L 890.927,41.8532
 L 890.188,41.9941 z
" stroke="black" fill="lightgray" stroke-width="0.5"/>
</svg>
