<?xml version="1.0" standalone="no"?>
<!DOCTYPE svg PUBLIC "-//W3C//DTD SVG 1.1//EN" "http://www.w3.org/Graphics/SVG/1.1/DTD/svg11.dtd">
<svg width="8mm" height="8mm" viewBox="-4 -4 8 8" xmlns="http://www.w3.org/2000/svg" version="1.1">
<title>OpenSCAD Model</title>
<path d="
M 1.23605,3.80421 L 2.1433,3.3773 L 2.91586,2.73817 L 3.50522,1.927 L 3.87433,0.994751 L 4,-0
 L 3.87433,-0.994751 L 3.50522,-1.927 L 2.91586,-2.73817 L 2.1433,-3.3773 L 1.23605,-3.80421 L 0.25116,-3.9921
 L -0.749512,-3.92914 L -1.70311,-3.61929 L -2.54968,-3.08205 L -3.23605,-2.35114 L -3.7191,-1.47249 L -3.96844,-0.501328
 L -3.96844,0.501328 L -3.7191,1.47249 L -3.23605,2.35114 L -2.54968,3.08205 L -1.70311,3.61929 L -0.749512,3.92914
 L 0.25116,3.9921 z
M -0.281067,1.47342 L -0.638657,1.35724 L -0.956131,1.15576 L -1.21352,0.881668 L -1.39465,0.552185 L -1.48816,0.187988
 L -1.48816,-0.187988 L -1.39465,-0.552185 L -1.21352,-0.881668 L -0.956131,-1.15576 L -0.638657,-1.35724 L -0.281067,-1.47342
 L 0.0941772,-1.49704 L 0.463516,-1.42657 L 0.803726,-1.26648 L 1.09344,-1.02681 L 1.31445,-0.722626 L 1.45287,-0.373032
 L 1.5,-0 L 1.45287,0.373032 L 1.31445,0.722626 L 1.09344,1.02681 L 0.803726,1.26648 L 0.463516,1.42657
 L 0.0941772,1.49704 z
" stroke="black" fill="lightgray" stroke-width="0.5"/>
</svg>
