  0
SECTION
  2
BLOCKS
  0
ENDSEC
  0
SECTION
  2
ENTITIES
  0
LINE
  8
0
 10
6.74844
 20
-73.3479
 11
7.91376
 21
-72.8865
  0
LINE
  8
0
 10
7.91376
 20
-72.8865
 11
8.92772
 21
-72.1498
  0
LINE
  8
0
 10
8.92772
 20
-72.1498
 11
9.72662
 21
-71.1841
  0
LINE
  8
0
 10
9.72662
 20
-71.1841
 11
10.2603
 21
-70.0501
  0
LINE
  8
0
 10
10.2603
 20
-70.0501
 11
10.505
 21
-68.505
  0
LINE
  8
0
 10
10.505
 20
-68.505
 11
10.505
 21
12.505
  0
LINE
  8
0
 10
10.505
 20
12.505
 11
10.3479
 21
13.7484
  0
LINE
  8
0
 10
10.3479
 20
13.7484
 11
9.88652
 21
14.9138
  0
LINE
  8
0
 10
9.88652
 20
14.9138
 11
9.14983
 21
15.9277
  0
LINE
  8
0
 10
9.14983
 20
15.9277
 11
8.18413
 21
16.7266
  0
LINE
  8
0
 10
8.18413
 20
16.7266
 11
7.05008
 21
17.2603
  0
LINE
  8
0
 10
7.05008
 20
17.2603
 11
5.50499
 21
17.505
  0
LINE
  8
0
 10
5.50499
 20
17.505
 11
-99.3437
 21
17.505
  0
LINE
  8
0
 10
-99.3437
 20
17.505
 11
-97.6808
 21
13.3049
  0
LINE
  8
0
 10
-97.6808
 20
13.3049
 11
-97.5159
 21
12
  0
LINE
  8
0
 10
-97.5159
 20
12
 11
-90
 21
12
  0
LINE
  8
0
 10
-90
 20
12
 11
-90
 21
4
  0
LINE
  8
0
 10
-90
 20
4
 11
-96.5053
 21
4
  0
LINE
  8
0
 10
-96.5053
 20
4
 11
-96.379
 21
3
  0
LINE
  8
0
 10
-96.379
 20
3
 11
-100
 21
3
  0
LINE
  8
0
 10
-100
 20
3
 11
-100
 21
-9
  0
LINE
  8
0
 10
-100
 20
-9
 11
-97.137
 21
-9
  0
LINE
  8
0
 10
-97.137
 20
-9
 11
-97.6808
 21
-13.3049
  0
LINE
  8
0
 10
-97.6808
 20
-13.3049
 11
-102.618
 21
-25.7738
  0
LINE
  8
0
 10
-102.618
 20
-25.7738
 11
-104.505
 21
-28.3716
  0
LINE
  8
0
 10
-104.505
 20
-28.3716
 11
-104.505
 21
-68.505
  0
LINE
  8
0
 10
-104.505
 20
-68.505
 11
-104.348
 21
-69.7484
  0
LINE
  8
0
 10
-104.348
 20
-69.7484
 11
-103.887
 21
-70.9138
  0
LINE
  8
0
 10
-103.887
 20
-70.9138
 11
-103.15
 21
-71.9277
  0
LINE
  8
0
 10
-103.15
 20
-71.9277
 11
-102.184
 21
-72.7266
  0
LINE
  8
0
 10
-102.184
 20
-72.7266
 11
-101.05
 21
-73.2603
  0
LINE
  8
0
 10
-101.05
 20
-73.2603
 11
-99.505
 21
-73.505
  0
LINE
  8
0
 10
-99.505
 20
-73.505
 11
5.50499
 21
-73.505
  0
LINE
  8
0
 10
5.50499
 20
-73.505
 11
6.74844
 21
-73.3479
  0
LINE
  8
0
 10
-32.8466
 20
-7
 11
-32.8466
 21
-4.75
  0
LINE
  8
0
 10
-32.8466
 20
-4.75
 11
-31.6922
 21
-4.75
  0
LINE
  8
0
 10
-31.6922
 20
-4.75
 11
-31.6922
 21
7
  0
LINE
  8
0
 10
-31.6922
 20
7
 11
-28.9428
 21
7
  0
LINE
  8
0
 10
-28.9428
 20
7
 11
-28.9428
 21
5
  0
LINE
  8
0
 10
-28.9428
 20
5
 11
-30
 21
5
  0
LINE
  8
0
 10
-30
 20
5
 11
-30
 21
-5
  0
LINE
  8
0
 10
-30
 20
-5
 11
-28.9428
 21
-5
  0
LINE
  8
0
 10
-28.9428
 20
-5
 11
-28.9428
 21
-7
  0
LINE
  8
0
 10
-28.9428
 20
-7
 11
-32.8466
 21
-7
  0
LINE
  8
0
 10
-53.7303
 20
-66.2787
 11
-57.2263
 21
-64.8946
  0
LINE
  8
0
 10
-57.2263
 20
-64.8946
 11
-60.2682
 21
-62.6845
  0
LINE
  8
0
 10
-60.2682
 20
-62.6845
 11
-62.6649
 21
-59.7874
  0
LINE
  8
0
 10
-62.6649
 20
-59.7874
 11
-64.2658
 21
-56.3853
  0
LINE
  8
0
 10
-64.2658
 20
-56.3853
 11
-64.9704
 21
-52.6918
  0
LINE
  8
0
 10
-64.9704
 20
-52.6918
 11
-64.8482
 21
-50.75
  0
LINE
  8
0
 10
-64.8482
 20
-50.75
 11
-65
 21
-50.75
  0
LINE
  8
0
 10
-65
 20
-50.75
 11
-65
 21
-29.25
  0
LINE
  8
0
 10
-65
 20
-29.25
 11
-35
 21
-29.25
  0
LINE
  8
0
 10
-35
 20
-29.25
 11
-35
 21
-50.75
  0
LINE
  8
0
 10
-35
 20
-50.75
 11
-35.1518
 21
-50.75
  0
LINE
  8
0
 10
-35.1518
 20
-50.75
 11
-35.0296
 21
-52.6918
  0
LINE
  8
0
 10
-35.0296
 20
-52.6918
 11
-35.7341
 21
-56.3853
  0
LINE
  8
0
 10
-35.7341
 20
-56.3853
 11
-37.3351
 21
-59.7874
  0
LINE
  8
0
 10
-37.3351
 20
-59.7874
 11
-39.7318
 21
-62.6845
  0
LINE
  8
0
 10
-39.7318
 20
-62.6845
 11
-42.7737
 21
-64.8946
  0
LINE
  8
0
 10
-42.7737
 20
-64.8946
 11
-46.2697
 21
-66.2787
  0
LINE
  8
0
 10
-46.2697
 20
-66.2787
 11
-50
 21
-66.75
  0
LINE
  8
0
 10
-50
 20
-66.75
 11
-53.7303
 21
-66.2787
  0
ENDSEC
  0
SECTION
  2
OBJECTS
  0
DICTIONARY
  0
ENDSEC
  0
EOF
