solid OpenSCAD_Model
  facet normal 0 1 -0
    outer loop
      vertex 1.67525 -2.90162 97.5
      vertex -1.67525 -2.90162 100
      vertex 1.67525 -2.90162 100
    endloop
  endfacet
  facet normal 0 1 0
    outer loop
      vertex -1.67525 -2.90162 100
      vertex 1.67525 -2.90162 97.5
      vertex -1.67525 -2.90162 97.5
    endloop
  endfacet
  facet normal -0.866026 0.5 0
    outer loop
      vertex 1.67525 -2.90162 97.5
      vertex 3.3505 0 100
      vertex 3.3505 0 97.5
    endloop
  endfacet
  facet normal -0.866026 0.5 0
    outer loop
      vertex 3.3505 0 100
      vertex 1.67525 -2.90162 97.5
      vertex 1.67525 -2.90162 100
    endloop
  endfacet
  facet normal -0.866026 -0.5 0
    outer loop
      vertex 3.3505 0 97.5
      vertex 1.67525 2.90162 100
      vertex 1.67525 2.90162 97.5
    endloop
  endfacet
  facet normal -0.866026 -0.5 0
    outer loop
      vertex 1.67525 2.90162 100
      vertex 3.3505 0 97.5
      vertex 3.3505 0 100
    endloop
  endfacet
  facet normal 0.866026 0.5 0
    outer loop
      vertex -1.67525 -2.90162 100
      vertex -3.3505 0 97.5
      vertex -3.3505 0 100
    endloop
  endfacet
  facet normal 0.866026 0.5 0
    outer loop
      vertex -3.3505 0 97.5
      vertex -1.67525 -2.90162 100
      vertex -1.67525 -2.90162 97.5
    endloop
  endfacet
  facet normal -0 0 1
    outer loop
      vertex 1.48972 0.818981 97.5
      vertex 3.3505 0 97.5
      vertex 1.67525 2.90162 97.5
    endloop
  endfacet
  facet normal 0 0 1
    outer loop
      vertex 3.3505 0 97.5
      vertex 1.64659 0.422772 97.5
      vertex 1.7 0 97.5
    endloop
  endfacet
  facet normal 0 0 1
    outer loop
      vertex 3.3505 0 97.5
      vertex 1.48972 0.818981 97.5
      vertex 1.64659 0.422772 97.5
    endloop
  endfacet
  facet normal 0 0 1
    outer loop
      vertex 1.67525 2.90162 97.5
      vertex 1.23925 1.16373 97.5
      vertex 1.48972 0.818981 97.5
    endloop
  endfacet
  facet normal 0 0 1
    outer loop
      vertex 1.67525 2.90162 97.5
      vertex 0.910905 1.43536 97.5
      vertex 1.23925 1.16373 97.5
    endloop
  endfacet
  facet normal 0 0 1
    outer loop
      vertex 1.67525 2.90162 97.5
      vertex 0.525329 1.6168 97.5
      vertex 0.910905 1.43536 97.5
    endloop
  endfacet
  facet normal 0 0 1
    outer loop
      vertex 1.67525 2.90162 97.5
      vertex 0.106744 1.69664 97.5
      vertex 0.525329 1.6168 97.5
    endloop
  endfacet
  facet normal -0 0 1
    outer loop
      vertex -1.67525 2.90162 97.5
      vertex 0.106744 1.69664 97.5
      vertex 1.67525 2.90162 97.5
    endloop
  endfacet
  facet normal 0 0 1
    outer loop
      vertex 0.106744 1.69664 97.5
      vertex -1.67525 2.90162 97.5
      vertex -0.318548 1.66989 97.5
    endloop
  endfacet
  facet normal 0 0 1
    outer loop
      vertex -0.318548 1.66989 97.5
      vertex -1.67525 2.90162 97.5
      vertex -0.723825 1.53821 97.5
    endloop
  endfacet
  facet normal 0 0 1
    outer loop
      vertex -1.67525 2.90162 97.5
      vertex -1.08362 1.30987 97.5
      vertex -0.723825 1.53821 97.5
    endloop
  endfacet
  facet normal 0 0 1
    outer loop
      vertex -1.67525 2.90162 97.5
      vertex -1.37533 0.999234 97.5
      vertex -1.08362 1.30987 97.5
    endloop
  endfacet
  facet normal 0 0 1
    outer loop
      vertex -3.3505 0 97.5
      vertex -1.37533 0.999234 97.5
      vertex -1.67525 2.90162 97.5
    endloop
  endfacet
  facet normal 0 0 1
    outer loop
      vertex -1.37533 0.999234 97.5
      vertex -3.3505 0 97.5
      vertex -1.58062 0.625812 97.5
    endloop
  endfacet
  facet normal 0 0 1
    outer loop
      vertex -1.68659 0.213066 97.5
      vertex -3.3505 0 97.5
      vertex -1.68659 -0.213066 97.5
    endloop
  endfacet
  facet normal 0 0 1
    outer loop
      vertex -1.58062 0.625812 97.5
      vertex -3.3505 0 97.5
      vertex -1.68659 0.213066 97.5
    endloop
  endfacet
  facet normal 0 0 1
    outer loop
      vertex 1.64659 -0.422772 97.5
      vertex 3.3505 0 97.5
      vertex 1.7 0 97.5
    endloop
  endfacet
  facet normal 0 0 1
    outer loop
      vertex 1.48972 -0.818981 97.5
      vertex 3.3505 0 97.5
      vertex 1.64659 -0.422772 97.5
    endloop
  endfacet
  facet normal 0 0 1
    outer loop
      vertex 3.3505 0 97.5
      vertex 1.48972 -0.818981 97.5
      vertex 1.67525 -2.90162 97.5
    endloop
  endfacet
  facet normal -0 0 1
    outer loop
      vertex 1.23925 -1.16373 97.5
      vertex 1.67525 -2.90162 97.5
      vertex 1.48972 -0.818981 97.5
    endloop
  endfacet
  facet normal -0 0 1
    outer loop
      vertex 0.910905 -1.43536 97.5
      vertex 1.67525 -2.90162 97.5
      vertex 1.23925 -1.16373 97.5
    endloop
  endfacet
  facet normal -0 0 1
    outer loop
      vertex 0.525329 -1.6168 97.5
      vertex 1.67525 -2.90162 97.5
      vertex 0.910905 -1.43536 97.5
    endloop
  endfacet
  facet normal -0 0 1
    outer loop
      vertex 0.106744 -1.69664 97.5
      vertex 1.67525 -2.90162 97.5
      vertex 0.525329 -1.6168 97.5
    endloop
  endfacet
  facet normal 0 0 1
    outer loop
      vertex -1.67525 -2.90162 97.5
      vertex 0.106744 -1.69664 97.5
      vertex -0.318548 -1.66989 97.5
    endloop
  endfacet
  facet normal 0 0 1
    outer loop
      vertex -1.67525 -2.90162 97.5
      vertex -0.318548 -1.66989 97.5
      vertex -0.723825 -1.53821 97.5
    endloop
  endfacet
  facet normal 0 0 1
    outer loop
      vertex 0.106744 -1.69664 97.5
      vertex -1.67525 -2.90162 97.5
      vertex 1.67525 -2.90162 97.5
    endloop
  endfacet
  facet normal 0 0 1
    outer loop
      vertex -1.08362 -1.30987 97.5
      vertex -1.67525 -2.90162 97.5
      vertex -0.723825 -1.53821 97.5
    endloop
  endfacet
  facet normal 0 0 1
    outer loop
      vertex -1.37533 -0.999234 97.5
      vertex -1.67525 -2.90162 97.5
      vertex -1.08362 -1.30987 97.5
    endloop
  endfacet
  facet normal 0 0 1
    outer loop
      vertex -3.3505 0 97.5
      vertex -1.37533 -0.999234 97.5
      vertex -1.58062 -0.625812 97.5
    endloop
  endfacet
  facet normal 0 0 1
    outer loop
      vertex -3.3505 0 97.5
      vertex -1.58062 -0.625812 97.5
      vertex -1.68659 -0.213066 97.5
    endloop
  endfacet
  facet normal 0 0 1
    outer loop
      vertex -1.37533 -0.999234 97.5
      vertex -3.3505 0 97.5
      vertex -1.67525 -2.90162 97.5
    endloop
  endfacet
  facet normal 0 0 1
    outer loop
      vertex 3.3505 0 100
      vertex 4.1 0 100
      vertex 3.97119 1.01963 100
    endloop
  endfacet
  facet normal 0 0 1
    outer loop
      vertex 3.3505 0 100
      vertex 3.97119 1.01963 100
      vertex 3.59286 1.97519 100
    endloop
  endfacet
  facet normal 0 0 1
    outer loop
      vertex 4.1 0 100
      vertex 3.3505 0 100
      vertex 3.97119 -1.01963 100
    endloop
  endfacet
  facet normal 0 0 1
    outer loop
      vertex 3.97119 -1.01963 100
      vertex 3.3505 0 100
      vertex 3.59286 -1.97519 100
    endloop
  endfacet
  facet normal 0 0 1
    outer loop
      vertex 1.67525 2.90162 100
      vertex 3.59286 1.97519 100
      vertex 2.98877 2.80664 100
    endloop
  endfacet
  facet normal -0 0 1
    outer loop
      vertex 1.67525 2.90162 100
      vertex 2.98877 2.80664 100
      vertex 2.19689 3.46174 100
    endloop
  endfacet
  facet normal 0 0 1
    outer loop
      vertex 3.59286 1.97519 100
      vertex 1.67525 2.90162 100
      vertex 3.3505 0 100
    endloop
  endfacet
  facet normal 0 0 1
    outer loop
      vertex 1.26697 3.89933 100
      vertex 1.67525 2.90162 100
      vertex 2.19689 3.46174 100
    endloop
  endfacet
  facet normal 0 0 1
    outer loop
      vertex 0.257441 4.09191 100
      vertex 1.67525 2.90162 100
      vertex 1.26697 3.89933 100
    endloop
  endfacet
  facet normal 0 0 1
    outer loop
      vertex -1.67525 2.90162 100
      vertex 0.257441 4.09191 100
      vertex -0.768263 4.02738 100
    endloop
  endfacet
  facet normal 0 0 1
    outer loop
      vertex 0.257441 4.09191 100
      vertex -1.67525 2.90162 100
      vertex 1.67525 2.90162 100
    endloop
  endfacet
  facet normal -0 0 1
    outer loop
      vertex -1.74569 3.70979 100
      vertex -1.67525 2.90162 100
      vertex -0.768263 4.02738 100
    endloop
  endfacet
  facet normal -0 0 1
    outer loop
      vertex -2.61344 3.1591 100
      vertex -1.67525 2.90162 100
      vertex -1.74569 3.70979 100
    endloop
  endfacet
  facet normal 0 0 1
    outer loop
      vertex -3.31697 2.40992 100
      vertex -1.67525 2.90162 100
      vertex -2.61344 3.1591 100
    endloop
  endfacet
  facet normal -0 0 1
    outer loop
      vertex -3.31697 2.40992 100
      vertex -3.3505 0 100
      vertex -1.67525 2.90162 100
    endloop
  endfacet
  facet normal 0 -0 1
    outer loop
      vertex -3.3505 0 100
      vertex -3.31697 2.40992 100
      vertex -3.81208 1.50931 100
    endloop
  endfacet
  facet normal 0 0 1
    outer loop
      vertex 1.67525 -2.90162 100
      vertex 3.59286 -1.97519 100
      vertex 3.3505 0 100
    endloop
  endfacet
  facet normal 0 0 1
    outer loop
      vertex 3.59286 -1.97519 100
      vertex 1.67525 -2.90162 100
      vertex 2.98877 -2.80664 100
    endloop
  endfacet
  facet normal 0 0 1
    outer loop
      vertex 2.98877 -2.80664 100
      vertex 1.67525 -2.90162 100
      vertex 2.19689 -3.46174 100
    endloop
  endfacet
  facet normal 0 0 1
    outer loop
      vertex 1.67525 -2.90162 100
      vertex 1.26697 -3.89933 100
      vertex 2.19689 -3.46174 100
    endloop
  endfacet
  facet normal 0 0 1
    outer loop
      vertex 1.67525 -2.90162 100
      vertex 0.257441 -4.09191 100
      vertex 1.26697 -3.89933 100
    endloop
  endfacet
  facet normal -0 0 1
    outer loop
      vertex -1.67525 -2.90162 100
      vertex 0.257441 -4.09191 100
      vertex 1.67525 -2.90162 100
    endloop
  endfacet
  facet normal 0 0 1
    outer loop
      vertex 0.257441 -4.09191 100
      vertex -1.67525 -2.90162 100
      vertex -0.768263 -4.02738 100
    endloop
  endfacet
  facet normal 0 0 1
    outer loop
      vertex -1.67525 -2.90162 100
      vertex -1.74569 -3.70979 100
      vertex -0.768263 -4.02738 100
    endloop
  endfacet
  facet normal 0 0 1
    outer loop
      vertex -1.67525 -2.90162 100
      vertex -2.61344 -3.1591 100
      vertex -1.74569 -3.70979 100
    endloop
  endfacet
  facet normal 0 0 1
    outer loop
      vertex -1.67525 -2.90162 100
      vertex -3.31697 -2.40992 100
      vertex -2.61344 -3.1591 100
    endloop
  endfacet
  facet normal 0 0 1
    outer loop
      vertex -3.3505 0 100
      vertex -3.31697 -2.40992 100
      vertex -1.67525 -2.90162 100
    endloop
  endfacet
  facet normal -0 0 1
    outer loop
      vertex -4.06767 0.513865 100
      vertex -3.3505 0 100
      vertex -3.81208 1.50931 100
    endloop
  endfacet
  facet normal 0 0 1
    outer loop
      vertex -3.3505 0 100
      vertex -3.81208 -1.50931 100
      vertex -3.31697 -2.40992 100
    endloop
  endfacet
  facet normal 0 0 1
    outer loop
      vertex -4.06767 -0.513865 100
      vertex -3.3505 0 100
      vertex -4.06767 0.513865 100
    endloop
  endfacet
  facet normal 0 0 1
    outer loop
      vertex -3.3505 0 100
      vertex -4.06767 -0.513865 100
      vertex -3.81208 -1.50931 100
    endloop
  endfacet
  facet normal 0.866026 -0.5 0
    outer loop
      vertex -3.3505 0 100
      vertex -1.67525 2.90162 97.5
      vertex -1.67525 2.90162 100
    endloop
  endfacet
  facet normal 0.866026 -0.5 0
    outer loop
      vertex -1.67525 2.90162 97.5
      vertex -3.3505 0 100
      vertex -3.3505 0 97.5
    endloop
  endfacet
  facet normal 0 -1 0
    outer loop
      vertex -1.67525 2.90162 97.5
      vertex 1.67525 2.90162 100
      vertex -1.67525 2.90162 100
    endloop
  endfacet
  facet normal 0 -1 -0
    outer loop
      vertex 1.67525 2.90162 100
      vertex -1.67525 2.90162 97.5
      vertex 1.67525 2.90162 97.5
    endloop
  endfacet
  facet normal -0.992114 -0.125337 0
    outer loop
      vertex 1.7 0 80
      vertex 1.64659 0.422772 97.5
      vertex 1.64659 0.422772 80
    endloop
  endfacet
  facet normal -0.992114 -0.125337 0
    outer loop
      vertex 1.64659 0.422772 97.5
      vertex 1.7 0 80
      vertex 1.7 0 97.5
    endloop
  endfacet
  facet normal -0.809022 0.587778 0
    outer loop
      vertex 1.23925 -1.16373 80
      vertex 1.48972 -0.818981 97.5
      vertex 1.48972 -0.818981 80
    endloop
  endfacet
  facet normal -0.809022 0.587778 0
    outer loop
      vertex 1.48972 -0.818981 97.5
      vertex 1.23925 -1.16373 80
      vertex 1.23925 -1.16373 97.5
    endloop
  endfacet
  facet normal -0.929777 0.368124 0
    outer loop
      vertex 1.48972 -0.818981 80
      vertex 1.64659 -0.422772 97.5
      vertex 1.64659 -0.422772 80
    endloop
  endfacet
  facet normal -0.929777 0.368124 0
    outer loop
      vertex 1.64659 -0.422772 97.5
      vertex 1.48972 -0.818981 80
      vertex 1.48972 -0.818981 97.5
    endloop
  endfacet
  facet normal -0.992114 0.125337 0
    outer loop
      vertex 1.64659 -0.422772 80
      vertex 1.7 0 97.5
      vertex 1.7 0 80
    endloop
  endfacet
  facet normal -0.992114 0.125337 0
    outer loop
      vertex 1.7 0 97.5
      vertex 1.64659 -0.422772 80
      vertex 1.64659 -0.422772 97.5
    endloop
  endfacet
  facet normal 0.309012 0.951058 -0
    outer loop
      vertex -0.318548 -1.66989 80
      vertex -0.723825 -1.53821 97.5
      vertex -0.318548 -1.66989 97.5
    endloop
  endfacet
  facet normal 0.309012 0.951058 0
    outer loop
      vertex -0.723825 -1.53821 97.5
      vertex -0.318548 -1.66989 80
      vertex -0.723825 -1.53821 80
    endloop
  endfacet
  facet normal -0.637423 0.770514 0
    outer loop
      vertex 1.23925 -1.16373 80
      vertex 0.910905 -1.43536 97.5
      vertex 1.23925 -1.16373 97.5
    endloop
  endfacet
  facet normal -0.637423 0.770514 0
    outer loop
      vertex 0.910905 -1.43536 97.5
      vertex 1.23925 -1.16373 80
      vertex 0.910905 -1.43536 80
    endloop
  endfacet
  facet normal 0.876307 0.481753 0
    outer loop
      vertex -1.37533 -0.999234 97.5
      vertex -1.58062 -0.625812 80
      vertex -1.58062 -0.625812 97.5
    endloop
  endfacet
  facet normal 0.876307 0.481753 0
    outer loop
      vertex -1.58062 -0.625812 80
      vertex -1.37533 -0.999234 97.5
      vertex -1.37533 -0.999234 80
    endloop
  endfacet
  facet normal -0.18736 0.982291 0
    outer loop
      vertex 0.525329 -1.6168 80
      vertex 0.106744 -1.69664 97.5
      vertex 0.525329 -1.6168 97.5
    endloop
  endfacet
  facet normal -0.18736 0.982291 0
    outer loop
      vertex 0.106744 -1.69664 97.5
      vertex 0.525329 -1.6168 80
      vertex 0.106744 -1.69664 80
    endloop
  endfacet
  facet normal 0.968586 -0.248679 0
    outer loop
      vertex -1.68659 0.213066 97.5
      vertex -1.58062 0.625812 80
      vertex -1.58062 0.625812 97.5
    endloop
  endfacet
  facet normal 0.968586 -0.248679 0
    outer loop
      vertex -1.58062 0.625812 80
      vertex -1.68659 0.213066 97.5
      vertex -1.68659 0.213066 80
    endloop
  endfacet
  facet normal 0.535839 -0.84432 0
    outer loop
      vertex -1.08362 1.30987 80
      vertex -0.723825 1.53821 97.5
      vertex -1.08362 1.30987 97.5
    endloop
  endfacet
  facet normal 0.535839 -0.84432 0
    outer loop
      vertex -0.723825 1.53821 97.5
      vertex -1.08362 1.30987 80
      vertex -0.723825 1.53821 80
    endloop
  endfacet
  facet normal -0.929777 -0.368124 0
    outer loop
      vertex 1.64659 0.422772 80
      vertex 1.48972 0.818981 97.5
      vertex 1.48972 0.818981 80
    endloop
  endfacet
  facet normal -0.929777 -0.368124 0
    outer loop
      vertex 1.48972 0.818981 97.5
      vertex 1.64659 0.422772 80
      vertex 1.64659 0.422772 97.5
    endloop
  endfacet
  facet normal 0.968586 0.248679 0
    outer loop
      vertex -1.58062 -0.625812 97.5
      vertex -1.68659 -0.213066 80
      vertex -1.68659 -0.213066 97.5
    endloop
  endfacet
  facet normal 0.968586 0.248679 0
    outer loop
      vertex -1.68659 -0.213066 80
      vertex -1.58062 -0.625812 97.5
      vertex -1.58062 -0.625812 80
    endloop
  endfacet
  facet normal -0.425783 0.904826 0
    outer loop
      vertex 0.910905 -1.43536 80
      vertex 0.525329 -1.6168 97.5
      vertex 0.910905 -1.43536 97.5
    endloop
  endfacet
  facet normal -0.425783 0.904826 0
    outer loop
      vertex 0.525329 -1.6168 97.5
      vertex 0.910905 -1.43536 80
      vertex 0.525329 -1.6168 80
    endloop
  endfacet
  facet normal 0.0627739 0.998028 -0
    outer loop
      vertex 0.106744 -1.69664 80
      vertex -0.318548 -1.66989 97.5
      vertex 0.106744 -1.69664 97.5
    endloop
  endfacet
  facet normal 0.0627739 0.998028 0
    outer loop
      vertex -0.318548 -1.66989 97.5
      vertex 0.106744 -1.69664 80
      vertex -0.318548 -1.66989 80
    endloop
  endfacet
  facet normal 0.876307 -0.481753 0
    outer loop
      vertex -1.58062 0.625812 97.5
      vertex -1.37533 0.999234 80
      vertex -1.37533 0.999234 97.5
    endloop
  endfacet
  facet normal 0.876307 -0.481753 0
    outer loop
      vertex -1.37533 0.999234 80
      vertex -1.58062 0.625812 97.5
      vertex -1.58062 0.625812 80
    endloop
  endfacet
  facet normal 1 -0 0
    outer loop
      vertex -1.68659 -0.213066 97.5
      vertex -1.68659 0.213066 80
      vertex -1.68659 0.213066 97.5
    endloop
  endfacet
  facet normal 1 0 0
    outer loop
      vertex -1.68659 0.213066 80
      vertex -1.68659 -0.213066 97.5
      vertex -1.68659 -0.213066 80
    endloop
  endfacet
  facet normal 0.535839 0.84432 -0
    outer loop
      vertex -0.723825 -1.53821 80
      vertex -1.08362 -1.30987 97.5
      vertex -0.723825 -1.53821 97.5
    endloop
  endfacet
  facet normal 0.535839 0.84432 0
    outer loop
      vertex -1.08362 -1.30987 97.5
      vertex -0.723825 -1.53821 80
      vertex -1.08362 -1.30987 80
    endloop
  endfacet
  facet normal 0.728965 -0.684551 0
    outer loop
      vertex -1.37533 0.999234 97.5
      vertex -1.08362 1.30987 80
      vertex -1.08362 1.30987 97.5
    endloop
  endfacet
  facet normal 0.728965 -0.684551 0
    outer loop
      vertex -1.08362 1.30987 80
      vertex -1.37533 0.999234 97.5
      vertex -1.37533 0.999234 80
    endloop
  endfacet
  facet normal 0.309012 -0.951058 0
    outer loop
      vertex -0.723825 1.53821 80
      vertex -0.318548 1.66989 97.5
      vertex -0.723825 1.53821 97.5
    endloop
  endfacet
  facet normal 0.309012 -0.951058 0
    outer loop
      vertex -0.318548 1.66989 97.5
      vertex -0.723825 1.53821 80
      vertex -0.318548 1.66989 80
    endloop
  endfacet
  facet normal -0.809022 -0.587778 0
    outer loop
      vertex 1.48972 0.818981 80
      vertex 1.23925 1.16373 97.5
      vertex 1.23925 1.16373 80
    endloop
  endfacet
  facet normal -0.809022 -0.587778 0
    outer loop
      vertex 1.23925 1.16373 97.5
      vertex 1.48972 0.818981 80
      vertex 1.48972 0.818981 97.5
    endloop
  endfacet
  facet normal -0.18736 -0.982291 0
    outer loop
      vertex 0.106744 1.69664 80
      vertex 0.525329 1.6168 97.5
      vertex 0.106744 1.69664 97.5
    endloop
  endfacet
  facet normal -0.18736 -0.982291 -0
    outer loop
      vertex 0.525329 1.6168 97.5
      vertex 0.106744 1.69664 80
      vertex 0.525329 1.6168 80
    endloop
  endfacet
  facet normal 0.728965 0.684551 0
    outer loop
      vertex -1.08362 -1.30987 97.5
      vertex -1.37533 -0.999234 80
      vertex -1.37533 -0.999234 97.5
    endloop
  endfacet
  facet normal 0.728965 0.684551 0
    outer loop
      vertex -1.37533 -0.999234 80
      vertex -1.08362 -1.30987 97.5
      vertex -1.08362 -1.30987 80
    endloop
  endfacet
  facet normal 0.0627739 -0.998028 0
    outer loop
      vertex -0.318548 1.66989 80
      vertex 0.106744 1.69664 97.5
      vertex -0.318548 1.66989 97.5
    endloop
  endfacet
  facet normal 0.0627739 -0.998028 0
    outer loop
      vertex 0.106744 1.69664 97.5
      vertex -0.318548 1.66989 80
      vertex 0.106744 1.69664 80
    endloop
  endfacet
  facet normal -0.425783 -0.904826 0
    outer loop
      vertex 0.525329 1.6168 80
      vertex 0.910905 1.43536 97.5
      vertex 0.525329 1.6168 97.5
    endloop
  endfacet
  facet normal -0.425783 -0.904826 -0
    outer loop
      vertex 0.910905 1.43536 97.5
      vertex 0.525329 1.6168 80
      vertex 0.910905 1.43536 80
    endloop
  endfacet
  facet normal -0.637423 -0.770514 0
    outer loop
      vertex 0.910905 1.43536 80
      vertex 1.23925 1.16373 97.5
      vertex 0.910905 1.43536 97.5
    endloop
  endfacet
  facet normal -0.637423 -0.770514 -0
    outer loop
      vertex 1.23925 1.16373 97.5
      vertex 0.910905 1.43536 80
      vertex 1.23925 1.16373 80
    endloop
  endfacet
  facet normal 0.992115 -0.125334 0
    outer loop
      vertex 3.97119 -1.01963 100
      vertex 4.1 0 80
      vertex 4.1 0 100
    endloop
  endfacet
  facet normal 0.992115 -0.125334 0
    outer loop
      vertex 4.1 0 80
      vertex 3.97119 -1.01963 100
      vertex 3.97119 -1.01963 80
    endloop
  endfacet
  facet normal 0.992115 0.125334 0
    outer loop
      vertex 4.1 0 100
      vertex 3.97119 1.01963 80
      vertex 3.97119 1.01963 100
    endloop
  endfacet
  facet normal 0.992115 0.125334 0
    outer loop
      vertex 3.97119 1.01963 80
      vertex 4.1 0 100
      vertex 4.1 0 80
    endloop
  endfacet
  facet normal -1 0 0
    outer loop
      vertex -4.06767 -0.513865 80
      vertex -4.06767 0.513865 100
      vertex -4.06767 0.513865 80
    endloop
  endfacet
  facet normal -1 -0 0
    outer loop
      vertex -4.06767 0.513865 100
      vertex -4.06767 -0.513865 80
      vertex -4.06767 -0.513865 100
    endloop
  endfacet
  facet normal 0.187383 -0.982287 0
    outer loop
      vertex 0.257441 -4.09191 80
      vertex 1.26697 -3.89933 100
      vertex 0.257441 -4.09191 100
    endloop
  endfacet
  facet normal 0.187383 -0.982287 0
    outer loop
      vertex 1.26697 -3.89933 100
      vertex 0.257441 -4.09191 80
      vertex 1.26697 -3.89933 80
    endloop
  endfacet
  facet normal -0.728967 0.684549 0
    outer loop
      vertex -3.31697 2.40992 80
      vertex -2.61344 3.1591 100
      vertex -2.61344 3.1591 80
    endloop
  endfacet
  facet normal -0.728967 0.684549 0
    outer loop
      vertex -2.61344 3.1591 100
      vertex -3.31697 2.40992 80
      vertex -3.31697 2.40992 100
    endloop
  endfacet
  facet normal -0.0627887 0.998027 0
    outer loop
      vertex 0.257441 4.09191 80
      vertex -0.768263 4.02738 100
      vertex 0.257441 4.09191 100
    endloop
  endfacet
  facet normal -0.0627887 0.998027 0
    outer loop
      vertex -0.768263 4.02738 100
      vertex 0.257441 4.09191 80
      vertex -0.768263 4.02738 80
    endloop
  endfacet
  facet normal -0.728967 -0.684549 0
    outer loop
      vertex -2.61344 -3.1591 80
      vertex -3.31697 -2.40992 100
      vertex -3.31697 -2.40992 80
    endloop
  endfacet
  facet normal -0.728967 -0.684549 0
    outer loop
      vertex -3.31697 -2.40992 100
      vertex -2.61344 -3.1591 80
      vertex -2.61344 -3.1591 100
    endloop
  endfacet
  facet normal -0.0627887 -0.998027 0
    outer loop
      vertex -0.768263 -4.02738 80
      vertex 0.257441 -4.09191 100
      vertex -0.768263 -4.02738 100
    endloop
  endfacet
  facet normal -0.0627887 -0.998027 -0
    outer loop
      vertex 0.257441 -4.09191 100
      vertex -0.768263 -4.02738 80
      vertex 0.257441 -4.09191 80
    endloop
  endfacet
  facet normal 0.425782 -0.904826 0
    outer loop
      vertex 1.26697 -3.89933 80
      vertex 2.19689 -3.46174 100
      vertex 1.26697 -3.89933 100
    endloop
  endfacet
  facet normal 0.425782 -0.904826 0
    outer loop
      vertex 2.19689 -3.46174 100
      vertex 1.26697 -3.89933 80
      vertex 2.19689 -3.46174 80
    endloop
  endfacet
  facet normal 0 0 -1
    outer loop
      vertex 1.7 0 80
      vertex 4.1 0 80
      vertex 3.97119 -1.01963 80
    endloop
  endfacet
  facet normal 0 0 -1
    outer loop
      vertex 1.64659 -0.422772 80
      vertex 3.97119 -1.01963 80
      vertex 3.59286 -1.97519 80
    endloop
  endfacet
  facet normal 0 0 -1
    outer loop
      vertex 4.1 0 80
      vertex 1.7 0 80
      vertex 3.97119 1.01963 80
    endloop
  endfacet
  facet normal 0 0 -1
    outer loop
      vertex 1.48972 -0.818981 80
      vertex 3.59286 -1.97519 80
      vertex 2.98877 -2.80664 80
    endloop
  endfacet
  facet normal 0 0 -1
    outer loop
      vertex 1.64659 0.422772 80
      vertex 3.97119 1.01963 80
      vertex 1.7 0 80
    endloop
  endfacet
  facet normal 0 0 -1
    outer loop
      vertex 1.23925 -1.16373 80
      vertex 2.98877 -2.80664 80
      vertex 2.19689 -3.46174 80
    endloop
  endfacet
  facet normal -0 0 -1
    outer loop
      vertex 3.97119 1.01963 80
      vertex 1.64659 0.422772 80
      vertex 3.59286 1.97519 80
    endloop
  endfacet
  facet normal 0 0 -1
    outer loop
      vertex 1.48972 0.818981 80
      vertex 3.59286 1.97519 80
      vertex 1.64659 0.422772 80
    endloop
  endfacet
  facet normal 0 0 -1
    outer loop
      vertex 3.97119 -1.01963 80
      vertex 1.64659 -0.422772 80
      vertex 1.7 0 80
    endloop
  endfacet
  facet normal 0 0 -1
    outer loop
      vertex 3.59286 -1.97519 80
      vertex 1.48972 -0.818981 80
      vertex 1.64659 -0.422772 80
    endloop
  endfacet
  facet normal 0 0 -1
    outer loop
      vertex 0.910905 -1.43536 80
      vertex 2.19689 -3.46174 80
      vertex 1.26697 -3.89933 80
    endloop
  endfacet
  facet normal 0 0 -1
    outer loop
      vertex 2.98877 -2.80664 80
      vertex 1.23925 -1.16373 80
      vertex 1.48972 -0.818981 80
    endloop
  endfacet
  facet normal 0 0 -1
    outer loop
      vertex 2.19689 -3.46174 80
      vertex 0.910905 -1.43536 80
      vertex 1.23925 -1.16373 80
    endloop
  endfacet
  facet normal 0 0 -1
    outer loop
      vertex 1.26697 -3.89933 80
      vertex 0.525329 -1.6168 80
      vertex 0.910905 -1.43536 80
    endloop
  endfacet
  facet normal 0 0 -1
    outer loop
      vertex 0.257441 -4.09191 80
      vertex 0.525329 -1.6168 80
      vertex 1.26697 -3.89933 80
    endloop
  endfacet
  facet normal 0 0 -1
    outer loop
      vertex 0.257441 -4.09191 80
      vertex 0.106744 -1.69664 80
      vertex 0.525329 -1.6168 80
    endloop
  endfacet
  facet normal 0 0 -1
    outer loop
      vertex 0.257441 -4.09191 80
      vertex -0.318548 -1.66989 80
      vertex 0.106744 -1.69664 80
    endloop
  endfacet
  facet normal 0 0 -1
    outer loop
      vertex -0.768263 -4.02738 80
      vertex -0.318548 -1.66989 80
      vertex 0.257441 -4.09191 80
    endloop
  endfacet
  facet normal -0 0 -1
    outer loop
      vertex -0.318548 -1.66989 80
      vertex -0.768263 -4.02738 80
      vertex -0.723825 -1.53821 80
    endloop
  endfacet
  facet normal 0 0 -1
    outer loop
      vertex -1.74569 -3.70979 80
      vertex -0.723825 -1.53821 80
      vertex -0.768263 -4.02738 80
    endloop
  endfacet
  facet normal -0 0 -1
    outer loop
      vertex -0.723825 -1.53821 80
      vertex -1.74569 -3.70979 80
      vertex -1.08362 -1.30987 80
    endloop
  endfacet
  facet normal 0 0 -1
    outer loop
      vertex -2.61344 -3.1591 80
      vertex -1.08362 -1.30987 80
      vertex -1.74569 -3.70979 80
    endloop
  endfacet
  facet normal -0 0 -1
    outer loop
      vertex -1.08362 -1.30987 80
      vertex -2.61344 -3.1591 80
      vertex -1.37533 -0.999234 80
    endloop
  endfacet
  facet normal -0 0 -1
    outer loop
      vertex -1.37533 -0.999234 80
      vertex -3.31697 -2.40992 80
      vertex -1.58062 -0.625812 80
    endloop
  endfacet
  facet normal 0 0 -1
    outer loop
      vertex -3.31697 -2.40992 80
      vertex -1.37533 -0.999234 80
      vertex -2.61344 -3.1591 80
    endloop
  endfacet
  facet normal -0 0 -1
    outer loop
      vertex 3.59286 1.97519 80
      vertex 1.48972 0.818981 80
      vertex 2.98877 2.80664 80
    endloop
  endfacet
  facet normal 0 0 -1
    outer loop
      vertex 1.23925 1.16373 80
      vertex 2.98877 2.80664 80
      vertex 1.48972 0.818981 80
    endloop
  endfacet
  facet normal -0 0 -1
    outer loop
      vertex 2.98877 2.80664 80
      vertex 1.23925 1.16373 80
      vertex 2.19689 3.46174 80
    endloop
  endfacet
  facet normal 0 0 -1
    outer loop
      vertex 0.910905 1.43536 80
      vertex 2.19689 3.46174 80
      vertex 1.23925 1.16373 80
    endloop
  endfacet
  facet normal -0 0 -1
    outer loop
      vertex 2.19689 3.46174 80
      vertex 0.910905 1.43536 80
      vertex 1.26697 3.89933 80
    endloop
  endfacet
  facet normal 0 0 -1
    outer loop
      vertex 0.525329 1.6168 80
      vertex 1.26697 3.89933 80
      vertex 0.910905 1.43536 80
    endloop
  endfacet
  facet normal 0 0 -1
    outer loop
      vertex 0.525329 1.6168 80
      vertex 0.257441 4.09191 80
      vertex 1.26697 3.89933 80
    endloop
  endfacet
  facet normal 0 0 -1
    outer loop
      vertex 0.106744 1.69664 80
      vertex 0.257441 4.09191 80
      vertex 0.525329 1.6168 80
    endloop
  endfacet
  facet normal 0 0 -1
    outer loop
      vertex -0.318548 1.66989 80
      vertex 0.257441 4.09191 80
      vertex 0.106744 1.69664 80
    endloop
  endfacet
  facet normal 0 0 -1
    outer loop
      vertex -0.768263 4.02738 80
      vertex -0.318548 1.66989 80
      vertex -0.723825 1.53821 80
    endloop
  endfacet
  facet normal 0 0 -1
    outer loop
      vertex -0.318548 1.66989 80
      vertex -0.768263 4.02738 80
      vertex 0.257441 4.09191 80
    endloop
  endfacet
  facet normal 0 0 -1
    outer loop
      vertex -1.74569 3.70979 80
      vertex -0.723825 1.53821 80
      vertex -1.08362 1.30987 80
    endloop
  endfacet
  facet normal 0 0 -1
    outer loop
      vertex -2.61344 3.1591 80
      vertex -1.08362 1.30987 80
      vertex -1.37533 0.999234 80
    endloop
  endfacet
  facet normal 0 0 -1
    outer loop
      vertex -3.31697 2.40992 80
      vertex -1.37533 0.999234 80
      vertex -1.58062 0.625812 80
    endloop
  endfacet
  facet normal 0 0 -1
    outer loop
      vertex -3.81208 1.50931 80
      vertex -1.58062 0.625812 80
      vertex -1.68659 0.213066 80
    endloop
  endfacet
  facet normal 0 0 -1
    outer loop
      vertex -0.723825 1.53821 80
      vertex -1.74569 3.70979 80
      vertex -0.768263 4.02738 80
    endloop
  endfacet
  facet normal 0 0 -1
    outer loop
      vertex -3.81208 -1.50931 80
      vertex -1.58062 -0.625812 80
      vertex -3.31697 -2.40992 80
    endloop
  endfacet
  facet normal -0 0 -1
    outer loop
      vertex -1.58062 -0.625812 80
      vertex -3.81208 -1.50931 80
      vertex -1.68659 -0.213066 80
    endloop
  endfacet
  facet normal 0 0 -1
    outer loop
      vertex -1.08362 1.30987 80
      vertex -2.61344 3.1591 80
      vertex -1.74569 3.70979 80
    endloop
  endfacet
  facet normal 0 0 -1
    outer loop
      vertex -4.06767 -0.513865 80
      vertex -1.68659 -0.213066 80
      vertex -3.81208 -1.50931 80
    endloop
  endfacet
  facet normal 0 0 -1
    outer loop
      vertex -1.37533 0.999234 80
      vertex -3.31697 2.40992 80
      vertex -2.61344 3.1591 80
    endloop
  endfacet
  facet normal -0 0 -1
    outer loop
      vertex -1.68659 -0.213066 80
      vertex -4.06767 -0.513865 80
      vertex -1.68659 0.213066 80
    endloop
  endfacet
  facet normal 0 0 -1
    outer loop
      vertex -1.58062 0.625812 80
      vertex -3.81208 1.50931 80
      vertex -3.31697 2.40992 80
    endloop
  endfacet
  facet normal 0 0 -1
    outer loop
      vertex -4.06767 0.513865 80
      vertex -1.68659 0.213066 80
      vertex -4.06767 -0.513865 80
    endloop
  endfacet
  facet normal 0 0 -1
    outer loop
      vertex -1.68659 0.213066 80
      vertex -4.06767 0.513865 80
      vertex -3.81208 1.50931 80
    endloop
  endfacet
  facet normal 0.809014 -0.587789 0
    outer loop
      vertex 2.98877 -2.80664 100
      vertex 3.59286 -1.97519 80
      vertex 3.59286 -1.97519 100
    endloop
  endfacet
  facet normal 0.809014 -0.587789 0
    outer loop
      vertex 3.59286 -1.97519 80
      vertex 2.98877 -2.80664 100
      vertex 2.98877 -2.80664 80
    endloop
  endfacet
  facet normal 0.637424 -0.770513 0
    outer loop
      vertex 2.19689 -3.46174 80
      vertex 2.98877 -2.80664 100
      vertex 2.19689 -3.46174 100
    endloop
  endfacet
  facet normal 0.637424 -0.770513 0
    outer loop
      vertex 2.98877 -2.80664 100
      vertex 2.19689 -3.46174 80
      vertex 2.98877 -2.80664 80
    endloop
  endfacet
  facet normal 0.929777 -0.368122 0
    outer loop
      vertex 3.59286 -1.97519 100
      vertex 3.97119 -1.01963 80
      vertex 3.97119 -1.01963 100
    endloop
  endfacet
  facet normal 0.929777 -0.368122 0
    outer loop
      vertex 3.97119 -1.01963 80
      vertex 3.59286 -1.97519 100
      vertex 3.59286 -1.97519 80
    endloop
  endfacet
  facet normal -0.535826 -0.844328 0
    outer loop
      vertex -2.61344 -3.1591 80
      vertex -1.74569 -3.70979 100
      vertex -2.61344 -3.1591 100
    endloop
  endfacet
  facet normal -0.535826 -0.844328 -0
    outer loop
      vertex -1.74569 -3.70979 100
      vertex -2.61344 -3.1591 80
      vertex -1.74569 -3.70979 80
    endloop
  endfacet
  facet normal -0.309021 -0.951055 0
    outer loop
      vertex -1.74569 -3.70979 80
      vertex -0.768263 -4.02738 100
      vertex -1.74569 -3.70979 100
    endloop
  endfacet
  facet normal -0.309021 -0.951055 -0
    outer loop
      vertex -0.768263 -4.02738 100
      vertex -1.74569 -3.70979 80
      vertex -0.768263 -4.02738 80
    endloop
  endfacet
  facet normal -0.968582 0.248693 0
    outer loop
      vertex -4.06767 0.513865 80
      vertex -3.81208 1.50931 100
      vertex -3.81208 1.50931 80
    endloop
  endfacet
  facet normal -0.968582 0.248693 0
    outer loop
      vertex -3.81208 1.50931 100
      vertex -4.06767 0.513865 80
      vertex -4.06767 0.513865 100
    endloop
  endfacet
  facet normal 0.637424 0.770513 -0
    outer loop
      vertex 2.98877 2.80664 80
      vertex 2.19689 3.46174 100
      vertex 2.98877 2.80664 100
    endloop
  endfacet
  facet normal 0.637424 0.770513 0
    outer loop
      vertex 2.19689 3.46174 100
      vertex 2.98877 2.80664 80
      vertex 2.19689 3.46174 80
    endloop
  endfacet
  facet normal -0.876309 0.48175 0
    outer loop
      vertex -3.81208 1.50931 80
      vertex -3.31697 2.40992 100
      vertex -3.31697 2.40992 80
    endloop
  endfacet
  facet normal -0.876309 0.48175 0
    outer loop
      vertex -3.31697 2.40992 100
      vertex -3.81208 1.50931 80
      vertex -3.81208 1.50931 100
    endloop
  endfacet
  facet normal -0.876309 -0.48175 0
    outer loop
      vertex -3.31697 -2.40992 80
      vertex -3.81208 -1.50931 100
      vertex -3.81208 -1.50931 80
    endloop
  endfacet
  facet normal -0.876309 -0.48175 0
    outer loop
      vertex -3.81208 -1.50931 100
      vertex -3.31697 -2.40992 80
      vertex -3.31697 -2.40992 100
    endloop
  endfacet
  facet normal -0.968582 -0.248693 0
    outer loop
      vertex -3.81208 -1.50931 80
      vertex -4.06767 -0.513865 100
      vertex -4.06767 -0.513865 80
    endloop
  endfacet
  facet normal -0.968582 -0.248693 0
    outer loop
      vertex -4.06767 -0.513865 100
      vertex -3.81208 -1.50931 80
      vertex -3.81208 -1.50931 100
    endloop
  endfacet
  facet normal 0.187383 0.982287 -0
    outer loop
      vertex 1.26697 3.89933 80
      vertex 0.257441 4.09191 100
      vertex 1.26697 3.89933 100
    endloop
  endfacet
  facet normal 0.187383 0.982287 0
    outer loop
      vertex 0.257441 4.09191 100
      vertex 1.26697 3.89933 80
      vertex 0.257441 4.09191 80
    endloop
  endfacet
  facet normal 0.929777 0.368122 0
    outer loop
      vertex 3.97119 1.01963 100
      vertex 3.59286 1.97519 80
      vertex 3.59286 1.97519 100
    endloop
  endfacet
  facet normal 0.929777 0.368122 0
    outer loop
      vertex 3.59286 1.97519 80
      vertex 3.97119 1.01963 100
      vertex 3.97119 1.01963 80
    endloop
  endfacet
  facet normal 0.425782 0.904826 -0
    outer loop
      vertex 2.19689 3.46174 80
      vertex 1.26697 3.89933 100
      vertex 2.19689 3.46174 100
    endloop
  endfacet
  facet normal 0.425782 0.904826 0
    outer loop
      vertex 1.26697 3.89933 100
      vertex 2.19689 3.46174 80
      vertex 1.26697 3.89933 80
    endloop
  endfacet
  facet normal -0.535826 0.844328 0
    outer loop
      vertex -1.74569 3.70979 80
      vertex -2.61344 3.1591 100
      vertex -1.74569 3.70979 100
    endloop
  endfacet
  facet normal -0.535826 0.844328 0
    outer loop
      vertex -2.61344 3.1591 100
      vertex -1.74569 3.70979 80
      vertex -2.61344 3.1591 80
    endloop
  endfacet
  facet normal -0.309021 0.951055 0
    outer loop
      vertex -0.768263 4.02738 80
      vertex -1.74569 3.70979 100
      vertex -0.768263 4.02738 100
    endloop
  endfacet
  facet normal -0.309021 0.951055 0
    outer loop
      vertex -1.74569 3.70979 100
      vertex -0.768263 4.02738 80
      vertex -1.74569 3.70979 80
    endloop
  endfacet
  facet normal 0.809014 0.587789 0
    outer loop
      vertex 3.59286 1.97519 100
      vertex 2.98877 2.80664 80
      vertex 2.98877 2.80664 100
    endloop
  endfacet
  facet normal 0.809014 0.587789 0
    outer loop
      vertex 2.98877 2.80664 80
      vertex 3.59286 1.97519 100
      vertex 3.59286 1.97519 80
    endloop
  endfacet
endsolid OpenSCAD_Model
